0
SECTION
2
HEADER
9
$INSUNITS
70
4
9
$ACADVER
1
AC1014
9
$HANDSEED
5
FFFF
0
ENDSEC
0
SECTION
2
TABLES
0
TABLE
2
VPORT
5
8
100
AcDbSymbolTable
0
ENDTAB
0
TABLE
2
LTYPE
5
5
100
AcDbSymbolTable
0
LTYPE
5
14
100
AcDbSymbolTableRecord
100
AcDbLinetypeTableRecord
2
BYBLOCK
70
0
0
LTYPE
5
15
100
AcDbSymbolTableRecord
100
AcDbLinetypeTableRecord
2
BYLAYER
70
0
0
LTYPE
5
16
100
AcDbSymbolTableRecord
100
AcDbLinetypeTableRecord
2
DASHED
70
0
3
Dashed __ __ __ __ __ __ __ __ __ __ __ __ __ _
72
65
73
2
40
0.75
49
0.5
74
0
49
-0.25
74
0
0
ENDTAB
0
TABLE
2
LAYER
5
2
100
AcDbSymbolTable
70
2
0
LAYER
5
50
100
AcDbSymbolTableRecord
100
AcDbLayerTableRecord
2
0
70
0
62
7
6
CONTINUOUS
0
ENDTAB
0
TABLE
2
STYLE
5
3
100
AcDbSymbolTable
70
1
0
STYLE
5
11
100
AcDbSymbolTableRecord
100
AcDbTextStyleTableRecord
2
STANDARD
70
0
0
ENDTAB
0
TABLE
2
VIEW
5
6
100
AcDbSymbolTable
70
0
0
ENDTAB
0
TABLE
2
UCS
5
7
100
AcDbSymbolTable
70
0
0
ENDTAB
0
TABLE
2
APPID
5
9
100
AcDbSymbolTable
70
2
0
APPID
5
12
100
AcDbSymbolTableRecord
100
AcDbRegAppTableRecord
2
ACAD
70
0
0
ENDTAB
0
TABLE
2
DIMSTYLE
5
A
100
AcDbSymbolTable
70
1
0
ENDTAB
0
TABLE
2
BLOCK_RECORD
5
1
100
AcDbSymbolTable
70
1
0
BLOCK_RECORD
5
1F
100
AcDbSymbolTableRecord
100
AcDbBlockTableRecord
2
*MODEL_SPACE
0
BLOCK_RECORD
5
1B
100
AcDbSymbolTableRecord
100
AcDbBlockTableRecord
2
*PAPER_SPACE
0
ENDTAB
0
ENDSEC
0
SECTION
2
BLOCKS
0
BLOCK
5
20
100
AcDbEntity
100
AcDbBlockBegin
2
*MODEL_SPACE
0
ENDBLK
5
21
100
AcDbEntity
100
AcDbBlockEnd
0
BLOCK
5
1C
100
AcDbEntity
100
AcDbBlockBegin
2
*PAPER_SPACE
0
ENDBLK
5
1D
100
AcDbEntity
100
AcDbBlockEnd
0
ENDSEC
0
SECTION
2
ENTITIES
0
LINE
5
100
100
AcDbEntity
8
0
100
AcDbLine
10
-29.10560327482747
20
-1.8074047424851869
30
0
11
-29.105603274827452
21
41.345113071932261
31
0
0
LINE
5
101
100
AcDbEntity
8
0
100
AcDbLine
10
-29.105603274827452
20
41.345113071932261
30
0
11
28.894396725172555
21
41.345113071932261
31
0
0
LINE
5
102
100
AcDbEntity
8
0
100
AcDbLine
10
28.894396725172555
20
41.345113071932261
30
0
11
28.894396725172555
21
-41.654886928067747
31
0
0
LINE
5
103
100
AcDbEntity
8
0
100
AcDbLine
10
28.894396725172555
20
-41.654886928067747
30
0
11
-29.105603274827452
21
-41.654886928067747
31
0
0
LINE
5
104
100
AcDbEntity
8
0
100
AcDbLine
10
-29.105603274827452
20
-41.654886928067747
30
0
11
-29.105603274827452
21
-1.8298839325408167
31
0
0
LWPOLYLINE
5
105
100
AcDbEntity
8
0
100
AcDbPolyline
90
2
43
0.0
10
-29.105603274827452
20
-1.829883932540815
10
-29.105603274827473
20
-1.807404742485187
0
LWPOLYLINE
5
106
100
AcDbEntity
8
0
100
AcDbPolyline
90
8
70
1
43
0.0
10
28.894396725172555
20
-44.154886928067747
42
0.41421356237309404
10
31.394396725172552
20
-41.654886928067754
10
31.394396725172555
20
41.345113071932253
42
0.41421356237309509
10
28.894396725172562
20
43.845113071932261
10
-29.105603274827452
20
43.845113071932253
42
0.41421356237309193
10
-31.605603274827448
20
41.345113071932289
10
-31.605603274827452
20
-41.654886928067754
42
0.41421356237309298
10
-29.105603274827459
20
-44.154886928067747
0
LWPOLYLINE
5
107
100
AcDbEntity
8
0
100
AcDbPolyline
90
17
43
0.0
10
-9.042256409424793
20
-41.65488692806774
10
-9.53123511134384
20
-41.44008873420025
10
-9.968956447162581
20
-41.22716175868359
10
-10.354517831170444
20
-41.01596265765476
10
-10.687013600916332
20
-40.80606271902202
10
-10.966160351705911
20
-40.596574247383664
10
-11.193018290878458
20
-40.38597080176595
10
-11.370861298243652
20
-40.171888348980346
10
-11.505635966594244
20
-39.951072463391455
10
-11.605261417501247
20
-39.71969113491202
10
-11.67837301077116
20
-39.47384547028547
10
-11.733171651306243
20
-39.210090212956786
10
-11.776324944582145
20
-38.92597332995574
10
-11.812436902019744
20
-38.620240557947085
10
-11.844320748005396
20
-38.292526722467265
10
-11.873457502261923
20
-37.94296204635306
10
-11.900435342679495
20
-37.57183102085913
0
LWPOLYLINE
5
108
100
AcDbEntity
8
0
100
AcDbPolyline
90
12
43
0.0
10
-11.900435342679494
20
-37.57183102085912
10
-12.246305227439613
20
-37.321753118800665
10
-12.537811698244624
20
-37.09136810317107
10
-12.778300313615683
20
-36.87851032247572
10
-12.972524837746416
20
-36.68029201935962
10
-13.126692941674547
20
-36.49309164803165
10
-13.248177839310257
20
-36.31271385776256
10
-13.424893408156446
20
-35.954660189506015
10
-13.563412040062929
20
-35.57267509563535
10
-13.70891322723666
20
-35.14266492773525
10
-13.88499697815163
20
-34.65291749800102
10
-14.099999684840443
20
-34.09999923780561
0
LWPOLYLINE
5
109
100
AcDbEntity
8
0
100
AcDbPolyline
90
2
70
1
43
0.0
10
-14.099999684840443
20
-34.099999237805612
10
-14.499999675899744
20
-33.999999240040779
0
LWPOLYLINE
5
110
100
AcDbEntity
8
0
100
AcDbPolyline
90
17
43
0.0
10
-14.499999675899744
20
-33.99999924004078
10
-15.071677608981458
20
-33.39466871707808
10
-15.626354514441072
20
-32.77594030345511
10
-16.16361861835402
20
-32.14375502836005
10
-16.68282397498105
20
-31.498298097221447
10
-17.183150646739215
20
-30.840273620131708
10
-17.663686963525194
20
-30.17119545938152
10
-18.123543069275996
20
-29.493728771492673
10
-18.561941791491805
20
-28.811830582960635
10
-18.97822976431487
20
-28.13043036178194
10
-19.371867795011145
20
-27.454884494183393
10
-19.742458699327077
20
-26.790442756402058
10
-20.089808981595205
20
-26.14170632102775
10
-20.414028876500893
20
-25.51205976772366
10
-20.715539511784534
20
-24.903450716279124
10
-20.994924187629554
20
-24.31668864948236
10
-21.2527444315503
20
-23.751906076963635
0
LWPOLYLINE
5
111
100
AcDbEntity
8
0
100
AcDbPolyline
90
5
43
0.0
10
-21.2527444315503
20
-23.751906076963632
10
-21.49054957232945
20
-23.684029855732234
10
-21.727968944896542
20
-23.57588142740918
10
-21.961912222347294
20
-23.42266709913226
10
-22.184499910378346
20
-23.216020520981743
0
LWPOLYLINE
5
112
100
AcDbEntity
8
0
100
AcDbPolyline
90
2
70
1
43
0.0
10
-22.184499910378346
20
-23.216020520981747
10
-24.052002890401539
20
-24.043763042709717
0
LWPOLYLINE
5
113
100
AcDbEntity
8
0
100
AcDbPolyline
90
7
43
0.0
10
-24.052002890401535
20
-24.043763042709713
10
-24.179238226096142
20
-23.381898247981685
10
-24.233161199893413
20
-23.02189345356164
10
-24.279873390035515
20
-22.640264999384566
10
-24.319193958929784
20
-22.236470590635722
10
-24.35155766723675
20
-21.811813985280626
10
-24.398001704682876
20
-20.90767267419136
0
LWPOLYLINE
5
114
100
AcDbEntity
8
0
100
AcDbPolyline
90
51
43
0.0
10
-24.398001704682883
20
-20.907672674191364
10
-24.76163516223834
20
-20.839176317108386
10
-25.095140698875582
20
-20.777436823821585
10
-25.398834496081673
20
-20.72190473183335
10
-25.673184077100668
20
-20.67182120564777
10
-25.918839786363378
20
-20.626180050143486
10
-26.13666294362564
20
-20.583695121059357
10
-26.32775055943592
20
-20.54277333615855
10
-26.493469172078818
20
-20.501473782796413
10
-26.635497475255587
20
-20.457453457922895
10
-26.755839767904035
20
-20.407958503162263
10
-26.856796226561872
20
-20.34988261170585
10
-26.940885407004863
20
-20.27989919188484
10
-27.01071598811673
20
-20.194671899361104
10
-27.068852978677064
20
-20.091074830294716
10
-27.11769042865154
20
-19.96640386816688
10
-27.15934080188264
20
-19.818560165704973
10
-27.195550371820268
20
-19.646189652344827
10
-27.22767582243961
20
-19.448720555677678
10
-27.256734586940915
20
-19.226278198961534
10
-27.28345831135064
20
-18.97959452241166
10
-27.308331948384588
20
-18.709941505814918
10
-27.33163472042103
20
-18.419062358066824
10
-27.373895877444767
20
-17.782490040932075
10
-27.41008635425166
20
-17.09036499544496
10
-27.439599875351217
20
-16.365975875476707
10
-27.479275491595654
20
-14.915641696477397
10
-27.490722291169245
20
-14.234523035467301
10
-27.496816323133775
20
-13.608767606952458
10
-27.496316946496417
20
-13.053436340356791
10
-27.49270231987474
20
-12.805604462054697
10
-27.48607227000758
20
-12.578796025401621
10
-27.475630023618713
20
-12.373374732534518
10
-27.460403283568503
20
-12.189302522721231
10
-27.439275192109832
20
-12.02616815888852
10
-27.411020553558092
20
-11.883223113353782
10
-27.374340129348823
20
-11.759416369703727
10
-27.327895920062154
20
-11.65342752172307
10
-27.200390722250262
20
-11.488466306835457
10
-27.018334396949275
20
-11.373706884964669
10
-26.772742871170625
20
-11.292905688606105
10
-26.45615869330585
20
-11.2302608154695
10
-26.06293409669807
20
-11.17245254128216
10
-25.836335352698434
20
-11.142199255762279
10
-25.589290161793897
20
-11.109798286417872
10
-25.32156529776192
20
-11.074548570002941
10
-25.032999463552983
20
-11.035912170463371
10
-24.72349087821121
20
-10.993492064109782
10
-24.39298500580068
20
-10.947010043361898
10
-24.04146259768539
20
-10.896285486610202
10
-23.668927861362924
20
-10.841214233122681
0
LWPOLYLINE
5
115
100
AcDbEntity
8
0
100
AcDbPolyline
90
7
43
0.0
10
-23.668927861253767
20
-10.841214233106365
10
-23.593781907562498
20
-10.477096854414798
10
-23.541413761705407
20
-10.318621947317851
10
-23.47782599568638
20
-10.178031329244536
10
-23.402383684747488
20
-10.05633708239528
10
-23.315446835064655
20
-9.952965350042623
10
-23.110786581928295
20
-9.795296240586472
0
LWPOLYLINE
5
116
100
AcDbEntity
8
0
100
AcDbPolyline
90
17
43
0.0
10
-23.11078658192829
20
-9.79529624058647
10
-22.849071347683644
20
-9.973560219378191
10
-22.573146930153243
20
-10.130659446316088
10
-22.28688037376074
20
-10.264382260063636
10
-21.99424793450952
20
-10.37340114925541
10
-21.699221664244746
20
-10.45727640983649
10
-21.405657957543095
20
-10.516469443038904
10
-21.117187415012044
20
-10.552361425907177
10
-20.837130806471638
20
-10.567140576352033
10
-20.568446685532596
20
-10.56352668697704
10
-20.31368301007087
20
-10.54445463926213
10
-20.07492428488764
20
-10.512773513370368
10
-19.853729171180284
20
-10.470938273708196
10
-19.651092195094535
20
-10.420763087834196
10
-19.467514354774913
20
-10.363391339264112
10
-19.303163661081385
20
-10.299447048996738
10
-19.15803321547799
20
-10.229192429806902
0
LWPOLYLINE
5
117
100
AcDbEntity
8
0
100
AcDbPolyline
90
12
43
0.0
10
-19.15803321547799
20
-10.2291924298069
10
-19.13945826101496
20
-10.257668050052247
10
-19.094448765777106
20
-10.264361556600377
10
-19.022909153495153
20
-10.248993397587462
10
-18.92534245412203
20
-10.211451783471093
10
-18.80348204880078
20
-10.152143524671047
10
-18.66078675592071
20
-10.0722842825896
10
-18.333511148473526
20
-9.859078376609466
10
-17.989144167497308
20
-9.590742164561137
10
-17.66642895872057
20
-9.28489093141803
10
-17.38483124892121
20
-8.952918546683552
10
-17.149356739001984
20
-8.600146297941697
0
LWPOLYLINE
5
118
100
AcDbEntity
8
0
100
AcDbPolyline
90
2
70
1
43
0.0
10
-17.149356739001988
20
-8.6001462979416967
10
-17.346429944231254
20
-8.566170262262931
0
LWPOLYLINE
5
119
100
AcDbEntity
8
0
100
AcDbPolyline
90
9
43
0.0
10
-17.34642994423125
20
-8.566170262262931
10
-17.204460794984232
20
-8.285519727692517
10
-17.083756698540522
20
-8.02273191915307
10
-16.986403509527808
20
-7.779558962543292
10
-16.91510108487676
20
-7.5582687480547355
10
-16.871798291563636
20
-7.360498331432815
10
-16.856172936151985
20
-7.185977068953285
10
-16.866222403060615
20
-7.03302275583585
10
-16.899999622255564
20
-6.899999845772982
0
LWPOLYLINE
5
120
100
AcDbEntity
8
0
100
AcDbPolyline
90
2
70
1
43
0.0
10
-16.899999622255564
20
-6.8999998457729816
10
-17.499999608844519
20
-6.2999998591840267
0
LWPOLYLINE
5
121
100
AcDbEntity
8
0
100
AcDbPolyline
90
5
43
0.0
10
-17.49999960884452
20
-6.299999859184027
10
-17.490308264456704
20
-6.069143100909877
10
-17.51878003663159
20
-5.858014332807291
10
-17.590120106330513
20
-5.669045844797616
10
-17.699999604374167
20
-5.499999877065418
0
LWPOLYLINE
5
122
100
AcDbEntity
8
0
100
AcDbPolyline
90
5
43
0.0
10
-17.69999960437417
20
-5.49999987706542
10
-17.531641911861744
20
-5.547590696310025
10
-17.406519946341923
20
-5.596705303535613
10
-17.330726322486974
20
-5.647558425150205
10
-17.299999613314867
20
-5.699999872595072
0
LWPOLYLINE
5
123
100
AcDbEntity
8
0
100
AcDbPolyline
90
7
43
0.0
10
-17.299999613314867
20
-5.699999872595072
10
-17.168760568444903
20
-5.33815292951045
10
-17.126544987209954
20
-5.174000834135317
10
-17.102129326818176
20
-5.022604247145055
10
-17.09660821092812
20
-4.8847475810872805
10
-17.109500266826043
20
-4.76008588197334
10
-17.184762841687224
20
-4.54621898695126
0
LWPOLYLINE
5
124
100
AcDbEntity
8
0
100
AcDbPolyline
90
14
43
0.0
10
-17.184762841687224
20
-4.54621898695126
10
-17.14876263459694
20
-4.544190558743102
10
-17.110649214685242
20
-4.572980796196562
10
-17.070519477077447
20
-4.632760172067109
10
-17.028688538931434
20
-4.723092516117535
10
-16.98582725756728
20
-4.842255090738568
10
-16.943102625955245
20
-4.986510378244729
10
-16.865068061120645
20
-5.325428314627552
10
-16.81069280440974
20
-5.680640950321567
10
-16.794657159449393
20
-5.995749107190103
10
-16.803610163506963
20
-6.127058411017759
10
-16.824223796300533
20
-6.238417507081825
10
-16.85640663979202
20
-6.329380810615334
10
-16.89999962225556
20
-6.3999998569488525
0
LWPOLYLINE
5
125
100
AcDbEntity
8
0
100
AcDbPolyline
90
5
43
0.0
10
-16.899999622255564
20
-6.3999998569488525
10
-16.63839648145912
20
-6.325144451999578
10
-16.394697810794582
20
-6.19641894654092
10
-16.170869910144976
20
-6.007907233068437
10
-15.964692625583291
20
-5.76628920305519
0
LWPOLYLINE
5
126
100
AcDbEntity
8
0
100
AcDbPolyline
90
5
43
0.0
10
-15.964692625583293
20
-5.76628920305519
10
-15.941567561598019
20
-5.542511068285665
10
-15.954988831810937
20
-5.323356944267286
10
-16.0092403950679
20
-5.109368857233162
10
-16.099999640136957
20
-4.899999890476464
0
LWPOLYLINE
5
127
100
AcDbEntity
8
0
100
AcDbPolyline
90
23
43
0.0
10
-16.099999640136957
20
-4.899999890476465
10
-15.760403609495416
20
-5.064200231808258
10
-15.459804205127062
20
-5.194045323447002
10
-15.198261189797112
20
-5.289482288837501
10
-14.97566447438424
20
-5.350607454119502
10
-14.791550702965598
20
-5.377827835932832
10
-14.644911437386616
20
-5.372029884900617
10
-14.533991032695406
20
-5.334757091170568
10
-14.456093474936512
20
-5.268380862857642
10
-14.407346704737556
20
-5.1763065121966365
10
-14.382662869101017
20
-5.063020555790641
10
-14.381661599955361
20
-4.794138033475717
10
-14.433211033521474
20
-4.222452793921288
10
-14.462672352603567
20
-3.95634498536446
10
-14.520313579444244
20
-3.6958641116360877
10
-14.625304030258539
20
-3.431401855888093
10
-14.770367960418435
20
-3.1676681305321606
10
-14.923282482608728
20
-2.9236118459040643
10
-15.044943421872432
20
-2.7219833392045722
10
-15.084600377855317
20
-2.6425175619234484
10
-15.107453773888999
20
-2.5787917224487624
10
-15.112677823644246
20
-2.5312435054682614
10
-15.099999662488699
20
-2.499999944120645
0
LWPOLYLINE
5
128
100
AcDbEntity
8
0
100
AcDbPolyline
90
19
43
0.0
10
-15.099999662488699
20
-2.4999999441206455
10
-14.853182075222158
20
-2.573669072282129
10
-14.639942421279176
20
-2.5829186544261584
10
-14.461244614254662
20
-2.5366766060100434
10
-14.318592239689993
20
-2.4599330344295267
10
-14.21166103932885
20
-2.3942260696864683
10
-14.129321240910132
20
-2.3732330555671877
10
-14.039997974954911
20
-2.390388612321662
10
-13.905809681824053
20
-2.4003825742190057
10
-13.726150282636368
20
-2.3633112691160503
10
-13.562624755755003
20
-2.2796238310644936
10
-13.513645513154886
20
-2.229174636047372
10
-13.497268172308203
20
-2.1786731194238933
10
-13.51562267921427
20
-2.1313141522478127
10
-13.565362748982361
20
-2.088901861285825
10
-13.727644450302924
20
-2.020788423561622
10
-13.911428677281338
20
-1.9724656248804744
10
-14.062399096892042
20
-1.9399488493189756
10
-14.159154379737048
20
-1.921363889454385
0
LWPOLYLINE
5
129
100
AcDbEntity
8
0
100
AcDbPolyline
90
15
43
0.0
10
-14.159154379737046
20
-1.9213638894543852
10
-14.008051520240738
20
-1.8453833551793348
10
-13.833931178022759
20
-1.7466959163838995
10
-13.63706755969405
20
-1.625535821820562
10
-13.418218403153151
20
-1.4825562508081038
10
-13.178883169543901
20
-1.3190549000230518
10
-12.921563895492824
20
-1.1372020127088467
10
-12.369510935866051
20
-0.7328073595737383
10
-11.80839831477867
20
-0.3094210181622946
10
-11.542117014582898
20
-0.10552513583763658
10
-11.29403654470485
20
0.0862420032341731
10
-11.068925904079896
20
0.2625598668855152
10
-10.86927809227254
20
0.4224598327066563
10
-10.69457870524161
20
0.5680310526235738
10
-10.540691112237775
20
0.705009497811513
0
LWPOLYLINE
5
130
100
AcDbEntity
8
0
100
AcDbPolyline
90
4
43
0.0
10
-10.540691112237772
20
0.7050094978115141
10
-9.739693904842472
20
0.3979896853572881
10
-9.368255464114819
20
0.23715358518997728
10
-9.017810756940872
20
0.0694940160448702
0
LWPOLYLINE
5
131
100
AcDbEntity
8
0
100
AcDbPolyline
90
3
43
0.0
10
-9.01781075694087
20
0.06949401604487092
10
-8.439012602149644
20
0.07051699408920037
10
-7.89999982342124
20
-9.455700622428555e-19
0
LWPOLYLINE
5
132
100
AcDbEntity
8
0
100
AcDbPolyline
90
15
43
0.0
10
-7.89999982342124
20
0.0
10
-7.553604290426114
20
-0.22401322787282466
10
-7.24395213153299
20
-0.4404685171990704
10
-6.971517038367373
20
-0.6492528769789588
10
-6.7364941448336975
20
-0.8502854230909637
10
-6.53820379060119
20
-1.0436267236212142
10
-6.374422875294004
20
-1.2296027815891095
10
-6.2405960909205405
20
-1.4089525164497025
10
-6.129441300159709
20
-1.5829049336535994
10
-5.937442702072172
20
-1.9211032320063073
10
-5.72424867244104
20
-2.2570942673096517
10
-5.593252633322246
20
-2.4271915079118
10
-5.441976254234918
20
-2.5994490681552174
10
-5.269472280214775
20
-2.7740752767925483
10
-5.075612745028608
20
-2.951123088161394
0
LWPOLYLINE
5
133
100
AcDbEntity
8
0
100
AcDbPolyline
90
6
70
1
43
0.0
10
-5.0756127450286082
20
-2.9511230881613941
10
-5.0999998860061169
20
-3.1999999284744263
10
-4.149347992824552
20
-4.4710643726307193
10
-4.2007453553023915
20
-4.9955872425196084
10
-4.149347992824552
20
-4.4710643726307193
10
-5.0999998860061169
20
-3.1999999284744263
0
LWPOLYLINE
5
134
100
AcDbEntity
8
0
100
AcDbPolyline
90
3
43
0.0
10
-4.2007453553023915
20
-4.995587242519608
10
-4.057523732256441
20
-5.032071783569135
10
-3.9193977642080102
20
-5.122207195531232
0
LWPOLYLINE
5
135
100
AcDbEntity
8
0
100
AcDbPolyline
90
2
70
1
43
0.0
10
-3.6053406287888183
20
-5.0309938050711036
42
0.059470983721421594
10
-3.9193977642080098
20
-5.1222071955312334
42
-0.05947098372142072
0
LWPOLYLINE
5
136
100
AcDbEntity
8
0
100
AcDbPolyline
90
5
43
0.0
10
-3.6053406287888183
20
-5.030993805071102
10
-3.5574383573807054
20
-5.080188635534656
10
-3.509676224815751
20
-5.093475302589064
10
-3.46199677297371
20
-5.070893988921924
10
-3.414248291377622
20
-5.012932278244204
0
LWPOLYLINE
5
137
100
AcDbEntity
8
0
100
AcDbPolyline
90
16
43
0.0
10
-3.4142482913776226
20
-5.012932278244202
10
-3.34875352714759
20
-4.880135013660049
10
-3.281244150065575
20
-4.691688364297071
10
-3.209711351703775
20
-4.45950367935891
10
-3.131806792712038
20
-4.199135393046143
10
-2.948716628610149
20
-3.6626882699634455
10
-2.8415696059942674
20
-3.418635291395086
10
-2.725180119974238
20
-3.2066239253537825
10
-2.602831783504791
20
-3.0322703691558295
10
-2.4793459770031894
20
-2.8964717277239527
10
-2.3602386743252826
20
-2.7969757705932388
10
-2.2508828951590676
20
-2.7298833862131633
10
-2.1556612068770207
20
-2.6911089797370122
10
-2.077316639894421
20
-2.6775590759066845
10
-2.0170946182529117
20
-2.6873891667398335
10
-1.975330390817347
20
-2.719722159170335
0
LWPOLYLINE
5
138
100
AcDbEntity
8
0
100
AcDbPolyline
90
2
43
0.0
10
-1.975330390817347
20
-2.719722159170335
10
-1.9501014176929414
20
-2.737476170367932
0
LWPOLYLINE
5
139
100
AcDbEntity
8
0
100
AcDbPolyline
90
3
43
0.0
10
-1.9501014176929439
20
-2.7374761703679362
10
-1.8333677301746634
20
-2.6514149825515143
10
-1.728737187718314
20
-2.6271213206794313
0
LWPOLYLINE
5
140
100
AcDbEntity
8
0
100
AcDbPolyline
90
7
43
0.0
10
-1.7287371877183144
20
-2.62712132067943
10
-1.2108525587760601
20
-2.630963331917807
10
-0.93882458273222
20
-2.659744189207366
10
-0.6570656661152672
20
-2.7084989407458173
10
-0.36517351480232946
20
-2.7780533422983535
10
-0.06353293118313948
20
-2.8676175419311076
10
0.5656396997232636
20
-3.099891200224608
0
LWPOLYLINE
5
141
100
AcDbEntity
8
0
100
AcDbPolyline
90
9
43
0.0
10
0.5656396997232893
20
-3.0998912002246186
10
0.7017363427934457
20
-3.094698263471367
10
0.8095659064570073
20
-3.0626966786612653
10
0.8931737124414154
20
-3.0062810367578345
10
0.9631288058598055
20
-2.9317543496672247
10
1.0375318638414208
20
-2.8502967221360453
10
1.13613802221198
20
-2.7758600930135824
10
1.2712532527626434
20
-2.721618914948869
10
1.440816901181146
20
-2.6970230364876593
0
LWPOLYLINE
5
142
100
AcDbEntity
8
0
100
AcDbPolyline
90
8
43
0.0
10
1.4408169011811613
20
-2.6970230364876593
10
1.3884965433628584
20
-2.668956885183391
10
1.357129890541345
20
-2.627235413700688
10
1.3466831410410078
20
-2.572105931119096
10
1.3569116134225836
20
-2.5043183256321693
10
1.3871987747165055
20
-2.425407707602558
10
1.4363830122343406
20
-2.338000969870715
10
1.5834404013233538
20
-2.154467697244011
0
LWPOLYLINE
5
143
100
AcDbEntity
8
0
100
AcDbPolyline
90
10
43
0.0
10
1.5834404013235088
20
-2.1544676972438515
10
1.5008001841460195
20
-2.1460581478267358
10
1.4359511994546648
20
-2.0989096902896067
10
1.4096329879706466
20
-2.0223973360738934
10
1.4220424434977668
20
-1.979789195359404
10
1.4558185966781148
20
-1.9386602157121027
10
1.5806955738929531
20
-1.872099787649747
10
1.7420942549891896
20
-1.8393152821494791
10
1.889533068216738
20
-1.84817794535638
10
1.9999999552965164
20
-1.8999999575316906
0
LWPOLYLINE
5
144
100
AcDbEntity
8
0
100
AcDbPolyline
90
12
43
0.0
10
1.99999995529658
20
-1.8999999575316773
10
2.1205172191065533
20
-1.8915863480975341
10
2.232696557145662
20
-1.9164289651859427
10
2.3323089347708956
20
-1.9723526837449334
10
2.415959394321697
20
-2.05501914213039
10
2.4812605377071963
20
-2.158731257138818
10
2.5270179809174733
20
-2.2772302128015367
10
2.561622416552812
20
-2.534684691878738
10
2.5327236203026096
20
-2.785395969801048
10
2.459884769565517
20
-2.9986551353655386
10
2.358054317543604
20
-3.1572351252255286
10
2.233688011682726
20
-3.2553164401596337
0
LWPOLYLINE
5
145
100
AcDbEntity
8
0
100
AcDbPolyline
90
9
43
0.0
10
2.233688011682725
20
-3.2553164401596333
10
2.2370960417446044
20
-3.430458578575958
10
2.2145074099875575
20
-3.592273804486774
10
2.1837097639012324
20
-3.723773339903127
10
2.162430518401206
20
-3.8207381023479403
10
2.1645161407925944
20
-3.8995439419107356
10
2.195990025569492
20
-3.990613309038682
10
2.2510654935326477
20
-4.119149186270898
10
2.3106068337334467
20
-4.289880896502723
0
LWPOLYLINE
5
146
100
AcDbEntity
8
0
100
AcDbPolyline
90
3
43
0.0
10
2.310606833733446
20
-4.289880896502723
10
2.440725963965581
20
-4.316210370098332
10
2.5402933277089477
20
-4.366458277924419
0
LWPOLYLINE
5
147
100
AcDbEntity
8
0
100
AcDbPolyline
90
12
43
0.0
10
2.5402933277089477
20
-4.366458277924418
10
2.5147653914351396
20
-4.240770247907249
10
2.5019330293002926
20
-4.13496912845768
10
2.501989204035245
20
-4.049296714263118
10
2.5150775430007277
20
-3.983819249885513
10
2.541113545334307
20
-3.9380992538524726
10
2.57960970663328
20
-3.9109844515147816
10
2.689423557183915
20
-3.9061878319430514
10
2.829133409099549
20
-3.9593324085989745
10
2.975986728360809
20
-4.06816254278359
10
3.1111672237416763
20
-4.233283177314734
10
3.2271813625148984
20
-4.45315284928057
0
LWPOLYLINE
5
148
100
AcDbEntity
8
0
100
AcDbPolyline
90
17
43
0.0
10
3.227181362514898
20
-4.4531528492805705
10
3.3934805409110336
20
-4.618319409774122
10
3.5091445140657664
20
-4.82279134221379
10
3.5588400010423573
20
-5.047383383617817
10
3.547400074373395
20
-5.269958587640123
10
3.4922926850606353
20
-5.4692964466744565
10
3.4120895196294407
20
-5.6298293884533
10
3.3159038036230086
20
-5.745891121295261
10
3.2013334698467024
20
-5.8212255629914305
10
3.0620189801870703
20
-5.86310685453909
10
2.89627731285991
20
-5.875958700104251
10
2.710630132375192
20
-5.858571379761068
10
2.5163860015443875
20
-5.806190801164434
10
2.324876561404334
20
-5.713574339584963
10
2.143834174604666
20
-5.577326495043759
10
1.9771621624465834
20
-5.3960460200208065
10
1.8262549096556184
20
-5.1694832779850985
0
LWPOLYLINE
5
149
100
AcDbEntity
8
0
100
AcDbPolyline
90
9
43
0.0
10
1.826254909655615
20
-5.1694832779850985
10
1.594714572054999
20
-5.1906233317736
10
1.3974894980568808
20
-5.167789490549357
10
1.2433979435535247
20
-5.127703947606901
10
1.1079902337283307
20
-5.08540978879384
10
0.9433391094435859
20
-5.038826217891852
10
0.7148446516990878
20
-4.977574539544718
10
0.43296928912586574
20
-4.892918512002843
10
0.14642244730827791
20
-4.780282963540843
0
LWPOLYLINE
5
150
100
AcDbEntity
8
0
100
AcDbPolyline
90
15
43
0.0
10
0.146422447308278
20
-4.780282963540843
10
-0.11074768123919336
20
-4.91218068337066
10
-0.39170327518700016
20
-4.998405345458348
10
-0.5350681086179083
20
-5.016487226847213
10
-0.6731057628475625
20
-5.00966662031047
10
-0.798253581598697
20
-4.971251660299976
10
-0.9025690976263491
20
-4.897454685920086
10
-0.9789303828891963
20
-4.790400356589851
10
-1.0219010630277099
20
-4.659596261941302
10
-1.0277398765465433
20
-4.519474584973732
10
-0.9941549448198684
20
-4.385535694388837
10
-0.9201351200552099
20
-4.270552343373794
10
-0.8057129782900027
20
-4.182287022650447
10
-0.651482361715673
20
-4.124288767462992
10
-0.4580959418931606
20
-4.097570122717413
0
LWPOLYLINE
5
151
100
AcDbEntity
8
0
100
AcDbPolyline
90
5
43
0.0
10
-0.4580959418931605
20
-4.097570122717413
10
-0.6824674544332094
20
-3.98515833775429
10
-0.9395802451833468
20
-3.865393275167191
10
-1.2381286790487027
20
-3.7533787026767005
10
-1.5808197731808422
20
-3.65470973281783
0
LWPOLYLINE
5
152
100
AcDbEntity
8
0
100
AcDbPolyline
90
2
70
1
43
0.0
10
-1.5808197731808424
20
-3.65470973281783
10
-1.840484487621632
20
-3.6486606034074818
0
LWPOLYLINE
5
153
100
AcDbEntity
8
0
100
AcDbPolyline
90
15
43
0.0
10
-1.840484487621632
20
-3.6486606034074818
10
-1.8875646659826086
20
-3.5826528866832983
10
-1.94037614965085
20
-3.5593078168441483
10
-1.9988456037182922
20
-3.5788695130376302
10
-2.0626236488362935
20
-3.640812383534584
10
-2.130879056510767
20
-3.74296724661612
10
-2.202081283389097
20
-3.8805703155209064
10
-2.3437679758274816
20
-4.229941767727423
10
-2.465034824671416
20
-4.610795537880407
10
-2.5108208429626946
20
-4.78771889270577
10
-2.5437278551149145
20
-4.944795790800553
10
-2.562498728145841
20
-5.076990724791207
10
-2.5666024046796587
20
-5.181643477202347
10
-2.5559671699614652
20
-5.2577222355932305
10
-2.530733926979553
20
-5.305114088074043
0
LWPOLYLINE
5
154
100
AcDbEntity
8
0
100
AcDbPolyline
90
2
43
0.0
10
-2.5307339269795524
20
-5.305114088074041
10
-2.517671001009759
20
-5.315450905547472
0
LWPOLYLINE
5
155
100
AcDbEntity
8
0
100
AcDbPolyline
90
2
70
1
43
0.0
10
-2.8468150503335306
20
-7.664455915850815
42
0.56895180574366055
10
-2.5176710010097598
20
-5.315450905547471
42
-0.56895180574366011
0
LWPOLYLINE
5
156
100
AcDbEntity
8
0
100
AcDbPolyline
90
8
43
0.0
10
-2.846815050333529
20
-7.664455915850817
10
-2.796813429374362
20
-7.883137879003373
10
-2.778237700151883
20
-8.018504201198294
10
-2.768710260298768
20
-8.173311860106322
10
-2.7724357824210912
20
-8.348981990490435
10
-2.7933272725531757
20
-8.546203079519211
10
-2.834271830157585
20
-8.764339916983095
10
-2.8965975330500062
20
-9.001028066827846
0
LWPOLYLINE
5
157
100
AcDbEntity
8
0
100
AcDbPolyline
90
26
43
0.0
10
-2.896597533050005
20
-9.001028066827846
10
-2.875523621754236
20
-9.029833151677144
10
-2.8436724081135747
20
-9.089713956021686
10
-2.8010490319930184
20
-9.180462870136713
10
-2.747702970966222
20
-9.30161745073945
10
-2.683748031216846
20
-9.452371226383596
10
-2.6093830688151236
20
-9.631481671065888
10
-2.5249152565919206
20
-9.837166285135066
10
-2.4307794233608773
20
-10.067020177170152
10
-2.215863915616522
20
-10.586713536774072
10
-1.970402027776526
20
-11.161038376458281
10
-1.7014867998473449
20
-11.755632369878276
10
-1.4170789703747644
20
-12.334525240424666
10
-1.1255757187340358
20
-12.863331578021423
10
-0.979804535727567
20
-13.09942818891285
10
-0.8353954916434215
20
-13.312466402191562
10
-0.693336703663443
20
-13.500046205113202
10
-0.5545668002257991
20
-13.660479746628518
10
-0.4199608564902841
20
-13.79291641513198
10
-0.2903156072050398
20
-13.89747745614113
10
-0.16634169413916394
20
-13.975274502590919
10
-0.04866371197137888
20
-14.02829865276929
10
0.06217648259324965
20
-14.059246801541375
10
0.1657141689460386
20
-14.071300759754095
10
0.3493802565736185
20
-14.052661702869568
10
0.5000000074505793
20
-14.00000020861626
0
LWPOLYLINE
5
158
100
AcDbEntity
8
0
100
AcDbPolyline
90
9
43
0.0
10
0.5000000074505806
20
-14.000000208616257
10
0.3840746064167944
20
-13.900324128623224
10
0.3225775093615287
20
-13.775176138941662
10
0.319721160677576
20
-13.622584857119435
10
0.37942323729199856
20
-13.440716848971574
10
0.5013439441149087
20
-13.229731135247205
10
0.6803564350781557
20
-12.992027029363458
10
0.9101478489432585
20
-12.730558888146325
10
1.1860256638190552
20
-12.447522765581246
0
LWPOLYLINE
5
159
100
AcDbEntity
8
0
100
AcDbPolyline
90
5
43
0.0
10
1.1860256638190547
20
-12.447522765581244
10
0.7797890956014738
20
-11.95358225976649
10
0.3627206622981564
20
-11.429181528447042
10
-0.06413543035071617
20
-10.877256976577886
10
-0.499999988824129
20
-10.29999976977706
0
LWPOLYLINE
5
160
100
AcDbEntity
8
0
100
AcDbPolyline
90
4
70
1
43
0.0
10
-0.49999998882412905
20
-10.29999976977706
10
-0.5000000074505806
20
-9.0000001341104507
10
1.5025872354175129
20
-10.895533706960116
10
-0.5000000074505806
20
-9.0000001341104507
0
LWPOLYLINE
5
161
100
AcDbEntity
8
0
100
AcDbPolyline
90
16
43
0.0
10
1.502587235417511
20
-10.895533706960116
10
1.40245076681113
20
-10.392221571263699
10
1.3692580051756045
20
-10.149405167676102
10
1.3548117225095693
20
-9.915335751062996
10
1.364995805054166
20
-9.692715751650676
10
1.404149178204312
20
-9.484310628919475
10
1.4735054172821407
20
-9.292602027575793
10
1.5704426445169075
20
-9.119560006116433
10
1.6892880820638425
20
-8.966652631487776
10
1.8227340606509919
20
-8.83492615204965
10
1.9631141120546225
20
-8.725034329904933
10
2.103710673105337
20
-8.637219712271063
10
2.239758144244378
20
-8.571300986156665
10
2.3685263028998884
20
-8.526802841346255
10
2.4887364769854403
20
-8.503179440832382
10
2.5999999418854713
20
-8.499999810010195
0
LWPOLYLINE
5
162
100
AcDbEntity
8
0
100
AcDbPolyline
90
5
43
0.0
10
2.5999999418854713
20
-8.499999810010195
10
2.6934092269204943
20
-8.724238404876843
10
2.803201232083444
20
-8.981891657454094
10
2.9309863711657167
20
-9.27624421310444
10
3.0745935691611046
20
-9.602867886060503
0
LWPOLYLINE
5
163
100
AcDbEntity
8
0
100
AcDbPolyline
90
2
70
1
43
0.0
10
3.074593569161105
20
-9.602867886060503
10
3.2238940133505762
20
-9.7129118475301617
0
LWPOLYLINE
5
164
100
AcDbEntity
8
0
100
AcDbPolyline
90
9
43
0.0
10
3.223894013350576
20
-9.71291184753016
10
3.1775122570776753
20
-9.363519828801836
10
3.1422123084491935
20
-9.052025004331862
10
3.1191451672005366
20
-8.782363524425225
10
3.1098898629673144
20
-8.559935301689078
10
3.1157993856790123
20
-8.389367245721852
10
3.137104932498219
20
-8.271449996827549
10
3.172932755865696
20
-8.203195542395605
10
3.2222740261556675
20
-8.181153920693655
0
LWPOLYLINE
5
165
100
AcDbEntity
8
0
100
AcDbPolyline
90
2
70
1
43
0.0
10
3.2222740261556675
20
-8.1811539206936548
10
3.5694222877968262
20
-7.7902453805716734
0
LWPOLYLINE
5
166
100
AcDbEntity
8
0
100
AcDbPolyline
90
12
43
0.0
10
3.5694222877968262
20
-7.7902453805716725
10
3.7422694795355604
20
-7.7390706211311056
10
3.8988549682922207
20
-7.703200532567772
10
4.038918727251305
20
-7.682936626440473
10
4.1622423431133955
20
-7.678633199926167
10
4.268870005257216
20
-7.690537943251472
10
4.359360274247385
20
-7.718604411299022
10
4.498102691528262
20
-7.820491939331797
10
4.596779762940209
20
-7.974703961390769
10
4.675673221751407
20
-8.169421000266057
10
4.748063319876503
20
-8.395589442216066
10
4.819139905495562
20
-8.648427661609567
0
LWPOLYLINE
5
167
100
AcDbEntity
8
0
100
AcDbPolyline
90
4
70
1
43
0.0
10
4.8191399054955628
20
-8.648427661609567
10
6.1999998614192009
20
-10.899999756366014
10
6.1999998614192009
20
-11.199999749660492
10
6.1999998614192009
20
-10.899999756366014
0
LWPOLYLINE
5
168
100
AcDbEntity
8
0
100
AcDbPolyline
90
9
43
0.0
10
6.199999861419201
20
-11.199999749660492
10
6.574810807492667
20
-11.597052883093388
10
6.907030151503043
20
-11.976550716433406
10
7.1923659772450295
20
-12.33672421838649
10
7.425104551241609
20
-12.675218316569334
10
7.60074420385133
20
-12.990177524041135
10
7.719252985000149
20
-13.28158867170122
10
7.78437234697877
20
-13.55099390200474
10
7.799999825656414
20
-13.79999969154596
0
LWPOLYLINE
5
169
100
AcDbEntity
8
0
100
AcDbPolyline
90
9
43
0.0
10
7.799999825656414
20
-13.799999691545963
10
7.560618747573464
20
-13.880987119559007
10
7.34598199153582
20
-13.961138768735642
10
7.158525769193052
20
-14.04037235215367
10
7.001415981830197
20
-14.118580936463298
10
6.876967686282292
20
-14.195686326939624
10
6.784857746699571
20
-14.271699438012268
10
6.722775553671818
20
-14.346698314191922
10
6.688455227753954
20
-14.420759489163537
0
LWPOLYLINE
5
170
100
AcDbEntity
8
0
100
AcDbPolyline
90
5
43
0.0
10
6.688455227753954
20
-14.420759489163535
10
6.71874477228195
20
-14.590299071777947
10
6.729562288906894
20
-14.766013255911355
10
6.7186830255350865
20
-14.948607512922854
10
6.688455227753954
20
-15.13733721156574
0
LWPOLYLINE
5
171
100
AcDbEntity
8
0
100
AcDbPolyline
90
9
43
0.0
10
6.688455227755208
20
-15.137337211566116
10
8.140690953467237
20
-15.589433678530161
10
9.54409131891898
20
-16.06209814097284
10
10.893679173524584
20
-16.55742682609395
10
12.184574038387131
20
-17.07747524586431
10
13.414862736438824
20
-17.623049173330717
10
14.587014194010028
20
-18.19310877044259
10
15.705480452572893
20
-18.78577897026985
10
16.773991854385535
20
-19.399488664041726
0
LWPOLYLINE
5
172
100
AcDbEntity
8
0
100
AcDbPolyline
90
8
43
0.0
10
16.77399185438554
20
-19.39948866404173
10
16.729820499504672
20
-19.494823238806053
10
16.672733439038304
20
-19.574545349558363
10
16.601593252541235
20
-19.637280086064944
10
16.51510424180594
20
-19.681461212433742
10
16.412733083643644
20
-19.70644404928132
10
16.29528339250302
20
-19.71320000320719
10
16.020537662535794
20
-19.678545772134225
0
LWPOLYLINE
5
173
100
AcDbEntity
8
0
100
AcDbPolyline
90
2
70
1
43
0.0
10
16.020537662535798
20
-19.678545772134225
10
10.327772657448858
20
-18.31116594248099
0
LWPOLYLINE
5
174
100
AcDbEntity
8
0
100
AcDbPolyline
90
13
43
0.0
10
10.327772657448856
20
-18.31116594248099
10
10.217878384690238
20
-18.074075617023393
10
10.081369161651835
20
-17.853287581303707
10
9.918047222659848
20
-17.64898358526743
10
9.727803501706992
20
-17.46138897550936
10
9.510823657962293
20
-17.290696738778024
10
9.267809197592719
20
-17.13698287346864
10
9.000230659992583
20
-17.000106436897006
10
8.710583970365956
20
-16.87960513133648
10
8.080699916474726
20
-16.684012231815128
10
7.417037467738295
20
-16.5401679380046
10
6.76342230237553
20
-16.436085422118367
10
6.158471910111857
20
-16.360608886422405
0
LWPOLYLINE
5
175
100
AcDbEntity
8
0
100
AcDbPolyline
90
9
43
0.0
10
6.1584719101118575
20
-16.360608886422405
10
5.996179991793637
20
-16.726818128746544
10
5.802182976639614
20
-17.07066055673707
10
5.576508169461195
20
-17.392307501397415
10
5.3194226228615635
20
-17.692339227966908
10
5.031633806572489
20
-17.972013661321398
10
4.714488591441204
20
-18.233527296041796
10
4.370040524340396
20
-18.480020859515893
10
4.000749692615672
20
-18.71488184653347
0
LWPOLYLINE
5
176
100
AcDbEntity
8
0
100
AcDbPolyline
90
9
43
0.0
10
4.000749692615672
20
-18.71488184653347
10
4.03694917741658
20
-19.94912732620934
10
4.0641734495744215
20
-21.142673966913982
10
4.08155094437766
20
-22.291569586862224
10
4.087965677858647
20
-23.390753665072854
10
4.082640796394302
20
-24.436703494969823
10
4.065761269194784
20
-25.430257834623912
10
4.038190454071914
20
-26.37533165094743
10
4.000749692615672
20
-27.275649384845128
0
LWPOLYLINE
5
177
100
AcDbEntity
8
0
100
AcDbPolyline
90
5
43
0.0
10
4.000749692615672
20
-27.275649384845124
10
3.956724210124292
20
-27.348803575364066
10
3.8596499254127368
20
-27.421754351206687
10
3.7046644012916423
20
-27.494483067508273
10
3.4990472171566105
20
-27.56701763773727
0
LWPOLYLINE
5
178
100
AcDbEntity
8
0
100
AcDbPolyline
90
25
43
0.0
10
3.49904721715661
20
-27.567017637737266
10
3.2267374760015146
20
-26.385283017589202
10
3.091753041254342
20
-25.817006735601932
10
2.962696008712448
20
-25.272371036395498
10
2.848444616593595
20
-24.765696480403978
10
2.801135961632282
20
-24.533349824278147
10
2.7631707277447712
20
-24.31928132063245
10
2.7366028520300647
20
-24.126393123741487
10
2.723130879705849
20
-23.956711709045674
10
2.7238396663609277
20
-23.81087918614421
10
2.7389284436486987
20
-23.687618365493705
10
2.807138566414825
20
-23.491224402137444
10
2.906509815027068
20
-23.309619903428587
10
2.9582575829823012
20
-23.200457792284137
10
3.0061726623483214
20
-23.066528514688205
10
3.046962334162806
20
-22.900050022522763
10
3.078010899493871
20
-22.6949285707828
10
3.097338593621346
20
-22.44663571609545
10
3.103487864362965
20
-22.151918762779
10
3.095440687879297
20
-21.8085855968077
10
3.07254317863776
20
-21.415308507656025
10
3.0344221792769854
20
-20.97141132228883
10
2.9809091086128094
20
-20.476675263737633
10
2.911968629307583
20
-19.931157711617402
10
2.827627362047147
20
-19.335012741403425
0
LWPOLYLINE
5
179
100
AcDbEntity
8
0
100
AcDbPolyline
90
16
43
0.0
10
2.8276273620471457
20
-19.33501274140342
10
2.1230314565018245
20
-19.620144870774567
10
1.7493193734954093
20
-19.735714371820833
10
1.3594367096152764
20
-19.82502289512492
10
0.9521256480203866
20
-19.88146515121005
10
0.5265758546055895
20
-19.898656277115396
10
0.08269664861102542
20
-19.870895952304803
10
-0.3785846714884315
20
-19.79366421127194
10
-0.8550796677590117
20
-19.664052280457362
10
-1.3432310871816189
20
-19.481032863312972
10
-1.8382971105463868
20
-19.245383567292045
10
-2.334718414781277
20
-18.959394523582997
10
-2.8264521664102302
20
-18.62661951137228
10
-3.3072933604402026
20
-18.25164469298714
10
-3.7712113697049343
20
-17.839841792695427
10
-4.212689600714538
20
-17.397125967512228
0
LWPOLYLINE
5
180
100
AcDbEntity
8
0
100
AcDbPolyline
90
7
43
0.0
10
-4.212689600716056
20
-17.39712596751061
10
-4.638479886529797
20
-17.4073634006623
10
-4.876136156693227
20
-17.392946749352056
10
-5.132182613278179
20
-17.36402110362507
10
-5.407038567688992
20
-17.320255646455703
10
-5.699562354837904
20
-17.262551098045336
10
-6.330984337438086
20
-17.110554768481673
0
LWPOLYLINE
5
181
100
AcDbEntity
8
0
100
AcDbPolyline
90
9
43
0.0
10
-6.330984337438088
20
-17.110554768481673
10
-6.263427130488932
20
-16.99280985015892
10
-6.160738451255401
20
-16.896033559867607
10
-6.020081261050472
20
-16.821919217160563
10
-5.838612244436365
20
-16.772163887942632
10
-5.616054678340699
20
-16.74693273759957
10
-5.3554220531128705
20
-16.74442712934991
10
-5.060737081230413
20
-16.762246060440937
10
-4.735071936595081
20
-16.798555868129675
0
LWPOLYLINE
5
182
100
AcDbEntity
8
0
100
AcDbPolyline
90
9
43
0.0
10
-4.735071936595083
20
-16.798555868129675
10
-5.273528139688637
20
-16.076843056537555
10
-5.741944283892971
20
-15.338015762990343
10
-6.145954689609989
20
-14.598576294075686
10
-6.498372743269372
20
-13.872423774005492
10
-6.816277175191405
20
-13.170887099163565
10
-7.118036866815339
20
-12.50276967229028
10
-7.420375961579995
20
-11.874367449773796
10
-7.735414591875497
20
-11.289472697901797
0
LWPOLYLINE
5
183
100
AcDbEntity
8
0
100
AcDbPolyline
90
3
43
0.0
10
-7.735414591875489
20
-11.289472697901793
10
-8.050776519883897
20
-11.106039760463258
10
-8.366179021011346
20
-10.874726520911722
0
LWPOLYLINE
5
184
100
AcDbEntity
8
0
100
AcDbPolyline
90
2
70
1
43
0.0
10
-8.3661790210113463
20
-10.874726520911722
10
-10.774777847567652
20
-13.275508792209877
0
LWPOLYLINE
5
185
100
AcDbEntity
8
0
100
AcDbPolyline
90
2
70
1
43
0.0
10
-11.179266468601172
20
-13.20099375065703
42
0.52439851037237228
10
-10.774777847567652
20
-13.275508792209877
42
-0.52439851037237684
0
LWPOLYLINE
5
186
100
AcDbEntity
8
0
100
AcDbPolyline
90
2
70
1
43
0.0
10
-11.179266468601172
20
-13.20099375065703
10
-11.87745208879447
20
-11.648698071722039
0
LWPOLYLINE
5
187
100
AcDbEntity
8
0
100
AcDbPolyline
90
17
43
0.0
10
-11.87745208879447
20
-11.648698071722038
10
-12.170019916608977
20
-11.002179761772839
10
-12.434217657579998
20
-10.421321255429401
10
-12.664917406744479
20
-9.903450013693261
10
-12.855235137965908
20
-9.44438046080336
10
-12.997991931882781
20
-9.038482652486369
10
-13.087234207199042
20
-8.678617162108718
10
-13.11988791045113
20
-8.355930867541659
10
-13.097022548578773
20
-8.05978096119032
10
-13.023362787878716
20
-7.778433951803044
10
-12.905683864207926
20
-7.500280884275658
10
-12.751297787854417
20
-7.215044417991697
10
-12.56665304964829
20
-6.914954706318605
10
-12.356566310338954
20
-6.595188980162172
10
-12.124289307041693
20
-6.253260933386088
10
-11.871781457333292
20
-5.888232893461264
10
-11.599999740719795
20
-5.499999877065418
0
LWPOLYLINE
5
188
100
AcDbEntity
8
0
100
AcDbPolyline
90
2
70
1
43
0.0
10
-11.599999740719795
20
-5.4999998770654193
10
-11.930896478589258
20
-5.1112745479437871
0
LWPOLYLINE
5
189
100
AcDbEntity
8
0
100
AcDbPolyline
90
18
43
0.0
10
-11.930896478589254
20
-5.111274547943787
10
-12.83763097664774
20
-5.078981684455872
10
-13.293133917639702
20
-5.088132916139592
10
-13.726144446365941
20
-5.128112009743735
10
-14.126338346881742
20
-5.214276424963198
10
-14.489631579660422
20
-5.362995869072985
10
-14.657311969588228
20
-5.465065359962546
10
-14.815908942938593
20
-5.5870104395357005
10
-14.965650262996395
20
-5.72906558903626
10
-15.106731499962384
20
-5.890649077737586
10
-15.36341010777716
20
-6.2662492368346765
10
-15.586440652166408
20
-6.695888501653742
10
-15.775776231395257
20
-7.156336629280875
10
-15.931171499413322
20
-7.6241281156561
10
-16.052536886663827
20
-8.080447777032628
10
-16.14010396065229
20
-8.513643436200317
10
-16.19427613957163
20
-8.91794924680505
10
-16.215423241731738
20
-9.291361877360883
0
LWPOLYLINE
5
190
100
AcDbEntity
8
0
100
AcDbPolyline
90
5
43
0.0
10
-16.215423241731738
20
-9.291361877360883
10
-15.774621824017059
20
-9.078579354162764
10
-15.29658418817487
20
-8.858723744603207
10
-14.785230890672489
20
-8.63253976540774
10
-14.24378538856201
20
-8.400639718019054
0
LWPOLYLINE
5
191
100
AcDbEntity
8
0
100
AcDbPolyline
90
21
43
0.0
10
-14.243785388562014
20
-8.400639718019056
10
-14.129470096736886
20
-8.336314043532461
10
-14.025157011787442
20
-8.293134191698387
10
-13.930287824036284
20
-8.273229696769047
10
-13.843123016596037
20
-8.28156386529093
10
-13.760052031298692
20
-8.32707404261401
10
-13.675718413431825
20
-8.422334764202912
10
-13.584232929314686
20
-8.581258981618852
10
-13.53418870781278
20
-8.688608853112395
10
-13.480666485945218
20
-8.816238293201652
10
-13.423444910421187
20
-8.964974214341158
10
-13.362498077542101
20
-9.135281052855829
10
-13.297977577398374
20
-9.32729799192622
10
-13.23018620987028
20
-9.5408919296767
10
-13.159549255470699
20
-9.775714347207446
10
-13.08658970910072
20
-10.031248038524717
10
-12.936147902759675
20
-10.601779460690471
10
-12.784134488639166
20
-11.2464889855042
10
-12.635927728317817
20
-11.95911794401337
10
-12.49629083885187
20
-12.734154496692158
10
-12.368631504241797
20
-13.567730421479197
0
LWPOLYLINE
5
192
100
AcDbEntity
8
0
100
AcDbPolyline
90
8
43
0.0
10
-12.3686315042418
20
-13.567730421479197
10
-12.321227049752551
20
-13.850044902502605
10
-12.284675652866337
20
-14.150730045053942
10
-12.259901946680689
20
-14.471350949245139
10
-12.247912241198701
20
-14.813610967359017
10
-12.24900794644956
20
-15.178020287565035
10
-12.262403171781363
20
-15.563248655132082
10
-12.321491165139745
20
-16.388374520949103
0
LWPOLYLINE
5
193
100
AcDbEntity
8
0
100
AcDbPolyline
90
9
43
0.0
10
-12.321491165139763
20
-16.38837452094909
10
-12.334045986034235
20
-16.420032716678527
10
-12.364215482117281
20
-16.462339188545705
10
-12.412240653695369
20
-16.515439624040535
10
-12.478474798151087
20
-16.57954759554231
10
-12.563336516969123
20
-16.654916152520038
10
-12.667255318906344
20
-16.74180493801572
10
-12.79059274965646
20
-16.84043251060878
10
-12.933550320551538
20
-16.950920686244697
0
LWPOLYLINE
5
194
100
AcDbEntity
8
0
100
AcDbPolyline
90
2
70
1
43
0.0
10
-12.933550320551539
20
-16.950920686244697
10
-12.732184381045995
20
-21.622280130233641
0
LWPOLYLINE
5
195
100
AcDbEntity
8
0
100
AcDbPolyline
90
2
70
1
43
0.0
10
-12.959003168149756
20
-21.881991189937317
42
0.39997800939246536
10
-12.732184381045995
20
-21.622280130233641
42
-0.39997800939247274
0
LWPOLYLINE
5
196
100
AcDbEntity
8
0
100
AcDbPolyline
90
2
70
1
43
0.0
10
-12.959003168149756
20
-21.881991189937317
10
-14.492785258782263
20
-22.023384877006663
0
LWPOLYLINE
5
197
100
AcDbEntity
8
0
100
AcDbPolyline
90
21
43
0.0
10
-14.49278525878226
20
-22.02338487700666
10
-14.30105628107308
20
-22.418147465599436
10
-14.060189396517375
20
-22.864644461803298
10
-13.772598232536872
20
-23.35931859475555
10
-13.443026397346491
20
-23.895605024034502
10
-13.079034786875585
20
-24.46334393846055
10
-12.690687704705997
20
-25.04918613932696
10
-11.888714931567476
20
-26.21215327206649
10
-11.500446128709713
20
-26.75591101241907
10
-11.136997129808584
20
-27.253048578493242
10
-10.809055599791014
20
-27.689566740667203
10
-10.661147975490826
20
-27.881514259221948
10
-10.525051294470096
20
-28.054501768153596
10
-10.401350643494677
20
-28.20779042319302
10
-10.290454197755595
20
-28.340878510546077
10
-10.192618721427628
20
-28.453465759057902
10
-10.10798409128928
20
-28.54540524473427
10
-10.036606508622738
20
-28.61665719870596
10
-9.978485602375155
20
-28.66725145969979
10
-9.933589377860464
20
-28.697252995897834
10
-9.901880174205942
20
-28.70672614275442
0
LWPOLYLINE
5
198
100
AcDbEntity
8
0
100
AcDbPolyline
90
31
43
0.0
10
-9.901880174205942
20
-28.70672614275442
10
-9.824442568568594
20
-28.201796749671104
10
-9.754381435584385
20
-27.740961279804754
10
-9.691471854831482
20
-27.32437894956651
10
-9.63507831503111
20
-26.952165391696727
10
-9.583932896454712
20
-26.624260219834625
10
-9.535894446590776
20
-26.340282741127837
10
-9.48771600220114
20
-26.099385770902938
10
-9.434830558834683
20
-25.900110769720566
10
-9.371060156048555
20
-25.74020888330468
10
-9.288535012145562
20
-25.6165377373193
10
-9.178348391872465
20
-25.525235338160446
10
-9.031556600948846
20
-25.462028051185545
10
-8.840288904722641
20
-25.422576968926233
10
-8.59897409721052
20
-25.402841860698036
10
-8.305279184452118
20
-25.399369767056953
10
-7.960340920329911
20
-25.409415134422225
10
-7.56836135266764
20
-25.43090631548302
10
-7.135879976627756
20
-25.4623319304965
10
-6.671179668304723
20
-25.502655922381305
10
-6.18371369320694
20
-25.551236556872045
10
-5.1805081289042105
20
-25.672027507815784
10
-4.202667246075249
20
-25.8240842921715
10
-3.742580833945491
20
-25.911929318176547
10
-3.308836218199199
20
-26.007646048396968
10
-2.9049320460685673
20
-26.111183813745466
10
-2.533223479097947
20
-26.222473834803168
10
-2.195140008407453
20
-26.341438331865763
10
-1.8914137033073826
20
-26.468000852494562
10
-1.6223100843383016
20
-26.602096854760138
10
-1.3878409693511709
20
-26.743682070194964
0
LWPOLYLINE
5
199
100
AcDbEntity
8
0
100
AcDbPolyline
90
9
43
0.0
10
-1.3878409693511706
20
-26.74368207019496
10
-1.1772703249615053
20
-27.48661255628295
10
-0.9876541684286186
20
-28.21551663183344
10
-0.8204968605943234
20
-28.929387315295763
10
-0.6779012583066909
20
-29.626817006850306
10
-0.5618915731268775
20
-30.30645074986792
10
-0.47337504129619445
20
-30.96768126308586
10
-0.41150701341995083
20
-31.611073933706894
10
-0.3744611209786101
20
-32.237851287182906
0
LWPOLYLINE
5
200
100
AcDbEntity
8
0
100
AcDbPolyline
90
11
43
0.0
10
-0.37446112097857376
20
-32.23785128718381
10
-0.10288600094277979
20
-32.223406621335485
10
0.17150701570814336
20
-32.28088619920951
10
0.3098269222760079
20
-32.338299704762086
10
0.44893693933194523
20
-32.415880060659696
10
0.58886142205191
20
-32.51424891058027
10
0.7296090561754746
20
-32.63362795011412
10
1.0135095375964704
20
-32.93377690408642
10
1.3003750967959329
20
-33.30960676691336
10
1.589879245046645
20
-33.75278421129357
10
1.8817786933109215
20
-34.25709950619771
0
LWPOLYLINE
5
201
100
AcDbEntity
8
0
100
AcDbPolyline
90
5
43
0.0
10
1.8817786933109266
20
-34.25709950619771
10
2.2308765836319666
20
-34.3042659398809
10
2.608864951826094
20
-34.3417338849045
10
3.011455080533819
20
-34.37101766259183
10
3.433382970927079
20
-34.393828858714386
0
LWPOLYLINE
5
202
100
AcDbEntity
8
0
100
AcDbPolyline
90
21
43
0.0
10
3.4333829709279753
20
-34.39382885871442
10
4.764834205456177
20
-34.43183643141392
10
5.442197523658264
20
-34.42636831643087
10
6.1180216077486325
20
-34.389907455919904
10
6.789437875681263
20
-34.30805367937752
10
7.454244806431743
20
-34.167711190855776
10
8.108713651348214
20
-33.96045683491937
10
8.745468396538612
20
-33.6857986484481
10
9.352571843706636
20
-33.35251474319042
10
9.91483749891434
20
-32.976443281123764
10
10.415771882950287
20
-32.57727262786808
10
10.638210030772589
20
-32.37543631762499
10
10.8395310073093
20
-32.17531652135707
10
11.018175216142737
20
-31.979024526906848
10
11.172870363228418
20
-31.788305618909604
10
11.302656386313974
20
-31.60449240937198
10
11.406856067233306
20
-31.42853860780342
10
11.485028524155988
20
-31.261078191532533
10
11.536916651703049
20
-31.102493598568515
10
11.562396667205084
20
-30.952980871109414
10
11.561429361476856
20
-30.812612333947644
0
LWPOLYLINE
5
203
100
AcDbEntity
8
0
100
AcDbPolyline
90
2
43
0.0
10
11.561429361476856
20
-30.812612333947644
10
12.036979293938682
20
-30.213206126770455
0
LWPOLYLINE
5
204
100
AcDbEntity
8
0
100
AcDbPolyline
90
28
43
0.0
10
12.03697929393868
20
-30.213206126770455
10
11.744408695450476
20
-29.645668403732945
10
11.507227848147744
20
-29.13072874992887
10
11.327522763759083
20
-28.667209923459165
10
11.209185033282411
20
-28.25051186561326
10
11.158176588010585
20
-27.870221570967804
10
11.16039183445979
20
-27.68828321782525
10
11.182634050238962
20
-27.507922040925468
10
11.226136354420206
20
-27.325790498427907
10
11.292127868463743
20
-27.138380486630926
10
11.38177688851448
20
-26.94218095791325
10
11.496129790836768
20
-26.73383152111919
10
11.636050658852547
20
-26.51027041481757
10
11.802165739944225
20
-26.2688708706225
10
11.994830565014896
20
-26.00753190992008
10
12.214158312247024
20
-25.72464781226896
10
12.460072545867154
20
-25.419028231952495
10
12.732349818276019
20
-25.08983432043337
10
13.030655431118596
20
-24.736525429077254
10
13.354577404870504
20
-24.35880607890589
10
13.703658849742109
20
-23.956573422338344
10
14.07742622222421
20
-23.529870156538987
10
14.475413576449542
20
-23.078842824713337
10
14.897184324785133
20
-22.603702838575106
10
15.342350440888412
20
-22.104690151634152
10
15.810589288309934
20
-21.5820397150281
10
16.301657376422263
20
-21.03595161985161
10
16.815402192642356
20
-20.466563364483363
0
LWPOLYLINE
5
205
100
AcDbEntity
8
0
100
AcDbPolyline
90
17
43
0.0
10
16.815402192642356
20
-20.466563364483363
10
16.888860915924088
20
-20.35543717774874
10
16.978628993632817
20
-20.27349209611929
10
17.08499976418033
20
-20.22134147393807
10
17.208277006716557
20
-20.19976085320004
10
17.34858338901988
20
-20.209420031660727
10
17.505686699695993
20
-20.250624146257287
10
17.67901347665103
20
-20.323283523359486
10
17.867769876327994
20
-20.42700433320703
10
18.071039396484863
20
-20.561131625622714
10
18.287847840901225
20
-20.72472227650347
10
18.517210917000398
20
-20.916517226998764
10
18.75819337507484
20
-21.13505690074401
10
19.00997280368795
20
-21.37889054356789
10
19.271883882377708
20
-21.646737546548582
10
19.543445713414847
20
-21.937607764105532
10
19.82437294533399
20
-22.250879694338952
0
LWPOLYLINE
5
206
100
AcDbEntity
8
0
100
AcDbPolyline
90
22
43
0.0
10
19.824372945333987
20
-22.250879694338956
10
20.0069509908142
20
-21.787447396817345
10
20.18903404299957
20
-21.294334965740774
10
20.368571394762014
20
-20.776180478601088
10
20.54366006305103
20
-20.238187980203296
10
20.87370265975565
20
-19.12496325024669
10
21.167433163130028
20
-17.99895922971517
10
21.416400957935327
20
-16.899053595320918
10
21.52246164244183
20
-16.367843277057908
10
21.61582389524496
20
-15.85211245609104
10
21.696426198853118
20
-15.353065486183528
10
21.76437513009083
20
-14.871206920834895
10
21.81991875094859
20
-14.406445498903121
10
21.863421409731004
20
-13.95818797983519
10
21.916187770786777
20
-13.106891205067992
10
21.926934152579864
20
-12.306280105482156
10
21.90013850911668
20
-11.543576924554909
10
21.83969539971056
20
-10.807334920550268
10
21.748412715974514
20
-10.089401526533171
10
21.628070199029818
20
-9.384786234970596
10
21.479653706828422
20
-8.690875461264648
10
21.303589925435357
20
-8.006648933414935
0
LWPOLYLINE
5
207
100
AcDbEntity
8
0
100
AcDbPolyline
90
5
43
0.0
10
21.303589925435364
20
-8.006648933414926
10
21.08090257312949
20
-7.881509346310952
10
20.87907360574836
20
-7.725725490110867
10
20.69859860896687
20
-7.539544411474299
10
20.539560391892508
20
-7.3232108671562735
0
LWPOLYLINE
5
208
100
AcDbEntity
8
0
100
AcDbPolyline
90
5
43
0.0
10
20.539560391892504
20
-7.3232108671562735
10
20.282391871744363
20
-6.773781361091482
10
20.0567629344918
20
-6.274757744099877
10
19.867265740019974
20
-5.833479108226395
10
19.710922779771465
20
-5.445186862784943
0
LWPOLYLINE
5
209
100
AcDbEntity
8
0
100
AcDbPolyline
90
9
43
0.0
10
19.710922779771465
20
-5.445186862784937
10
17.677561495301575
20
-4.559428470627784
10
15.66557550762422
20
-3.6384299598107415
10
13.676847275799275
20
-2.6790878374928253
10
11.712709569399317
20
-1.679204849606542
10
9.772966596087088
20
-0.6391037867682414
10
7.856076305955334
20
0.4386730695166599
10
5.960181432983547
20
1.551063760597332
10
4.0838784584083925
20
2.695754392625945
0
LWPOLYLINE
5
210
100
AcDbEntity
8
0
100
AcDbPolyline
90
26
43
0.0
10
4.083878458408394
20
2.695754392625945
10
4.01238341415311
20
2.7512020365362213
10
3.9837625733125828
20
2.8122958036666645
10
3.998119449392612
20
2.8790452240486624
10
4.055514848126272
20
2.9514478219179594
10
4.155862009881958
20
3.029471981671984
10
4.2988116888903
20
3.113038251162358
10
4.483641853657021
20
3.202001448259522
10
4.709161305061648
20
3.296135128113416
10
4.97363254191378
20
3.395119225342387
10
5.274780726261352
20
3.498541759715237
10
5.609877086466706
20
3.605912703263533
10
5.9758231090747005
20
3.716678047531654
10
6.369217804030963
20
3.830231255837441
10
6.786419589745793
20
3.945923902663504
10
7.676849628177998
20
4.180989372933825
10
9.570988486469707
20
4.6461555402484995
10
10.513616383071923
20
4.865440530279224
10
11.417616597635494
20
5.069602140931327
10
12.262873910942142
20
5.255205654809871
10
12.658980374184358
20
5.340314899103388
10
13.035774429083917
20
5.420048342119968
10
13.392415737807454
20
5.494290356125094
10
13.728311775148073
20
5.562969297707335
10
14.04307982252757
20
5.626049776581961
10
14.336508284606216
20
5.683524845834425
0
LWPOLYLINE
5
211
100
AcDbEntity
8
0
100
AcDbPolyline
90
22
43
0.0
10
14.336508284606216
20
5.683524845834427
10
13.825169451598605
20
6.379364655047138
10
13.251193549485768
20
7.089782174461404
10
12.614168637609513
20
7.814533552852856
10
11.914799807605691
20
8.55256443566962
10
11.156259489748535
20
9.301406247597969
10
10.345683412624945
20
10.056529403293998
10
9.495583354108362
20
10.810757193779622
10
8.623444328550598
20
11.554513612856686
10
7.74973603316405
20
12.276806122194605
10
6.8957402795419505
20
12.966329195961684
10
6.081446606056314
20
13.612576420786466
10
5.694533315480516
20
13.916707486174833
10
5.323323907112574
20
14.207065931514235
10
4.968998079052927
20
14.483092427958443
10
4.632364431469053
20
14.744436111433991
10
4.313935144123652
20
14.990908045579712
10
4.0139957534651804
20
15.222438017774797
10
3.732660615855763
20
15.439040408437426
10
3.469927008093724
20
15.64078120298432
10
3.225730848573191
20
15.827744417318797
10
3.0000000447034827
20
16.000000238418583
0
LWPOLYLINE
5
212
100
AcDbEntity
8
0
100
AcDbPolyline
90
25
43
0.0
10
3.0000000447034836
20
16.00000023841858
10
3.0094677167101267
20
16.07248540392519
10
3.0597205648400383
20
16.115274055438633
10
3.150719171329183
20
16.128380227191286
10
3.282309441993385
20
16.11187894000177
10
3.4541434247233505
20
16.065952483692993
10
3.665590516826588
20
15.990942377897422
10
3.9156532042995633
20
15.887398682274762
10
4.202935950417166
20
15.756098112328406
10
4.525670766998937
20
15.59802888690378
10
4.881753143080606
20
15.414369500731173
10
5.26878604640193
20
15.206462777564177
10
5.684129457061407
20
14.975786690101453
10
6.124948915527477
20
14.723925783308237
10
6.588259784134632
20
14.45254518251686
10
7.0709696560741
20
14.163365719021165
10
7.569921882358475
20
13.858138388530152
10
8.603880617426876
20
13.206533414923062
10
9.665326494727667
20
12.511327484842512
10
10.731251841119837
20
11.784945818662521
10
11.781903451376092
20
11.037792444282838
10
12.80216985535018
20
10.277445769855177
10
13.782111008760923
20
9.508405756136286
10
14.716474696815444
20
8.732492304706394
10
15.603710385344897
20
7.949569543890617
0
LWPOLYLINE
5
213
100
AcDbEntity
8
0
100
AcDbPolyline
90
2
70
1
43
0.0
10
15.603710385344897
20
7.9495695438906182
10
14.024820514049551
20
14.709151908106703
0
LWPOLYLINE
5
214
100
AcDbEntity
8
0
100
AcDbPolyline
90
38
43
0.0
10
14.024820514049551
20
14.709151908106703
10
14.048109016992472
20
14.781160195486711
10
14.08008005273849
20
14.832867122308375
10
14.120743072752445
20
14.86424917333092
10
14.170108533026575
20
14.875278314991451
10
14.228183876751585
20
14.865930454722067
10
14.294969305962148
20
14.836194353874657
10
14.370452644826566
20
14.786082493191165
10
14.454603611446181
20
14.715643209704927
10
14.547368042443038
20
14.62497293514823
10
14.648662280155268
20
14.514228091697557
10
14.758368804590503
20
14.38363436464049
10
14.876333188488871
20
14.23349318685417
10
15.002361253234785
20
14.064187800034917
10
15.136216370715742
20
13.876189007073227
10
15.4262493248089
20
13.44643179541095
10
15.743741265415508
20
12.949632393418018
10
16.085492732956297
20
12.392244598242087
10
16.4479003131536
20
11.7815460012708
10
16.827035424343446
20
11.125474816617444
10
17.218723451433977
20
10.43246695059246
10
17.618628504166434
20
9.711282328966796
10
18.425426041695754
20
8.2200546649896
10
19.21252259653971
20
6.722272933107393
10
19.588369895482582
20
5.991760061429968
10
19.947441512773587
20
5.283570711143051
10
20.286474753527777
20
4.604335966159578
10
20.602693268953622
20
3.959735191583164
10
20.893892200010367
20
3.354333421922091
10
21.158433732788033
20
2.7915878387092254
10
21.39517549039932
20
2.2739810666378815
10
21.603387487318326
20
1.8031766161178913
10
21.782665082080175
20
1.3801824699969918
10
21.932848557209816
20
1.0055027916398502
10
22.05395154921018
20
0.6792736356175711
10
22.14609271463595
20
0.4013930746140755
10
22.209430168213075
20
0.1716467370782912
10
22.244099001304328
20
-0.010171996350203341
0
LWPOLYLINE
5
215
100
AcDbEntity
8
0
100
AcDbPolyline
90
16
43
0.0
10
22.244099001304328
20
-0.010171996350204866
10
22.841348336112723
20
-0.9427851337654769
10
23.118585409914665
20
-1.392856337332721
10
23.380128252673813
20
-1.8295705115794418
10
23.624936609489765
20
-2.251136779670453
10
23.85203580613983
20
-2.6558992058454143
10
24.06055346124828
20
-3.04238521923556
10
24.249752876361377
20
-3.409349355803826
10
24.41904665910279
20
-3.755789482513033
10
24.567997155582763
20
-4.080944651146015
10
24.69630491777708
20
-4.3842762093377745
10
24.803781926359846
20
-4.665427570311799
10
24.89032337932765
20
-4.92418195987209
10
24.95588494286127
20
-5.160427762156104
10
25.000462476434226
20
-5.37412730084849
10
25.0240699891149
20
-5.565283105045094
0
LWPOLYLINE
5
216
100
AcDbEntity
8
0
100
AcDbPolyline
90
3
43
0.0
10
25.0240699891149
20
-5.5652831050450935
10
24.963178802437994
20
-5.930996555414448
10
24.88009529475254
20
-6.271394155546726
0
LWPOLYLINE
5
217
100
AcDbEntity
8
0
100
AcDbPolyline
90
36
43
0.0
10
24.880095294752536
20
-6.2713941555467265
10
24.987826285030536
20
-6.3816905125000885
10
25.09686547676956
20
-6.512836043589035
10
25.20720872499026
20
-6.6648436455959486
10
25.318843659126866
20
-6.837718238062613
10
25.431744903477313
20
-7.031442223643386
10
25.54586897198443
20
-7.245959975065027
10
25.66114911822153
20
-7.48116216295093
10
25.77749054262763
20
-7.736870930593665
10
26.01281139624638
20
-8.30867078063402
10
26.25033541869333
20
-8.958011260474432
10
26.48779135262923
20
-9.679431623650672
10
26.722065300717716
20
-10.465094950807824
10
26.949325776854202
20
-11.305027574633582
10
27.165269639742625
20
-12.187671904390406
10
27.365380547579548
20
-13.100463799886699
10
27.54517294632005
20
-14.030364917485318
10
27.700444704236943
20
-14.964410995277149
10
27.827537457328248
20
-15.890265189027206
10
27.923588731460843
20
-16.796751610907286
10
27.98679502784407
20
-17.674404633179144
10
28.016697656023652
20
-18.5160526517141
10
28.01427720835508
20
-19.317080325215837
10
27.98178469132996
20
-20.07525055907056
10
27.922407598724295
20
-20.790250916463034
10
27.839949562512885
20
-21.463262707447395
10
27.738523662069905
20
-22.096556031671184
10
27.622237076365685
20
-22.693072458338836
10
27.494887829958657
20
-23.256027782710973
10
27.359653136706033
20
-23.788510732845694
10
27.218902716560027
20
-24.293202485839473
10
27.074255032962963
20
-24.7723299326002
10
26.926725034150984
20
-25.227706775069088
10
26.776877357759727
20
-25.660784312607298
10
26.624972100157102
20
-26.07269635285191
10
26.315363499032014
20
-26.836258796312144
0
LWPOLYLINE
5
218
100
AcDbEntity
8
0
100
AcDbPolyline
90
9
43
0.0
10
26.315363499032014
20
-26.836258796312144
10
26.434896024748607
20
-27.113953299337236
10
26.530322792311498
20
-27.40859756168341
10
26.59956661406935
20
-27.7216521402122
10
26.640330167916872
20
-28.054732377456155
10
26.651834650842893
20
-28.408385882132407
10
26.63574571540548
20
-28.78144146476853
10
26.594736082380628
20
-29.172019824422122
10
26.530957399174984
20
-29.578608048471324
0
LWPOLYLINE
5
219
100
AcDbEntity
8
0
100
AcDbPolyline
90
10
70
1
43
0.0
10
26.530957399174984
20
-29.578608048471327
10
28.894396725172555
20
-33.838682586972311
10
28.894396725172555
20
-37.053447328298397
10
28.894396725172555
20
-41.654886928067747
10
10.271665016770433
20
-41.654886928067747
10
-9.0422564094247946
20
-41.654886928067747
10
-29.105603274827452
20
-41.654886928067747
10
-29.105603274827452
20
41.345113071932261
10
28.894396725172555
20
41.345113071932261
10
28.894396725172555
20
-33.838682586972311
0
LWPOLYLINE
5
220
100
AcDbEntity
8
0
100
AcDbPolyline
90
9
43
0.0
10
17.585207045146305
20
-37.86385517695636
10
16.62076317859876
20
-38.544103200238546
10
15.664124281256102
20
-39.17044802046932
10
14.72031383845024
20
-39.7383690608823
10
13.792673737955099
20
-40.245363754327386
10
12.883237950094284
20
-40.69037998711978
10
11.993055718736002
20
-41.073339356243615
10
11.122519316509761
20
-41.394668880739864
10
10.271665016770433
20
-41.65488692806774
0
LINE
5
221
100
AcDbEntity
8
0
100
AcDbLine
10
10.271665016770433
20
-41.654886928067747
30
0
11
28.894396725172555
21
-41.654886928067747
31
0
0
LWPOLYLINE
5
222
100
AcDbEntity
8
0
100
AcDbPolyline
90
24
43
0.0
10
28.894396725172555
20
-37.0534473282984
10
28.494052976279633
20
-37.38879487284495
10
28.110731630586596
20
-37.70832590361874
10
27.74454258959282
20
-38.01193770961641
10
27.39565676430342
20
-38.299469937967864
10
27.064293402210307
20
-38.57071588440338
10
26.750705913620287
20
-38.82543517283518
10
26.455165546733145
20
-39.063368425791865
10
26.17794328293998
20
-39.284253580448116
10
25.91928923746794
20
-39.48784450488595
10
25.679409821813536
20
-39.67393167915102
10
25.45844274412009
20
-39.84236488002407
10
25.256429676263885
20
-39.993078027110336
10
25.073285764474228
20
-40.1261169309229
10
24.9087652252205
20
-40.241670639257435
10
24.762425389535316
20
-40.34010424650744
10
24.63358919229908
20
-40.42199319553424
10
24.521302894383545
20
-40.48816194366947
10
24.42428488106345
20
-40.53973076931975
10
24.269228507490478
20
-40.60508627866586
10
24.152480735044666
20
-40.632176824699826
10
24.056717102505413
20
-40.636411420903876
10
23.871578914962463
20
-40.62684775742048
10
23.648817652335932
20
-40.63488705633295
0
LWPOLYLINE
5
223
100
AcDbEntity
8
0
100
AcDbPolyline
90
9
43
0.0
10
23.648817652335932
20
-40.63488705633295
10
22.665741521875695
20
-40.31580018454748
10
21.737849715343337
20
-39.99002326001782
10
20.870633588974012
20
-39.65689055995206
10
20.071309552733787
20
-39.31552723151107
10
19.34534479041057
20
-38.96527048235517
10
18.69235849840181
20
-38.606166477706566
10
18.107330341576265
20
-38.23882383799455
10
17.585207045146767
20
-37.86385517695602
0
LWPOLYLINE
5
224
100
AcDbEntity
8
0
100
AcDbPolyline
90
2
43
0.0
10
0.2676776839214005
20
-4.003842906197098
10
0.2649456422783576
20
-4.0338439424309085
0
LWPOLYLINE
5
225
100
AcDbEntity
8
0
100
AcDbPolyline
90
2
43
0.0
10
0.2649456422783573
20
-4.0338439424309085
10
0.26767768392139907
20
-4.003842906197099
0
LWPOLYLINE
5
226
100
AcDbEntity
8
0
100
AcDbPolyline
90
9
43
0.0
10
-14.649302063792891
20
-21.64133692380466
10
-14.775053181221839
20
-21.48914714589079
10
-14.94665297128127
20
-21.33579645449645
10
-15.161384425047983
20
-21.183888782436338
10
-15.406673878420213
20
-21.04025751769925
10
-15.660096382891977
20
-20.915420680793172
10
-15.898801035023983
20
-20.81943771203524
10
-16.109035897920368
20
-20.757465206283
10
-16.286936250277417
20
-20.729904507071044
0
LINE
5
227
100
AcDbEntity
8
0
100
AcDbLine
10
-16.286936250277421
20
-20.729904507071044
30
0
11
-16.286936250277421
21
-20.477213017097963
31
0
0
LWPOLYLINE
5
228
100
AcDbEntity
8
0
100
AcDbPolyline
90
8
43
0.0
10
-16.286936250277417
20
-20.477213017097966
10
-16.033694817984465
20
-20.55724850544988
10
-15.796559273479772
20
-20.654439550107412
10
-15.376011204526968
20
-20.86878730661312
10
-15.194129321129829
20
-20.969976978736405
10
-15.031633631407557
20
-21.059555963161387
10
-14.888600993410495
20
-21.134879313297493
10
-14.765011878383802
20
-21.194970190100374
0
LWPOLYLINE
5
229
100
AcDbEntity
8
0
100
AcDbPolyline
90
3
43
0.0
10
-14.765011878383799
20
-21.194970190100378
10
-14.725031789381823
20
-21.398984603551547
10
-14.649302063792891
20
-21.64133692380466
0
LWPOLYLINE
5
230
100
AcDbEntity
8
0
100
AcDbPolyline
90
3
43
0.0
10
-14.140247078653386
20
-33.60108241306248
10
-14.135974073143453
20
-33.504887972747746
10
-14.099999684840443
20
-33.43487787128525
0
LWPOLYLINE
5
231
100
AcDbEntity
8
0
100
AcDbPolyline
90
2
43
0.0
10
-14.099999684837844
20
-33.434877871286
10
-14.140247078653386
20
-33.60108241306248
0
LWPOLYLINE
5
232
100
AcDbEntity
8
0
100
AcDbPolyline
90
2
43
0.0
10
1.8523606588342671
20
-34.25242095160298
10
1.8817786933109217
20
-34.25709950619771
0
LWPOLYLINE
5
233
100
AcDbEntity
8
0
100
AcDbPolyline
90
11
43
0.0
10
-0.37446112097857376
20
-32.23785128718381
10
-0.10288600094277979
20
-32.223406621335485
10
0.17150701570814336
20
-32.28088619920951
10
0.3098269222760079
20
-32.338299704762086
10
0.44893693933194523
20
-32.415880060659696
10
0.58886142205191
20
-32.51424891058027
10
0.7296090561754746
20
-32.63362795011412
10
1.0135095375964704
20
-32.93377690408642
10
1.3003750967959329
20
-33.30960676691336
10
1.589879245046645
20
-33.75278421129357
10
1.8817786933109215
20
-34.25709950619771
0
LWPOLYLINE
5
234
100
AcDbEntity
8
0
100
AcDbPolyline
90
9
43
0.0
10
-0.3744611209786102
20
-32.23785128718291
10
-0.41150701341995083
20
-31.611073933706894
10
-0.4733750412961944
20
-30.967681263085858
10
-0.5618915731268774
20
-30.306450749867917
10
-0.6779012583066909
20
-29.626817006850306
10
-0.8204968605943234
20
-28.929387315295763
10
-0.9876541684286189
20
-28.21551663183344
10
-1.1772703249615053
20
-27.486612556282957
10
-1.3878409693511706
20
-26.74368207019496
0
LWPOLYLINE
5
235
100
AcDbEntity
8
0
100
AcDbPolyline
90
31
43
0.0
10
-1.3878409693511706
20
-26.74368207019496
10
-1.6223100843383016
20
-26.60209685476013
10
-1.8914137033073832
20
-26.468000852494562
10
-2.1951400084074533
20
-26.341438331865763
10
-2.5332234790979467
20
-26.222473834803168
10
-2.904932046068568
20
-26.111183813745466
10
-3.308836218199199
20
-26.007646048396968
10
-3.7425808339454907
20
-25.911929318176554
10
-4.202667246075249
20
-25.8240842921715
10
-5.1805081289042105
20
-25.672027507815784
10
-6.18371369320694
20
-25.551236556872052
10
-6.671179668304723
20
-25.502655922381308
10
-7.135879976627756
20
-25.462331930496504
10
-7.56836135266764
20
-25.430906315483018
10
-7.960340920329911
20
-25.40941513442223
10
-8.305279184452116
20
-25.399369767056957
10
-8.59897409721052
20
-25.402841860698036
10
-8.840288904722643
20
-25.422576968926233
10
-9.031556600948845
20
-25.462028051185545
10
-9.178348391872465
20
-25.52523533816044
10
-9.288535012145562
20
-25.616537737319305
10
-9.371060156048555
20
-25.74020888330467
10
-9.434830558834685
20
-25.900110769720566
10
-9.48771600220114
20
-26.099385770902945
10
-9.535894446590776
20
-26.340282741127833
10
-9.583932896454712
20
-26.624260219834625
10
-9.635078315031109
20
-26.95216539169673
10
-9.691471854831484
20
-27.324378949566512
10
-9.754381435584383
20
-27.740961279804754
10
-9.824442568568596
20
-28.2017967496711
10
-9.901880174205942
20
-28.706726142754423
0
LWPOLYLINE
5
236
100
AcDbEntity
8
0
100
AcDbPolyline
90
21
43
0.0
10
-14.49278525878226
20
-22.02338487700666
10
-14.30105628107308
20
-22.418147465599436
10
-14.060189396517375
20
-22.864644461803298
10
-13.772598232536872
20
-23.35931859475555
10
-13.443026397346491
20
-23.895605024034502
10
-13.079034786875585
20
-24.46334393846055
10
-12.690687704705997
20
-25.04918613932696
10
-11.888714931567476
20
-26.21215327206649
10
-11.500446128709713
20
-26.75591101241907
10
-11.136997129808584
20
-27.253048578493242
10
-10.809055599791014
20
-27.689566740667203
10
-10.661147975490826
20
-27.881514259221948
10
-10.525051294470096
20
-28.054501768153596
10
-10.401350643494677
20
-28.20779042319302
10
-10.290454197755595
20
-28.340878510546077
10
-10.192618721427628
20
-28.453465759057902
10
-10.10798409128928
20
-28.54540524473427
10
-10.036606508622738
20
-28.61665719870596
10
-9.978485602375155
20
-28.66725145969979
10
-9.933589377860464
20
-28.697252995897834
10
-9.901880174205942
20
-28.70672614275442
0
LWPOLYLINE
5
237
100
AcDbEntity
8
0
100
AcDbPolyline
90
9
43
0.0
10
-12.933550320551538
20
-16.950920686244693
10
-12.790592749656462
20
-16.840432510608785
10
-12.667255318906342
20
-16.74180493801572
10
-12.563336516969123
20
-16.65491615252004
10
-12.478474798151087
20
-16.57954759554231
10
-12.412240653695369
20
-16.515439624040535
10
-12.364215482117284
20
-16.462339188545705
10
-12.334045986034235
20
-16.420032716678527
10
-12.321491165139765
20
-16.38837452094909
0
LWPOLYLINE
5
238
100
AcDbEntity
8
0
100
AcDbPolyline
90
8
43
0.0
10
-12.321491165139747
20
-16.388374520949103
10
-12.262403171781363
20
-15.563248655132082
10
-12.24900794644956
20
-15.178020287565035
10
-12.247912241198703
20
-14.813610967359017
10
-12.25990194668069
20
-14.471350949245133
10
-12.284675652866339
20
-14.150730045053942
10
-12.321227049752554
20
-13.850044902502605
10
-12.368631504241797
20
-13.567730421479196
0
LWPOLYLINE
5
239
100
AcDbEntity
8
0
100
AcDbPolyline
90
21
43
0.0
10
-14.243785388562014
20
-8.400639718019056
10
-14.129470096736886
20
-8.336314043532461
10
-14.025157011787442
20
-8.293134191698387
10
-13.930287824036284
20
-8.273229696769047
10
-13.843123016596037
20
-8.28156386529093
10
-13.760052031298692
20
-8.32707404261401
10
-13.675718413431825
20
-8.422334764202912
10
-13.584232929314686
20
-8.581258981618852
10
-13.53418870781278
20
-8.688608853112395
10
-13.480666485945218
20
-8.816238293201652
10
-13.423444910421187
20
-8.964974214341158
10
-13.362498077542101
20
-9.135281052855829
10
-13.297977577398374
20
-9.32729799192622
10
-13.23018620987028
20
-9.5408919296767
10
-13.159549255470699
20
-9.775714347207446
10
-13.08658970910072
20
-10.031248038524717
10
-12.936147902759675
20
-10.601779460690471
10
-12.784134488639166
20
-11.2464889855042
10
-12.635927728317817
20
-11.95911794401337
10
-12.49629083885187
20
-12.734154496692158
10
-12.368631504241797
20
-13.567730421479197
0
LWPOLYLINE
5
240
100
AcDbEntity
8
0
100
AcDbPolyline
90
5
43
0.0
10
-16.215423241731738
20
-9.291361877360883
10
-15.774621824017059
20
-9.078579354162764
10
-15.29658418817487
20
-8.858723744603207
10
-14.785230890672489
20
-8.63253976540774
10
-14.24378538856201
20
-8.400639718019054
0
LWPOLYLINE
5
241
100
AcDbEntity
8
0
100
AcDbPolyline
90
18
43
0.0
10
-16.215423241731738
20
-9.291361877360881
10
-16.194276139571624
20
-8.91794924680505
10
-16.14010396065229
20
-8.513643436200319
10
-16.052536886663823
20
-8.080447777032628
10
-15.93117149941332
20
-7.624128115656099
10
-15.775776231395257
20
-7.156336629280875
10
-15.586440652166408
20
-6.69588850165374
10
-15.363410107777158
20
-6.266249236834677
10
-15.106731499962379
20
-5.890649077737586
10
-14.965650262996395
20
-5.729065589036262
10
-14.815908942938593
20
-5.587010439535702
10
-14.657311969588227
20
-5.465065359962545
10
-14.489631579660422
20
-5.362995869072986
10
-14.126338346881742
20
-5.214276424963196
10
-13.726144446365941
20
-5.1281120097437345
10
-13.293133917639699
20
-5.0881329161395925
10
-12.837630976647741
20
-5.078981684455873
10
-11.930896478589256
20
-5.111274547943788
0
LWPOLYLINE
5
242
100
AcDbEntity
8
0
100
AcDbPolyline
90
17
43
0.0
10
-11.599999740719795
20
-5.49999987706542
10
-11.871781457333292
20
-5.8882328934612636
10
-12.12428930704169
20
-6.253260933386088
10
-12.356566310338954
20
-6.595188980162172
10
-12.56665304964829
20
-6.914954706318605
10
-12.751297787854417
20
-7.215044417991697
10
-12.905683864207926
20
-7.500280884275658
10
-13.023362787878716
20
-7.778433951803044
10
-13.09702254857877
20
-8.05978096119032
10
-13.119887910451133
20
-8.355930867541659
10
-13.087234207199044
20
-8.678617162108718
10
-12.997991931882781
20
-9.038482652486369
10
-12.855235137965908
20
-9.444380460803362
10
-12.664917406744477
20
-9.90345001369326
10
-12.434217657579998
20
-10.421321255429401
10
-12.170019916608977
20
-11.002179761772839
10
-11.87745208879447
20
-11.648698071722038
0
LWPOLYLINE
5
243
100
AcDbEntity
8
0
100
AcDbPolyline
90
3
43
0.0
10
-8.366179021011346
20
-10.874726520911718
10
-8.050776519883897
20
-11.106039760463254
10
-7.7354145918754895
20
-11.289472697901793
0
LWPOLYLINE
5
244
100
AcDbEntity
8
0
100
AcDbPolyline
90
9
43
0.0
10
-4.735071936595083
20
-16.798555868129675
10
-5.273528139688637
20
-16.076843056537555
10
-5.741944283892971
20
-15.338015762990343
10
-6.145954689609989
20
-14.598576294075686
10
-6.498372743269372
20
-13.872423774005492
10
-6.816277175191405
20
-13.170887099163565
10
-7.118036866815339
20
-12.50276967229028
10
-7.420375961579995
20
-11.874367449773796
10
-7.735414591875497
20
-11.289472697901797
0
LWPOLYLINE
5
245
100
AcDbEntity
8
0
100
AcDbPolyline
90
9
43
0.0
10
-6.330984337438088
20
-17.110554768481673
10
-6.263427130488932
20
-16.99280985015892
10
-6.160738451255401
20
-16.896033559867607
10
-6.020081261050472
20
-16.821919217160563
10
-5.838612244436365
20
-16.772163887942632
10
-5.616054678340699
20
-16.74693273759957
10
-5.3554220531128705
20
-16.74442712934991
10
-5.060737081230413
20
-16.762246060440937
10
-4.735071936595081
20
-16.798555868129675
0
LWPOLYLINE
5
246
100
AcDbEntity
8
0
100
AcDbPolyline
90
7
43
0.0
10
-6.330984337438088
20
-17.110554768481673
10
-5.699562354837906
20
-17.262551098045336
10
-5.407038567688992
20
-17.320255646455706
10
-5.13218261327818
20
-17.364021103625074
10
-4.876136156693226
20
-17.392946749352056
10
-4.638479886529797
20
-17.4073634006623
10
-4.212689600716056
20
-17.397125967510615
0
LWPOLYLINE
5
247
100
AcDbEntity
8
0
100
AcDbPolyline
90
16
43
0.0
10
2.8276273620471457
20
-19.33501274140342
10
2.1230314565018245
20
-19.620144870774567
10
1.7493193734954093
20
-19.735714371820833
10
1.3594367096152764
20
-19.82502289512492
10
0.9521256480203866
20
-19.88146515121005
10
0.5265758546055895
20
-19.898656277115396
10
0.08269664861102542
20
-19.870895952304803
10
-0.3785846714884315
20
-19.79366421127194
10
-0.8550796677590117
20
-19.664052280457362
10
-1.3432310871816189
20
-19.481032863312972
10
-1.8382971105463868
20
-19.245383567292045
10
-2.334718414781277
20
-18.959394523582997
10
-2.8264521664102302
20
-18.62661951137228
10
-3.3072933604402026
20
-18.25164469298714
10
-3.7712113697049343
20
-17.839841792695427
10
-4.212689600714538
20
-17.397125967512228
0
LWPOLYLINE
5
248
100
AcDbEntity
8
0
100
AcDbPolyline
90
25
43
0.0
10
3.49904721715661
20
-27.567017637737266
10
3.2267374760015146
20
-26.385283017589202
10
3.091753041254342
20
-25.817006735601932
10
2.962696008712448
20
-25.272371036395498
10
2.848444616593595
20
-24.765696480403978
10
2.801135961632282
20
-24.533349824278147
10
2.7631707277447712
20
-24.31928132063245
10
2.7366028520300647
20
-24.126393123741487
10
2.723130879705849
20
-23.956711709045674
10
2.7238396663609277
20
-23.81087918614421
10
2.7389284436486987
20
-23.687618365493705
10
2.807138566414825
20
-23.491224402137444
10
2.906509815027068
20
-23.309619903428587
10
2.9582575829823012
20
-23.200457792284137
10
3.0061726623483214
20
-23.066528514688205
10
3.046962334162806
20
-22.900050022522763
10
3.078010899493871
20
-22.6949285707828
10
3.097338593621346
20
-22.44663571609545
10
3.103487864362965
20
-22.151918762779
10
3.095440687879297
20
-21.8085855968077
10
3.07254317863776
20
-21.415308507656025
10
3.0344221792769854
20
-20.97141132228883
10
2.9809091086128094
20
-20.476675263737633
10
2.911968629307583
20
-19.931157711617402
10
2.827627362047147
20
-19.335012741403425
0
LWPOLYLINE
5
249
100
AcDbEntity
8
0
100
AcDbPolyline
90
5
43
0.0
10
3.49904721715661
20
-27.567017637737266
10
3.704664401291642
20
-27.494483067508273
10
3.8596499254127368
20
-27.421754351206683
10
3.956724210124292
20
-27.34880357536407
10
4.000749692615672
20
-27.275649384845128
0
LWPOLYLINE
5
250
100
AcDbEntity
8
0
100
AcDbPolyline
90
9
43
0.0
10
4.000749692615672
20
-18.71488184653347
10
4.03694917741658
20
-19.94912732620934
10
4.0641734495744215
20
-21.142673966913982
10
4.08155094437766
20
-22.291569586862224
10
4.087965677858647
20
-23.390753665072854
10
4.082640796394302
20
-24.436703494969823
10
4.065761269194784
20
-25.430257834623912
10
4.038190454071914
20
-26.37533165094743
10
4.000749692615672
20
-27.275649384845128
0
LWPOLYLINE
5
251
100
AcDbEntity
8
0
100
AcDbPolyline
90
9
43
0.0
10
6.1584719101118575
20
-16.360608886422405
10
5.996179991793637
20
-16.726818128746544
10
5.802182976639614
20
-17.07066055673707
10
5.576508169461195
20
-17.392307501397415
10
5.3194226228615635
20
-17.692339227966908
10
5.031633806572489
20
-17.972013661321398
10
4.714488591441204
20
-18.233527296041796
10
4.370040524340396
20
-18.480020859515893
10
4.000749692615672
20
-18.71488184653347
0
LWPOLYLINE
5
252
100
AcDbEntity
8
0
100
AcDbPolyline
90
13
43
0.0
10
6.158471910111857
20
-16.360608886422405
10
6.76342230237553
20
-16.436085422118367
10
7.417037467738295
20
-16.5401679380046
10
8.080699916474728
20
-16.68401223181513
10
8.710583970365956
20
-16.87960513133648
10
9.000230659992582
20
-17.000106436897006
10
9.267809197592717
20
-17.136982873468636
10
9.510823657962293
20
-17.290696738778024
10
9.72780350170699
20
-17.46138897550936
10
9.91804722265985
20
-17.648983585267427
10
10.081369161651834
20
-17.853287581303707
10
10.217878384690238
20
-18.074075617023393
10
10.327772657448856
20
-18.31116594248099
0
LWPOLYLINE
5
253
100
AcDbEntity
8
0
100
AcDbPolyline
90
8
43
0.0
10
16.020537662535798
20
-19.67854577213423
10
16.295283392503023
20
-19.71320000320719
10
16.412733083643644
20
-19.706444049281323
10
16.51510424180594
20
-19.681461212433742
10
16.60159325254124
20
-19.63728008606494
10
16.672733439038304
20
-19.574545349558363
10
16.729820499504672
20
-19.494823238806056
10
16.77399185438554
20
-19.399488664041726
0
LWPOLYLINE
5
254
100
AcDbEntity
8
0
100
AcDbPolyline
90
9
43
0.0
10
6.688455227755208
20
-15.137337211566116
10
8.140690953467237
20
-15.589433678530161
10
9.54409131891898
20
-16.06209814097284
10
10.893679173524584
20
-16.55742682609395
10
12.184574038387131
20
-17.07747524586431
10
13.414862736438824
20
-17.623049173330717
10
14.587014194010028
20
-18.19310877044259
10
15.705480452572893
20
-18.78577897026985
10
16.773991854385535
20
-19.399488664041726
0
LWPOLYLINE
5
255
100
AcDbEntity
8
0
100
AcDbPolyline
90
5
43
0.0
10
6.688455227753954
20
-15.13733721156574
10
6.7186830255350865
20
-14.94860751292285
10
6.729562288906894
20
-14.766013255911355
10
6.71874477228195
20
-14.590299071777945
10
6.688455227753954
20
-14.420759489163535
0
LWPOLYLINE
5
256
100
AcDbEntity
8
0
100
AcDbPolyline
90
9
43
0.0
10
6.688455227753954
20
-14.420759489163535
10
6.722775553671816
20
-14.346698314191922
10
6.784857746699571
20
-14.271699438012268
10
6.876967686282292
20
-14.195686326939626
10
7.001415981830196
20
-14.118580936463296
10
7.158525769193052
20
-14.040372352153671
10
7.3459819915358215
20
-13.96113876873564
10
7.560618747573464
20
-13.880987119559007
10
7.799999825656412
20
-13.799999691545963
0
LWPOLYLINE
5
257
100
AcDbEntity
8
0
100
AcDbPolyline
90
9
43
0.0
10
7.799999825656414
20
-13.799999691545963
10
7.78437234697877
20
-13.550993902004741
10
7.719252985000147
20
-13.28158867170122
10
7.600744203851331
20
-12.990177524041137
10
7.42510455124161
20
-12.675218316569332
10
7.192365977245029
20
-12.33672421838649
10
6.907030151503044
20
-11.976550716433406
10
6.574810807492667
20
-11.59705288309339
10
6.199999861419199
20
-11.199999749660488
0
LWPOLYLINE
5
258
100
AcDbEntity
8
0
100
AcDbPolyline
90
12
43
0.0
10
4.819139905495562
20
-8.648427661609567
10
4.748063319876503
20
-8.395589442216066
10
4.675673221751407
20
-8.16942100026606
10
4.596779762940209
20
-7.974703961390768
10
4.498102691528261
20
-7.820491939331795
10
4.359360274247385
20
-7.718604411299022
10
4.268870005257216
20
-7.690537943251472
10
4.162242343113396
20
-7.678633199926166
10
4.038918727251305
20
-7.682936626440473
10
3.898854968292221
20
-7.703200532567772
10
3.7422694795355596
20
-7.7390706211311056
10
3.5694222877968262
20
-7.790245380571674
0
LWPOLYLINE
5
259
100
AcDbEntity
8
0
100
AcDbPolyline
90
9
43
0.0
10
3.222274026155667
20
-8.181153920693655
10
3.172932755865696
20
-8.203195542395605
10
3.1371049324982194
20
-8.271449996827549
10
3.1157993856790127
20
-8.389367245721854
10
3.1098898629673144
20
-8.559935301689078
10
3.1191451672005357
20
-8.782363524425225
10
3.142212308449194
20
-9.05202500433186
10
3.177512257077675
20
-9.363519828801836
10
3.223894013350576
20
-9.712911847530162
0
LWPOLYLINE
5
260
100
AcDbEntity
8
0
100
AcDbPolyline
90
5
43
0.0
10
3.0745935691611046
20
-9.602867886060501
10
2.930986371165717
20
-9.27624421310444
10
2.803201232083444
20
-8.981891657454094
10
2.693409226920494
20
-8.724238404876843
10
2.5999999418854713
20
-8.499999810010195
0
LWPOLYLINE
5
261
100
AcDbEntity
8
0
100
AcDbPolyline
90
16
43
0.0
10
2.5999999418854713
20
-8.499999810010195
10
2.4887364769854403
20
-8.503179440832382
10
2.3685263028998884
20
-8.526802841346257
10
2.2397581442443775
20
-8.571300986156665
10
2.1037106731053377
20
-8.637219712271062
10
1.9631141120546227
20
-8.725034329904933
10
1.8227340606509916
20
-8.83492615204965
10
1.6892880820638425
20
-8.966652631487776
10
1.5704426445169075
20
-9.119560006116435
10
1.473505417282141
20
-9.292602027575793
10
1.4041491782043116
20
-9.484310628919475
10
1.364995805054166
20
-9.692715751650676
10
1.3548117225095693
20
-9.915335751062994
10
1.3692580051756045
20
-10.149405167676102
10
1.40245076681113
20
-10.392221571263697
10
1.5025872354175112
20
-10.895533706960117
0
LWPOLYLINE
5
262
100
AcDbEntity
8
0
100
AcDbPolyline
90
5
43
0.0
10
1.1860256638190547
20
-12.447522765581244
10
0.7797890956014738
20
-11.95358225976649
10
0.3627206622981564
20
-11.429181528447042
10
-0.06413543035071617
20
-10.877256976577886
10
-0.499999988824129
20
-10.29999976977706
0
LWPOLYLINE
5
263
100
AcDbEntity
8
0
100
AcDbPolyline
90
9
43
0.0
10
0.5000000074505806
20
-14.000000208616257
10
0.3840746064167944
20
-13.900324128623224
10
0.3225775093615287
20
-13.775176138941662
10
0.319721160677576
20
-13.622584857119435
10
0.37942323729199856
20
-13.440716848971574
10
0.5013439441149087
20
-13.229731135247205
10
0.6803564350781557
20
-12.992027029363458
10
0.9101478489432585
20
-12.730558888146325
10
1.1860256638190552
20
-12.447522765581246
0
LWPOLYLINE
5
264
100
AcDbEntity
8
0
100
AcDbPolyline
90
26
43
0.0
10
0.5000000074505793
20
-14.00000020861626
10
0.34938025657361843
20
-14.052661702869568
10
0.1657141689460386
20
-14.071300759754095
10
0.062176482593249656
20
-14.059246801541374
10
-0.048663711971378906
20
-14.028298652769285
10
-0.16634169413916397
20
-13.975274502590919
10
-0.29031560720503974
20
-13.897477456141134
10
-0.41996085649028414
20
-13.792916415131979
10
-0.5545668002257991
20
-13.66047974662852
10
-0.693336703663443
20
-13.500046205113202
10
-0.8353954916434218
20
-13.31246640219156
10
-0.979804535727567
20
-13.099428188912844
10
-1.125575718734036
20
-12.863331578021429
10
-1.4170789703747644
20
-12.334525240424663
10
-1.701486799847345
20
-11.755632369878281
10
-1.9704020277765255
20
-11.161038376458281
10
-2.215863915616522
20
-10.586713536774079
10
-2.4307794233608773
20
-10.067020177170152
10
-2.524915256591921
20
-9.837166285135067
10
-2.609383068815124
20
-9.63148167106589
10
-2.6837480312168465
20
-9.452371226383596
10
-2.7477029709662215
20
-9.30161745073945
10
-2.8010490319930192
20
-9.180462870136715
10
-2.8436724081135742
20
-9.089713956021685
10
-2.875523621754236
20
-9.029833151677144
10
-2.8965975330500053
20
-9.001028066827844
0
LWPOLYLINE
5
265
100
AcDbEntity
8
0
100
AcDbPolyline
90
2
43
0.0
10
-2.906750277825607
20
-9.034518034252834
10
-2.896597533050007
20
-9.001028066827846
0
LWPOLYLINE
5
266
100
AcDbEntity
8
0
100
AcDbPolyline
90
3
43
0.0
10
-2.896597533050006
20
-9.001028066827844
10
-2.9067963854402734
20
-9.002938071749549
10
-2.9067502778256076
20
-9.034518034252834
0
LWPOLYLINE
5
267
100
AcDbEntity
8
0
100
AcDbPolyline
90
8
43
0.0
10
-2.896597533050007
20
-9.001028066827846
10
-2.8342718301575855
20
-8.764339916983097
10
-2.7933272725531757
20
-8.546203079519211
10
-2.772435782421092
20
-8.348981990490435
10
-2.768710260298768
20
-8.17331186010632
10
-2.7782377001518834
20
-8.018504201198292
10
-2.7968134293743616
20
-7.883137879003373
10
-2.846815050333529
20
-7.6644559158508185
0
LWPOLYLINE
5
268
100
AcDbEntity
8
0
100
AcDbPolyline
90
2
43
0.0
10
-2.517671001009759
20
-5.315450905547472
10
-2.5307339269795524
20
-5.305114088074041
0
LWPOLYLINE
5
269
100
AcDbEntity
8
0
100
AcDbPolyline
90
15
43
0.0
10
-2.530733926979553
20
-5.305114088074042
10
-2.555967169961465
20
-5.257722235593231
10
-2.5666024046796587
20
-5.18164347720235
10
-2.5624987281458416
20
-5.076990724791207
10
-2.5437278551149145
20
-4.944795790800552
10
-2.5108208429626946
20
-4.78771889270577
10
-2.4650348246714158
20
-4.610795537880408
10
-2.343767975827482
20
-4.229941767727423
10
-2.202081283389097
20
-3.880570315520907
10
-2.130879056510767
20
-3.7429672466161206
10
-2.062623648836294
20
-3.640812383534583
10
-1.9988456037182925
20
-3.5788695130376302
10
-1.9403761496508503
20
-3.5593078168441483
10
-1.8875646659826089
20
-3.5826528866832983
10
-1.8404844876216322
20
-3.6486606034074818
0
LWPOLYLINE
5
270
100
AcDbEntity
8
0
100
AcDbPolyline
90
5
43
0.0
10
-1.5808197731808422
20
-3.65470973281783
10
-1.238128679048703
20
-3.7533787026767
10
-0.9395802451833466
20
-3.8653932751671913
10
-0.6824674544332094
20
-3.9851583377542896
10
-0.4580959418931605
20
-4.097570122717413
0
LWPOLYLINE
5
271
100
AcDbEntity
8
0
100
AcDbPolyline
90
15
43
0.0
10
0.146422447308278
20
-4.780282963540843
10
-0.11074768123919336
20
-4.91218068337066
10
-0.39170327518700016
20
-4.998405345458348
10
-0.5350681086179083
20
-5.016487226847213
10
-0.6731057628475625
20
-5.00966662031047
10
-0.798253581598697
20
-4.971251660299976
10
-0.9025690976263491
20
-4.897454685920086
10
-0.9789303828891963
20
-4.790400356589851
10
-1.0219010630277099
20
-4.659596261941302
10
-1.0277398765465433
20
-4.519474584973732
10
-0.9941549448198684
20
-4.385535694388837
10
-0.9201351200552099
20
-4.270552343373794
10
-0.8057129782900027
20
-4.182287022650447
10
-0.651482361715673
20
-4.124288767462992
10
-0.4580959418931606
20
-4.097570122717413
0
LWPOLYLINE
5
272
100
AcDbEntity
8
0
100
AcDbPolyline
90
9
43
0.0
10
0.14642244730827791
20
-4.780282963540843
10
0.43296928912586574
20
-4.892918512002843
10
0.7148446516990878
20
-4.977574539544718
10
0.9433391094435859
20
-5.038826217891854
10
1.107990233728331
20
-5.085409788793842
10
1.2433979435535247
20
-5.127703947606901
10
1.3974894980568808
20
-5.167789490549356
10
1.594714572054999
20
-5.1906233317736
10
1.826254909655615
20
-5.1694832779850985
0
LWPOLYLINE
5
273
100
AcDbEntity
8
0
100
AcDbPolyline
90
17
43
0.0
10
1.8262549096556184
20
-5.1694832779850985
10
1.977162162446584
20
-5.3960460200208065
10
2.1438341746046663
20
-5.577326495043759
10
2.3248765614043334
20
-5.713574339584966
10
2.5163860015443875
20
-5.806190801164434
10
2.710630132375192
20
-5.858571379761069
10
2.89627731285991
20
-5.875958700104251
10
3.0620189801870703
20
-5.86310685453909
10
3.201333469846702
20
-5.821225562991433
10
3.3159038036230095
20
-5.745891121295262
10
3.412089519629441
20
-5.6298293884533
10
3.492292685060636
20
-5.469296446674457
10
3.547400074373395
20
-5.269958587640123
10
3.558840001042357
20
-5.047383383617817
10
3.5091445140657664
20
-4.822791342213789
10
3.3934805409110336
20
-4.618319409774121
10
3.227181362514898
20
-4.4531528492805705
0
LWPOLYLINE
5
274
100
AcDbEntity
8
0
100
AcDbPolyline
90
12
43
0.0
10
3.227181362514898
20
-4.4531528492805705
10
3.1111672237416768
20
-4.233283177314735
10
2.975986728360809
20
-4.06816254278359
10
2.829133409099548
20
-3.959332408598973
10
2.6894235571839142
20
-3.9061878319430514
10
2.5796097066332795
20
-3.9109844515147807
10
2.541113545334306
20
-3.9380992538524726
10
2.5150775430007277
20
-3.983819249885514
10
2.501989204035245
20
-4.049296714263117
10
2.501933029300292
20
-4.13496912845768
10
2.514765391435139
20
-4.240770247907249
10
2.5402933277089477
20
-4.366458277924417
0
LWPOLYLINE
5
275
100
AcDbEntity
8
0
100
AcDbPolyline
90
3
43
0.0
10
2.310606833733446
20
-4.289880896502723
10
2.440725963965581
20
-4.316210370098332
10
2.5402933277089477
20
-4.366458277924419
0
LWPOLYLINE
5
276
100
AcDbEntity
8
0
100
AcDbPolyline
90
9
43
0.0
10
2.3106068337334467
20
-4.289880896502723
10
2.251065493532647
20
-4.119149186270898
10
2.195990025569492
20
-3.9906133090386824
10
2.1645161407925944
20
-3.899543941910736
10
2.162430518401206
20
-3.8207381023479403
10
2.1837097639012324
20
-3.7237733399031274
10
2.2145074099875575
20
-3.5922738044867732
10
2.2370960417446044
20
-3.430458578575959
10
2.233688011682725
20
-3.2553164401596337
0
LWPOLYLINE
5
277
100
AcDbEntity
8
0
100
AcDbPolyline
90
12
43
0.0
10
2.2336880116827253
20
-3.2553164401596333
10
2.358054317543604
20
-3.157235125225528
10
2.4598847695655173
20
-2.998655135365539
10
2.5327236203026104
20
-2.785395969801048
10
2.5616224165528125
20
-2.534684691878738
10
2.5270179809174733
20
-2.2772302128015367
10
2.481260537707196
20
-2.158731257138818
10
2.415959394321697
20
-2.05501914213039
10
2.3323089347708956
20
-1.972352683744933
10
2.232696557145662
20
-1.9164289651859425
10
2.120517219106553
20
-1.8915863480975341
10
1.9999999552965797
20
-1.8999999575316768
0
LWPOLYLINE
5
278
100
AcDbEntity
8
0
100
AcDbPolyline
90
10
43
0.0
10
1.9999999552965164
20
-1.8999999575316906
10
1.8895330682167384
20
-1.8481779453563798
10
1.7420942549891894
20
-1.8393152821494796
10
1.580695573892953
20
-1.872099787649747
10
1.4558185966781145
20
-1.938660215712103
10
1.4220424434977668
20
-1.979789195359404
10
1.4096329879706473
20
-2.0223973360738934
10
1.4359511994546643
20
-2.0989096902896067
10
1.500800184146019
20
-2.146058147826736
10
1.5834404013235088
20
-2.1544676972438515
0
LWPOLYLINE
5
279
100
AcDbEntity
8
0
100
AcDbPolyline
90
8
43
0.0
10
1.5834404013233538
20
-2.1544676972440113
10
1.4363830122343406
20
-2.338000969870714
10
1.387198774716506
20
-2.425407707602558
10
1.356911613422584
20
-2.5043183256321697
10
1.3466831410410078
20
-2.5721059311190975
10
1.357129890541345
20
-2.6272354137006872
10
1.3884965433628584
20
-2.6689568851833916
10
1.4408169011811611
20
-2.6970230364876593
0
LWPOLYLINE
5
280
100
AcDbEntity
8
0
100
AcDbPolyline
90
9
43
0.0
10
1.440816901181146
20
-2.6970230364876593
10
1.2712532527626432
20
-2.721618914948869
10
1.1361380222119801
20
-2.7758600930135824
10
1.0375318638414206
20
-2.8502967221360453
10
0.9631288058598056
20
-2.9317543496672247
10
0.8931737124414154
20
-3.006281036757835
10
0.8095659064570077
20
-3.0626966786612657
10
0.7017363427934455
20
-3.0946982634713676
10
0.5656396997232893
20
-3.0998912002246186
0
LWPOLYLINE
5
281
100
AcDbEntity
8
0
100
AcDbPolyline
90
7
43
0.0
10
0.5656396997232637
20
-3.099891200224608
10
-0.06353293118313943
20
-2.8676175419311076
10
-0.3651735148023294
20
-2.7780533422983535
10
-0.6570656661152672
20
-2.7084989407458173
10
-0.9388245827322201
20
-2.659744189207366
10
-1.2108525587760601
20
-2.630963331917805
10
-1.7287371877183144
20
-2.62712132067943
0
LWPOLYLINE
5
282
100
AcDbEntity
8
0
100
AcDbPolyline
90
3
43
0.0
10
-1.7287371877183144
20
-2.62712132067943
10
-1.8333677301746631
20
-2.6514149825515143
10
-1.9501014176929439
20
-2.7374761703679362
0
LWPOLYLINE
5
283
100
AcDbEntity
8
0
100
AcDbPolyline
90
2
43
0.0
10
-1.975330390817347
20
-2.719722159170335
10
-1.9501014176929414
20
-2.737476170367932
0
LWPOLYLINE
5
284
100
AcDbEntity
8
0
100
AcDbPolyline
90
16
43
0.0
10
-3.4142482913776226
20
-5.012932278244202
10
-3.34875352714759
20
-4.880135013660049
10
-3.281244150065575
20
-4.691688364297071
10
-3.209711351703775
20
-4.45950367935891
10
-3.131806792712038
20
-4.199135393046143
10
-2.948716628610149
20
-3.6626882699634455
10
-2.8415696059942674
20
-3.418635291395086
10
-2.725180119974238
20
-3.2066239253537825
10
-2.602831783504791
20
-3.0322703691558295
10
-2.4793459770031894
20
-2.8964717277239527
10
-2.3602386743252826
20
-2.7969757705932388
10
-2.2508828951590676
20
-2.7298833862131633
10
-2.1556612068770207
20
-2.6911089797370122
10
-2.077316639894421
20
-2.6775590759066845
10
-2.0170946182529117
20
-2.6873891667398335
10
-1.975330390817347
20
-2.719722159170335
0
LWPOLYLINE
5
285
100
AcDbEntity
8
0
100
AcDbPolyline
90
5
43
0.0
10
-3.6053406287888183
20
-5.030993805071102
10
-3.5574383573807054
20
-5.080188635534656
10
-3.509676224815751
20
-5.093475302589064
10
-3.46199677297371
20
-5.070893988921924
10
-3.414248291377622
20
-5.012932278244204
0
LWPOLYLINE
5
286
100
AcDbEntity
8
0
100
AcDbPolyline
90
3
43
0.0
10
-4.2007453553023915
20
-4.995587242519608
10
-4.057523732256441
20
-5.032071783569135
10
-3.9193977642080102
20
-5.122207195531232
0
LWPOLYLINE
5
287
100
AcDbEntity
8
0
100
AcDbPolyline
90
15
43
0.0
10
-5.075612745028608
20
-2.951123088161395
10
-5.269472280214775
20
-2.774075276792548
10
-5.441976254234917
20
-2.5994490681552165
10
-5.593252633322246
20
-2.4271915079118
10
-5.72424867244104
20
-2.2570942673096517
10
-5.937442702072172
20
-1.9211032320063075
10
-6.12944130015971
20
-1.582904933653599
10
-6.240596090920537
20
-1.4089525164497023
10
-6.3744228752940035
20
-1.22960278158911
10
-6.538203790601191
20
-1.0436267236212142
10
-6.736494144833698
20
-0.8502854230909634
10
-6.971517038367372
20
-0.6492528769789591
10
-7.243952131532991
20
-0.4404685171990704
10
-7.553604290426114
20
-0.22401322787282463
10
-7.89999982342124
20
-2.2626338652209058e-17
0
LWPOLYLINE
5
288
100
AcDbEntity
8
0
100
AcDbPolyline
90
3
43
0.0
10
-9.01781075694087
20
0.06949401604487092
10
-8.439012602149644
20
0.07051699408920037
10
-7.89999982342124
20
-9.455700622428555e-19
0
LWPOLYLINE
5
289
100
AcDbEntity
8
0
100
AcDbPolyline
90
3
43
0.0
10
-9.01781075694087
20
0.06949401604487092
10
-8.762404116635892
20
-0.048054683015801306
10
-8.536113398670727
20
-0.20310578463478002
0
LWPOLYLINE
5
290
100
AcDbEntity
8
0
100
AcDbPolyline
90
2
43
0.0
10
-9.01781075694086
20
0.06949401604486527
10
-8.536113398670498
20
-0.2031057846349712
0
LWPOLYLINE
5
291
100
AcDbEntity
8
0
100
AcDbPolyline
90
4
43
0.0
10
-10.540691112237772
20
0.7050094978115141
10
-9.739693904842472
20
0.3979896853572881
10
-9.368255464114819
20
0.23715358518997728
10
-9.017810756940872
20
0.0694940160448702
0
LWPOLYLINE
5
292
100
AcDbEntity
8
0
100
AcDbPolyline
90
15
43
0.0
10
-14.159154379737046
20
-1.9213638894543852
10
-14.008051520240738
20
-1.8453833551793348
10
-13.833931178022759
20
-1.7466959163838995
10
-13.63706755969405
20
-1.625535821820562
10
-13.418218403153151
20
-1.4825562508081038
10
-13.178883169543901
20
-1.3190549000230518
10
-12.921563895492824
20
-1.1372020127088467
10
-12.369510935866051
20
-0.7328073595737383
10
-11.80839831477867
20
-0.3094210181622946
10
-11.542117014582898
20
-0.10552513583763658
10
-11.29403654470485
20
0.0862420032341731
10
-11.068925904079896
20
0.2625598668855152
10
-10.86927809227254
20
0.4224598327066563
10
-10.69457870524161
20
0.5680310526235738
10
-10.540691112237775
20
0.705009497811513
0
LWPOLYLINE
5
293
100
AcDbEntity
8
0
100
AcDbPolyline
90
19
43
0.0
10
-14.159154379737046
20
-1.9213638894543852
10
-14.062399096892044
20
-1.939948849318976
10
-13.911428677281338
20
-1.9724656248804744
10
-13.72764445030292
20
-2.020788423561622
10
-13.56536274898236
20
-2.0889018612858243
10
-13.515622679214264
20
-2.131314152247812
10
-13.4972681723082
20
-2.178673119423893
10
-13.513645513154888
20
-2.229174636047372
10
-13.562624755755001
20
-2.2796238310644936
10
-13.726150282636368
20
-2.3633112691160503
10
-13.905809681824053
20
-2.4003825742190057
10
-14.03999797495491
20
-2.390388612321662
10
-14.12932124091013
20
-2.3732330555671877
10
-14.21166103932885
20
-2.3942260696864683
10
-14.318592239689991
20
-2.4599330344295263
10
-14.461244614254662
20
-2.536676606010043
10
-14.639942421279175
20
-2.5829186544261575
10
-14.85318207522216
20
-2.573669072282129
10
-15.099999662488699
20
-2.499999944120645
0
LWPOLYLINE
5
294
100
AcDbEntity
8
0
100
AcDbPolyline
90
23
43
0.0
10
-15.099999662488699
20
-2.4999999441206455
10
-15.112677823644246
20
-2.5312435054682605
10
-15.107453773888999
20
-2.5787917224487638
10
-15.084600377855317
20
-2.642517561923449
10
-15.044943421872432
20
-2.7219833392045722
10
-14.92328248260873
20
-2.9236118459040643
10
-14.770367960418431
20
-3.16766813053216
10
-14.625304030258537
20
-3.4314018558880925
10
-14.520313579444244
20
-3.695864111636088
10
-14.462672352603564
20
-3.9563449853644586
10
-14.433211033521474
20
-4.2224527939212875
10
-14.381661599955363
20
-4.794138033475717
10
-14.382662869101017
20
-5.063020555790644
10
-14.407346704737552
20
-5.176306512196637
10
-14.456093474936514
20
-5.268380862857642
10
-14.533991032695408
20
-5.334757091170568
10
-14.64491143738662
20
-5.372029884900617
10
-14.791550702965601
20
-5.377827835932833
10
-14.975664474384242
20
-5.350607454119501
10
-15.198261189797117
20
-5.289482288837501
10
-15.459804205127062
20
-5.1940453234470025
10
-15.760403609495416
20
-5.064200231808258
10
-16.099999640136957
20
-4.899999890476465
0
LWPOLYLINE
5
295
100
AcDbEntity
8
0
100
AcDbPolyline
90
5
43
0.0
10
-16.099999640136957
20
-4.899999890476465
10
-16.0092403950679
20
-5.109368857233162
10
-15.954988831810937
20
-5.323356944267288
10
-15.941567561598019
20
-5.542511068285664
10
-15.964692625583291
20
-5.76628920305519
0
LWPOLYLINE
5
296
100
AcDbEntity
8
0
100
AcDbPolyline
90
5
43
0.0
10
-15.964692625583293
20
-5.76628920305519
10
-16.170869910144976
20
-6.007907233068437
10
-16.394697810794582
20
-6.196418946540919
10
-16.638396481459115
20
-6.325144451999578
10
-16.899999622255564
20
-6.399999856948853
0
LWPOLYLINE
5
297
100
AcDbEntity
8
0
100
AcDbPolyline
90
14
43
0.0
10
-16.899999622255564
20
-6.3999998569488525
10
-16.856406639792024
20
-6.3293808106153335
10
-16.824223796300533
20
-6.2384175070818255
10
-16.803610163506963
20
-6.12705841101776
10
-16.794657159449393
20
-5.995749107190102
10
-16.810692804409737
20
-5.680640950321567
10
-16.865068061120645
20
-5.325428314627551
10
-16.943102625955245
20
-4.986510378244731
10
-16.98582725756728
20
-4.842255090738569
10
-17.028688538931434
20
-4.723092516117536
10
-17.07051947707745
20
-4.63276017206711
10
-17.110649214685246
20
-4.572980796196562
10
-17.148762634596935
20
-4.544190558743102
10
-17.184762841687224
20
-4.546218986951261
0
LWPOLYLINE
5
298
100
AcDbEntity
8
0
100
AcDbPolyline
90
7
43
0.0
10
-17.184762841687224
20
-4.54621898695126
10
-17.109500266826046
20
-4.76008588197334
10
-17.09660821092812
20
-4.884747581087281
10
-17.102129326818172
20
-5.022604247145055
10
-17.126544987209954
20
-5.174000834135316
10
-17.168760568444903
20
-5.33815292951045
10
-17.299999613314867
20
-5.699999872595074
0
LWPOLYLINE
5
299
100
AcDbEntity
8
0
100
AcDbPolyline
90
5
43
0.0
10
-17.69999960437417
20
-5.49999987706542
10
-17.531641911861744
20
-5.547590696310025
10
-17.406519946341923
20
-5.596705303535613
10
-17.330726322486974
20
-5.647558425150205
10
-17.299999613314867
20
-5.699999872595072
0
LWPOLYLINE
5
300
100
AcDbEntity
8
0
100
AcDbPolyline
90
5
43
0.0
10
-17.69999960437417
20
-5.49999987706542
10
-17.590120106330513
20
-5.6690458447976155
10
-17.51878003663159
20
-5.858014332807291
10
-17.490308264456704
20
-6.069143100909875
10
-17.49999960884452
20
-6.299999859184027
0
LWPOLYLINE
5
301
100
AcDbEntity
8
0
100
AcDbPolyline
90
9
43
0.0
10
-16.899999622255564
20
-6.899999845772982
10
-16.866222403060615
20
-7.0330227558358525
10
-16.856172936151985
20
-7.185977068953286
10
-16.871798291563636
20
-7.360498331432815
10
-16.915101084876756
20
-7.5582687480547355
10
-16.986403509527808
20
-7.779558962543292
10
-17.083756698540522
20
-8.022731919153072
10
-17.204460794984232
20
-8.285519727692517
10
-17.34642994423125
20
-8.566170262262931
0
LWPOLYLINE
5
302
100
AcDbEntity
8
0
100
AcDbPolyline
90
12
43
0.0
10
-17.149356739001984
20
-8.600146297941697
10
-17.384831248921206
20
-8.952918546683552
10
-17.666428958720566
20
-9.284890931418028
10
-17.989144167497308
20
-9.590742164561137
10
-18.333511148473526
20
-9.859078376609466
10
-18.66078675592071
20
-10.072284282589603
10
-18.80348204880078
20
-10.152143524671041
10
-18.925342454122035
20
-10.211451783471087
10
-19.022909153495153
20
-10.248993397587464
10
-19.09444876577711
20
-10.264361556600381
10
-19.139458261014955
20
-10.257668050052246
10
-19.158033215477985
20
-10.2291924298069
0
LWPOLYLINE
5
303
100
AcDbEntity
8
0
100
AcDbPolyline
90
17
43
0.0
10
-19.15803321547799
20
-10.2291924298069
10
-19.303163661081385
20
-10.299447048996738
10
-19.467514354774917
20
-10.363391339264108
10
-19.651092195094535
20
-10.420763087834194
10
-19.853729171180284
20
-10.470938273708196
10
-20.07492428488763
20
-10.512773513370368
10
-20.313683010070875
20
-10.544454639262133
10
-20.568446685532592
20
-10.563526686977038
10
-20.837130806471635
20
-10.567140576352033
10
-21.117187415012044
20
-10.552361425907177
10
-21.405657957543085
20
-10.516469443038902
10
-21.699221664244742
20
-10.457276409836489
10
-21.994247934509524
20
-10.373401149255411
10
-22.286880373760738
20
-10.264382260063636
10
-22.573146930153243
20
-10.130659446316088
10
-22.849071347683644
20
-9.973560219378193
10
-23.11078658192829
20
-9.79529624058647
0
LWPOLYLINE
5
304
100
AcDbEntity
8
0
100
AcDbPolyline
90
7
43
0.0
10
-23.668927861253767
20
-10.841214233106365
10
-23.593781907562498
20
-10.477096854414798
10
-23.541413761705407
20
-10.318621947317851
10
-23.47782599568638
20
-10.178031329244536
10
-23.402383684747488
20
-10.05633708239528
10
-23.315446835064655
20
-9.952965350042623
10
-23.110786581928295
20
-9.795296240586472
0
LWPOLYLINE
5
305
100
AcDbEntity
8
0
100
AcDbPolyline
90
51
43
0.0
10
-23.668927861362924
20
-10.841214233122685
10
-24.04146259768539
20
-10.896285486610203
10
-24.39298500580068
20
-10.947010043361898
10
-24.723490878211212
20
-10.993492064109779
10
-25.032999463552976
20
-11.035912170463373
10
-25.321565297761925
20
-11.074548570002941
10
-25.589290161793894
20
-11.109798286417876
10
-25.836335352698434
20
-11.142199255762279
10
-26.062934096698072
20
-11.17245254128216
10
-26.45615869330585
20
-11.2302608154695
10
-26.772742871170625
20
-11.292905688606108
10
-27.01833439694928
20
-11.373706884964669
10
-27.200390722250262
20
-11.48846630683546
10
-27.327895920062154
20
-11.653427521723069
10
-27.374340129348823
20
-11.759416369703729
10
-27.41102055355809
20
-11.883223113353782
10
-27.439275192109836
20
-12.026168158888517
10
-27.460403283568503
20
-12.189302522721228
10
-27.475630023618713
20
-12.37337473253452
10
-27.486072270007583
20
-12.57879602540162
10
-27.492702319874745
20
-12.805604462054697
10
-27.496316946496417
20
-13.053436340356791
10
-27.49681632313378
20
-13.608767606952457
10
-27.490722291169245
20
-14.234523035467298
10
-27.479275491595654
20
-14.915641696477397
10
-27.439599875351217
20
-16.365975875476703
10
-27.41008635425166
20
-17.09036499544496
10
-27.373895877444767
20
-17.782490040932075
10
-27.331634720421025
20
-18.419062358066824
10
-27.308331948384588
20
-18.709941505814918
10
-27.28345831135064
20
-18.97959452241166
10
-27.256734586940915
20
-19.226278198961538
10
-27.22767582243961
20
-19.448720555677678
10
-27.195550371820268
20
-19.646189652344827
10
-27.159340801882642
20
-19.818560165704973
10
-27.11769042865154
20
-19.966403868166875
10
-27.06885297867707
20
-20.091074830294716
10
-27.010715988116733
20
-20.1946718993611
10
-26.94088540700486
20
-20.27989919188484
10
-26.856796226561876
20
-20.349882611705848
10
-26.755839767904035
20
-20.40795850316226
10
-26.635497475255583
20
-20.457453457922895
10
-26.493469172078818
20
-20.501473782796413
10
-26.32775055943592
20
-20.542773336158557
10
-26.13666294362564
20
-20.58369512105936
10
-25.918839786363378
20
-20.62618005014348
10
-25.673184077100668
20
-20.67182120564776
10
-25.398834496081673
20
-20.72190473183335
10
-25.095140698875582
20
-20.777436823821596
10
-24.76163516223834
20
-20.839176317108386
10
-24.398001704682883
20
-20.90767267419136
0
LWPOLYLINE
5
306
100
AcDbEntity
8
0
100
AcDbPolyline
90
7
43
0.0
10
-24.052002890401535
20
-24.043763042709713
10
-24.179238226096142
20
-23.381898247981685
10
-24.233161199893413
20
-23.02189345356164
10
-24.279873390035515
20
-22.640264999384566
10
-24.319193958929784
20
-22.236470590635722
10
-24.35155766723675
20
-21.811813985280626
10
-24.398001704682876
20
-20.90767267419136
0
LWPOLYLINE
5
307
100
AcDbEntity
8
0
100
AcDbPolyline
90
5
43
0.0
10
-21.2527444315503
20
-23.751906076963632
10
-21.49054957232945
20
-23.684029855732234
10
-21.727968944896542
20
-23.57588142740918
10
-21.961912222347294
20
-23.42266709913226
10
-22.184499910378346
20
-23.216020520981743
0
LWPOLYLINE
5
308
100
AcDbEntity
8
0
100
AcDbPolyline
90
17
43
0.0
10
-21.252744431550294
20
-23.751906076963632
10
-20.994924187629557
20
-24.31668864948236
10
-20.71553951178454
20
-24.903450716279128
10
-20.41402887650089
20
-25.51205976772366
10
-20.089808981595212
20
-26.14170632102775
10
-19.742458699327077
20
-26.790442756402058
10
-19.37186779501115
20
-27.45488449418339
10
-18.978229764314875
20
-28.130430361781936
10
-18.561941791491808
20
-28.811830582960635
10
-18.123543069275996
20
-29.49372877149268
10
-17.663686963525194
20
-30.171195459381515
10
-17.183150646739218
20
-30.840273620131704
10
-16.68282397498105
20
-31.498298097221443
10
-16.16361861835402
20
-32.14375502836004
10
-15.626354514441074
20
-32.77594030345511
10
-15.071677608981457
20
-33.39466871707808
10
-14.499999675899744
20
-33.99999924004078
0
LWPOLYLINE
5
309
100
AcDbEntity
8
0
100
AcDbPolyline
90
12
43
0.0
10
-14.099999684840443
20
-34.099999237805605
10
-13.884996978151637
20
-34.65291749800102
10
-13.70891322723666
20
-35.14266492773525
10
-13.563412040062932
20
-35.572675095635354
10
-13.424893408156443
20
-35.954660189506015
10
-13.248177839310257
20
-36.31271385776255
10
-13.126692941674545
20
-36.49309164803166
10
-12.97252483774642
20
-36.68029201935963
10
-12.778300313615684
20
-36.87851032247572
10
-12.537811698244626
20
-37.09136810317107
10
-12.24630522743961
20
-37.32175311880067
10
-11.900435342679494
20
-37.57183102085912
0
LWPOLYLINE
5
310
100
AcDbEntity
8
0
100
AcDbPolyline
90
17
43
0.0
10
-11.900435342679494
20
-37.57183102085913
10
-11.873457502261925
20
-37.94296204635305
10
-11.844320748005394
20
-38.292526722467265
10
-11.812436902019744
20
-38.620240557947085
10
-11.776324944582148
20
-38.925973329955745
10
-11.733171651306241
20
-39.21009021295679
10
-11.67837301077116
20
-39.47384547028546
10
-11.605261417501241
20
-39.719691134912026
10
-11.505635966594243
20
-39.95107246339145
10
-11.370861298243657
20
-40.171888348980346
10
-11.193018290878458
20
-40.38597080176595
10
-10.96616035170591
20
-40.59657424738367
10
-10.687013600916334
20
-40.80606271902202
10
-10.354517831170446
20
-41.01596265765477
10
-9.968956447162581
20
-41.2271617586836
10
-9.53123511134384
20
-41.44008873420026
10
-9.042256409424795
20
-41.654886928067754
0
LWPOLYLINE
5
311
100
AcDbEntity
8
0
100
AcDbPolyline
90
9
43
0.0
10
17.585207045146305
20
-37.86385517695636
10
16.62076317859876
20
-38.544103200238546
10
15.664124281256102
20
-39.17044802046932
10
14.72031383845024
20
-39.7383690608823
10
13.792673737955099
20
-40.245363754327386
10
12.883237950094284
20
-40.69037998711978
10
11.993055718736002
20
-41.073339356243615
10
11.122519316509761
20
-41.394668880739864
10
10.271665016770433
20
-41.65488692806774
0
LWPOLYLINE
5
312
100
AcDbEntity
8
0
100
AcDbPolyline
90
9
43
0.0
10
17.585207045146767
20
-37.86385517695602
10
18.10733034157626
20
-38.23882383799455
10
18.69235849840181
20
-38.606166477706566
10
19.34534479041057
20
-38.965270482355166
10
20.071309552733787
20
-39.31552723151107
10
20.870633588974005
20
-39.65689055995206
10
21.737849715343337
20
-39.99002326001782
10
22.665741521875688
20
-40.31580018454747
10
23.648817652335932
20
-40.63488705633295
0
LWPOLYLINE
5
313
100
AcDbEntity
8
0
100
AcDbPolyline
90
24
43
0.0
10
23.648817652335932
20
-40.63488705633295
10
23.871578914962466
20
-40.62684775742048
10
24.056717102505417
20
-40.636411420903876
10
24.15248073504467
20
-40.63217682469981
10
24.269228507490478
20
-40.60508627866586
10
24.42428488106345
20
-40.53973076931975
10
24.521302894383545
20
-40.48816194366947
10
24.633589192299084
20
-40.42199319553424
10
24.76242538953532
20
-40.34010424650745
10
24.908765225220506
20
-40.241670639257435
10
25.073285764474228
20
-40.1261169309229
10
25.256429676263885
20
-39.993078027110336
10
25.45844274412009
20
-39.84236488002407
10
25.679409821813532
20
-39.67393167915102
10
25.919289237467932
20
-39.48784450488594
10
26.177943282939985
20
-39.28425358044812
10
26.45516554673314
20
-39.06336842579186
10
26.750705913620287
20
-38.82543517283518
10
27.064293402210307
20
-38.570715884403384
10
27.395656764303418
20
-38.299469937967864
10
27.744542589592832
20
-38.01193770961641
10
28.110731630586592
20
-37.708325903618736
10
28.49405297627964
20
-37.38879487284494
10
28.894396725172555
20
-37.0534473282984
0
LWPOLYLINE
5
314
100
AcDbEntity
8
0
100
AcDbPolyline
90
9
43
0.0
10
26.315363499032014
20
-26.836258796312144
10
26.434896024748607
20
-27.113953299337236
10
26.530322792311498
20
-27.40859756168341
10
26.59956661406935
20
-27.7216521402122
10
26.640330167916872
20
-28.054732377456155
10
26.651834650842893
20
-28.408385882132407
10
26.63574571540548
20
-28.78144146476853
10
26.594736082380628
20
-29.172019824422122
10
26.530957399174984
20
-29.578608048471324
0
LWPOLYLINE
5
315
100
AcDbEntity
8
0
100
AcDbPolyline
90
36
43
0.0
10
26.315363499032014
20
-26.836258796312144
10
26.624972100157105
20
-26.072696352851914
10
26.776877357759727
20
-25.6607843126073
10
26.926725034150984
20
-25.227706775069088
10
27.07425503296296
20
-24.7723299326002
10
27.218902716560027
20
-24.293202485839476
10
27.359653136706036
20
-23.788510732845694
10
27.494887829958657
20
-23.256027782710973
10
27.622237076365675
20
-22.693072458338843
10
27.738523662069905
20
-22.096556031671195
10
27.839949562512885
20
-21.463262707447406
10
27.922407598724288
20
-20.790250916463037
10
27.981784691329963
20
-20.07525055907056
10
28.014277208355082
20
-19.31708032521584
10
28.016697656023663
20
-18.5160526517141
10
27.98679502784407
20
-17.674404633179144
10
27.923588731460843
20
-16.796751610907283
10
27.827537457328248
20
-15.8902651890272
10
27.700444704236936
20
-14.96441099527715
10
27.545172946320058
20
-14.030364917485318
10
27.36538054757955
20
-13.100463799886697
10
27.165269639742625
20
-12.187671904390404
10
26.949325776854202
20
-11.305027574633586
10
26.722065300717716
20
-10.465094950807826
10
26.48779135262923
20
-9.679431623650672
10
26.25033541869333
20
-8.958011260474432
10
26.01281139624638
20
-8.308670780634019
10
25.777490542627625
20
-7.736870930593665
10
25.66114911822153
20
-7.4811621629509295
10
25.545868971984422
20
-7.245959975065026
10
25.43174490347731
20
-7.031442223643386
10
25.31884365912686
20
-6.837718238062613
10
25.207208724990256
20
-6.664843645595948
10
25.09686547676956
20
-6.5128360435890364
10
24.987826285030543
20
-6.3816905125000885
10
24.880095294752536
20
-6.2713941555467265
0
LWPOLYLINE
5
316
100
AcDbEntity
8
0
100
AcDbPolyline
90
3
43
0.0
10
25.0240699891149
20
-5.5652831050450935
10
24.963178802437994
20
-5.930996555414448
10
24.88009529475254
20
-6.271394155546726
0
LWPOLYLINE
5
317
100
AcDbEntity
8
0
100
AcDbPolyline
90
16
43
0.0
10
25.0240699891149
20
-5.5652831050450935
10
25.000462476434226
20
-5.37412730084849
10
24.95588494286128
20
-5.160427762156106
10
24.890323379327654
20
-4.924181959872091
10
24.803781926359846
20
-4.665427570311799
10
24.69630491777708
20
-4.384276209337774
10
24.56799715558276
20
-4.080944651146015
10
24.419046659102783
20
-3.755789482513033
10
24.249752876361377
20
-3.409349355803826
10
24.060553461248276
20
-3.0423852192355594
10
23.852035806139835
20
-2.6558992058454143
10
23.62493660948977
20
-2.2511367796704524
10
23.380128252673817
20
-1.8295705115794418
10
23.11858540991466
20
-1.392856337332721
10
22.841348336112716
20
-0.9427851337654766
10
22.24409900130433
20
-0.010171996350205017
0
LWPOLYLINE
5
318
100
AcDbEntity
8
0
100
AcDbPolyline
90
38
43
0.0
10
14.024820514049551
20
14.709151908106703
10
14.048109016992472
20
14.781160195486711
10
14.08008005273849
20
14.832867122308375
10
14.120743072752445
20
14.86424917333092
10
14.170108533026575
20
14.875278314991451
10
14.228183876751585
20
14.865930454722067
10
14.294969305962148
20
14.836194353874657
10
14.370452644826566
20
14.786082493191165
10
14.454603611446181
20
14.715643209704927
10
14.547368042443038
20
14.62497293514823
10
14.648662280155268
20
14.514228091697557
10
14.758368804590503
20
14.38363436464049
10
14.876333188488871
20
14.23349318685417
10
15.002361253234785
20
14.064187800034917
10
15.136216370715742
20
13.876189007073227
10
15.4262493248089
20
13.44643179541095
10
15.743741265415508
20
12.949632393418018
10
16.085492732956297
20
12.392244598242087
10
16.4479003131536
20
11.7815460012708
10
16.827035424343446
20
11.125474816617444
10
17.218723451433977
20
10.43246695059246
10
17.618628504166434
20
9.711282328966796
10
18.425426041695754
20
8.2200546649896
10
19.21252259653971
20
6.722272933107393
10
19.588369895482582
20
5.991760061429968
10
19.947441512773587
20
5.283570711143051
10
20.286474753527777
20
4.604335966159578
10
20.602693268953622
20
3.959735191583164
10
20.893892200010367
20
3.354333421922091
10
21.158433732788033
20
2.7915878387092254
10
21.39517549039932
20
2.2739810666378815
10
21.603387487318326
20
1.8031766161178913
10
21.782665082080175
20
1.3801824699969918
10
21.932848557209816
20
1.0055027916398502
10
22.05395154921018
20
0.6792736356175711
10
22.14609271463595
20
0.4013930746140755
10
22.209430168213075
20
0.1716467370782912
10
22.244099001304328
20
-0.010171996350203341
0
LWPOLYLINE
5
319
100
AcDbEntity
8
0
100
AcDbPolyline
90
25
43
0.0
10
15.603710385344897
20
7.949569543890618
10
14.716474696815443
20
8.732492304706394
10
13.782111008760923
20
9.508405756136286
10
12.802169855350183
20
10.277445769855177
10
11.781903451376094
20
11.037792444282843
10
10.731251841119839
20
11.784945818662518
10
9.665326494727667
20
12.51132748484251
10
8.603880617426874
20
13.20653341492306
10
7.569921882358477
20
13.858138388530149
10
7.0709696560741
20
14.163365719021165
10
6.588259784134635
20
14.45254518251686
10
6.124948915527478
20
14.723925783308236
10
5.684129457061407
20
14.975786690101451
10
5.26878604640193
20
15.206462777564177
10
4.881753143080606
20
15.414369500731173
10
4.525670766998935
20
15.598028886903778
10
4.202935950417167
20
15.756098112328404
10
3.915653204299563
20
15.88739868227476
10
3.665590516826589
20
15.990942377897426
10
3.4541434247233505
20
16.06595248369299
10
3.282309441993386
20
16.111878940001773
10
3.1507191713291824
20
16.128380227191286
10
3.0597205648400374
20
16.115274055438633
10
3.0094677167101263
20
16.07248540392519
10
3.0000000447034827
20
16.00000023841858
0
LWPOLYLINE
5
320
100
AcDbEntity
8
0
100
AcDbPolyline
90
22
43
0.0
10
3.0000000447034836
20
16.00000023841858
10
3.2257308485731917
20
15.827744417318797
10
3.469927008093725
20
15.640781202984316
10
3.7326606158557634
20
15.439040408437425
10
4.0139957534651804
20
15.222438017774795
10
4.313935144123654
20
14.990908045579712
10
4.632364431469053
20
14.744436111433991
10
4.968998079052925
20
14.483092427958445
10
5.323323907112572
20
14.207065931514236
10
5.694533315480516
20
13.91670748617483
10
6.081446606056313
20
13.612576420786466
10
6.8957402795419505
20
12.966329195961684
10
7.74973603316405
20
12.276806122194605
10
8.623444328550598
20
11.554513612856686
10
9.495583354108362
20
10.810757193779622
10
10.345683412624945
20
10.056529403293998
10
11.156259489748535
20
9.301406247597969
10
11.914799807605686
20
8.55256443566962
10
12.614168637609513
20
7.814533552852857
10
13.251193549485768
20
7.089782174461404
10
13.825169451598606
20
6.379364655047138
10
14.336508284606216
20
5.683524845834424
0
LWPOLYLINE
5
321
100
AcDbEntity
8
0
100
AcDbPolyline
90
26
43
0.0
10
14.336508284606216
20
5.683524845834425
10
14.043079822527568
20
5.626049776581961
10
13.728311775148073
20
5.562969297707335
10
13.392415737807456
20
5.494290356125095
10
13.035774429083919
20
5.420048342119969
10
12.658980374184358
20
5.340314899103389
10
12.262873910942142
20
5.255205654809872
10
11.417616597635494
20
5.069602140931327
10
10.513616383071922
20
4.865440530279224
10
9.570988486469707
20
4.6461555402485
10
7.676849628178
20
4.180989372933825
10
6.786419589745793
20
3.9459239026635045
10
6.369217804030962
20
3.8302312558374423
10
5.975823109074699
20
3.716678047531653
10
5.609877086466706
20
3.605912703263533
10
5.274780726261353
20
3.498541759715236
10
4.97363254191378
20
3.3951192253423876
10
4.709161305061648
20
3.296135128113416
10
4.483641853657021
20
3.202001448259522
10
4.2988116888903
20
3.113038251162358
10
4.155862009881958
20
3.029471981671984
10
4.055514848126272
20
2.9514478219179594
10
3.998119449392611
20
2.8790452240486624
10
3.9837625733125823
20
2.8122958036666645
10
4.012383414153109
20
2.751202036536222
10
4.083878458408393
20
2.695754392625945
0
LWPOLYLINE
5
322
100
AcDbEntity
8
0
100
AcDbPolyline
90
9
43
0.0
10
19.710922779771465
20
-5.445186862784937
10
17.677561495301575
20
-4.559428470627784
10
15.66557550762422
20
-3.6384299598107415
10
13.676847275799275
20
-2.6790878374928253
10
11.712709569399317
20
-1.679204849606542
10
9.772966596087088
20
-0.6391037867682414
10
7.856076305955334
20
0.4386730695166599
10
5.960181432983547
20
1.551063760597332
10
4.0838784584083925
20
2.695754392625945
0
LWPOLYLINE
5
323
100
AcDbEntity
8
0
100
AcDbPolyline
90
5
43
0.0
10
20.539560391892504
20
-7.3232108671562735
10
20.282391871744363
20
-6.773781361091482
10
20.0567629344918
20
-6.274757744099877
10
19.867265740019974
20
-5.833479108226395
10
19.710922779771465
20
-5.445186862784943
0
LWPOLYLINE
5
324
100
AcDbEntity
8
0
100
AcDbPolyline
90
5
43
0.0
10
21.303589925435364
20
-8.006648933414926
10
21.08090257312949
20
-7.881509346310952
10
20.87907360574836
20
-7.725725490110867
10
20.69859860896687
20
-7.539544411474299
10
20.539560391892508
20
-7.3232108671562735
0
LWPOLYLINE
5
325
100
AcDbEntity
8
0
100
AcDbPolyline
90
22
43
0.0
10
21.303589925435364
20
-8.006648933414935
10
21.479653706828426
20
-8.69087546126465
10
21.628070199029814
20
-9.384786234970598
10
21.748412715974517
20
-10.089401526533171
10
21.83969539971056
20
-10.807334920550268
10
21.900138509116676
20
-11.543576924554907
10
21.926934152579864
20
-12.306280105482161
10
21.916187770786777
20
-13.106891205067988
10
21.863421409731004
20
-13.95818797983519
10
21.81991875094859
20
-14.406445498903121
10
21.764375130090833
20
-14.871206920834894
10
21.696426198853118
20
-15.353065486183525
10
21.615823895244958
20
-15.85211245609104
10
21.52246164244183
20
-16.367843277057908
10
21.416400957935327
20
-16.899053595320918
10
21.167433163130028
20
-17.99895922971517
10
20.873702659755644
20
-19.12496325024669
10
20.54366006305103
20
-20.238187980203296
10
20.368571394762018
20
-20.776180478601088
10
20.189034042999563
20
-21.29433496574077
10
20.0069509908142
20
-21.78744739681734
10
19.824372945333987
20
-22.250879694338956
0
LWPOLYLINE
5
326
100
AcDbEntity
8
0
100
AcDbPolyline
90
17
43
0.0
10
19.82437294533399
20
-22.250879694338956
10
19.543445713414847
20
-21.937607764105532
10
19.27188388237771
20
-21.646737546548586
10
19.00997280368795
20
-21.37889054356789
10
18.75819337507484
20
-21.135056900744
10
18.517210917000398
20
-20.916517226998767
10
18.28784784090122
20
-20.724722276503467
10
18.07103939648486
20
-20.561131625622718
10
17.867769876327994
20
-20.427004333207037
10
17.679013476651033
20
-20.323283523359486
10
17.505686699695993
20
-20.250624146257287
10
17.348583389019883
20
-20.209420031660734
10
17.20827700671656
20
-20.199760853200033
10
17.08499976418033
20
-20.221341473938068
10
16.978628993632814
20
-20.27349209611929
10
16.888860915924088
20
-20.355437177748737
10
16.81540219264236
20
-20.466563364483363
0
LWPOLYLINE
5
327
100
AcDbEntity
8
0
100
AcDbPolyline
90
28
43
0.0
10
12.03697929393868
20
-30.213206126770455
10
11.744408695450476
20
-29.645668403732945
10
11.507227848147744
20
-29.13072874992887
10
11.327522763759083
20
-28.667209923459165
10
11.209185033282411
20
-28.25051186561326
10
11.158176588010585
20
-27.870221570967804
10
11.16039183445979
20
-27.68828321782525
10
11.182634050238962
20
-27.507922040925468
10
11.226136354420206
20
-27.325790498427907
10
11.292127868463743
20
-27.138380486630926
10
11.38177688851448
20
-26.94218095791325
10
11.496129790836768
20
-26.73383152111919
10
11.636050658852547
20
-26.51027041481757
10
11.802165739944225
20
-26.2688708706225
10
11.994830565014896
20
-26.00753190992008
10
12.214158312247024
20
-25.72464781226896
10
12.460072545867154
20
-25.419028231952495
10
12.732349818276019
20
-25.08983432043337
10
13.030655431118596
20
-24.736525429077254
10
13.354577404870504
20
-24.35880607890589
10
13.703658849742109
20
-23.956573422338344
10
14.07742622222421
20
-23.529870156538987
10
14.475413576449542
20
-23.078842824713337
10
14.897184324785133
20
-22.603702838575106
10
15.342350440888412
20
-22.104690151634152
10
15.810589288309934
20
-21.5820397150281
10
16.301657376422263
20
-21.03595161985161
10
16.815402192642356
20
-20.466563364483363
0
LWPOLYLINE
5
328
100
AcDbEntity
8
0
100
AcDbPolyline
90
2
43
0.0
10
11.561429361476856
20
-30.812612333947644
10
12.036979293938682
20
-30.213206126770455
0
LWPOLYLINE
5
329
100
AcDbEntity
8
0
100
AcDbPolyline
90
21
43
0.0
10
3.4333829709279753
20
-34.39382885871442
10
4.764834205456177
20
-34.43183643141392
10
5.442197523658264
20
-34.42636831643087
10
6.1180216077486325
20
-34.389907455919904
10
6.789437875681263
20
-34.30805367937752
10
7.454244806431743
20
-34.167711190855776
10
8.108713651348214
20
-33.96045683491937
10
8.745468396538612
20
-33.6857986484481
10
9.352571843706636
20
-33.35251474319042
10
9.91483749891434
20
-32.976443281123764
10
10.415771882950287
20
-32.57727262786808
10
10.638210030772589
20
-32.37543631762499
10
10.8395310073093
20
-32.17531652135707
10
11.018175216142737
20
-31.979024526906848
10
11.172870363228418
20
-31.788305618909604
10
11.302656386313974
20
-31.60449240937198
10
11.406856067233306
20
-31.42853860780342
10
11.485028524155988
20
-31.261078191532533
10
11.536916651703049
20
-31.102493598568515
10
11.562396667205084
20
-30.952980871109414
10
11.561429361476856
20
-30.812612333947644
0
LWPOLYLINE
5
330
100
AcDbEntity
8
0
100
AcDbPolyline
90
5
43
0.0
10
1.8817786933109266
20
-34.25709950619771
10
2.2308765836319666
20
-34.3042659398809
10
2.608864951826094
20
-34.3417338849045
10
3.011455080533819
20
-34.37101766259183
10
3.433382970927079
20
-34.393828858714386
0
LWPOLYLINE
5
331
100
AcDbEntity
8
0
100
AcDbPolyline
90
2
43
0.0
10
1.8523606588342594
20
-34.25242095160303
10
1.8817786933109215
20
-34.25709950619771
0
ENDSEC
0
SECTION
2
OBJECTS
0
DICTIONARY
5
C
100
AcDbDictionary
3
ACAD_GROUP
350
D
3
ACAD_MLINESTYLE
350
17
0
DICTIONARY
5
D
100
AcDbDictionary
0
DICTIONARY
5
1A
330
C
100
AcDbDictionary
0
DICTIONARY
5
17
100
AcDbDictionary
0
ENDSEC
0
EOF
