0
SECTION
2
HEADER
9
$INSUNITS
70
4
9
$ACADVER
1
AC1014
9
$HANDSEED
5
FFFF
0
ENDSEC
0
SECTION
2
TABLES
0
TABLE
2
VPORT
5
8
100
AcDbSymbolTable
0
ENDTAB
0
TABLE
2
LTYPE
5
5
100
AcDbSymbolTable
0
LTYPE
5
14
100
AcDbSymbolTableRecord
100
AcDbLinetypeTableRecord
2
BYBLOCK
70
0
0
LTYPE
5
15
100
AcDbSymbolTableRecord
100
AcDbLinetypeTableRecord
2
BYLAYER
70
0
0
LTYPE
5
16
100
AcDbSymbolTableRecord
100
AcDbLinetypeTableRecord
2
DASHED
70
0
3
Dashed __ __ __ __ __ __ __ __ __ __ __ __ __ _
72
65
73
2
40
0.75
49
0.5
74
0
49
-0.25
74
0
0
ENDTAB
0
TABLE
2
LAYER
5
2
100
AcDbSymbolTable
70
2
0
LAYER
5
50
100
AcDbSymbolTableRecord
100
AcDbLayerTableRecord
2
0
70
0
62
7
6
CONTINUOUS
0
ENDTAB
0
TABLE
2
STYLE
5
3
100
AcDbSymbolTable
70
1
0
STYLE
5
11
100
AcDbSymbolTableRecord
100
AcDbTextStyleTableRecord
2
STANDARD
70
0
0
ENDTAB
0
TABLE
2
VIEW
5
6
100
AcDbSymbolTable
70
0
0
ENDTAB
0
TABLE
2
UCS
5
7
100
AcDbSymbolTable
70
0
0
ENDTAB
0
TABLE
2
APPID
5
9
100
AcDbSymbolTable
70
2
0
APPID
5
12
100
AcDbSymbolTableRecord
100
AcDbRegAppTableRecord
2
ACAD
70
0
0
ENDTAB
0
TABLE
2
DIMSTYLE
5
A
100
AcDbSymbolTable
70
1
0
ENDTAB
0
TABLE
2
BLOCK_RECORD
5
1
100
AcDbSymbolTable
70
1
0
BLOCK_RECORD
5
1F
100
AcDbSymbolTableRecord
100
AcDbBlockTableRecord
2
*MODEL_SPACE
0
BLOCK_RECORD
5
1B
100
AcDbSymbolTableRecord
100
AcDbBlockTableRecord
2
*PAPER_SPACE
0
ENDTAB
0
ENDSEC
0
SECTION
2
BLOCKS
0
BLOCK
5
20
100
AcDbEntity
100
AcDbBlockBegin
2
*MODEL_SPACE
0
ENDBLK
5
21
100
AcDbEntity
100
AcDbBlockEnd
0
BLOCK
5
1C
100
AcDbEntity
100
AcDbBlockBegin
2
*PAPER_SPACE
0
ENDBLK
5
1D
100
AcDbEntity
100
AcDbBlockEnd
0
ENDSEC
0
SECTION
2
ENTITIES
0
LWPOLYLINE
5
100
100
AcDbEntity
8
0
100
AcDbPolyline
90
15
43
0.0
10
-16.49999963119626
20
-30.5999993160367
10
-16.265387639529767
20
-30.58667072423227
10
-16.05560726444239
20
-30.597631670954318
10
-15.871031631388945
20
-30.63310744501636
10
-15.711931661576978
20
-30.692997192395424
10
-15.578117857783479
20
-30.776403940177136
10
-15.468536073148007
20
-30.881117862540926
10
-15.380789409192692
20
-31.003017625416714
10
-15.310952613804481
20
-31.135871521026797
10
-15.204484354072441
20
-31.40305000557453
10
-15.107551251808834
20
-31.620259697542803
10
-15.052603453934834
20
-31.695630274513697
10
-14.990560976367288
20
-31.74527291989801
10
-14.920644028751363
20
-31.768470581659084
10
-14.8426440371138
20
-31.765238909345655
0
LWPOLYLINE
5
101
100
AcDbEntity
8
0
100
AcDbPolyline
90
15
43
0.0
10
-14.8426440371138
20
-31.765238909345655
10
-14.969056166656308
20
-31.852448622077784
10
-15.087928082801447
20
-31.899404796957736
10
-15.199232047528245
20
-31.90580943594157
10
-15.303111242759599
20
-31.872033304215257
10
-15.400058265527043
20
-31.799943011263906
10
-15.491116552242126
20
-31.693843028714785
10
-15.662826973251596
20
-31.410699834465944
10
-15.836073525092486
20
-31.09987110626306
10
-15.928918366433704
20
-30.958794430798154
10
-16.02812648729183
20
-30.837147631475148
10
-16.13458096425023
20
-30.73904903211039
10
-16.248675054769336
20
-30.666507222892267
10
-16.37049781545703
20
-30.620169909508093
10
-16.49999963119626
20
-30.599999316036694
0
LWPOLYLINE
5
102
100
AcDbEntity
8
0
100
AcDbPolyline
90
17
43
0.0
10
-14.499999675899744
20
-34.19999923557043
10
-14.727236033268877
20
-34.185832399231515
10
-14.930560590166364
20
-34.140361569559765
10
-15.109225172475833
20
-34.05740279153769
10
-15.25989375222269
20
-33.93245252980826
10
-15.374919020159302
20
-33.76766013928529
10
-15.442212920036825
20
-33.57441217221806
10
-15.448934529124271
20
-33.37004013892719
10
-15.38664749478142
20
-33.172459689689866
10
-15.256545303888766
20
-32.994892395408485
10
-15.071634287837236
20
-32.84290676330752
10
-14.852827140384212
20
-32.71592214549726
10
-14.623379689617467
20
-32.6099243715755
10
-14.403426845979622
20
-32.520092793721965
10
-14.20596651606061
20
-32.44283110391339
10
-14.03729215837124
20
-32.37612387221391
10
-13.899469762149412
20
-32.31909659273985
0
LINE
5
103
100
AcDbEntity
8
0
100
AcDbLine
10
-13.899469762149412
20
-32.319096592739847
30
0
11
-14.765112203124534
21
-31.146353813496876
31
0
0
LINE
5
104
100
AcDbEntity
8
0
100
AcDbLine
10
-14.765112203124534
20
-31.146353813496876
30
0
11
-13.799999691545963
21
-31.146353813496876
31
0
0
LINE
5
105
100
AcDbEntity
8
0
100
AcDbLine
10
-13.799999691545963
20
-31.146353813496876
30
0
11
-12.660453200644959
21
-32.435260948976754
31
0
0
LINE
5
106
100
AcDbEntity
8
0
100
AcDbLine
10
-12.660453200644959
20
-32.435260948976754
30
0
11
-12.478845714385773
21
-32.435260948976754
31
0
0
LINE
5
107
100
AcDbEntity
8
0
100
AcDbLine
10
-12.478845714385773
20
-32.435260948976754
30
0
11
-11.852805105724116
21
-31.146353813496876
31
0
0
LINE
5
108
100
AcDbEntity
8
0
100
AcDbLine
10
-11.852805105724116
20
-31.146353813496876
30
0
11
-10.674589250373238
21
-31.146353813496876
31
0
0
LINE
5
109
100
AcDbEntity
8
0
100
AcDbLine
10
-10.674589250373238
20
-31.146353813496876
30
0
11
-11.864108606123217
21
-33.595364251805655
31
0
0
LWPOLYLINE
5
110
100
AcDbEntity
8
0
100
AcDbPolyline
90
9
43
0.0
10
-11.864108606123217
20
-33.595364251805655
10
-11.935935021998679
20
-33.73991630975014
10
-12.02589587919662
20
-33.86664080770682
10
-12.13558473618026
20
-33.97397115432813
10
-12.266811700296824
20
-34.060127873949604
10
-12.420309069205718
20
-34.12439106128475
10
-12.594935520843599
20
-34.167882724306985
10
-12.78870832456725
20
-34.19255204077226
10
-12.999999709427358
20
-34.19999923557043
0
LINE
5
111
100
AcDbEntity
8
0
100
AcDbLine
10
-12.999999709427358
20
-34.199999235570438
30
0
11
-14.499999675899744
21
-34.199999235570431
31
0
0
LWPOLYLINE
5
112
100
AcDbEntity
8
0
100
AcDbPolyline
90
15
43
0.0
10
-17.29999963119626
20
-30.5999993160367
10
-17.065387639528307
20
-30.58667072423227
10
-16.855607264440337
20
-30.597631670954318
10
-16.671031631387027
20
-30.63310744501636
10
-16.51193166157565
20
-30.692997192395424
10
-16.378117857782897
20
-30.776403940177136
10
-16.26853607314804
20
-30.881117862540926
10
-16.180789409193054
20
-31.003017625416714
10
-16.11095261380489
20
-31.135871521026797
10
-16.004484354072524
20
-31.40305000557453
10
-15.907551251808906
20
-31.620259697542803
10
-15.852603453935124
20
-31.695630274513697
10
-15.790560976367793
20
-31.74527291989801
10
-15.72064402875186
20
-31.768470581659084
10
-15.6426440371138
20
-31.765238909345655
0
LWPOLYLINE
5
113
100
AcDbEntity
8
0
100
AcDbPolyline
90
15
43
0.0
10
-15.6426440371138
20
-31.765238909345655
10
-15.769056166662008
20
-31.852448622077784
10
-15.887928082808706
20
-31.899404796957736
10
-15.999232047534102
20
-31.90580943594157
10
-16.103111242762576
20
-31.872033304215257
10
-16.20005826552704
20
-31.799943011263906
10
-16.29111655224
20
-31.693843028714785
10
-16.462826973248852
20
-31.410699834465944
10
-16.63607352509186
20
-31.09987110626306
10
-16.7289183664339
20
-30.958794430798154
10
-16.82812648729231
20
-30.837147631475148
10
-16.934580964250532
20
-30.73904903211039
10
-17.048675054769276
20
-30.666507222892267
10
-17.170497815456773
20
-30.620169909508093
10
-17.29999963119626
20
-30.599999316036694
0
LWPOLYLINE
5
114
100
AcDbEntity
8
0
100
AcDbPolyline
90
15
43
0.0
10
-18.099999631196262
20
-30.5999993160367
10
-17.86538763952546
20
-30.58667072423227
10
-17.655607264436135
20
-30.597631670954318
10
-17.471031631382765
20
-30.63310744501636
10
-17.311931661572338
20
-30.692997192395424
10
-17.17811785778117
20
-30.776403940177136
10
-17.068536073148152
20
-30.881117862540926
10
-16.980789409194845
20
-31.003017625416714
10
-16.910952613807808
20
-31.135871521026797
10
-16.804484354074965
20
-31.40305000557453
10
-16.70755125180745
20
-31.620259697542803
10
-16.652603453931576
20
-31.695630274513697
10
-16.59056097636321
20
-31.74527291989801
10
-16.520644028748226
20
-31.768470581659084
10
-16.4426440371138
20
-31.765238909345655
0
LWPOLYLINE
5
115
100
AcDbEntity
8
0
100
AcDbPolyline
90
15
43
0.0
10
-16.4426440371138
20
-31.765238909345655
10
-16.569056166663145
20
-31.852448622077784
10
-16.687928082810146
20
-31.899404796957736
10
-16.79923204753524
20
-31.90580943594157
10
-16.903111242763114
20
-31.872033304215257
10
-17.000058265527038
20
-31.799943011263906
10
-17.091116552239757
20
-31.693843028714785
10
-17.262826973248973
20
-31.410699834465944
10
-17.43607352509213
20
-31.09987110626306
10
-17.528918366433725
20
-30.958794430798154
10
-17.62812648729136
20
-30.837147631475148
10
-17.734580964248785
20
-30.73904903211039
10
-17.84867505476715
20
-30.666507222892267
10
-17.970497815455122
20
-30.620169909508093
10
-18.099999631196262
20
-30.599999316036694
0
LINE
5
116
100
AcDbEntity
8
0
100
AcDbLine
10
-21.699999514967203
20
-32.499999273568392
30
0
11
-22.49999949708581
21
-34.199999235570431
31
0
0
LINE
5
117
100
AcDbEntity
8
0
100
AcDbLine
10
-22.49999949708581
20
-34.199999235570431
30
0
11
-23.847337982822133
21
-34.179701223397018
31
0
0
LWPOLYLINE
5
118
100
AcDbEntity
8
0
100
AcDbPolyline
90
8
43
0.0
10
-23.847337982822133
20
-34.17970122339702
10
-23.740829967506166
20
-34.1528144341675
10
-23.62882322405334
20
-34.08288497358289
10
-23.512872723925174
20
-33.972349985134265
10
-23.397630032284802
20
-33.83267071024988
10
-23.198760908259885
20
-33.54751132571323
10
-23.126171835825193
20
-33.43494702450054
10
-23.073326847240992
20
-33.34999925456941
0
LINE
5
119
100
AcDbEntity
8
0
100
AcDbLine
10
-23.073326847240992
20
-33.349999254569411
30
0
11
-22.653917358833191
21
-32.458754091702815
31
0
0
LINE
5
120
100
AcDbEntity
8
0
100
AcDbLine
10
-22.653917358833191
20
-32.458754091702815
30
0
11
-21.699999514967203
21
-32.499999273568392
31
0
0
LWPOLYLINE
5
121
100
AcDbEntity
8
0
100
AcDbPolyline
90
3
43
0.0
10
-22.073320480675743
20
-31.09838837013568
10
-22.1252684617949
20
-31.012619931260005
10
-22.185874315590905
20
-30.889513876298324
0
LINE
5
122
100
AcDbEntity
8
0
100
AcDbLine
10
-22.185874315590901
20
-30.889513876298324
30
0
11
-22.348212035985036
21
-30.546440269807235
31
0
0
LINE
5
123
100
AcDbEntity
8
0
100
AcDbLine
10
-22.348212035985036
20
-30.546440269807235
30
0
11
-21.929380925984425
21
-30.546440269807235
31
0
0
LINE
5
124
100
AcDbEntity
8
0
100
AcDbLine
10
-21.929380925984425
20
-30.546440269807235
30
0
11
-21.780030461640401
21
-30.859210874894515
31
0
0
LWPOLYLINE
5
125
100
AcDbEntity
8
0
100
AcDbPolyline
90
3
43
0.0
10
-21.780030461640404
20
-30.859210874894515
10
-21.718342038483666
20
-30.983128596106425
10
-21.665311786027
20
-31.071332033732787
0
LWPOLYLINE
5
126
100
AcDbEntity
8
0
100
AcDbPolyline
90
3
43
0.0
10
-21.665311786027
20
-31.071332033732787
10
-21.6195866043282
20
-31.128961902120963
10
-21.57981398949151
20
-31.158994372943297
0
LWPOLYLINE
5
127
100
AcDbEntity
8
0
100
AcDbPolyline
90
2
43
0.0
10
-21.57981398949151
20
-31.158994372943297
10
-21.481328936905907
20
-31.17631041632022
0
LINE
5
128
100
AcDbEntity
8
0
100
AcDbLine
10
-21.481328936905907
20
-31.17631041632022
30
0
11
-21.423969599099202
21
-31.17631041632022
31
0
0
LINE
5
129
100
AcDbEntity
8
0
100
AcDbLine
10
-21.423969599099202
20
-31.17631041632022
30
0
11
-21.328731509537739
21
-30.546440269807235
31
0
0
LINE
5
130
100
AcDbEntity
8
0
100
AcDbLine
10
-21.328731509537739
20
-30.546440269807235
30
0
11
-20.948861571641011
21
-30.546440269807235
31
0
0
LINE
5
131
100
AcDbEntity
8
0
100
AcDbLine
10
-20.948861571641011
20
-30.546440269807235
30
0
11
-21.166394087166829
21
-32.04644032941188
31
0
0
LINE
5
132
100
AcDbEntity
8
0
100
AcDbLine
10
-21.166394087166829
20
-32.04644032941188
30
0
11
-21.751891704888386
21
-32.04644032941188
31
0
0
LWPOLYLINE
5
133
100
AcDbEntity
8
0
100
AcDbPolyline
90
5
43
0.0
10
-21.75189170488839
20
-32.04644032941188
10
-21.898672072829054
20
-32.03764704243268
10
-22.019748943538712
20
-32.011267181495086
10
-22.115122317017363
20
-31.967300746599093
10
-22.184792193265007
20
-31.905747737744704
0
LWPOLYLINE
5
134
100
AcDbEntity
8
0
100
AcDbPolyline
90
3
43
0.0
10
-22.184792193265007
20
-31.905747737744704
10
-22.27083119997506
20
-31.759373202929154
10
-22.29951086887841
20
-31.60163507984008
0
LWPOLYLINE
5
135
100
AcDbEntity
8
0
100
AcDbPolyline
90
3
43
0.0
10
-22.29951086887841
20
-31.60163507984008
10
-22.275701346488045
20
-31.448496535429612
10
-22.20427277931695
20
-31.33323678002681
0
LWPOLYLINE
5
136
100
AcDbEntity
8
0
100
AcDbPolyline
90
3
43
0.0
10
-22.20427277931695
20
-31.33323678002681
10
-22.091177436204003
20
-31.256126400092498
10
-21.940203341336296
20
-31.21527143941249
0
LWPOLYLINE
5
137
100
AcDbEntity
8
0
100
AcDbPolyline
90
3
43
0.0
10
-21.940203341336296
20
-31.21527143941249
10
-22.016772734613465
20
-31.161158878365413
10
-22.073320480675743
20
-31.09838837013568
0
LINE
5
138
100
AcDbEntity
8
0
100
AcDbLine
10
-20.699999537318945
20
-33.057759083933583
30
0
11
-19.93148717511901
21
-33.057759083933583
31
0
0
LINE
5
139
100
AcDbEntity
8
0
100
AcDbLine
10
-19.93148717511901
20
-33.057759083933583
30
0
11
-19.801280665100023
21
-32.958518710318344
31
0
0
LINE
5
140
100
AcDbEntity
8
0
100
AcDbLine
10
-19.801280665100023
20
-32.958518710318344
30
0
11
-19.86638392010952
21
-32.474232080293845
31
0
0
LINE
5
141
100
AcDbEntity
8
0
100
AcDbLine
10
-19.86638392010952
20
-32.474232080293845
30
0
11
-18.55597218789417
21
-32.499999273568392
31
0
0
LINE
5
142
100
AcDbEntity
8
0
100
AcDbLine
10
-18.55597218789417
20
-32.499999273568392
30
0
11
-19.399999566376209
21
-34.199999235570431
31
0
0
LINE
5
143
100
AcDbEntity
8
0
100
AcDbLine
10
-19.399999566376209
20
-34.199999235570431
30
0
11
-21.2999995239079
21
-34.199999235570431
31
0
0
LWPOLYLINE
5
144
100
AcDbEntity
8
0
100
AcDbPolyline
90
15
43
0.0
10
-21.2999995239079
20
-34.19999923557043
10
-21.445657835031913
20
-34.18285702767556
10
-21.579534808325395
20
-34.13577856740497
10
-21.809940284392496
20
-33.992249452615255
10
-21.899096544802852
20
-33.91166158689611
10
-21.9599385609736
20
-33.82525017071306
10
-21.982328727078166
20
-33.72761914681325
10
-21.958813811385667
20
-33.61529639309536
10
-21.888024926345906
20
-33.49173279376666
10
-21.77507497189379
20
-33.36754692331431
10
-21.62905722239916
20
-33.25615485359342
10
-21.460279770187906
20
-33.168819996563556
10
-21.27771640118365
20
-33.1100492873707
10
-21.087767634374828
20
-33.076750628007694
10
-20.699999537318945
20
-33.057759083933576
0
LWPOLYLINE
5
145
100
AcDbEntity
8
0
100
AcDbPolyline
90
14
70
1
43
0.0
10
-17.254313889571698
20
-33.653023687006417
10
-15.899999644607306
20
-32.499999273568392
10
-15.049080127852994
20
-32.499999273568392
10
-16.830563088300259
20
-34.145958292567066
10
-19.027148874482815
20
-34.145958292567066
10
-18.326662856054519
20
-33.635727735934118
10
-18.326662856054519
20
-32.499999273568392
10
-17.499999608844519
20
-32.499999273568392
10
-17.499999608844519
20
-32.641210549276664
10
-17.199999615550041
20
-32.641210549276664
10
-17.099999617785215
20
-32.799999266862869
10
-16.545179895607252
20
-32.799999266862869
10
-16.822589756696232
20
-33.116849203765007
10
-17.399999611079693
20
-33.116849203765007
0
LINE
5
146
100
AcDbEntity
8
0
100
AcDbLine
10
-23.173668739953968
20
-32.543311590289314
30
0
11
-24.199999459087849
21
-34.199999235570431
31
0
0
LINE
5
147
100
AcDbEntity
8
0
100
AcDbLine
10
-24.199999459087849
20
-34.199999235570431
30
0
11
-25.464602190016016
21
-34.199999235570431
31
0
0
LWPOLYLINE
5
148
100
AcDbEntity
8
0
100
AcDbPolyline
90
21
43
0.0
10
-25.464602190016013
20
-34.19999923557043
10
-25.888848575433563
20
-34.180270559150514
10
-26.307828181956577
20
-34.09345588276526
10
-26.50269100928373
20
-34.01939273738755
10
-26.67383945709142
20
-33.92018620230866
10
-26.807570055157836
20
-33.79350918372576
10
-26.889774988442074
20
-33.640678902605714
10
-26.907686544028063
20
-33.468403939165
10
-26.85079932783759
20
-33.28762365603461
10
-26.79175012906013
20
-33.1978643217249
10
-26.711322325844804
20
-33.11042124158193
10
-26.609059112138624
20
-33.02646253969867
10
-26.484712159970265
20
-32.946909569763385
10
-26.33820572096637
20
-32.872455548928905
10
-26.16959151062997
20
-32.80360558174569
10
-25.97901120830023
20
-32.74070740466782
10
-25.766662565698663
20
-32.68397965837194
10
-25.532766582218624
20
-32.633542134145884
10
-25.277538072084436
20
-32.589443615018375
10
-25.001159058025255
20
-32.55168804914067
10
-24.70375420742168
20
-32.52026044629408
0
LINE
5
149
100
AcDbEntity
8
0
100
AcDbLine
10
-24.703754207421685
20
-32.520260446294081
30
0
11
-23.173668739953968
21
-32.543311590289314
31
0
0
LWPOLYLINE
5
150
100
AcDbEntity
8
0
100
AcDbPolyline
90
4
70
1
43
0.0
10
-22.507303091378255
20
-30.546440269807235
10
-22.729164394230885
20
-32.04644032941188
10
-23.115528258175893
20
-32.04644032941188
10
-22.89150211462502
20
-30.546440269807235
0
CIRCLE
5
151
100
AcDbEntity
8
0
100
AcDbCircle
10
-26.042131518780508
20
-38.688179068038409
30
0
40
2.2694327813362891
210
0
220
-0
230
1
0
LWPOLYLINE
5
152
100
AcDbEntity
8
0
100
AcDbPolyline
90
12
70
1
43
0.0
10
-24.894749554486317
20
-30.546440269807235
10
-25.112282070012135
20
-32.04644032941188
10
-26.103624137730641
20
-32.04644032941188
10
-26.06574538597588
20
-31.779124300936118
10
-25.45860234150414
20
-31.779124300936118
10
-25.412065419049306
20
-31.453366663316146
10
-25.939121874661488
20
-31.453366663316146
10
-25.901243122906727
20
-31.184968438008681
10
-25.369857581944508
20
-31.184968438008681
10
-25.318992170186085
20
-30.814838495114699
10
-26.057087215275807
20
-30.814838495114699
10
-26.019208463521046
20
-30.546440269807235
0
LWPOLYLINE
5
153
100
AcDbEntity
8
0
100
AcDbPolyline
90
8
70
1
43
0.0
10
-19.49323374280457
20
-31.741245474675551
10
-19.539770665259404
20
-32.04644032941188
10
-20.889337691159291
20
-32.04644032941188
10
-20.844965311379475
20
-31.741245474675551
10
-20.360116990895314
20
-31.741245474675551
10
-20.180463227124257
20
-30.546440269807235
10
-19.799510868878407
20
-30.546440269807235
10
-19.975917818636937
20
-31.741245474675551
0
LWPOLYLINE
5
154
100
AcDbEntity
8
0
100
AcDbPolyline
90
11
70
1
43
0.0
10
-23.794099720807118
20
-31.408994432547942
10
-24.40773609528069
20
-32.04644032941188
10
-24.85795262703423
20
-32.04644032941188
10
-24.208601745457692
20
-31.373280148962394
10
-24.759467872471852
20
-30.546440269807235
10
-24.323320421071095
20
-30.546440269807235
10
-23.784359129757924
20
-31.346223812559501
10
-23.663147124142689
20
-30.546440269807235
10
-23.281112345547719
20
-30.546440269807235
10
-23.505138787121815
20
-32.04644032941188
10
-23.889337810368581
20
-32.04644032941188
0
LWPOLYLINE
5
155
100
AcDbEntity
8
0
100
AcDbPolyline
90
3
43
0.0
10
-18.624186138303326
20
-32.031288828709975
10
-18.726188302652286
20
-32.05807448551978
10
-18.843883084745453
20
-32.06700303778972
0
LWPOLYLINE
5
156
100
AcDbEntity
8
0
100
AcDbPolyline
90
3
43
0.0
10
-18.843883084745453
20
-32.06700303778972
10
-19.070614701749133
20
-32.03994677589263
10
-19.294099541993187
20
-31.95877799020137
0
LINE
5
157
100
AcDbEntity
8
0
100
AcDbLine
10
-19.294099541993187
20
-31.958777990201369
30
0
11
-19.245398300380749
21
-31.661158885815993
31
0
0
LWPOLYLINE
5
158
100
AcDbEntity
8
0
100
AcDbPolyline
90
2
43
0.0
10
-19.245398300380753
20
-31.661158885815993
10
-19.17072291919713
20
-31.705531191090003
0
LWPOLYLINE
5
159
100
AcDbEntity
8
0
100
AcDbPolyline
90
2
43
0.0
10
-19.17072291919713
20
-31.705531191090003
10
-19.04734629640107
20
-31.756396975377456
0
LWPOLYLINE
5
160
100
AcDbEntity
8
0
100
AcDbPolyline
90
2
43
0.0
10
-19.04734629640107
20
-31.756396975377456
10
-18.908818172903107
20
-31.779124300936118
0
LWPOLYLINE
5
161
100
AcDbEntity
8
0
100
AcDbPolyline
90
3
43
0.0
10
-18.908818172903107
20
-31.779124300936118
10
-18.8436125262243
20
-31.769113477328673
10
-18.795181805880116
20
-31.73908100650634
0
LWPOLYLINE
5
162
100
AcDbEntity
8
0
100
AcDbPolyline
90
3
43
0.0
10
-18.795181805880116
20
-31.73908100650634
10
-18.76514933505778
20
-31.695790953943387
10
-18.755138511450337
20
-31.64600738511409
0
LWPOLYLINE
5
163
100
AcDbEntity
8
0
100
AcDbPolyline
90
2
43
0.0
10
-18.755138511450337
20
-31.64600738511409
10
-18.782194810600327
20
-31.5615917854103
0
LWPOLYLINE
5
164
100
AcDbEntity
8
0
100
AcDbPolyline
90
3
43
0.0
10
-18.782194810600327
20
-31.5615917854103
10
-18.83062554025774
20
-31.510996587583676
10
-18.9218052054358
20
-31.432803954938308
0
LWPOLYLINE
5
165
100
AcDbEntity
8
0
100
AcDbPolyline
90
3
43
0.0
10
-18.9218052054358
20
-31.432803954938308
10
-19.062497834355877
20
-31.308074530223266
10
-19.151242407650994
20
-31.200119938710586
0
LWPOLYLINE
5
166
100
AcDbEntity
8
0
100
AcDbPolyline
90
3
43
0.0
10
-19.151242407650994
20
-31.200119938710586
10
-19.19832031676297
20
-31.094870988288775
10
-19.21401295313363
20
-30.976093944171325
0
LWPOLYLINE
5
167
100
AcDbEntity
8
0
100
AcDbPolyline
90
3
43
0.0
10
-19.21401295313363
20
-30.976093944171325
10
-19.202108191938446
20
-30.87328010425891
10
-19.166393908352898
20
-30.770466264346496
0
LWPOLYLINE
5
168
100
AcDbEntity
8
0
100
AcDbPolyline
90
3
43
0.0
10
-19.166393908352898
20
-30.770466264346496
10
-19.101729406656073
20
-30.675769310453788
10
-19.00297399112706
20
-30.597306128600493
0
LWPOLYLINE
5
169
100
AcDbEntity
8
0
100
AcDbPolyline
90
3
43
0.0
10
-19.00297399112706
20
-30.597306128600493
10
-18.86931599551563
20
-30.544546294966594
10
-18.697779210896538
20
-30.526959683755294
0
LWPOLYLINE
5
170
100
AcDbEntity
8
0
100
AcDbPolyline
90
3
43
0.0
10
-18.697779210896538
20
-30.526959683755294
10
-18.559521627293275
20
-30.536699976781264
10
-18.42829867699866
20
-30.565920855859176
0
LWPOLYLINE
5
171
100
AcDbEntity
8
0
100
AcDbPolyline
90
3
43
0.0
10
-18.42829867699866
20
-30.565920855859176
10
-18.312227249524863
20
-30.60866975412692
10
-18.219424215757595
20
-30.6568298600706
0
LINE
5
172
100
AcDbEntity
8
0
100
AcDbLine
10
-18.219424215757595
20
-30.656829860070609
30
0
11
-18.265961012483878
21
-30.96094244346942
31
0
0
LWPOLYLINE
5
173
100
AcDbEntity
8
0
100
AcDbPolyline
90
5
43
0.0
10
-18.26596101248388
20
-30.96094244346942
10
-18.3768917558783
20
-30.89702196606423
10
-18.47699998846029
20
-30.85136448220338
10
-18.566285710229845
20
-30.82396999188687
10
-18.64474892118697
20
-30.8148384951147
0
LWPOLYLINE
5
174
100
AcDbEntity
8
0
100
AcDbPolyline
90
3
43
0.0
10
-18.64474892118697
20
-30.8148384951147
10
-18.723212103040265
20
-30.827554959813014
10
-18.774619022996472
20
-30.865704353907958
0
LWPOLYLINE
5
175
100
AcDbEntity
8
0
100
AcDbPolyline
90
2
43
0.0
10
-18.774619022996472
20
-30.865704353907958
10
-18.813580083341645
20
-30.976093944171325
0
LWPOLYLINE
5
176
100
AcDbEntity
8
0
100
AcDbPolyline
90
3
43
0.0
10
-18.813580083341645
20
-30.976093944171325
10
-18.80302813337867
20
-31.037782292822257
10
-18.77137228348975
20
-31.090812619784728
0
LWPOLYLINE
5
177
100
AcDbEntity
8
0
100
AcDbPolyline
90
3
43
0.0
10
-18.77137228348975
20
-31.090812619784728
10
-18.70156709538524
20
-31.163593951621905
10
-18.57440258810048
20
-31.282371070245162
0
LWPOLYLINE
5
178
100
AcDbEntity
8
0
100
AcDbPolyline
90
3
43
0.0
10
-18.57440258810048
20
-31.282371070245162
10
-18.49215149847542
20
-31.361916486183063
10
-18.431545435131834
20
-31.4317216836008
0
LWPOLYLINE
5
179
100
AcDbEntity
8
0
100
AcDbPolyline
90
2
43
0.0
10
-18.431545435131834
20
-31.4317216836008
10
-18.36769261831169
20
-31.546440284708396
0
LWPOLYLINE
5
180
100
AcDbEntity
8
0
100
AcDbPolyline
90
2
43
0.0
10
-18.36769261831169
20
-31.546440284708396
10
-18.35470560440545
20
-31.65899441764678
0
LWPOLYLINE
5
181
100
AcDbEntity
8
0
100
AcDbPolyline
90
2
43
0.0
10
-18.35470560440545
20
-31.65899441764678
10
-18.382844137640046
20
-31.802933748820678
0
LWPOLYLINE
5
182
100
AcDbEntity
8
0
100
AcDbPolyline
90
2
43
0.0
10
-18.382844137640046
20
-31.802933748820678
10
-18.470506476850556
20
-31.934968467811004
0
LWPOLYLINE
5
183
100
AcDbEntity
8
0
100
AcDbPolyline
90
3
43
0.0
10
-18.470506476850556
20
-31.934968467811004
10
-18.53922943087046
20
-31.989351559439555
10
-18.624186138303326
20
-32.031288828709975
0
LWPOLYLINE
5
184
100
AcDbEntity
8
0
100
AcDbPolyline
90
4
70
1
43
0.0
10
-21.703133912836652
20
-34.999120579987036
10
-23.329095735686263
20
-38.468880318176119
42
0.19589758124432738
10
-24.275687538757964
20
-36.636334481665038
10
-23.511891399339682
20
-34.999120579987036
0
LWPOLYLINE
5
185
100
AcDbEntity
8
0
100
AcDbPolyline
90
4
70
1
43
0.0
10
-24.025510322921591
20
-34.999120579987036
10
-24.656103551714441
20
-36.363942049763459
42
0.15557926339487921
10
-26.274230760475174
20
-35.990135641288894
10
-25.811901891825837
20
-34.999120579987036
0
LWPOLYLINE
5
186
100
AcDbEntity
8
0
100
AcDbPolyline
90
33
43
0.0
10
-11.277402212139569
20
-41.216524021666224
10
-11.5239261682995
20
-41.213448772907746
10
-11.753982442275857
20
-41.19062333964816
10
-11.967443338524713
20
-41.14796974514812
10
-12.164087982822634
20
-41.085417390296335
10
-12.343597060264015
20
-41.002959230853726
10
-12.505548787802972
20
-40.90071043620015
10
-12.649417092859467
20
-40.77896596117264
10
-12.774571325576906
20
-40.63825976348254
10
-12.880276799544461
20
-40.479437985195226
10
-12.965697111885891
20
-40.303735457467745
10
-13.029905619607991
20
-40.11278936463876
10
-13.071906991187234
20
-39.90858359977368
10
-13.090664560191687
20
-39.69337098248603
10
-13.085133543590185
20
-39.46957989510655
10
-13.054295016072262
20
-39.23972471396879
10
-12.99718941219977
20
-39.00632816761657
10
-12.912955596089523
20
-38.771841326258325
10
-12.80088257320737
20
-38.53855143992936
10
-12.660457799802982
20
-38.30849656179326
10
-12.49139271291425
20
-38.08341244602319
10
-12.293627680933215
20
-37.86470694637707
10
-12.067297358308108
20
-37.65348434954466
10
-11.812676302951488
20
-37.45059537766552
10
-11.530136820188796
20
-37.2566758523892
10
-11.220116927518916
20
-37.07217592275061
10
-10.883089216856591
20
-36.897390561415264
10
-10.51953009440438
20
-36.73249180114125
10
-10.12989296037835
20
-36.57755830141981
10
-9.714586252878771
20
-36.432601348856636
10
-9.27395383280818
20
-36.29758979724926
10
-8.80825778624683
20
-36.1724742736174
10
-8.317663431916387
20
-36.05721028990964
0
LINE
5
187
100
AcDbEntity
8
0
100
AcDbLine
10
-8.3176634319163867
20
-36.057210289909641
30
0
11
23.125108938753588
21
-36.211579564475201
31
0
0
LWPOLYLINE
5
188
100
AcDbEntity
8
0
100
AcDbPolyline
90
17
43
0.0
10
23.125108938753584
20
-36.2115795644752
10
22.767870499619576
20
-36.7536805485751
10
22.420880169636852
20
-37.24689761059892
10
22.087849989019457
20
-37.69652852325368
10
21.77218152791854
20
-38.10816663584996
10
21.476331151774477
20
-38.48721806668341
10
21.20114759132394
20
-38.838440393864566
10
20.945185894293257
20
-39.165501562694764
10
20.70422539048977
20
-39.470678114818874
10
20.471654235591796
20
-39.75504374907256
10
20.23937946378977
20
-40.01896545823067
10
19.998740834690913
20
-40.26261989836515
10
19.741394199170042
20
-40.48650176721806
10
19.46027185103671
20
-40.69200437797257
10
19.150233237703784
20
-40.881753621638744
10
18.80802464012115
20
-41.059379952044864
10
18.43184733761681
20
-41.228963217633336
0
LINE
5
189
100
AcDbEntity
8
0
100
AcDbLine
10
18.431847337616809
20
-41.228963217633343
30
0
11
-11.277402212139569
21
-41.216524021666231
31
0
0
LINE
5
190
100
AcDbEntity
8
0
100
AcDbLine
10
-26.644155842617536
20
-35.668045955380137
30
0
11
-29.513090188757751
21
-35.668045955380137
31
0
0
ARC
5
191
100
AcDbEntity
8
0
100
AcDbCircle
10
-29.513090188757751
20
-35.80804595538013
30
0
40
0.13999999999999346
210
0
220
-0
230
1
100
AcDbArc
50
90
51
180
0
LINE
5
192
100
AcDbEntity
8
0
100
AcDbLine
10
-29.653090188757744
20
-35.808045955380138
30
0
11
-29.653090188757751
21
-42.2145004856037
31
0
0
LINE
5
193
100
AcDbEntity
8
0
100
AcDbLine
10
-29.653090188757751
20
-42.2145004856037
30
0
11
-29.722918657445181
21
-42.366424337237028
31
0
0
LINE
5
194
100
AcDbEntity
8
0
100
AcDbLine
10
-29.722918657445181
20
-42.366424337237028
30
0
11
-29.583261720070311
21
-43.083137488335844
31
0
0
LINE
5
195
100
AcDbEntity
8
0
100
AcDbLine
10
-29.583261720070311
20
-43.083137488335844
30
0
11
-28.28195439832303
21
-40.293748283630862
31
0
0
ARC
5
196
100
AcDbEntity
8
0
100
AcDbCircle
10
-26.051296777562143
20
-38.714267386436745
30
0
40
2.7332386148413286
210
0
220
0
230
1
100
AcDbArc
50
215.3014929450004
51
251.09705394688299
0
LINE
5
197
100
AcDbEntity
8
0
100
AcDbLine
10
-26.936773333301183
20
-41.300098895815552
30
0
11
-27.563337491205147
21
-42.656200065085557
31
0
0
LINE
5
198
100
AcDbEntity
8
0
100
AcDbLine
10
-27.563337491205147
20
-42.656200065085557
30
0
11
-27.36568870061415
21
-43.259820248750771
31
0
0
LINE
5
199
100
AcDbEntity
8
0
100
AcDbLine
10
-27.36568870061415
20
-43.259820248750771
30
0
11
-26.502694826523427
21
-41.409973810929905
31
0
0
ARC
5
200
100
AcDbEntity
8
0
100
AcDbCircle
10
-26.051296777562143
20
-38.714267386436745
30
0
40
2.7332386148413281
210
0
220
0
230
1
100
AcDbArc
50
260.4939731530182
51
304.6326600441522
0
LINE
5
201
100
AcDbEntity
8
0
100
AcDbLine
10
-24.497962119657892
20
-40.963210419555466
30
0
11
-25.356282943063491
21
-42.794844467569334
31
0
0
LINE
5
202
100
AcDbEntity
8
0
100
AcDbLine
10
-25.356282943063491
20
-42.794844467569334
30
0
11
-25.112501411113968
21
-43.361524104926687
31
0
0
LINE
5
203
100
AcDbEntity
8
0
100
AcDbLine
10
-25.112501411113968
20
-43.361524104926687
30
0
11
-24.578397446595854
21
-42.2145004856037
31
0
0
LINE
5
204
100
AcDbEntity
8
0
100
AcDbLine
10
-24.578397446595854
20
-42.2145004856037
30
0
11
15.668656523947124
21
-42.2145004856037
31
0
0
LINE
5
205
100
AcDbEntity
8
0
100
AcDbLine
10
15.668656523947124
20
-42.2145004856037
30
0
11
10.010095848962404
21
-44.154886928067747
31
0
0
LINE
5
206
100
AcDbEntity
8
0
100
AcDbLine
10
10.010095848962404
20
-44.154886928067747
30
0
11
28.894396725172555
21
-44.154886928067747
31
0
0
ARC
5
207
100
AcDbEntity
8
0
100
AcDbCircle
10
28.894396725172552
20
-41.654886928067747
30
0
40
2.5
210
-0
220
0
230
1
100
AcDbArc
50
270.00000000000011
51
360
0
LINE
5
208
100
AcDbEntity
8
0
100
AcDbLine
10
31.394396725172552
20
-41.654886928067754
30
0
11
31.394396725172555
21
-30.722648308196689
31
0
0
LINE
5
209
100
AcDbEntity
8
0
100
AcDbLine
10
31.394396725172555
20
-30.722648308196689
30
0
11
29.198306576478359
21
-25.153510822642783
31
0
0
LINE
5
210
100
AcDbEntity
8
0
100
AcDbLine
10
29.198306576478359
20
-25.153510822642783
30
0
11
23.852619147399938
21
-34.973444536777336
31
0
0
LWPOLYLINE
5
211
100
AcDbEntity
8
0
100
AcDbPolyline
90
2
43
0.0
10
23.85261914739994
20
-34.973444536777336
10
23.458552237755054
20
-35.66804595538013
0
LINE
5
212
100
AcDbEntity
8
0
100
AcDbLine
10
23.45855223775505
20
-35.66804595538013
30
0
11
-21.530084178039314
21
-35.668045955380137
31
0
0
LINE
5
213
100
AcDbEntity
8
0
100
AcDbLine
10
-21.530084178039314
20
-35.668045955380137
30
0
11
-21.218603499746838
21
-34.999120579987036
31
0
0
LINE
5
214
100
AcDbEntity
8
0
100
AcDbLine
10
-21.218603499746838
20
-34.999120579987036
30
0
11
-12.207903342682185
21
-34.999120579987036
31
0
0
LWPOLYLINE
5
215
100
AcDbEntity
8
0
100
AcDbPolyline
90
9
43
0.0
10
-12.207903342682185
20
-34.999120579987036
10
-12.1927526349209
20
-34.97138703432208
10
-12.151488147812698
20
-34.919051280812035
10
-12.082760751390582
20
-34.840842282598786
10
-11.986646858695453
20
-34.736832029620345
10
-11.86490858000767
20
-34.60868063406076
10
-11.720018568597595
20
-34.458717621984505
10
-11.554245833912793
20
-34.28908066336485
10
-11.36911524813677
20
-34.101206364595654
0
LINE
5
216
100
AcDbEntity
8
0
100
AcDbLine
10
-11.369115248136772
20
-34.101206364595654
30
0
11
-9.2267404228987271
21
-30.11195669001447
31
0
0
LINE
5
217
100
AcDbEntity
8
0
100
AcDbLine
10
-9.2267404228987271
20
-30.11195669001447
30
0
11
-25.720676618210305
21
-30.11195669001447
31
0
0
LWPOLYLINE
5
218
100
AcDbEntity
8
0
100
AcDbPolyline
90
23
43
0.0
10
-25.72067661821031
20
-30.11195669001447
10
-25.97686984924025
20
-30.094457091050433
10
-26.22879487590839
20
-30.11886241777261
10
-26.47383472907429
20
-30.185999744530562
10
-26.70527954336859
20
-30.296843660539857
10
-26.911756005092638
20
-30.452174447516224
10
-27.08214995702968
20
-30.652474904764613
10
-27.21371356421866
20
-30.897921196871376
10
-27.319124990920294
20
-31.188320864987492
10
-27.425345210775365
20
-31.523112207726783
10
-27.56558562803041
20
-31.901401081994816
10
-27.658393002668074
20
-32.10647845174006
10
-27.77060130551157
20
-32.32192286803322
10
-27.904561957074883
20
-32.54751365487861
10
-28.062025609645556
20
-32.78301853034094
10
-28.24424419993208
20
-33.02820397636487
10
-28.452048047201092
20
-33.2828434746675
10
-28.685929166545254
20
-33.54672514369187
10
-28.946121283308365
20
-33.819658397115276
10
-29.23267095369573
20
-34.10147937828684
10
-29.545506258991978
20
-34.392055511892764
10
-29.88450269235532
20
-34.6912892008417
10
-30.249544599148958
20
-34.999120579987036
0
LINE
5
219
100
AcDbEntity
8
0
100
AcDbLine
10
-30.249544599148962
20
-34.999120579987036
30
0
11
-26.336698954658946
21
-34.999120579987036
31
0
0
LINE
5
220
100
AcDbEntity
8
0
100
AcDbLine
10
-26.336698954658946
20
-34.999120579987036
30
0
11
-26.644155842617536
21
-35.668045955380137
31
0
0
LWPOLYLINE
5
221
100
AcDbEntity
8
0
100
AcDbPolyline
90
18
43
0.0
10
-5.647684344845174
20
35.71913126883998
10
-5.358116633046532
20
35.73752872505069
10
-5.110556017224425
20
35.79434885425439
10
-4.887773992006208
20
35.89306571942958
10
-4.668749840033642
20
36.036883817498634
10
-4.547499926070959
20
36.13267413363622
10
-4.392211246033604
20
36.26611570592642
10
-3.9890142709199696
20
36.63054622311185
10
-3.814026486969918
20
36.79073667465904
10
-3.659339279997803
20
36.931402061124956
10
-3.353178221356383
20
37.20172595535303
10
-3.0450830269541185
20
37.456340645061
10
-2.7456182522805994
20
37.678376041304716
10
-2.464240156735643
20
37.85351953387282
10
-2.206899297674065
20
37.97339992025517
10
-1.9738280380046702
20
38.03890026587627
10
-1.758017106298747
20
38.062403282409974
10
-1.3314306801119329
20
38.06165562409402
0
LINE
5
222
100
AcDbEntity
8
0
100
AcDbLine
10
-1.3314306801119333
20
38.061655624094016
30
0
11
6.0000000894069672
21
38.061655624094016
31
0
0
LWPOLYLINE
5
223
100
AcDbEntity
8
0
100
AcDbPolyline
90
24
43
0.0
10
6.000000089406967
20
38.06165562409401
10
6.297896996884977
20
38.077702019263235
10
6.563225763502016
20
38.12179672126497
10
6.829585114150598
20
38.185667830310095
10
7.128320887559687
20
38.263654039422526
10
7.467982575031753
20
38.35941745842007
10
7.824785853022763
20
38.4879970511884
10
8.154663454452828
20
38.668730179418276
10
8.294699533226687
20
38.783446553862944
10
8.411587145802823
20
38.91538990660823
10
8.50230562140165
20
39.063747853122855
10
8.565958192560052
20
39.226130182768
10
8.60366383671029
20
39.398698488677475
10
8.618082890147093
20
39.57653627553551
10
8.591642145466203
20
39.92579610283505
10
8.51540239061478
20
40.230647330508965
10
8.464380477069541
20
40.35575588406792
10
8.4044741311843
20
40.459732106667325
10
8.332935345925774
20
40.542478917467534
10
8.245442169818187
20
40.60527372034478
10
8.136869442305917
20
40.6502335372854
10
8.002007997595376
20
40.679823235616475
10
7.836249980513221
20
40.69639404428809
10
7.636319652440628
20
40.70169427339687
0
LINE
5
224
100
AcDbEntity
8
0
100
AcDbLine
10
7.636319652440628
20
40.701694273396868
30
0
11
-19.927968303642572
21
40.701694273396868
31
0
0
LWPOLYLINE
5
225
100
AcDbEntity
8
0
100
AcDbPolyline
90
5
43
0.0
10
-19.927968303642594
20
40.70169427339685
10
-18.88855853179442
20
41.477382396483144
10
-17.7906305166655
20
42.25992836136744
10
-16.63486704694188
20
43.049196005024385
10
-15.421702868097812
20
43.84511307193226
0
LINE
5
226
100
AcDbEntity
8
0
100
AcDbLine
10
-15.421702868097814
20
43.845113071932261
30
0
11
-29.105603274827452
21
43.845113071932253
31
0
0
ARC
5
227
100
AcDbEntity
8
0
100
AcDbCircle
10
-29.105603274827448
20
41.345113071932253
30
0
40
2.5
210
0
220
0
230
1
100
AcDbArc
50
90.000000000000071
51
180
0
LINE
5
228
100
AcDbEntity
8
0
100
AcDbLine
10
-31.605603274827448
20
41.345113071932275
30
0
11
-31.605603274827452
21
30.935608372992096
31
0
0
LWPOLYLINE
5
229
100
AcDbEntity
8
0
100
AcDbPolyline
90
21
43
0.0
10
-31.605603274827452
20
30.935608372992096
10
-31.57330859351556
20
30.596419282886973
10
-31.487349650145777
20
30.23338672260609
10
-31.34716506914347
20
29.846731232372356
10
-31.152813484727073
20
29.437710746407742
10
-30.90595071576539
20
29.009454316286124
10
-30.610932588728414
20
28.567867073483576
10
-30.275814037873342
20
28.122409702318453
10
-29.91203224542489
20
27.685726244502213
10
-29.533062679899658
20
27.272356861118336
10
-29.15302750016766
20
26.897350164159885
10
-28.78535572814083
20
26.5748513170011
10
-28.441421183847773
20
26.316586880189647
10
-28.28101325218637
20
26.21415869778892
10
-28.129237859805755
20
26.130357142768958
10
-27.986521537976188
20
26.065497735877006
10
-27.853126600316468
20
26.01972087164946
10
-27.72918894303843
20
25.993041293577015
10
-27.614754600570095
20
25.98539536925001
10
-27.509815497340153
20
25.9966865822239
10
-27.414344011224497
20
26.026828971990867
0
LWPOLYLINE
5
230
100
AcDbEntity
8
0
100
AcDbPolyline
90
17
43
0.0
10
-27.414344011224497
20
26.026828971990867
10
-27.507590834820714
20
26.20027788865066
10
-27.597554211786132
20
26.397936554020436
10
-27.684066143038255
20
26.61986254928833
10
-27.766706997072514
20
26.866084305969395
10
-27.844680058005615
20
27.13653915710716
10
-27.916691638290672
20
27.431012349306584
10
-27.980855786809563
20
27.74908458279512
10
-28.03471201294758
20
28.09012349293305
10
-28.075363657766037
20
28.453322159256697
10
-28.099622557508557
20
28.83773929949989
10
-28.104145795574567
20
29.24233468749137
10
-28.085585251144877
20
29.666005112926925
10
-28.040736488474355
20
30.107619166410306
10
-27.966655445844072
20
30.566045744664073
10
-27.86072709012897
20
31.04017485367085
10
-27.720656237727507
20
31.528927097796682
0
LINE
5
231
100
AcDbEntity
8
0
100
AcDbLine
10
-27.720656237727507
20
31.528927097796682
30
0
11
-27.000990345786416
21
31.52892709779648
31
0
0
LINE
5
232
100
AcDbEntity
8
0
100
AcDbLine
10
-27.000990345786416
20
31.52892709779648
30
0
11
28.000000417232517
21
31.528927066975744
31
0
0
LWPOLYLINE
5
233
100
AcDbEntity
8
0
100
AcDbPolyline
90
23
43
0.0
10
28.000000417232513
20
31.52892706697574
10
28.337275922959215
20
31.632285360865783
10
28.659823200037188
20
31.754525149149153
10
28.965952776181034
20
31.896598364458633
10
29.25165382426059
20
32.0604636493764
10
29.50957599329515
20
32.249366707198206
10
29.72864006094915
20
32.46747334921258
10
29.895825667976734
20
32.71735423396009
10
29.999133946225108
20
32.99628614248201
10
30.030673950799667
20
33.292439065459995
10
29.98847130440967
20
33.583640670145435
10
29.940310922145265
20
33.71899406633585
10
29.874667451980372
20
33.84323509847975
10
29.79193853769433
20
33.9537566531226
10
29.69238754416175
20
34.04879370300196
10
29.576071170637242
20
34.127632010185884
10
29.442817190892743
20
34.190631157525736
10
29.292271774936886
20
34.23898553063458
10
29.123964504683773
20
34.2744261560007
10
28.937365314660976
20
34.29896445549797
10
28.73194649087578
20
34.314626338334506
10
28.50724852424942
20
34.32318095887656
10
28.26294657509175
20
34.32587718443422
0
LINE
5
234
100
AcDbEntity
8
0
100
AcDbLine
10
28.26294657509175
20
34.325877184434226
30
0
11
-26.337152007686825
21
34.325877184434226
31
0
0
LWPOLYLINE
5
235
100
AcDbEntity
8
0
100
AcDbPolyline
90
3
43
0.0
10
-26.33715200768682
20
34.32587718443422
10
-25.849688129016297
20
35.016380751723425
10
-25.297487156120127
20
35.71913126928295
0
LINE
5
236
100
AcDbEntity
8
0
100
AcDbLine
10
-25.297487156120127
20
35.719131269282947
30
0
11
-23.857982072374195
21
35.71913126883998
31
0
0
LINE
5
237
100
AcDbEntity
8
0
100
AcDbLine
10
-23.857982072374195
20
35.71913126883998
30
0
11
-5.6476843448451746
21
35.71913126883998
31
0
0
LWPOLYLINE
5
238
100
AcDbEntity
8
0
100
AcDbPolyline
90
5
43
0.0
10
4.3844080139400905
20
-2.726793590972143
10
4.376781707292667
20
-2.6219064189718044
10
4.350807620778494
20
-2.525870712788264
10
4.3064857543975705
20
-2.4386864724215225
10
4.243816108149898
20
-2.36035369787158
0
LWPOLYLINE
5
239
100
AcDbEntity
8
0
100
AcDbPolyline
90
3
43
0.0
10
4.23821479047149
20
-3.077784156133365
10
4.346457211511072
20
-2.9136059964622363
10
4.3844080139400905
20
-2.726793590972143
0
LINE
5
240
100
AcDbEntity
8
0
100
AcDbLine
10
-3.0792072829108847
20
-5.6696858324224841
30
0
11
0.14262467297542103
21
-5.6696858324224841
31
0
0
LWPOLYLINE
5
241
100
AcDbEntity
8
0
100
AcDbPolyline
90
9
43
0.0
10
-0.659871685826275
20
-3.879946579929583
10
-0.8892686832917712
20
-4.1672131066354225
10
-1.1324624670210228
20
-4.426832979743911
10
-1.3939773903119468
20
-4.663685015357988
10
-1.678972958218135
20
-4.883365718281398
10
-1.990750065563287
20
-5.090838922582955
10
-2.3292886823802714
20
-5.289739252664748
10
-2.6927285467164928
20
-5.482320176934465
10
-3.0792072829108843
20
-5.669685832422484
0
LWPOLYLINE
5
242
100
AcDbEntity
8
0
100
AcDbPolyline
90
5
43
0.0
10
12.970960547023452
20
-3.356519950205108
10
12.953878694603219
20
-3.1492691055178845
10
12.90263313734252
20
-2.960968402797004
10
12.817223875241353
20
-2.7916178420424664
10
12.697650908299721
20
-2.641217423254272
0
LINE
5
243
100
AcDbEntity
8
0
100
AcDbLine
10
11.604412353404799
20
-2.7565199263632501
30
0
11
11.634305572875778
21
-2.7479791768133799
31
0
0
LINE
5
244
100
AcDbEntity
8
0
100
AcDbLine
10
18.837364668921587
20
-2.1730529668834819
30
0
11
18.837364668921587
21
-3.5578214529064311
31
0
0
LWPOLYLINE
5
245
100
AcDbEntity
8
0
100
AcDbPolyline
90
3
43
0.0
10
10.04843241243582
20
-2.2406481676093293
10
9.879891469021848
20
-2.260577055095787
10
9.711350488354972
20
-2.3203637175551606
0
LWPOLYLINE
5
246
100
AcDbEntity
8
0
100
AcDbPolyline
90
3
43
0.0
10
12.005835926898754
20
-2.3593670256674493
10
11.81099605447892
20
-2.3764488227904046
10
11.576654321321286
20
-2.4276942141592706
0
LINE
5
247
100
AcDbEntity
8
0
100
AcDbLine
10
11.188042319186964
20
-4.3579435475409234
30
0
11
11.922561905154028
21
-4.3579435475409234
31
0
0
LINE
5
248
100
AcDbEntity
8
0
100
AcDbLine
10
19.292880649642107
20
-5.354832351496519
30
0
11
19.292880649642107
21
-2.1730529668834819
31
0
0
LWPOLYLINE
5
249
100
AcDbEntity
8
0
100
AcDbPolyline
90
5
43
0.0
10
12.686974747844971
20
-4.086769235903045
10
12.811218534985557
20
-3.9394382886827195
10
12.899964097228832
20
-3.7686197586596215
10
12.953211434574797
20
-3.574313645833751
10
12.970960547023452
20
-3.356519950205108
0
LINE
5
250
100
AcDbEntity
8
0
100
AcDbLine
10
8.9939127740166711
20
-2.2770895533553315
30
0
11
8.9939127740166711
21
-4.3724632732859803
31
0
0
LWPOLYLINE
5
251
100
AcDbEntity
8
0
100
AcDbPolyline
90
8
70
1
43
0.0
10
13.106675558305456
20
-4.3749494095131158
10
13.544397913432791
20
-4.3749494095131158
10
14.050447829580976
20
-3.2667643566414117
10
14.579985216773226
20
-4.3749494095131158
10
15.021978132940008
20
-4.3749494095131158
10
14.261835702276899
20
-2.8311771889015436
10
14.930163175380899
20
-1.4091128845497369
10
14.496711195028498
20
-1.4091128845497369
0
LINE
5
252
100
AcDbEntity
8
0
100
AcDbLine
10
7.351632143354669
20
-3.5101144828243136
30
0
11
7.8823083145382551
21
-3.3279084481639742
31
0
0
LWPOLYLINE
5
253
100
AcDbEntity
8
0
100
AcDbPolyline
90
5
43
0.0
10
12.159572622545994
20
-3.9714667327940667
10
12.106458732665516
20
-3.9817425176739896
10
12.032526346662081
20
-3.9890823640167916
10
11.93777546453569
20
-3.993486271822473
10
11.822206086286343
20
-3.9949542410910333
0
LINE
5
254
100
AcDbEntity
8
0
100
AcDbLine
10
15.102460347560477
20
-2.371324531023018
30
0
11
15.102460347560477
21
-2.6241361417217135
31
0
0
LINE
5
255
100
AcDbEntity
8
0
100
AcDbLine
10
6.9439453137877134
20
-2.6195808567447543
30
0
11
6.9439453137877134
21
-3.5101144828243136
31
0
0
LWPOLYLINE
5
256
100
AcDbEntity
8
0
100
AcDbPolyline
90
5
43
0.0
10
12.398718527325428
20
-2.8718224294722283
10
12.47718827733118
20
-2.974713978940269
10
12.53323809876386
20
-3.091217590147277
10
12.566867991623468
20
-3.2213332630932534
10
12.578077955910004
20
-3.3650609977781976
0
LINE
5
257
100
AcDbEntity
8
0
100
AcDbLine
10
18.837364668921587
20
-4.9676435592678203
30
0
11
18.700709844903109
21
-4.9676435592678203
31
0
0
LINE
5
258
100
AcDbEntity
8
0
100
AcDbLine
10
18.837364668921587
20
-3.963230938008131
30
0
11
18.837364668921587
21
-4.9676435592678203
31
0
0
LINE
5
259
100
AcDbEntity
8
0
100
AcDbLine
10
18.837364668921587
20
-3.5578214529064311
30
0
11
18.718930463270308
21
-3.5578214529064311
31
0
0
LINE
5
260
100
AcDbEntity
8
0
100
AcDbLine
10
18.664268533662913
20
-3.963230938008131
30
0
11
18.837364668921587
21
-3.963230938008131
31
0
0
LWPOLYLINE
5
261
100
AcDbEntity
8
0
100
AcDbPolyline
90
3
43
0.0
10
17.990104909018633
20
-4.200099200299086
10
18.07551415540373
20
-4.096469335546793
10
18.190531934575198
20
-4.02244800358087
0
LINE
5
262
100
AcDbEntity
8
0
100
AcDbLine
10
15.817620419410298
20
-3.6217161335391879
30
0
11
15.817620419410298
21
-3.5101144828243136
31
0
0
LWPOLYLINE
5
263
100
AcDbEntity
8
0
100
AcDbPolyline
90
3
43
0.0
10
17.584695572928545
20
-3.988284260323347
10
17.480496334807036
20
-4.209778957357706
10
17.4457632554332
20
-4.468853712370695
0
LWPOLYLINE
5
264
100
AcDbEntity
8
0
100
AcDbPolyline
90
3
43
0.0
10
17.684909160212634
20
-3.41205650596887
10
17.832382450775263
20
-3.5669319483545436
10
17.983272130564806
20
-3.685366154005827
0
LWPOLYLINE
5
265
100
AcDbEntity
8
0
100
AcDbPolyline
90
5
43
0.0
10
16.161535047439166
20
-4.386982999031055
10
16.37491582122376
20
-4.369189401377547
10
16.56181972983969
20
-4.315808608417022
10
16.72224677328696
20
-4.226840620149481
10
16.856196951565572
20
-4.102285436574924
0
LWPOLYLINE
5
266
100
AcDbEntity
8
0
100
AcDbPolyline
90
3
43
0.0
10
18.190531934575198
20
-3.3391740325000896
10
18.066403846220133
20
-3.203088581850828
10
17.930887843445895
20
-3.027145505240263
0
LWPOLYLINE
5
267
100
AcDbEntity
8
0
100
AcDbPolyline
90
5
43
0.0
10
15.617193393853734
20
-4.209331802312839
10
15.728083085713218
20
-4.2870542008770585
10
15.855769925263951
20
-4.342570199851501
10
16.000253912505933
20
-4.375879799236166
10
16.161535047439166
20
-4.386982999031055
0
LWPOLYLINE
5
268
100
AcDbEntity
8
0
100
AcDbPolyline
90
2
43
0.0
10
12.417935586341656
20
-3.813459587866088
10
12.30476834512595
20
-3.9095449574530328
0
LINE
5
269
100
AcDbEntity
8
0
100
AcDbLine
10
0.14262467297542103
20
-5.6696858324224841
30
0
11
0.79831052549950976
21
-4.161598501948629
31
0
0
LWPOLYLINE
5
270
100
AcDbEntity
8
0
100
AcDbPolyline
90
3
43
0.0
10
2.829730094067609
20
-2.490669253958555
10
2.8840076362241427
20
-2.518201954456297
10
2.9010899214776678
20
-2.598736614380792
0
LWPOLYLINE
5
271
100
AcDbEntity
8
0
100
AcDbPolyline
90
8
70
1
43
0.0
10
6.479945131336148
20
-2.2424958638994852
10
4.6442155584141567
20
-2.2424958638994852
10
4.6442155584141567
20
-2.62968435810496
10
5.7533971264406993
20
-2.62968435810496
10
4.6442155584141567
20
-4.337869583830134
10
6.4343935295388057
20
-4.337869583830134
10
6.4343935295388057
20
-3.9506809406130472
10
5.3798739656254604
20
-3.9506809406130472
0
LWPOLYLINE
5
272
100
AcDbEntity
8
0
100
AcDbPolyline
90
5
43
0.0
10
11.931102803715504
20
-2.6817870266974175
10
12.067624159895814
20
-2.693664239370843
10
12.191067232557572
20
-2.7292958773911202
10
12.301432021700776
20
-2.7886819407582486
10
12.398718527325428
20
-2.8718224294722283
0
LWPOLYLINE
5
273
100
AcDbEntity
8
0
100
AcDbPolyline
90
3
43
0.0
10
7.9301375029447225
20
-3.0090471424503207
10
7.81056454124178
20
-3.095025724951732
10
7.629496927356973
20
-3.1798654117030978
0
LWPOLYLINE
5
274
100
AcDbEntity
8
0
100
AcDbPolyline
90
5
43
0.0
10
16.38473790183408
20
-2.2187268056316256
10
16.237691645954975
20
-2.231538190726745
10
16.094915848669835
20
-2.2699723460121035
10
15.956410509978662
20
-2.334029271487701
10
15.822175629881452
20
-2.4237089671535372
0
LWPOLYLINE
5
275
100
AcDbEntity
8
0
100
AcDbPolyline
90
5
43
0.0
10
7.918749625778451
20
-2.2187268056316256
10
7.771703369899347
20
-2.231538190726745
10
7.628927572614208
20
-2.2699723460121035
10
7.490422233923033
20
-2.334029271487701
10
7.356187353825822
20
-2.4237089671535372
0
LWPOLYLINE
5
276
100
AcDbEntity
8
0
100
AcDbPolyline
90
3
43
0.0
10
15.337051116374562
20
-2.5125344910068392
10
15.391712971476148
20
-2.539296082441318
10
15.409933589843343
20
-2.6195808567447543
0
LINE
5
277
100
AcDbEntity
8
0
100
AcDbLine
10
7.629496927356973
20
-3.1798654117030933
30
0
11
7.351632143354669
21
-3.2869117774410128
31
0
0
LWPOLYLINE
5
278
100
AcDbEntity
8
0
100
AcDbPolyline
90
3
43
0.0
10
16.482673809376784
20
-2.797232202474582
10
16.461036801782676
20
-2.9139581390066027
10
16.39612577900035
20
-3.0090471424503207
0
LWPOLYLINE
5
279
100
AcDbEntity
8
0
100
AcDbPolyline
90
5
43
0.0
10
17.2749446881572
20
-2.8084977868106975
10
17.39964223370051
20
-3.0076437036600723
10
17.50953549422419
20
-3.1746187958028926
10
17.60462446972823
20
-3.3094230632391586
10
17.684909160212634
20
-3.41205650596887
0
LWPOLYLINE
5
280
100
AcDbEntity
8
0
100
AcDbPolyline
90
3
43
0.0
10
6.871062840318933
20
-2.5125344910068392
10
6.925724695420518
20
-2.539296082441318
10
6.943945313787713
20
-2.6195808567447543
0
LINE
5
281
100
AcDbEntity
8
0
100
AcDbLine
10
15.817620419410298
20
-3.2869117774410128
30
0
11
15.817620419410298
21
-2.665132514421451
31
0
0
LWPOLYLINE
5
282
100
AcDbEntity
8
0
100
AcDbPolyline
90
5
43
0.0
10
8.428927545419588
20
-2.7266272224826693
10
8.419817225176535
20
-2.6218585178596854
10
8.392486264447376
20
-2.526200122420299
10
8.34693466323211
20
-2.43965203616451
10
8.283162421530738
20
-2.362214259092319
0
LWPOLYLINE
5
283
100
AcDbEntity
8
0
100
AcDbPolyline
90
3
43
0.0
10
2.826637989687024
20
-2.226399924274185
10
2.725773572291895
20
-2.271666958128258
10
2.597161792760121
20
-2.346152587658894
0
LINE
5
284
100
AcDbEntity
8
0
100
AcDbLine
10
19.292880649642107
20
-2.1730529668834819
30
0
11
18.837364668921587
21
-2.1730529668834819
31
0
0
LWPOLYLINE
5
285
100
AcDbEntity
8
0
100
AcDbPolyline
90
2
43
0.0
10
3.0047550080789933
20
-2.194754277029327
10
2.826637989687024
20
-2.226399924274185
0
LWPOLYLINE
5
286
100
AcDbEntity
8
0
100
AcDbPolyline
90
3
43
0.0
10
15.330218337920735
20
-2.248335412923801
10
15.230004825142453
20
-2.2950257428331255
10
15.102460347560475
20
-2.3713245310230135
0
LINE
5
287
100
AcDbEntity
8
0
100
AcDbLine
10
8.3902086755099443
20
-4.1022854365749239
30
0
11
8.3902086755099443
21
-3.6490469493312716
31
0
0
LWPOLYLINE
5
288
100
AcDbEntity
8
0
100
AcDbPolyline
90
3
43
0.0
10
6.959888364172235
20
-3.867694667760837
10
6.983803014254823
20
-3.962783633951652
10
7.02821585068728
20
-4.056733927909839
0
LWPOLYLINE
5
289
100
AcDbEntity
8
0
100
AcDbPolyline
90
5
43
0.0
10
8.390208675509944
20
-3.6490469493312716
10
8.2285004930875
20
-3.8024989396674513
10
8.064514726384237
20
-3.912107504193294
10
7.8982513754001555
20
-3.9778726429087996
10
7.729710440135255
20
-3.999794355813968
0
LWPOLYLINE
5
290
100
AcDbEntity
8
0
100
AcDbPolyline
90
5
43
0.0
10
9.408432382037452
20
-2.873815494059677
10
9.517613883940092
20
-2.7472674385002804
10
9.63789858563762
20
-2.6568759702435685
10
9.769286487130037
20
-2.6026410892895413
10
9.911777588417342
20
-2.584562795638199
0
LINE
5
291
100
AcDbEntity
8
0
100
AcDbLine
10
8.9939127740166711
20
-4.3724632732859803
30
0
11
9.4084323820374536
21
-4.3724632732859803
31
0
0
LWPOLYLINE
5
292
100
AcDbEntity
8
0
100
AcDbPolyline
90
3
43
0.0
10
10.667934219231418
20
-2.6073386244765473
10
10.561457329308203
20
-2.455879645823593
10
10.415122794797233
20
-2.3385842614165497
0
LINE
5
293
100
AcDbEntity
8
0
100
AcDbLine
10
9.4084323820374536
20
-4.3724632732859803
30
0
11
9.4084323820374518
21
-2.8738154940596772
31
0
0
LINE
5
294
100
AcDbEntity
8
0
100
AcDbLine
10
9.4084323820374536
20
-2.2770895533553315
30
0
11
8.9939127740166711
21
-2.2770895533553315
31
0
0
LWPOLYLINE
5
295
100
AcDbEntity
8
0
100
AcDbPolyline
90
5
43
0.0
10
7.729710440135255
20
-3.999794355813968
10
7.564301185293749
20
-3.9761644669217944
10
7.4461517175498155
20
-3.905274800245273
10
7.375262036903456
20
-3.7871253557844042
10
7.351632143354669
20
-3.621716133539188
0
LINE
5
296
100
AcDbEntity
8
0
100
AcDbLine
10
10.75220468162518
20
-4.3724632732859803
30
0
11
10.75220468162518
21
-3.17217846441185
31
0
0
LINE
5
297
100
AcDbEntity
8
0
100
AcDbLine
10
17.520923371390463
20
-2.3825904133823528
30
0
11
17.381991053895113
21
-2.1730529668834819
31
0
0
LWPOLYLINE
5
298
100
AcDbEntity
8
0
100
AcDbPolyline
90
5
43
0.0
10
7.151205117798105
20
-4.209331802312839
10
7.262094809657588
20
-4.2870542008770585
10
7.389781649208322
20
-4.342570199851501
10
7.534265636450305
20
-4.375879799236166
10
7.695546771383539
20
-4.386982999031055
0
LINE
5
299
100
AcDbEntity
8
0
100
AcDbLine
10
10.337685110857301
20
-4.3724632732859803
30
0
11
10.75220468162518
21
-4.3724632732859803
31
0
0
LINE
5
300
100
AcDbEntity
8
0
100
AcDbLine
10
16.839927042798159
20
-2.1730529668834819
30
0
11
17.008467818574069
21
-2.4008109572437419
31
0
0
LWPOLYLINE
5
301
100
AcDbEntity
8
0
100
AcDbPolyline
90
5
43
0.0
10
16.894915821475216
20
-2.7266272224826693
10
16.885805501232163
20
-2.6218585178596854
10
16.858474540503003
20
-2.526200122420299
10
16.812922939287738
20
-2.43965203616451
10
16.749150697586366
20
-2.362214259092319
0
LWPOLYLINE
5
302
100
AcDbEntity
8
0
100
AcDbPolyline
90
5
43
0.0
10
15.817620419410298
20
-2.665132514421451
10
15.90374141975982
20
-2.5943851352078795
10
15.993563496020863
20
-2.5438512929124713
10
16.087086648193427
20
-2.5135309875352263
10
16.184310876277515
20
-2.5034242190761447
0
LWPOLYLINE
5
303
100
AcDbEntity
8
0
100
AcDbPolyline
90
3
43
0.0
10
7.02821585068728
20
-4.056733927909839
10
7.086294132268682
20
-4.1427125476641535
10
7.151205117798105
20
-4.209331802312839
0
LWPOLYLINE
5
304
100
AcDbEntity
8
0
100
AcDbPolyline
90
3
43
0.0
10
9.711350488354972
20
-2.3203637175551606
10
9.550211752643397
20
-2.4160220198622895
10
9.408432382037452
20
-2.5435664229384614
0
LINE
5
305
100
AcDbEntity
8
0
100
AcDbLine
10
7.351632143354669
20
-3.6217161335391879
30
0
11
7.351632143354669
21
-3.5101144828243136
31
0
0
LWPOLYLINE
5
306
100
AcDbEntity
8
0
100
AcDbPolyline
90
5
43
0.0
10
9.911777588417342
20
-2.584562795638199
10
10.021386134316733
20
-2.5926766827992154
10
10.113343435218146
20
-2.6170183442822648
10
10.187649491121581
20
-2.657587780087347
10
10.244304302027038
20
-2.7143849902144623
0
LWPOLYLINE
5
307
100
AcDbEntity
8
0
100
AcDbPolyline
90
5
43
0.0
10
7.695546771383539
20
-4.386982999031055
10
7.908927545168131
20
-4.369189401377547
10
8.095831453784063
20
-4.315808608417022
10
8.256258497231334
20
-4.226840620149481
10
8.390208675509944
20
-4.102285436574924
0
LWPOLYLINE
5
308
100
AcDbEntity
8
0
100
AcDbPolyline
90
5
43
0.0
10
7.351632143354669
20
-2.665132514421451
10
7.437753143704191
20
-2.5943851352078795
10
7.527575219965234
20
-2.5438512929124713
10
7.6210983721378
20
-2.5135309875352263
10
7.718322600221887
20
-2.5034242190761447
0
LWPOLYLINE
5
309
100
AcDbEntity
8
0
100
AcDbPolyline
90
5
43
0.0
10
3.627596808619676
20
-4.376601296113796
10
3.841208086854133
20
-4.3618300893449495
10
4.028848923538093
20
-4.311100447895888
10
4.190519318671556
20
-4.224412371766609
10
4.326219272254523
20
-4.101765860957114
0
LINE
5
310
100
AcDbEntity
8
0
100
AcDbLine
10
3.2961295494956531
20
-3.4949522036650738
30
0
11
3.8293318465097159
21
-3.3202766524633009
31
0
0
LWPOLYLINE
5
311
100
AcDbEntity
8
0
100
AcDbPolyline
90
3
43
0.0
10
3.829331846509716
20
-3.320276652463301
10
4.06314515403617
20
-3.2159603107266888
10
4.23821479047149
20
-3.077784156133365
0
LWPOLYLINE
5
312
100
AcDbEntity
8
0
100
AcDbPolyline
90
5
43
0.0
10
4.243816108149898
20
-2.36035369787158
10
4.167274800395875
20
-2.296488022543226
10
4.081370184490385
20
-2.25042751644518
10
3.9861022604334315
20
-2.222172179577442
10
3.8814710282250124
20
-2.2117220119400116
0
LWPOLYLINE
5
313
100
AcDbEntity
8
0
100
AcDbPolyline
90
5
43
0.0
10
4.332635294451748
20
-3.6485727884393615
10
4.168771056286184
20
-3.79972026956599
10
4.0032501074791496
20
-3.906996476642358
10
3.8360724480306434
20
-3.9704014096684634
10
3.6672380779406657
20
-3.989935068644308
0
LWPOLYLINE
5
314
100
AcDbEntity
8
0
100
AcDbPolyline
90
3
43
0.0
10
2.5935830037746053
20
-2.5989388665061997
10
2.7331169545582243
20
-2.5172046745498955
10
2.829730094067609
20
-2.490669253958555
0
LWPOLYLINE
5
315
100
AcDbEntity
8
0
100
AcDbPolyline
90
5
43
0.0
10
12.697650908299721
20
-2.641217423254272
10
12.55192136791814
20
-2.517907874310037
10
12.388042357557453
20
-2.429829625064155
10
12.206013877217657
20
-2.3769826755166257
10
12.005835926898754
20
-2.3593670256674493
0
LWPOLYLINE
5
316
100
AcDbEntity
8
0
100
AcDbPolyline
90
5
43
0.0
10
11.922561905154026
20
-4.357943547540923
10
12.150497859616763
20
-4.340995153063556
10
12.353878651552833
20
-4.290149969631454
10
12.532704280962236
20
-4.205407997244617
10
12.686974747844971
20
-4.086769235903045
0
LWPOLYLINE
5
317
100
AcDbEntity
8
0
100
AcDbPolyline
90
3
43
0.0
10
3.8816700276944487
20
-3.002124364501526
10
3.760891938589692
20
-3.0864016628182678
10
3.578641481251743
20
-3.168669664168222
0
LINE
5
318
100
AcDbEntity
8
0
100
AcDbLine
10
3.5786414812517435
20
-3.1686696641682222
30
0
11
3.2992891962435031
21
-3.2717718633058634
31
0
0
LWPOLYLINE
5
319
100
AcDbEntity
8
0
100
AcDbPolyline
90
5
43
0.0
10
3.6672380779406657
20
-3.989935068644308
10
3.5021799007593732
20
-3.9639660220336235
10
3.3850457823593194
20
-3.8914109403623507
10
3.3158357227405033
20
-3.7722698236304906
10
3.2945497219029254
20
-3.6065426718380422
0
LINE
5
320
100
AcDbEntity
8
0
100
AcDbLine
10
3.2945497219029258
20
-3.6065426718380467
30
0
11
3.2961295494956531
21
-3.4949522036650738
31
0
0
LWPOLYLINE
5
321
100
AcDbEntity
8
0
100
AcDbPolyline
90
3
43
0.0
10
3.6770339226843385
20
-2.493553663238446
10
3.7968740377279357
20
-2.5157505991353313
10
3.8922216286603994
20
-2.5786014152912085
0
LINE
5
322
100
AcDbEntity
8
0
100
AcDbLine
10
0.79831052549950976
20
-4.161598501948629
30
0
11
0.92827229189914862
21
-5.6453389491980666
31
0
0
LWPOLYLINE
5
323
100
AcDbEntity
8
0
100
AcDbPolyline
90
3
43
0.0
10
2.8993631353615195
20
-3.8469510528144912
10
2.9219293143581964
20
-3.942369025677579
10
2.9650077447653778
20
-4.036938611742338
0
LWPOLYLINE
5
324
100
AcDbEntity
8
0
100
AcDbPolyline
90
5
43
0.0
10
16.749150697586366
20
-2.362214259092319
10
16.67171297988599
20
-2.2994384982032656
10
16.585164941360482
20
-2.254598668996799
10
16.489506582009845
20
-2.227694771472919
10
16.38473790183408
20
-2.2187268056316256
0
LINE
5
325
100
AcDbEntity
8
0
100
AcDbLine
10
17.381991053895113
20
-2.1730529668834819
30
0
11
16.839927042798159
21
-2.1730529668834819
31
0
0
LWPOLYLINE
5
326
100
AcDbEntity
8
0
100
AcDbPolyline
90
5
43
0.0
10
15.822175629881452
20
-2.4237089671535372
10
15.784595539306531
20
-2.3320363343102812
10
15.719684493241141
20
-2.266555882279384
10
15.627442491685281
20
-2.227267611060846
10
15.507869534638951
20
-2.2141715206546664
0
LINE
5
327
100
AcDbEntity
8
0
100
AcDbLine
10
2.9010899214776682
20
-2.5987366143807966
30
0
11
2.8884835703554366
21
-3.4891810085401298
31
0
0
LWPOLYLINE
5
328
100
AcDbEntity
8
0
100
AcDbPolyline
90
2
43
0.0
10
15.507869534638951
20
-2.2141715206546664
10
15.330218337920735
20
-2.248335412923801
0
LWPOLYLINE
5
329
100
AcDbEntity
8
0
100
AcDbPolyline
90
5
43
0.0
10
2.8884835703554366
20
-3.48918100854013
10
2.8877610455517475
20
-3.6106064750054054
10
2.8893334647848654
20
-3.710709971206224
10
2.8932008280547894
20
-3.789491497142586
10
2.8993631353615195
20
-3.8469510528144912
0
LWPOLYLINE
5
330
100
AcDbEntity
8
0
100
AcDbPolyline
90
5
43
0.0
10
15.409933589843343
20
-3.5101144828243136
10
15.410930030492375
20
-3.6315380104226946
10
15.413919352439473
20
-3.7316092171115756
10
15.418901555684636
20
-3.8103281028909564
10
15.425876640227864
20
-3.867694667760837
0
LWPOLYLINE
5
331
100
AcDbEntity
8
0
100
AcDbPolyline
90
3
43
0.0
10
17.983272130564806
20
-3.685366154005827
10
17.75380594559109
20
-3.811202474227251
10
17.584695572928545
20
-3.988284260323347
0
LWPOLYLINE
5
332
100
AcDbEntity
8
0
100
AcDbPolyline
90
5
43
0.0
10
17.73046066887772
20
-5.115686297705473
10
17.884197322615442
20
-5.220312696239056
10
18.062987363860962
20
-5.2950458380487575
10
18.26683079261428
20
-5.339885723134579
10
18.49572760887539
20
-5.354832351496519
0
LWPOLYLINE
5
333
100
AcDbEntity
8
0
100
AcDbPolyline
90
3
43
0.0
10
15.49420412674291
20
-4.056733927909839
10
15.552282408324311
20
-4.1427125476641535
10
15.617193393853734
20
-4.209331802312839
0
LWPOLYLINE
5
334
100
AcDbEntity
8
0
100
AcDbPolyline
90
3
43
0.0
10
15.425876640227864
20
-3.867694667760837
10
15.449791290310452
20
-3.962783633951652
10
15.49420412674291
20
-4.056733927909839
0
LINE
5
335
100
AcDbEntity
8
0
100
AcDbLine
10
17.778289969042895
20
-2.7788891795185222
30
0
11
17.637080009059069
21
-2.5465762022045269
31
0
0
LWPOLYLINE
5
336
100
AcDbEntity
8
0
100
AcDbPolyline
90
5
43
0.0
10
16.856196951565572
20
-3.6490469493312716
10
16.694488769143128
20
-3.8024989396674513
10
16.530503002439865
20
-3.912107504193294
10
16.364239651455783
20
-3.9778726429087996
10
16.195698716190883
20
-3.999794355813968
0
LWPOLYLINE
5
337
100
AcDbEntity
8
0
100
AcDbPolyline
90
3
43
0.0
10
17.91722228653824
20
-4.473408848336042
10
17.93544294215834
20
-4.328782499125303
10
17.990104909018633
20
-4.200099200299086
0
LWPOLYLINE
5
338
100
AcDbEntity
8
0
100
AcDbPolyline
90
5
43
0.0
10
16.195698716190883
20
-3.999794355813968
10
16.030289461349376
20
-3.9761644669217944
10
15.912139993605445
20
-3.905274800245273
10
15.841250312959085
20
-3.7871253557844042
10
15.817620419410298
20
-3.621716133539188
0
LWPOLYLINE
5
339
100
AcDbEntity
8
0
100
AcDbPolyline
90
3
43
0.0
10
18.22241803534424
20
-4.917536914637388
10
18.093165363148806
20
-4.849209577133955
10
17.99693753846085
20
-4.7444408538845195
0
LINE
5
340
100
AcDbEntity
8
0
100
AcDbLine
10
4.326219272254523
20
-4.1017658609571139
30
0
11
4.332635294451749
21
-3.6485727884393615
31
0
0
LINE
5
341
100
AcDbEntity
8
0
100
AcDbLine
10
17.637080009059069
20
-2.5465762022045269
30
0
11
17.548254336194155
21
-2.4213092926052227
31
0
0
LWPOLYLINE
5
342
100
AcDbEntity
8
0
100
AcDbPolyline
90
3
43
0.0
10
16.4006809522186
20
-2.5854172624988436
10
16.46217559508724
20
-2.679367370192516
10
16.482673809376784
20
-2.797232202474582
0
LINE
5
343
100
AcDbEntity
8
0
100
AcDbLine
10
6.636472071504846
20
-2.371324531023018
30
0
11
6.6364720715048451
21
-2.6241361417217135
31
0
0
LWPOLYLINE
5
344
100
AcDbEntity
8
0
100
AcDbPolyline
90
3
43
0.0
10
8.287717576122537
20
-3.0796521224422335
10
8.393625053095326
20
-2.9139581390066027
10
8.428927545419588
20
-2.7266272224826693
0
LWPOLYLINE
5
345
100
AcDbEntity
8
0
100
AcDbPolyline
90
3
43
0.0
10
16.184310876277515
20
-2.5034242190761447
10
16.30445320203645
20
-2.5239224799318194
10
16.4006809522186
20
-2.5854172624988436
0
LWPOLYLINE
5
346
100
AcDbEntity
8
0
100
AcDbPolyline
90
2
43
0.0
10
7.041881258583322
20
-2.2141715206546664
10
6.864230061865106
20
-2.248335412923801
0
LWPOLYLINE
5
347
100
AcDbEntity
8
0
100
AcDbPolyline
90
3
43
0.0
10
7.718322600221887
20
-2.5034242190761447
10
7.838464925980821
20
-2.5239224799318194
10
7.934692676162973
20
-2.5854172624988436
0
LWPOLYLINE
5
348
100
AcDbEntity
8
0
100
AcDbPolyline
90
3
43
0.0
10
6.636472071504846
20
-2.6241361417217135
10
6.774835015630975
20
-2.540434903685558
10
6.871062840318933
20
-2.5125344910068392
0
LWPOLYLINE
5
349
100
AcDbEntity
8
0
100
AcDbPolyline
90
3
43
0.0
10
16.348296590593883
20
-3.3279084481639742
10
16.580609772798844
20
-3.2202927090568423
10
16.753705852178165
20
-3.0796521224422335
0
LWPOLYLINE
5
350
100
AcDbEntity
8
0
100
AcDbPolyline
90
5
43
0.0
10
7.356187353825822
20
-2.4237089671535372
10
7.318607263250902
20
-2.3320363343102812
10
7.253696217185512
20
-2.266555882279384
10
7.161454215629652
20
-2.227267611060846
10
7.041881258583322
20
-2.2141715206546664
0
LINE
5
351
100
AcDbEntity
8
0
100
AcDbLine
10
15.409933589843343
20
-2.6195808567447543
30
0
11
15.409933589843343
21
-3.5101144828243136
31
0
0
LWPOLYLINE
5
352
100
AcDbEntity
8
0
100
AcDbPolyline
90
2
43
0.0
10
17.548254336194155
20
-2.4213092926052227
10
17.52092337139046
20
-2.382590413382353
0
LWPOLYLINE
5
353
100
AcDbEntity
8
0
100
AcDbPolyline
90
3
43
0.0
10
8.016685533321157
20
-2.797232202474582
10
7.995048525727048
20
-2.9139581390066027
10
7.9301375029447225
20
-3.0090471424503207
0
LWPOLYLINE
5
354
100
AcDbEntity
8
0
100
AcDbPolyline
90
3
43
0.0
10
17.00846781857407
20
-2.400810957243742
10
17.125193829611895
20
-2.571060002138914
10
17.2749446881572
20
-2.8084977868106975
0
LWPOLYLINE
5
355
100
AcDbEntity
8
0
100
AcDbPolyline
90
5
43
0.0
10
3.8814710282250124
20
-2.2117220119400116
10
3.734258149104795
20
-2.2224505336114544
10
3.590952585975621
20
-2.25885971046478
10
3.451554338837491
20
-2.3209495424999873
10
3.316063407690405
20
-2.4087200297170774
0
LWPOLYLINE
5
356
100
AcDbEntity
8
0
100
AcDbPolyline
90
5
43
0.0
10
3.3080910735456035
20
-2.650054902883272
10
3.3952049410202036
20
-2.580533737326234
10
3.485733371701526
20
-2.5312764755330828
10
3.579676365589571
20
-2.5022831175038207
10
3.6770339226843385
20
-2.493553663238446
0
LINE
5
357
100
AcDbEntity
8
0
100
AcDbLine
10
7.351632143354669
20
-3.2869117774410128
30
0
11
7.351632143354669
21
-2.665132514421451
31
0
0
LWPOLYLINE
5
358
100
AcDbEntity
8
0
100
AcDbPolyline
90
3
43
0.0
10
18.718930463270304
20
-3.557821452906431
10
18.528183138893006
20
-3.544725418379606
10
18.402346874550936
20
-3.5054373147991313
0
LWPOLYLINE
5
359
100
AcDbEntity
8
0
100
AcDbPolyline
90
5
43
0.0
10
8.283162421530738
20
-2.362214259092319
10
8.205724703830361
20
-2.2994384982032656
10
8.119176665304854
20
-2.254598668996799
10
8.023518305954218
20
-2.227694771472919
10
7.918749625778451
20
-2.2187268056316256
0
LINE
5
360
100
AcDbEntity
8
0
100
AcDbLine
10
16.095485203412604
20
-3.1798654117030933
30
0
11
15.817620419410298
21
-3.2869117774410128
31
0
0
LWPOLYLINE
5
361
100
AcDbEntity
8
0
100
AcDbPolyline
90
3
43
0.0
10
16.753705852178165
20
-3.0796521224422335
10
16.859613329150953
20
-2.9139581390066027
10
16.894915821475216
20
-2.7266272224826693
0
LWPOLYLINE
5
362
100
AcDbEntity
8
0
100
AcDbPolyline
90
3
43
0.0
10
15.102460347560475
20
-2.6241361417217135
10
15.240823291686604
20
-2.540434903685558
10
15.337051116374562
20
-2.5125344910068392
0
LWPOLYLINE
5
363
100
AcDbEntity
8
0
100
AcDbPolyline
90
3
43
0.0
10
7.934692676162973
20
-2.5854172624988436
10
7.996187319031611
20
-2.679367370192516
10
8.016685533321157
20
-2.797232202474582
0
LWPOLYLINE
5
364
100
AcDbEntity
8
0
100
AcDbPolyline
90
3
43
0.0
10
16.39612577900035
20
-3.0090471424503207
10
16.276552817297407
20
-3.095025724951732
10
16.0954852034126
20
-3.1798654117030978
0
LWPOLYLINE
5
365
100
AcDbEntity
8
0
100
AcDbPolyline
90
3
43
0.0
10
6.864230061865106
20
-2.248335412923801
10
6.764016549086824
20
-2.2950257428331255
10
6.636472071504846
20
-2.3713245310230135
0
LWPOLYLINE
5
366
100
AcDbEntity
8
0
100
AcDbPolyline
90
3
43
0.0
10
18.402346874550936
20
-3.5054373147991313
10
18.30156391389763
20
-3.438818171909155
10
18.190531934575198
20
-3.3391740325000896
0
LINE
5
367
100
AcDbEntity
8
0
100
AcDbLine
10
15.817620419410298
20
-3.5101144828243136
30
0
11
16.348296590593886
21
-3.3279084481639742
31
0
0
LWPOLYLINE
5
368
100
AcDbEntity
8
0
100
AcDbPolyline
90
5
43
0.0
10
18.190531934575198
20
-4.02244800358087
10
18.267969623171744
20
-3.9965405373927965
10
18.372738285885212
20
-3.9780352044013156
10
18.504837922715602
20
-3.966932004606427
10
18.664268533662913
20
-3.963230938008131
0
LINE
5
369
100
AcDbEntity
8
0
100
AcDbLine
10
17.930887843445895
20
-3.0271455052402585
30
0
11
17.778289969042895
21
-2.7788891795185222
31
0
0
LINE
5
370
100
AcDbEntity
8
0
100
AcDbLine
10
18.495727608875391
20
-5.354832351496519
30
0
11
19.292880649642107
21
-5.354832351496519
31
0
0
LWPOLYLINE
5
371
100
AcDbEntity
8
0
100
AcDbPolyline
90
5
43
0.0
10
18.70070984490311
20
-4.96764355926782
10
18.54526502914822
20
-4.964511893978418
10
18.41373478897011
20
-4.955116898110212
10
18.306119124368784
20
-4.939458571663202
10
18.22241803534424
20
-4.917536914637388
0
LWPOLYLINE
5
372
100
AcDbEntity
8
0
100
AcDbPolyline
90
3
43
0.0
10
7.882308314538255
20
-3.3279084481639742
10
8.114621496743217
20
-3.2202927090568423
10
8.287717576122537
20
-3.0796521224422335
0
LINE
5
373
100
AcDbEntity
8
0
100
AcDbLine
10
16.856196951565575
20
-4.1022854365749239
30
0
11
16.856196951565575
21
-3.6490469493312716
31
0
0
LWPOLYLINE
5
374
100
AcDbEntity
8
0
100
AcDbPolyline
90
5
43
0.0
10
17.4457632554332
20
-4.468853712370695
10
17.463556843773482
20
-4.662163310041727
10
17.51693760879433
20
-4.834405273487867
10
17.60590555049574
20
-4.985579602709116
10
17.73046066887772
20
-5.115686297705473
0
LWPOLYLINE
5
375
100
AcDbEntity
8
0
100
AcDbPolyline
90
3
43
0.0
10
17.99693753846085
20
-4.7444408538845195
10
17.937151099518893
20
-4.616326965680422
10
17.91722228653824
20
-4.473408848336042
0
LWPOLYLINE
5
376
100
AcDbEntity
8
0
100
AcDbPolyline
90
3
43
0.0
10
3.9712078280036005
20
-2.7915558182398303
10
3.947920621712641
20
-2.9079637663364566
10
3.8816700276944487
20
-3.002124364501526
0
LINE
5
377
100
AcDbEntity
8
0
100
AcDbLine
10
3.2992891962435031
20
-3.2717718633058634
30
0
11
3.3080910735456035
21
-2.6500549028832721
31
0
0
LWPOLYLINE
5
378
100
AcDbEntity
8
0
100
AcDbPolyline
90
3
43
0.0
10
3.8922216286603994
20
-2.5786014152912085
10
3.9523801565348595
20
-2.6734126243393574
10
3.9712078280036005
20
-2.7915558182398303
0
LINE
5
379
100
AcDbEntity
8
0
100
AcDbLine
10
11.576654321321287
20
-2.7650609739363396
30
0
11
11.604412353404799
21
-2.7565199263632501
31
0
0
LINE
5
380
100
AcDbEntity
8
0
100
AcDbLine
10
11.576654321321289
20
-2.4276942141592706
30
0
11
11.576654321321287
21
-1.3921070225775445
31
0
0
LINE
5
381
100
AcDbEntity
8
0
100
AcDbLine
10
11.822206086286345
20
-3.9949542410910333
30
0
11
11.576654321321287
21
-3.9949542410910333
31
0
0
LWPOLYLINE
5
382
100
AcDbEntity
8
0
100
AcDbPolyline
90
2
43
0.0
10
12.30476834512595
20
-3.9095449574530328
10
12.159572622545994
20
-3.9714667327940667
0
LWPOLYLINE
5
383
100
AcDbEntity
8
0
100
AcDbPolyline
90
3
43
0.0
10
11.634305572875775
20
-2.7479791768133843
10
11.7538786370242
20
-2.7090111501753533
10
11.822206086286343
20
-2.6903277762472833
0
LINE
5
384
100
AcDbEntity
8
0
100
AcDbLine
10
11.576654321321287
20
-1.3921070225775445
30
0
11
11.188042319186964
21
-1.3921070225775445
31
0
0
LWPOLYLINE
5
385
100
AcDbEntity
8
0
100
AcDbPolyline
90
5
43
0.0
10
12.578077955910004
20
-3.3650609977781976
10
12.568069057811982
20
-3.4931748859822953
10
12.538042363517917
20
-3.610612613731643
10
12.487997873027808
20
-3.7173741810262406
10
12.417935586341656
20
-3.813459587866088
0
LINE
5
386
100
AcDbEntity
8
0
100
AcDbLine
10
11.188042319186964
20
-1.3921070225775445
30
0
11
11.188042319186964
21
-4.3579435475409234
31
0
0
LINE
5
387
100
AcDbEntity
8
0
100
AcDbLine
10
11.576654321321287
20
-3.9949542410910333
30
0
11
11.576654321321287
21
-2.7650609739363396
31
0
0
LWPOLYLINE
5
388
100
AcDbEntity
8
0
100
AcDbPolyline
90
5
43
0.0
10
6.943945313787713
20
-3.5101144828243136
10
6.944941754436746
20
-3.6315380104226946
10
6.947931076383844
20
-3.7316092171115756
10
6.952913279629007
20
-3.8103281028909564
10
6.959888364172235
20
-3.867694667760837
0
LINE
5
389
100
AcDbEntity
8
0
100
AcDbLine
10
2.4582008807309879
20
-5.6459795264278512
30
0
11
1.1000002857617623
21
-1.4999989563016847
31
0
0
LINE
5
390
100
AcDbEntity
8
0
100
AcDbLine
10
2.5971617927601209
20
-2.346152587658894
30
0
11
2.5935830037746053
21
-2.5989388665062041
31
0
0
LINE
5
391
100
AcDbEntity
8
0
100
AcDbLine
10
0.92827229189914862
20
-5.6453389491980666
30
0
11
2.4582008807309879
21
-5.6459795264278512
31
0
0
LWPOLYLINE
5
392
100
AcDbEntity
8
0
100
AcDbPolyline
90
5
43
0.0
10
10.752204681625178
20
-3.17217846441185
10
10.746937777725568
20
-2.9891179971686554
10
10.731137066026738
20
-2.8339578680983735
10
10.704802546528688
20
-2.706698077201004
10
10.667934219231418
20
-2.6073386244765473
0
LINE
5
393
100
AcDbEntity
8
0
100
AcDbLine
10
1.1000002857617623
20
-1.4999989563016847
30
0
11
-0.65987168582627498
21
-3.8799465799295829
31
0
0
LWPOLYLINE
5
394
100
AcDbEntity
8
0
100
AcDbPolyline
90
3
43
0.0
10
10.415122794797233
20
-2.3385842614165497
10
10.239179736813119
20
-2.2651321910611344
10
10.04843241243582
20
-2.2406481676093293
0
LWPOLYLINE
5
395
100
AcDbEntity
8
0
100
AcDbPolyline
90
5
43
0.0
10
10.244304302027038
20
-2.7143849902144623
10
10.285158405890277
20
-2.792819170682783
10
10.314339908649734
20
-2.8960220240346146
10
10.331848810305408
20
-3.0239935502699566
10
10.337685110857299
20
-3.1767337493888093
0
LWPOLYLINE
5
396
100
AcDbEntity
8
0
100
AcDbPolyline
90
3
43
0.0
10
2.9650077447653778
20
-4.036938611742338
10
3.021863097673092
20
-4.123730769752406
10
3.0858245201285093
20
-4.191262225903052
0
LINE
5
397
100
AcDbEntity
8
0
100
AcDbLine
10
10.337685110857301
20
-3.1767337493888093
30
0
11
10.337685110857301
21
-4.3724632732859803
31
0
0
LWPOLYLINE
5
398
100
AcDbEntity
8
0
100
AcDbPolyline
90
5
43
0.0
10
3.0858245201285093
20
-4.191262225903052
10
3.1956028662537994
20
-4.270546585781042
10
3.322491029710757
20
-4.327864550775496
10
3.466489010499383
20
-4.363216120886413
10
3.627596808619676
20
-4.376601296113796
0
LWPOLYLINE
5
399
100
AcDbEntity
8
0
100
AcDbPolyline
90
5
43
0.0
10
3.316063407690405
20
-2.4087200297170774
10
3.2797847960351167
20
-2.316524600565744
10
3.2158071922147857
20
-2.2501318320673414
10
3.124130596229411
20
-2.209541724221869
10
3.0047550080789933
20
-2.194754277029327
0
LINE
5
400
100
AcDbEntity
8
0
100
AcDbLine
10
9.4084323820374536
20
-2.5435664229384614
30
0
11
9.4084323820374536
21
-2.2770895533553315
31
0
0
LWPOLYLINE
5
401
100
AcDbEntity
8
0
100
AcDbPolyline
90
2
43
0.0
10
11.822206086286343
20
-2.6903277762472833
10
11.931102803715504
20
-2.6817870266974175
0
ENDSEC
0
SECTION
2
OBJECTS
0
DICTIONARY
5
C
100
AcDbDictionary
3
ACAD_GROUP
350
D
3
ACAD_MLINESTYLE
350
17
0
DICTIONARY
5
D
100
AcDbDictionary
0
DICTIONARY
5
1A
330
C
100
AcDbDictionary
0
DICTIONARY
5
17
100
AcDbDictionary
0
ENDSEC
0
EOF
