0
SECTION
2
HEADER
9
$INSUNITS
70
4
9
$ACADVER
1
AC1014
9
$HANDSEED
5
FFFF
0
ENDSEC
0
SECTION
2
TABLES
0
TABLE
2
VPORT
5
8
100
AcDbSymbolTable
0
ENDTAB
0
TABLE
2
LTYPE
5
5
100
AcDbSymbolTable
0
LTYPE
5
14
100
AcDbSymbolTableRecord
100
AcDbLinetypeTableRecord
2
BYBLOCK
70
0
0
LTYPE
5
15
100
AcDbSymbolTableRecord
100
AcDbLinetypeTableRecord
2
BYLAYER
70
0
0
LTYPE
5
16
100
AcDbSymbolTableRecord
100
AcDbLinetypeTableRecord
2
DASHED
70
0
3
Dashed __ __ __ __ __ __ __ __ __ __ __ __ __ _
72
65
73
2
40
0.75
49
0.5
74
0
49
-0.25
74
0
0
ENDTAB
0
TABLE
2
LAYER
5
2
100
AcDbSymbolTable
70
2
0
LAYER
5
50
100
AcDbSymbolTableRecord
100
AcDbLayerTableRecord
2
0
70
0
62
7
6
CONTINUOUS
0
ENDTAB
0
TABLE
2
STYLE
5
3
100
AcDbSymbolTable
70
1
0
STYLE
5
11
100
AcDbSymbolTableRecord
100
AcDbTextStyleTableRecord
2
STANDARD
70
0
0
ENDTAB
0
TABLE
2
VIEW
5
6
100
AcDbSymbolTable
70
0
0
ENDTAB
0
TABLE
2
UCS
5
7
100
AcDbSymbolTable
70
0
0
ENDTAB
0
TABLE
2
APPID
5
9
100
AcDbSymbolTable
70
2
0
APPID
5
12
100
AcDbSymbolTableRecord
100
AcDbRegAppTableRecord
2
ACAD
70
0
0
ENDTAB
0
TABLE
2
DIMSTYLE
5
A
100
AcDbSymbolTable
70
1
0
ENDTAB
0
TABLE
2
BLOCK_RECORD
5
1
100
AcDbSymbolTable
70
1
0
BLOCK_RECORD
5
1F
100
AcDbSymbolTableRecord
100
AcDbBlockTableRecord
2
*MODEL_SPACE
0
BLOCK_RECORD
5
1B
100
AcDbSymbolTableRecord
100
AcDbBlockTableRecord
2
*PAPER_SPACE
0
ENDTAB
0
ENDSEC
0
SECTION
2
BLOCKS
0
BLOCK
5
20
100
AcDbEntity
100
AcDbBlockBegin
2
*MODEL_SPACE
0
ENDBLK
5
21
100
AcDbEntity
100
AcDbBlockEnd
0
BLOCK
5
1C
100
AcDbEntity
100
AcDbBlockBegin
2
*PAPER_SPACE
0
ENDBLK
5
1D
100
AcDbEntity
100
AcDbBlockEnd
0
ENDSEC
0
SECTION
2
ENTITIES
0
LWPOLYLINE
5
100
100
AcDbEntity
8
0
100
AcDbPolyline
90
2
43
0.0
10
0.2676776839214005
20
-4.0038429061970975
10
0.26494564227835754
20
-4.0338439424309085
0
LWPOLYLINE
5
101
100
AcDbEntity
8
0
100
AcDbPolyline
90
2
43
0.0
10
0.2649456422783573
20
-4.0338439424309085
10
0.26767768392139907
20
-4.003842906197099
0
LWPOLYLINE
5
102
100
AcDbEntity
8
0
100
AcDbPolyline
90
9
43
0.0
10
-14.649302063792888
20
-21.64133692380466
10
-14.775053181221837
20
-21.48914714589079
10
-14.946652971281265
20
-21.33579645449645
10
-15.16138442504798
20
-21.18388878243633
10
-15.406673878420213
20
-21.04025751769925
10
-15.660096382891977
20
-20.915420680793176
10
-15.89880103502398
20
-20.81943771203524
10
-16.109035897920364
20
-20.757465206282994
10
-16.286936250277417
20
-20.729904507071037
0
LINE
5
103
100
AcDbEntity
8
0
100
AcDbLine
10
-16.286936250277421
20
-20.729904507071044
30
-9.2518585385429703e-17
11
-16.286936250277421
21
-20.477213017097963
31
-9.2518585385429703e-17
0
LWPOLYLINE
5
104
100
AcDbEntity
8
0
100
AcDbPolyline
90
8
43
0.0
10
-16.286936250277417
20
-20.477213017097966
10
-16.03369481798446
20
-20.55724850544988
10
-15.796559273479774
20
-20.654439550107412
10
-15.376011204526968
20
-20.86878730661312
10
-15.194129321129827
20
-20.969976978736405
10
-15.031633631407555
20
-21.059555963161387
10
-14.888600993410494
20
-21.134879313297493
10
-14.765011878383797
20
-21.194970190100374
0
LWPOLYLINE
5
105
100
AcDbEntity
8
0
100
AcDbPolyline
90
3
43
0.0
10
-14.765011878383795
20
-21.194970190100378
10
-14.725031789381823
20
-21.398984603551547
10
-14.649302063792888
20
-21.64133692380466
0
LWPOLYLINE
5
106
100
AcDbEntity
8
0
100
AcDbPolyline
90
3
43
0.0
10
-14.140247078653385
20
-33.60108241306248
10
-14.135974073143453
20
-33.50488797274774
10
-14.099999684840443
20
-33.43487787128525
0
LWPOLYLINE
5
107
100
AcDbEntity
8
0
100
AcDbPolyline
90
2
43
0.0
10
-14.09999968483784
20
-33.434877871286
10
-14.140247078653385
20
-33.60108241306248
0
LWPOLYLINE
5
108
100
AcDbEntity
8
0
100
AcDbPolyline
90
2
43
0.0
10
1.8523606588342671
20
-34.25242095160298
10
1.8817786933109217
20
-34.25709950619771
0
LWPOLYLINE
5
109
100
AcDbEntity
8
0
100
AcDbPolyline
90
11
43
0.0
10
1.8817786933109217
20
-34.25709950619771
10
1.5898792450466444
20
-33.75278421129358
10
1.3003750967959322
20
-33.309606766913355
10
1.0135095375964704
20
-32.93377690408642
10
0.7296090561754746
20
-32.63362795011412
10
0.5888614220519098
20
-32.514248910580264
10
0.4489369393319451
20
-32.41588006065969
10
0.3098269222760078
20
-32.33829970476208
10
0.1715070157081433
20
-32.28088619920951
10
-0.10288600094277979
20
-32.223406621335485
10
-0.3744611209785737
20
-32.2378512871838
0
LWPOLYLINE
5
110
100
AcDbEntity
8
0
100
AcDbPolyline
90
9
43
0.0
10
-0.3744611209786101
20
-32.23785128718291
10
-0.4115070134199507
20
-31.6110739337069
10
-0.4733750412961944
20
-30.967681263085858
10
-0.5618915731268774
20
-30.306450749867917
10
-0.6779012583066909
20
-29.626817006850306
10
-0.8204968605943234
20
-28.929387315295763
10
-0.9876541684286189
20
-28.215516631833435
10
-1.177270324961505
20
-27.486612556282946
10
-1.3878409693511702
20
-26.74368207019496
0
LWPOLYLINE
5
111
100
AcDbEntity
8
0
100
AcDbPolyline
90
31
43
0.0
10
-1.3878409693511706
20
-26.74368207019496
10
-1.6223100843383016
20
-26.60209685476013
10
-1.8914137033073832
20
-26.468000852494562
10
-2.1951400084074533
20
-26.341438331865763
10
-2.5332234790979467
20
-26.222473834803164
10
-2.904932046068568
20
-26.111183813745466
10
-3.308836218199199
20
-26.007646048396968
10
-3.7425808339454902
20
-25.911929318176554
10
-4.202667246075248
20
-25.8240842921715
10
-5.1805081289042105
20
-25.672027507815784
10
-6.18371369320694
20
-25.551236556872052
10
-6.671179668304721
20
-25.502655922381308
10
-7.135879976627755
20
-25.462331930496504
10
-7.5683613526676385
20
-25.430906315483018
10
-7.960340920329911
20
-25.40941513442223
10
-8.305279184452115
20
-25.399369767056957
10
-8.59897409721052
20
-25.402841860698036
10
-8.840288904722641
20
-25.422576968926233
10
-9.031556600948845
20
-25.462028051185545
10
-9.178348391872463
20
-25.525235338160435
10
-9.288535012145562
20
-25.6165377373193
10
-9.371060156048554
20
-25.740208883304668
10
-9.434830558834681
20
-25.900110769720566
10
-9.487716002201138
20
-26.09938577090294
10
-9.535894446590776
20
-26.34028274112783
10
-9.58393289645471
20
-26.62426021983462
10
-9.635078315031109
20
-26.95216539169673
10
-9.691471854831484
20
-27.324378949566505
10
-9.754381435584383
20
-27.74096127980475
10
-9.824442568568594
20
-28.201796749671097
10
-9.901880174205942
20
-28.706726142754423
0
LWPOLYLINE
5
112
100
AcDbEntity
8
0
100
AcDbPolyline
90
21
43
0.0
10
-9.901880174205942
20
-28.70672614275442
10
-9.933589377860464
20
-28.69725299589783
10
-9.978485602375153
20
-28.667251459699788
10
-10.036606508622738
20
-28.616657198705955
10
-10.107984091289278
20
-28.545405244734265
10
-10.192618721427623
20
-28.453465759057906
10
-10.290454197755595
20
-28.340878510546084
10
-10.401350643494677
20
-28.207790423193025
10
-10.52505129447009
20
-28.054501768153596
10
-10.661147975490822
20
-27.881514259221948
10
-10.809055599791012
20
-27.689566740667203
10
-11.136997129808584
20
-27.253048578493242
10
-11.500446128709715
20
-26.75591101241907
10
-11.888714931567474
20
-26.21215327206649
10
-12.690687704705997
20
-25.04918613932696
10
-13.079034786875582
20
-24.463343938460547
10
-13.443026397346491
20
-23.895605024034502
10
-13.77259823253687
20
-23.359318594755546
10
-14.060189396517373
20
-22.864644461803294
10
-14.301056281073079
20
-22.418147465599436
10
-14.492785258782261
20
-22.023384877006656
0
LINE
5
113
100
AcDbEntity
8
0
100
AcDbLine
10
-14.492785258782261
20
-22.023384877006656
30
-9.2518585385429703e-17
11
-12.959003168149756
21
-21.881991189937317
31
-9.2518585385429703e-17
0
ARC
5
114
100
AcDbEntity
8
0
100
AcDbCircle
10
-12.981952432990148
20
-21.633046755889708
30
-9.2518585385429703e-17
40
0.24999999999999967
210
-0
220
0
230
1
100
AcDbArc
50
-84.733000951670064
51
2.4682922401026057
0
LINE
5
115
100
AcDbEntity
8
0
100
AcDbLine
10
-12.732184381045993
20
-21.622280130233634
30
-9.2518585385429703e-17
11
-12.933550320552175
21
-16.950920686245194
31
-9.2518585385429703e-17
0
LWPOLYLINE
5
116
100
AcDbEntity
8
0
100
AcDbPolyline
90
9
43
0.0
10
-12.933550320551536
20
-16.950920686244693
10
-12.79059274965646
20
-16.840432510608785
10
-12.667255318906342
20
-16.74180493801572
10
-12.563336516969123
20
-16.654916152520038
10
-12.478474798151083
20
-16.579547595542312
10
-12.412240653695369
20
-16.515439624040535
10
-12.364215482117284
20
-16.462339188545705
10
-12.334045986034239
20
-16.420032716678524
10
-12.321491165139765
20
-16.38837452094909
0
LWPOLYLINE
5
117
100
AcDbEntity
8
0
100
AcDbPolyline
90
8
43
0.0
10
-12.321491165139745
20
-16.3883745209491
10
-12.262403171781363
20
-15.56324865513208
10
-12.24900794644956
20
-15.178020287565031
10
-12.247912241198703
20
-14.813610967359017
10
-12.25990194668069
20
-14.471350949245133
10
-12.284675652866339
20
-14.15073004505394
10
-12.321227049752551
20
-13.8500449025026
10
-12.368631504241796
20
-13.567730421479196
0
LWPOLYLINE
5
118
100
AcDbEntity
8
0
100
AcDbPolyline
90
21
43
0.0
10
-12.368631504241797
20
-13.567730421479197
10
-12.496290838851865
20
-12.734154496692156
10
-12.635927728317814
20
-11.95911794401337
10
-12.784134488639163
20
-11.2464889855042
10
-12.93614790275968
20
-10.601779460690475
10
-13.086589709100714
20
-10.031248038524717
10
-13.159549255470699
20
-9.775714347207446
10
-13.230186209870277
20
-9.5408919296767
10
-13.297977577398372
20
-9.32729799192622
10
-13.362498077542103
20
-9.135281052855827
10
-13.423444910421187
20
-8.964974214341158
10
-13.480666485945216
20
-8.816238293201652
10
-13.534188707812772
20
-8.688608853112395
10
-13.584232929314682
20
-8.581258981618852
10
-13.675718413431825
20
-8.422334764202912
10
-13.760052031298692
20
-8.327074042614008
10
-13.843123016596037
20
-8.281563865290929
10
-13.930287824036284
20
-8.273229696769048
10
-14.02515701178744
20
-8.293134191698387
10
-14.129470096736885
20
-8.336314043532461
10
-14.24378538856201
20
-8.400639718019056
0
LWPOLYLINE
5
119
100
AcDbEntity
8
0
100
AcDbPolyline
90
5
43
0.0
10
-14.243785388562014
20
-8.400639718019056
10
-14.785230890672484
20
-8.632539765407738
10
-15.296584188174869
20
-8.858723744603205
10
-15.774621824017055
20
-9.078579354162764
10
-16.21542324173174
20
-9.291361877360883
0
LWPOLYLINE
5
120
100
AcDbEntity
8
0
100
AcDbPolyline
90
18
43
0.0
10
-16.215423241731738
20
-9.291361877360881
10
-16.194276139571624
20
-8.91794924680505
10
-16.14010396065229
20
-8.513643436200317
10
-16.052536886663823
20
-8.080447777032626
10
-15.93117149941332
20
-7.624128115656097
10
-15.775776231395257
20
-7.156336629280876
10
-15.586440652166406
20
-6.69588850165374
10
-15.363410107777158
20
-6.266249236834677
10
-15.106731499962379
20
-5.890649077737586
10
-14.965650262996393
20
-5.729065589036262
10
-14.815908942938592
20
-5.587010439535702
10
-14.657311969588227
20
-5.465065359962545
10
-14.48963157966042
20
-5.362995869072986
10
-14.126338346881742
20
-5.214276424963196
10
-13.726144446365941
20
-5.1281120097437345
10
-13.293133917639697
20
-5.088132916139592
10
-12.83763097664774
20
-5.078981684455873
10
-11.930896478589256
20
-5.111274547943788
0
LINE
5
121
100
AcDbEntity
8
0
100
AcDbLine
10
-11.930896478589258
20
-5.111274547943788
30
-9.2518585385429703e-17
11
-11.599999740719795
21
-5.4999998770654202
31
-9.2518585385429703e-17
0
LWPOLYLINE
5
122
100
AcDbEntity
8
0
100
AcDbPolyline
90
17
43
0.0
10
-11.599999740719795
20
-5.49999987706542
10
-11.871781457333292
20
-5.8882328934612636
10
-12.124289307041689
20
-6.253260933386088
10
-12.356566310338954
20
-6.595188980162172
10
-12.566653049648288
20
-6.914954706318605
10
-12.751297787854416
20
-7.215044417991696
10
-12.905683864207926
20
-7.500280884275657
10
-13.023362787878716
20
-7.778433951803043
10
-13.09702254857877
20
-8.059780961190318
10
-13.119887910451133
20
-8.355930867541659
10
-13.087234207199044
20
-8.678617162108717
10
-12.997991931882781
20
-9.038482652486369
10
-12.855235137965908
20
-9.44438046080336
10
-12.664917406744477
20
-9.90345001369326
10
-12.434217657579994
20
-10.421321255429401
10
-12.170019916608975
20
-11.002179761772839
10
-11.87745208879447
20
-11.648698071722036
0
LINE
5
123
100
AcDbEntity
8
0
100
AcDbLine
10
-11.87745208879447
20
-11.648698071722038
30
-9.2518585385429703e-17
11
-11.179266468601172
21
-13.20099375065703
31
-9.2518585385429703e-17
0
ARC
5
124
100
AcDbEntity
8
0
100
AcDbCircle
10
-10.951266999448698
20
-13.098445020454301
30
-9.2518585385429703e-17
40
0.25000000000000372
210
0
220
0
230
1
100
AcDbArc
50
204.21708000885238
51
314.90687882225109
0
LINE
5
125
100
AcDbEntity
8
0
100
AcDbLine
10
-10.774777847567648
20
-13.275508792209877
30
-9.2518585385429703e-17
11
-8.3661790210134299
21
-10.874726520910052
31
-9.2518585385429703e-17
0
LWPOLYLINE
5
126
100
AcDbEntity
8
0
100
AcDbPolyline
90
3
43
0.0
10
-8.366179021011346
20
-10.874726520911716
10
-8.050776519883895
20
-11.106039760463254
10
-7.735414591875489
20
-11.289472697901791
0
LWPOLYLINE
5
127
100
AcDbEntity
8
0
100
AcDbPolyline
90
9
43
0.0
10
-7.735414591875496
20
-11.289472697901799
10
-7.420375961579994
20
-11.874367449773795
10
-7.11803686681534
20
-12.502769672290281
10
-6.816277175191404
20
-13.170887099163563
10
-6.49837274326937
20
-13.87242377400549
10
-6.1459546896099875
20
-14.598576294075686
10
-5.741944283892971
20
-15.338015762990343
10
-5.273528139688639
20
-16.076843056537555
10
-4.735071936595084
20
-16.79855586812967
0
LWPOLYLINE
5
128
100
AcDbEntity
8
0
100
AcDbPolyline
90
9
43
0.0
10
-4.735071936595081
20
-16.79855586812967
10
-5.060737081230414
20
-16.76224606044094
10
-5.355422053112869
20
-16.74442712934991
10
-5.616054678340699
20
-16.74693273759957
10
-5.838612244436364
20
-16.77216388794263
10
-6.020081261050472
20
-16.821919217160563
10
-6.1607384512554
20
-16.8960335598676
10
-6.263427130488933
20
-16.99280985015892
10
-6.330984337438088
20
-17.11055476848167
0
LWPOLYLINE
5
129
100
AcDbEntity
8
0
100
AcDbPolyline
90
7
43
0.0
10
-6.330984337438088
20
-17.110554768481673
10
-5.699562354837906
20
-17.262551098045336
10
-5.407038567688992
20
-17.320255646455703
10
-5.13218261327818
20
-17.364021103625074
10
-4.876136156693226
20
-17.392946749352053
10
-4.6384798865297965
20
-17.4073634006623
10
-4.212689600716055
20
-17.39712596751061
0
LWPOLYLINE
5
130
100
AcDbEntity
8
0
100
AcDbPolyline
90
16
43
0.0
10
-4.212689600714537
20
-17.397125967512228
10
-3.7712113697049343
20
-17.839841792695424
10
-3.3072933604402026
20
-18.251644692987135
10
-2.8264521664102307
20
-18.62661951137228
10
-2.3347184147812774
20
-18.959394523582997
10
-1.8382971105463868
20
-19.245383567292045
10
-1.343231087181619
20
-19.481032863312976
10
-0.8550796677590118
20
-19.664052280457362
10
-0.3785846714884317
20
-19.793664211271935
10
0.08269664861102523
20
-19.8708959523048
10
0.5265758546055893
20
-19.898656277115396
10
0.9521256480203862
20
-19.88146515121005
10
1.3594367096152762
20
-19.82502289512492
10
1.7493193734954087
20
-19.73571437182083
10
2.123031456501824
20
-19.620144870774563
10
2.8276273620471457
20
-19.33501274140342
0
LWPOLYLINE
5
131
100
AcDbEntity
8
0
100
AcDbPolyline
90
25
43
0.0
10
2.8276273620471457
20
-19.335012741403425
10
2.9119686293075833
20
-19.93115771161739
10
2.980909108612809
20
-20.476675263737636
10
3.034422179276986
20
-20.971411322288837
10
3.072543178637761
20
-21.415308507656036
10
3.0954406878792966
20
-21.80858559680769
10
3.1034878643629638
20
-22.151918762778994
10
3.097338593621346
20
-22.446635716095447
10
3.078010899493871
20
-22.694928570782793
10
3.0469623341628065
20
-22.900050022522763
10
3.00617266234832
20
-23.066528514688205
10
2.9582575829823012
20
-23.20045779228414
10
2.906509815027068
20
-23.309619903428587
10
2.807138566414825
20
-23.49122440213744
10
2.738928443648699
20
-23.687618365493705
10
2.7238396663609277
20
-23.810879186144202
10
2.723130879705849
20
-23.956711709045674
10
2.7366028520300643
20
-24.126393123741483
10
2.763170727744771
20
-24.31928132063244
10
2.801135961632282
20
-24.533349824278144
10
2.848444616593594
20
-24.765696480403978
10
2.962696008712448
20
-25.27237103639549
10
3.0917530412543424
20
-25.817006735601932
10
3.226737476001514
20
-26.385283017589202
10
3.4990472171566105
20
-27.56701763773726
0
LWPOLYLINE
5
132
100
AcDbEntity
8
0
100
AcDbPolyline
90
5
43
0.0
10
3.49904721715661
20
-27.567017637737266
10
3.704664401291642
20
-27.49448306750827
10
3.8596499254127363
20
-27.421754351206687
10
3.956724210124292
20
-27.348803575364066
10
4.000749692615672
20
-27.275649384845128
0
LWPOLYLINE
5
133
100
AcDbEntity
8
0
100
AcDbPolyline
90
9
43
0.0
10
4.000749692615671
20
-27.275649384845124
10
4.038190454071914
20
-26.37533165094743
10
4.065761269194783
20
-25.43025783462391
10
4.082640796394301
20
-24.436703494969823
10
4.087965677858646
20
-23.390753665072854
10
4.08155094437766
20
-22.291569586862217
10
4.0641734495744215
20
-21.142673966913982
10
4.036949177416581
20
-19.949127326209336
10
4.0007496926156705
20
-18.714881846533462
0
LWPOLYLINE
5
134
100
AcDbEntity
8
0
100
AcDbPolyline
90
9
43
0.0
10
4.000749692615671
20
-18.714881846533466
10
4.3700405243403955
20
-18.48002085951589
10
4.714488591441203
20
-18.2335272960418
10
5.031633806572489
20
-17.972013661321398
10
5.319422622861563
20
-17.692339227966905
10
5.576508169461194
20
-17.39230750139741
10
5.802182976639614
20
-17.07066055673707
10
5.996179991793636
20
-16.726818128746544
10
6.1584719101118575
20
-16.360608886422405
0
LWPOLYLINE
5
135
100
AcDbEntity
8
0
100
AcDbPolyline
90
13
43
0.0
10
6.158471910111857
20
-16.360608886422405
10
6.763422302375528
20
-16.436085422118367
10
7.417037467738295
20
-16.5401679380046
10
8.080699916474726
20
-16.684012231815128
10
8.710583970365954
20
-16.87960513133648
10
9.000230659992582
20
-17.000106436897006
10
9.267809197592717
20
-17.136982873468636
10
9.51082365796229
20
-17.29069673877802
10
9.72780350170699
20
-17.461388975509358
10
9.918047222659848
20
-17.648983585267423
10
10.081369161651835
20
-17.853287581303707
10
10.217878384690238
20
-18.074075617023393
10
10.327772657448854
20
-18.311165942480987
0
LINE
5
136
100
AcDbEntity
8
0
100
AcDbLine
10
10.327772657448854
20
-18.311165942480987
30
-9.2518585385429703e-17
11
16.020537662535798
21
-19.678545772134228
31
-9.2518585385429703e-17
0
LWPOLYLINE
5
137
100
AcDbEntity
8
0
100
AcDbPolyline
90
8
43
0.0
10
16.020537662535798
20
-19.67854577213423
10
16.29528339250302
20
-19.71320000320719
10
16.41273308364364
20
-19.70644404928132
10
16.51510424180594
20
-19.681461212433742
10
16.60159325254124
20
-19.63728008606494
10
16.672733439038304
20
-19.574545349558363
10
16.729820499504672
20
-19.494823238806053
10
16.77399185438554
20
-19.399488664041726
0
LWPOLYLINE
5
138
100
AcDbEntity
8
0
100
AcDbPolyline
90
9
43
0.0
10
16.77399185438554
20
-19.39948866404173
10
15.705480452572893
20
-18.78577897026985
10
14.587014194010028
20
-18.19310877044259
10
13.414862736438817
20
-17.623049173330713
10
12.18457403838713
20
-17.077475245864314
10
10.893679173524585
20
-16.55742682609395
10
9.54409131891898
20
-16.062098140972836
10
8.140690953467237
20
-15.589433678530163
10
6.688455227755209
20
-15.137337211566116
0
LWPOLYLINE
5
139
100
AcDbEntity
8
0
100
AcDbPolyline
90
5
43
0.0
10
6.688455227753952
20
-15.13733721156574
10
6.718683025535088
20
-14.94860751292285
10
6.729562288906893
20
-14.766013255911355
10
6.718744772281949
20
-14.590299071777945
10
6.688455227753952
20
-14.420759489163535
0
LWPOLYLINE
5
140
100
AcDbEntity
8
0
100
AcDbPolyline
90
9
43
0.0
10
6.688455227753952
20
-14.420759489163535
10
6.7227755536718155
20
-14.346698314191922
10
6.784857746699571
20
-14.271699438012268
10
6.876967686282292
20
-14.195686326939626
10
7.001415981830196
20
-14.118580936463294
10
7.158525769193052
20
-14.04037235215367
10
7.3459819915358215
20
-13.961138768735639
10
7.560618747573464
20
-13.880987119559009
10
7.799999825656412
20
-13.799999691545963
0
LWPOLYLINE
5
141
100
AcDbEntity
8
0
100
AcDbPolyline
90
9
43
0.0
10
7.799999825656414
20
-13.799999691545963
10
7.784372346978768
20
-13.55099390200474
10
7.719252985000147
20
-13.281588671701218
10
7.600744203851328
20
-12.990177524041137
10
7.425104551241609
20
-12.675218316569332
10
7.1923659772450295
20
-12.33672421838649
10
6.907030151503043
20
-11.976550716433405
10
6.574810807492667
20
-11.59705288309339
10
6.199999861419199
20
-11.199999749660488
0
LINE
5
142
100
AcDbEntity
8
0
100
AcDbLine
10
6.1999998614191991
20
-11.199999749660488
30
-9.2518585385429703e-17
11
6.1999998614192009
21
-10.899999756366014
31
-9.2518585385429703e-17
0
LINE
5
143
100
AcDbEntity
8
0
100
AcDbLine
10
6.1999998614192009
20
-10.899999756366014
30
-9.2518585385429703e-17
11
4.8191399054955628
21
-8.648427661609567
31
-9.2518585385429703e-17
0
LWPOLYLINE
5
144
100
AcDbEntity
8
0
100
AcDbPolyline
90
12
43
0.0
10
4.819139905495562
20
-8.648427661609567
10
4.748063319876503
20
-8.395589442216066
10
4.675673221751407
20
-8.169421000266059
10
4.5967797629402085
20
-7.974703961390768
10
4.498102691528261
20
-7.820491939331792
10
4.3593602742473845
20
-7.718604411299023
10
4.268870005257216
20
-7.6905379432514716
10
4.162242343113396
20
-7.678633199926164
10
4.038918727251305
20
-7.682936626440471
10
3.8988549682922207
20
-7.703200532567772
10
3.7422694795355604
20
-7.7390706211311056
10
3.5694222877968262
20
-7.790245380571672
0
LINE
5
145
100
AcDbEntity
8
0
100
AcDbLine
10
3.5694222877968262
20
-7.7902453805716743
30
-9.2518585385429703e-17
11
3.222274026155667
21
-8.181153920693653
31
-9.2518585385429703e-17
0
LWPOLYLINE
5
146
100
AcDbEntity
8
0
100
AcDbPolyline
90
9
43
0.0
10
3.222274026155667
20
-8.181153920693653
10
3.172932755865696
20
-8.203195542395605
10
3.1371049324982194
20
-8.271449996827545
10
3.1157993856790127
20
-8.38936724572185
10
3.1098898629673144
20
-8.559935301689077
10
3.1191451672005357
20
-8.782363524425225
10
3.142212308449194
20
-9.05202500433186
10
3.177512257077675
20
-9.363519828801834
10
3.2238940133505753
20
-9.71291184753016
0
LINE
5
147
100
AcDbEntity
8
0
100
AcDbLine
10
3.2238940133505753
20
-9.7129118475301599
30
-9.2518585385429703e-17
11
3.074593569161105
21
-9.6028678860605012
31
-9.2518585385429703e-17
0
LWPOLYLINE
5
148
100
AcDbEntity
8
0
100
AcDbPolyline
90
5
43
0.0
10
3.0745935691611046
20
-9.602867886060501
10
2.930986371165717
20
-9.276244213104437
10
2.803201232083444
20
-8.981891657454092
10
2.6934092269204943
20
-8.724238404876843
10
2.5999999418854713
20
-8.499999810010195
0
LWPOLYLINE
5
149
100
AcDbEntity
8
0
100
AcDbPolyline
90
16
43
0.0
10
2.5999999418854713
20
-8.499999810010195
10
2.4887364769854403
20
-8.503179440832382
10
2.3685263028998884
20
-8.526802841346255
10
2.2397581442443775
20
-8.571300986156665
10
2.103710673105337
20
-8.637219712271062
10
1.9631141120546225
20
-8.725034329904933
10
1.8227340606509916
20
-8.83492615204965
10
1.6892880820638423
20
-8.966652631487776
10
1.5704426445169073
20
-9.119560006116433
10
1.473505417282141
20
-9.292602027575793
10
1.4041491782043118
20
-9.484310628919475
10
1.3649958050541657
20
-9.692715751650676
10
1.354811722509569
20
-9.915335751062994
10
1.3692580051756043
20
-10.149405167676102
10
1.4024507668111297
20
-10.392221571263697
10
1.5025872354175112
20
-10.895533706960117
0
LINE
5
150
100
AcDbEntity
8
0
100
AcDbLine
10
1.5025872354175114
20
-10.895533706960116
30
-9.2518585385429703e-17
11
-0.5000000074505806
21
-9.0000001341104507
31
-9.2518585385429703e-17
0
LINE
5
151
100
AcDbEntity
8
0
100
AcDbLine
10
-0.5000000074505806
20
-9.0000001341104507
30
-9.2518585385429703e-17
11
-0.49999998882412888
21
-10.29999976977706
31
-9.2518585385429703e-17
0
LWPOLYLINE
5
152
100
AcDbEntity
8
0
100
AcDbPolyline
90
5
43
0.0
10
-0.4999999888241291
20
-10.29999976977706
10
-0.0641354303507163
20
-10.877256976577886
10
0.3627206622981562
20
-11.42918152844704
10
0.7797890956014736
20
-11.95358225976649
10
1.1860256638190547
20
-12.447522765581246
0
LWPOLYLINE
5
153
100
AcDbEntity
8
0
100
AcDbPolyline
90
9
43
0.0
10
1.1860256638190552
20
-12.447522765581244
10
0.9101478489432583
20
-12.730558888146323
10
0.6803564350781556
20
-12.99202702936346
10
0.5013439441149087
20
-13.229731135247201
10
0.37942323729199845
20
-13.440716848971572
10
0.319721160677576
20
-13.622584857119435
10
0.3225775093615287
20
-13.775176138941658
10
0.38407460641679436
20
-13.900324128623224
10
0.5000000074505806
20
-14.000000208616257
0
LWPOLYLINE
5
154
100
AcDbEntity
8
0
100
AcDbPolyline
90
26
43
0.0
10
0.5000000074505793
20
-14.00000020861626
10
0.34938025657361843
20
-14.052661702869568
10
0.1657141689460386
20
-14.071300759754095
10
0.06217648259324967
20
-14.059246801541374
10
-0.04866371197137888
20
-14.028298652769285
10
-0.16634169413916397
20
-13.975274502590919
10
-0.29031560720503974
20
-13.897477456141134
10
-0.4199608564902841
20
-13.792916415131979
10
-0.5545668002257991
20
-13.66047974662852
10
-0.693336703663443
20
-13.500046205113202
10
-0.8353954916434215
20
-13.31246640219156
10
-0.9798045357275668
20
-13.099428188912844
10
-1.1255757187340358
20
-12.863331578021425
10
-1.417078970374764
20
-12.334525240424663
10
-1.701486799847345
20
-11.75563236987828
10
-1.970402027776525
20
-11.161038376458281
10
-2.215863915616522
20
-10.586713536774079
10
-2.430779423360877
20
-10.067020177170152
10
-2.524915256591921
20
-9.837166285135067
10
-2.609383068815124
20
-9.63148167106589
10
-2.6837480312168465
20
-9.452371226383596
10
-2.7477029709662215
20
-9.30161745073945
10
-2.8010490319930192
20
-9.180462870136715
10
-2.8436724081135742
20
-9.089713956021685
10
-2.875523621754236
20
-9.029833151677144
10
-2.8965975330500053
20
-9.001028066827844
0
LWPOLYLINE
5
155
100
AcDbEntity
8
0
100
AcDbPolyline
90
2
43
0.0
10
-2.896597533050007
20
-9.001028066827846
10
-2.906750277825607
20
-9.034518034252834
0
LWPOLYLINE
5
156
100
AcDbEntity
8
0
100
AcDbPolyline
90
3
43
0.0
10
-2.9067502778256076
20
-9.034518034252834
10
-2.9067963854402734
20
-9.002938071749549
10
-2.896597533050006
20
-9.001028066827844
0
LWPOLYLINE
5
157
100
AcDbEntity
8
0
100
AcDbPolyline
90
8
43
0.0
10
-2.896597533050007
20
-9.001028066827846
10
-2.8342718301575855
20
-8.764339916983095
10
-2.7933272725531757
20
-8.54620307951921
10
-2.772435782421092
20
-8.348981990490435
10
-2.768710260298768
20
-8.17331186010632
10
-2.778237700151883
20
-8.018504201198292
10
-2.7968134293743616
20
-7.883137879003375
10
-2.846815050333529
20
-7.664455915850817
0
ARC
5
158
100
AcDbEntity
8
0
100
AcDbCircle
10
-3.3802888043292683
20
-6.3921428001670417
30
-9.2518585385429703e-17
40
1.3796285407830853
210
-0
220
0
230
1
100
AcDbArc
50
-67.251969103972556
51
51.299191688775181
0
LWPOLYLINE
5
159
100
AcDbEntity
8
0
100
AcDbPolyline
90
2
43
0.0
10
-2.517671001009759
20
-5.315450905547472
10
-2.5307339269795524
20
-5.305114088074041
0
LWPOLYLINE
5
160
100
AcDbEntity
8
0
100
AcDbPolyline
90
15
43
0.0
10
-2.5307339269795524
20
-5.305114088074042
10
-2.5559671699614643
20
-5.257722235593231
10
-2.5666024046796587
20
-5.18164347720235
10
-2.5624987281458416
20
-5.076990724791207
10
-2.5437278551149145
20
-4.944795790800552
10
-2.5108208429626946
20
-4.78771889270577
10
-2.4650348246714158
20
-4.610795537880407
10
-2.3437679758274816
20
-4.229941767727423
10
-2.202081283389097
20
-3.880570315520906
10
-2.130879056510767
20
-3.74296724661612
10
-2.062623648836294
20
-3.640812383534584
10
-1.9988456037182925
20
-3.5788695130376307
10
-1.94037614965085
20
-3.5593078168441474
10
-1.8875646659826089
20
-3.5826528866832974
10
-1.8404844876216322
20
-3.6486606034074818
0
LINE
5
161
100
AcDbEntity
8
0
100
AcDbLine
10
-1.8404844876216322
20
-3.6486606034074818
30
-9.2518585385429703e-17
11
-1.580819773180842
21
-3.65470973281783
31
-9.2518585385429703e-17
0
LWPOLYLINE
5
162
100
AcDbEntity
8
0
100
AcDbPolyline
90
5
43
0.0
10
-1.580819773180842
20
-3.65470973281783
10
-1.2381286790487027
20
-3.7533787026767005
10
-0.9395802451833468
20
-3.8653932751671913
10
-0.6824674544332094
20
-3.9851583377542896
10
-0.4580959418931605
20
-4.097570122717413
0
LWPOLYLINE
5
163
100
AcDbEntity
8
0
100
AcDbPolyline
90
15
43
0.0
10
-0.4580959418931605
20
-4.097570122717413
10
-0.6514823617156729
20
-4.124288767462992
10
-0.8057129782900025
20
-4.1822870226504465
10
-0.9201351200552099
20
-4.270552343373794
10
-0.9941549448198683
20
-4.385535694388837
10
-1.0277398765465433
20
-4.519474584973732
10
-1.0219010630277099
20
-4.659596261941302
10
-0.9789303828891962
20
-4.790400356589852
10
-0.902569097626349
20
-4.897454685920086
10
-0.7982535815986969
20
-4.971251660299976
10
-0.6731057628475624
20
-5.009666620310469
10
-0.5350681086179082
20
-5.016487226847211
10
-0.39170327518700016
20
-4.998405345458347
10
-0.11074768123919333
20
-4.91218068337066
10
0.146422447308278
20
-4.780282963540843
0
LWPOLYLINE
5
164
100
AcDbEntity
8
0
100
AcDbPolyline
90
9
43
0.0
10
0.1464224473082779
20
-4.780282963540843
10
0.43296928912586574
20
-4.892918512002843
10
0.7148446516990877
20
-4.977574539544717
10
0.9433391094435859
20
-5.0388262178918515
10
1.1079902337283307
20
-5.08540978879384
10
1.2433979435535243
20
-5.127703947606899
10
1.3974894980568804
20
-5.167789490549356
10
1.594714572054999
20
-5.190623331773599
10
1.8262549096556149
20
-5.1694832779850985
0
LWPOLYLINE
5
165
100
AcDbEntity
8
0
100
AcDbPolyline
90
17
43
0.0
10
1.8262549096556184
20
-5.1694832779850985
10
1.9771621624465832
20
-5.3960460200208065
10
2.1438341746046663
20
-5.577326495043759
10
2.324876561404333
20
-5.713574339584966
10
2.516386001544387
20
-5.806190801164434
10
2.710630132375192
20
-5.858571379761067
10
2.8962773128599095
20
-5.875958700104251
10
3.0620189801870703
20
-5.86310685453909
10
3.201333469846702
20
-5.8212255629914305
10
3.315903803623009
20
-5.745891121295261
10
3.4120895196294407
20
-5.6298293884533
10
3.492292685060635
20
-5.469296446674457
10
3.547400074373395
20
-5.269958587640123
10
3.5588400010423564
20
-5.047383383617817
10
3.509144514065766
20
-4.822791342213789
10
3.393480540911034
20
-4.618319409774121
10
3.227181362514898
20
-4.4531528492805705
0
LWPOLYLINE
5
166
100
AcDbEntity
8
0
100
AcDbPolyline
90
12
43
0.0
10
3.227181362514898
20
-4.4531528492805705
10
3.1111672237416768
20
-4.233283177314735
10
2.975986728360809
20
-4.068162542783589
10
2.829133409099548
20
-3.9593324085989727
10
2.6894235571839142
20
-3.906187831943051
10
2.579609706633278
20
-3.9109844515147807
10
2.541113545334306
20
-3.9380992538524717
10
2.5150775430007277
20
-3.983819249885514
10
2.501989204035245
20
-4.049296714263117
10
2.5019330293002926
20
-4.134969128457679
10
2.5147653914351396
20
-4.240770247907248
10
2.5402933277089477
20
-4.3664582779244165
0
LWPOLYLINE
5
167
100
AcDbEntity
8
0
100
AcDbPolyline
90
3
43
0.0
10
2.5402933277089477
20
-4.366458277924418
10
2.440725963965581
20
-4.316210370098333
10
2.310606833733446
20
-4.289880896502723
0
LWPOLYLINE
5
168
100
AcDbEntity
8
0
100
AcDbPolyline
90
9
43
0.0
10
2.3106068337334467
20
-4.289880896502723
10
2.251065493532647
20
-4.1191491862708975
10
2.195990025569492
20
-3.990613309038682
10
2.1645161407925944
20
-3.8995439419107356
10
2.1624305184012056
20
-3.820738102347939
10
2.1837097639012324
20
-3.723773339903127
10
2.214507409987557
20
-3.5922738044867732
10
2.237096041744604
20
-3.430458578575958
10
2.2336880116827245
20
-3.2553164401596337
0
LWPOLYLINE
5
169
100
AcDbEntity
8
0
100
AcDbPolyline
90
12
43
0.0
10
2.2336880116827253
20
-3.2553164401596333
10
2.358054317543604
20
-3.1572351252255273
10
2.459884769565517
20
-2.998655135365539
10
2.5327236203026104
20
-2.7853959698010478
10
2.561622416552812
20
-2.5346846918787374
10
2.527017980917473
20
-2.2772302128015367
10
2.4812605377071963
20
-2.158731257138818
10
2.415959394321697
20
-2.05501914213039
10
2.3323089347708956
20
-1.9723526837449334
10
2.232696557145662
20
-1.9164289651859425
10
2.120517219106553
20
-1.8915863480975341
10
1.9999999552965797
20
-1.8999999575316768
0
LWPOLYLINE
5
170
100
AcDbEntity
8
0
100
AcDbPolyline
90
10
43
0.0
10
1.9999999552965164
20
-1.8999999575316906
10
1.889533068216738
20
-1.8481779453563796
10
1.7420942549891894
20
-1.8393152821494796
10
1.5806955738929533
20
-1.8720997876497465
10
1.4558185966781145
20
-1.9386602157121025
10
1.4220424434977668
20
-1.9797891953594038
10
1.4096329879706473
20
-2.0223973360738934
10
1.4359511994546643
20
-2.0989096902896067
10
1.500800184146019
20
-2.146058147826736
10
1.5834404013235086
20
-2.1544676972438515
0
LWPOLYLINE
5
171
100
AcDbEntity
8
0
100
AcDbPolyline
90
8
43
0.0
10
1.5834404013233538
20
-2.1544676972440113
10
1.4363830122343406
20
-2.338000969870714
10
1.387198774716506
20
-2.425407707602558
10
1.356911613422584
20
-2.5043183256321697
10
1.3466831410410078
20
-2.5721059311190975
10
1.3571298905413447
20
-2.6272354137006872
10
1.3884965433628587
20
-2.6689568851833916
10
1.4408169011811611
20
-2.697023036487659
0
LWPOLYLINE
5
172
100
AcDbEntity
8
0
100
AcDbPolyline
90
9
43
0.0
10
1.440816901181146
20
-2.697023036487659
10
1.2712532527626432
20
-2.7216189149488694
10
1.13613802221198
20
-2.7758600930135815
10
1.0375318638414206
20
-2.8502967221360453
10
0.9631288058598055
20
-2.9317543496672247
10
0.8931737124414153
20
-3.006281036757835
10
0.8095659064570077
20
-3.0626966786612657
10
0.7017363427934454
20
-3.094698263471367
10
0.5656396997232893
20
-3.0998912002246186
0
LWPOLYLINE
5
173
100
AcDbEntity
8
0
100
AcDbPolyline
90
7
43
0.0
10
0.5656396997232636
20
-3.099891200224608
10
-0.06353293118313943
20
-2.8676175419311076
10
-0.3651735148023294
20
-2.7780533422983535
10
-0.6570656661152672
20
-2.7084989407458173
10
-0.93882458273222
20
-2.659744189207366
10
-1.2108525587760604
20
-2.630963331917806
10
-1.7287371877183144
20
-2.6271213206794295
0
LWPOLYLINE
5
174
100
AcDbEntity
8
0
100
AcDbPolyline
90
3
43
0.0
10
-1.7287371877183144
20
-2.6271213206794295
10
-1.8333677301746627
20
-2.651414982551513
10
-1.9501014176929434
20
-2.7374761703679362
0
LWPOLYLINE
5
175
100
AcDbEntity
8
0
100
AcDbPolyline
90
2
43
0.0
10
-1.9501014176929412
20
-2.737476170367932
10
-1.975330390817347
20
-2.719722159170335
0
LWPOLYLINE
5
176
100
AcDbEntity
8
0
100
AcDbPolyline
90
16
43
0.0
10
-1.975330390817347
20
-2.719722159170335
10
-2.0170946182529117
20
-2.687389166739832
10
-2.0773166398944207
20
-2.6775590759066845
10
-2.1556612068770207
20
-2.6911089797370122
10
-2.2508828951590676
20
-2.729883386213162
10
-2.360238674325283
20
-2.7969757705932383
10
-2.479345977003189
20
-2.896471727723952
10
-2.60283178350479
20
-3.0322703691558295
10
-2.725180119974238
20
-3.206623925353781
10
-2.8415696059942674
20
-3.418635291395086
10
-2.9487166286101485
20
-3.6626882699634447
10
-3.131806792712038
20
-4.199135393046143
10
-3.209711351703775
20
-4.459503679358911
10
-3.281244150065575
20
-4.691688364297069
10
-3.348753527147589
20
-4.880135013660049
10
-3.4142482913776226
20
-5.012932278244202
0
LWPOLYLINE
5
177
100
AcDbEntity
8
0
100
AcDbPolyline
90
5
43
0.0
10
-3.414248291377622
20
-5.012932278244203
10
-3.461996772973709
20
-5.070893988921925
10
-3.5096762248157507
20
-5.093475302589064
10
-3.557438357380706
20
-5.080188635534653
10
-3.605340628788818
20
-5.030993805071102
0
ARC
5
178
100
AcDbEntity
8
0
100
AcDbCircle
10
-3.3802888043292683
20
-6.3921428001670417
30
-9.2518585385429703e-17
40
1.3796285407830831
210
0
220
0
230
1
100
AcDbArc
50
99.388325771694454
51
113.00203671567866
0
LWPOLYLINE
5
179
100
AcDbEntity
8
0
100
AcDbPolyline
90
3
43
0.0
10
-3.9193977642080102
20
-5.122207195531232
10
-4.05752373225644
20
-5.032071783569135
10
-4.200745355302391
20
-4.995587242519608
0
LINE
5
180
100
AcDbEntity
8
0
100
AcDbLine
10
-4.2007453553023915
20
-4.9955872425196084
30
-9.2518585385429703e-17
11
-4.149347992824552
21
-4.4710643726307193
31
-9.2518585385429703e-17
0
LINE
5
181
100
AcDbEntity
8
0
100
AcDbLine
10
-4.149347992824552
20
-4.4710643726307193
30
-9.2518585385429703e-17
11
-5.0999998860061169
21
-3.1999999284744263
31
-9.2518585385429703e-17
0
LINE
5
182
100
AcDbEntity
8
0
100
AcDbLine
10
-5.0999998860061169
20
-3.1999999284744263
30
-9.2518585385429703e-17
11
-5.0756127450286082
21
-2.9511230881613946
31
-9.2518585385429703e-17
0
LWPOLYLINE
5
183
100
AcDbEntity
8
0
100
AcDbPolyline
90
15
43
0.0
10
-5.075612745028608
20
-2.9511230881613946
10
-5.2694722802147735
20
-2.774075276792548
10
-5.441976254234915
20
-2.5994490681552165
10
-5.593252633322245
20
-2.4271915079118
10
-5.72424867244104
20
-2.2570942673096517
10
-5.937442702072172
20
-1.9211032320063075
10
-6.129441300159709
20
-1.582904933653599
10
-6.240596090920537
20
-1.4089525164497023
10
-6.3744228752940035
20
-1.2296027815891093
10
-6.538203790601191
20
-1.0436267236212142
10
-6.7364941448336975
20
-0.8502854230909634
10
-6.971517038367372
20
-0.6492528769789587
10
-7.24395213153299
20
-0.44046851719907054
10
-7.553604290426114
20
-0.22401322787282463
10
-7.89999982342124
20
-5.2791038924409875e-18
0
LWPOLYLINE
5
184
100
AcDbEntity
8
0
100
AcDbPolyline
90
3
43
0.0
10
-7.89999982342124
20
0.0
10
-8.439012602149644
20
0.07051699408920035
10
-9.017810756940868
20
0.06949401604487089
0
LWPOLYLINE
5
185
100
AcDbEntity
8
0
100
AcDbPolyline
90
3
43
0.0
10
-9.017810756940868
20
0.0694940160448709
10
-8.762404116635892
20
-0.04805468301580129
10
-8.536113398670727
20
-0.20310578463477996
0
LWPOLYLINE
5
186
100
AcDbEntity
8
0
100
AcDbPolyline
90
2
43
0.0
10
-8.536113398670496
20
-0.20310578463497125
10
-9.01781075694086
20
0.06949401604486524
0
LWPOLYLINE
5
187
100
AcDbEntity
8
0
100
AcDbPolyline
90
4
43
0.0
10
-9.017810756940872
20
0.06949401604487018
10
-9.36825546411482
20
0.23715358518997726
10
-9.739693904842468
20
0.3979896853572881
10
-10.540691112237774
20
0.7050094978115141
0
LWPOLYLINE
5
188
100
AcDbEntity
8
0
100
AcDbPolyline
90
15
43
0.0
10
-10.540691112237774
20
0.7050094978115129
10
-10.694578705241605
20
0.5680310526235738
10
-10.869278092272538
20
0.42245983270665627
10
-11.068925904079896
20
0.2625598668855152
10
-11.29403654470485
20
0.08624200323417312
10
-11.542117014582894
20
-0.10552513583763651
10
-11.808398314778673
20
-0.30942101816229456
10
-12.369510935866051
20
-0.7328073595737384
10
-12.921563895492824
20
-1.1372020127088467
10
-13.178883169543903
20
-1.3190549000230516
10
-13.418218403153151
20
-1.482556250808104
10
-13.637067559694053
20
-1.6255358218205618
10
-13.833931178022757
20
-1.7466959163838987
10
-14.008051520240736
20
-1.8453833551793346
10
-14.159154379737044
20
-1.9213638894543854
0
LWPOLYLINE
5
189
100
AcDbEntity
8
0
100
AcDbPolyline
90
19
43
0.0
10
-14.159154379737046
20
-1.9213638894543852
10
-14.062399096892046
20
-1.939948849318976
10
-13.911428677281334
20
-1.9724656248804744
10
-13.72764445030292
20
-2.020788423561622
10
-13.565362748982356
20
-2.0889018612858243
10
-13.515622679214262
20
-2.131314152247812
10
-13.497268172308198
20
-2.178673119423893
10
-13.513645513154886
20
-2.2291746360473716
10
-13.562624755755
20
-2.279623831064493
10
-13.726150282636366
20
-2.3633112691160503
10
-13.905809681824053
20
-2.4003825742190057
10
-14.03999797495491
20
-2.390388612321662
10
-14.129321240910132
20
-2.3732330555671877
10
-14.211661039328849
20
-2.3942260696864683
10
-14.318592239689991
20
-2.4599330344295263
10
-14.461244614254662
20
-2.536676606010043
10
-14.639942421279173
20
-2.582918654426157
10
-14.85318207522216
20
-2.573669072282129
10
-15.099999662488699
20
-2.499999944120645
0
LWPOLYLINE
5
190
100
AcDbEntity
8
0
100
AcDbPolyline
90
23
43
0.0
10
-15.099999662488699
20
-2.4999999441206455
10
-15.112677823644244
20
-2.5312435054682605
10
-15.107453773888997
20
-2.5787917224487633
10
-15.084600377855317
20
-2.6425175619234484
10
-15.044943421872432
20
-2.7219833392045714
10
-14.923282482608725
20
-2.923611845904064
10
-14.770367960418431
20
-3.1676681305321597
10
-14.625304030258539
20
-3.4314018558880925
10
-14.520313579444244
20
-3.6958641116360877
10
-14.462672352603564
20
-3.9563449853644586
10
-14.433211033521474
20
-4.2224527939212875
10
-14.38166159995536
20
-4.794138033475717
10
-14.382662869101015
20
-5.063020555790643
10
-14.40734670473755
20
-5.176306512196637
10
-14.456093474936512
20
-5.268380862857641
10
-14.533991032695402
20
-5.334757091170568
10
-14.644911437386616
20
-5.372029884900617
10
-14.791550702965598
20
-5.377827835932833
10
-14.975664474384237
20
-5.350607454119501
10
-15.198261189797115
20
-5.289482288837501
10
-15.45980420512706
20
-5.194045323447002
10
-15.760403609495418
20
-5.0642002318082575
10
-16.099999640136957
20
-4.899999890476465
0
LWPOLYLINE
5
191
100
AcDbEntity
8
0
100
AcDbPolyline
90
5
43
0.0
10
-16.099999640136957
20
-4.899999890476465
10
-16.0092403950679
20
-5.109368857233162
10
-15.954988831810933
20
-5.323356944267288
10
-15.941567561598017
20
-5.542511068285664
10
-15.964692625583288
20
-5.76628920305519
0
LWPOLYLINE
5
192
100
AcDbEntity
8
0
100
AcDbPolyline
90
5
43
0.0
10
-15.96469262558329
20
-5.76628920305519
10
-16.170869910144976
20
-6.007907233068437
10
-16.39469781079458
20
-6.196418946540919
10
-16.638396481459118
20
-6.325144451999578
10
-16.899999622255564
20
-6.399999856948853
0
LWPOLYLINE
5
193
100
AcDbEntity
8
0
100
AcDbPolyline
90
14
43
0.0
10
-16.899999622255564
20
-6.3999998569488525
10
-16.85640663979202
20
-6.3293808106153335
10
-16.82422379630053
20
-6.2384175070818255
10
-16.80361016350696
20
-6.12705841101776
10
-16.794657159449397
20
-5.995749107190102
10
-16.810692804409737
20
-5.680640950321567
10
-16.865068061120645
20
-5.325428314627551
10
-16.943102625955245
20
-4.986510378244729
10
-16.985827257567276
20
-4.8422550907385675
10
-17.02868853893143
20
-4.723092516117535
10
-17.070519477077447
20
-4.632760172067108
10
-17.110649214685246
20
-4.572980796196561
10
-17.148762634596935
20
-4.544190558743102
10
-17.184762841687224
20
-4.546218986951261
0
LWPOLYLINE
5
194
100
AcDbEntity
8
0
100
AcDbPolyline
90
7
43
0.0
10
-17.184762841687224
20
-4.54621898695126
10
-17.109500266826046
20
-4.76008588197334
10
-17.096608210928117
20
-4.8847475810872805
10
-17.102129326818172
20
-5.022604247145055
10
-17.126544987209954
20
-5.174000834135316
10
-17.168760568444903
20
-5.33815292951045
10
-17.299999613314867
20
-5.699999872595074
0
LWPOLYLINE
5
195
100
AcDbEntity
8
0
100
AcDbPolyline
90
5
43
0.0
10
-17.299999613314867
20
-5.699999872595072
10
-17.33072632248697
20
-5.647558425150206
10
-17.406519946341923
20
-5.596705303535613
10
-17.531641911861737
20
-5.547590696310023
10
-17.69999960437417
20
-5.499999877065418
0
LWPOLYLINE
5
196
100
AcDbEntity
8
0
100
AcDbPolyline
90
5
43
0.0
10
-17.69999960437417
20
-5.49999987706542
10
-17.590120106330513
20
-5.6690458447976155
10
-17.51878003663159
20
-5.858014332807292
10
-17.490308264456697
20
-6.069143100909874
10
-17.49999960884452
20
-6.299999859184027
0
LINE
5
197
100
AcDbEntity
8
0
100
AcDbLine
10
-17.499999608844522
20
-6.2999998591840267
30
-9.2518585385429703e-17
11
-16.899999622255564
21
-6.8999998457729816
31
-9.2518585385429703e-17
0
LWPOLYLINE
5
198
100
AcDbEntity
8
0
100
AcDbPolyline
90
9
43
0.0
10
-16.899999622255564
20
-6.899999845772982
10
-16.86622240306061
20
-7.033022755835852
10
-16.85617293615198
20
-7.185977068953285
10
-16.871798291563636
20
-7.360498331432814
10
-16.915101084876756
20
-7.5582687480547355
10
-16.986403509527808
20
-7.779558962543291
10
-17.083756698540522
20
-8.022731919153069
10
-17.20446079498423
20
-8.285519727692513
10
-17.34642994423125
20
-8.566170262262931
0
LINE
5
199
100
AcDbEntity
8
0
100
AcDbLine
10
-17.346429944231247
20
-8.566170262262931
30
-9.2518585385429703e-17
11
-17.149356739001988
21
-8.6001462979416985
31
-9.2518585385429703e-17
0
LWPOLYLINE
5
200
100
AcDbEntity
8
0
100
AcDbPolyline
90
12
43
0.0
10
-17.149356739001984
20
-8.600146297941697
10
-17.384831248921206
20
-8.952918546683554
10
-17.666428958720566
20
-9.284890931418028
10
-17.989144167497308
20
-9.590742164561137
10
-18.333511148473526
20
-9.859078376609466
10
-18.66078675592071
20
-10.072284282589603
10
-18.803482048800777
20
-10.152143524671043
10
-18.92534245412203
20
-10.211451783471086
10
-19.022909153495153
20
-10.248993397587462
10
-19.094448765777106
20
-10.264361556600381
10
-19.139458261014955
20
-10.257668050052244
10
-19.158033215477985
20
-10.2291924298069
0
LWPOLYLINE
5
201
100
AcDbEntity
8
0
100
AcDbPolyline
90
17
43
0.0
10
-19.15803321547799
20
-10.2291924298069
10
-19.303163661081385
20
-10.299447048996736
10
-19.467514354774917
20
-10.363391339264108
10
-19.651092195094535
20
-10.420763087834192
10
-19.853729171180284
20
-10.470938273708196
10
-20.07492428488763
20
-10.51277351337037
10
-20.313683010070868
20
-10.544454639262133
10
-20.56844668553259
20
-10.563526686977038
10
-20.837130806471635
20
-10.567140576352033
10
-21.117187415012044
20
-10.552361425907174
10
-21.40565795754308
20
-10.5164694430389
10
-21.69922166424474
20
-10.457276409836487
10
-21.99424793450952
20
-10.373401149255411
10
-22.286880373760738
20
-10.264382260063632
10
-22.573146930153243
20
-10.130659446316088
10
-22.849071347683648
20
-9.973560219378193
10
-23.11078658192829
20
-9.79529624058647
0
LWPOLYLINE
5
202
100
AcDbEntity
8
0
100
AcDbPolyline
90
7
43
0.0
10
-23.11078658192829
20
-9.79529624058647
10
-23.315446835064655
20
-9.952965350042623
10
-23.40238368474749
20
-10.056337082395276
10
-23.477825995686377
20
-10.178031329244536
10
-23.54141376170541
20
-10.318621947317853
10
-23.593781907562494
20
-10.477096854414798
10
-23.66892786125377
20
-10.841214233106369
0
LWPOLYLINE
5
203
100
AcDbEntity
8
0
100
AcDbPolyline
90
51
43
0.0
10
-23.668927861362924
20
-10.841214233122685
10
-24.04146259768538
20
-10.896285486610203
10
-24.39298500580067
20
-10.947010043361898
10
-24.723490878211205
20
-10.993492064109779
10
-25.032999463552976
20
-11.035912170463373
10
-25.321565297761918
20
-11.074548570002941
10
-25.589290161793887
20
-11.109798286417872
10
-25.836335352698434
20
-11.142199255762279
10
-26.06293409669807
20
-11.17245254128216
10
-26.45615869330585
20
-11.2302608154695
10
-26.772742871170625
20
-11.292905688606108
10
-27.018334396949275
20
-11.373706884964669
10
-27.20039072225026
20
-11.48846630683546
10
-27.327895920062154
20
-11.653427521723069
10
-27.37434012934882
20
-11.759416369703729
10
-27.41102055355809
20
-11.883223113353779
10
-27.439275192109832
20
-12.026168158888519
10
-27.4604032835685
20
-12.18930252272123
10
-27.475630023618713
20
-12.373374732534518
10
-27.486072270007583
20
-12.57879602540162
10
-27.492702319874745
20
-12.8056044620547
10
-27.496316946496417
20
-13.053436340356791
10
-27.49681632313378
20
-13.608767606952453
10
-27.490722291169238
20
-14.234523035467298
10
-27.47927549159565
20
-14.915641696477397
10
-27.439599875351217
20
-16.365975875476703
10
-27.41008635425166
20
-17.090364995444965
10
-27.373895877444763
20
-17.782490040932075
10
-27.331634720421018
20
-18.419062358066824
10
-27.30833194838458
20
-18.709941505814918
10
-27.28345831135064
20
-18.97959452241166
10
-27.25673458694091
20
-19.226278198961534
10
-27.227675822439608
20
-19.448720555677674
10
-27.195550371820268
20
-19.646189652344827
10
-27.15934080188263
20
-19.818560165704973
10
-27.117690428651528
20
-19.966403868166875
10
-27.06885297867706
20
-20.091074830294716
10
-27.010715988116722
20
-20.1946718993611
10
-26.940885407004853
20
-20.27989919188484
10
-26.85679622656187
20
-20.349882611705848
10
-26.755839767904032
20
-20.40795850316226
10
-26.63549747525558
20
-20.457453457922895
10
-26.493469172078814
20
-20.501473782796413
10
-26.327750559435916
20
-20.54277333615855
10
-26.136662943625637
20
-20.583695121059357
10
-25.918839786363375
20
-20.62618005014348
10
-25.67318407710066
20
-20.67182120564776
10
-25.398834496081673
20
-20.721904731833344
10
-25.095140698875582
20
-20.77743682382159
10
-24.76163516223834
20
-20.839176317108382
10
-24.398001704682883
20
-20.907672674191357
0
LWPOLYLINE
5
204
100
AcDbEntity
8
0
100
AcDbPolyline
90
7
43
0.0
10
-24.398001704682873
20
-20.90767267419136
10
-24.351557667236754
20
-21.811813985280626
10
-24.319193958929787
20
-22.23647059063572
10
-24.279873390035508
20
-22.640264999384566
10
-24.233161199893416
20
-23.021893453561635
10
-24.179238226096135
20
-23.381898247981685
10
-24.052002890401535
20
-24.043763042709706
0
LINE
5
205
100
AcDbEntity
8
0
100
AcDbLine
10
-24.052002890401543
20
-24.043763042709713
30
-9.2518585385429703e-17
11
-22.184499910378371
21
-23.216020520981719
31
-9.2518585385429703e-17
0
LWPOLYLINE
5
206
100
AcDbEntity
8
0
100
AcDbPolyline
90
5
43
0.0
10
-22.18449991037835
20
-23.21602052098174
10
-21.96191222234729
20
-23.42266709913226
10
-21.72796894489654
20
-23.575881427409186
10
-21.49054957232945
20
-23.684029855732234
10
-21.2527444315503
20
-23.751906076963635
0
LWPOLYLINE
5
207
100
AcDbEntity
8
0
100
AcDbPolyline
90
17
43
0.0
10
-21.25274443155029
20
-23.751906076963632
10
-20.994924187629557
20
-24.31668864948236
10
-20.71553951178454
20
-24.903450716279124
10
-20.41402887650089
20
-25.512059767723663
10
-20.089808981595212
20
-26.14170632102775
10
-19.742458699327077
20
-26.790442756402058
10
-19.371867795011145
20
-27.45488449418339
10
-18.97822976431487
20
-28.130430361781933
10
-18.561941791491805
20
-28.811830582960624
10
-18.123543069275993
20
-29.493728771492673
10
-17.663686963525194
20
-30.17119545938151
10
-17.18315064673921
20
-30.840273620131704
10
-16.682823974981048
20
-31.498298097221447
10
-16.163618618354015
20
-32.14375502836004
10
-15.626354514441074
20
-32.77594030345511
10
-15.071677608981457
20
-33.39466871707808
10
-14.499999675899744
20
-33.99999924004078
0
LINE
5
208
100
AcDbEntity
8
0
100
AcDbLine
10
-14.499999675899744
20
-33.999999240040779
30
-9.2518585385429703e-17
11
-14.099999684840443
21
-34.099999237805612
31
-9.2518585385429703e-17
0
LWPOLYLINE
5
209
100
AcDbEntity
8
0
100
AcDbPolyline
90
12
43
0.0
10
-14.099999684840443
20
-34.099999237805605
10
-13.884996978151634
20
-34.652917498001024
10
-13.708913227236662
20
-35.14266492773525
10
-13.563412040062932
20
-35.572675095635354
10
-13.424893408156443
20
-35.954660189506015
10
-13.248177839310257
20
-36.31271385776255
10
-13.126692941674545
20
-36.49309164803166
10
-12.972524837746416
20
-36.68029201935962
10
-12.778300313615683
20
-36.87851032247572
10
-12.537811698244626
20
-37.09136810317107
10
-12.246305227439608
20
-37.32175311880067
10
-11.900435342679494
20
-37.57183102085912
0
LWPOLYLINE
5
210
100
AcDbEntity
8
0
100
AcDbPolyline
90
17
43
0.0
10
-11.900435342679494
20
-37.57183102085913
10
-11.873457502261925
20
-37.94296204635305
10
-11.844320748005394
20
-38.292526722467265
10
-11.812436902019742
20
-38.620240557947085
10
-11.776324944582145
20
-38.92597332995574
10
-11.733171651306241
20
-39.21009021295679
10
-11.678373010771162
20
-39.47384547028547
10
-11.605261417501241
20
-39.719691134912026
10
-11.505635966594243
20
-39.95107246339145
10
-11.370861298243655
20
-40.171888348980346
10
-11.193018290878458
20
-40.38597080176595
10
-10.96616035170591
20
-40.59657424738367
10
-10.687013600916332
20
-40.80606271902202
10
-10.354517831170444
20
-41.01596265765477
10
-9.968956447162581
20
-41.227161758683586
10
-9.53123511134384
20
-41.44008873420026
10
-9.042256409424795
20
-41.65488692806774
0
LINE
5
211
100
AcDbEntity
8
0
100
AcDbLine
10
-9.0422564094247946
20
-41.654886928067754
30
-9.2518585385429703e-17
11
10.271665016770433
21
-41.654886928067739
31
-9.2518585385429703e-17
0
LWPOLYLINE
5
212
100
AcDbEntity
8
0
100
AcDbPolyline
90
9
43
0.0
10
10.271665016770433
20
-41.65488692806773
10
11.122519316509761
20
-41.394668880739864
10
11.993055718736002
20
-41.07333935624361
10
12.883237950094284
20
-40.69037998711978
10
13.7926737379551
20
-40.245363754327386
10
14.720313838450242
20
-39.7383690608823
10
15.664124281256102
20
-39.170448020469316
10
16.62076317859876
20
-38.54410320023854
10
17.585207045146305
20
-37.86385517695636
0
LWPOLYLINE
5
213
100
AcDbEntity
8
0
100
AcDbPolyline
90
9
43
0.0
10
17.585207045146767
20
-37.863855176956015
10
18.10733034157626
20
-38.23882383799455
10
18.69235849840181
20
-38.606166477706566
10
19.34534479041057
20
-38.965270482355166
10
20.071309552733787
20
-39.31552723151106
10
20.870633588974005
20
-39.65689055995206
10
21.737849715343337
20
-39.99002326001782
10
22.665741521875688
20
-40.31580018454747
10
23.648817652335932
20
-40.63488705633295
0
LWPOLYLINE
5
214
100
AcDbEntity
8
0
100
AcDbPolyline
90
24
43
0.0
10
23.648817652335932
20
-40.63488705633295
10
23.87157891496246
20
-40.62684775742048
10
24.056717102505413
20
-40.636411420903876
10
24.152480735044666
20
-40.63217682469981
10
24.269228507490478
20
-40.60508627866586
10
24.42428488106345
20
-40.53973076931975
10
24.521302894383545
20
-40.48816194366947
10
24.633589192299084
20
-40.421993195534235
10
24.76242538953532
20
-40.34010424650744
10
24.908765225220506
20
-40.24167063925743
10
25.073285764474228
20
-40.12611693092289
10
25.256429676263885
20
-39.99307802711032
10
25.45844274412009
20
-39.842364880024064
10
25.679409821813525
20
-39.67393167915102
10
25.919289237467932
20
-39.48784450488594
10
26.17794328293998
20
-39.28425358044812
10
26.455165546733145
20
-39.06336842579186
10
26.750705913620287
20
-38.82543517283518
10
27.064293402210307
20
-38.570715884403384
10
27.395656764303418
20
-38.299469937967864
10
27.744542589592832
20
-38.01193770961641
10
28.110731630586592
20
-37.708325903618736
10
28.49405297627964
20
-37.38879487284494
10
28.894396725172555
20
-37.0534473282984
0
LINE
5
215
100
AcDbEntity
8
0
100
AcDbLine
10
28.894396725172555
20
-37.053447328298397
30
-9.2518585385429703e-17
11
28.894396725172555
21
-33.838682586972311
31
-9.2518585385429703e-17
0
LINE
5
216
100
AcDbEntity
8
0
100
AcDbLine
10
28.894396725172555
20
-33.838682586972311
30
-9.2518585385429703e-17
11
26.530957399175648
21
-29.57860804847256
31
-9.2518585385429703e-17
0
LWPOLYLINE
5
217
100
AcDbEntity
8
0
100
AcDbPolyline
90
9
43
0.0
10
26.530957399174987
20
-29.578608048471317
10
26.594736082380635
20
-29.172019824422122
10
26.63574571540548
20
-28.78144146476853
10
26.651834650842893
20
-28.408385882132407
10
26.64033016791688
20
-28.054732377456155
10
26.599566614069357
20
-27.7216521402122
10
26.530322792311498
20
-27.408597561683408
10
26.434896024748603
20
-27.113953299337236
10
26.315363499032006
20
-26.836258796312134
0
LWPOLYLINE
5
218
100
AcDbEntity
8
0
100
AcDbPolyline
90
36
43
0.0
10
26.31536349903201
20
-26.836258796312137
10
26.624972100157102
20
-26.072696352851914
10
26.776877357759716
20
-25.6607843126073
10
26.92672503415098
20
-25.227706775069088
10
27.074255032962952
20
-24.7723299326002
10
27.218902716560027
20
-24.293202485839476
10
27.359653136706033
20
-23.78851073284569
10
27.494887829958657
20
-23.256027782710966
10
27.622237076365675
20
-22.693072458338836
10
27.738523662069905
20
-22.096556031671188
10
27.839949562512885
20
-21.4632627074474
10
27.922407598724288
20
-20.790250916463037
10
27.98178469132996
20
-20.075250559070554
10
28.01427720835508
20
-19.31708032521584
10
28.016697656023652
20
-18.5160526517141
10
27.986795027844064
20
-17.674404633179144
10
27.923588731460843
20
-16.796751610907283
10
27.827537457328248
20
-15.890265189027199
10
27.700444704236936
20
-14.964410995277145
10
27.54517294632005
20
-14.030364917485315
10
27.365380547579548
20
-13.100463799886699
10
27.165269639742625
20
-12.187671904390406
10
26.949325776854202
20
-11.305027574633586
10
26.722065300717716
20
-10.465094950807826
10
26.48779135262923
20
-9.679431623650672
10
26.25033541869333
20
-8.95801126047443
10
26.01281139624638
20
-8.308670780634019
10
25.777490542627625
20
-7.736870930593665
10
25.66114911822153
20
-7.481162162950928
10
25.545868971984422
20
-7.245959975065024
10
25.43174490347731
20
-7.031442223643385
10
25.31884365912686
20
-6.837718238062613
10
25.207208724990256
20
-6.6648436455959486
10
25.09686547676956
20
-6.512836043589034
10
24.987826285030543
20
-6.381690512500088
10
24.880095294752536
20
-6.2713941555467265
0
LWPOLYLINE
5
219
100
AcDbEntity
8
0
100
AcDbPolyline
90
3
43
0.0
10
24.880095294752536
20
-6.271394155546726
10
24.96317880243799
20
-5.930996555414448
10
25.024069989114896
20
-5.565283105045094
0
LWPOLYLINE
5
220
100
AcDbEntity
8
0
100
AcDbPolyline
90
16
43
0.0
10
25.0240699891149
20
-5.5652831050450935
10
25.000462476434233
20
-5.37412730084849
10
24.95588494286128
20
-5.160427762156106
10
24.890323379327647
20
-4.924181959872089
10
24.803781926359843
20
-4.665427570311799
10
24.69630491777708
20
-4.3842762093377745
10
24.56799715558276
20
-4.080944651146016
10
24.41904665910278
20
-3.7557894825130322
10
24.249752876361377
20
-3.409349355803826
10
24.060553461248276
20
-3.0423852192355594
10
23.85203580613983
20
-2.6558992058454143
10
23.624936609489765
20
-2.2511367796704524
10
23.380128252673813
20
-1.8295705115794425
10
23.118585409914658
20
-1.392856337332721
10
22.841348336112713
20
-0.9427851337654766
10
22.24409900130433
20
-0.010171996350205017
0
LWPOLYLINE
5
221
100
AcDbEntity
8
0
100
AcDbPolyline
90
38
43
0.0
10
22.244099001304328
20
-0.010171996350203383
10
22.20943016821308
20
0.17164673707829098
10
22.146092714635945
20
0.4013930746140754
10
22.05395154921018
20
0.6792736356175711
10
21.932848557209816
20
1.0055027916398502
10
21.78266508208018
20
1.3801824699969918
10
21.603387487318333
20
1.8031766161178904
10
21.395175490399318
20
2.2739810666378815
10
21.158433732788026
20
2.7915878387092268
10
20.893892200010356
20
3.354333421922091
10
20.602693268953615
20
3.959735191583164
10
20.286474753527777
20
4.604335966159579
10
19.947441512773583
20
5.28357071114305
10
19.588369895482575
20
5.991760061429967
10
19.212522596539706
20
6.7222729331073925
10
18.42542604169575
20
8.220054664989602
10
17.618628504166434
20
9.711282328966794
10
17.218723451433977
20
10.432466950592456
10
16.827035424343443
20
11.125474816617444
10
16.447900313153603
20
11.781546001270799
10
16.0854927329563
20
12.392244598242083
10
15.743741265415506
20
12.949632393418018
10
15.426249324808902
20
13.446431795410948
10
15.136216370715742
20
13.876189007073224
10
15.002361253234785
20
14.064187800034915
10
14.876333188488871
20
14.233493186854169
10
14.758368804590507
20
14.383634364640487
10
14.648662280155271
20
14.514228091697554
10
14.54736804244304
20
14.624972935148225
10
14.454603611446183
20
14.715643209704922
10
14.370452644826562
20
14.786082493191165
10
14.294969305962146
20
14.836194353874657
10
14.228183876751583
20
14.865930454722067
10
14.170108533026575
20
14.875278314991448
10
14.120743072752445
20
14.86424917333092
10
14.080080052738488
20
14.832867122308375
10
14.048109016992468
20
14.781160195486711
10
14.024820514049551
20
14.709151908106703
0
LINE
5
222
100
AcDbEntity
8
0
100
AcDbLine
10
14.024820514049551
20
14.709151908106703
30
-9.2518585385429703e-17
11
15.603710385344895
21
7.94956954389062
31
-9.2518585385429703e-17
0
LWPOLYLINE
5
223
100
AcDbEntity
8
0
100
AcDbPolyline
90
25
43
0.0
10
15.603710385344897
20
7.949569543890616
10
14.716474696815443
20
8.732492304706392
10
13.782111008760923
20
9.508405756136282
10
12.802169855350183
20
10.277445769855177
10
11.78190345137609
20
11.037792444282841
10
10.731251841119837
20
11.784945818662518
10
9.665326494727665
20
12.51132748484251
10
8.603880617426876
20
13.20653341492306
10
7.569921882358478
20
13.858138388530149
10
7.070969656074097
20
14.163365719021161
10
6.5882597841346335
20
14.452545182516856
10
6.124948915527477
20
14.723925783308234
10
5.684129457061406
20
14.975786690101451
10
5.26878604640193
20
15.206462777564175
10
4.881753143080606
20
15.414369500731171
10
4.525670766998935
20
15.59802888690378
10
4.202935950417166
20
15.756098112328404
10
3.9156532042995633
20
15.88739868227476
10
3.6655905168265894
20
15.990942377897426
10
3.4541434247233496
20
16.06595248369299
10
3.2823094419933856
20
16.11187894000177
10
3.1507191713291824
20
16.128380227191286
10
3.0597205648400383
20
16.11527405543863
10
3.0094677167101263
20
16.07248540392519
10
3.0000000447034827
20
16.00000023841858
0
LWPOLYLINE
5
224
100
AcDbEntity
8
0
100
AcDbPolyline
90
22
43
0.0
10
3.0000000447034836
20
16.00000023841858
10
3.225730848573191
20
15.827744417318797
10
3.469927008093724
20
15.640781202984316
10
3.732660615855763
20
15.439040408437423
10
4.0139957534651804
20
15.222438017774792
10
4.313935144123653
20
14.990908045579708
10
4.632364431469053
20
14.744436111433991
10
4.968998079052925
20
14.483092427958443
10
5.323323907112572
20
14.207065931514236
10
5.694533315480516
20
13.916707486174827
10
6.081446606056313
20
13.612576420786464
10
6.8957402795419505
20
12.966329195961688
10
7.749736033164048
20
12.276806122194605
10
8.623444328550598
20
11.554513612856685
10
9.495583354108362
20
10.810757193779622
10
10.345683412624943
20
10.056529403293998
10
11.156259489748535
20
9.301406247597967
10
11.914799807605686
20
8.55256443566962
10
12.614168637609513
20
7.814533552852857
10
13.251193549485768
20
7.089782174461404
10
13.825169451598606
20
6.379364655047138
10
14.336508284606214
20
5.683524845834424
0
LWPOLYLINE
5
225
100
AcDbEntity
8
0
100
AcDbPolyline
90
26
43
0.0
10
14.336508284606214
20
5.683524845834424
10
14.043079822527568
20
5.626049776581961
10
13.728311775148073
20
5.562969297707335
10
13.392415737807454
20
5.494290356125095
10
13.035774429083917
20
5.420048342119969
10
12.658980374184356
20
5.340314899103388
10
12.26287391094214
20
5.255205654809871
10
11.417616597635494
20
5.069602140931327
10
10.513616383071922
20
4.865440530279224
10
9.570988486469707
20
4.6461555402485
10
7.676849628178
20
4.180989372933825
10
6.786419589745792
20
3.945923902663504
10
6.369217804030962
20
3.8302312558374423
10
5.975823109074699
20
3.7166780475316528
10
5.609877086466706
20
3.6059127032635327
10
5.274780726261353
20
3.4985417597152355
10
4.973632541913779
20
3.395119225342387
10
4.709161305061648
20
3.2961351281134155
10
4.483641853657021
20
3.202001448259522
10
4.2988116888903
20
3.113038251162358
10
4.155862009881958
20
3.0294719816719837
10
4.055514848126272
20
2.9514478219179594
10
3.998119449392611
20
2.879045224048661
10
3.9837625733125828
20
2.8122958036666645
10
4.012383414153109
20
2.7512020365362213
10
4.083878458408393
20
2.695754392625945
0
LWPOLYLINE
5
226
100
AcDbEntity
8
0
100
AcDbPolyline
90
9
43
0.0
10
4.083878458408394
20
2.695754392625945
10
5.960181432983547
20
1.551063760597332
10
7.856076305955334
20
0.4386730695166598
10
9.772966596087088
20
-0.6391037867682414
10
11.712709569399316
20
-1.6792048496065417
10
13.676847275799275
20
-2.6790878374928253
10
15.665575507624219
20
-3.6384299598107415
10
17.67756149530157
20
-4.559428470627784
10
19.710922779771465
20
-5.4451868627849365
0
LWPOLYLINE
5
227
100
AcDbEntity
8
0
100
AcDbPolyline
90
5
43
0.0
10
19.71092277977147
20
-5.445186862784942
10
19.86726574001997
20
-5.833479108226395
10
20.05676293449181
20
-6.274757744099877
10
20.282391871744363
20
-6.773781361091481
10
20.539560391892508
20
-7.323210867156272
0
LWPOLYLINE
5
228
100
AcDbEntity
8
0
100
AcDbPolyline
90
5
43
0.0
10
20.539560391892504
20
-7.3232108671562735
10
20.698598608966865
20
-7.5395444114742975
10
20.879073605748356
20
-7.725725490110866
10
21.08090257312949
20
-7.881509346310951
10
21.303589925435364
20
-8.006648933414926
0
LWPOLYLINE
5
229
100
AcDbEntity
8
0
100
AcDbPolyline
90
22
43
0.0
10
21.303589925435364
20
-8.006648933414935
10
21.479653706828426
20
-8.690875461264648
10
21.628070199029814
20
-9.384786234970596
10
21.748412715974517
20
-10.089401526533171
10
21.839695399710557
20
-10.807334920550268
10
21.900138509116676
20
-11.543576924554905
10
21.926934152579864
20
-12.306280105482156
10
21.916187770786777
20
-13.106891205067987
10
21.863421409731004
20
-13.958187979835188
10
21.81991875094859
20
-14.406445498903121
10
21.76437513009083
20
-14.871206920834894
10
21.696426198853118
20
-15.353065486183525
10
21.615823895244958
20
-15.85211245609104
10
21.52246164244183
20
-16.367843277057908
10
21.416400957935327
20
-16.899053595320918
10
21.167433163130028
20
-17.998959229715165
10
20.873702659755644
20
-19.124963250246687
10
20.543660063051025
20
-20.238187980203293
10
20.368571394762014
20
-20.776180478601084
10
20.18903404299956
20
-21.29433496574077
10
20.0069509908142
20
-21.78744739681734
10
19.824372945333987
20
-22.250879694338956
0
LWPOLYLINE
5
230
100
AcDbEntity
8
0
100
AcDbPolyline
90
17
43
0.0
10
19.824372945333987
20
-22.250879694338956
10
19.543445713414844
20
-21.93760776410553
10
19.27188388237771
20
-21.646737546548586
10
19.00997280368795
20
-21.37889054356789
10
18.758193375074832
20
-21.135056900744
10
18.517210917000398
20
-20.916517226998767
10
18.28784784090122
20
-20.72472227650346
10
18.07103939648486
20
-20.561131625622714
10
17.867769876327994
20
-20.427004333207037
10
17.679013476651033
20
-20.32328352335948
10
17.505686699695993
20
-20.250624146257294
10
17.348583389019883
20
-20.209420031660738
10
17.20827700671656
20
-20.199760853200033
10
17.08499976418033
20
-20.221341473938068
10
16.978628993632814
20
-20.27349209611929
10
16.888860915924084
20
-20.355437177748737
10
16.81540219264236
20
-20.466563364483363
0
LWPOLYLINE
5
231
100
AcDbEntity
8
0
100
AcDbPolyline
90
28
43
0.0
10
16.815402192642356
20
-20.466563364483363
10
16.301657376422256
20
-21.03595161985161
10
15.81058928830993
20
-21.58203971502811
10
15.342350440888408
20
-22.104690151634156
10
14.897184324785133
20
-22.603702838575103
10
14.475413576449542
20
-23.078842824713337
10
14.07742622222421
20
-23.529870156538987
10
13.703658849742105
20
-23.956573422338344
10
13.354577404870502
20
-24.35880607890589
10
13.030655431118593
20
-24.736525429077243
10
12.732349818276019
20
-25.089834320433354
10
12.460072545867153
20
-25.419028231952485
10
12.214158312247024
20
-25.724647812268955
10
11.994830565014892
20
-26.007531909920065
10
11.802165739944224
20
-26.268870870622496
10
11.636050658852547
20
-26.51027041481757
10
11.496129790836763
20
-26.733831521119193
10
11.381776888514478
20
-26.942180957913248
10
11.292127868463746
20
-27.138380486630922
10
11.226136354420204
20
-27.3257904984279
10
11.18263405023896
20
-27.507922040925468
10
11.16039183445979
20
-27.68828321782524
10
11.158176588010585
20
-27.870221570967797
10
11.209185033282411
20
-28.25051186561325
10
11.327522763759083
20
-28.667209923459158
10
11.507227848147744
20
-29.13072874992886
10
11.744408695450476
20
-29.64566840373294
10
12.036979293938682
20
-30.213206126770448
0
LWPOLYLINE
5
232
100
AcDbEntity
8
0
100
AcDbPolyline
90
2
43
0.0
10
12.03697929393868
20
-30.21320612677045
10
11.561429361476856
20
-30.812612333947644
0
LWPOLYLINE
5
233
100
AcDbEntity
8
0
100
AcDbPolyline
90
21
43
0.0
10
11.561429361476856
20
-30.812612333947644
10
11.56239666720508
20
-30.952980871109414
10
11.536916651703049
20
-31.102493598568515
10
11.485028524155988
20
-31.261078191532523
10
11.406856067233306
20
-31.428538607803425
10
11.302656386313974
20
-31.604492409371975
10
11.172870363228414
20
-31.7883056189096
10
11.018175216142735
20
-31.97902452690686
10
10.8395310073093
20
-32.17531652135706
10
10.638210030772589
20
-32.37543631762499
10
10.415771882950283
20
-32.57727262786809
10
9.91483749891434
20
-32.97644328112376
10
9.352571843706636
20
-33.352514743190405
10
8.74546839653861
20
-33.6857986484481
10
8.108713651348213
20
-33.96045683491936
10
7.454244806431745
20
-34.16771119085577
10
6.789437875681262
20
-34.30805367937752
10
6.118021607748632
20
-34.38990745591992
10
5.442197523658264
20
-34.42636831643086
10
4.764834205456177
20
-34.43183643141392
10
3.4333829709279744
20
-34.393828858714414
0
LWPOLYLINE
5
234
100
AcDbEntity
8
0
100
AcDbPolyline
90
5
43
0.0
10
3.433382970927079
20
-34.393828858714386
10
3.0114550805338194
20
-34.371017662591825
10
2.6088649518260945
20
-34.34173388490449
10
2.2308765836319666
20
-34.3042659398809
10
1.8817786933109264
20
-34.25709950619771
0
LWPOLYLINE
5
235
100
AcDbEntity
8
0
100
AcDbPolyline
90
2
43
0.0
10
1.8817786933109215
20
-34.25709950619771
10
1.8523606588342592
20
-34.25242095160302
0
ENDSEC
0
SECTION
2
OBJECTS
0
DICTIONARY
5
C
100
AcDbDictionary
3
ACAD_GROUP
350
D
3
ACAD_MLINESTYLE
350
17
0
DICTIONARY
5
D
100
AcDbDictionary
0
DICTIONARY
5
1A
330
C
100
AcDbDictionary
0
DICTIONARY
5
17
100
AcDbDictionary
0
ENDSEC
0
EOF
