0
SECTION
2
HEADER
9
$INSUNITS
70
4
9
$ACADVER
1
AC1014
9
$HANDSEED
5
FFFF
0
ENDSEC
0
SECTION
2
TABLES
0
TABLE
2
VPORT
5
8
100
AcDbSymbolTable
0
ENDTAB
0
TABLE
2
LTYPE
5
5
100
AcDbSymbolTable
0
LTYPE
5
14
100
AcDbSymbolTableRecord
100
AcDbLinetypeTableRecord
2
BYBLOCK
70
0
0
LTYPE
5
15
100
AcDbSymbolTableRecord
100
AcDbLinetypeTableRecord
2
BYLAYER
70
0
0
LTYPE
5
16
100
AcDbSymbolTableRecord
100
AcDbLinetypeTableRecord
2
DASHED
70
0
3
Dashed __ __ __ __ __ __ __ __ __ __ __ __ __ _
72
65
73
2
40
0.75
49
0.5
74
0
49
-0.25
74
0
0
ENDTAB
0
TABLE
2
LAYER
5
2
100
AcDbSymbolTable
70
2
0
LAYER
5
50
100
AcDbSymbolTableRecord
100
AcDbLayerTableRecord
2
0
70
0
62
7
6
CONTINUOUS
0
ENDTAB
0
TABLE
2
STYLE
5
3
100
AcDbSymbolTable
70
1
0
STYLE
5
11
100
AcDbSymbolTableRecord
100
AcDbTextStyleTableRecord
2
STANDARD
70
0
0
ENDTAB
0
TABLE
2
VIEW
5
6
100
AcDbSymbolTable
70
0
0
ENDTAB
0
TABLE
2
UCS
5
7
100
AcDbSymbolTable
70
0
0
ENDTAB
0
TABLE
2
APPID
5
9
100
AcDbSymbolTable
70
2
0
APPID
5
12
100
AcDbSymbolTableRecord
100
AcDbRegAppTableRecord
2
ACAD
70
0
0
ENDTAB
0
TABLE
2
DIMSTYLE
5
A
100
AcDbSymbolTable
70
1
0
ENDTAB
0
TABLE
2
BLOCK_RECORD
5
1
100
AcDbSymbolTable
70
1
0
BLOCK_RECORD
5
1F
100
AcDbSymbolTableRecord
100
AcDbBlockTableRecord
2
*MODEL_SPACE
0
BLOCK_RECORD
5
1B
100
AcDbSymbolTableRecord
100
AcDbBlockTableRecord
2
*PAPER_SPACE
0
ENDTAB
0
ENDSEC
0
SECTION
2
BLOCKS
0
BLOCK
5
20
100
AcDbEntity
100
AcDbBlockBegin
2
*MODEL_SPACE
0
ENDBLK
5
21
100
AcDbEntity
100
AcDbBlockEnd
0
BLOCK
5
1C
100
AcDbEntity
100
AcDbBlockBegin
2
*PAPER_SPACE
0
ENDBLK
5
1D
100
AcDbEntity
100
AcDbBlockEnd
0
ENDSEC
0
SECTION
2
ENTITIES
0
LWPOLYLINE
5
100
100
AcDbEntity
8
0
100
AcDbPolyline
90
7
43
0.0
10
-5.630375748365055
20
27.348064377797794
10
-5.537048263030749
20
27.77087852940893
10
-5.4530135587867035
20
28.170268217329333
10
-5.432045494886461
20
28.35398293935506
10
-5.4389654875564135
20
28.526621243210457
10
-5.483754892007813
20
28.688877583948738
10
-5.57371939022167
20
28.841419686590815
0
LWPOLYLINE
5
101
100
AcDbEntity
8
0
100
AcDbPolyline
90
13
43
0.0
10
-5.573719390221674
20
28.84141968659082
10
-5.670879984121023
20
28.94782440130859
10
-5.793173049431328
20
29.04847006018816
10
-6.10115005335672
20
29.22903035265362
10
-6.46299186539443
20
29.374013923349622
10
-6.834948554836471
20
29.472668169256668
10
-7.1753899018078116
20
29.51518323862646
10
-7.323980785964006
20
29.513198024936553
10
-7.454882449843283
20
29.495056349220683
10
-7.566679350884964
20
29.460517157394726
10
-7.658561018275278
20
29.409477361565568
10
-7.7301569220393445
20
29.34192328906495
10
-7.781363419715499
20
29.257880666743354
0
LWPOLYLINE
5
102
100
AcDbEntity
8
0
100
AcDbPolyline
90
9
43
0.0
10
-7.7813634197154995
20
29.25788066674335
10
-8.085763073199491
20
29.31858939926097
10
-8.445495257238923
20
29.354718181485204
10
-8.858295262766056
20
29.365170527307864
10
-9.317409596376015
20
29.34745511253594
10
-9.809165504386648
20
29.297219611952922
10
-10.312389924995815
20
29.208757273818055
10
-10.800183065764326
20
29.076746107990232
10
-11.242081431514654
20
28.89824274639836
0
LWPOLYLINE
5
103
100
AcDbEntity
8
0
100
AcDbPolyline
90
9
43
0.0
10
-11.242081431514684
20
28.898242746398353
10
-11.4360012485117
20
28.791697263923172
10
-11.606489910751991
20
28.674497890288812
10
-11.749860702504069
20
28.54772236564027
10
-11.862895840706829
20
28.41275866907836
10
-11.943061548439506
20
28.271255713784615
10
-11.988721792537621
20
28.125076242862406
10
-11.999369165808979
20
27.97625156957792
10
-11.975828385045345
20
27.826933409593504
0
LWPOLYLINE
5
104
100
AcDbEntity
8
0
100
AcDbPolyline
90
11
43
0.0
10
-11.975828385045316
20
27.826933409593416
10
-11.905439998633529
20
27.64981854415927
10
-11.794787631113733
20
27.478944642518805
10
-11.651245339450785
20
27.317740205730434
10
-11.482759998616938
20
27.16904836993982
10
-11.10030377188075
20
26.91607799472587
10
-10.692894709094853
20
26.723084440759294
10
-10.285258916595353
20
26.580135902052604
10
-9.888337452957554
20
26.47338723709096
10
-9.5064165539065
20
26.3930980416007
10
-9.140930157702288
20
26.335228315206887
0
LWPOLYLINE
5
105
100
AcDbEntity
8
0
100
AcDbPolyline
90
16
43
0.0
10
-9.14093015770229
20
26.335228315206887
10
-9.217815122079234
20
26.17521795642895
10
-9.298632073531367
20
25.988312396524666
10
-9.383255126894245
20
25.774436465019992
10
-9.471242624149866
20
25.534158628530765
10
-9.561622391622496
20
25.269359656193394
10
-9.652666052103111
20
24.98395916654294
10
-9.824953461222277
20
24.38095860981012
10
-9.898273844052644
20
24.084067043067723
10
-9.957162012008293
20
23.805867965291625
10
-9.997381440816845
20
23.55772142087634
10
-10.015375069181662
20
23.34928584755254
10
-10.008743382025848
20
23.187299638002187
10
-9.976401863128375
20
23.07515414382804
10
-9.918170694458052
20
23.013848854208486
10
-9.83426050683924
20
23.003214128285407
0
LWPOLYLINE
5
106
100
AcDbEntity
8
0
100
AcDbPolyline
90
3
43
0.0
10
-9.83426050683924
20
23.003214128285414
10
-9.799553137912444
20
22.899322009707046
10
-9.699999783188105
20
22.79999949038029
0
LINE
5
107
100
AcDbEntity
8
0
100
AcDbLine
10
-9.6999997831881064
20
22.799999490380291
30
0
11
-9.7999997809529305
21
22.799999490380287
31
0
0
LINE
5
108
100
AcDbEntity
8
0
100
AcDbLine
10
-9.7999997809529305
20
22.799999490380287
30
0
11
-10.099999774247408
21
22.199999503791332
31
0
0
LWPOLYLINE
5
109
100
AcDbEntity
8
0
100
AcDbPolyline
90
9
43
0.0
10
-10.099999774247408
20
22.199999503791332
10
-10.235064648541504
20
22.245997594919594
10
-10.373954410661815
20
22.216047596175105
10
-10.514126201583668
20
22.112841076692792
10
-10.648685585508924
20
21.9521474472314
10
-10.767205435309176
20
21.762079021686443
10
-10.860037049909048
20
21.570769983307276
10
-10.922479181521894
20
21.395233017547287
10
-10.954193359316275
20
21.24101082810077
0
LWPOLYLINE
5
110
100
AcDbEntity
8
0
100
AcDbPolyline
90
23
43
0.0
10
-10.954193359316276
20
21.241010828100766
10
-10.97290219294563
20
21.2646748026827
10
-11.008538238883549
20
21.271370220859684
10
-11.063011210284339
20
21.253071428531303
10
-11.138117209266612
20
21.200330189996343
10
-11.234321784764738
20
21.10570471137653
10
-11.349738853180016
20
20.966709989154605
10
-11.479957415219083
20
20.786712699267227
10
-11.618741394617832
20
20.573710571582353
10
-11.892521535152207
20
20.095586208606868
10
-12.01281585536992
20
19.85720473349318
10
-12.113813801278216
20
19.63653924855717
10
-12.19166935011086
20
19.44405320631114
10
-12.245347028453883
20
19.286545126249532
10
-12.277347133921044
20
19.165832524816157
10
-12.293684497850052
20
19.078394684149686
10
-12.312704922848834
20
18.970915471429592
10
-12.364151122363495
20
18.887268369528496
10
-12.471743492362556
20
18.765746834678303
10
-12.617584793638205
20
18.582014610072257
10
-12.929080932810185
20
18.09947575343579
10
-13.085461360809271
20
17.884769004462814
10
-13.245181516132432
20
17.731898570303322
0
LWPOLYLINE
5
111
100
AcDbEntity
8
0
100
AcDbPolyline
90
7
43
0.0
10
-13.245181516132433
20
17.731898570303326
10
-13.369540016256503
20
17.938076419206055
10
-13.461329026101033
20
18.03779399872335
10
-13.575142030509694
20
18.1350039428117
10
-13.711532386774229
20
18.229643246623407
10
-13.869173008685785
20
18.321863011192395
10
-14.240303683421565
20
18.49994356618171
0
LWPOLYLINE
5
112
100
AcDbEntity
8
0
100
AcDbPolyline
90
14
43
0.0
10
-14.240303683421564
20
18.49994356618171
10
-14.044261791616428
20
18.876579400647795
10
-13.854809561310043
20
19.306922706332
10
-13.685744478747381
20
19.792233185477304
10
-13.618538593580428
20
20.05481563317581
10
-13.570298023425792
20
20.329681718555996
10
-13.546966622240358
20
20.615870650009306
10
-13.553950139539124
20
20.91238305454552
10
-13.595322730460678
20
21.218265137993306
10
-13.673346317700902
20
21.5326683715925
10
-13.788745370687554
20
21.854885909610235
10
-13.941311149336546
20
22.184370944516385
10
-14.13040395758939
20
22.520743412791795
10
-14.355389719525952
20
22.86378576055025
0
LWPOLYLINE
5
113
100
AcDbEntity
8
0
100
AcDbPolyline
90
24
43
0.0
10
-14.355389719525952
20
22.86378576055025
10
-14.264811203615665
20
22.9695770598557
10
-14.196991955653317
20
23.08147489214591
10
-14.152022323935206
20
23.19945047720933
10
-14.129993420600258
20
23.323390126619607
10
-14.130942448695224
20
23.453035964041064
10
-14.154798349076431
20
23.587930108756428
10
-14.201323395144994
20
23.727355430710368
10
-14.270045088999904
20
23.87026428574287
10
-14.360202484342182
20
24.015233638978874
10
-14.47072433470329
20
24.160474816543484
10
-14.747166691804173
20
24.443317983103267
10
-15.085652200385272
20
24.700838609650447
10
-15.469325814572365
20
24.915763893058347
10
-15.878966976021271
20
25.074950061706627
10
-16.293670608015177
20
25.172762681402368
10
-16.6918609343885
20
25.211974355733695
10
-17.052846715087632
20
25.201138086335437
10
-17.35854442330615
20
25.15133656450405
10
-17.595300044882165
20
25.073055768454687
10
-17.68518093380239
20
25.02565889698307
10
-17.75537573509928
20
24.97355763734458
10
-17.805689791451133
20
24.91709852975035
10
-17.836082654225933
20
24.85647856783219
0
LINE
5
114
100
AcDbEntity
8
0
100
AcDbLine
10
-17.836082654225937
20
24.856478567832191
30
0
11
-17.846541521999889
21
24.784855637026517
31
0
0
LWPOLYLINE
5
115
100
AcDbEntity
8
0
100
AcDbPolyline
90
2
43
0.0
10
-17.846541521999885
20
24.784855637026517
10
-17.83608265422599
20
24.85647856783203
0
LINE
5
116
100
AcDbEntity
8
0
100
AcDbLine
10
-17.836082654225937
20
24.856478567832191
30
0
11
-17.762383478329738
21
25.361174782540459
31
0
0
LWPOLYLINE
5
117
100
AcDbEntity
8
0
100
AcDbPolyline
90
17
43
0.0
10
-17.76238347832974
20
25.36117478254046
10
-17.83740531260827
20
25.471884976415264
10
-17.956528082229752
20
25.57139320980851
10
-18.11939278479836
20
25.659839892099054
10
-18.32381620630129
20
25.73787669759684
10
-18.5646455023856
20
25.80630298382273
10
-18.833196930374523
20
25.86412224221933
10
-19.116800809598587
20
25.906051004038154
10
-19.39851850889276
20
25.92063262091261
10
-19.658784678536907
20
25.89299044050429
10
-19.8789907501313
20
25.81218394904355
10
-20.045364690492764
20
25.6792592080149
10
-20.151640324784243
20
25.511979591395725
10
-20.19765611926191
20
25.33855250813536
10
-20.186091720792557
20
25.186104241903283
10
-20.119659166467365
20
25.07124449236675
10
-19.999999552965164
20
24.999999441206455
0
LWPOLYLINE
5
118
100
AcDbEntity
8
0
100
AcDbPolyline
90
17
43
0.0
10
-19.999999552965164
20
24.999999441206455
10
-20.33987113819733
20
24.942619665839437
10
-20.681098187418513
20
24.837464623335602
10
-21.022501386899616
20
24.68590923385334
10
-21.36100315832245
20
24.491866723733768
10
-21.690914252572718
20
24.262712293648104
10
-22.004685100886245
20
24.007354082405257
10
-22.294893723047597
20
23.731893275065136
10
-22.556342748938718
20
23.435079156333103
10
-22.787192061856622
20
23.10602879098884
10
-22.98719602999646
20
22.728745216011063
10
-23.154618821933735
20
22.289747020560398
10
-23.283201688737698
20
21.785669666906408
10
-23.361334481000195
20
21.22726001228049
10
-23.375701737281517
20
20.636034044857226
10
-23.316323961086724
20
20.03868972174713
10
-23.181663020980213
20
19.461484411986028
0
LWPOLYLINE
5
119
100
AcDbEntity
8
0
100
AcDbPolyline
90
9
43
0.0
10
-23.181663020980228
20
19.46148441198606
10
-23.320293789294883
20
19.5254926978013
10
-23.47312196600625
20
19.554198035575023
10
-23.636368154099447
20
19.550391720555677
10
-23.79829832534197
20
19.525925016565306
10
-23.93870176878967
20
19.50300450468154
10
-24.03655284062567
20
19.50545320927209
10
-24.079399871487617
20
19.54821243997764
10
-24.06484864705663
20
19.63527041589906
0
LWPOLYLINE
5
120
100
AcDbEntity
8
0
100
AcDbPolyline
90
25
43
0.0
10
-24.064848647056635
20
19.63527041589906
10
-24.088869584044748
20
19.711850429518744
10
-24.124330692054034
20
19.76361628945816
10
-24.1910506536402
20
19.81916664661432
10
-24.299263338115857
20
19.87360831342534
10
-24.4534648426402
20
19.92193419545952
10
-24.65083151046309
20
19.959420181849516
10
-24.88245926027649
20
19.98180817609033
10
-25.1353435967698
20
19.985433476727152
10
-25.394142530807695
20
19.96737226696002
10
-25.643047634249847
20
19.925585396686103
10
-25.86759730063414
20
19.8590706828661
10
-26.05653183429784
20
19.76802820660736
10
-26.20350837000173
20
19.654004016024075
10
-26.307693122174832
20
19.519842772962566
10
-26.372671523134706
20
19.36934659963897
10
-26.405052772672292
20
19.20688324188773
10
-26.41309282723981
20
19.03699764376216
10
-26.389201931992552
20
18.691714369949263
10
-26.3500402120005
20
18.35933594353766
10
-26.309700606754493
20
18.05164466392873
10
-26.258582924221468
20
17.770447704697514
10
-26.180640933168284
20
17.5133745773802
10
-26.065773589173304
20
17.278213915107003
10
-25.910506645793472
20
17.06387851105271
0
LINE
5
121
100
AcDbEntity
8
0
100
AcDbLine
10
-25.910506645793472
20
17.06387851105271
30
0
11
-24.939000907126676
21
16.49999963119626
31
0
0
LINE
5
122
100
AcDbEntity
8
0
100
AcDbLine
10
-24.939000907126676
20
16.49999963119626
30
0
11
-24.939000907126676
21
16.07631842204588
31
0
0
LWPOLYLINE
5
123
100
AcDbEntity
8
0
100
AcDbPolyline
90
16
43
0.0
10
-24.939000907126676
20
16.076318422045876
10
-24.82752602567161
20
15.957378303068916
10
-24.69319093060024
20
15.867917823820049
10
-24.535346688552277
20
15.808440514539207
10
-24.352950379008018
20
15.779423223502894
10
-24.1449662512063
20
15.78082559520022
10
-23.9120564646322
20
15.811083614275434
10
-23.39758334269396
20
15.936134986435093
10
-23.146022474357153
20
16.009257269499546
10
-22.925077715733373
20
16.070802877317714
10
-22.75162337983976
20
16.108844319357726
10
-22.632939991920036
20
16.117418254360118
10
-22.565686647199968
20
16.0972257181536
10
-22.54165718788331
20
16.052242456271493
10
-22.55412179110106
20
15.985956862040164
10
-22.59999949485064
20
15.899999644607306
0
LINE
5
124
100
AcDbEntity
8
0
100
AcDbLine
10
-22.599999494850639
20
15.899999644607306
30
0
11
-23.457751196733632
21
14.723077945884334
31
0
0
LWPOLYLINE
5
125
100
AcDbEntity
8
0
100
AcDbPolyline
90
9
43
0.0
10
-23.457751196733632
20
14.723077945884334
10
-23.351417482256682
20
14.533957999153277
10
-23.196485094973525
20
14.393264949193133
10
-22.994849541869574
20
14.30160115497291
10
-22.75282110762242
20
14.259200458647529
10
-22.483831453280878
20
14.2651944729232
10
-22.20857370131194
20
14.317235513883574
10
-21.950647764593743
20
14.41179145710332
10
-21.7310547191909
20
14.544540874642745
0
LWPOLYLINE
5
126
100
AcDbEntity
8
0
100
AcDbPolyline
90
2
43
0.0
10
-21.731054719190894
20
14.544540874642736
10
-21.713286118914024
20
14.558532639385279
0
LWPOLYLINE
5
127
100
AcDbEntity
8
0
100
AcDbPolyline
90
7
43
0.0
10
-21.713286118913402
20
14.558532639385348
10
-21.54812897583229
20
14.729830984927261
10
-21.43646630189273
20
14.929720002634676
10
-21.369844414446877
20
15.153235170445667
10
-21.336000926452872
20
15.39601942261483
10
-21.325444110296544
20
15.926870516931059
10
-21.35774461198287
20
16.507224342575828
0
LWPOLYLINE
5
128
100
AcDbEntity
8
0
100
AcDbPolyline
90
9
43
0.0
10
-21.35774461198287
20
16.50722434257583
10
-21.099035886809013
20
16.330379903308224
10
-20.79947427434354
20
16.172457706774956
10
-20.461798186929204
20
16.036313369030193
10
-20.09019243852482
20
15.924883615079883
10
-19.68812069632438
20
15.84030706399914
10
-19.257787314093008
20
15.783803670620442
10
-18.80041130700046
20
15.755930419686882
10
-18.316515455039458
20
15.756840075216981
0
LWPOLYLINE
5
129
100
AcDbEntity
8
0
100
AcDbPolyline
90
5
43
0.0
10
-18.31651545503946
20
15.75684007521698
10
-18.343998131307632
20
15.577250160173925
10
-18.34884298977891
20
15.40834055088362
10
-18.33365151363845
20
15.249442168520853
10
-18.29999959096312
20
15.099999662488695
0
LWPOLYLINE
5
130
100
AcDbEntity
8
0
100
AcDbPolyline
90
9
43
0.0
10
-18.29999959096312
20
15.099999662488695
10
-17.915120803294947
20
15.133178484907145
10
-17.55817493871388
20
15.1323467830805
10
-17.231799611120646
20
15.094293055261275
10
-16.93926834013857
20
15.01503153462154
10
-16.6826142915627
20
14.892086682382054
10
-16.460872074550917
20
14.726633937601013
10
-16.271220076764806
20
14.522108834563753
10
-16.11111031538335
20
14.281613742161172
0
LWPOLYLINE
5
131
100
AcDbEntity
8
0
100
AcDbPolyline
90
9
43
0.0
10
-16.111110315379236
20
14.281613742167197
10
-16.40573089966068
20
13.83779914184641
10
-16.668126341960523
20
13.418723209636926
10
-16.898854729629377
20
13.027202638229106
10
-17.099095072895594
20
12.665905255038986
10
-17.27030664689937
20
12.336898098745348
10
-17.414046715866828
20
12.041079670994332
10
-17.531766044627453
20
11.778143192468297
10
-17.624494641047047
20
11.547355967453258
0
LWPOLYLINE
5
132
100
AcDbEntity
8
0
100
AcDbPolyline
90
5
43
0.0
10
-17.624494641047043
20
11.547355967453258
10
-17.687603669451423
20
11.590410629929314
10
-17.74353241847531
20
11.658194684265055
10
-17.791508281076823
20
11.753369043757527
10
-17.832433666579835
20
11.872825746548054
0
LWPOLYLINE
5
133
100
AcDbEntity
8
0
100
AcDbPolyline
90
18
43
0.0
10
-17.832433666579835
20
11.872825746548056
10
-18.009717450976908
20
11.767756757410147
10
-18.155152023853756
20
11.659018474773177
10
-18.26631575015317
20
11.547450260424183
10
-18.337871457173254
20
11.435319385227105
10
-18.363195595923674
20
11.326092339125555
10
-18.34295469944295
20
11.221688671809007
10
-18.251184368066813
20
11.015214298320918
10
-18.239887478292903
20
10.91300457459448
10
-18.271003487446194
20
10.829410077724772
10
-18.337167612260917
20
10.777564853116743
10
-18.42204052368255
20
10.744780909679275
10
-18.507358943336012
20
10.693433029518586
10
-18.57841031533666
20
10.584769428143126
10
-18.605837566881736
20
10.501345476889595
10
-18.627161298631094
20
10.396604041352303
10
-18.642171483154264
20
10.269990866996507
10
-18.650804087579445
20
10.121350437283123
0
LWPOLYLINE
5
134
100
AcDbEntity
8
0
100
AcDbPolyline
90
9
43
0.0
10
-18.650804087579445
20
10.121350437283123
10
-18.735101951815068
20
10.042637766799677
10
-18.806885018744293
20
9.941224653663166
10
-18.865105891579297
20
9.815211237240925
10
-18.90865404546382
20
9.662583149643694
10
-18.93726804010873
20
9.482866167424042
10
-18.951914588644918
20
9.277813800080136
10
-18.954004760392333
20
9.049985569539603
10
-18.9446456747178
20
8.80138966650977
0
LWPOLYLINE
5
135
100
AcDbEntity
8
0
100
AcDbPolyline
90
5
43
0.0
10
-18.944645674717805
20
8.80138966650977
10
-19.003605958177623
20
8.797728150744842
10
-19.049588363869727
20
8.763955796430132
10
-19.081180020157362
20
8.696794505944279
10
-19.099999573081732
20
8.599999807775019
0
LWPOLYLINE
5
136
100
AcDbEntity
8
0
100
AcDbPolyline
90
19
43
0.0
10
-19.099999573081732
20
8.59999980777502
10
-19.15581700201119
20
8.63200569029476
10
-19.20636887362561
20
8.644125526056694
10
-19.25159625839789
20
8.636430147478608
10
-19.291381424069943
20
8.60923886761429
10
-19.35376657296346
20
8.499930142541382
10
-19.390991300096974
20
8.329583945029679
10
-19.399549531546548
20
8.122635474021006
10
-19.3759681079266
20
7.914729374537077
10
-19.321705379297267
20
7.743235648072142
10
-19.253037123617275
20
7.625236975692965
10
-19.20553319359922
20
7.540628203331636
10
-19.20693322809072
20
7.4525788884886435
10
-19.235426977847524
20
7.349148172629015
10
-19.23369387613228
20
7.247542244339129
10
-19.174517746621603
20
7.161864069690391
10
-19.084122816331796
20
7.087532665122991
10
-19.001281500454635
20
7.013910713279581
10
-18.944645674717805
20
6.935640668874498
0
LWPOLYLINE
5
137
100
AcDbEntity
8
0
100
AcDbPolyline
90
9
43
0.0
10
-18.944645674717805
20
6.935640668874498
10
-18.968407209369882
20
6.694084826983231
10
-18.9593603479637
20
6.421188732914911
10
-18.91630513809359
20
6.116850710002596
10
-18.839964039740497
20
5.78435967013339
10
-18.733255523850264
20
5.4301780083027635
10
-18.599837259649153
20
5.0609176479311495
10
-18.443097544150284
20
4.681056737042009
10
-18.265357988507862
20
4.292711954425796
0
LWPOLYLINE
5
138
100
AcDbEntity
8
0
100
AcDbPolyline
90
5
43
0.0
10
-18.265357988507862
20
4.292711954425796
10
-18.329046771
20
3.762013907098401
10
-18.432405267631093
20
3.285450105649114
10
-18.580888639157926
20
2.8704647935805188
10
-18.77046934492038
20
2.51156189201999
0
LWPOLYLINE
5
139
100
AcDbEntity
8
0
100
AcDbPolyline
90
9
43
0.0
10
-18.770469344920382
20
2.5115618920199902
10
-18.879994372278244
20
2.5347317712997834
10
-18.997056118492477
20
2.5017869361470817
10
-19.122221116864957
20
2.4085092572968256
10
-19.255987068115672
20
2.251193099174438
10
-19.398240099905653
20
2.0306862994749038
10
-19.548233585932753
20
1.7525478717903147
10
-19.705087937619407
20
1.423326801654855
10
-19.868159731047918
20
1.0478137082817274
0
LWPOLYLINE
5
140
100
AcDbEntity
8
0
100
AcDbPolyline
90
9
43
0.0
10
-19.868159731047918
20
1.0478137082817274
10
-19.845043080849106
20
1.5213443249489313
10
-19.83027704467018
20
1.9648100316829722
10
-19.82469015336018
20
2.375227849587641
10
-19.82936788460161
20
2.7486897081058306
10
-19.845124795521443
20
3.0822629382602327
10
-19.871888858830136
20
3.37620686157438
10
-19.90889467627391
20
3.633277159184619
10
-19.95537753636936
20
3.8562270396322296
0
LWPOLYLINE
5
141
100
AcDbEntity
8
0
100
AcDbPolyline
90
9
43
0.0
10
-19.955377536369358
20
3.8562270396322296
10
-20.254733373096325
20
3.7655423934885133
10
-20.524500766248934
20
3.664558735285496
10
-20.76183621200036
20
3.5522863110294405
10
-20.963140135688317
20
3.4274721969984867
10
-21.12600519435635
20
3.2892784561084114
10
-21.251201003681437
20
3.1379729727145897
10
-21.341630714085547
20
2.97456626232855
10
-21.399999521672726
20
2.799999937415122
0
LINE
5
142
100
AcDbEntity
8
0
100
AcDbLine
10
-21.399999521672726
20
2.7999999374151225
30
0
11
-20.401981555957818
21
0.44104838208897768
31
0
0
LWPOLYLINE
5
143
100
AcDbEntity
8
0
100
AcDbPolyline
90
21
43
0.0
10
-20.401981555957818
20
0.4410483820889763
10
-20.422197815846687
20
0.43163066358831415
10
-20.486834991724837
20
0.4047250055806902
10
-20.592733579115066
20
0.37688791911342817
10
-20.732053112418715
20
0.385463317347132
10
-20.811203500548377
20
0.4176475660895222
10
-20.895354842213283
20
0.4747209379021691
10
-20.98399697564448
20
0.5592588399294851
10
-21.077065425696784
20
0.6717749990143185
10
-21.174834198959708
20
0.8110311726669857
10
-21.277793813153558
20
0.9743980597498915
10
-21.50159850735643
20
1.3581091344250003
10
-21.752092847462976
20
1.787359870764833
10
-22.028633937708555
20
2.2262329788027424
10
-22.324528468006324
20
2.645384276091398
10
-22.628805042300247
20
3.022669266613006
10
-22.928871964476517
20
3.3422142896070697
10
-23.21315410290192
20
3.5936226575786083
10
-23.473543547571484
20
3.7712882835417205
10
-23.593414499761803
20
3.8317611040310884
10
-23.706083941090846
20
3.873258399224917
0
LWPOLYLINE
5
144
100
AcDbEntity
8
0
100
AcDbPolyline
90
18
43
0.0
10
-23.70608394109085
20
3.8732583992249174
10
-23.834140425396395
20
3.9409166855433386
10
-23.932914999264955
20
4.036615371360126
10
-24.045110662914457
20
4.156361342224158
10
-24.125733626784047
20
4.2171103279032875
10
-24.226961804620124
20
4.2660129492457
10
-24.344553095038734
20
4.28756285220852
10
-24.470413993181015
20
4.264260400851569
10
-24.59560014323281
20
4.180186701563409
10
-24.712962076333
20
4.024183876447484
10
-24.767212584047417
20
3.917211807703756
10
-24.81799713621394
20
3.7903926566763624
10
-24.865072046340934
20
3.643567314644554
10
-24.9082814385077
20
3.4767117243274717
10
-24.947537770031712
20
3.2898925124306166
10
-24.982803134966044
20
3.083225430216834
10
-25.0140712547332
20
2.85683633912593
10
-25.041350117521723
20
2.6108246882312325
0
LWPOLYLINE
5
145
100
AcDbEntity
8
0
100
AcDbPolyline
90
14
43
0.0
10
-25.041350117521723
20
2.610824688231233
10
-25.032746501737748
20
2.566749576736579
10
-25.00539038311976
20
2.495466187528356
10
-24.959328756042744
20
2.397112175562419
10
-24.8947803151027
20
2.272186690874934
10
-24.812256060966114
20
2.1217800641464546
10
-24.712684341191235
20
1.9478134360340642
10
-24.597506694604267
20
1.7531935854069853
10
-24.468682334534464
20
1.5417082063674248
10
-24.180274606521415
20
1.0862838536094772
10
-23.87194425442319
20
0.6204415669785801
10
-23.573938727395607
20
0.18195208355809933
10
-23.439540534091194
20
-0.017405283327298925
10
-23.320848708342496
20
-0.1999999955296872
0
LINE
5
146
100
AcDbEntity
8
0
100
AcDbLine
10
-23.320848708342496
20
-0.1999999955296872
30
0
11
-23.599999472498894
21
-0.19999999552965164
31
0
0
LWPOLYLINE
5
147
100
AcDbEntity
8
0
100
AcDbPolyline
90
27
43
0.0
10
-23.599999472498894
20
-0.19999999552965164
10
-23.863753400900734
20
-0.09391007231552076
10
-24.1060304203924
20
0.005730769966996133
10
-24.3268607675346
20
0.09882153197620057
10
-24.52646418850973
20
0.18514152110495163
10
-24.70539570575342
20
0.2643067657175789
10
-24.86470354366917
20
0.3357232696288286
10
-25.132040336897425
20
0.45162020517520207
10
-25.35271189695531
20
0.5222128402248293
10
-25.56658288813343
20
0.5317532569889667
10
-25.68569836693893
20
0.5082924303226105
10
-25.82019635908149
20
0.4637100800729216
10
-25.974226507430895
20
0.3970414650615862
10
-26.150201899380612
20
0.3082536582464317
10
-26.348469667982588
20
0.1983888807915779
10
-26.567408039506265
20
0.06949492739315524
10
-27.05296483014027
20
-0.23328689872449954
10
-27.567647489106555
20
-0.5709425539302184
10
-28.062892205199923
20
-0.9105892375129717
10
-28.288149047127053
20
-1.0713357319544174
10
-28.491599338696112
20
-1.2216094706537806
10
-28.66932978943895
20
-1.358906242032886
10
-28.81858765859729
20
-1.4814509044059594
10
-28.93760770337993
20
-1.5880894342062675
10
-29.025371150279387
20
-1.6781416389141464
10
-29.081409529982686
20
-1.751279880112845
10
-29.10560327482747
20
-1.8074047424851865
0
LINE
5
148
100
AcDbEntity
8
0
100
AcDbLine
10
-29.10560327482747
20
-1.8074047424851867
30
0
11
-29.105603274827452
21
-3.1299033044306235
31
0
0
LWPOLYLINE
5
149
100
AcDbEntity
8
0
100
AcDbPolyline
90
9
43
0.0
10
-29.105603274827452
20
-3.1299033044306244
10
-28.65971818989515
20
-2.998905385077438
10
-28.22222091549785
20
-2.8493001455951585
10
-27.79386844998387
20
-2.679408278773621
10
-27.37555078576162
20
-2.487255446528747
10
-26.967703204434542
20
-2.271876030454016
10
-26.56987657990481
20
-2.0342663612365492
10
-26.181175086916827
20
-1.776413716394486
10
-25.800840571616444
20
-1.4999999664723873
0
LWPOLYLINE
5
150
100
AcDbEntity
8
0
100
AcDbPolyline
90
5
43
0.0
10
-25.800840571616444
20
-1.4999999664723873
10
-25.24001472000929
20
-1.525071390341763
10
-24.64668630492205
20
-1.4975066051385972
10
-24.01754224782286
20
-1.4119402527153735
10
-23.356804152463603
20
-1.2752090005344943
0
LWPOLYLINE
5
151
100
AcDbEntity
8
0
100
AcDbPolyline
90
16
43
0.0
10
-23.356804152463603
20
-1.275209000534494
10
-23.625196754062955
20
-1.5116871473505102
10
-23.87524695709001
20
-1.7609468361400087
10
-24.10616298869335
20
-2.0224053249765617
10
-24.316392624106893
20
-2.2941709588794197
10
-24.50344729346382
20
-2.5722022905649045
10
-24.66374940191692
20
-2.8494103936199626
10
-24.792671039603857
20
-3.115121142414802
10
-24.885389180659455
20
-3.356480991059354
10
-24.938374871666444
20
-3.561323417654408
10
-24.951022133907088
20
-3.7212145870760494
10
-24.92727211929437
20
-3.834441941656841
10
-24.875546773302943
20
-3.906488837603943
10
-24.805982122835303
20
-3.9465358939737216
10
-24.727117558697994
20
-3.9631643886040666
10
-24.558130189247446
20
-3.9439585291186856
0
LINE
5
152
100
AcDbEntity
8
0
100
AcDbLine
10
-24.55813018924745
20
-3.9439585291186856
30
0
11
-23.246348927207507
21
-3.8983174325978354
31
0
0
LINE
5
153
100
AcDbEntity
8
0
100
AcDbLine
10
-23.246348927207507
20
-3.8983174325978354
30
0
11
-23.299999479204416
21
-4.6999998949468136
31
0
0
LINE
5
154
100
AcDbEntity
8
0
100
AcDbLine
10
-23.299999479204416
20
-4.6999998949468136
30
0
11
-23.744316558572351
21
-4.1523825506411249
31
0
0
LINE
5
155
100
AcDbEntity
8
0
100
AcDbLine
10
-23.744316558572351
20
-4.1523825506411249
30
0
11
-23.899999465793371
21
-4.1523825506411249
31
0
0
LWPOLYLINE
5
156
100
AcDbEntity
8
0
100
AcDbPolyline
90
5
43
0.0
10
-23.89999946579337
20
-4.152382550641123
10
-23.92484287289492
20
-4.494860011013605
10
-23.918051807942184
20
-4.828967456900546
10
-23.87580113693064
20
-5.153692814276988
10
-23.80173966936006
20
-5.470001504274543
0
LWPOLYLINE
5
157
100
AcDbEntity
8
0
100
AcDbPolyline
90
13
43
0.0
10
-23.801739669360053
20
-5.470001504274543
10
-23.876389305084746
20
-5.491013847055995
10
-23.93048478215283
20
-5.489443894732934
10
-23.99265930278861
20
-5.4314577022587756
10
-24.065009231691327
20
-5.360360092645073
10
-24.132148086165042
20
-5.342419380368734
10
-24.221518042859927
20
-5.336850243167253
10
-24.440228605542533
20
-5.334792974837017
10
-24.67083176084064
20
-5.293500003706371
10
-24.78208166074078
20
-5.2439769931803415
10
-24.88876960098782
20
-5.171219486612181
10
-24.99039005945417
20
-5.074267882005643
10
-25.08680686143903
20
-4.953020449989897
0
LWPOLYLINE
5
158
100
AcDbEntity
8
0
100
AcDbPolyline
90
9
43
0.0
10
-25.08680686143903
20
-4.953020449989897
10
-25.04501215745643
20
-5.250376604192728
10
-24.992168772681318
20
-5.52964229242504
10
-24.927230954038794
20
-5.789105259543854
10
-24.848897329448807
20
-6.02663471474431
10
-24.756351153930932
20
-6.240893367391694
10
-24.649962061664183
20
-6.432486434946769
10
-24.53084209641884
20
-6.603234713069082
10
-24.3999994546175
20
-6.754788963823832
0
LINE
5
159
100
AcDbEntity
8
0
100
AcDbLine
10
-24.3999994546175
20
-6.7547889638238328
30
0
11
-24.579842033750872
21
-6.7547889638238345
31
0
0
LINE
5
160
100
AcDbEntity
8
0
100
AcDbLine
10
-24.579842033750872
20
-6.7547889638238345
30
0
11
-24.844069756515893
21
-6.480398636337088
31
0
0
LWPOLYLINE
5
161
100
AcDbEntity
8
0
100
AcDbPolyline
90
9
43
0.0
10
-24.84406975651589
20
-6.480398636337085
10
-25.134577657870153
20
-6.450323685375092
10
-25.391394207644254
20
-6.430285084992293
10
-25.611071689107344
20
-6.421309878992494
10
-25.788948618814715
20
-6.42478668136763
10
-25.921185633694304
20
-6.441859203848047
10
-26.00742293569848
20
-6.472634627044794
10
-26.050475267070222
20
-6.516274464572925
10
-26.053419718401937
20
-6.571862078832669
0
LINE
5
162
100
AcDbEntity
8
0
100
AcDbLine
10
-26.053419718401937
20
-6.5718620788326687
30
0
11
-24.299999456852674
21
-7.5999998301267624
31
0
0
LWPOLYLINE
5
163
100
AcDbEntity
8
0
100
AcDbPolyline
90
21
43
0.0
10
-24.299999456852674
20
-7.599999830126762
10
-24.338974490066846
20
-7.730111022971103
10
-24.355354311196436
20
-7.870412395717389
10
-24.349056727767106
20
-8.020814615080436
10
-24.3200215075285
20
-8.18101413171276
10
-24.268278106824834
20
-8.35036165488788
10
-24.19401768630075
20
-8.527724124217396
10
-24.097660966993722
20
-8.71136747568368
10
-23.979881291473298
20
-8.898990504233607
10
-23.683945929434486
20
-9.275037170208304
10
-23.31622900553866
20
-9.632074152179385
10
-22.8901757999999
20
-9.947559898746446
10
-22.42231652128196
20
-10.204616785285813
10
-21.93112230007579
20
-10.393481055446012
10
-21.435461597177117
20
-10.51152339385173
10
-20.953093160270132
20
-10.563359167083282
10
-20.499418618193232
20
-10.559853041868497
10
-20.08670050979375
20
-10.51465559468044
10
-19.72333836999348
20
-10.440079975820623
10
-19.413447245144628
20
-10.343857382995534
10
-19.15803321547799
20
-10.229192429806902
0
LWPOLYLINE
5
164
100
AcDbEntity
8
0
100
AcDbPolyline
90
12
43
0.0
10
-19.15803321547799
20
-10.2291924298069
10
-19.13945826101496
20
-10.257668050052247
10
-19.094448765777106
20
-10.264361556600377
10
-19.022909153495153
20
-10.248993397587462
10
-18.92534245412203
20
-10.211451783471093
10
-18.80348204880078
20
-10.152143524671047
10
-18.66078675592071
20
-10.0722842825896
10
-18.333511148473526
20
-9.859078376609466
10
-17.989144167497308
20
-9.590742164561137
10
-17.66642895872057
20
-9.28489093141803
10
-17.38483124892121
20
-8.952918546683552
10
-17.149356739001984
20
-8.600146297941697
0
LINE
5
165
100
AcDbEntity
8
0
100
AcDbLine
10
-17.149356739001988
20
-8.6001462979416967
30
0
11
-17.346429944231254
21
-8.566170262262931
31
0
0
LWPOLYLINE
5
166
100
AcDbEntity
8
0
100
AcDbPolyline
90
9
43
0.0
10
-17.34642994423125
20
-8.566170262262931
10
-17.204460794984232
20
-8.285519727692517
10
-17.083756698540522
20
-8.02273191915307
10
-16.986403509527808
20
-7.779558962543292
10
-16.91510108487676
20
-7.5582687480547355
10
-16.871798291563636
20
-7.360498331432815
10
-16.856172936151985
20
-7.185977068953285
10
-16.866222403060615
20
-7.03302275583585
10
-16.899999622255564
20
-6.899999845772982
0
LINE
5
167
100
AcDbEntity
8
0
100
AcDbLine
10
-16.899999622255564
20
-6.8999998457729816
30
0
11
-17.499999608844519
21
-6.2999998591840267
31
0
0
LWPOLYLINE
5
168
100
AcDbEntity
8
0
100
AcDbPolyline
90
5
43
0.0
10
-17.49999960884452
20
-6.299999859184027
10
-17.490308264456704
20
-6.069143100909877
10
-17.51878003663159
20
-5.858014332807291
10
-17.590120106330513
20
-5.669045844797616
10
-17.699999604374167
20
-5.499999877065418
0
LWPOLYLINE
5
169
100
AcDbEntity
8
0
100
AcDbPolyline
90
5
43
0.0
10
-17.69999960437417
20
-5.49999987706542
10
-17.531641911861744
20
-5.547590696310025
10
-17.406519946341923
20
-5.596705303535613
10
-17.330726322486974
20
-5.647558425150205
10
-17.299999613314867
20
-5.699999872595072
0
LWPOLYLINE
5
170
100
AcDbEntity
8
0
100
AcDbPolyline
90
7
43
0.0
10
-17.299999613314867
20
-5.699999872595072
10
-17.168760568444903
20
-5.33815292951045
10
-17.126544987209954
20
-5.174000834135317
10
-17.102129326818176
20
-5.022604247145055
10
-17.09660821092812
20
-4.8847475810872805
10
-17.109500266826043
20
-4.76008588197334
10
-17.184762841687224
20
-4.54621898695126
0
LWPOLYLINE
5
171
100
AcDbEntity
8
0
100
AcDbPolyline
90
14
43
0.0
10
-17.184762841687224
20
-4.54621898695126
10
-17.14876263459694
20
-4.544190558743102
10
-17.110649214685242
20
-4.572980796196562
10
-17.070519477077447
20
-4.632760172067109
10
-17.028688538931434
20
-4.723092516117535
10
-16.98582725756728
20
-4.842255090738568
10
-16.943102625955245
20
-4.986510378244729
10
-16.865068061120645
20
-5.325428314627552
10
-16.81069280440974
20
-5.680640950321567
10
-16.794657159449393
20
-5.995749107190103
10
-16.803610163506963
20
-6.127058411017759
10
-16.824223796300533
20
-6.238417507081825
10
-16.85640663979202
20
-6.329380810615334
10
-16.89999962225556
20
-6.3999998569488525
0
LWPOLYLINE
5
172
100
AcDbEntity
8
0
100
AcDbPolyline
90
5
43
0.0
10
-16.899999622255564
20
-6.3999998569488525
10
-16.63839648145912
20
-6.325144451999578
10
-16.394697810794582
20
-6.19641894654092
10
-16.170869910144976
20
-6.007907233068437
10
-15.964692625583291
20
-5.76628920305519
0
LWPOLYLINE
5
173
100
AcDbEntity
8
0
100
AcDbPolyline
90
5
43
0.0
10
-15.964692625583293
20
-5.76628920305519
10
-15.941567561598019
20
-5.542511068285665
10
-15.954988831810937
20
-5.323356944267286
10
-16.0092403950679
20
-5.109368857233162
10
-16.099999640136957
20
-4.899999890476464
0
LWPOLYLINE
5
174
100
AcDbEntity
8
0
100
AcDbPolyline
90
23
43
0.0
10
-16.099999640136957
20
-4.899999890476465
10
-15.760403609495416
20
-5.064200231808258
10
-15.459804205127062
20
-5.194045323447002
10
-15.198261189797112
20
-5.289482288837501
10
-14.97566447438424
20
-5.350607454119502
10
-14.791550702965598
20
-5.377827835932832
10
-14.644911437386616
20
-5.372029884900617
10
-14.533991032695406
20
-5.334757091170568
10
-14.456093474936512
20
-5.268380862857642
10
-14.407346704737556
20
-5.1763065121966365
10
-14.382662869101017
20
-5.063020555790641
10
-14.381661599955361
20
-4.794138033475717
10
-14.433211033521474
20
-4.222452793921288
10
-14.462672352603567
20
-3.95634498536446
10
-14.520313579444244
20
-3.6958641116360877
10
-14.625304030258539
20
-3.431401855888093
10
-14.770367960418435
20
-3.1676681305321606
10
-14.923282482608728
20
-2.9236118459040643
10
-15.044943421872432
20
-2.7219833392045722
10
-15.084600377855317
20
-2.6425175619234484
10
-15.107453773888999
20
-2.5787917224487624
10
-15.112677823644246
20
-2.5312435054682614
10
-15.099999662488699
20
-2.499999944120645
0
LWPOLYLINE
5
175
100
AcDbEntity
8
0
100
AcDbPolyline
90
19
43
0.0
10
-15.099999662488699
20
-2.4999999441206455
10
-14.853182075222158
20
-2.573669072282129
10
-14.639942421279176
20
-2.5829186544261584
10
-14.461244614254662
20
-2.5366766060100434
10
-14.318592239689993
20
-2.4599330344295267
10
-14.21166103932885
20
-2.3942260696864683
10
-14.129321240910132
20
-2.3732330555671877
10
-14.039997974954911
20
-2.390388612321662
10
-13.905809681824053
20
-2.4003825742190057
10
-13.726150282636368
20
-2.3633112691160503
10
-13.562624755755003
20
-2.2796238310644936
10
-13.513645513154886
20
-2.229174636047372
10
-13.497268172308203
20
-2.1786731194238933
10
-13.51562267921427
20
-2.1313141522478127
10
-13.565362748982361
20
-2.088901861285825
10
-13.727644450302924
20
-2.020788423561622
10
-13.911428677281338
20
-1.9724656248804744
10
-14.062399096892042
20
-1.9399488493189756
10
-14.159154379737048
20
-1.921363889454385
0
LWPOLYLINE
5
176
100
AcDbEntity
8
0
100
AcDbPolyline
90
46
43
0.0
10
-14.159154379737046
20
-1.9213638894543852
10
-14.018688158495248
20
-1.8510740042923672
10
-13.85812170934921
20
-1.7609562736351891
10
-13.677647836949655
20
-1.651175091868459
10
-13.477801964799582
20
-1.5221915098605203
10
-13.25964568880298
20
-1.374923598150413
10
-13.024952316403349
20
-1.2109086412121555
10
-12.51771225235142
20
-0.8428489462152129
10
-11.99027852276128
20
-0.4476565360892619
10
-11.487945906404168
20
-0.06381701899716066
10
-11.259703724041962
20
0.11295838541465827
10
-11.051989301999413
20
0.2759604135382278
10
-10.866599567928722
20
0.4246413419927067
10
-10.702993409494352
20
0.5608283094028624
10
-10.425413650762106
20
0.8166557486748225
10
-10.170981532088174
20
1.1020130784590492
10
-10.036849329479747
20
1.274413925314772
10
-9.89388774720872
20
1.4723323425941277
10
-9.59287709917379
20
1.936995453072447
10
-9.327450275934101
20
2.43949814163455
10
-9.234094615060808
20
2.676144439740431
10
-9.178496303065357
20
2.8871875610346325
10
-9.164643015485234
20
3.06294885412008
10
-9.190629004075278
20
3.197266597021009
10
-9.247777594315476
20
3.288646643716723
10
-9.323129588007152
20
3.340397659140293
10
-9.403525488246668
20
3.3601635712069076
10
-9.480055238322308
20
3.3595255352676916
10
-9.61669978129845
20
3.3539056717155518
10
-9.681683515596639
20
3.3730619625810396
10
-9.74443935605898
20
3.412990770686207
10
-9.840847197913792
20
3.5377044508010482
10
-9.86033515510631
20
3.612734092992994
10
-9.853586013849217
20
3.6967760291674714
10
-9.818298343256808
20
3.7957669187340892
10
-9.754330020401758
20
3.916624510010918
10
-9.663407661639877
20
4.064194750440707
10
-9.548785443741002
20
4.239261461024198
10
-9.414829460131214
20
4.43875712279144
10
-9.266581368916803
20
4.656880999412345
10
-8.948123016773359
20
5.118416931671478
10
-8.630611451270408
20
5.563046360618965
10
-8.335018294259008
20
5.952416422161259
10
-8.06235975078589
20
6.282771154665229
10
-7.539445184276002
20
6.842420329582808
10
-6.982955085744585
20
7.374579098812832
0
LINE
5
177
100
AcDbEntity
8
0
100
AcDbLine
10
-6.9829550857445852
20
7.3745790988128324
30
0
11
-5.9541546576801005
21
8.1569551317397693
31
0
0
LINE
5
178
100
AcDbEntity
8
0
100
AcDbLine
10
-5.9541546576801005
20
8.1569551317397693
30
0
11
-5.7454498197933823
21
9.3449672858641719
31
0
0
LINE
5
179
100
AcDbEntity
8
0
100
AcDbLine
10
-5.7454498197933823
20
9.3449672858641719
30
0
11
-6.1533365676716576
21
9.8813258182812689
31
0
0
LWPOLYLINE
5
180
100
AcDbEntity
8
0
100
AcDbPolyline
90
18
43
0.0
10
-6.153336567671658
20
9.881325818281269
10
-6.3290892643254475
20
10.024044707053031
10
-6.517553299530153
20
10.125675095359824
10
-6.719347303794685
20
10.187052686492596
10
-6.935693583374599
20
10.211463662149422
10
-7.167677530475583
20
10.2045440558611
10
-7.413410871745176
20
10.16998719797128
10
-7.6644344031762035
20
10.103838480124278
10
-7.90416372601266
20
9.992461160714328
10
-8.111943185012832
20
9.820306351828222
10
-8.197841974537194
20
9.708964416279743
10
-8.269375202458383
20
9.581725122280638
10
-8.365540300138695
20
9.290064616616517
10
-8.397090105887797
20
8.974187907771377
10
-8.36523765127758
20
8.667201366803758
10
-8.2727789252227
20
8.39519952088707
10
-8.12214516518245
20
8.171888201145617
10
-7.914881626473
20
8.001926157357374
0
LINE
5
181
100
AcDbEntity
8
0
100
AcDbLine
10
-7.9148816264730009
20
8.0019261573573743
30
0
11
-8.2999998144805431
21
7.5999998301267624
31
0
0
LWPOLYLINE
5
182
100
AcDbEntity
8
0
100
AcDbPolyline
90
9
43
0.0
10
-8.299999814480543
20
7.599999830126762
10
-8.251661304611309
20
7.504529972521417
10
-8.239483531113782
20
7.386215079903897
10
-8.266310331418548
20
7.243258519458886
10
-8.334865076870162
20
7.073939764453245
10
-8.445108324113805
20
6.878283733763199
10
-8.593741494339072
20
6.658374349234671
10
-8.776588277209022
20
6.41685005149453
10
-8.990514252504557
20
6.155691052974853
0
LWPOLYLINE
5
183
100
AcDbEntity
8
0
100
AcDbPolyline
90
27
43
0.0
10
-8.990514252504557
20
6.155691052974854
10
-9.964809072013665
20
5.403027820322022
10
-10.42988947636625
20
5.053203975827398
10
-10.645535059057709
20
4.888169720644159
10
-10.841378745555842
20
4.732071329361178
10
-11.010021435498274
20
4.586690202162316
10
-11.145666340162181
20
4.452792768924008
10
-11.246298898162138
20
4.329206714494438
10
-11.316001375053668
20
4.21182458280095
10
-11.414149308154483
20
3.963896422125006
10
-11.476904340140669
20
3.8160774242712594
10
-11.56754111597369
20
3.6463038157557484
10
-11.690255875957245
20
3.4584520745773575
10
-11.840244835794717
20
3.2630971607956076
10
-12.006990356947622
20
3.0740967687777867
10
-12.177963903754243
20
2.90482572858758
10
-12.342246687370919
20
2.764482303730238
10
-12.494105910744056
20
2.65444357344831
10
-12.768722821336342
20
2.489216413597255
10
-12.905583955189279
20
2.403686855637831
10
-13.053509660894216
20
2.294664168950441
10
-13.219455841069557
20
2.149407816177981
10
-13.408277469367217
20
1.9590456682668316
10
-13.623113130452454
20
1.7178585239519877
10
-13.86575552806271
20
1.4225914856231163
10
-14.137038941300421
20
1.0717421549843995
10
-14.437207902631632
20
0.6648804786358825
0
LWPOLYLINE
5
184
100
AcDbEntity
8
0
100
AcDbPolyline
90
5
43
0.0
10
-14.437207902631629
20
0.6648804786358905
10
-14.416830053613216
20
1.0868311572073313
10
-14.383235798216388
20
1.4620689540173009
10
-14.336189842333848
20
1.789762231032798
10
-14.277173138338458
20
2.0751453576226164
0
LWPOLYLINE
5
185
100
AcDbEntity
8
0
100
AcDbPolyline
90
12
43
0.0
10
-14.277173138338458
20
2.075145357622617
10
-14.28796536734864
20
2.109935016479049
10
-14.276771461879273
20
2.1648834662913226
10
-14.243691077218871
20
2.2398969909974347
10
-14.189066536606036
20
2.3346556479630136
10
-14.113634706151364
20
2.44847213807073
10
-14.01867394247987
20
2.5801550594401528
10
-13.778891748082867
20
2.8889920164303304
10
-13.494052641711908
20
3.2384288558004872
10
-13.19479203571403
20
3.5994812533890523
10
-12.91023156365971
20
3.9437878584375885
10
-12.660020867377636
20
4.250600198319889
0
LWPOLYLINE
5
186
100
AcDbEntity
8
0
100
AcDbPolyline
90
9
43
0.0
10
-12.660020867377943
20
4.2506001983195025
10
-12.621415068307456
20
4.24090418451779
10
-12.553507201893526
20
4.242548910608334
10
-12.458502843345336
20
4.256548040372139
10
-12.34530558056105
20
4.284284339811146
10
-12.229872934677092
20
4.32717422880045
10
-12.129231740877577
20
4.386305136988118
10
-12.054747749472176
20
4.461861609604374
10
-12.010272488457582
20
4.553168350641713
0
LWPOLYLINE
5
187
100
AcDbEntity
8
0
100
AcDbPolyline
90
2
43
0.0
10
-12.01027248845758
20
4.553168350641717
10
-11.999999731779095
20
4.599999897181988
0
LWPOLYLINE
5
188
100
AcDbEntity
8
0
100
AcDbPolyline
90
2
43
0.0
10
-11.999999731779099
20
4.599999897181988
10
-12.010272488457582
20
4.553168350641714
0
LWPOLYLINE
5
189
100
AcDbEntity
8
0
100
AcDbPolyline
90
11
43
0.0
10
-12.010272488457582
20
4.553168350641716
10
-11.996627059194847
20
4.5463574038039605
10
-11.968060677806367
20
4.556046297600835
10
-11.925224705604526
20
4.581989732120233
10
-11.869602484778325
20
4.623378577435795
10
-11.73155620536952
20
4.745238399968705
10
-11.585667635980958
20
4.900834846792768
10
-11.468749160682004
20
5.0654002190442045
10
-11.410024460245076
20
5.2185803350474185
10
-11.422920633020826
20
5.34980362280301
10
-11.509589632178907
20
5.456061855913002
0
LWPOLYLINE
5
190
100
AcDbEntity
8
0
100
AcDbPolyline
90
11
43
0.0
10
-11.509589632178908
20
5.456061855913001
10
-11.173410833214316
20
5.741829358674072
10
-10.85157729159943
20
6.017154059539067
10
-10.711030218643968
20
6.141844023484452
10
-10.590527339755678
20
6.253963146367019
10
-10.492803350403689
20
6.3519162495668064
10
-10.418237479724798
20
6.4356340764403095
10
-10.364953557824629
20
6.506511215664542
10
-10.329569283562796
20
6.56691146108084
10
-10.29618481798385
20
6.667447280560797
10
-10.299484659035837
20
6.8412910037380925
0
LWPOLYLINE
5
191
100
AcDbEntity
8
0
100
AcDbPolyline
90
24
43
0.0
10
-10.299484659035837
20
6.841291003738094
10
-10.045368071257158
20
7.087635517788929
10
-9.833383428260582
20
7.340635970009511
10
-9.66408637150959
20
7.598506957961854
10
-9.537732238179913
20
7.856391728866044
10
-9.453620230588424
20
8.105102680822883
10
-9.409462876701346
20
8.334127647500486
10
-9.400807096889329
20
8.540048548219348
10
-9.420421948394216
20
8.735732551903407
10
-9.45853217945066
20
8.952615468310595
10
-9.48119482185282
20
9.081622200715652
10
-9.504577417231792
20
9.231064019210397
10
-9.527591298779406
20
9.405268194526549
10
-9.549332643087864
20
9.607713732455448
10
-9.569079570958987
20
9.84103949759103
10
-9.586268209870036
20
10.107174917369903
10
-9.60046978265976
20
10.407463527911073
10
-9.611372271952865
20
10.742758547432134
10
-9.618760871093544
20
11.113524481835082
10
-9.622499036551192
20
11.519934211892384
10
-9.622511194209201
20
11.961955403466945
10
-9.618765866954721
20
12.439433461947194
10
-9.611259286478317
20
12.95217066989276
10
-9.599999785423279
20
13.499999698251486
0
LWPOLYLINE
5
192
100
AcDbEntity
8
0
100
AcDbPolyline
90
5
43
0.0
10
-9.599999785423279
20
13.499999698251486
10
-9.484321335907849
20
13.46140645846057
10
-9.378663596640244
20
13.44747966401032
10
-9.284267230678598
20
13.46127326488753
10
-9.199999794363976
20
13.499999698251486
0
LINE
5
193
100
AcDbEntity
8
0
100
AcDbLine
10
-9.1999997943639755
20
13.499999698251486
30
0
11
-9.1999997943639755
21
13.899999689310789
31
0
0
LINE
5
194
100
AcDbEntity
8
0
100
AcDbLine
10
-9.1999997943639755
20
13.899999689310789
30
0
11
-9.2999997921288013
21
13.999999687075615
31
0
0
LINE
5
195
100
AcDbEntity
8
0
100
AcDbLine
10
-9.2999997921288013
20
13.999999687075615
30
0
11
-9.1999997943639755
21
14.099999684840441
31
0
0
LINE
5
196
100
AcDbEntity
8
0
100
AcDbLine
10
-9.1999997943639755
20
14.099999684840441
30
0
11
-9.1999997943639755
21
14.799999669194221
31
0
0
LINE
5
197
100
AcDbEntity
8
0
100
AcDbLine
10
-9.1999997943639755
20
14.799999669194221
30
0
11
-9.2499997932463884
21
15.04763656276177
31
0
0
LINE
5
198
100
AcDbEntity
8
0
100
AcDbLine
10
-9.2499997932463884
20
15.04763656276177
30
0
11
-9.4594059185392769
21
15.257042688054659
31
0
0
LINE
5
199
100
AcDbEntity
8
0
100
AcDbLine
10
-9.4594059185392769
20
15.257042688054659
30
0
11
-9.4594059185392769
21
15.499999653548002
31
0
0
LWPOLYLINE
5
200
100
AcDbEntity
8
0
100
AcDbPolyline
90
18
43
0.0
10
-9.459405918539277
20
15.499999653548002
10
-9.327688373911469
20
15.468727120237535
10
-9.231989544308195
20
15.482389522997483
10
-9.10428777869862
20
15.581043586150859
10
-9.025626841200307
20
15.602398567990223
10
-8.91098724882927
20
15.57782992404313
10
-8.759157040873779
20
15.521448184585388
10
-8.577730594065113
20
15.462114385513702
10
-8.374399956093725
20
15.425234769314034
10
-8.156000384387593
20
15.425304544021145
10
-7.933367153454746
20
15.466354527646283
10
-7.725784092936805
20
15.543273851061969
10
-7.558962720813843
20
15.645049749452276
10
-7.457215058525186
20
15.75975228426441
10
-7.435962281490702
20
15.819175721827259
10
-7.435811220482994
20
15.879177299356188
10
-7.457128920092823
20
15.939486661156687
10
-7.499999832361937
20
15.999999642372131
0
LWPOLYLINE
5
201
100
AcDbEntity
8
0
100
AcDbPolyline
90
12
43
0.0
10
-7.499999832361937
20
15.999999642372131
10
-7.546304564605682
20
15.963686657837332
10
-7.598795602563979
20
15.947642157457189
10
-7.657521418570035
20
15.952158471764967
10
-7.722431979924071
20
15.97742233717939
10
-7.79325400636391
20
16.023218048821498
10
-7.86936353612997
20
16.088614242045722
10
-8.033341008210904
20
16.27104292567723
10
-8.204888033999222
20
16.507282030750808
10
-8.375628074220742
20
16.78054696725624
10
-8.54111271120952
20
17.07984462970603
10
-8.699999805539846
20
17.399999611079693
0
LWPOLYLINE
5
202
100
AcDbEntity
8
0
100
AcDbPolyline
90
3
43
0.0
10
-8.699999805539846
20
17.399999611079693
10
-8.411663665003317
20
17.74610495574793
10
-8.199999816715717
20
18.099999595433474
0
LWPOLYLINE
5
203
100
AcDbEntity
8
0
100
AcDbPolyline
90
13
43
0.0
10
-8.199999816715717
20
18.099999595433474
10
-8.083909552934841
20
18.068228829382367
10
-7.915450404140311
20
17.998199364753084
10
-7.70592103821014
20
17.91976151871839
10
-7.595049393443995
20
17.8992680185766
10
-7.486999324184429
20
17.907253368340108
10
-7.3865927896234505
20
17.955185172269672
10
-7.297053568725305
20
18.051700712720276
10
-7.2197517356385426
20
18.199717182210094
10
-7.155367945370997
20
18.394547044297724
10
-7.10462284836349
20
18.62570237247394
10
-7.068180057185449
20
18.88002628314551
10
-7.040416959987496
20
19.409548909715923
0
LINE
5
204
100
AcDbEntity
8
0
100
AcDbLine
10
-7.0404169599874962
20
19.409548909715923
30
0
11
-7.4366260178554775
21
19.746865304478419
31
0
0
LWPOLYLINE
5
205
100
AcDbEntity
8
0
100
AcDbPolyline
90
5
43
0.0
10
-7.4366260178554775
20
19.746865304478415
10
-7.358364001272579
20
20.06333102385974
10
-7.2972878633686244
20
20.419648784183313
10
-7.255106300052258
20
20.81978085120487
10
-7.229555746741114
20
21.258478283613258
0
LWPOLYLINE
5
206
100
AcDbEntity
8
0
100
AcDbPolyline
90
5
43
0.0
10
-7.229555746741115
20
21.258478283613265
10
-7.114657740208263
20
21.25014964676787
10
-7.011329026522695
20
21.258221859034993
10
-6.9209926016751
20
21.284712186561173
10
-6.8423334037276184
20
21.327756372592063
0
LINE
5
207
100
AcDbEntity
8
0
100
AcDbLine
10
-6.8423334037276184
20
21.327756372592063
30
0
11
-6.8423334037276184
21
22.199999503791332
31
0
0
LWPOLYLINE
5
208
100
AcDbEntity
8
0
100
AcDbPolyline
90
9
43
0.0
10
-6.8423334037276184
20
22.199999503791332
10
-6.677983720435543
20
22.22158979638719
10
-6.513233491663032
20
22.271538800780124
10
-6.348048820393184
20
22.352246433401923
10
-6.182393170974427
20
22.466299426600045
10
-6.016256468890868
20
22.614411058280044
10
-5.84966846643237
20
22.79447485942087
10
-5.682674060927511
20
23.003312088820646
10
-5.5153088096615885
20
23.23840528249969
0
LWPOLYLINE
5
209
100
AcDbEntity
8
0
100
AcDbPolyline
90
12
43
0.0
10
-5.515308809661589
20
23.2384052824997
10
-5.480592557658632
20
23.5497620451682
10
-5.4780110837408085
20
23.8990305919564
10
-5.509092002302723
20
24.27895843760096
10
-5.57371939022167
20
24.66565539971079
10
-5.668965214304311
20
25.017041087121957
10
-5.726773563858651
20
25.165037182052775
10
-5.790689941477518
20
25.288320844723707
10
-5.860274570393221
20
25.384172055037457
10
-5.935173568663471
20
25.45144703937769
10
-6.015132194558845
20
25.48997418446619
10
-6.099999863654375
20
25.499999430030584
0
LINE
5
210
100
AcDbEntity
8
0
100
AcDbLine
10
-6.0999998636543751
20
25.499999430030584
30
0
11
-6.1823931709744286
21
26.369236421430081
31
0
0
LWPOLYLINE
5
211
100
AcDbEntity
8
0
100
AcDbPolyline
90
8
43
0.0
10
-6.182393170974428
20
26.369236421430077
10
-6.075410781791093
20
26.382332125294752
10
-5.981470547950344
20
26.430253942196384
10
-5.900328145284512
20
26.51268095193311
10
-5.831226946883771
20
26.628459236551215
10
-5.772596648169846
20
26.775062534329223
10
-5.721810243403095
20
26.94811103862974
10
-5.630375748365055
20
27.348064377797787
0
ENDSEC
0
SECTION
2
OBJECTS
0
DICTIONARY
5
C
100
AcDbDictionary
3
ACAD_GROUP
350
D
3
ACAD_MLINESTYLE
350
17
0
DICTIONARY
5
D
100
AcDbDictionary
0
DICTIONARY
5
1A
330
C
100
AcDbDictionary
0
DICTIONARY
5
17
100
AcDbDictionary
0
ENDSEC
0
EOF
