0
SECTION
2
HEADER
9
$INSUNITS
70
4
9
$ACADVER
1
AC1014
9
$HANDSEED
5
FFFF
0
ENDSEC
0
SECTION
2
TABLES
0
TABLE
2
VPORT
5
8
100
AcDbSymbolTable
0
ENDTAB
0
TABLE
2
LTYPE
5
5
100
AcDbSymbolTable
0
LTYPE
5
14
100
AcDbSymbolTableRecord
100
AcDbLinetypeTableRecord
2
BYBLOCK
70
0
0
LTYPE
5
15
100
AcDbSymbolTableRecord
100
AcDbLinetypeTableRecord
2
BYLAYER
70
0
0
LTYPE
5
16
100
AcDbSymbolTableRecord
100
AcDbLinetypeTableRecord
2
DASHED
70
0
3
Dashed __ __ __ __ __ __ __ __ __ __ __ __ __ _
72
65
73
2
40
0.75
49
0.5
74
0
49
-0.25
74
0
0
ENDTAB
0
TABLE
2
LAYER
5
2
100
AcDbSymbolTable
70
2
0
LAYER
5
50
100
AcDbSymbolTableRecord
100
AcDbLayerTableRecord
2
0
70
0
62
7
6
CONTINUOUS
0
ENDTAB
0
TABLE
2
STYLE
5
3
100
AcDbSymbolTable
70
1
0
STYLE
5
11
100
AcDbSymbolTableRecord
100
AcDbTextStyleTableRecord
2
STANDARD
70
0
0
ENDTAB
0
TABLE
2
VIEW
5
6
100
AcDbSymbolTable
70
0
0
ENDTAB
0
TABLE
2
UCS
5
7
100
AcDbSymbolTable
70
0
0
ENDTAB
0
TABLE
2
APPID
5
9
100
AcDbSymbolTable
70
2
0
APPID
5
12
100
AcDbSymbolTableRecord
100
AcDbRegAppTableRecord
2
ACAD
70
0
0
ENDTAB
0
TABLE
2
DIMSTYLE
5
A
100
AcDbSymbolTable
70
1
0
ENDTAB
0
TABLE
2
BLOCK_RECORD
5
1
100
AcDbSymbolTable
70
1
0
BLOCK_RECORD
5
1F
100
AcDbSymbolTableRecord
100
AcDbBlockTableRecord
2
*MODEL_SPACE
0
BLOCK_RECORD
5
1B
100
AcDbSymbolTableRecord
100
AcDbBlockTableRecord
2
*PAPER_SPACE
0
ENDTAB
0
ENDSEC
0
SECTION
2
BLOCKS
0
BLOCK
5
20
100
AcDbEntity
100
AcDbBlockBegin
2
*MODEL_SPACE
0
ENDBLK
5
21
100
AcDbEntity
100
AcDbBlockEnd
0
BLOCK
5
1C
100
AcDbEntity
100
AcDbBlockBegin
2
*PAPER_SPACE
0
ENDBLK
5
1D
100
AcDbEntity
100
AcDbBlockEnd
0
ENDSEC
0
SECTION
2
ENTITIES
0
LWPOLYLINE
5
100
100
AcDbEntity
8
0
100
AcDbPolyline
90
2
43
0.0
10
-11.999999731779099
20
4.599999897181988
10
-12.010272488457582
20
4.553168350641714
0
LWPOLYLINE
5
101
100
AcDbEntity
8
0
100
AcDbPolyline
90
2
43
0.0
10
-12.01027248845758
20
4.553168350641717
10
-11.999999731779095
20
4.599999897181988
0
LWPOLYLINE
5
102
100
AcDbEntity
8
0
100
AcDbPolyline
90
23
43
0.0
10
-10.954193359316276
20
21.241010828100766
10
-10.97290219294563
20
21.2646748026827
10
-11.008538238883547
20
21.271370220859684
10
-11.063011210284339
20
21.253071428531303
10
-11.13811720926661
20
21.20033018999635
10
-11.234321784764738
20
21.10570471137653
10
-11.349738853180016
20
20.966709989154605
10
-11.479957415219081
20
20.78671269926723
10
-11.618741394617832
20
20.573710571582353
10
-11.892521535152204
20
20.095586208606875
10
-12.01281585536992
20
19.857204733493184
10
-12.113813801278216
20
19.63653924855717
10
-12.19166935011086
20
19.44405320631114
10
-12.245347028453883
20
19.286545126249532
10
-12.277347133921044
20
19.16583252481616
10
-12.293684497850052
20
19.07839468414969
10
-12.312704922848834
20
18.970915471429592
10
-12.364151122363493
20
18.887268369528496
10
-12.471743492362554
20
18.765746834678303
10
-12.617584793638205
20
18.582014610072257
10
-12.929080932810182
20
18.099475753435794
10
-13.085461360809271
20
17.884769004462814
10
-13.245181516132432
20
17.731898570303322
0
LWPOLYLINE
5
103
100
AcDbEntity
8
0
100
AcDbPolyline
90
7
43
0.0
10
-13.245181516132433
20
17.731898570303326
10
-13.369540016256503
20
17.938076419206055
10
-13.461329026101033
20
18.03779399872335
10
-13.575142030509694
20
18.1350039428117
10
-13.711532386774229
20
18.229643246623407
10
-13.869173008685785
20
18.321863011192395
10
-14.240303683421565
20
18.49994356618171
0
LWPOLYLINE
5
104
100
AcDbEntity
8
0
100
AcDbPolyline
90
14
43
0.0
10
-14.240303683421564
20
18.49994356618171
10
-14.044261791616428
20
18.876579400647795
10
-13.854809561310043
20
19.306922706332
10
-13.685744478747381
20
19.792233185477304
10
-13.618538593580428
20
20.05481563317581
10
-13.570298023425792
20
20.329681718555996
10
-13.546966622240358
20
20.615870650009306
10
-13.553950139539124
20
20.91238305454552
10
-13.595322730460678
20
21.218265137993306
10
-13.673346317700902
20
21.5326683715925
10
-13.788745370687554
20
21.854885909610235
10
-13.941311149336546
20
22.184370944516385
10
-14.13040395758939
20
22.520743412791795
10
-14.355389719525952
20
22.86378576055025
0
LWPOLYLINE
5
105
100
AcDbEntity
8
0
100
AcDbPolyline
90
3
43
0.0
10
-14.355389719525952
20
22.86378576055025
10
-14.226372709541634
20
23.027546706504562
10
-14.150384559927543
20
23.205473017129155
0
LWPOLYLINE
5
106
100
AcDbEntity
8
0
100
AcDbPolyline
90
11
43
0.0
10
-14.150384559927543
20
23.205473017129158
10
-14.114562007820846
20
23.118282352844314
10
-14.065577419699945
20
23.04682375089379
10
-14.003354501510557
20
22.99118345693846
10
-13.927843451583
20
22.951408093811956
10
-13.839094754001717
20
22.92741225418253
10
-13.737331467618265
20
22.918888163668413
10
-13.497019776917073
20
22.94528440786952
10
-13.215270189567702
20
23.019793719004106
10
-12.906392058032624
20
23.1241087904203
10
-12.278527608188538
20
23.33129120608183
0
LWPOLYLINE
5
107
100
AcDbEntity
8
0
100
AcDbPolyline
90
19
43
0.0
10
-12.27852760818854
20
23.33129120608182
10
-12.209713657058398
20
23.40887385228846
10
-12.160921334124454
20
23.50379426211892
10
-12.130311914790003
20
23.61505883645331
10
-12.115112272243307
20
23.741136837853897
10
-12.115061866592919
20
24.028761941864726
10
-12.123645415981127
20
24.34494993659812
10
-12.10457769708793
20
24.666363973708403
10
-12.035842723976677
20
24.974312613505322
10
-11.921645611785378
20
25.260401399043992
10
-11.790957189421773
20
25.526924238496093
10
-11.681719598993318
20
25.781657784654836
10
-11.622959790503288
20
26.03188074978848
10
-11.619383821464721
20
26.279181952447484
10
-11.651274900003825
20
26.518848877505423
10
-11.687630320457941
20
26.74321566363519
10
-11.700413030598659
20
26.94537673294015
10
-11.67366878838006
20
27.121548558371423
10
-11.601657333015783
20
27.27051289476962
0
LWPOLYLINE
5
108
100
AcDbEntity
8
0
100
AcDbPolyline
90
8
43
0.0
10
-11.601657333015782
20
27.270512894769627
10
-11.317187023591705
20
27.048308185623373
10
-11.003381031803162
20
26.864416245938227
10
-10.67906289261412
20
26.717526692291482
10
-10.355210839711832
20
26.601911160470735
10
-10.037457470376273
20
26.510427556102158
10
-9.728472523886435
20
26.43731588287584
10
-9.140930157702288
20
26.335228315206887
0
LWPOLYLINE
5
109
100
AcDbEntity
8
0
100
AcDbPolyline
90
16
43
0.0
10
-9.14093015770229
20
26.335228315206887
10
-9.217815122079234
20
26.17521795642895
10
-9.298632073531367
20
25.988312396524666
10
-9.383255126894245
20
25.774436465019992
10
-9.471242624149866
20
25.534158628530765
10
-9.561622391622496
20
25.269359656193394
10
-9.652666052103111
20
24.98395916654294
10
-9.824953461222277
20
24.38095860981012
10
-9.898273844052644
20
24.084067043067723
10
-9.957162012008293
20
23.805867965291625
10
-9.997381440816845
20
23.55772142087634
10
-10.015375069181662
20
23.34928584755254
10
-10.008743382025848
20
23.187299638002187
10
-9.976401863128375
20
23.07515414382804
10
-9.918170694458052
20
23.013848854208486
10
-9.83426050683924
20
23.003214128285407
0
LWPOLYLINE
5
110
100
AcDbEntity
8
0
100
AcDbPolyline
90
3
43
0.0
10
-9.83426050683924
20
23.003214128285414
10
-9.799553137912444
20
22.899322009707046
10
-9.699999783188105
20
22.79999949038029
0
LINE
5
111
100
AcDbEntity
8
0
100
AcDbLine
10
-9.6999997831881064
20
22.799999490380291
30
0
11
-9.7999997809529305
21
22.799999490380287
31
0
0
LINE
5
112
100
AcDbEntity
8
0
100
AcDbLine
10
-9.7999997809529305
20
22.799999490380287
30
0
11
-10.099999774247408
21
22.199999503791332
31
0
0
LWPOLYLINE
5
113
100
AcDbEntity
8
0
100
AcDbPolyline
90
9
43
0.0
10
-10.099999774247408
20
22.199999503791332
10
-10.235064648541504
20
22.245997594919594
10
-10.373954410661815
20
22.216047596175105
10
-10.514126201583668
20
22.112841076692792
10
-10.648685585508924
20
21.9521474472314
10
-10.767205435309176
20
21.762079021686443
10
-10.860037049909048
20
21.570769983307276
10
-10.922479181521894
20
21.395233017547287
10
-10.954193359316275
20
21.24101082810077
0
LINE
5
114
100
AcDbEntity
8
0
100
AcDbLine
10
-17.836082654225937
20
24.856478567832191
30
0
11
-17.846541521999889
21
24.784855637026517
31
0
0
LWPOLYLINE
5
115
100
AcDbEntity
8
0
100
AcDbPolyline
90
2
43
0.0
10
-17.846541521999885
20
24.784855637026517
10
-17.83608265422599
20
24.85647856783203
0
LWPOLYLINE
5
116
100
AcDbEntity
8
0
100
AcDbPolyline
90
63
43
0.0
10
-10.06755895448785
20
35.661591953380665
10
-10.059635278996426
20
35.40893766162345
10
-10.023598650280071
20
35.159316147794094
10
-9.95937597423494
20
34.912764441478004
10
-9.866824578734665
20
34.66937361022184
10
-9.745714255060044
20
34.42931407351771
10
-9.59570814612976
20
34.19286162189722
10
-9.416347941346555
20
33.96042141528272
10
-9.20703347533297
20
33.732554956574084
10
-8.96702343983824
20
33.50999662888484
10
-8.695547720621674
20
33.2936143037003
10
-8.391994387846786
20
33.08433261814655
10
-8.056117731258901
20
32.883045905047034
10
-7.68824217297354
20
32.690533463870004
10
-7.289466381610438
20
32.507374954517175
10
-6.861870850116094
20
32.333864366051785
10
-6.408726764417392
20
32.16992368714213
10
-5.446077812703217
20
31.868066366848893
10
-4.459398212300331
20
31.59048922842568
10
-3.983053523765011
20
31.45455131960331
10
-3.5344553788334663
20
31.31642930220571
10
-3.126232726327843
20
31.173165746725186
10
-2.7703492155027
20
31.022300015521232
10
-2.47732653785579
20
30.862218223447492
10
-2.2554635007153876
20
30.69250701626035
10
-2.1100830680551588
20
30.514285360823976
10
-2.0427235823877665
20
30.330576691864234
10
-2.050356268808653
20
30.146660049983094
10
-2.125088830394732
20
29.970055011013876
10
-2.2551078351627925
20
29.809572304876486
10
-2.426518809088488
20
29.67368896293489
10
-2.6251174191157065
20
29.568975615801477
10
-2.8382049452150713
20
29.498477065635264
10
-3.0563625594351493
20
29.460143009574857
10
-3.2745045067524337
20
29.44603341000388
10
-3.7059781848327136
20
29.43803929860687
10
-3.919361123508163
20
29.414465196525786
10
-4.129379635426913
20
29.36021390632381
10
-4.330519955032643
20
29.26723774352228
10
-4.512311466553107
20
29.133931178199408
10
-4.660308007725949
20
28.965028581424427
10
-4.759026249422209
20
28.769848470133507
10
-4.795373757923054
20
28.560072964116312
10
-4.761795134793686
20
28.347765973525558
10
-4.659855001621722
20
28.143181092265326
10
-4.502498888082476
20
27.953082966420865
10
-4.121765171814814
20
27.624708239622773
10
-3.959474183822614
20
27.484174482655057
10
-3.8547626412984886
20
27.35568935277904
10
-3.8309606316321085
20
27.295020800155577
10
-3.8285560924968323
20
27.23633831725282
10
-3.8482457629696922
20
27.179463481825923
10
-3.8898553336777786
20
27.12432318571689
10
-4.034353305186765
20
27.019420710364223
10
-4.247040056396085
20
26.92274173629124
10
-4.5058345883753805
20
26.836308169642155
10
-4.7851446702519995
20
26.7626350691287
10
-5.059439795924483
20
26.70431576338214
10
-5.306972696975388
20
26.663587540590935
10
-5.512096930196157
20
26.64205761241624
10
-5.6653801628994245
20
26.640680888515174
10
-5.761965377538667
20
26.659936953171577
10
-5.7999998703598985
20
26.699999403208487
0
LWPOLYLINE
5
117
100
AcDbEntity
8
0
100
AcDbPolyline
90
3
43
0.0
10
-5.799999870359895
20
26.6999994032085
10
-5.709651001389081
20
26.996018343009887
10
-5.630375748365056
20
27.348064377797794
0
LWPOLYLINE
5
118
100
AcDbEntity
8
0
100
AcDbPolyline
90
17
43
0.0
10
-5.630375748365055
20
27.348064377797787
10
-5.857862808913896
20
27.142316862666704
10
-6.129067469626213
20
26.96848832426788
10
-6.44410772094525
20
26.826829300404597
10
-6.8020486055283165
20
26.717089118060933
10
-7.199938207201014
20
26.63798824911798
10
-7.632529336296876
20
26.58744696876485
10
-8.092636133026847
20
26.56352606474478
10
-8.571488603134197
20
26.565414238901592
10
-9.059053289689762
20
26.594279808865345
10
-9.544661429559168
20
26.653253655280828
10
-10.01798829980532
20
26.746517076601073
10
-10.470096656549877
20
26.87822411185655
10
-10.8944960245111
20
27.05138719001506
10
-11.287622370413814
20
27.267282559885583
10
-11.648119825377364
20
27.525946924162866
10
-11.975828385045341
20
27.826933409593398
0
LWPOLYLINE
5
119
100
AcDbEntity
8
0
100
AcDbPolyline
90
2
43
0.0
10
-11.975828385045316
20
27.826933409593416
10
-11.893966636260826
20
27.628578224461997
0
LWPOLYLINE
5
120
100
AcDbEntity
8
0
100
AcDbPolyline
90
20
43
0.0
10
-11.893966636260828
20
27.628578224461993
10
-12.365877077549769
20
28.070018700736384
10
-12.845251290385846
20
28.490078944491522
10
-13.332895098451734
20
28.88718262076015
10
-13.830710334506735
20
29.257803941766163
10
-14.342169476646195
20
29.595718737151415
10
-14.87240752728938
20
29.891816374924222
10
-15.426563402853724
20
30.1364271511017
10
-16.00689044482132
20
30.323425330708286
10
-16.60968983103153
20
30.454608036318113
10
-17.22270555693114
20
30.543472674735888
10
-17.826248279407686
20
30.613891240566762
10
-18.39772681054532
20
30.694136808724686
10
-18.916543092821883
20
30.810474565668805
10
-19.151486949867895
20
30.888309337016082
10
-19.36864023191982
20
30.981244678648125
10
-19.567424701875584
20
31.090102195050093
10
-19.747557723171152
20
31.215321434355552
10
-19.90895699803575
20
31.357072972936404
10
-20.051639869251268
20
31.515378948910804
0
LWPOLYLINE
5
121
100
AcDbEntity
8
0
100
AcDbPolyline
90
32
43
0.0
10
-20.05163986925127
20
31.515378948910804
10
-19.654105029506947
20
31.406869168267797
10
-19.269734119405772
20
31.314610304762354
10
-18.539126091808562
20
31.176535695654184
10
-17.850991904906692
20
31.086630190733597
10
-17.18104861691343
20
31.00556704410741
10
-16.840679555279152
20
30.948899572349912
10
-16.490152894238374
20
30.87153994606333
10
-16.126424234636563
20
30.76967478388789
10
-15.749293594394626
20
30.644769030880283
10
-14.974394964010397
20
30.368407661894782
10
-14.596765539752425
20
30.254310734343356
10
-14.243856221669954
20
30.184554019237407
10
-14.081422061889043
20
30.17197525921681
10
-13.930878799334145
20
30.176418993553995
10
-13.794067755646303
20
30.198703654069654
10
-13.672727023797014
20
30.238833815576267
10
-13.568451562623185
20
30.295922047984554
10
-13.482654324932946
20
30.368182345726876
10
-13.416528260058458
20
30.453090408499705
10
-13.371009384672163
20
30.547644246499875
10
-13.346742926583746
20
30.64859285415877
10
-13.34405077680372
20
30.752635579081424
10
-13.362889907885199
20
30.85665222999403
10
-13.402803781550451
20
30.957961653863723
10
-13.541886192825602
20
31.144875721520048
10
-13.749593220289519
20
31.304752978469928
10
-14.009870639465039
20
31.437604912635724
10
-14.30492470291519
20
31.548872220783817
10
-14.934595709261632
20
31.737494865922255
10
-15.546464171754623
20
31.918760431497674
10
-16.104445088995963
20
32.112433621554466
0
LWPOLYLINE
5
122
100
AcDbEntity
8
0
100
AcDbPolyline
90
17
43
0.0
10
-16.104445088995963
20
32.112433621554466
10
-15.473528197089292
20
32.139415869391264
10
-14.871102861975658
20
32.18828710472861
10
-14.297969449109113
20
32.259662218130245
10
-13.755413750064486
20
32.35452903472321
10
-13.245120844638283
20
32.474182137701725
10
-12.769021969691247
20
32.620105223439786
10
-12.329098135102559
20
32.79382022704249
10
-11.927143023975034
20
32.99670516752445
10
-11.56438081002202
20
33.22970053133587
10
-11.241101138418635
20
33.49302884193045
10
-10.956651177787315
20
33.7861885536059
10
-10.709710912212719
20
34.10816554796641
10
-10.498708651457743
20
34.457752354735824
10
-10.322121613821231
20
34.83377907821983
10
-10.178683479847043
20
35.23527285298526
10
-10.06755895448785
20
35.66159195338066
0
LINE
5
123
100
AcDbEntity
8
0
100
AcDbLine
10
16.899999622255564
20
39.299999121576548
30
0
11
16.675942409223481
21
39.62853851889512
31
0
0
LWPOLYLINE
5
124
100
AcDbEntity
8
0
100
AcDbPolyline
90
62
43
0.0
10
16.67594240922348
20
39.62853851889512
10
16.78628567509294
20
39.553295214595565
10
16.914651243075294
20
39.5389376054867
10
17.056817674063584
20
39.57950322275932
10
17.201750493196936
20
39.659352791936215
10
17.330418364051994
20
39.7506547962051
10
17.424185306361082
20
39.82093035421658
10
17.479915736628914
20
39.84774258316955
10
17.52349748345419
20
39.83253631690829
10
17.600764790311487
20
39.79977566174913
10
17.741494327134816
20
39.77844995380596
10
17.933427504027712
20
39.78605558872147
10
18.1343362037307
20
39.827428400416025
10
18.298984820902522
20
39.89936323850341
10
18.40628083176303
20
39.99539020917478
10
18.547184474667382
20
40.234369572922866
10
18.666108645403156
20
40.36327808271857
10
18.8474147097632
20
40.48543883643653
10
19.07586737380215
20
40.58853510534823
10
19.31834760328378
20
40.66130183450843
10
19.54012487302925
20
40.696773394931206
10
19.720995176199967
20
40.69550165263559
10
20.010090050931762
20
40.630556292479824
10
20.183190970023055
20
40.60161305541527
10
20.411159463700432
20
40.59244902715855
10
20.694409632256423
20
40.604048745543516
10
21.012492923838863
20
40.62828671971696
10
21.334200118512005
20
40.65232258867457
10
21.62779176781527
20
40.663047084650835
10
21.871292120052182
20
40.65155163392701
10
22.062486818316977
20
40.617469605919396
10
22.386482435227713
20
40.52627691777346
10
22.590317596667163
20
40.500491205880465
10
22.85717400354669
20
40.50294586343137
10
23.188548032739817
20
40.53361723696748
10
23.566664769990524
20
40.58379452439838
10
23.96206262604247
20
40.63953672200979
10
24.341218005726734
20
40.685147132406634
10
24.67426574410301
20
40.70669158405381
10
24.94264775803881
20
40.695483187910426
10
25.146498387689647
20
40.651439863846484
10
25.30643458888269
20
40.58374944499738
10
25.455367242548334
20
40.50673256771263
10
25.627539558764916
20
40.43437198213642
10
25.84757464488457
20
40.37484983553964
10
26.12324546833597
20
40.32710721751869
10
26.446843367004693
20
40.282078941981894
10
26.800051997472913
20
40.225834907773375
10
27.15881689596467
20
40.142719242244205
10
27.498274818893922
20
40.018526370442096
10
27.79763195840515
20
39.8436463778286
10
28.044510941073614
20
39.615822037621754
10
28.23587739331556
20
39.3404030945586
10
28.37608753822384
20
39.02849311565219
10
28.4746061980241
20
38.694855760410455
10
28.543720860916846
20
38.3558170088356
10
28.596277319010976
20
38.027185544139705
10
28.643416012909515
20
37.72217341635193
10
28.693058921286873
20
37.45005788659286
10
28.75002763330353
20
37.21645718827233
10
28.816822498230138
20
37.02425968741144
10
28.89439672517256
20
36.87454733491939
0
LINE
5
125
100
AcDbEntity
8
0
100
AcDbLine
10
28.894396725172559
20
36.874547334919392
30
0
11
28.894396725172555
21
41.345113071932261
31
0
0
LINE
5
126
100
AcDbEntity
8
0
100
AcDbLine
10
28.894396725172555
20
41.345113071932261
30
0
11
-29.105603274827452
21
41.345113071932261
31
0
0
LINE
5
127
100
AcDbEntity
8
0
100
AcDbLine
10
-29.105603274827452
20
41.345113071932261
30
0
11
-29.105603274827452
21
28.525464266608282
31
0
0
LWPOLYLINE
5
128
100
AcDbEntity
8
0
100
AcDbPolyline
90
34
43
0.0
10
-29.105603274827452
20
28.52546426660828
10
-29.01066716153328
20
28.644674828880927
10
-28.91160260172949
20
28.73727809553502
10
-28.808429412755352
20
28.803484509193215
10
-28.701206173802447
20
28.84388696942897
10
-28.590052930980995
20
28.859674904408323
10
-28.475171534950967
20
28.85282938561386
10
-28.235578312182422
20
28.784417289696997
10
-27.731840654590066
20
28.576557050861936
10
-27.475358523973384
20
28.526398045091668
10
-27.21607227893715
20
28.543128955499093
10
-26.662989780339263
20
28.683581902366583
10
-26.352320690740978
20
28.718714631235127
10
-26.185951535481212
20
28.71047487052292
10
-26.012206360336172
20
28.68228455697019
10
-25.644758200940252
20
28.567897904598002
10
-25.256681215461068
20
28.39119761457927
10
-24.45243635335289
20
27.966386458141137
10
-24.048683312061087
20
27.77390488697152
10
-23.645360387386336
20
27.614849818677424
10
-23.239884360321707
20
27.489493516000188
10
-22.830013480438396
20
27.389613773315702
10
-22.007630603003978
20
27.210203437464145
10
-21.617431290784346
20
27.100436191050868
10
-21.265363004432423
20
26.96131008407851
10
-20.968783556095982
20
26.787673874621376
10
-20.737210173832395
20
26.58275142655417
10
-20.566576526769882
20
26.3603729119984
10
-20.438477303218566
20
26.14401445956274
10
-20.327238773247583
20
25.96081305800555
10
-20.208883013879806
20
25.83436110841084
10
-20.068409125307547
20
25.77895532341311
10
-19.98782124888816
20
25.779810420958402
10
-19.89999955520034
20
25.799999423325055
0
LWPOLYLINE
5
129
100
AcDbEntity
8
0
100
AcDbPolyline
90
9
43
0.0
10
-19.89999955520034
20
25.79999942332505
10
-20.023551002679753
20
25.702626704006832
10
-20.114645566901384
20
25.58436434024479
10
-20.172728903982623
20
25.456004104827368
10
-20.198483996727305
20
25.329460643336905
10
-20.193118715129565
20
25.215216166527973
10
-20.157765325133177
20
25.12028055647373
10
-20.09323373806992
20
25.04814150711202
10
-19.999999552965164
20
24.999999441206455
0
LWPOLYLINE
5
130
100
AcDbEntity
8
0
100
AcDbPolyline
90
30
43
0.0
10
-19.999999552965164
20
24.999999441206455
10
-20.25708554811413
20
24.96098556922916
10
-20.515023859357893
20
24.894527979952844
10
-20.7735231057969
20
24.800938246388792
10
-21.03182051176382
20
24.681140159345254
10
-21.288445643135127
20
24.537014208778373
10
-21.541023793029982
20
24.371664859190318
10
-22.021234350187736
20
23.992772568953235
10
-22.447215030147618
20
23.566304312604167
10
-22.634796381742717
20
23.332339862959213
10
-22.804774444072557
20
23.07710116159461
10
-22.957094690847367
20
22.793421423117096
10
-23.091129706284036
20
22.47516747775233
10
-23.204894709975754
20
22.119177985113513
10
-23.294453620370852
20
21.726893439481042
10
-23.354299766437904
20
21.304384604606277
10
-23.378539884543905
20
20.861066460725564
10
-23.362149572225416
20
20.408302708837233
10
-23.302243634479545
20
19.958004655064336
10
-23.199341104925647
20
19.521241629415655
10
-23.05856018381109
20
19.10688919260591
10
-22.889562157224603
20
18.720909309495173
10
-22.704658028186028
20
18.36655788797664
10
-22.51646417607816
20
18.044811454798477
10
-22.33558074390426
20
17.754783674263056
10
-22.168229828226064
20
17.494136818777033
10
-22.01417502850911
20
17.259497972629706
10
-21.71535790552531
20
16.852645116056923
10
-21.54874298462543
20
16.673378022303407
10
-21.357744611982874
20
16.507224342575835
0
LWPOLYLINE
5
131
100
AcDbEntity
8
0
100
AcDbPolyline
90
9
43
0.0
10
-21.35774461198287
20
16.50722434257583
10
-21.099035886809013
20
16.330379903308224
10
-20.79947427434354
20
16.172457706774956
10
-20.461798186929204
20
16.036313369030193
10
-20.09019243852482
20
15.924883615079883
10
-19.68812069632438
20
15.84030706399914
10
-19.257787314093008
20
15.783803670620442
10
-18.80041130700046
20
15.755930419686882
10
-18.316515455039458
20
15.756840075216981
0
LWPOLYLINE
5
132
100
AcDbEntity
8
0
100
AcDbPolyline
90
5
43
0.0
10
-18.31651545503946
20
15.75684007521698
10
-18.343998131307632
20
15.577250160173925
10
-18.34884298977891
20
15.40834055088362
10
-18.33365151363845
20
15.249442168520853
10
-18.29999959096312
20
15.099999662488695
0
LWPOLYLINE
5
133
100
AcDbEntity
8
0
100
AcDbPolyline
90
36
43
0.0
10
-18.29999959096312
20
15.099999662488695
10
-18.391167823725148
20
15.036034795294585
10
-18.414467537072035
20
14.95295617269153
10
-18.37370640209573
20
14.84983994397852
10
-18.27890383472043
20
14.724524625049293
10
-18.14653349429567
20
14.574014790570928
10
-17.996734324341357
20
14.39586266320017
10
-17.850082487120886
20
14.189692938877437
10
-17.725115821844692
20
13.95817965021171
10
-17.637611371285335
20
13.70672057578217
10
-17.600536929049294
20
13.442610684400323
10
-17.624000048351576
20
13.174216514716186
10
-17.71503297099162
20
12.910345167111696
10
-17.876867819965142
20
12.660247969467925
10
-18.107917666642663
20
12.433972009586126
10
-18.400718506703004
20
12.242727937703961
10
-18.740974917701866
20
12.09916923057305
10
-19.10825918501241
20
12.01656776404136
10
-19.478965369618244
20
12.00649042461174
10
-19.658198901301823
20
12.031142533665122
10
-19.829734707170065
20
12.076139350183155
10
-19.991252588614987
20
12.141259654701532
10
-20.140880735094584
20
12.225666451136199
10
-20.277290739432384
20
12.327837871811566
10
-20.399736995560726
20
12.445570093134979
10
-20.602250605454106
20
12.716361274185898
10
-20.75115489908664
20
13.01267032947588
10
-20.85314619202288
20
13.308663105634885
10
-20.916056709804483
20
13.58348721699896
10
-20.946168389195634
20
13.826387454121415
10
-20.946907368246855
20
14.038041503853446
10
-20.919484710760578
20
14.226537537642347
10
-20.863930679475413
20
14.402287870136409
10
-20.780042205798644
20
14.573451238455334
10
-20.667781697641367
20
14.744405938826139
10
-20.527207849766842
20
14.916832175472452
0
LWPOLYLINE
5
134
100
AcDbEntity
8
0
100
AcDbPolyline
90
5
43
0.0
10
-20.527207849766842
20
14.916832175472452
10
-20.89953223654635
20
14.874809741340497
10
-21.224018927946897
20
14.802778666225779
10
-21.493835341272497
20
14.696452863209878
10
-21.713286118914027
20
14.558532639385277
0
LWPOLYLINE
5
135
100
AcDbEntity
8
0
100
AcDbPolyline
90
2
43
0.0
10
-21.713286118913818
20
14.558532639385016
10
-21.731054719190894
20
14.544540874642745
0
LWPOLYLINE
5
136
100
AcDbEntity
8
0
100
AcDbPolyline
90
9
43
0.0
10
-21.7310547191909
20
14.544540874642744
10
-21.95064776459374
20
14.411791457103318
10
-22.208573701311938
20
14.317235513883572
10
-22.483831453280878
20
14.265194472923199
10
-22.75282110762242
20
14.259200458647527
10
-22.994849541869574
20
14.301601154972909
10
-23.196485094973525
20
14.393264949193133
10
-23.351417482256675
20
14.533957999153275
10
-23.457751196733632
20
14.723077945884334
0
LINE
5
137
100
AcDbEntity
8
0
100
AcDbLine
10
-23.457751196733632
20
14.723077945884334
30
0
11
-22.599999494850636
21
15.899999644607306
31
0
0
LWPOLYLINE
5
138
100
AcDbEntity
8
0
100
AcDbPolyline
90
16
43
0.0
10
-22.599999494850636
20
15.899999644607306
10
-22.554121791101064
20
15.985956862040162
10
-22.541657187883313
20
16.052242456271493
10
-22.565686647199964
20
16.0972257181536
10
-22.632939991920036
20
16.11741825436011
10
-22.751623379839767
20
16.10884431935773
10
-22.925077715733362
20
16.070802877317718
10
-23.146022474357153
20
16.00925726949955
10
-23.397583342693952
20
15.936134986435093
10
-23.912056464632194
20
15.81108361427543
10
-24.144966251206295
20
15.780825595200218
10
-24.352950379008014
20
15.779423223502892
10
-24.535346688552277
20
15.808440514539205
10
-24.69319093060024
20
15.867917823820052
10
-24.827526025671606
20
15.957378303068914
10
-24.93900090712668
20
16.07631842204588
0
LINE
5
139
100
AcDbEntity
8
0
100
AcDbLine
10
-24.93900090712668
20
16.07631842204588
30
0
11
-24.939000907126676
21
16.49999963119626
31
0
0
LINE
5
140
100
AcDbEntity
8
0
100
AcDbLine
10
-24.939000907126676
20
16.49999963119626
30
0
11
-25.910506645793468
21
17.063878511052714
31
0
0
LWPOLYLINE
5
141
100
AcDbEntity
8
0
100
AcDbPolyline
90
17
43
0.0
10
-25.910506645793465
20
17.06387851105271
10
-26.114163217255147
20
17.141353282855174
10
-26.352261515228363
20
17.170592250598904
10
-26.62376883977096
20
17.151613162034955
10
-26.924993728492364
20
17.085839519405067
10
-27.24777872031695
20
16.977420067789247
10
-27.577775697246
20
16.834552948915963
10
-27.894949311320083
20
16.669514597820942
10
-28.17726818010595
20
16.496816906559786
10
-28.405045923374452
20
16.331044594882417
10
-28.565403454287395
20
16.184701061881217
10
-28.656748469795875
20
16.06607958354412
10
-28.68973578220964
20
15.978406248906678
10
-28.681613342828324
20
15.921341437279333
10
-28.648802230122776
20
15.893082730522341
10
-28.601423807884814
20
15.892023178527284
10
-28.543499378874575
20
15.917254852572702
0
LWPOLYLINE
5
142
100
AcDbEntity
8
0
100
AcDbPolyline
90
21
43
0.0
10
-28.543499378874568
20
15.917254852572704
10
-28.453417724844403
20
16.0361005416972
10
-28.291000752653883
20
16.147469334872316
10
-28.06097417940232
20
16.248200347338344
10
-27.77767267578555
20
16.330290616052384
10
-27.467816931539737
20
16.380317985335815
10
-27.166088626151062
20
16.3832926451892
10
-27.02953764473545
20
16.36339715616548
10
-26.908012369966475
20
16.32826470385238
10
-26.804923699224013
20
16.278066138870255
10
-26.72295603721847
20
16.21368827906426
10
-26.663990903233394
20
16.13658856310872
10
-26.629031899979022
20
16.04863896582016
10
-26.618118199878932
20
15.951981385686814
10
-26.630235131057812
20
15.848880756802723
10
-26.71426652399151
20
15.6323083791014
10
-26.85546274879962
20
15.415739404154753
10
-27.02381117683262
20
15.213173717223599
10
-27.194629998811845
20
15.034307309545737
10
-27.35416889886276
20
14.884023535637008
10
-27.497339292129837
20
14.763862996769532
0
LWPOLYLINE
5
143
100
AcDbEntity
8
0
100
AcDbPolyline
90
21
43
0.0
10
-27.49733929212984
20
14.763862996769532
10
-27.341255285930675
20
14.640183082773865
10
-27.16744788221872
20
14.552040738552805
10
-26.97487519495243
20
14.494003209441095
10
-26.76142904749617
20
14.451063705888357
10
-26.52584235019215
20
14.397981505870248
10
-26.274021082995116
20
14.307680344409176
10
-26.02669755936474
20
14.162364712257801
10
-25.916123236324257
20
14.068097067439812
10
-25.821593002723475
20
13.960887495330292
10
-25.74835548851612
20
13.842711730281016
10
-25.70077284230922
20
13.715999470181984
10
-25.681696751539942
20
13.583421920729192
10
-25.691912348853478
20
13.44769573186108
10
-25.730009864375408
20
13.311446060069464
10
-25.792801668261113
20
13.177145562495546
10
-25.974263088961553
20
12.923286217522628
10
-26.196455628108655
20
12.701287923097926
10
-26.425567277298526
20
12.521194270061823
10
-26.6428390929859
20
12.387751922781991
10
-26.841300144405178
20
12.302253237100315
0
LWPOLYLINE
5
144
100
AcDbEntity
8
0
100
AcDbPolyline
90
45
43
0.0
10
-26.841300144405178
20
12.302253237100313
10
-26.736785456554177
20
12.12071943030313
10
-26.61778900222365
20
12.003428237295038
10
-26.482843039220544
20
11.94629229092307
10
-26.328214598705472
20
11.938212803510933
10
-26.147574595443583
20
11.958603188965498
10
-25.934828648261686
20
11.979850179039412
10
-25.689105445929354
20
11.973190051998492
10
-25.419832443652773
20
11.914727956424516
10
-25.148603831585387
20
11.78947783728185
10
-25.02132682265067
20
11.699636303790127
10
-24.904852787342293
20
11.591524390481048
10
-24.8030286165322
20
11.465635980157593
10
-24.719391241233588
20
11.322891971105834
10
-24.65694622921858
20
11.164608370139227
10
-24.617979497747022
20
10.992464258502697
10
-24.603971446229334
20
10.808463117386959
10
-24.61559924173839
20
10.6148895461852
10
-24.652825732213593
20
10.414262278242338
10
-24.714990808791725
20
10.20928729023177
10
-24.80088103823718
20
10.002812093381541
10
-24.90880367286909
20
9.797779979530098
10
-25.1820555474587
20
9.40402180557905
10
-25.514575036181938
20
9.051734227157922
10
-25.883393480738686
20
8.763240004060489
10
-26.07403556365168
20
8.649147930260357
10
-26.264987703227284
20
8.55799894381465
10
-26.45349536414666
20
8.491542830943438
10
-26.636955290679744
20
8.45117261337784
10
-26.812956682746965
20
8.437877819453954
10
-26.979322517344322
20
8.452196713696777
10
-27.13414810755083
20
8.494173360988254
10
-27.275841171080295
20
8.563312171287185
10
-27.403170321841163
20
8.658517868087522
10
-27.515302259528962
20
8.778054688027765
10
-27.611805736931363
20
8.919562368570475
10
-27.692622986238586
20
9.080127928131315
10
-27.80846774478201
20
9.444784021185363
10
-27.867567968568665
20
9.842434600109122
10
-27.87692662854307
20
10.24247793204295
10
-27.844037828981516
20
10.617111633226264
10
-27.775161147950183
20
10.945041599595152
10
-27.67440116485198
20
11.21308602203099
10
-27.54398152979527
20
11.414643435056954
10
-27.384831913602188
20
11.54735596745326
0
LWPOLYLINE
5
145
100
AcDbEntity
8
0
100
AcDbPolyline
90
9
43
0.0
10
-27.384831913602188
20
11.547355967453258
10
-27.681220724538075
20
11.477112919013388
10
-27.95721563497623
20
11.39589460762727
10
-28.2108878755499
20
11.302663039068571
10
-28.43983934999127
20
11.196127644271245
10
-28.642570159708768
20
11.075481231818069
10
-28.819770073135487
20
10.941095010243338
10
-28.97349419980666
20
10.794074965502025
10
-29.105603274827452
20
10.635422478229492
0
LINE
5
146
100
AcDbEntity
8
0
100
AcDbLine
10
-29.105603274827452
20
10.635422478229493
30
0
11
-29.105603274827452
21
-3.1299033044306235
31
0
0
LWPOLYLINE
5
147
100
AcDbEntity
8
0
100
AcDbPolyline
90
9
43
0.0
10
-29.105603274827452
20
-3.1299033044306244
10
-28.65971818989515
20
-2.998905385077438
10
-28.22222091549785
20
-2.8493001455951585
10
-27.79386844998387
20
-2.679408278773621
10
-27.37555078576162
20
-2.487255446528747
10
-26.967703204434542
20
-2.271876030454016
10
-26.56987657990481
20
-2.0342663612365492
10
-26.181175086916827
20
-1.776413716394486
10
-25.800840571616444
20
-1.4999999664723873
0
LWPOLYLINE
5
148
100
AcDbEntity
8
0
100
AcDbPolyline
90
5
43
0.0
10
-25.800840571616444
20
-1.4999999664723873
10
-25.24001472000929
20
-1.525071390341763
10
-24.64668630492205
20
-1.4975066051385972
10
-24.01754224782286
20
-1.4119402527153735
10
-23.356804152463603
20
-1.2752090005344943
0
LWPOLYLINE
5
149
100
AcDbEntity
8
0
100
AcDbPolyline
90
16
43
0.0
10
-23.356804152463603
20
-1.275209000534494
10
-23.625196754062955
20
-1.5116871473505102
10
-23.87524695709001
20
-1.7609468361400087
10
-24.10616298869335
20
-2.0224053249765617
10
-24.316392624106893
20
-2.2941709588794197
10
-24.50344729346382
20
-2.5722022905649045
10
-24.66374940191692
20
-2.8494103936199626
10
-24.792671039603857
20
-3.115121142414802
10
-24.885389180659455
20
-3.356480991059354
10
-24.938374871666444
20
-3.561323417654408
10
-24.951022133907088
20
-3.7212145870760494
10
-24.92727211929437
20
-3.834441941656841
10
-24.875546773302943
20
-3.906488837603943
10
-24.805982122835303
20
-3.9465358939737216
10
-24.727117558697994
20
-3.9631643886040666
10
-24.558130189247446
20
-3.9439585291186856
0
LINE
5
150
100
AcDbEntity
8
0
100
AcDbLine
10
-24.55813018924745
20
-3.9439585291186856
30
0
11
-23.246348927207507
21
-3.8983174325978376
31
0
0
LINE
5
151
100
AcDbEntity
8
0
100
AcDbLine
10
-23.246348927207507
20
-3.8983174325978376
30
0
11
-23.299999479204416
21
-4.6999998949468136
31
0
0
LINE
5
152
100
AcDbEntity
8
0
100
AcDbLine
10
-23.299999479204416
20
-4.6999998949468136
30
0
11
-23.744316558572351
21
-4.1523825506411232
31
0
0
LINE
5
153
100
AcDbEntity
8
0
100
AcDbLine
10
-23.744316558572351
20
-4.1523825506411232
30
0
11
-23.899999465793371
21
-4.1523825506411232
31
0
0
LWPOLYLINE
5
154
100
AcDbEntity
8
0
100
AcDbPolyline
90
5
43
0.0
10
-23.89999946579337
20
-4.152382550641123
10
-23.92484287289492
20
-4.494860011013605
10
-23.918051807942184
20
-4.828967456900546
10
-23.87580113693064
20
-5.153692814276988
10
-23.80173966936006
20
-5.470001504274543
0
LWPOLYLINE
5
155
100
AcDbEntity
8
0
100
AcDbPolyline
90
13
43
0.0
10
-23.801739669360053
20
-5.470001504274543
10
-23.876389305084746
20
-5.491013847055995
10
-23.93048478215283
20
-5.489443894732934
10
-23.99265930278861
20
-5.4314577022587756
10
-24.065009231691327
20
-5.360360092645073
10
-24.132148086165042
20
-5.342419380368734
10
-24.221518042859927
20
-5.336850243167253
10
-24.440228605542533
20
-5.334792974837017
10
-24.67083176084064
20
-5.293500003706371
10
-24.78208166074078
20
-5.2439769931803415
10
-24.88876960098782
20
-5.171219486612181
10
-24.99039005945417
20
-5.074267882005643
10
-25.08680686143903
20
-4.953020449989897
0
LWPOLYLINE
5
156
100
AcDbEntity
8
0
100
AcDbPolyline
90
9
43
0.0
10
-25.08680686143903
20
-4.953020449989897
10
-25.04501215745643
20
-5.250376604192728
10
-24.992168772681318
20
-5.52964229242504
10
-24.927230954038794
20
-5.789105259543854
10
-24.848897329448807
20
-6.02663471474431
10
-24.756351153930932
20
-6.240893367391694
10
-24.649962061664183
20
-6.432486434946769
10
-24.53084209641884
20
-6.603234713069082
10
-24.3999994546175
20
-6.754788963823832
0
LINE
5
157
100
AcDbEntity
8
0
100
AcDbLine
10
-24.3999994546175
20
-6.7547889638238328
30
0
11
-24.579842033750872
21
-6.7547889638238345
31
0
0
LINE
5
158
100
AcDbEntity
8
0
100
AcDbLine
10
-24.579842033750872
20
-6.7547889638238345
30
0
11
-24.844069756515893
21
-6.4803986363370853
31
0
0
LWPOLYLINE
5
159
100
AcDbEntity
8
0
100
AcDbPolyline
90
9
43
0.0
10
-24.84406975651589
20
-6.480398636337085
10
-25.134577657870153
20
-6.450323685375092
10
-25.391394207644254
20
-6.430285084992293
10
-25.611071689107344
20
-6.421309878992494
10
-25.788948618814715
20
-6.42478668136763
10
-25.921185633694304
20
-6.441859203848047
10
-26.00742293569848
20
-6.472634627044794
10
-26.050475267070222
20
-6.516274464572925
10
-26.053419718401937
20
-6.571862078832669
0
LINE
5
160
100
AcDbEntity
8
0
100
AcDbLine
10
-26.053419718401937
20
-6.5718620788326687
30
0
11
-24.299999456852674
21
-7.5999998301267624
31
0
0
LWPOLYLINE
5
161
100
AcDbEntity
8
0
100
AcDbPolyline
90
21
43
0.0
10
-24.299999456852674
20
-7.599999830126762
10
-24.338974490066846
20
-7.730111022971103
10
-24.355354311196436
20
-7.870412395717389
10
-24.349056727767106
20
-8.020814615080436
10
-24.3200215075285
20
-8.18101413171276
10
-24.268278106824834
20
-8.35036165488788
10
-24.19401768630075
20
-8.527724124217396
10
-24.097660966993722
20
-8.71136747568368
10
-23.979881291473298
20
-8.898990504233607
10
-23.683945929434486
20
-9.275037170208304
10
-23.31622900553866
20
-9.632074152179385
10
-22.8901757999999
20
-9.947559898746446
10
-22.42231652128196
20
-10.204616785285813
10
-21.93112230007579
20
-10.393481055446012
10
-21.435461597177117
20
-10.51152339385173
10
-20.953093160270132
20
-10.563359167083282
10
-20.499418618193232
20
-10.559853041868497
10
-20.08670050979375
20
-10.51465559468044
10
-19.72333836999348
20
-10.440079975820623
10
-19.413447245144628
20
-10.343857382995534
10
-19.15803321547799
20
-10.229192429806902
0
LWPOLYLINE
5
162
100
AcDbEntity
8
0
100
AcDbPolyline
90
12
43
0.0
10
-19.15803321547799
20
-10.2291924298069
10
-19.13945826101496
20
-10.257668050052247
10
-19.094448765777106
20
-10.264361556600377
10
-19.022909153495153
20
-10.248993397587462
10
-18.92534245412203
20
-10.211451783471093
10
-18.80348204880078
20
-10.152143524671047
10
-18.66078675592071
20
-10.0722842825896
10
-18.333511148473526
20
-9.859078376609466
10
-17.989144167497308
20
-9.590742164561137
10
-17.66642895872057
20
-9.28489093141803
10
-17.38483124892121
20
-8.952918546683552
10
-17.149356739001984
20
-8.600146297941697
0
LINE
5
163
100
AcDbEntity
8
0
100
AcDbLine
10
-17.149356739001988
20
-8.6001462979416967
30
0
11
-17.346429944231254
21
-8.566170262262931
31
0
0
LWPOLYLINE
5
164
100
AcDbEntity
8
0
100
AcDbPolyline
90
9
43
0.0
10
-17.34642994423125
20
-8.566170262262931
10
-17.204460794984232
20
-8.285519727692517
10
-17.083756698540522
20
-8.02273191915307
10
-16.986403509527808
20
-7.779558962543292
10
-16.91510108487676
20
-7.5582687480547355
10
-16.871798291563636
20
-7.360498331432815
10
-16.856172936151985
20
-7.185977068953285
10
-16.866222403060615
20
-7.03302275583585
10
-16.899999622255564
20
-6.899999845772982
0
LINE
5
165
100
AcDbEntity
8
0
100
AcDbLine
10
-16.899999622255564
20
-6.8999998457729816
30
0
11
-17.499999608844519
21
-6.2999998591840267
31
0
0
LWPOLYLINE
5
166
100
AcDbEntity
8
0
100
AcDbPolyline
90
5
43
0.0
10
-17.49999960884452
20
-6.299999859184027
10
-17.490308264456704
20
-6.069143100909877
10
-17.51878003663159
20
-5.858014332807291
10
-17.590120106330513
20
-5.669045844797616
10
-17.699999604374167
20
-5.499999877065418
0
LWPOLYLINE
5
167
100
AcDbEntity
8
0
100
AcDbPolyline
90
5
43
0.0
10
-17.69999960437417
20
-5.49999987706542
10
-17.531641911861744
20
-5.547590696310025
10
-17.406519946341923
20
-5.596705303535613
10
-17.330726322486974
20
-5.647558425150205
10
-17.299999613314867
20
-5.699999872595072
0
LWPOLYLINE
5
168
100
AcDbEntity
8
0
100
AcDbPolyline
90
7
43
0.0
10
-17.299999613314867
20
-5.699999872595072
10
-17.168760568444903
20
-5.33815292951045
10
-17.126544987209954
20
-5.174000834135317
10
-17.102129326818176
20
-5.022604247145055
10
-17.09660821092812
20
-4.8847475810872805
10
-17.109500266826043
20
-4.76008588197334
10
-17.184762841687224
20
-4.54621898695126
0
LWPOLYLINE
5
169
100
AcDbEntity
8
0
100
AcDbPolyline
90
14
43
0.0
10
-17.184762841687224
20
-4.54621898695126
10
-17.14876263459694
20
-4.544190558743102
10
-17.110649214685242
20
-4.572980796196562
10
-17.070519477077447
20
-4.632760172067109
10
-17.028688538931434
20
-4.723092516117535
10
-16.98582725756728
20
-4.842255090738568
10
-16.943102625955245
20
-4.986510378244729
10
-16.865068061120645
20
-5.325428314627552
10
-16.81069280440974
20
-5.680640950321567
10
-16.794657159449393
20
-5.995749107190103
10
-16.803610163506963
20
-6.127058411017759
10
-16.824223796300533
20
-6.238417507081825
10
-16.85640663979202
20
-6.329380810615334
10
-16.89999962225556
20
-6.3999998569488525
0
LWPOLYLINE
5
170
100
AcDbEntity
8
0
100
AcDbPolyline
90
5
43
0.0
10
-16.899999622255564
20
-6.3999998569488525
10
-16.63839648145912
20
-6.325144451999578
10
-16.394697810794582
20
-6.19641894654092
10
-16.170869910144976
20
-6.007907233068437
10
-15.964692625583291
20
-5.76628920305519
0
LWPOLYLINE
5
171
100
AcDbEntity
8
0
100
AcDbPolyline
90
5
43
0.0
10
-15.964692625583293
20
-5.76628920305519
10
-15.941567561598019
20
-5.542511068285665
10
-15.954988831810937
20
-5.323356944267286
10
-16.0092403950679
20
-5.109368857233162
10
-16.099999640136957
20
-4.899999890476464
0
LWPOLYLINE
5
172
100
AcDbEntity
8
0
100
AcDbPolyline
90
23
43
0.0
10
-16.099999640136957
20
-4.899999890476465
10
-15.760403609495416
20
-5.064200231808258
10
-15.459804205127062
20
-5.194045323447002
10
-15.198261189797112
20
-5.289482288837501
10
-14.97566447438424
20
-5.350607454119502
10
-14.791550702965598
20
-5.377827835932832
10
-14.644911437386616
20
-5.372029884900617
10
-14.533991032695406
20
-5.334757091170568
10
-14.456093474936512
20
-5.268380862857642
10
-14.407346704737556
20
-5.1763065121966365
10
-14.382662869101017
20
-5.063020555790641
10
-14.381661599955361
20
-4.794138033475717
10
-14.433211033521474
20
-4.222452793921288
10
-14.462672352603567
20
-3.95634498536446
10
-14.520313579444244
20
-3.6958641116360877
10
-14.625304030258539
20
-3.431401855888093
10
-14.770367960418435
20
-3.1676681305321606
10
-14.923282482608728
20
-2.9236118459040643
10
-15.044943421872432
20
-2.7219833392045722
10
-15.084600377855317
20
-2.6425175619234484
10
-15.107453773888999
20
-2.5787917224487624
10
-15.112677823644246
20
-2.5312435054682614
10
-15.099999662488699
20
-2.499999944120645
0
LWPOLYLINE
5
173
100
AcDbEntity
8
0
100
AcDbPolyline
90
19
43
0.0
10
-15.099999662488699
20
-2.4999999441206455
10
-14.853182075222158
20
-2.573669072282129
10
-14.639942421279176
20
-2.5829186544261584
10
-14.461244614254662
20
-2.5366766060100434
10
-14.318592239689993
20
-2.4599330344295267
10
-14.21166103932885
20
-2.3942260696864683
10
-14.129321240910132
20
-2.3732330555671877
10
-14.039997974954911
20
-2.390388612321662
10
-13.905809681824053
20
-2.4003825742190057
10
-13.726150282636368
20
-2.3633112691160503
10
-13.562624755755003
20
-2.2796238310644936
10
-13.513645513154886
20
-2.229174636047372
10
-13.497268172308203
20
-2.1786731194238933
10
-13.51562267921427
20
-2.1313141522478127
10
-13.565362748982361
20
-2.088901861285825
10
-13.727644450302924
20
-2.020788423561622
10
-13.911428677281338
20
-1.9724656248804744
10
-14.062399096892042
20
-1.9399488493189756
10
-14.159154379737048
20
-1.921363889454385
0
LWPOLYLINE
5
174
100
AcDbEntity
8
0
100
AcDbPolyline
90
46
43
0.0
10
-14.159154379737046
20
-1.9213638894543852
10
-14.018688158495248
20
-1.8510740042923672
10
-13.85812170934921
20
-1.7609562736351891
10
-13.677647836949655
20
-1.651175091868459
10
-13.477801964799582
20
-1.5221915098605203
10
-13.25964568880298
20
-1.374923598150413
10
-13.024952316403349
20
-1.2109086412121555
10
-12.51771225235142
20
-0.8428489462152129
10
-11.99027852276128
20
-0.4476565360892619
10
-11.487945906404168
20
-0.06381701899716066
10
-11.259703724041962
20
0.11295838541465827
10
-11.051989301999413
20
0.2759604135382278
10
-10.866599567928722
20
0.4246413419927067
10
-10.702993409494352
20
0.5608283094028624
10
-10.425413650762106
20
0.8166557486748225
10
-10.170981532088174
20
1.1020130784590492
10
-10.036849329479747
20
1.274413925314772
10
-9.89388774720872
20
1.4723323425941277
10
-9.59287709917379
20
1.936995453072447
10
-9.327450275934101
20
2.43949814163455
10
-9.234094615060808
20
2.676144439740431
10
-9.178496303065357
20
2.8871875610346325
10
-9.164643015485234
20
3.06294885412008
10
-9.190629004075278
20
3.197266597021009
10
-9.247777594315476
20
3.288646643716723
10
-9.323129588007152
20
3.340397659140293
10
-9.403525488246668
20
3.3601635712069076
10
-9.480055238322308
20
3.3595255352676916
10
-9.61669978129845
20
3.3539056717155518
10
-9.681683515596639
20
3.3730619625810396
10
-9.74443935605898
20
3.412990770686207
10
-9.840847197913792
20
3.5377044508010482
10
-9.86033515510631
20
3.612734092992994
10
-9.853586013849217
20
3.6967760291674714
10
-9.818298343256808
20
3.7957669187340892
10
-9.754330020401758
20
3.916624510010918
10
-9.663407661639877
20
4.064194750440707
10
-9.548785443741002
20
4.239261461024198
10
-9.414829460131214
20
4.43875712279144
10
-9.266581368916803
20
4.656880999412345
10
-8.948123016773359
20
5.118416931671478
10
-8.630611451270408
20
5.563046360618965
10
-8.335018294259008
20
5.952416422161259
10
-8.06235975078589
20
6.282771154665229
10
-7.539445184276002
20
6.842420329582808
10
-6.982955085744585
20
7.374579098812832
0
LINE
5
175
100
AcDbEntity
8
0
100
AcDbLine
10
-6.9829550857445852
20
7.3745790988128324
30
0
11
-5.9541546576801005
21
8.1569551317397675
31
0
0
LINE
5
176
100
AcDbEntity
8
0
100
AcDbLine
10
-5.9541546576801005
20
8.1569551317397675
30
0
11
-5.7454498197933823
21
9.3449672858641737
31
0
0
LINE
5
177
100
AcDbEntity
8
0
100
AcDbLine
10
-5.7454498197933823
20
9.3449672858641737
30
0
11
-6.1533365676716576
21
9.8813258182812689
31
0
0
LWPOLYLINE
5
178
100
AcDbEntity
8
0
100
AcDbPolyline
90
18
43
0.0
10
-6.153336567671658
20
9.881325818281269
10
-6.3290892643254475
20
10.024044707053031
10
-6.517553299530153
20
10.125675095359824
10
-6.719347303794685
20
10.187052686492596
10
-6.935693583374599
20
10.211463662149422
10
-7.167677530475583
20
10.2045440558611
10
-7.413410871745176
20
10.16998719797128
10
-7.6644344031762035
20
10.103838480124278
10
-7.90416372601266
20
9.992461160714328
10
-8.111943185012832
20
9.820306351828222
10
-8.197841974537194
20
9.708964416279743
10
-8.269375202458383
20
9.581725122280638
10
-8.365540300138695
20
9.290064616616517
10
-8.397090105887797
20
8.974187907771377
10
-8.36523765127758
20
8.667201366803758
10
-8.2727789252227
20
8.39519952088707
10
-8.12214516518245
20
8.171888201145617
10
-7.914881626473
20
8.001926157357374
0
LINE
5
179
100
AcDbEntity
8
0
100
AcDbLine
10
-7.9148816264730009
20
8.0019261573573743
30
0
11
-8.2999998144805431
21
7.5999998301267624
31
0
0
LWPOLYLINE
5
180
100
AcDbEntity
8
0
100
AcDbPolyline
90
9
43
0.0
10
-8.299999814480543
20
7.599999830126762
10
-8.251661304611309
20
7.504529972521417
10
-8.239483531113782
20
7.386215079903897
10
-8.266310331418548
20
7.243258519458886
10
-8.334865076870162
20
7.073939764453245
10
-8.445108324113805
20
6.878283733763199
10
-8.593741494339072
20
6.658374349234671
10
-8.776588277209022
20
6.41685005149453
10
-8.990514252504557
20
6.155691052974853
0
LWPOLYLINE
5
181
100
AcDbEntity
8
0
100
AcDbPolyline
90
3
43
0.0
10
-8.990514252504557
20
6.155691052974854
10
-9.61946113958672
20
5.665103654521098
10
-10.233839473883801
20
5.200856015201154
0
LWPOLYLINE
5
182
100
AcDbEntity
8
0
100
AcDbPolyline
90
7
43
0.0
10
-10.233839473883801
20
5.200856015201152
10
-10.053693703688737
20
5.643962317534694
10
-9.985617452979913
20
5.883121537576462
10
-9.933986945377805
20
6.135443902519928
10
-9.899349792271572
20
6.401367719591804
10
-9.880824771086933
20
6.680187659737059
10
-9.886316758096356
20
7.2718781082145085
0
LWPOLYLINE
5
183
100
AcDbEntity
8
0
100
AcDbPolyline
90
24
43
0.0
10
-9.886316758096351
20
7.271878108214514
10
-9.722962724212197
20
7.500790689661145
10
-9.593757577748377
20
7.731603622574652
10
-9.498567488310186
20
7.959142712764621
10
-9.436439876341613
20
8.175771100754847
10
-9.40526957667052
20
8.37486688836434
10
-9.401467225096184
20
8.556085152324814
10
-9.419615440353644
20
8.730434051091077
10
-9.452707740817905
20
8.920718432712818
10
-9.49320252102635
20
9.155630460154528
10
-9.514023185605085
20
9.29860597607718
10
-9.534237989965147
20
9.462496367182283
10
-9.553252711354006
20
9.649551957451019
10
-9.570584938923247
20
9.861509131342544
10
-9.58584889898454
20
10.099673738735294
10
-9.598743211882548
20
10.364986686739066
10
-9.609040733051753
20
10.658076762045134
10
-9.616577501847733
20
10.979318119226583
10
-9.621241803393128
20
11.328886627545282
10
-9.622964266396506
20
11.70680962381208
10
-9.621708296652969
20
12.113013225641396
10
-9.617460631969369
20
12.547368434618113
10
-9.610222276176328
20
13.009734498376066
10
-9.599999785423279
20
13.499999698251486
0
LWPOLYLINE
5
184
100
AcDbEntity
8
0
100
AcDbPolyline
90
5
43
0.0
10
-9.599999785423279
20
13.499999698251486
10
-9.484321335907849
20
13.46140645846057
10
-9.378663596640244
20
13.44747966401032
10
-9.284267230678598
20
13.46127326488753
10
-9.199999794363976
20
13.499999698251486
0
LINE
5
185
100
AcDbEntity
8
0
100
AcDbLine
10
-9.1999997943639755
20
13.499999698251486
30
0
11
-9.1999997943639755
21
13.899999689310789
31
0
0
LINE
5
186
100
AcDbEntity
8
0
100
AcDbLine
10
-9.1999997943639755
20
13.899999689310789
30
0
11
-9.2999997921288013
21
13.999999687075615
31
0
0
LINE
5
187
100
AcDbEntity
8
0
100
AcDbLine
10
-9.2999997921288013
20
13.999999687075615
30
0
11
-9.1999997943639755
21
14.099999684840441
31
0
0
LINE
5
188
100
AcDbEntity
8
0
100
AcDbLine
10
-9.1999997943639755
20
14.099999684840441
30
0
11
-9.1999997943639755
21
14.799999669194221
31
0
0
LINE
5
189
100
AcDbEntity
8
0
100
AcDbLine
10
-9.1999997943639755
20
14.799999669194221
30
0
11
-9.2499997932463884
21
15.04763656276177
31
0
0
LINE
5
190
100
AcDbEntity
8
0
100
AcDbLine
10
-9.2499997932463884
20
15.04763656276177
30
0
11
-9.4594059185392769
21
15.257042688054659
31
0
0
LINE
5
191
100
AcDbEntity
8
0
100
AcDbLine
10
-9.4594059185392769
20
15.257042688054659
30
0
11
-9.4594059185392769
21
15.499999653548002
31
0
0
LWPOLYLINE
5
192
100
AcDbEntity
8
0
100
AcDbPolyline
90
18
43
0.0
10
-9.459405918539277
20
15.499999653548002
10
-9.327688373911469
20
15.468727120237535
10
-9.231989544308195
20
15.482389522997483
10
-9.10428777869862
20
15.581043586150859
10
-9.025626841200307
20
15.602398567990223
10
-8.91098724882927
20
15.57782992404313
10
-8.759157040873779
20
15.521448184585388
10
-8.577730594065113
20
15.462114385513702
10
-8.374399956093725
20
15.425234769314034
10
-8.156000384387593
20
15.425304544021145
10
-7.933367153454746
20
15.466354527646283
10
-7.725784092936805
20
15.543273851061969
10
-7.558962720813843
20
15.645049749452276
10
-7.457215058525186
20
15.75975228426441
10
-7.435962281490702
20
15.819175721827259
10
-7.435811220482994
20
15.879177299356188
10
-7.457128920092823
20
15.939486661156687
10
-7.499999832361937
20
15.999999642372131
0
LWPOLYLINE
5
193
100
AcDbEntity
8
0
100
AcDbPolyline
90
12
43
0.0
10
-7.499999832361937
20
15.999999642372131
10
-7.546304564605682
20
15.963686657837332
10
-7.598795602563979
20
15.947642157457189
10
-7.657521418570035
20
15.952158471764967
10
-7.722431979924071
20
15.97742233717939
10
-7.79325400636391
20
16.023218048821498
10
-7.86936353612997
20
16.088614242045722
10
-8.033341008210904
20
16.27104292567723
10
-8.204888033999222
20
16.507282030750808
10
-8.375628074220742
20
16.78054696725624
10
-8.54111271120952
20
17.07984462970603
10
-8.699999805539846
20
17.399999611079693
0
LWPOLYLINE
5
194
100
AcDbEntity
8
0
100
AcDbPolyline
90
3
43
0.0
10
-8.699999805539846
20
17.399999611079693
10
-8.411663665003317
20
17.74610495574793
10
-8.199999816715717
20
18.099999595433474
0
LWPOLYLINE
5
195
100
AcDbEntity
8
0
100
AcDbPolyline
90
13
43
0.0
10
-8.199999816715717
20
18.099999595433474
10
-8.083909552934841
20
18.068228829382367
10
-7.915450404140311
20
17.998199364753084
10
-7.70592103821014
20
17.91976151871839
10
-7.595049393443995
20
17.8992680185766
10
-7.486999324184429
20
17.907253368340108
10
-7.3865927896234505
20
17.955185172269672
10
-7.297053568725305
20
18.051700712720276
10
-7.2197517356385426
20
18.199717182210094
10
-7.155367945370997
20
18.394547044297724
10
-7.10462284836349
20
18.62570237247394
10
-7.068180057185449
20
18.88002628314551
10
-7.040416959987496
20
19.409548909715923
0
LINE
5
196
100
AcDbEntity
8
0
100
AcDbLine
10
-7.0404169599874962
20
19.409548909715923
30
0
11
-7.4366260178554775
21
19.746865304478419
31
0
0
LWPOLYLINE
5
197
100
AcDbEntity
8
0
100
AcDbPolyline
90
5
43
0.0
10
-7.4366260178554775
20
19.746865304478415
10
-7.358364001272579
20
20.06333102385974
10
-7.2972878633686244
20
20.419648784183313
10
-7.255106300052258
20
20.81978085120487
10
-7.229555746741114
20
21.258478283613258
0
LWPOLYLINE
5
198
100
AcDbEntity
8
0
100
AcDbPolyline
90
5
43
0.0
10
-7.229555746741115
20
21.258478283613265
10
-7.114657740208263
20
21.25014964676787
10
-7.011329026522695
20
21.258221859034993
10
-6.9209926016751
20
21.284712186561173
10
-6.8423334037276184
20
21.327756372592063
0
LINE
5
199
100
AcDbEntity
8
0
100
AcDbLine
10
-6.8423334037276184
20
21.327756372592063
30
0
11
-6.8423334037276184
21
22.199999503791332
31
0
0
LWPOLYLINE
5
200
100
AcDbEntity
8
0
100
AcDbPolyline
90
28
43
0.0
10
-6.8423334037276184
20
22.199999503791332
10
-6.714501507276883
20
22.05696418230652
10
-6.569060117291478
20
21.94326373887062
10
-6.406201560861915
20
21.858538969876733
10
-6.22655147271469
20
21.80164738167321
10
-6.031424150018365
20
21.77020518396155
10
-5.823094549733334
20
21.76010310051283
10
-5.381353521031899
20
21.77743646484032
10
-4.934256206898532
20
21.789744777913782
10
-4.716707421041662
20
21.774700524079947
10
-4.503888134854786
20
21.738934868174027
10
-4.078463977477255
20
21.604812922722733
10
-3.611101133394401
20
21.414451272456322
10
-3.344619165853052
20
21.314100578995447
10
-3.0496973811775807
20
21.219265839210316
10
-2.724970194942405
20
21.135379836170326
10
-2.372752707178881
20
21.066095449848763
10
-1.9985675049333267
20
21.013391750936503
10
-1.6103454932224703
20
20.97788422453677
10
-0.8308522414902122
20
20.95591297447051
10
-0.4604336160740469
20
20.96656598651342
10
-0.11614542345501488
20
20.9892251753996
10
0.1937663659858748
20
21.02213988210668
10
0.4631890229121716
20
21.063907102205526
10
0.6882061787355492
20
21.113551952634694
10
0.8666225621252357
20
21.170456422576475
10
0.9974550695018166
20
21.234275891991178
10
1.0804541693718415
20
21.304861324930066
0
LWPOLYLINE
5
201
100
AcDbEntity
8
0
100
AcDbPolyline
90
27
43
0.0
10
1.0804541693718417
20
21.30486132493007
10
1.1637342564790203
20
21.26236409584771
10
1.2733355019209986
20
21.21665083847627
10
1.4093480885682468
20
21.16780110108316
10
1.5718284213804545
20
21.116043653111774
10
1.7607163826345364
20
21.06183775799572
10
1.9757445946964816
20
21.005963874450686
10
2.216348992203801
20
20.949605914346883
10
2.481599579493501
20
20.89438810775477
10
2.770190264169835
20
20.842290000006408
10
3.0804706563474795
20
20.795473199684658
10
3.7579165720514087
20
20.72625084277935
10
4.494653223039036
20
20.70134291170657
10
5.267037023407398
20
20.727499892309556
10
6.0474033905118025
20
20.798159658688178
10
6.805101410746027
20
20.891717803828453
10
7.508911587841265
20
20.976476581441723
10
7.831393057281171
20
21.004512836535156
10
8.129883913213778
20
21.017233571020178
10
8.401610764798953
20
21.010771091455187
10
8.644330384165256
20
20.981869859206366
10
8.856416961712155
20
20.92806901228006
10
9.036848074949317
20
20.847725820490357
10
9.185075468574718
20
20.739859128810625
10
9.300888914509732
20
20.603979095963282
10
9.38428833165467
20
20.439926884344736
10
9.435358003534269
20
20.247715004881464
0
LWPOLYLINE
5
202
100
AcDbEntity
8
0
100
AcDbPolyline
90
5
43
0.0
10
9.435358003534269
20
20.247715004881456
10
9.52326108121128
20
20.42521447335768
10
9.648394686360433
20
20.61332481155667
10
9.808947851088044
20
20.808242251305618
10
10.000000149011608
20
21.000000312924385
0
LWPOLYLINE
5
203
100
AcDbEntity
8
0
100
AcDbPolyline
90
88
43
0.0
10
10.000000149011612
20
21.000000312924385
10
10.052450970805289
20
21.163351096922625
10
10.087915192034844
20
21.308137787082522
10
10.106507146889918
20
21.43452578605359
10
10.108530540860471
20
21.542951339912765
10
10.094576547436457
20
21.634261680323437
10
10.065622392759481
20
21.709856209173747
10
9.969124379394163
20
21.82305664223456
10
9.69997720041875
20
22.005110386411108
10
9.586476006182435
20
22.14133979114232
10
9.548250862962103
20
22.228970446121306
10
9.526532785636844
20
22.32829291413155
10
9.52364274317372
20
22.436423469960072
10
9.54108620424383
20
22.549603190395988
10
9.579398643321564
20
22.663754533246756
10
9.638002650258658
20
22.775017079708206
10
9.807291774851617
20
22.97784443360487
10
10.017785012579697
20
23.15041416233145
10
10.223772866950277
20
23.30549714843798
10
10.38115353580762
20
23.46434080807213
10
10.464814930472718
20
23.64296967234678
10
10.484221928770484
20
23.839697548639265
10
10.48206614392385
20
24.034079362842178
10
10.512078108593565
20
24.19993246104705
10
10.55258468085254
20
24.26622982230074
10
10.61344663256212
20
24.320644133306843
10
10.694454205815388
20
24.36416195075682
10
10.793619454182704
20
24.398666835576325
10
11.031648848830734
20
24.45076575999189
10
11.289379599183992
20
24.49782553971291
10
11.523118215844665
20
24.555213937499367
10
11.69698741780139
20
24.629023100995262
10
11.79813666889737
20
24.718677247399352
10
11.851646319624784
20
24.820452027124013
10
11.919224535427944
20
24.929152578696804
10
11.977428369777547
20
24.983370098736142
10
12.056099750198573
20
25.035044254240677
10
12.255923684103998
20
25.11951400687095
10
12.357320162278048
20
25.145773455664937
10
12.444014873344864
20
25.157184803715527
10
12.505674309187654
20
25.151303026875436
10
12.535876493887312
20
25.12672980155286
10
12.53408681079243
20
25.083463324842867
10
12.50614145414315
20
25.023003026014642
10
12.41554313285182
20
24.862273995652473
10
12.360047147807418
20
24.674676905909852
10
12.367340937099028
20
24.581270319417612
10
12.40062391504706
20
24.49313174124219
10
12.529340598201113
20
24.34344749873171
10
12.695314218799034
20
24.236474726067122
10
12.845133401442693
20
24.160997973206186
10
12.951419153687272
20
24.0841100220844
10
13.007634810897558
20
23.972521156428826
10
13.009181042217804
20
23.8214377598796
10
12.94656568554081
20
23.66235946438555
10
12.820161202273447
20
23.534402542225894
10
12.659268543600147
20
23.448067894354747
10
12.523650954816127
20
23.374633264270326
10
12.486052554245134
20
23.330167747992
10
12.477289669630794
20
23.27616554191979
10
12.500748286354533
20
23.212779230856277
10
12.556899180621155
20
23.143179224055867
10
12.643705838805614
20
23.072682821393794
10
12.757068548070658
20
23.00783531422436
10
12.89126634475096
20
22.955477257341858
10
13.039410391351808
20
22.921816988282355
10
13.193887888513624
20
22.91151213077023
10
13.346809417313603
20
22.92671915695762
10
13.490453686441008
20
22.966733442070723
10
13.617709448217525
20
23.02837304451396
10
13.722517205832423
20
23.10674208199532
10
13.800307971906378
20
23.195957398677763
10
13.84844994535337
20
23.289871124671972
10
13.86668738027363
20
23.382808226511948
10
13.85757778510649
20
23.470288733707967
10
13.826877959210986
20
23.54971806693997
10
13.736743321672527
20
23.68376746402701
10
13.677086942093934
20
23.796346467411496
10
13.68077194947197
20
23.850800624543684
10
13.713086506271914
20
23.906868868835403
10
13.774374520350845
20
23.965869526510364
10
13.862073442927029
20
24.028524892673342
10
14.096421929567555
20
24.165471785499015
10
14.36534104426299
20
24.31618490634139
10
14.617526942144123
20
24.477132785401196
10
14.817727491028966
20
24.645569794706024
10
14.947557900405926
20
24.820045980747032
10
15.000000223517418
20
25.000000372529023
0
LWPOLYLINE
5
204
100
AcDbEntity
8
0
100
AcDbPolyline
90
5
43
0.0
10
15.000000223517418
20
25.00000037252903
10
14.746226298694163
20
24.847918282084027
10
14.481980505840125
20
24.719333028637678
10
14.206031328035992
20
24.617007896929575
10
13.919614197239271
20
24.538170817774002
0
LWPOLYLINE
5
205
100
AcDbEntity
8
0
100
AcDbPolyline
90
22
43
0.0
10
13.91961419723927
20
24.538170817774002
10
14.02024964721138
20
24.583842523736614
10
14.100297517504826
20
24.628666580250716
10
14.159829619177453
20
24.6726133820968
10
14.19917380848807
20
24.715611372270793
10
14.221004718534275
20
24.79814682077177
10
14.180577846612108
20
24.87412946744237
10
14.04575902435359
20
24.99039501640348
10
14.03346734883428
20
25.024940419457362
10
14.092067567087831
20
25.04885887061933
10
14.214358987031687
20
25.076344924088794
10
14.372441605536315
20
25.12702054268095
10
14.530564356695082
20
25.221031281857346
10
14.657440305238946
20
25.374280982929537
10
14.702371924729851
20
25.47630699709528
10
14.732632993922113
20
25.596253114925968
10
14.74710322758264
20
25.734524697382394
10
14.745063456617384
20
25.89132594023708
10
14.72610403077722
20
26.066716127487883
10
14.690040760804358
20
26.26066111893997
10
14.636835946665142
20
26.47308129720046
10
14.56651976032188
20
26.703898137659266
0
LWPOLYLINE
5
206
100
AcDbEntity
8
0
100
AcDbPolyline
90
41
43
0.0
10
14.566519760321878
20
26.703898137659266
10
14.638197458718418
20
26.84348824202713
10
14.775951256862244
20
27.003678637769493
10
14.974289165960384
20
27.180054551707528
10
15.218977803249906
20
27.36155985481056
10
15.487366220628322
20
27.532578994107244
10
15.754210339543123
20
27.681196742541488
10
15.99838429553981
20
27.808378920708545
10
16.207911996308766
20
27.93235350714464
10
16.380546998696747
20
28.080242086963352
10
16.52245531573811
20
28.27460529183899
10
16.64432368646267
20
28.523262335989862
10
16.75123540413482
20
28.817667742425325
10
16.830248458606103
20
29.13454714465834
10
16.848297759884986
20
29.29077778627745
10
16.844177892662405
20
29.43905526067237
10
16.812326089220136
20
29.574631658992782
10
16.748609253007416
20
29.69328927152879
10
16.651281586670866
20
29.791704871368296
10
16.521948236330285
20
29.867816045857374
10
16.365784687624753
20
29.920978383877614
10
16.190666807075203
20
29.951817048175453
10
15.820791324657026
20
29.9537624858828
10
15.480569422141004
20
29.894020705702882
10
15.200403823964747
20
29.796659246868938
10
14.95166348444068
20
29.683354912782555
10
14.679814321384603
20
29.573273965568678
10
14.361590986046666
20
29.48559151955619
10
14.049337636329456
20
29.44097392196254
10
13.926446864221349
20
29.440646248477787
10
13.840205062469499
20
29.45685746457591
10
13.794934475887505
20
29.489698619099393
10
13.78627789450218
20
29.537840307476817
10
13.821987933835636
20
29.66829535507863
10
13.832306221308068
20
29.743303884197413
10
13.822115677987115
20
29.820370008169274
10
13.66679499725085
20
30.115982776377823
10
13.654889013783183
20
30.18379279345309
10
13.67186799738854
20
30.248918149947183
10
13.721159954768849
20
30.311340069240487
10
13.80407049920413
20
30.371053526494816
0
LWPOLYLINE
5
207
100
AcDbEntity
8
0
100
AcDbPolyline
90
9
43
0.0
10
13.804070499204128
20
30.371053526494816
10
13.801779617411011
20
30.42780158375884
10
13.777868743094418
20
30.473770474194144
10
13.730533995204338
20
30.50806082955047
10
13.657871615142069
20
30.52972348522494
10
13.559455061695722
20
30.538545778843567
10
13.436971536141145
20
30.53536890514741
10
13.292862468113642
20
30.521410097552188
10
13.129038607291838
20
30.49762200622837
0
LWPOLYLINE
5
208
100
AcDbEntity
8
0
100
AcDbPolyline
90
29
43
0.0
10
13.129038607291838
20
30.49762200622837
10
13.238507117551983
20
30.58066906024039
10
13.308228772168853
20
30.66423359180248
10
13.33990157071158
20
30.748059054759935
10
13.338209490760475
20
30.83147569413223
10
13.217021325919319
20
31.136838544983316
10
13.179904495425584
20
31.29007408672407
10
13.140838084659787
20
31.38798867683591
10
13.073261913241918
20
31.510466836695354
10
12.97741179780616
20
31.66247819614535
10
12.863544167122015
20
31.8458785297937
10
12.748185556874093
20
32.05957247364491
10
12.650190039028981
20
32.29969979903268
10
12.586804522645654
20
32.55981393611776
10
12.569728987947883
20
32.83104053846958
10
12.602381911065775
20
33.10249065219961
10
12.680468988877992
20
33.362381259115885
10
12.794134419482008
20
33.599502405124824
10
12.930114987821838
20
33.80469439058411
10
13.073889616805591
20
33.972341074564575
10
13.211817893931478
20
34.1018861069097
10
13.333020732357367
20
34.198976706933784
10
13.429911649383172
20
34.27455705977706
10
13.497584806916638
20
34.342209723541224
10
13.533118730512955
20
34.41537170812811
10
13.534891719510775
20
34.50464415737393
10
13.5020800354651
20
34.61661911409172
10
13.434373163358556
20
34.75462089086643
10
13.331743156624484
20
34.9198561818463
0
LWPOLYLINE
5
209
100
AcDbEntity
8
0
100
AcDbPolyline
90
17
43
0.0
10
13.331743156624482
20
34.9198561818463
10
13.460707301644963
20
34.87022418292292
10
13.621731524450768
20
34.85405163056194
10
13.813863853991126
20
34.87139256001049
10
14.033694224252883
20
34.921434242609074
10
14.273724167773162
20
35.00165691241489
10
14.52171214531066
20
35.107368858016045
10
14.762568559091559
20
35.23228137159067
10
14.981189061280617
20
35.369432823730186
10
15.165336153261617
20
35.51207870324731
10
15.308435410580751
20
35.65452720405587
10
15.410407772768583
20
35.79257212107764
10
15.475519097012947
20
35.923340539065215
10
15.509691842602015
20
36.0450388744032
10
15.518033646074478
20
36.156724704186495
10
15.503633240393242
20
36.258059857777056
10
15.467903077440035
20
36.34902806855594
0
LWPOLYLINE
5
210
100
AcDbEntity
8
0
100
AcDbPolyline
90
5
43
0.0
10
15.467903077440033
20
36.349028068555945
10
15.330632622085949
20
36.25805690380942
10
15.159981451899286
20
36.226069917038146
10
14.952607151859535
20
36.25897320096881
10
14.712889250688686
20
36.349028068555945
0
LWPOLYLINE
5
211
100
AcDbEntity
8
0
100
AcDbPolyline
90
9
43
0.0
10
14.712889250688686
20
36.349028068555945
10
14.640417224609479
20
36.2353768598019
10
14.570354678419665
20
36.14208354099196
10
14.50292902876906
20
36.07106957373334
10
14.438422374830196
20
36.02471843667641
10
14.377009574512213
20
36.004507518390355
10
14.318606847213967
20
36.009728949815965
10
14.262970636026253
20
36.03832489898443
10
14.20988116855285
20
36.088438491196726
0
LWPOLYLINE
5
212
100
AcDbEntity
8
0
100
AcDbPolyline
90
13
43
0.0
10
14.20988116855285
20
36.088438491196726
10
14.152195456822273
20
36.04379700246146
10
14.04408357844343
20
35.95964877579041
10
13.948475429404533
20
35.930582260876974
10
13.813302001083127
20
35.925614372105045
10
13.641231771908313
20
35.94283049233079
10
13.44609132296419
20
35.96747165992558
10
13.246644390490685
20
35.97998969330276
10
13.05949488141989
20
35.96525069416305
10
12.893401093795203
20
35.919771865019165
10
12.74932296124119
20
35.85075873646735
10
12.513244122386622
20
35.68859141569902
10
12.327196208788092
20
35.542732705757665
0
LINE
5
213
100
AcDbEntity
8
0
100
AcDbLine
10
12.327196208788092
20
35.542732705757665
30
0
11
10.972300292019197
21
35.454087775005846
31
0
0
LINE
5
214
100
AcDbEntity
8
0
100
AcDbLine
10
10.972300292019197
20
35.454087775005846
30
0
11
10.599999763071537
21
35.999999195337296
31
0
0
LWPOLYLINE
5
215
100
AcDbEntity
8
0
100
AcDbPolyline
90
15
43
0.0
10
10.599999763071537
20
35.999999195337296
10
10.653536697288377
20
36.0902717442138
10
10.71827580472633
20
36.15557994539847
10
10.794238771288152
20
36.19583199294725
10
10.881162399856311
20
36.211500379953634
10
10.978215094790421
20
36.20421697100962
10
11.083679873384114
20
36.17744071771817
10
11.30763223466028
20
36.090344895255946
10
11.522249932604964
20
36.013316072248145
10
11.616083371329895
20
35.99910601837337
10
11.696940162854066
20
36.009359663145894
10
11.76322092473001
20
36.04743307439964
10
11.81423879503976
20
36.11481471199502
10
11.849865031515217
20
36.21183742292539
10
11.870216986949394
20
36.33830722880686
0
LWPOLYLINE
5
216
100
AcDbEntity
8
0
100
AcDbPolyline
90
31
43
0.0
10
11.870216986949393
20
36.33830722880686
10
11.981739348915555
20
36.406696369006625
10
12.095304177175754
20
36.43370648250536
10
12.210543848490317
20
36.4228159813623
10
12.326486980443313
20
36.383364935263195
10
12.552575932984926
20
36.29352221661313
10
12.657761576270717
20
36.28509685923332
10
12.754985509408344
20
36.31568039125424
10
12.923567461739484
20
36.45263350661861
10
12.996943916321175
20
36.51808738366042
10
13.06640374868878
20
36.555677042146755
10
13.136087832495566
20
36.55719766879647
10
13.211600039308204
20
36.53045478016445
10
13.299529920812908
20
36.501356994571665
10
13.404730450794489
20
36.502859241001445
10
13.526342925204952
20
36.55658855404164
10
13.654893989783147
20
36.65750899821468
10
13.775410102359759
20
36.77667749336209
10
13.875140284945342
20
36.877811088679046
10
13.951714967675041
20
36.93515182413661
10
14.018841937285293
20
36.94755983026611
10
14.100614997811169
20
36.935293487661504
10
14.217946459729026
20
36.92482300815645
10
14.3769275631721
20
36.9351310265639
10
14.568028525166614
20
36.974273982747256
10
14.772309131924807
20
37.042580592296325
10
14.968122751559331
20
37.136323118175746
10
15.137472990596356
20
37.25121114007174
10
15.269094661359341
20
37.384341098083745
10
15.357292589655103
20
37.53415086125162
10
15.399999655783178
20
37.69999915733934
0
LINE
5
217
100
AcDbEntity
8
0
100
AcDbLine
10
15.399999655783178
20
37.699999157339342
30
0
11
17.535094051787155
21
38.673862178272287
31
0
0
LWPOLYLINE
5
218
100
AcDbEntity
8
0
100
AcDbPolyline
90
15
43
0.0
10
17.535094051787155
20
38.67386217827228
10
17.654116744638856
20
38.68638312391885
10
17.757692213843665
20
38.71887391012187
10
17.84554225585224
20
38.77142144827955
10
17.917377677569863
20
38.84368519456923
10
17.973081519869456
20
38.93442700765596
10
18.012921059733145
20
39.0409994554817
10
18.04919785335258
20
39.281360724694714
10
18.039658134074873
20
39.50959643104165
10
18.022875003115075
20
39.5997387980243
10
18.000548509067386
20
39.6652617973867
10
17.974012559126706
20
39.70217612307103
10
17.94412557310025
20
39.70859660649671
10
17.91136952822061
20
39.68400424511584
10
17.875956929521397
20
39.62853851889511
0
LINE
5
219
100
AcDbEntity
8
0
100
AcDbLine
10
17.875956929521401
20
39.62853851889512
30
0
11
16.899999622255564
21
39.299999121576548
31
0
0
ENDSEC
0
SECTION
2
OBJECTS
0
DICTIONARY
5
C
100
AcDbDictionary
3
ACAD_GROUP
350
D
3
ACAD_MLINESTYLE
350
17
0
DICTIONARY
5
D
100
AcDbDictionary
0
DICTIONARY
5
1A
330
C
100
AcDbDictionary
0
DICTIONARY
5
17
100
AcDbDictionary
0
ENDSEC
0
EOF
