0
SECTION
2
HEADER
9
$INSUNITS
70
4
9
$ACADVER
1
AC1014
9
$HANDSEED
5
FFFF
0
ENDSEC
0
SECTION
2
TABLES
0
TABLE
2
VPORT
5
8
100
AcDbSymbolTable
0
ENDTAB
0
TABLE
2
LTYPE
5
5
100
AcDbSymbolTable
0
LTYPE
5
14
100
AcDbSymbolTableRecord
100
AcDbLinetypeTableRecord
2
BYBLOCK
70
0
0
LTYPE
5
15
100
AcDbSymbolTableRecord
100
AcDbLinetypeTableRecord
2
BYLAYER
70
0
0
LTYPE
5
16
100
AcDbSymbolTableRecord
100
AcDbLinetypeTableRecord
2
DASHED
70
0
3
Dashed __ __ __ __ __ __ __ __ __ __ __ __ __ _
72
65
73
2
40
0.75
49
0.5
74
0
49
-0.25
74
0
0
ENDTAB
0
TABLE
2
LAYER
5
2
100
AcDbSymbolTable
70
2
0
LAYER
5
50
100
AcDbSymbolTableRecord
100
AcDbLayerTableRecord
2
0
70
0
62
7
6
CONTINUOUS
0
ENDTAB
0
TABLE
2
STYLE
5
3
100
AcDbSymbolTable
70
1
0
STYLE
5
11
100
AcDbSymbolTableRecord
100
AcDbTextStyleTableRecord
2
STANDARD
70
0
0
ENDTAB
0
TABLE
2
VIEW
5
6
100
AcDbSymbolTable
70
0
0
ENDTAB
0
TABLE
2
UCS
5
7
100
AcDbSymbolTable
70
0
0
ENDTAB
0
TABLE
2
APPID
5
9
100
AcDbSymbolTable
70
2
0
APPID
5
12
100
AcDbSymbolTableRecord
100
AcDbRegAppTableRecord
2
ACAD
70
0
0
ENDTAB
0
TABLE
2
DIMSTYLE
5
A
100
AcDbSymbolTable
70
1
0
ENDTAB
0
TABLE
2
BLOCK_RECORD
5
1
100
AcDbSymbolTable
70
1
0
BLOCK_RECORD
5
1F
100
AcDbSymbolTableRecord
100
AcDbBlockTableRecord
2
*MODEL_SPACE
0
BLOCK_RECORD
5
1B
100
AcDbSymbolTableRecord
100
AcDbBlockTableRecord
2
*PAPER_SPACE
0
ENDTAB
0
ENDSEC
0
SECTION
2
BLOCKS
0
BLOCK
5
20
100
AcDbEntity
100
AcDbBlockBegin
2
*MODEL_SPACE
0
ENDBLK
5
21
100
AcDbEntity
100
AcDbBlockEnd
0
BLOCK
5
1C
100
AcDbEntity
100
AcDbBlockBegin
2
*PAPER_SPACE
0
ENDBLK
5
1D
100
AcDbEntity
100
AcDbBlockEnd
0
ENDSEC
0
SECTION
2
ENTITIES
0
POINT
5
100
100
AcDbEntity
8
0
100
AcDbPoint
10
0
20
0
30
0
0
LWPOLYLINE
5
101
100
AcDbEntity
8
0
100
AcDbPolyline
90
4
70
1
43
0.0
10
0
20
0
10
22.921559452034835
20
129.99462339761146
10
2.1598424030314645
20
133.65547427918568
10
-20.761717049003373
20
3.6608508815742269
0
LINE
5
102
100
AcDbEntity
8
0
100
AcDbLine
10
27.481282824759251
20
155.85409966382934
30
0
11
0
21
0
31
0
0
LINE
5
103
100
AcDbEntity
8
0
100
AcDbLine
10
0
20
0
30
0
11
-36.546561360122418
21
3.5498900934584654
31
0
0
LINE
5
104
100
AcDbEntity
8
0
100
AcDbLine
10
61.699998620897524
20
-14.999999664723871
30
0
11
-48.279550895677019
21
-14.999999643761139
31
0
0
LINE
5
105
100
AcDbEntity
8
0
100
AcDbLine
10
-36.546561360122418
20
3.5498900934584654
30
0
11
-53.163469108816258
21
26.397237791754122
31
0
0
LINE
5
106
100
AcDbEntity
8
0
100
AcDbLine
10
-53.163469108816258
20
26.397237791754122
30
0
11
-57.147498300172671
21
18.636986712497578
31
0
0
LINE
5
107
100
AcDbEntity
8
0
100
AcDbLine
10
-57.147498300172671
20
18.636986712497578
30
0
11
-48.279550895677019
21
-14.999999643761139
31
0
0
LINE
5
108
100
AcDbEntity
8
0
100
AcDbLine
10
27.481282824759251
20
155.85409966382934
30
0
11
41.281304672401262
21
164.40070039703693
31
0
0
LINE
5
109
100
AcDbEntity
8
0
100
AcDbLine
10
41.281304672401262
20
164.40070039703693
30
0
11
41.281304672401262
21
125.61125639712863
31
0
0
LINE
5
110
100
AcDbEntity
8
0
100
AcDbLine
10
41.281304672401262
20
125.61125639712863
30
0
11
57.049080576780938
21
135.3765224665045
31
0
0
LINE
5
111
100
AcDbEntity
8
0
100
AcDbLine
10
57.049080576780938
20
135.3765224665045
30
0
11
39.582457325355193
21
84.565076470214933
31
0
0
LINE
5
112
100
AcDbEntity
8
0
100
AcDbLine
10
34.867430283988291
20
47.70473625492361
30
0
11
61.699998620897524
21
-14.999999664723871
31
0
0
LINE
5
113
100
AcDbEntity
8
0
100
AcDbLine
10
39.582457325355193
20
84.565076470214933
30
0
11
51.102996105446756
21
65.510784324221035
31
0
0
LINE
5
114
100
AcDbEntity
8
0
100
AcDbLine
10
51.102996105446756
20
65.510784324221035
30
0
11
34.867430283988291
21
47.70473625492361
31
0
0
LWPOLYLINE
5
115
100
AcDbEntity
8
0
100
AcDbPolyline
90
4
70
1
43
0.0
10
18.922682504878722
20
-14.999999656570271
10
21.716682504878722
20
-14.999999656570271
10
21.716682504878722
20
3.4342973131984422e-07
10
18.922682504878722
20
3.4342973131984422e-07
0
ENDSEC
0
SECTION
2
OBJECTS
0
DICTIONARY
5
C
100
AcDbDictionary
3
ACAD_GROUP
350
D
3
ACAD_MLINESTYLE
350
17
0
DICTIONARY
5
D
100
AcDbDictionary
0
DICTIONARY
5
1A
330
C
100
AcDbDictionary
0
DICTIONARY
5
17
100
AcDbDictionary
0
ENDSEC
0
EOF
