0
SECTION
2
HEADER
9
$INSUNITS
70
4
9
$ACADVER
1
AC1014
9
$HANDSEED
5
FFFF
0
ENDSEC
0
SECTION
2
TABLES
0
TABLE
2
VPORT
5
8
100
AcDbSymbolTable
0
ENDTAB
0
TABLE
2
LTYPE
5
5
100
AcDbSymbolTable
0
LTYPE
5
14
100
AcDbSymbolTableRecord
100
AcDbLinetypeTableRecord
2
BYBLOCK
70
0
0
LTYPE
5
15
100
AcDbSymbolTableRecord
100
AcDbLinetypeTableRecord
2
BYLAYER
70
0
0
LTYPE
5
16
100
AcDbSymbolTableRecord
100
AcDbLinetypeTableRecord
2
DASHED
70
0
3
Dashed __ __ __ __ __ __ __ __ __ __ __ __ __ _
72
65
73
2
40
0.75
49
0.5
74
0
49
-0.25
74
0
0
ENDTAB
0
TABLE
2
LAYER
5
2
100
AcDbSymbolTable
70
2
0
LAYER
5
50
100
AcDbSymbolTableRecord
100
AcDbLayerTableRecord
2
0
70
0
62
7
6
CONTINUOUS
0
ENDTAB
0
TABLE
2
STYLE
5
3
100
AcDbSymbolTable
70
1
0
STYLE
5
11
100
AcDbSymbolTableRecord
100
AcDbTextStyleTableRecord
2
STANDARD
70
0
0
ENDTAB
0
TABLE
2
VIEW
5
6
100
AcDbSymbolTable
70
0
0
ENDTAB
0
TABLE
2
UCS
5
7
100
AcDbSymbolTable
70
0
0
ENDTAB
0
TABLE
2
APPID
5
9
100
AcDbSymbolTable
70
2
0
APPID
5
12
100
AcDbSymbolTableRecord
100
AcDbRegAppTableRecord
2
ACAD
70
0
0
ENDTAB
0
TABLE
2
DIMSTYLE
5
A
100
AcDbSymbolTable
70
1
0
ENDTAB
0
TABLE
2
BLOCK_RECORD
5
1
100
AcDbSymbolTable
70
1
0
BLOCK_RECORD
5
1F
100
AcDbSymbolTableRecord
100
AcDbBlockTableRecord
2
*MODEL_SPACE
0
BLOCK_RECORD
5
1B
100
AcDbSymbolTableRecord
100
AcDbBlockTableRecord
2
*PAPER_SPACE
0
ENDTAB
0
ENDSEC
0
SECTION
2
BLOCKS
0
BLOCK
5
20
100
AcDbEntity
100
AcDbBlockBegin
2
*MODEL_SPACE
0
ENDBLK
5
21
100
AcDbEntity
100
AcDbBlockEnd
0
BLOCK
5
1C
100
AcDbEntity
100
AcDbBlockBegin
2
*PAPER_SPACE
0
ENDBLK
5
1D
100
AcDbEntity
100
AcDbBlockEnd
0
ENDSEC
0
SECTION
2
ENTITIES
0
POINT
5
100
100
AcDbEntity
8
0
100
AcDbPoint
10
0
20
0
30
0
0
POINT
5
101
100
AcDbEntity
8
0
100
AcDbPoint
10
79.786000000000016
20
-11.591995844060401
30
0
0
POINT
5
102
100
AcDbEntity
8
0
100
AcDbPoint
10
47.25
20
-11.947590678369778
30
0
0
POINT
5
103
100
AcDbEntity
8
0
100
AcDbPoint
10
14.714
20
-11.591995844060406
30
0
0
LWPOLYLINE
5
104
100
AcDbEntity
8
0
100
AcDbPolyline
90
6
70
1
43
0.0
10
74.5
20
-23.895181356739556
10
19.999999999999993
20
-23.895181356739556
42
-0.41421356237309542
10
-2.2204460492503131e-15
20
-3.8951813567395623
10
0
20
15
10
94.500000000000014
20
15
10
94.500000000000014
20
-3.8951813567395654
42
-0.41421356237309476
0
LWPOLYLINE
5
105
100
AcDbEntity
8
0
100
AcDbPolyline
90
2
70
1
43
0.0
10
48.647000000000006
20
-5.8286708792820718e-15
10
45.853000000000009
20
-5.6898930012039273e-15
0
LINE
5
106
100
AcDbEntity
8
0
100
AcDbLine
10
44.963999999999999
20
15
30
0
11
49.536000000000001
21
15
31
0
0
LINE
5
107
100
AcDbEntity
8
0
100
AcDbLine
10
81.183000000000035
20
0
30
0
11
78.389000000000024
21
0
31
0
0
LINE
5
108
100
AcDbEntity
8
0
100
AcDbLine
10
77.500000000000014
20
15
30
0
11
82.072000000000003
21
15
31
0
0
LINE
5
109
100
AcDbEntity
8
0
100
AcDbLine
10
16.111000000000001
20
-1.3877787807814457e-16
30
0
11
13.317
21
4.4408920985006262e-15
31
0
0
LINE
5
110
100
AcDbEntity
8
0
100
AcDbLine
10
12.427999999999999
20
15
30
0
11
17
21
15
31
0
0
LWPOLYLINE
5
111
100
AcDbEntity
8
0
100
AcDbPolyline
90
4
70
1
43
0.0
10
45.853000000000009
20
-5.6898930012039273e-15
10
48.647000000000006
20
-4.4408920985006262e-15
10
48.647000000000006
20
-23.895181356739556
10
45.853000000000002
20
-23.895181356739556
0
LINE
5
112
100
AcDbEntity
8
0
100
AcDbLine
10
13.317
20
4.4408920985006262e-15
30
0
11
16.111000000000001
21
-1.3877787807814457e-16
31
0
0
LINE
5
113
100
AcDbEntity
8
0
100
AcDbLine
10
78.389000000000024
20
0
30
0
11
81.183000000000035
21
0
31
0
0
LINE
5
114
100
AcDbEntity
8
0
100
AcDbLine
10
81.183000000000035
20
0
30
0
11
81.183000000000035
21
-22.745579522295625
31
0
0
LINE
5
115
100
AcDbEntity
8
0
100
AcDbLine
10
78.38900000000001
20
-23.513429978877053
30
0
11
78.389000000000024
21
0
31
0
0
LINE
5
116
100
AcDbEntity
8
0
100
AcDbLine
10
13.317
20
-22.745579522295643
30
0
11
13.317
21
4.4408920985006262e-15
31
0
0
LINE
5
117
100
AcDbEntity
8
0
100
AcDbLine
10
16.111000000000001
20
-1.3877787807814457e-16
30
0
11
16.111000000000001
21
-23.51342997887706
31
0
0
ENDSEC
0
SECTION
2
OBJECTS
0
DICTIONARY
5
C
100
AcDbDictionary
3
ACAD_GROUP
350
D
3
ACAD_MLINESTYLE
350
17
0
DICTIONARY
5
D
100
AcDbDictionary
0
DICTIONARY
5
1A
330
C
100
AcDbDictionary
0
DICTIONARY
5
17
100
AcDbDictionary
0
ENDSEC
0
EOF
