0
SECTION
2
HEADER
9
$INSUNITS
70
4
9
$ACADVER
1
AC1014
9
$HANDSEED
5
FFFF
0
ENDSEC
0
SECTION
2
TABLES
0
TABLE
2
VPORT
5
8
100
AcDbSymbolTable
0
ENDTAB
0
TABLE
2
LTYPE
5
5
100
AcDbSymbolTable
0
LTYPE
5
14
100
AcDbSymbolTableRecord
100
AcDbLinetypeTableRecord
2
BYBLOCK
70
0
0
LTYPE
5
15
100
AcDbSymbolTableRecord
100
AcDbLinetypeTableRecord
2
BYLAYER
70
0
0
LTYPE
5
16
100
AcDbSymbolTableRecord
100
AcDbLinetypeTableRecord
2
DASHED
70
0
3
Dashed __ __ __ __ __ __ __ __ __ __ __ __ __ _
72
65
73
2
40
0.75
49
0.5
74
0
49
-0.25
74
0
0
ENDTAB
0
TABLE
2
LAYER
5
2
100
AcDbSymbolTable
70
2
0
LAYER
5
50
100
AcDbSymbolTableRecord
100
AcDbLayerTableRecord
2
0
70
0
62
7
6
CONTINUOUS
0
ENDTAB
0
TABLE
2
STYLE
5
3
100
AcDbSymbolTable
70
1
0
STYLE
5
11
100
AcDbSymbolTableRecord
100
AcDbTextStyleTableRecord
2
STANDARD
70
0
0
ENDTAB
0
TABLE
2
VIEW
5
6
100
AcDbSymbolTable
70
0
0
ENDTAB
0
TABLE
2
UCS
5
7
100
AcDbSymbolTable
70
0
0
ENDTAB
0
TABLE
2
APPID
5
9
100
AcDbSymbolTable
70
2
0
APPID
5
12
100
AcDbSymbolTableRecord
100
AcDbRegAppTableRecord
2
ACAD
70
0
0
ENDTAB
0
TABLE
2
DIMSTYLE
5
A
100
AcDbSymbolTable
70
1
0
ENDTAB
0
TABLE
2
BLOCK_RECORD
5
1
100
AcDbSymbolTable
70
1
0
BLOCK_RECORD
5
1F
100
AcDbSymbolTableRecord
100
AcDbBlockTableRecord
2
*MODEL_SPACE
0
BLOCK_RECORD
5
1B
100
AcDbSymbolTableRecord
100
AcDbBlockTableRecord
2
*PAPER_SPACE
0
ENDTAB
0
ENDSEC
0
SECTION
2
BLOCKS
0
BLOCK
5
20
100
AcDbEntity
100
AcDbBlockBegin
2
*MODEL_SPACE
0
ENDBLK
5
21
100
AcDbEntity
100
AcDbBlockEnd
0
BLOCK
5
1C
100
AcDbEntity
100
AcDbBlockBegin
2
*PAPER_SPACE
0
ENDBLK
5
1D
100
AcDbEntity
100
AcDbBlockEnd
0
ENDSEC
0
SECTION
2
ENTITIES
0
LINE
5
100
100
AcDbEntity
8
0
100
AcDbLine
10
-9.5240161370815564
20
-23.140771533584363
30
0
11
-8
21
-23.799999222159379
31
0
0
LWPOLYLINE
5
101
100
AcDbEntity
8
0
100
AcDbPolyline
90
29
43
0.0
10
-2.921345318859202
20
-24.750514917037936
10
-2.9893805120740833
20
-24.90130441389156
10
-3.0315625824123
20
-25.051406161920518
10
-3.0477257974190097
20
-25.20080698356109
10
-3.0376142227079836
20
-25.349476713433116
10
-3.000901250351323
20
-25.49736223848362
10
-2.937213593551422
20
-25.64437907056457
10
-2.8461814290799863
20
-25.79036911985471
10
-2.7275506486673233
20
-25.934973020638367
10
-2.5813279308181625
20
-26.077458819725187
10
-2.407926049930982
20
-26.21655623331055
10
-2.2083170029657104
20
-26.350284398933045
10
-1.9841863897816718
20
-26.475784410015514
10
-1.7379566775422517
20
-26.58938028724308
10
-1.4726675698741714
20
-26.686888627073238
10
-1.1918033902648917
20
-26.76402597324466
10
-0.8991358739720728
20
-26.816799108022504
10
-0.5985670895315004
20
-26.84190401358783
10
-0.29397333932314124
20
-26.83713365699751
10
0.010946132772514192
20
-26.80177834035148
10
0.3127824251548596
20
-26.736821867625356
10
0.6084479657856822
20
-26.64469093637696
10
0.8951823822885925
20
-26.528867273706826
10
1.1705604249889838
20
-26.393504349844388
10
1.4325020414816363
20
-26.243049993202757
10
1.9095648571637631
20
-25.913890763322385
10
2.3171282891032488
20
-25.56915255502381
10
2.651309719082423
20
-25.224120353450157
10
2.9114316482822638
20
-24.88457660651195
0
LWPOLYLINE
5
102
100
AcDbEntity
8
0
100
AcDbPolyline
90
9
43
0.0
10
7.210055950631857
20
-19.66592773821316
10
7.293512098938215
20
-19.461059175156663
10
7.368662512950945
20
-19.235023340553187
10
7.43480559880247
20
-18.986032213325473
10
7.491187188156509
20
-18.7121637856787
10
7.537604320864988
20
-18.41290081103373
10
7.574678131559259
20
-18.089826259044763
10
7.603340563282935
20
-17.74531519863585
10
7.624328512719738
20
-17.381245620553884
0
LINE
5
103
100
AcDbEntity
8
0
100
AcDbLine
10
-7.7510937912628508
20
-23.411496029488731
30
0
11
-8.7603001811584456
21
-22.844085522740926
31
0
0
LWPOLYLINE
5
104
100
AcDbEntity
8
0
100
AcDbPolyline
90
5
43
0.0
10
-4.949350237161137
20
-15.059107257528396
10
-5.1816679035296875
20
-14.644336654077607
10
-5.376385119358345
20
-14.268795443505786
10
-5.532372393552003
20
-13.934236479047756
10
-5.649302063792881
20
-13.641336923804667
0
LWPOLYLINE
5
105
100
AcDbEntity
8
0
100
AcDbPolyline
90
3
43
0.0
10
-8.760300181158444
20
-22.84408552274091
10
-9.135905455381629
20
-22.963906520550577
10
-9.524016137081555
20
-23.140771533584356
0
LWPOLYLINE
5
106
100
AcDbEntity
8
0
100
AcDbPolyline
90
5
43
0.0
10
-1.1586468158196206
20
-20.49111410886754
10
-1.2979762788078957
20
-20.33201203695873
10
-1.464889242159847
20
-20.129594852537913
10
-1.6584522116717342
20
-19.884977510604728
10
-1.8769963075288099
20
-19.600257380609715
0
LWPOLYLINE
5
107
100
AcDbEntity
8
0
100
AcDbPolyline
90
5
43
0.0
10
-3.7041563608110426
20
-24.173706780862897
10
-3.6735899904782503
20
-23.919561743327854
10
-3.6979219799592657
20
-23.706942587532364
10
-3.784331261950076
20
-23.541279557768313
10
-3.9269288377059706
20
-23.41811813355419
0
LWPOLYLINE
5
108
100
AcDbEntity
8
0
100
AcDbPolyline
90
2
43
0.0
10
-3.9269288377059723
20
-23.41811813355419
10
-4.566617029072025
20
-23.393828858714418
0
LWPOLYLINE
5
109
100
AcDbEntity
8
0
100
AcDbPolyline
90
9
43
0.0
10
5.783145280915947
20
-14.723380637388141
10
5.77313611885528
20
-15.062504420859579
10
5.80674884876973
20
-15.395569497678975
10
5.8877631903032075
20
-15.72205089720225
10
6.020391552009079
20
-16.04136355200667
10
6.20614116687078
20
-16.353298120354722
10
6.442071087294683
20
-16.658263074640388
10
6.723362611561625
20
-16.956927691201024
10
7.046115794035271
20
-17.249833639034684
0
LWPOLYLINE
5
110
100
AcDbEntity
8
0
100
AcDbPolyline
90
3
43
0.0
10
-6.740015780256133
20
-23.12698173819849
10
-7.267186966327744
20
-23.25619742928117
10
-7.751093791262849
20
-23.41149602948873
0
LWPOLYLINE
5
111
100
AcDbEntity
8
0
100
AcDbPolyline
90
9
43
0.0
10
7.391384446955578
20
-16.594081598019475
10
7.1864012915148265
20
-16.47060128798577
10
6.997191051427501
20
-16.312162880665745
10
6.82507562478837
20
-16.115836604276524
10
6.671459481197395
20
-15.878509680742733
10
6.536680379204199
20
-15.599433523252712
10
6.419525601637255
20
-15.281295921842023
10
6.318217962931965
20
-14.928035718782732
10
6.2313615086162555
20
-14.54274681973923
0
LWPOLYLINE
5
112
100
AcDbEntity
8
0
100
AcDbPolyline
90
5
43
0.0
10
7.0461157940352726
20
-17.249833639034684
10
7.069189096686741
20
-17.76962596853257
10
7.0436063037966905
20
-18.32484392201979
10
6.964476918616041
20
-18.919048181753737
10
6.838171109417743
20
-19.547600743281397
0
LWPOLYLINE
5
113
100
AcDbEntity
8
0
100
AcDbPolyline
90
3
43
0.0
10
-6.14763934116574
20
-23.25242095160303
10
-6.459351215934608
20
-23.194504191981444
10
-6.740015780256133
20
-23.126981738198506
0
LINE
5
114
100
AcDbEntity
8
0
100
AcDbLine
10
-3.8895589760101639
20
-24.647513464149537
30
0
11
-2.9213453188592018
21
-24.75051491703794
31
0
0
LWPOLYLINE
5
115
100
AcDbEntity
8
0
100
AcDbPolyline
90
2
43
0.0
10
0.09200617848207737
20
-19.87195214983979
10
0.1456725191655301
20
-19.877647835460284
0
LWPOLYLINE
5
116
100
AcDbEntity
8
0
100
AcDbPolyline
90
9
43
0.0
10
0.7668012686740278
20
-19.89424007115849
10
0.6544663375575297
20
-19.734338186185447
10
0.5624705682359495
20
-19.516499401755947
10
0.49234247237253925
20
-19.236369692499668
10
0.4454241723509274
20
-18.89012597021765
10
0.42140689061230474
20
-18.478647799899473
10
0.4182749410028967
20
-18.007676942564213
10
0.4336544918572409
20
-17.48397535075747
10
0.4658092949989469
20
-16.912488795466682
0
LWPOLYLINE
5
117
100
AcDbEntity
8
0
100
AcDbPolyline
90
3
43
0.0
10
-1.916072655208424
20
-21.578538136532295
10
-1.521735805338539
20
-21.433016689415062
10
-1.1320890190869892
20
-21.31670744138396
0
LWPOLYLINE
5
118
100
AcDbEntity
8
0
100
AcDbPolyline
90
9
43
0.0
10
-1.1320890190869892
20
-21.316707441383958
10
-1.3564755887538498
20
-21.256057442450487
10
-1.5201739852884046
20
-21.174102780863592
10
-1.6192760943826718
20
-21.0716609172631
10
-1.651276848790304
20
-20.953549526995005
10
-1.6171828195500706
20
-20.82899278162957
10
-1.5204583283039264
20
-20.707403352936712
10
-1.366110789297637
20
-20.59424236363044
10
-1.1586468158196206
20
-20.491114108867546
0
LWPOLYLINE
5
119
100
AcDbEntity
8
0
100
AcDbPolyline
90
3
43
0.0
10
0.14567251916584664
20
-19.877647835460312
10
0.4608491441699311
20
-19.89747627435854
10
0.7668012686740278
20
-19.89424007115849
0
LWPOLYLINE
5
120
100
AcDbEntity
8
0
100
AcDbPolyline
90
5
43
0.0
10
0.6163161906589965
20
-22.74756412543811
10
0.06478110031388412
20
-22.976689244643225
10
-0.4993525506305793
20
-23.155386756874158
10
-1.071383753743869
20
-23.284002049143655
10
-1.6487231987092723
20
-23.36741009220987
0
LWPOLYLINE
5
121
100
AcDbEntity
8
0
100
AcDbPolyline
90
5
43
0.0
10
-2.0999997518956657
20
-21.299999345093966
10
-2.092291679618021
20
-21.416574829585645
10
-2.0601283297582205
20
-21.503157135714897
10
-2.000470506925373
20
-21.556018841924036
10
-1.9160726552084264
20
-21.578538136532288
0
LWPOLYLINE
5
122
100
AcDbEntity
8
0
100
AcDbPolyline
90
5
43
0.0
10
-1.6487231987092714
20
-23.367410092209884
10
-1.9035396661220727
20
-23.464883037346056
10
-2.1459986128771567
20
-23.629842412851882
10
-2.3748593261193953
20
-23.869063953474917
10
-2.5917406696163208
20
-24.173706780862897
0
LINE
5
123
100
AcDbEntity
8
0
100
AcDbLine
10
-5.1604544326873567
20
-16.501729081406008
30
0
11
-5.4999996758997423
21
-15.999999463558193
31
0
0
LWPOLYLINE
5
124
100
AcDbEntity
8
0
100
AcDbPolyline
90
9
43
0.0
10
-5.499999675899742
20
-15.999999463558193
10
-5.325523816861162
20
-15.971360069705408
10
-5.178266651958821
20
-15.91979755978684
10
-5.060640190121233
20
-15.843280581356684
10
-4.975414704320543
20
-15.739476058151315
10
-4.923786254847474
20
-15.60737668875445
10
-4.904118738101558
20
-15.448360371472742
10
-4.913456324382532
20
-15.264916455239174
10
-4.949350237161132
20
-15.059107257528398
0
LINE
5
125
100
AcDbEntity
8
0
100
AcDbLine
10
-5.8999996669590447
20
-15.999999463558201
30
0
11
-5.4541772657736862
21
-16.633304022802442
31
0
0
LWPOLYLINE
5
126
100
AcDbEntity
8
0
100
AcDbPolyline
90
2
43
0.0
10
-3.2520091349040934
20
-17.6922418104314
10
-3.8412326284021456
20
-16.82414665021863
0
LWPOLYLINE
5
127
100
AcDbEntity
8
0
100
AcDbPolyline
90
38
43
0.0
10
1.978507780667249
20
-24.950739793569408
10
1.8534084407447877
20
-25.09010936235342
10
1.706836485531354
20
-25.218116366699547
10
1.5384567790086427
20
-25.33488336392039
10
1.347542062930049
20
-25.440806723329132
10
1.1328610618827128
20
-25.536682778606714
10
0.8929110109171793
20
-25.623395428656742
10
0.626625364465472
20
-25.700993736441042
10
0.33418231651736746
20
-25.767649075532105
10
0.017821197650674254
20
-25.818612568838475
10
-0.317508022984617
20
-25.845882909417888
10
-0.6639298002088609
20
-25.83968071143475
10
-1.0106041771018133
20
-25.790689821510036
10
-1.343680052291191
20
-25.692323826965
10
-1.6462362320922121
20
-25.543010413077386
10
-1.8987641207313477
20
-25.347710244584434
10
-1.9999967519539374
20
-25.235933801857033
10
-2.081448240173757
20
-25.116871959825378
10
-2.141140537955554
20
-24.9922787762265
10
-2.1774898782862993
20
-24.863940693907644
10
-2.1894139400392287
20
-24.73359620753968
10
-2.1764547157145784
20
-24.602850095971046
10
-2.1388495754684467
20
-24.473111617923163
10
-2.077506564408075
20
-24.34557603752838
10
-1.9939215811786053
20
-24.221233029645493
10
-1.8900559899099827
20
-24.100893593278652
10
-1.6309688437989993
20
-23.874713791521035
10
-1.3209999086996087
20
-23.67077990088211
10
-0.9812749120434128
20
-23.491341647176743
10
-0.6299667424741171
20
-23.337797757597254
10
-0.2806779906465587
20
-23.211101293118848
10
0.057072845596098445
20
-23.11187537874462
10
0.37703175874526745
20
-23.040477171320628
10
0.6753903788552719
20
-22.99705479643155
10
0.949991401549964
20
-22.981601227853545
10
1.1996815206922802
20
-22.994008521088745
10
1.4239486738863485
20
-23.034128157409118
10
1.6226632749935566
20
-23.101831263643316
0
LINE
5
128
100
AcDbEntity
8
0
100
AcDbLine
10
-2.5917406696163194
20
-24.173706780862897
30
0
11
-3.7041563608110426
21
-24.173706780862897
31
0
0
LWPOLYLINE
5
129
100
AcDbEntity
8
0
100
AcDbPolyline
90
8
43
0.0
10
-3.841232628402145
20
-16.82414665021863
10
-4.24590768951103
20
-16.631216867962635
10
-4.431194986706903
20
-16.56033210354007
10
-4.6034925992196305
20
-16.508935505245937
10
-4.761964512521298
20
-16.478281329092493
10
-4.9069226092505325
20
-16.467901663755928
10
-5.039427140611757
20
-16.47620583540606
10
-5.160454432687353
20
-16.501729081406005
0
LWPOLYLINE
5
130
100
AcDbEntity
8
0
100
AcDbPolyline
90
3
43
0.0
10
2.911431648281726
20
-24.884576606512
10
2.4244165088134753
20
-24.922227812655564
10
1.978507780667249
20
-24.950739793569408
0
LWPOLYLINE
5
131
100
AcDbEntity
8
0
100
AcDbPolyline
90
2
43
0.0
10
1.6226632749935566
20
-23.101831263643327
10
1.850307558158668
20
-22.81496912469802
0
LWPOLYLINE
5
132
100
AcDbEntity
8
0
100
AcDbPolyline
90
7
43
0.0
10
1.8503075581586637
20
-22.814969124698024
10
1.6379499190961146
20
-22.710835501701936
10
1.5088848143390279
20
-22.679546358949317
10
1.362799720565968
20
-22.66370907701443
10
1.1992717555708188
20
-22.663707576064844
10
1.0193302366005157
20
-22.67860737448604
10
0.6163161906591096
20
-22.747564125438057
0
LWPOLYLINE
5
133
100
AcDbEntity
8
0
100
AcDbPolyline
90
9
43
0.0
10
-5.649302063792892
20
-13.641336923804658
10
-5.775053181221841
20
-13.489147145890787
10
-5.94665297128127
20
-13.335796454496448
10
-6.16138442504798
20
-13.183888782436336
10
-6.406673878420211
20
-13.04025751769925
10
-6.660096382891976
20
-12.91542068079317
10
-6.898801035023981
20
-12.819437712035235
10
-7.109035897920368
20
-12.757465206282998
10
-7.28693625027742
20
-12.729904507071037
0
LINE
5
134
100
AcDbEntity
8
0
100
AcDbLine
10
-7.7064107418096182
20
-12.397831570990007
30
0
11
-7.6487818548946649
21
-12.761519798386358
31
0
0
LWPOLYLINE
5
135
100
AcDbEntity
8
0
100
AcDbPolyline
90
30
43
0.0
10
7.624328512719738
20
-17.381245620553884
10
7.736719363228591
20
-17.361559501770735
10
7.849931356741006
20
-17.320283272871507
10
7.963874908037434
20
-17.25728707243176
10
8.078311398789745
20
-17.17237922550001
10
8.192778343987937
20
-17.065330322451057
10
8.306504590455605
20
-16.935898266045097
10
8.418335897356192
20
-16.78385787045436
10
8.526705565882926
20
-16.60904118061025
10
8.629702040799504
20
-16.411397273389714
10
8.725204167001563
20
-16.1910669245115
10
8.811007925834536
20
-15.948459975337112
10
8.884951139712266
20
-15.68433561779052
10
8.94504414434381
20
-15.399887488990416
10
8.989603169366395
20
-15.096835599180457
10
9.017383060944287
20
-14.77751982214952
10
9.027687789830294
20
-14.444968660783509
10
8.995734644264973
20
-13.755290267124442
10
8.897500153572354
20
-13.06193747446712
10
8.741246210301648
20
-12.40182555122254
10
8.644520943487894
20
-12.095324572409098
10
8.537095269846215
20
-11.809749494487662
10
8.42011545430871
20
-11.548298155366876
10
8.294543026407649
20
-11.313418483967602
10
8.161136126077706
20
-11.106817960286962
10
8.020463019589975
20
-10.929571087223634
10
7.8729311120739505
20
-10.782270756243372
10
7.718813076880818
20
-10.665164062741935
10
7.558271253160316
20
-10.578276805828466
10
7.391384446955576
20
-10.52154018525183
0
LWPOLYLINE
5
136
100
AcDbEntity
8
0
100
AcDbPolyline
90
5
43
0.0
10
5.905863218353322
20
-11.646042218912937
10
5.927412238364127
20
-12.355660448052648
10
5.916501569034784
20
-13.098496466960247
10
5.869553461598287
20
-13.884755494966303
10
5.783145280915945
20
-14.72338063738814
0
LWPOLYLINE
5
137
100
AcDbEntity
8
0
100
AcDbPolyline
90
37
43
0.0
10
-3.9917592704021114
20
-10.9682879733379
10
-3.7897604323572502
20
-11.498785650950405
10
-3.5952169600790116
20
-11.992096972509946
10
-3.4081096506210504
20
-12.448162735733431
10
-3.228342440959638
20
-12.867063218234486
10
-3.055682616528435
20
-13.249178209116566
10
-2.889709803917002
20
-13.595347072839697
10
-2.729740085311078
20
-13.907046478839382
10
-2.5747968936958348
20
-14.186549999566617
10
-2.4234462457019488
20
-14.437148278543656
10
-2.2732711555654337
20
-14.663382003495729
10
-1.9527181418038704
20
-15.06997083309174
10
-1.7590402651597352
20
-15.269631335631596
10
-1.517417203525282
20
-15.4841119148805
10
-1.222072756731521
20
-15.71842617183401
10
-0.8971143049516039
20
-15.961507854716261
10
-0.5854183761340239
20
-16.19205461869499
10
-0.448507805110301
20
-16.295563671725695
10
-0.33035404250591593
20
-16.388098246343635
10
-0.2338191761215463
20
-16.468163519307552
10
-0.15965332695563447
20
-16.535327704323777
10
-0.0688024068091466
20
-16.63637520271182
10
-0.028217078571470624
20
-16.71631604694236
10
-0.014981476350782827
20
-16.815879431322248
10
-0.01566522731874256
20
-16.975481593727924
10
-0.018553612382039786
20
-17.086291570875087
10
-0.022116464062437086
20
-17.219407416509053
10
-0.028831874450459614
20
-17.54881328404779
10
-0.032052762878833824
20
-17.945515573017452
10
-0.02000312563107421
20
-18.81018555234116
10
-0.0030942710644777357
20
-19.20237647420551
10
0.008155792196740558
20
-19.37319340096669
10
0.021258319126902153
20
-19.522817709757398
10
0.03620266882293789
20
-19.6489026935503
10
0.052980144671601184
20
-19.749786246341234
10
0.07158347075307912
20
-19.82436267453108
10
0.09200617848043963
20
-19.871952149839576
0
LWPOLYLINE
5
138
100
AcDbEntity
8
0
100
AcDbPolyline
90
19
43
0.0
10
-7.648781854894665
20
-12.761519798386358
10
-7.809805129232283
20
-12.776869879935637
10
-7.954978938304295
20
-12.836069732431438
10
-8.080247840464434
20
-12.946915795068602
10
-8.132741938539095
20
-13.026273465448723
10
-8.176461466145566
20
-13.123919626038246
10
-8.209667341711237
20
-13.24045411862767
10
-8.230541638439345
20
-13.374810583571298
10
-8.228378803427843
20
-13.684373617877034
10
-8.159140448882756
20
-14.019051662302564
10
-8.020628125337494
20
-14.34696328623092
10
-7.822609885985568
20
-14.653575500418286
10
-7.58277104769314
20
-14.93885596799502
10
-7.319114249706732
20
-15.20542190310389
10
-7.043823951496555
20
-15.449059286049957
10
-6.76277255192563
20
-15.659176761403652
10
-6.478064563646877
20
-15.824680070830034
10
-6.190384043907924
20
-15.93896218241704
10
-5.899999666959046
20
-15.999999463558192
0
LWPOLYLINE
5
139
100
AcDbEntity
8
0
100
AcDbPolyline
90
3
43
0.0
10
1.8018583374220247
20
-10.838998316427697
10
1.5696784471140652
20
-11.019355518623497
10
1.3180715357668253
20
-11.212805408653024
0
LWPOLYLINE
5
140
100
AcDbEntity
8
0
100
AcDbPolyline
90
62
43
0.0
10
6.838171109417743
20
-19.547600743281397
10
6.496388857461437
20
-19.53376404372867
10
6.14498591997829
20
-19.590578889249937
10
5.787266924463619
20
-19.722819481844223
10
5.608456118798817
20
-19.820566676834027
10
5.431770938934833
20
-19.942150506223115
10
5.2591917325026225
20
-20.089906686631384
10
5.092890744077449
20
-20.26599792017228
10
4.935118686341833
20
-20.472091008522252
10
4.788089279673879
20
-20.709027502145744
10
4.653860416511728
20
-20.976479801383103
10
4.5342374088135635
20
-21.272690170552337
10
4.430736419805068
20
-21.594438161846032
10
4.344620993430764
20
-21.93728522115587
10
4.276946036754725
20
-22.29584604446835
10
4.228596930387616
20
-22.66404376833486
10
4.200331599035267
20
-23.035377082467605
10
4.192823717175974
20
-23.403184419796105
10
4.2067000845172124
20
-23.760902357822527
10
4.242581655719537
20
-24.10232914508786
10
4.301128477182809
20
-24.421891031572525
10
4.382999726820172
20
-24.714831535928628
10
4.488713582915137
20
-24.97730509923251
10
4.618447981218374
20
-25.206413949562346
10
4.771836400716669
20
-25.400254735615885
10
4.947778992618629
20
-25.55796238590079
10
5.144246362191359
20
-25.679751932449435
10
5.358053336427062
20
-25.766985191561695
10
5.584790727319319
20
-25.82212850346752
10
5.819058228909197
20
-25.848501536949428
10
6.054990102098926
20
-25.849825174589903
10
6.2868148912403425
20
-25.829743499037896
10
6.50937687977323
20
-25.791375290362932
10
6.718672021060613
20
-25.736856997447102
10
6.91241624821797
20
-25.66685495315487
10
7.090237894014562
20
-25.58042243531615
10
7.253325049999244
20
-25.475358197403914
10
7.4038027049691495
20
-25.348813251529485
10
7.54411298653167
20
-25.197895043984804
10
7.676406396691583
20
-25.020262403975767
10
7.801903536837178
20
-24.814748259421382
10
7.9205420150360135
20
-24.58171823440699
10
8.031039686136015
20
-24.32304396373157
10
8.131259475226031
20
-24.04179734454159
10
8.21854979401243
20
-23.74196710241211
10
8.290077004404633
20
-23.428185549478723
10
8.343175806590985
20
-23.1054385893342
10
8.375678478510327
20
-22.778791597999735
10
8.38627584377437
20
-22.453099019676646
10
8.3747652200906
20
-22.132772477448395
10
8.342013492301334
20
-21.821699266661984
10
8.289740770607567
20
-21.52325487563162
10
8.220263048525275
20
-21.240336721969765
10
8.136259291640568
20
-20.975385000192937
10
8.040530635277843
20
-20.73040755942762
10
7.935757562406886
20
-20.507004648592577
10
7.8242620655752155
20
-20.30639135340792
10
7.707810297781596
20
-20.129426017604757
10
7.587596355191078
20
-19.976661571870313
10
7.464350530109114
20
-19.84841229800967
10
7.338454337617586
20
-19.744821320030905
10
7.21005595063186
20
-19.66592773821316
0
LWPOLYLINE
5
141
100
AcDbEntity
8
0
100
AcDbPolyline
90
5
43
0.0
10
7.391384446955578
20
-10.52154018525183
10
7.2721209069758785
20
-9.858639372011767
10
7.123658039910446
20
-9.243567431699402
10
6.942066601285986
20
-8.682760517106425
10
6.730385038929712
20
-8.17124161156732
0
LWPOLYLINE
5
142
100
AcDbEntity
8
0
100
AcDbPolyline
90
42
43
0.0
10
5.468366194265646
20
-25.20569267609846
10
5.242217373662326
20
-25.082548436204235
10
5.043914258454277
20
-24.91028894778184
10
4.873303045761417
20
-24.683489283945892
10
4.7307425789855735
20
-24.39591991403895
10
4.6201527879350754
20
-24.043982546185585
10
4.549771391892084
20
-23.629023941110912
10
4.530041087102374
20
-23.158241313666625
10
4.570975745007855
20
-22.645378134890777
10
4.6795272975586
20
-22.111427405113083
10
4.857017501238576
20
-21.58525651054282
10
4.970159236226228
20
-21.33598961810279
10
5.0980133955405575
20
-21.102197075858253
10
5.239019899975155
20
-20.88856624597736
10
5.391355246928547
20
-20.69958805237249
10
5.552980763508552
20
-20.53938787189742
10
5.721690983123366
20
-20.411560741633934
10
5.895159539844848
20
-20.319018445195766
10
6.070985439575138
20
-20.263814839925853
10
6.246740078115295
20
-20.2469611066579
10
6.420011450069308
20
-20.268360988901772
10
6.588445232107996
20
-20.326873254152257
10
6.749783561385542
20
-20.420460869532963
10
6.901903199283937
20
-20.546379709615064
10
7.042855535808698
20
-20.701347923013873
10
7.170906175813106
20
-20.8817059730276
10
7.284572052920731
20
-21.083579744399465
10
7.382662535513445
20
-21.303051876424277
10
7.464324687339686
20
-21.536336759855374
10
7.576706792180486
20
-22.03046373870592
10
7.621516965509235
20
-22.5409373758826
10
7.60255127811398
20
-23.04666983028083
10
7.526209333980811
20
-23.52986660124798
10
7.400126899660706
20
-23.975412348090764
10
7.231827080546154
20
-24.370274430971033
10
7.027858518371455
20
-24.703254781397145
10
6.7942312172415305
20
-24.965656590830758
10
6.53746074382606
20
-25.152392345245367
10
6.265622284738746
20
-25.263115153169878
10
5.989127966203964
20
-25.302963818514254
10
5.719774289323799
20
-25.280845666918776
10
5.468366194265646
20
-25.205692676098465
0
LWPOLYLINE
5
143
100
AcDbEntity
8
0
100
AcDbPolyline
90
9
43
0.0
10
5.100086120174155
20
-12.386199565893623
10
4.968376300359741
20
-12.276295572419334
10
4.814927551045803
20
-12.171982476153593
10
4.6379022412394795
20
-12.073732885739991
10
4.435322953258715
20
-11.982055360672836
10
4.206652416235696
20
-11.897088078234043
10
3.9535120904215364
20
-11.818414025359774
10
3.678340223914466
20
-11.745406124507438
10
3.3830659557457143
20
-11.677568232661924
0
LWPOLYLINE
5
144
100
AcDbEntity
8
0
100
AcDbPolyline
90
8
43
0.0
10
3.619083626715308
20
-12.210807462512197
10
4.065738095119762
20
-12.219342983205674
10
4.273604175977746
20
-12.251032249156228
10
4.4697981807158875
20
-12.303422810383175
10
4.653746878053537
20
-12.377531335203988
10
4.825910360171529
20
-12.472541815909848
10
4.987308697840295
20
-12.586645081107292
10
5.138823090699064
20
-12.718278257684371
0
LWPOLYLINE
5
145
100
AcDbEntity
8
0
100
AcDbPolyline
90
7
43
0.0
10
6.663285645416495
20
-10.482074488873051
10
6.360061284095907
20
-10.74748087858911
10
6.2347406815357385
20
-10.886091614099872
10
6.1293068363540835
20
-11.029170770152454
10
6.044800320714213
20
-11.176952156308696
10
5.980498838862053
20
-11.329273477573981
10
5.905863218353318
20
-11.646042218912939
0
LWPOLYLINE
5
146
100
AcDbEntity
8
0
100
AcDbPolyline
90
4
43
0.0
10
0.06597945543670519
20
-12.146123831831883
10
-0.3486725814482109
20
-12.435713529737207
10
-0.5363799967375975
20
-12.560668197167123
10
-0.7094491226796786
20
-12.671044650105332
0
LWPOLYLINE
5
147
100
AcDbEntity
8
0
100
AcDbPolyline
90
32
43
0.0
10
-4.566617029072025
20
-23.393828858714414
10
-4.476665201015988
20
-23.475467616751722
10
-4.412366315533024
20
-23.57033130396202
10
-4.374039690348283
20
-23.677983414379824
10
-4.362344112333326
20
-23.7971986353657
10
-4.378384750257432
20
-23.92553064771747
10
-4.42373920347007
20
-24.059050883906256
10
-4.500192598556818
20
-24.192724875096168
10
-4.609291187002823
20
-24.321182681964366
10
-4.751887975312696
20
-24.439492749098036
10
-4.927672027466567
20
-24.543961274686534
10
-5.1348203776817885
20
-24.63259411680131
10
-5.369915987644119
20
-24.704838068471215
10
-5.627994124964637
20
-24.76097052108348
10
-5.902570385048722
20
-24.801505046624985
10
-6.467827024807599
20
-24.835423867358692
10
-6.738192975182071
20
-24.825737240822285
10
-6.985097937599659
20
-24.794075462644223
10
-7.197126071565908
20
-24.73673467345467
10
-7.364255870404239
20
-24.650826482234837
10
-7.478997562209262
20
-24.535327814107646
10
-7.537568121739335
20
-24.392164716419558
10
-7.540724349584634
20
-24.226968721931385
10
-7.493271786759365
20
-24.048585873248296
10
-7.402641574970008
20
-23.867703387636922
10
-7.277454949862104
20
-23.695459555360845
10
-7.126060800654363
20
-23.542017739301986
10
-6.955236483464073
20
-23.415307427125075
10
-6.769674164687901
20
-23.320608336262822
10
-6.572310904061702
20
-23.261040532343284
10
-6.3647419100127856
20
-23.238137833845446
10
-6.147639341165734
20
-23.252420951602975
0
ARC
5
148
100
AcDbEntity
8
0
100
AcDbCircle
10
1.2519860758517591
20
-12.352406324922796
30
0
40
1.2038123485904426
210
0
220
0
230
1
100
AcDbArc
50
170.13323308878827
51
189.86676691121144
0
LWPOLYLINE
5
149
100
AcDbEntity
8
0
100
AcDbPolyline
90
5
43
0.0
10
6.376167583276682
20
-8.203880369979593
10
6.4837037950376315
20
-8.809188186596199
10
6.568461956691964
20
-9.391716302731421
10
6.627498371864193
20
-9.948520808807384
10
6.663285645416495
20
-10.48207448887305
0
LWPOLYLINE
5
150
100
AcDbEntity
8
0
100
AcDbPolyline
90
24
43
0.0
10
0.46580929499894685
20
-16.912488795466682
10
0.45609979803593864
20
-16.589013213971093
10
0.38557579438284556
20
-16.30981339172432
10
0.255743759635655
20
-16.073688870585674
10
0.07226391359609072
20
-15.876237733919993
10
-0.15337614927514726
20
-15.708082468883179
10
-0.40640360302857104
20
-15.55449674118542
10
-0.6736167237638653
20
-15.39574882304042
10
-0.947611638729059
20
-15.207718397965161
10
-1.2271784981797413
20
-14.964168038983665
10
-1.3697563710793317
20
-14.813678676658077
10
-1.5147934187117535
20
-14.640357643520678
10
-1.6627227820985535
20
-14.441986539063825
10
-1.813900397585423
20
-14.216861052149236
10
-1.9685930383385866
20
-13.963763230911246
10
-2.1269932407460646
20
-13.681878603366926
10
-2.2892335664313155
20
-13.370718265922223
10
-2.4553955997646164
20
-13.03005582060696
10
-2.625520901309597
20
-12.659863319071688
10
-2.7996216119598554
20
-12.260250941158292
10
-2.9776893718402757
20
-11.831413206272423
10
-3.1597040489987847
20
-11.373578287385442
10
-3.3456421444151316
20
-10.886960475292184
10
-3.535484467054833
20
-10.371716616324495
0
LWPOLYLINE
5
151
100
AcDbEntity
8
0
100
AcDbPolyline
90
37
43
0.0
10
-5.251055562758162
20
-15.066692884124874
10
-5.289922631843869
20
-15.243254197169241
10
-5.3777883250299405
20
-15.376964203817558
10
-5.496214480397654
20
-15.474546918850358
10
-5.648605979074795
20
-15.532283532932631
10
-5.848753836298983
20
-15.539779041147447
10
-6.093993874434385
20
-15.492222063041911
10
-6.361306129584416
20
-15.394193899083763
10
-6.622808548307467
20
-15.256167598633583
10
-6.860187667667021
20
-15.090366880910393
10
-7.06715113525049
20
-14.907060547184525
10
-7.244848516898743
20
-14.711122586807868
10
-7.3968814909696485
20
-14.500000852830723
10
-7.524533127609125
20
-14.267723551368691
10
-7.622180292003493
20
-14.012787223742519
10
-7.675288170093021
20
-13.744538006158727
10
-7.6672730098926305
20
-13.483285297409228
10
-7.637435751836568
20
-13.363849313794587
10
-7.590918237011097
20
-13.257059365764258
10
-7.529441686919933
20
-13.166708539527667
10
-7.455341205104304
20
-13.09597235123993
10
-7.371152457566952
20
-13.046937289744585
10
-7.279197565870429
20
-13.020124330712513
10
-7.078754749492477
20
-13.026307555294531
10
-6.864322229998845
20
-13.089182992768261
10
-6.646434591766317
20
-13.179038202130135
10
-6.439938258834929
20
-13.277674610564437
10
-6.257699883425604
20
-13.381464727338951
10
-6.100614805805351
20
-13.498649573195733
10
-5.9563491877234975
20
-13.643854616784092
10
-5.81052418101642
20
-13.829064861030659
10
-5.657953828100088
20
-14.055869795154774
10
-5.505567068065054
20
-14.314330048613696
10
-5.371090429609553
20
-14.585194485202905
10
-5.27926169743357
20
-14.843580746838082
10
-5.256426230591097
20
-14.960626401516425
10
-5.251055562758162
20
-15.066692884124874
0
LWPOLYLINE
5
152
100
AcDbEntity
8
0
100
AcDbPolyline
90
9
43
0.0
10
6.2313615086162555
20
-14.542746819739236
10
6.2891371684976525
20
-14.102678521162623
10
6.3387198624405015
20
-13.68315751318077
10
6.379318386988591
20
-13.286168069551147
10
6.409925770637098
20
-12.914235592705074
10
6.429855610667435
20
-12.569081524694417
10
6.439300576839983
20
-12.250222665464705
10
6.43905734040654
20
-11.955661028464979
10
6.429875320610612
20
-11.683517131329099
0
LWPOLYLINE
5
153
100
AcDbEntity
8
0
100
AcDbPolyline
90
33
43
0.0
10
6.429875320610612
20
-11.683517131329099
10
6.5568901249313125
20
-11.528097802297083
10
6.68970542218613
20
-11.414379945720189
10
6.828234923411678
20
-11.342484848681407
10
6.972214051761913
20
-11.312444947479616
10
7.121092500725819
20
-11.324050133619505
10
7.273932749519572
20
-11.376696512202887
10
7.429298287518889
20
-11.46921983254652
10
7.585139349145733
20
-11.599721642530008
10
7.738805717279889
20
-11.76552874637504
10
7.887186846686234
20
-11.963285839453727
10
8.026904727071521
20
-12.189099499975883
10
8.15451181404503
20
-12.43868274377035
10
8.266678906937805
20
-12.707483028025557
10
8.360391641479909
20
-12.99081091341316
10
8.43314940140288
20
-13.28396704850354
10
8.483162003284066
20
-13.582363519960321
10
8.509566357887163
20
-13.881649242738185
10
8.512573727194424
20
-14.177812320052585
10
8.493387765632878
20
-14.467209275798751
10
8.45401496299637
20
-14.746560283856386
10
8.397054731456425
20
-15.012938574560197
10
8.325500070305436
20
-15.263764548270073
10
8.242545700781491
20
-15.496803988921306
10
8.151395723355174
20
-15.710168570776796
10
8.055072050135879
20
-15.902320665350604
10
7.956224594450155
20
-16.072082216937048
10
7.856957147577074
20
-16.218641679963145
10
7.758774107613654
20
-16.34152257693409
10
7.662669825002314
20
-16.4405061988807
10
7.56923728006798
20
-16.515550739105084
10
7.4787735007950955
20
-16.56671441407888
10
7.391384446955579
20
-16.594081598019475
0
LWPOLYLINE
5
154
100
AcDbEntity
8
0
100
AcDbPolyline
90
28
43
0.0
10
-0.7094491226796786
20
-12.671044650105332
10
-0.6478230055651596
20
-12.821435940751034
10
-0.5669230914725449
20
-12.964880878289812
10
-0.4667247878710816
20
-13.101303234927208
10
-0.34729506667805843
20
-13.230551539048172
10
-0.20888753903027588
20
-13.352378711243299
10
-0.05204109045425913
20
-13.466422046083775
10
0.31279076235728576
20
-13.669013202012891
10
0.7342159422408127
20
-13.832500549211293
10
1.1929532068676671
20
-13.948651395815364
10
1.6655646593232003
20
-14.007012700251877
10
1.8991303781864182
20
-14.010713657777258
10
2.126570083124628
20
-13.995265130791923
10
2.3447752149272105
20
-13.959216797963133
10
2.550854793109024
20
-13.901524340659975
10
2.7422430578695725
20
-13.821781154080602
10
2.9168100272354915
20
-13.720457399674013
10
3.0729726441648517
20
-13.5991368011219
10
3.2098150087673782
20
-13.460773008434211
10
3.327107122774969
20
-13.30968280172479
10
3.4251861306083553
20
-13.151184313443222
10
3.5668685272570952
20
-12.83524033430986
10
3.612474546982599
20
-12.688969340695408
10
3.6425535156030646
20
-12.5566538614078
10
3.657843620637076
20
-12.441328142743998
10
3.658849372485724
20
-12.344772571815936
10
3.6458778855512186
20
-12.267839730009063
10
3.6190836267153075
20
-12.210807462512197
0
LWPOLYLINE
5
155
100
AcDbEntity
8
0
100
AcDbPolyline
90
33
43
0.0
10
1.318071535766046
20
-11.212805408653619
10
1.5298622988136634
20
-11.206261432037191
10
1.7457184494515883
20
-11.22390998637465
10
1.964858536796807
20
-11.265764372762856
10
2.1852169405919115
20
-11.331694972161054
10
2.402789601843315
20
-11.421295382609298
10
2.611001302545112
20
-11.53374482919409
10
2.800820702236463
20
-11.667674066210447
10
2.962148663799989
20
-11.821041134033038
10
3.085598325293779
20
-11.991004295116902
10
3.1642617665965145
20
-12.173791510513134
10
3.1953626262651005
20
-12.364590444063142
10
3.1805220749803307
20
-12.557709928953265
10
3.124401536202781
20
-12.747061810585924
10
3.033072888225315
20
-12.926697856194313
10
2.9124051453319346
20
-13.091345757758388
10
2.7669629137239915
20
-13.23678797692206
10
2.600102036928378
20
-13.359864979422799
10
2.4145705313789128
20
-13.458324283124467
10
2.2131076515868227
20
-13.530676622748986
10
1.9990194154969017
20
-13.576064267177136
10
1.7763957903577243
20
-13.594223791132036
10
1.549930696399144
20
-13.585552140655809
10
1.3246702727210904
20
-13.55119746601381
10
1.105764827679106
20
-13.493156805254218
10
0.8982261294029876
20
-13.414329789462874
10
0.7067128914526699
20
-13.318304181162494
10
0.5353384929797234
20
-13.208904367938246
10
0.3874783847250743
20
-13.089723262315443
10
0.26557163633657
20
-12.963651484805947
10
0.17103314010106063
20
-12.832569502247328
10
0.1044614717997012
20
-12.6974563336261
10
0.06597945543850375
20
-12.558688818011191
0
LWPOLYLINE
5
156
100
AcDbEntity
8
0
100
AcDbPolyline
90
2
43
0.0
10
6.730385038929714
20
-8.171241611567321
10
6.37616758327668
20
-8.203880369979593
0
LWPOLYLINE
5
157
100
AcDbEntity
8
0
100
AcDbPolyline
90
2
43
0.0
10
-7.286936250277419
20
-12.477213017097963
10
-7.7064107418096155
20
-12.397831570990007
0
LWPOLYLINE
5
158
100
AcDbEntity
8
0
100
AcDbPolyline
90
32
43
0.0
10
-1.8769963075288099
20
-19.600257380609715
10
-1.8775370396287567
20
-19.728763489329786
10
-1.8993565990727301
20
-19.883653547524975
10
-1.944173122331037
20
-20.06123646217291
10
-2.0162878516428315
20
-20.251775409516885
10
-2.1228071820842818
20
-20.438344218032796
10
-2.2713331749514536
20
-20.600536630875848
10
-2.466637332411678
20
-20.720113708876816
10
-2.707615275643047
20
-20.78619918287549
10
-2.9867763944420234
20
-20.796414088952684
10
-3.2923008060312244
20
-20.75390294018942
10
-3.610455278487521
20
-20.663781314436704
10
-3.9279114515609908
20
-20.529781756543645
10
-4.233091567262562
20
-20.352972885182574
10
-4.516259539174647
20
-20.133164439286784
10
-4.769364789873979
20
-19.8708626791253
10
-4.9858953025693165
20
-19.569230180197987
10
-5.160745965943077
20
-19.235891426924592
10
-5.290130506746684
20
-18.883200431156936
10
-5.371543077839937
20
-18.52673565822604
10
-5.40373757882932
20
-18.18351084773645
10
-5.386719026508753
20
-17.870187199126043
10
-5.321756995870917
20
-17.601330815166193
10
-5.2114961222474925
20
-17.38803936942621
10
-5.060178664302621
20
-17.236983404833293
10
-4.873891566935091
20
-17.149498590326484
10
-4.660656840136815
20
-17.121033488741883
10
-4.429669249156196
20
-17.1425194870248
10
-4.189889393382405
20
-17.20319028628754
10
-3.948601859750066
20
-17.293480508149443
10
-3.7104977590373736
20
-17.407004560093053
10
-3.2520091349040867
20
-17.6922418104314
0
LWPOLYLINE
5
159
100
AcDbEntity
8
0
100
AcDbPolyline
90
3
43
0.0
10
-3.535484467055648
20
-10.371716616325772
10
-3.761122211232498
20
-10.69564031475589
10
-3.991759270402113
20
-10.9682879733379
0
LWPOLYLINE
5
160
100
AcDbEntity
8
0
100
AcDbPolyline
90
32
43
0.0
10
-5.454177265773686
20
-16.63330402280244
10
-5.594769582587067
20
-16.690031514341843
10
-5.718022769822931
20
-16.779171666852974
10
-5.823814076331454
20
-16.900618978750963
10
-5.911941415563873
20
-17.053876206375005
10
-5.982127314787538
20
-17.23777763716897
10
-6.034024629114369
20
-17.450200673784902
10
-6.067224096443349
20
-17.687838578184785
10
-6.081263746890537
20
-17.94629684259286
10
-6.075640584762675
20
-18.220391201128432
10
-6.049824025333175
20
-18.504476315344935
10
-6.00327164516641
20
-18.792760502898986
10
-5.935448222033826
20
-19.079618332674542
10
-5.845844358438617
20
-19.35991522246571
10
-5.734011325318811
20
-19.62928023384493
10
-5.599643347054162
20
-19.884213497829784
10
-5.442711715885014
20
-20.122012763764072
10
-5.263605047505826
20
-20.3406898431383
10
-5.063278125764251
20
-20.538896256301243
10
-4.84340017150219
20
-20.715848472854354
10
-4.606512733971579
20
-20.871262043689043
10
-4.356189673097999
20
-21.005288916317586
10
-4.097003897719833
20
-21.118443639670836
10
-3.573611090982454
20
-21.285471484728795
10
-3.320729813389066
20
-21.341374601810852
10
-3.0809311309624836
20
-21.38029071637428
10
-2.85881997287796
20
-21.403207280781995
10
-2.6579434082628275
20
-21.41095296804413
10
-2.480634607335113
20
-21.404151162657183
10
-2.3282141634131936
20
-21.38323344609824
10
-2.2012815990941292
20
-21.348469754282984
10
-2.0999997518956657
20
-21.29999934509397
0
LINE
5
161
100
AcDbEntity
8
0
100
AcDbLine
10
-7.2869362502774191
20
-12.729904507071041
30
0
11
-7.2869362502774191
21
-12.477213017097963
31
0
0
LWPOLYLINE
5
162
100
AcDbEntity
8
0
100
AcDbPolyline
90
2
43
0.0
10
5.13882309069906
20
-12.718278257684341
10
5.100086120174154
20
-12.386199565893623
0
LWPOLYLINE
5
163
100
AcDbEntity
8
0
100
AcDbPolyline
90
22
43
0.0
10
-8.0
20
-23.79999922215938
10
-8.10496083379483
20
-23.847469013918644
10
-8.211102459979504
20
-23.955897943193836
10
-8.310324080884843
20
-24.121197093869615
10
-8.381620489951148
20
-24.331060614754904
10
-8.396261082159574
20
-24.446079057136014
10
-8.390403889907224
20
-24.563434749303287
10
-8.359439282338213
20
-24.679694633855096
10
-8.299525321463868
20
-24.7915764977454
10
-8.208086890380466
20
-24.89618379521484
10
-8.084187857328121
20
-24.991187960082762
10
-7.928613658401639
20
-25.0748955690051
10
-7.743580364664335
20
-25.14616923688771
10
-7.532409244239814
20
-25.204334346726267
10
-7.29924526074091
20
-25.249103136236577
10
-6.785856282695326
20
-25.298753574580214
10
-6.241939181214333
20
-25.29757866520982
10
-5.700923026950371
20
-25.249433119764042
10
-5.185497827975943
20
-25.15791932238394
10
-4.708530524268649
20
-25.02588890607717
10
-4.275962543818942
20
-24.85536141702201
10
-3.889558976010164
20
-24.647513464149537
0
LWPOLYLINE
5
164
100
AcDbEntity
8
0
100
AcDbPolyline
90
9
43
0.0
10
3.3830659557457143
20
-11.677568232661928
10
3.265482356602406
20
-11.532551827108515
10
3.127038254036231
20
-11.39800774723064
10
2.965939280680703
20
-11.274836795808767
10
2.7802058082678314
20
-11.164032779730833
10
2.5691787550327683
20
-11.065926569196499
10
2.3343105457620736
20
-10.979789022389687
10
2.0779167383961896
20
-10.904457690046577
10
1.801858337422025
20
-10.838998316427697
0
ENDSEC
0
SECTION
2
OBJECTS
0
DICTIONARY
5
C
100
AcDbDictionary
3
ACAD_GROUP
350
D
3
ACAD_MLINESTYLE
350
17
0
DICTIONARY
5
D
100
AcDbDictionary
0
DICTIONARY
5
1A
330
C
100
AcDbDictionary
0
DICTIONARY
5
17
100
AcDbDictionary
0
ENDSEC
0
EOF
