0
SECTION
2
HEADER
9
$INSUNITS
70
4
9
$ACADVER
1
AC1014
9
$HANDSEED
5
FFFF
0
ENDSEC
0
SECTION
2
TABLES
0
TABLE
2
VPORT
5
8
100
AcDbSymbolTable
0
ENDTAB
0
TABLE
2
LTYPE
5
5
100
AcDbSymbolTable
0
LTYPE
5
14
100
AcDbSymbolTableRecord
100
AcDbLinetypeTableRecord
2
BYBLOCK
70
0
0
LTYPE
5
15
100
AcDbSymbolTableRecord
100
AcDbLinetypeTableRecord
2
BYLAYER
70
0
0
LTYPE
5
16
100
AcDbSymbolTableRecord
100
AcDbLinetypeTableRecord
2
DASHED
70
0
3
Dashed __ __ __ __ __ __ __ __ __ __ __ __ __ _
72
65
73
2
40
0.75
49
0.5
74
0
49
-0.25
74
0
0
ENDTAB
0
TABLE
2
LAYER
5
2
100
AcDbSymbolTable
70
2
0
LAYER
5
50
100
AcDbSymbolTableRecord
100
AcDbLayerTableRecord
2
0
70
0
62
7
6
CONTINUOUS
0
ENDTAB
0
TABLE
2
STYLE
5
3
100
AcDbSymbolTable
70
1
0
STYLE
5
11
100
AcDbSymbolTableRecord
100
AcDbTextStyleTableRecord
2
STANDARD
70
0
0
ENDTAB
0
TABLE
2
VIEW
5
6
100
AcDbSymbolTable
70
0
0
ENDTAB
0
TABLE
2
UCS
5
7
100
AcDbSymbolTable
70
0
0
ENDTAB
0
TABLE
2
APPID
5
9
100
AcDbSymbolTable
70
2
0
APPID
5
12
100
AcDbSymbolTableRecord
100
AcDbRegAppTableRecord
2
ACAD
70
0
0
ENDTAB
0
TABLE
2
DIMSTYLE
5
A
100
AcDbSymbolTable
70
1
0
ENDTAB
0
TABLE
2
BLOCK_RECORD
5
1
100
AcDbSymbolTable
70
1
0
BLOCK_RECORD
5
1F
100
AcDbSymbolTableRecord
100
AcDbBlockTableRecord
2
*MODEL_SPACE
0
BLOCK_RECORD
5
1B
100
AcDbSymbolTableRecord
100
AcDbBlockTableRecord
2
*PAPER_SPACE
0
ENDTAB
0
ENDSEC
0
SECTION
2
BLOCKS
0
BLOCK
5
20
100
AcDbEntity
100
AcDbBlockBegin
2
*MODEL_SPACE
0
ENDBLK
5
21
100
AcDbEntity
100
AcDbBlockEnd
0
BLOCK
5
1C
100
AcDbEntity
100
AcDbBlockBegin
2
*PAPER_SPACE
0
ENDBLK
5
1D
100
AcDbEntity
100
AcDbBlockEnd
0
ENDSEC
0
SECTION
2
ENTITIES
0
LWPOLYLINE
5
100
100
AcDbEntity
8
0
100
AcDbPolyline
90
4
70
1
43
0.0
10
-21.60874114509226
20
-2.4250751478132733
42
0.89405111660951464
10
21.608741145092253
20
-2.4250751478132484
10
8.1407114949842523
20
-2.4250751478132608
42
-0.74553291615479311
10
-8.1407114949842541
20
-2.4250751478132639
0
LWPOLYLINE
5
101
100
AcDbEntity
8
0
100
AcDbPolyline
90
9
43
0.0
10
-0.9433340652876421
20
-4.716014174111325
10
-0.9607708748635083
20
-4.650281835657494
10
-1.0167574144135856
20
-4.6242412947856835
10
-1.108020230470189
20
-4.637257427343402
10
-1.2217187672769658
20
-4.683041896949832
10
-1.3364284980695673
20
-4.749781120553458
10
-1.4313181957639225
20
-4.825393878028661
10
-1.4946789593760235
20
-4.902207222254031
10
-1.523641731897429
20
-4.977339384007335
0
LWPOLYLINE
5
102
100
AcDbEntity
8
0
100
AcDbPolyline
90
9
43
0.0
10
-1.5236417318974294
20
-4.977339384007335
10
-1.5439305933736795
20
-4.9163020038682825
10
-1.533994926046982
20
-4.8162717106861015
10
-1.490196674010245
20
-4.679753779084138
10
-1.4069276952689669
20
-4.5169610078005515
10
-1.278163637575579
20
-4.343667051292603
10
-1.100252621270701
20
-4.173930753800908
10
-0.8738376164012048
20
-4.015164049958185
10
-0.6014561817365305
20
-3.86950153117291
0
LWPOLYLINE
5
103
100
AcDbEntity
8
0
100
AcDbPolyline
90
9
43
0.0
10
-0.6014561817365305
20
-3.8695015311729097
10
-0.5737050739046934
20
-3.8693869613399405
10
-0.5493240855079856
20
-3.8893432461064683
10
-0.536895771673459
20
-3.9211570731512095
10
-0.5506233621465355
20
-3.951208374110814
10
-0.5938725468772778
20
-3.9815942647491362
10
-0.6520037966748308
20
-4.037941166836958
10
-0.7082788999112863
20
-4.145500599047466
10
-0.7554867283734621
20
-4.3130792335984
0
LWPOLYLINE
5
104
100
AcDbEntity
8
0
100
AcDbPolyline
90
5
43
0.0
10
-0.7554867283734623
20
-4.3130792335984
10
-0.6985180326311285
20
-4.2614168159634
10
-0.6488054530315963
20
-4.241602926944975
10
-0.6072355310024158
20
-4.257528772112301
10
-0.5729786792073277
20
-4.305553128478147
0
LWPOLYLINE
5
105
100
AcDbEntity
8
0
100
AcDbPolyline
90
7
43
0.0
10
-0.5729786792073277
20
-4.305553128478148
10
-0.5582636898355418
20
-4.4085426622883555
10
-0.5684217391259622
20
-4.49097108492211
10
-0.5943872577004317
20
-4.551835960882919
10
-0.6279323678461142
20
-4.592117695807418
10
-0.7031324545335258
20
-4.627347962056429
10
-0.7837096225744089
20
-4.6272941223689505
0
LWPOLYLINE
5
106
100
AcDbEntity
8
0
100
AcDbPolyline
90
7
43
0.0
10
-0.7837096225744089
20
-4.627294122368952
10
-0.7139003874093167
20
-4.677393333291067
10
-0.6553013321750385
20
-4.69896795635699
10
-0.6074045608733316
20
-4.69216863461093
10
-0.5675071123421579
20
-4.660922457828615
10
-0.4916603384295039
20
-4.558298134265791
10
-0.3977937411878863
20
-4.44420914918131
0
LWPOLYLINE
5
107
100
AcDbEntity
8
0
100
AcDbPolyline
90
4
43
0.0
10
-0.39779374118788624
20
-4.444209149181311
10
-0.4110362186208838
20
-4.588714338402712
10
-0.3962394334457293
20
-4.661216258747518
10
-0.3545656951849008
20
-4.734031051842912
0
LWPOLYLINE
5
108
100
AcDbEntity
8
0
100
AcDbPolyline
90
5
43
0.0
10
-0.3545656951849008
20
-4.734031051842913
10
-0.26002645397367946
20
-4.789423075809996
10
-0.21041412828970832
20
-4.850363577829302
10
-0.21126708663731958
20
-4.917536546902624
10
-0.2574886461924031
20
-4.990312542246782
0
LWPOLYLINE
5
109
100
AcDbEntity
8
0
100
AcDbPolyline
90
9
43
0.0
10
-0.2574886461924031
20
-4.990312542246782
10
-0.1185260707247313
20
-4.945774920350716
10
-0.03392311274770886
20
-4.870667273258183
10
-0.004332604022933159
20
-4.769214391549263
10
-0.023947988279191892
20
-4.653607803054647
10
-0.07207212164779353
20
-4.540093302850325
10
-0.11013703608545765
20
-4.4427747035062755
10
-0.10056647006983423
20
-4.370487230394546
10
-0.027028653134495435
20
-4.326045503432812
0
LWPOLYLINE
5
110
100
AcDbEntity
8
0
100
AcDbPolyline
90
5
43
0.0
10
-0.02702865313449543
20
-4.326045503432812
10
-0.01548531823871257
20
-4.394842474098289
10
0.021364620828830245
20
-4.455892105649131
10
0.08633611528977907
20
-4.508332631680746
10
0.17631839956365525
20
-4.55311637894575
0
LWPOLYLINE
5
111
100
AcDbEntity
8
0
100
AcDbPolyline
90
5
43
0.0
10
0.17631839956365525
20
-4.55311637894575
10
0.11686494129017283
20
-4.471611255793028
10
0.1092936832463801
20
-4.396484728577724
10
0.11346745157490666
20
-4.324233510802521
10
0.08721124053773896
20
-4.250936848750437
0
LWPOLYLINE
5
112
100
AcDbEntity
8
0
100
AcDbPolyline
90
3
43
0.0
10
0.08721124053773899
20
-4.250936848750437
10
0.16242460063438582
20
-4.2647952026097755
10
0.2033655347252461
20
-4.317160263758653
0
LWPOLYLINE
5
113
100
AcDbEntity
8
0
100
AcDbPolyline
90
11
43
0.0
10
0.2033655347252461
20
-4.317160263758653
10
0.2156356952960053
20
-4.2650541633174965
10
0.21324051215282086
20
-4.164812822831713
10
0.16775174284879105
20
-4.061118209745977
10
0.06273020881558902
20
-3.9981633358954376
10
-0.0441365160906962
20
-3.9451471861363117
10
-0.0714147704479338
20
-3.911395019202993
10
-0.07410077732169473
20
-3.8805051258857164
10
-0.053970640703662545
20
-3.8622182888573477
10
-0.01839751242909511
20
-3.860031500921855
10
0.05431016794476662
20
-3.8752928699519007
0
LWPOLYLINE
5
114
100
AcDbEntity
8
0
100
AcDbPolyline
90
9
43
0.0
10
0.05431016794476662
20
-3.8752928699519007
10
0.2521025770818424
20
-3.9264133656980964
10
0.43257606683282657
20
-4.013882520526937
10
0.5926930678294714
20
-4.135878829507303
10
0.726710286877677
20
-4.282959651459036
10
0.826821503314385
20
-4.4367366574195435
10
0.8857770792624222
20
-4.577277172219303
10
0.90030370308979
20
-4.691874523174993
10
0.8710874962823479
20
-4.77679813691372
0
LWPOLYLINE
5
115
100
AcDbEntity
8
0
100
AcDbPolyline
90
5
43
0.0
10
0.8710874962823478
20
-4.77679813691372
10
0.7987009595712807
20
-4.645915588148885
10
0.6972240792846343
20
-4.549051170422119
10
0.5633184712621134
20
-4.490108776732554
10
0.4004808845290997
20
-4.464999322776548
0
LWPOLYLINE
5
116
100
AcDbEntity
8
0
100
AcDbPolyline
90
11
43
0.0
10
0.4004808845290997
20
-4.464999322776548
10
0.5156140872806717
20
-4.534651303300565
10
0.6120271861628733
20
-4.612741789509086
10
0.6893970940213667
20
-4.699259084442965
10
0.7474102135123664
20
-4.793932426029177
10
0.8055984108559063
20
-5.003910249861927
10
0.7936571225410867
20
-5.226164248405794
10
0.7295086687950094
20
-5.4311633437518525
10
0.6340464896105782
20
-5.587895798174612
10
0.5222277487556186
20
-5.677706520881448
10
0.4004808845290995
20
-5.6963987527024615
0
LWPOLYLINE
5
117
100
AcDbEntity
8
0
100
AcDbPolyline
90
9
43
0.0
10
0.4004808845290997
20
-5.696398752702462
10
0.4606617248005733
20
-5.62977600966259
10
0.5084395563046142
20
-5.539163919925071
10
0.5404489446362042
20
-5.4275315541503595
10
0.5495732603272938
20
-5.30539443963076
10
0.5259695045622932
20
-5.19024720631208
10
0.46107633116671853
20
-5.098954991325762
10
0.35162541170409095
20
-5.040540986233483
10
0.19847265293852615
20
-5.016799633594169
0
LWPOLYLINE
5
118
100
AcDbEntity
8
0
100
AcDbPolyline
90
17
43
0.0
10
0.19847265293852612
20
-5.016799633594169
10
0.3307655348794079
20
-5.090103372882593
10
0.39469044303623474
20
-5.192227339338828
10
0.3922749658072378
20
-5.32012275828971
10
0.3307727863766655
20
-5.46499193382085
10
0.22527154812352596
20
-5.610267005336735
10
0.09698416864504719
20
-5.735808340481967
10
-0.031537950737285526
20
-5.8266167907567405
10
-0.14138334239476427
20
-5.881943693016566
10
-0.22101136133302696
20
-5.919577566803816
10
-0.2662665584781986
20
-5.965300272573704
10
-0.27880603405686377
20
-6.035680829059938
10
-0.2644035790936134
20
-6.125715489346016
10
-0.2306846353130929
20
-6.213942237242683
10
-0.18459289657754221
20
-6.276408043893569
10
-0.1304308838255871
20
-6.298098404580513
10
-0.06993646235319952
20
-6.273640724467296
0
LWPOLYLINE
5
119
100
AcDbEntity
8
0
100
AcDbPolyline
90
11
43
0.0
10
-0.0699364623531995
20
-6.273640724467297
10
-0.11822586161237256
20
-6.339447005996643
10
-0.17177555625872276
20
-6.375957017892106
10
-0.23032418381399683
20
-6.3834305735257475
10
-0.2930377821792386
20
-6.363380717150822
10
-0.4231573812531099
20
-6.257425466549558
10
-0.540901961335569
20
-6.102851881029994
10
-0.6278593996651499
20
-5.928509963599285
10
-0.6775826046130976
20
-5.72608579807168
10
-0.6908666829629299
20
-5.4768289836780975
10
-0.6699364489421544
20
-5.173640749054213
0
LWPOLYLINE
5
120
100
AcDbEntity
8
0
100
AcDbPolyline
90
9
43
0.0
10
-0.6699364489421544
20
-5.173640749054213
10
-0.7241160221346916
20
-5.14711318724938
10
-0.807691631938792
20
-5.15391768906306
10
-0.9161886013825258
20
-5.193245390642128
10
-1.034586410586817
20
-5.258990777325396
10
-1.138104554215023
20
-5.339615829612678
10
-1.2023933393399588
20
-5.423151715573
10
-1.2138948600518564
20
-5.502030306513155
10
-1.1699364377662835
20
-5.573640740113516
0
LWPOLYLINE
5
121
100
AcDbEntity
8
0
100
AcDbPolyline
90
14
43
0.0
10
-1.1699364377662835
20
-5.573640740113516
10
-1.2715492615137653
20
-5.547187899372273
10
-1.3783779001970737
20
-5.46467997565105
10
-1.423183501546484
20
-5.40344196166412
10
-1.4508370763625593
20
-5.330776335989307
10
-1.451832730644911
20
-5.249093070713162
10
-1.4198044626502155
20
-5.161532794742296
10
-1.3549115791297532
20
-5.071931662512332
10
-1.2652948386705134
20
-4.984672565222458
10
-1.0685466371971848
20
-4.834935926719879
10
-0.9911775540416619
20
-4.779963389019244
10
-0.9420299516777084
20
-4.741390926297426
10
-0.9256293874718422
20
-4.720033566433163
10
-0.9433340652876419
20
-4.716014174111325
0
CIRCLE
5
122
100
AcDbEntity
8
0
100
AcDbCircle
10
-0.26724786997976757
20
-5.0826935495210606
30
2.2204460492503131e-15
40
1.6391540323589111
210
0
220
0
230
1
0
ENDSEC
0
SECTION
2
OBJECTS
0
DICTIONARY
5
C
100
AcDbDictionary
3
ACAD_GROUP
350
D
3
ACAD_MLINESTYLE
350
17
0
DICTIONARY
5
D
100
AcDbDictionary
0
DICTIONARY
5
1A
330
C
100
AcDbDictionary
0
DICTIONARY
5
17
100
AcDbDictionary
0
ENDSEC
0
EOF
