0
SECTION
2
HEADER
9
$INSUNITS
70
4
9
$ACADVER
1
AC1014
9
$HANDSEED
5
FFFF
0
ENDSEC
0
SECTION
2
TABLES
0
TABLE
2
VPORT
5
8
100
AcDbSymbolTable
0
ENDTAB
0
TABLE
2
LTYPE
5
5
100
AcDbSymbolTable
0
LTYPE
5
14
100
AcDbSymbolTableRecord
100
AcDbLinetypeTableRecord
2
BYBLOCK
70
0
0
LTYPE
5
15
100
AcDbSymbolTableRecord
100
AcDbLinetypeTableRecord
2
BYLAYER
70
0
0
LTYPE
5
16
100
AcDbSymbolTableRecord
100
AcDbLinetypeTableRecord
2
DASHED
70
0
3
Dashed __ __ __ __ __ __ __ __ __ __ __ __ __ _
72
65
73
2
40
0.75
49
0.5
74
0
49
-0.25
74
0
0
ENDTAB
0
TABLE
2
LAYER
5
2
100
AcDbSymbolTable
70
2
0
LAYER
5
50
100
AcDbSymbolTableRecord
100
AcDbLayerTableRecord
2
0
70
0
62
7
6
CONTINUOUS
0
ENDTAB
0
TABLE
2
STYLE
5
3
100
AcDbSymbolTable
70
1
0
STYLE
5
11
100
AcDbSymbolTableRecord
100
AcDbTextStyleTableRecord
2
STANDARD
70
0
0
ENDTAB
0
TABLE
2
VIEW
5
6
100
AcDbSymbolTable
70
0
0
ENDTAB
0
TABLE
2
UCS
5
7
100
AcDbSymbolTable
70
0
0
ENDTAB
0
TABLE
2
APPID
5
9
100
AcDbSymbolTable
70
2
0
APPID
5
12
100
AcDbSymbolTableRecord
100
AcDbRegAppTableRecord
2
ACAD
70
0
0
ENDTAB
0
TABLE
2
DIMSTYLE
5
A
100
AcDbSymbolTable
70
1
0
ENDTAB
0
TABLE
2
BLOCK_RECORD
5
1
100
AcDbSymbolTable
70
1
0
BLOCK_RECORD
5
1F
100
AcDbSymbolTableRecord
100
AcDbBlockTableRecord
2
*MODEL_SPACE
0
BLOCK_RECORD
5
1B
100
AcDbSymbolTableRecord
100
AcDbBlockTableRecord
2
*PAPER_SPACE
0
ENDTAB
0
ENDSEC
0
SECTION
2
BLOCKS
0
BLOCK
5
20
100
AcDbEntity
100
AcDbBlockBegin
2
*MODEL_SPACE
0
ENDBLK
5
21
100
AcDbEntity
100
AcDbBlockEnd
0
BLOCK
5
1C
100
AcDbEntity
100
AcDbBlockBegin
2
*PAPER_SPACE
0
ENDBLK
5
1D
100
AcDbEntity
100
AcDbBlockEnd
0
ENDSEC
0
SECTION
2
ENTITIES
0
POINT
5
100
100
AcDbEntity
8
0
100
AcDbPoint
10
0
20
0
30
0
0
LWPOLYLINE
5
101
100
AcDbEntity
8
0
100
AcDbPolyline
90
3
43
0.0
10
-23.933864116519857
20
-20.99692197329132
10
-23.382802645681117
20
-21.105279209740264
10
-22.782567954167398
20
-21.225774514018624
0
LWPOLYLINE
5
102
100
AcDbEntity
8
0
100
AcDbPolyline
90
2
43
0.0
10
-22.782567954167398
20
-21.22577451401863
10
-22.42484487538805
20
-21.298602204261446
0
LWPOLYLINE
5
103
100
AcDbEntity
8
0
100
AcDbPolyline
90
9
43
0.0
10
-22.42484487538805
20
-21.298602204261446
10
-22.552517260335723
20
-19.888639814980785
10
-22.664206356257004
20
-18.501065263197287
10
-22.75841471831474
20
-17.137976024061874
10
-22.83330062357365
20
-15.801951804015738
10
-22.887760585703568
20
-14.494538259430053
10
-22.922404481674853
20
-13.21488113392689
10
-22.938865449827148
20
-11.960692886077663
10
-22.938599581477195
20
-10.729933964713396
0
LWPOLYLINE
5
104
100
AcDbEntity
8
0
100
AcDbPolyline
90
55
43
0.0
10
-22.938599581477195
20
-10.729933964713398
10
-23.36060637261543
20
-10.794726784934939
10
-23.760421969451734
20
-10.85485640603467
10
-24.138027993639714
20
-10.910345807302718
10
-24.49340926010627
20
-10.961261546662536
10
-24.826567205334857
20
-11.00773826182993
10
-25.13753342344322
20
-11.0500031544245
10
-25.426383307359863
20
-11.08840024583609
10
-25.693249909342583
20
-11.12341508410823
10
-25.938338160357002
20
-11.15570041546202
10
-26.161939100460508
20
-11.186101167889115
10
-26.364444001115725
20
-11.215677942885854
10
-26.546359231777004
20
-11.24573331144663
10
-26.85110583006176
20
-11.313837519605796
10
-27.08288818315693
20
-11.40582728875485
10
-27.250353739500863
20
-11.539264821163794
10
-27.313118575055903
20
-11.627007382931987
10
-27.36375341944087
20
-11.731447715220202
10
-27.403708769611097
20
-11.85434273520079
10
-27.434443528171805
20
-11.997192055044412
10
-27.45738236849636
20
-12.161201726162144
10
-27.47387454059652
20
-12.347246776103955
10
-27.485154475263197
20
-12.555831428037193
10
-27.49230048626515
20
-12.787047972661295
10
-27.49619745965529
20
-13.040541778993592
10
-27.497530844758355
20
-13.315514128875265
10
-27.494370136909676
20
-13.924682050903026
10
-27.48511654435111
20
-14.600625692657996
10
-27.470305064356683
20
-15.324664106308067
10
-27.449449245235176
20
-16.074540275915144
10
-27.421769746301983
20
-16.825589762697852
10
-27.386937632372277
20
-17.55188619628622
10
-27.345446062773917
20
-18.227620310396823
10
-27.322398242976295
20
-18.539010950454564
10
-27.297781455123545
20
-18.82925719612912
10
-27.271398341613036
20
-19.09620447559173
10
-27.24285102704036
20
-19.338176283286458
10
-27.21148942534777
20
-19.554060097118146
10
-27.176366981067456
20
-19.743382409155494
10
-27.136188858197524
20
-19.906396733996885
10
-27.08924527033427
20
-20.044196232261882
10
-27.033394052530227
20
-20.15874434961765
10
-26.966136977302128
20
-20.25274940298691
10
-26.88473595987981
20
-20.329472256328692
10
-26.78635473409208
20
-20.392490946959807
10
-26.66821050045432
20
-20.44545024262469
10
-26.527726947815946
20
-20.4918107741524
10
-26.36264264423699
20
-20.53466733565465
10
-26.171055781532203
20
-20.57666537552418
10
-25.951420444016744
20
-20.619992798993103
10
-25.702500384881176
20
-20.66643798179595
10
-25.423327463618257
20
-20.71744084959814
10
-25.11317263222119
20
-20.77412479983396
10
-24.771514189691825
20
-20.837333162348024
10
-24.398001704682883
20
-20.907672674191357
0
LWPOLYLINE
5
105
100
AcDbEntity
8
0
100
AcDbPolyline
90
7
43
0.0
10
-24.398001704682873
20
-20.90767267419136
10
-24.351557667236754
20
-21.811813985280626
10
-24.319193958929787
20
-22.23647059063572
10
-24.279873390035508
20
-22.640264999384566
10
-24.233161199893416
20
-23.021893453561635
10
-24.179238226096135
20
-23.381898247981685
10
-24.052002890401535
20
-24.043763042709706
0
LINE
5
106
100
AcDbEntity
8
0
100
AcDbLine
10
-24.052002890401543
20
-24.043763042709713
30
0
11
-22.184499910378371
21
-23.216020520981719
31
0
0
LWPOLYLINE
5
107
100
AcDbEntity
8
0
100
AcDbPolyline
90
3
43
0.0
10
-22.18449991037837
20
-23.21602052098172
10
-22.33188773993801
20
-23.02691988972577
10
-22.46222318353037
20
-22.800503070238086
0
LINE
5
108
100
AcDbEntity
8
0
100
AcDbLine
10
-22.462223183530369
20
-22.800503070238086
30
0
11
-23.466631641515349
21
-23.269491041402421
31
0
0
ARC
5
109
100
AcDbEntity
8
0
100
AcDbCircle
10
-23.572401901844028
20
-23.042968080027634
30
0
40
0.25000000000000239
210
0
220
0
230
1
100
AcDbArc
50
183.1079315513918
51
295.02925989984089
0
LINE
5
110
100
AcDbEntity
8
0
100
AcDbLine
10
-23.822034195478356
20
-23.056522340423022
30
0
11
-23.933864116490756
21
-20.996921973296985
31
0
0
LWPOLYLINE
5
111
100
AcDbEntity
8
0
100
AcDbPolyline
90
3
43
0.0
10
-14.718504762521562
20
-21.423581933128713
10
-14.62786235848236
20
-21.699706617570964
10
-14.49278525878226
20
-22.02338487700666
0
LINE
5
112
100
AcDbEntity
8
0
100
AcDbLine
10
-14.492785258782259
20
-22.023384877006656
30
0
11
-12.959003168149756
21
-21.881991189937317
31
0
0
ARC
5
113
100
AcDbEntity
8
0
100
AcDbCircle
10
-12.981952432990148
20
-21.633046755889708
30
0
40
0.24999999999999967
210
-0
220
0
230
1
100
AcDbArc
50
-84.733000951670064
51
2.4682922401026057
0
LINE
5
114
100
AcDbEntity
8
0
100
AcDbLine
10
-12.732184381045993
20
-21.622280130233634
30
0
11
-12.933550320552175
21
-16.950920686245194
31
0
0
LWPOLYLINE
5
115
100
AcDbEntity
8
0
100
AcDbPolyline
90
9
43
0.0
10
-12.933550320551536
20
-16.950920686244693
10
-12.79059274965646
20
-16.840432510608785
10
-12.667255318906342
20
-16.74180493801572
10
-12.563336516969123
20
-16.654916152520038
10
-12.478474798151083
20
-16.579547595542312
10
-12.412240653695369
20
-16.515439624040535
10
-12.364215482117284
20
-16.462339188545705
10
-12.334045986034239
20
-16.420032716678524
10
-12.321491165139765
20
-16.38837452094909
0
LWPOLYLINE
5
116
100
AcDbEntity
8
0
100
AcDbPolyline
90
8
43
0.0
10
-12.321491165139745
20
-16.3883745209491
10
-12.262403171781363
20
-15.56324865513208
10
-12.24900794644956
20
-15.178020287565031
10
-12.247912241198703
20
-14.813610967359017
10
-12.25990194668069
20
-14.471350949245133
10
-12.284675652866339
20
-14.15073004505394
10
-12.321227049752551
20
-13.8500449025026
10
-12.368631504241796
20
-13.567730421479196
0
LWPOLYLINE
5
117
100
AcDbEntity
8
0
100
AcDbPolyline
90
21
43
0.0
10
-12.368631504241797
20
-13.567730421479197
10
-12.496290838851865
20
-12.734154496692156
10
-12.635927728317814
20
-11.95911794401337
10
-12.784134488639163
20
-11.2464889855042
10
-12.93614790275968
20
-10.601779460690475
10
-13.086589709100714
20
-10.031248038524717
10
-13.159549255470699
20
-9.775714347207446
10
-13.230186209870277
20
-9.5408919296767
10
-13.297977577398372
20
-9.32729799192622
10
-13.362498077542103
20
-9.135281052855827
10
-13.423444910421187
20
-8.964974214341158
10
-13.480666485945216
20
-8.816238293201652
10
-13.534188707812772
20
-8.688608853112395
10
-13.584232929314682
20
-8.581258981618852
10
-13.675718413431825
20
-8.422334764202912
10
-13.760052031298692
20
-8.327074042614008
10
-13.843123016596037
20
-8.281563865290929
10
-13.930287824036284
20
-8.273229696769048
10
-14.02515701178744
20
-8.293134191698387
10
-14.129470096736885
20
-8.336314043532461
10
-14.24378538856201
20
-8.400639718019056
0
LWPOLYLINE
5
118
100
AcDbEntity
8
0
100
AcDbPolyline
90
9
43
0.0
10
-14.243785388562014
20
-8.400639718019056
10
-14.753786051743706
20
-8.61887654323052
10
-15.237312696920918
20
-8.83208458127819
10
-15.6917885364084
20
-9.039774366724277
10
-16.113905874879592
20
-9.241317596914985
10
-16.501342412787164
20
-9.436273146890697
10
-16.85461108039533
20
-9.6247384486752
10
-17.176246595817997
20
-9.807194976517295
10
-17.46867203540081
20
-9.98410299811168
0
LWPOLYLINE
5
119
100
AcDbEntity
8
0
100
AcDbPolyline
90
5
43
0.0
10
-17.46867203540081
20
-9.98410299811168
10
-17.532111253279155
20
-10.079142078077291
10
-17.55478882180172
20
-10.179023320077363
10
-17.532012853553795
20
-10.284304083249769
10
-17.46867203540081
20
-10.394403630178534
0
LWPOLYLINE
5
120
100
AcDbEntity
8
0
100
AcDbPolyline
90
9
43
0.0
10
-17.46867203540081
20
-10.394403630178532
10
-17.272804974484437
20
-11.726847836568226
10
-17.094345246379703
20
-13.008709064295118
10
-16.935011055542013
20
-14.234994480705584
10
-16.797041249482117
20
-15.399198346088989
10
-16.682087195242687
20
-16.496522046825454
10
-16.589946690208468
20
-17.52755315198184
10
-16.519003904349123
20
-18.49698701016265
10
-16.46766475380334
20
-19.409455779020544
0
LWPOLYLINE
5
121
100
AcDbEntity
8
0
100
AcDbPolyline
90
9
43
0.0
10
-16.46766475380334
20
-19.409455779020547
10
-15.99994100269338
20
-19.094264213222914
10
-15.553791300045223
20
-18.79211441078741
10
-15.12987960363144
20
-18.50340774191402
10
-14.729319371690591
20
-18.228817305065323
10
-14.353640747976884
20
-17.969268089947114
10
-14.0047239751682
20
-17.72589672513871
10
-13.684685842200611
20
-17.499982834185246
10
-13.395710049517442
20
-17.292846489416664
0
LINE
5
122
100
AcDbEntity
8
0
100
AcDbLine
10
-13.395710049517442
20
-17.292846489416668
30
0
11
-13.104595733500839
21
-21.085076897720189
31
0
0
ARC
5
123
100
AcDbEntity
8
0
100
AcDbCircle
10
-13.353862346187316
20
-21.104212095649906
30
0
40
0.24999999999999517
210
0
220
0
230
1
100
AcDbArc
50
-87.103341821693988
51
4.3897576896219013
0
LINE
5
124
100
AcDbEntity
8
0
100
AcDbLine
10
-13.341228673963911
20
-21.353892672239574
30
0
11
-14.718504762521562
21
-21.423581933128713
31
0
0
LWPOLYLINE
5
125
100
AcDbEntity
8
0
100
AcDbPolyline
90
3
43
0.0
10
-7.16602003802103
20
-11.49668223107429
10
-7.450701799362374
20
-11.411387399483106
10
-7.735414591875488
20
-11.289472697901793
0
LWPOLYLINE
5
126
100
AcDbEntity
8
0
100
AcDbPolyline
90
22
43
0.0
10
-7.735414591875496
20
-11.289472697901799
10
-7.4391484212082535
20
-11.837401674824026
10
-7.154609052798402
20
-12.423844176823732
10
-6.872197736375996
20
-13.045850735404132
10
-6.578455877542317
20
-13.698525079101959
10
-6.258226217450603
20
-14.375023803006549
10
-5.896799175682454
20
-15.066544725267098
10
-5.4820646608229096
20
-15.762302509901602
10
-5.006705916482171
20
-16.449485098805273
10
-4.469996020832324
20
-17.113329087319705
10
-3.8778006517011008
20
-17.737737436074664
10
-3.240981507219541
20
-18.306388829036372
10
-2.910188123287357
20
-18.564925516233167
10
-2.5737307758353642
20
-18.803881661104988
10
-2.2336317922450823
20
-19.021664884899387
10
-1.8919132190859071
20
-19.216887816005638
10
-1.5505452488639455
20
-19.388405966855252
10
-1.211397286890416
20
-19.535352681347923
10
-0.8761893460077482
20
-19.65717384315275
10
-0.5464372798574211
20
-19.753670400671158
10
-0.2233918634567255
20
-19.825048734343564
10
0.09200617848045811
20
-19.8719521498396
0
LWPOLYLINE
5
127
100
AcDbEntity
8
0
100
AcDbPolyline
90
37
43
0.0
10
0.09200617848043964
20
-19.87195214983958
10
0.07158347075307911
20
-19.82436267453108
10
0.05298014467160118
20
-19.749786246341234
10
0.036202668822937885
20
-19.648902693550305
10
0.021258319126902143
20
-19.522817709757398
10
0.008155792196740544
20
-19.37319340096669
10
-0.0030942710644777487
20
-19.20237647420551
10
-0.020003125631074224
20
-18.810185552341164
10
-0.03205276287883383
20
-17.945515573017452
10
-0.028831874450459614
20
-17.54881328404779
10
-0.02211646406243709
20
-17.21940741650905
10
-0.01855361238203979
20
-17.08629157087509
10
-0.015665227318742564
20
-16.975481593727924
10
-0.01498147635078283
20
-16.815879431322248
10
-0.02821707857147063
20
-16.716316046942364
10
-0.06880240680914661
20
-16.636375202711825
10
-0.15965332695563447
20
-16.53532770432378
10
-0.23381917612154626
20
-16.468163519307552
10
-0.33035404250591593
20
-16.38809824634363
10
-0.44850780511030114
20
-16.29556367172569
10
-0.5854183761340237
20
-16.192054618694982
10
-0.8971143049516036
20
-15.961507854716265
10
-1.222072756731521
20
-15.718426171834007
10
-1.5174172035252822
20
-15.484111914880502
10
-1.7590402651597352
20
-15.2696313356316
10
-1.9527181418038708
20
-15.069970833091736
10
-2.273271155565434
20
-14.663382003495725
10
-2.423446245701949
20
-14.437148278543656
10
-2.5747968936958348
20
-14.186549999566619
10
-2.7297400853110787
20
-13.907046478839383
10
-2.889709803917002
20
-13.595347072839697
10
-3.055682616528435
20
-13.249178209116565
10
-3.2283424409596377
20
-12.867063218234488
10
-3.4081096506210504
20
-12.448162735733431
10
-3.5952169600790116
20
-11.992096972509948
10
-3.7897604323572502
20
-11.498785650950403
10
-3.991759270402112
20
-10.968287973337901
0
LWPOLYLINE
5
128
100
AcDbEntity
8
0
100
AcDbPolyline
90
5
43
0.0
10
-3.991759270402113
20
-10.9682879733379
10
-4.204140604430145
20
-11.167388072752638
10
-4.413450142747015
20
-11.313207176034151
10
-4.618457167648214
20
-11.405114610483828
10
-4.818743362160974
20
-11.443444890934552
0
LWPOLYLINE
5
129
100
AcDbEntity
8
0
100
AcDbPolyline
90
17
43
0.0
10
-4.520244119406218
20
-37.269117286983885
10
-4.60398785911673
20
-37.696114719235666
10
-4.657689168655158
20
-38.131541716549364
10
-4.673341922042386
20
-38.56780800751481
10
-4.642570691319821
20
-38.99601972527212
10
-4.558392943970535
20
-39.40703746813291
10
-4.4170055019938745
20
-39.792539969075804
10
-4.219516137752507
20
-40.14605814761053
10
-3.97251988044163
20
-40.463506404748344
10
-3.686683378770155
20
-40.74285056919416
10
-3.3748265736275465
20
-40.98356263762253
10
-3.0500264603736684
20
-41.18608977765775
10
-2.72370289929476
20
-41.35133250494272
10
-2.4041134702097318
20
-41.48020403193707
10
-2.09622488295537
20
-41.57343558074919
10
-1.8025549432691685
20
-41.631557114919154
10
-1.5240161370817207
20
-41.654886928067725
0
LINE
5
130
100
AcDbEntity
8
0
100
AcDbLine
10
-1.5240161370817207
20
-41.654886928067739
30
0
11
-0.63729440883841248
21
-41.654886928067739
31
0
0
LWPOLYLINE
5
131
100
AcDbEntity
8
0
100
AcDbPolyline
90
33
43
0.0
10
-0.6372944088384125
20
-41.65488692806773
10
-1.1101591065976797
20
-41.49545749983376
10
-1.5382139657530731
20
-41.32864468653884
10
-1.921622407523005
20
-41.15365414854894
10
-2.2609162860697385
20
-40.968433829786
10
-2.557216292105001
20
-40.769056830194195
10
-2.8124601042157673
20
-40.54908479386404
10
-3.0294669359674975
20
-40.29937677152788
10
-3.211409594338597
20
-40.00950914670863
10
-3.360882881009678
20
-39.670291870225434
10
-3.4789609148599596
20
-39.276318873159326
10
-3.564287573878729
20
-38.82845247276593
10
-3.612876330582953
20
-38.3347592705049
10
-3.619047814465967
20
-37.808963905306804
10
-3.576664710955425
20
-37.26825861840206
10
-3.480366945326926
20
-36.731117749668826
10
-3.3268078351054036
20
-36.21511527150616
10
-3.1158821739935347
20
-35.7347598785509
10
-2.851436115451698
20
-35.300128322029266
10
-2.5408621909130327
20
-34.91721379956939
10
-2.194255301335181
20
-34.58894558862532
10
-1.8235875796175878
20
-34.3161934156411
10
-1.441866193926798
20
-34.09877475944158
10
-1.0622840287047255
20
-33.93642393326688
10
-0.6969759973649869
20
-33.82901206093259
10
-0.35513142520889396
20
-33.77557885394906
10
-0.04095542134749894
20
-33.77303869902941
10
0.2484229824399968
20
-33.8148643018832
10
0.5243701310610879
20
-33.8901700721046
10
0.8048293280564426
20
-33.98480479676086
10
1.1096593129077799
20
-34.08409442823689
10
1.4557080236375215
20
-34.17574255751875
10
1.8523606588342592
20
-34.25242095160302
0
LWPOLYLINE
5
132
100
AcDbEntity
8
0
100
AcDbPolyline
90
2
43
0.0
10
1.8523606588342671
20
-34.25242095160298
10
1.8817786933109217
20
-34.25709950619771
0
LWPOLYLINE
5
133
100
AcDbEntity
8
0
100
AcDbPolyline
90
11
43
0.0
10
1.8817786933109217
20
-34.25709950619771
10
1.5898792450466444
20
-33.75278421129358
10
1.3003750967959322
20
-33.309606766913355
10
1.0135095375964704
20
-32.93377690408642
10
0.7296090561754746
20
-32.63362795011412
10
0.5888614220519098
20
-32.514248910580264
10
0.4489369393319451
20
-32.41588006065969
10
0.3098269222760078
20
-32.33829970476208
10
0.1715070157081433
20
-32.28088619920951
10
-0.10288600094277979
20
-32.223406621335485
10
-0.3744611209785737
20
-32.2378512871838
0
LWPOLYLINE
5
134
100
AcDbEntity
8
0
100
AcDbPolyline
90
9
43
0.0
10
-0.3744611209786101
20
-32.23785128718291
10
-0.4115070134199507
20
-31.6110739337069
10
-0.4733750412961944
20
-30.967681263085858
10
-0.5618915731268774
20
-30.306450749867917
10
-0.6779012583066909
20
-29.626817006850306
10
-0.8204968605943234
20
-28.929387315295763
10
-0.9876541684286189
20
-28.215516631833435
10
-1.177270324961505
20
-27.486612556282946
10
-1.3878409693511702
20
-26.74368207019496
0
LWPOLYLINE
5
135
100
AcDbEntity
8
0
100
AcDbPolyline
90
31
43
0.0
10
-1.3878409693511706
20
-26.74368207019496
10
-1.6223100843383016
20
-26.60209685476013
10
-1.8914137033073832
20
-26.468000852494562
10
-2.1951400084074533
20
-26.341438331865763
10
-2.5332234790979467
20
-26.222473834803164
10
-2.904932046068568
20
-26.111183813745466
10
-3.308836218199199
20
-26.007646048396968
10
-3.7425808339454902
20
-25.911929318176554
10
-4.202667246075248
20
-25.8240842921715
10
-5.1805081289042105
20
-25.672027507815784
10
-6.18371369320694
20
-25.551236556872052
10
-6.671179668304721
20
-25.502655922381308
10
-7.135879976627755
20
-25.462331930496504
10
-7.5683613526676385
20
-25.430906315483018
10
-7.960340920329911
20
-25.40941513442223
10
-8.305279184452115
20
-25.399369767056957
10
-8.59897409721052
20
-25.402841860698036
10
-8.840288904722641
20
-25.422576968926233
10
-9.031556600948845
20
-25.462028051185545
10
-9.178348391872463
20
-25.525235338160435
10
-9.288535012145562
20
-25.6165377373193
10
-9.371060156048554
20
-25.740208883304668
10
-9.434830558834681
20
-25.900110769720566
10
-9.487716002201138
20
-26.09938577090294
10
-9.535894446590776
20
-26.34028274112783
10
-9.58393289645471
20
-26.62426021983462
10
-9.635078315031109
20
-26.95216539169673
10
-9.691471854831484
20
-27.324378949566505
10
-9.754381435584383
20
-27.74096127980475
10
-9.824442568568594
20
-28.201796749671097
10
-9.901880174205942
20
-28.706726142754423
0
LINE
5
136
100
AcDbEntity
8
0
100
AcDbLine
10
-9.9018801742059424
20
-28.706726142754423
30
0
11
-9.9018801742059424
21
-29.257959545360229
31
0
0
LWPOLYLINE
5
137
100
AcDbEntity
8
0
100
AcDbPolyline
90
17
43
0.0
10
-9.90188017420594
20
-29.25795954536023
10
-9.168640511408508
20
-29.516042796044307
10
-8.455623413628425
20
-29.76961773220229
10
-7.763266836199521
20
-30.018586718327455
10
-7.0922976415850085
20
-30.26278771144547
10
-6.443711051022587
20
-30.501998842058747
10
-5.818731192250137
20
-30.7359472094333
10
-5.218748328610537
20
-30.964322875418844
10
-4.645238640803713
20
-31.18679674789196
10
-4.099663235341174
20
-31.403043095291103
10
-3.583325946529963
20
-31.612771247510086
10
-3.0971978771130715
20
-31.815764711904254
10
-2.6417484244739553
20
-32.01191884343827
10
-2.2168473626283247
20
-32.20126267402274
10
-1.8218957612522535
20
-32.38392972610018
10
-1.4560571613361764
20
-32.56010647553508
10
-1.1184283190116644
20
-32.72999428686445
0
LWPOLYLINE
5
138
100
AcDbEntity
8
0
100
AcDbPolyline
90
9
43
0.0
10
-1.1184283190116622
20
-32.72999428686443
10
-1.7838033223007583
20
-33.23677424573789
10
-2.370998570485232
20
-33.73743762990101
10
-2.87998645886244
20
-34.23286016722617
10
-3.312066269579213
20
-34.72543878854501
10
-3.671095195051536
20
-35.21991694496302
10
-3.964648836490935
20
-35.7241140321346
10
-4.203174104545722
20
-36.248021831950275
10
-4.395826517541724
20
-36.800228588606444
0
LWPOLYLINE
5
139
100
AcDbEntity
8
0
100
AcDbPolyline
90
2
43
0.0
10
-4.395826517541726
20
-36.800228588606444
10
-5.213033423321218
20
-36.69955837692052
0
LWPOLYLINE
5
140
100
AcDbEntity
8
0
100
AcDbPolyline
90
5
43
0.0
10
-5.213033423321219
20
-36.699558376920514
10
-7.402466916673873
20
-35.621348300942614
10
-9.568053881187334
20
-34.60134221612808
10
-11.706747607069392
20
-33.64697645285167
10
-13.821165775227655
20
-32.75186184313653
0
LWPOLYLINE
5
141
100
AcDbEntity
8
0
100
AcDbPolyline
90
2
43
0.0
10
-13.821165775227648
20
-32.75186184313654
10
-13.907233991323412
20
-32.9308253840299
0
LWPOLYLINE
5
142
100
AcDbEntity
8
0
100
AcDbPolyline
90
3
43
0.0
10
-13.907233991323412
20
-32.9308253840299
10
-14.019211363394305
20
-33.19546890749719
10
-14.099999684837838
20
-33.434877871286
0
LWPOLYLINE
5
143
100
AcDbEntity
8
0
100
AcDbPolyline
90
2
43
0.0
10
-14.09999968483784
20
-33.434877871286
10
-14.140247078653385
20
-33.60108241306248
0
LWPOLYLINE
5
144
100
AcDbEntity
8
0
100
AcDbPolyline
90
28
43
0.0
10
-14.140247078653385
20
-33.60108241306248
10
-14.118430279052543
20
-33.70166744990467
10
-14.071405151405415
20
-33.82035701837298
10
-13.995828126450668
20
-33.95670512342233
10
-13.887246804041819
20
-34.109936653147216
10
-13.740936346418119
20
-34.27888909267654
10
-13.552794903719878
20
-34.461953218573
10
-13.32022992754645
20
-34.65701013146149
10
-13.043070343177664
20
-34.861366118339554
10
-12.724262394375625
20
-35.071720604240156
10
-12.369670269120203
20
-35.28428341800076
10
-11.586620484936448
20
-35.699696044160966
10
-10.769979156907187
20
-36.07560541290084
10
-10.372719963852184
20
-36.24018868021125
10
-9.992932491764607
20
-36.38598653324859
10
-9.635204979750593
20
-36.511854470978164
10
-9.300991835606206
20
-36.61786317727958
10
-8.988647601213856
20
-36.7052494897021
10
-8.69410478421226
20
-36.776148428259155
10
-8.134371802529481
20
-36.87982602232198
10
-7.567778694868106
20
-36.95341473104023
10
-6.945885272807533
20
-37.018531425402436
10
-6.604088734255021
20
-37.05251813784237
10
-6.238545920942406
20
-37.08896605322534
10
-5.847921852252107
20
-37.12854708617021
10
-5.431490228190428
20
-37.17165759329134
10
-4.98894982524501
20
-37.21849228048556
10
-4.520244119406217
20
-37.26911728698388
0
LWPOLYLINE
5
145
100
AcDbEntity
8
0
100
AcDbPolyline
90
17
43
0.0
10
-11.900435342679494
20
-37.57183102085913
10
-11.873457502261925
20
-37.94296204635305
10
-11.844320748005394
20
-38.292526722467265
10
-11.812436902019742
20
-38.620240557947085
10
-11.776324944582145
20
-38.92597332995574
10
-11.733171651306241
20
-39.21009021295679
10
-11.678373010771162
20
-39.47384547028547
10
-11.605261417501241
20
-39.719691134912026
10
-11.505635966594243
20
-39.95107246339145
10
-11.370861298243655
20
-40.171888348980346
10
-11.193018290878458
20
-40.38597080176595
10
-10.96616035170591
20
-40.59657424738367
10
-10.687013600916332
20
-40.80606271902202
10
-10.354517831170444
20
-41.01596265765477
10
-9.968956447162581
20
-41.227161758683586
10
-9.53123511134384
20
-41.44008873420026
10
-9.042256409424795
20
-41.65488692806774
0
LINE
5
146
100
AcDbEntity
8
0
100
AcDbLine
10
-9.0422564094247946
20
-41.654886928067754
30
0
11
-4.6439121715976572
21
-41.654886928067739
31
0
0
LWPOLYLINE
5
147
100
AcDbEntity
8
0
100
AcDbPolyline
90
17
43
0.0
10
-4.643912171597657
20
-41.65488692806773
10
-5.282082739602085
20
-41.32424438328028
10
-5.896535476053894
20
-41.00338719670586
10
-6.487171133623176
20
-40.69235468093218
10
-7.053834108376217
20
-40.39120677177518
10
-7.596321860398773
20
-40.10001881752158
10
-8.114395513425842
20
-39.818875878890154
10
-8.607791048300406
20
-39.5478667740495
10
-9.07623223940026
20
-39.28707735887747
10
-9.5194448758898
20
-39.036583244105145
10
-9.937171653053655
20
-38.796442235184635
10
-10.329188432933213
20
-38.56668621285061
10
-10.695321255580374
20
-38.347312695917175
10
-11.035465626688021
20
-38.13827536162366
10
-11.349608778217384
20
-37.9394732036709
10
-11.637852445477392
20
-37.75073948900508
10
-11.900435342679485
20
-37.57183102085913
0
LINE
5
148
100
AcDbEntity
8
0
100
AcDbLine
10
-7.8415025624850232
20
-5.1052980622823219
30
0
11
-8.2291094252832639
21
-4.6491410492960199
31
0
0
LINE
5
149
100
AcDbEntity
8
0
100
AcDbLine
10
-8.2291094252832639
20
-4.6491410492960199
30
0
11
-8.2291094252832639
21
-5.0792319472545326
31
0
0
LINE
5
150
100
AcDbEntity
8
0
100
AcDbLine
10
-8.2291094252832639
20
-5.0792319472545326
30
0
11
-8.42460528799168
21
-5.1313641773101111
31
0
0
LWPOLYLINE
5
151
100
AcDbEntity
8
0
100
AcDbPolyline
90
17
43
0.0
10
-8.42460528799168
20
-5.131364177310111
10
-8.476931986009806
20
-5.6189575544770465
10
-8.522452540534138
20
-6.084190383716428
10
-8.560963285383242
20
-6.526393550805478
10
-8.59212455428317
20
-6.94445113392896
10
-8.615472176815931
20
-7.336838171867164
10
-8.630440010467876
20
-7.701694689609509
10
-8.636396029365129
20
-8.036944262398757
10
-8.63269476880303
20
-8.340466314245754
10
-8.618742678353586
20
-8.610310825611144
10
-8.594084302548964
20
-8.844981466916567
10
-8.558513054554103
20
-9.043799528576022
10
-8.512098081115528
20
-9.206992181693993
10
-8.455094496316221
20
-9.335397564737653
10
-8.387834199482143
20
-9.430106082396378
10
-8.310630579014475
20
-9.492147324535347
10
-8.22370887713451
20
-9.522261290169817
0
LINE
5
152
100
AcDbEntity
8
0
100
AcDbLine
10
-4.6999998949468136
20
-10.999999754130842
30
0
11
-5.0093576746834643
21
-10.660444675434837
31
0
0
LINE
5
153
100
AcDbEntity
8
0
100
AcDbLine
10
-5.0093576746834643
20
-10.660444675434837
30
0
11
-7.8415025624850232
21
-5.1052980622823219
31
0
0
LINE
5
154
100
AcDbEntity
8
0
100
AcDbLine
10
-10.949306277355985
20
-12.396854170845501
30
0
11
-12.249837038807005
21
-9.6038143051704772
31
0
0
LWPOLYLINE
5
155
100
AcDbEntity
8
0
100
AcDbPolyline
90
16
43
0.0
10
-12.249837038807005
20
-9.603814305170477
10
-12.367409219654517
20
-9.31464170314881
10
-12.464892813182935
20
-9.057134199013154
10
-12.541865573780747
20
-8.831511197708496
10
-12.597793009714456
20
-8.637446784166674
10
-12.632215130710831
20
-8.473393097139539
10
-12.644969005904482
20
-8.335842505936384
10
-12.63644947556989
20
-8.21853065455362
10
-12.607672472827879
20
-8.112508735361494
10
-12.495277412183192
20
-7.8927488350120765
10
-12.41488250966981
20
-7.759832559457823
10
-12.320330649448092
20
-7.602506654788771
10
-12.212816136484479
20
-7.417334845748321
10
-12.093258875571925
20
-7.202773851767109
10
-11.962295579724588
20
-6.958469033965613
10
-11.82028930115599
20
-6.684605903227472
0
LINE
5
156
100
AcDbEntity
8
0
100
AcDbLine
10
-11.820289301155992
20
-6.6846059032274718
30
0
11
-11.194896321230342
21
-5.8311640590843989
31
0
0
LINE
5
157
100
AcDbEntity
8
0
100
AcDbLine
10
-11.194896321230342
20
-5.8311640590843989
30
0
11
-11.599999740719795
21
-5.4999998770654202
31
0
0
LWPOLYLINE
5
158
100
AcDbEntity
8
0
100
AcDbPolyline
90
17
43
0.0
10
-11.599999740719795
20
-5.49999987706542
10
-11.871781457333292
20
-5.8882328934612636
10
-12.124289307041689
20
-6.253260933386088
10
-12.356566310338954
20
-6.595188980162172
10
-12.566653049648288
20
-6.914954706318605
10
-12.751297787854416
20
-7.215044417991696
10
-12.905683864207926
20
-7.500280884275657
10
-13.023362787878716
20
-7.778433951803043
10
-13.09702254857877
20
-8.059780961190318
10
-13.119887910451133
20
-8.355930867541659
10
-13.087234207199044
20
-8.678617162108717
10
-12.997991931882781
20
-9.038482652486369
10
-12.855235137965908
20
-9.44438046080336
10
-12.664917406744477
20
-9.90345001369326
10
-12.434217657579994
20
-10.421321255429401
10
-12.170019916608975
20
-11.002179761772839
10
-11.87745208879447
20
-11.648698071722036
0
LINE
5
159
100
AcDbEntity
8
0
100
AcDbLine
10
-11.87745208879447
20
-11.648698071722038
30
0
11
-11.179266468601172
21
-13.20099375065703
31
0
0
ARC
5
160
100
AcDbEntity
8
0
100
AcDbCircle
10
-10.951266999448698
20
-13.098445020454301
30
0
40
0.25000000000000372
210
0
220
0
230
1
100
AcDbArc
50
204.21708000885238
51
314.90687882225109
0
LINE
5
161
100
AcDbEntity
8
0
100
AcDbLine
10
-10.774777847567648
20
-13.275508792209877
30
0
11
-8.3661790210134299
21
-10.874726520910052
31
0
0
LWPOLYLINE
5
162
100
AcDbEntity
8
0
100
AcDbPolyline
90
2
43
0.0
10
-8.36617902101343
20
-10.874726520910052
10
-8.497243728367554
20
-10.766341471556146
0
LWPOLYLINE
5
163
100
AcDbEntity
8
0
100
AcDbPolyline
90
2
43
0.0
10
-8.497243728367554
20
-10.766341471556146
10
-8.685868054676131
20
-10.445084083440472
0
LINE
5
164
100
AcDbEntity
8
0
100
AcDbLine
10
-8.6858680546761313
20
-10.445084083440472
30
0
11
-10.538622292887702
21
-12.460517923449569
31
0
0
ARC
5
165
100
AcDbEntity
8
0
100
AcDbCircle
10
-10.722670776824256
20
-12.291325265332684
30
0
40
0.25000000000000278
210
0
220
0
230
1
100
AcDbArc
50
204.96822777898683
51
317.40819862071896
0
LWPOLYLINE
5
166
100
AcDbEntity
8
0
100
AcDbPolyline
90
17
43
0.0
10
-8.536113398670496
20
-0.20310578463496975
10
-8.33639780797899
20
-0.3996258426447863
10
-8.168703186920354
20
-0.6349279331001457
10
-8.034657194608192
20
-0.907621489409115
10
-7.936280198598175
20
-1.2144917897611245
10
-7.875894704096694
20
-1.5499635025195257
10
-7.856009572593707
20
-1.9063585608515003
10
-7.879173558111986
20
-2.274741408769167
10
-7.947774999942638
20
-2.6458070783884824
10
-8.06380237993512
20
-3.010698621386965
10
-8.22852026915102
20
-3.361887834229179
10
-8.442205620290123
20
-3.693864619651808
10
-8.704253857483286
20
-4.003162848811581
10
-9.01355261971935
20
-4.287890229791539
10
-9.36882779371239
20
-4.547247598918855
10
-9.768917696457116
20
-4.781114920808934
10
-10.213003823195859
20
-4.989661190959452
0
LWPOLYLINE
5
167
100
AcDbEntity
8
0
100
AcDbPolyline
90
6
43
0.0
10
-10.213003823195859
20
-4.989661190959452
10
-10.42541280932718
20
-5.0891388130829105
10
-10.55518260015873
20
-5.124483359171927
10
-10.702476369540728
20
-5.149123827040742
10
-11.049876461299952
20
-5.166145553116244
10
-11.458572236402427
20
-5.145726364336452
0
LWPOLYLINE
5
168
100
AcDbEntity
8
0
100
AcDbPolyline
90
5
43
0.0
10
-11.458572236402421
20
-5.145726364336449
10
-11.169113406361287
20
-5.173597828067741
10
-10.921862612781013
20
-5.203554890821203
10
-10.71925951520907
20
-5.235213898546946
10
-10.562042370738729
20
-5.268421089866162
0
LWPOLYLINE
5
169
100
AcDbEntity
8
0
100
AcDbPolyline
90
17
43
0.0
10
-10.56204237073873
20
-5.268421089866162
10
-9.973961025815864
20
-5.112415791913853
10
-9.445639676585166
20
-4.908361783389676
10
-8.97786843913805
20
-4.65639042083041
10
-8.571795396608247
20
-4.357579457273408
10
-8.228747717573674
20
-4.014735775098101
10
-7.950019862521598
20
-3.6332056785872178
10
-7.736622571318466
20
-3.22176870578903
10
-7.589030691874828
20
-2.793072427043656
10
-7.507015603810414
20
-2.3624947122149793
10
-7.489513110335437
20
-1.9459486328747393
10
-7.5344512839353595
20
-1.5577029654330699
10
-7.638522089449867
20
-1.208104114785502
10
-7.796973583915204
20
-0.9015565817092543
10
-8.003788577190853
20
-0.6362737303276417
10
-8.252344680196316
20
-0.4061880078529177
10
-8.536113398670496
20
-0.20310578463497223
0
LWPOLYLINE
5
170
100
AcDbEntity
8
0
100
AcDbPolyline
90
2
43
0.0
10
0.2676776839214005
20
-4.0038429061970975
10
0.26494564227835754
20
-4.0338439424309085
0
LWPOLYLINE
5
171
100
AcDbEntity
8
0
100
AcDbPolyline
90
2
43
0.0
10
0.2649456422783573
20
-4.0338439424309085
10
0.26767768392139907
20
-4.003842906197099
0
LWPOLYLINE
5
172
100
AcDbEntity
8
0
100
AcDbPolyline
90
9
43
0.0
10
2.3106068337334467
20
-4.289880896502723
10
2.251065493532647
20
-4.1191491862708975
10
2.195990025569492
20
-3.990613309038682
10
2.1645161407925944
20
-3.8995439419107356
10
2.1624305184012056
20
-3.820738102347939
10
2.1837097639012324
20
-3.723773339903127
10
2.214507409987557
20
-3.5922738044867732
10
2.237096041744604
20
-3.430458578575958
10
2.2336880116827245
20
-3.2553164401596337
0
LWPOLYLINE
5
173
100
AcDbEntity
8
0
100
AcDbPolyline
90
12
43
0.0
10
2.2336880116827253
20
-3.2553164401596333
10
2.358054317543604
20
-3.1572351252255273
10
2.459884769565517
20
-2.998655135365539
10
2.5327236203026104
20
-2.7853959698010478
10
2.561622416552812
20
-2.5346846918787374
10
2.527017980917473
20
-2.2772302128015367
10
2.4812605377071963
20
-2.158731257138818
10
2.415959394321697
20
-2.05501914213039
10
2.3323089347708956
20
-1.9723526837449334
10
2.232696557145662
20
-1.9164289651859425
10
2.120517219106553
20
-1.8915863480975341
10
1.9999999552965797
20
-1.8999999575316768
0
LWPOLYLINE
5
174
100
AcDbEntity
8
0
100
AcDbPolyline
90
10
43
0.0
10
1.9999999552965164
20
-1.8999999575316906
10
1.889533068216738
20
-1.8481779453563796
10
1.7420942549891894
20
-1.8393152821494796
10
1.5806955738929533
20
-1.8720997876497465
10
1.4558185966781145
20
-1.9386602157121025
10
1.4220424434977668
20
-1.9797891953594038
10
1.4096329879706473
20
-2.0223973360738934
10
1.4359511994546643
20
-2.0989096902896067
10
1.500800184146019
20
-2.146058147826736
10
1.5834404013235086
20
-2.1544676972438515
0
LWPOLYLINE
5
175
100
AcDbEntity
8
0
100
AcDbPolyline
90
8
43
0.0
10
1.5834404013233538
20
-2.1544676972440113
10
1.4363830122343406
20
-2.338000969870714
10
1.387198774716506
20
-2.425407707602558
10
1.356911613422584
20
-2.5043183256321697
10
1.3466831410410078
20
-2.5721059311190975
10
1.3571298905413447
20
-2.6272354137006872
10
1.3884965433628587
20
-2.6689568851833916
10
1.4408169011811611
20
-2.697023036487659
0
LWPOLYLINE
5
176
100
AcDbEntity
8
0
100
AcDbPolyline
90
9
43
0.0
10
1.440816901181146
20
-2.697023036487659
10
1.2712532527626432
20
-2.7216189149488694
10
1.13613802221198
20
-2.7758600930135815
10
1.0375318638414206
20
-2.8502967221360453
10
0.9631288058598055
20
-2.9317543496672247
10
0.8931737124414153
20
-3.006281036757835
10
0.8095659064570077
20
-3.0626966786612657
10
0.7017363427934454
20
-3.094698263471367
10
0.5656396997232893
20
-3.0998912002246186
0
LWPOLYLINE
5
177
100
AcDbEntity
8
0
100
AcDbPolyline
90
7
43
0.0
10
0.5656396997232636
20
-3.099891200224608
10
-0.06353293118313943
20
-2.8676175419311076
10
-0.3651735148023294
20
-2.7780533422983535
10
-0.6570656661152672
20
-2.7084989407458173
10
-0.93882458273222
20
-2.659744189207366
10
-1.2108525587760604
20
-2.630963331917806
10
-1.7287371877183144
20
-2.6271213206794295
0
LWPOLYLINE
5
178
100
AcDbEntity
8
0
100
AcDbPolyline
90
3
43
0.0
10
-1.7287371877183144
20
-2.6271213206794295
10
-1.8333677301746627
20
-2.651414982551513
10
-1.9501014176929434
20
-2.7374761703679362
0
LWPOLYLINE
5
179
100
AcDbEntity
8
0
100
AcDbPolyline
90
2
43
0.0
10
-1.9501014176929412
20
-2.737476170367932
10
-1.975330390817347
20
-2.719722159170335
0
LWPOLYLINE
5
180
100
AcDbEntity
8
0
100
AcDbPolyline
90
16
43
0.0
10
-1.975330390817347
20
-2.719722159170335
10
-2.0170946182529117
20
-2.687389166739832
10
-2.0773166398944207
20
-2.6775590759066845
10
-2.1556612068770207
20
-2.6911089797370122
10
-2.2508828951590676
20
-2.729883386213162
10
-2.360238674325283
20
-2.7969757705932383
10
-2.479345977003189
20
-2.896471727723952
10
-2.60283178350479
20
-3.0322703691558295
10
-2.725180119974238
20
-3.206623925353781
10
-2.8415696059942674
20
-3.418635291395086
10
-2.9487166286101485
20
-3.6626882699634447
10
-3.131806792712038
20
-4.199135393046143
10
-3.209711351703775
20
-4.459503679358911
10
-3.281244150065575
20
-4.691688364297069
10
-3.348753527147589
20
-4.880135013660049
10
-3.4142482913776226
20
-5.012932278244202
0
LWPOLYLINE
5
181
100
AcDbEntity
8
0
100
AcDbPolyline
90
5
43
0.0
10
-3.414248291377622
20
-5.012932278244203
10
-3.461996772973709
20
-5.070893988921925
10
-3.5096762248157507
20
-5.093475302589064
10
-3.557438357380706
20
-5.080188635534653
10
-3.605340628788818
20
-5.030993805071102
0
ARC
5
182
100
AcDbEntity
8
0
100
AcDbCircle
10
-3.3802888043292683
20
-6.3921428001670417
30
0
40
1.3796285407830831
210
0
220
0
230
1
100
AcDbArc
50
99.388325771694454
51
113.00203671567866
0
LWPOLYLINE
5
183
100
AcDbEntity
8
0
100
AcDbPolyline
90
30
43
0.0
10
-3.9193977642080102
20
-5.122207195531232
10
-4.013814328531579
20
-5.054417534550211
10
-4.110715167548307
20
-5.012163853642115
10
-4.20991960779484
20
-4.9950393724846505
10
-4.310940744737031
20
-5.00181383728343
10
-4.514139792778226
20
-5.075791343888932
10
-4.7081665279209775
20
-5.206725140129794
10
-4.8811049585839035
20
-5.389598921181264
10
-4.957288092261474
20
-5.511161031524452
10
-5.025330043520773
20
-5.660349292619192
10
-5.08357849402507
20
-5.840147804234511
10
-5.129436057182737
20
-6.04902823350125
10
-5.159510144807286
20
-6.280834311511586
10
-5.1701600724257455
20
-6.526209771703308
10
-5.158080599829711
20
-6.774149467575368
10
-5.120895055348207
20
-7.0135610802257515
10
-5.057749997772909
20
-7.23481096239869
10
-4.969817441769733
20
-7.431084748428247
10
-4.8602183720936445
20
-7.598638762804357
10
-4.73349314971471
20
-7.7361848780172755
10
-4.595028818491988
20
-7.844190742961201
10
-4.450493093757259
20
-7.924193275191921
10
-4.305289509540799
20
-7.978142384982663
10
-4.164194321534223
20
-8.007964807256164
10
-4.031238500194837
20
-8.015423696097985
10
-3.90963412492471
20
-8.002036586595992
10
-3.8016972190096707
20
-7.968996664524457
10
-3.7088354701385837
20
-7.917125058636151
10
-3.6317271411031973
20
-7.846909183377659
10
-3.5705911633443153
20
-7.7585834035950025
0
ARC
5
184
100
AcDbEntity
8
0
100
AcDbCircle
10
-3.3802888043292683
20
-6.3921428001670417
30
0
40
1.3796285407830842
210
0
220
0
230
1
100
AcDbArc
50
-97.928509379951805
51
51.299191688775174
0
LWPOLYLINE
5
185
100
AcDbEntity
8
0
100
AcDbPolyline
90
2
43
0.0
10
-2.517671001009759
20
-5.315450905547472
10
-2.5307339269795524
20
-5.305114088074041
0
LWPOLYLINE
5
186
100
AcDbEntity
8
0
100
AcDbPolyline
90
15
43
0.0
10
-2.5307339269795524
20
-5.305114088074042
10
-2.5559671699614643
20
-5.257722235593231
10
-2.5666024046796587
20
-5.18164347720235
10
-2.5624987281458416
20
-5.076990724791207
10
-2.5437278551149145
20
-4.944795790800552
10
-2.5108208429626946
20
-4.78771889270577
10
-2.4650348246714158
20
-4.610795537880407
10
-2.3437679758274816
20
-4.229941767727423
10
-2.202081283389097
20
-3.880570315520906
10
-2.130879056510767
20
-3.74296724661612
10
-2.062623648836294
20
-3.640812383534584
10
-1.9988456037182925
20
-3.5788695130376307
10
-1.94037614965085
20
-3.5593078168441474
10
-1.8875646659826089
20
-3.5826528866832974
10
-1.8404844876216322
20
-3.6486606034074818
0
LINE
5
187
100
AcDbEntity
8
0
100
AcDbLine
10
-1.8404844876216322
20
-3.6486606034074818
30
0
11
-1.580819773180842
21
-3.65470973281783
31
0
0
LWPOLYLINE
5
188
100
AcDbEntity
8
0
100
AcDbPolyline
90
5
43
0.0
10
-1.580819773180842
20
-3.65470973281783
10
-1.2381286790487027
20
-3.7533787026767005
10
-0.9395802451833468
20
-3.8653932751671913
10
-0.6824674544332094
20
-3.9851583377542896
10
-0.4580959418931605
20
-4.097570122717413
0
LWPOLYLINE
5
189
100
AcDbEntity
8
0
100
AcDbPolyline
90
15
43
0.0
10
-0.4580959418931605
20
-4.097570122717413
10
-0.6514823617156729
20
-4.124288767462992
10
-0.8057129782900025
20
-4.1822870226504465
10
-0.9201351200552099
20
-4.270552343373794
10
-0.9941549448198683
20
-4.385535694388837
10
-1.0277398765465433
20
-4.519474584973732
10
-1.0219010630277099
20
-4.659596261941302
10
-0.9789303828891962
20
-4.790400356589852
10
-0.902569097626349
20
-4.897454685920086
10
-0.7982535815986969
20
-4.971251660299976
10
-0.6731057628475624
20
-5.009666620310469
10
-0.5350681086179082
20
-5.016487226847211
10
-0.39170327518700016
20
-4.998405345458347
10
-0.11074768123919333
20
-4.91218068337066
10
0.146422447308278
20
-4.780282963540843
0
LWPOLYLINE
5
190
100
AcDbEntity
8
0
100
AcDbPolyline
90
9
43
0.0
10
0.1464224473082779
20
-4.780282963540843
10
0.43296928912586574
20
-4.892918512002843
10
0.7148446516990877
20
-4.977574539544717
10
0.9433391094435859
20
-5.0388262178918515
10
1.1079902337283307
20
-5.08540978879384
10
1.2433979435535243
20
-5.127703947606899
10
1.3974894980568804
20
-5.167789490549356
10
1.594714572054999
20
-5.190623331773599
10
1.8262549096556149
20
-5.1694832779850985
0
LWPOLYLINE
5
191
100
AcDbEntity
8
0
100
AcDbPolyline
90
17
43
0.0
10
1.8262549096556184
20
-5.1694832779850985
10
1.9771621624465832
20
-5.3960460200208065
10
2.1438341746046663
20
-5.577326495043759
10
2.324876561404333
20
-5.713574339584966
10
2.516386001544387
20
-5.806190801164434
10
2.710630132375192
20
-5.858571379761067
10
2.8962773128599095
20
-5.875958700104251
10
3.0620189801870703
20
-5.86310685453909
10
3.201333469846702
20
-5.8212255629914305
10
3.315903803623009
20
-5.745891121295261
10
3.4120895196294407
20
-5.6298293884533
10
3.492292685060635
20
-5.469296446674457
10
3.547400074373395
20
-5.269958587640123
10
3.5588400010423564
20
-5.047383383617817
10
3.509144514065766
20
-4.822791342213789
10
3.393480540911034
20
-4.618319409774121
10
3.227181362514898
20
-4.4531528492805705
0
LWPOLYLINE
5
192
100
AcDbEntity
8
0
100
AcDbPolyline
90
12
43
0.0
10
3.227181362514898
20
-4.4531528492805705
10
3.1111672237416768
20
-4.233283177314735
10
2.975986728360809
20
-4.068162542783589
10
2.829133409099548
20
-3.9593324085989727
10
2.6894235571839142
20
-3.906187831943051
10
2.579609706633278
20
-3.9109844515147807
10
2.541113545334306
20
-3.9380992538524717
10
2.5150775430007277
20
-3.983819249885514
10
2.501989204035245
20
-4.049296714263117
10
2.5019330293002926
20
-4.134969128457679
10
2.5147653914351396
20
-4.240770247907248
10
2.5402933277089477
20
-4.3664582779244165
0
LWPOLYLINE
5
193
100
AcDbEntity
8
0
100
AcDbPolyline
90
3
43
0.0
10
2.5402933277089477
20
-4.366458277924418
10
2.440725963965581
20
-4.316210370098333
10
2.310606833733446
20
-4.289880896502723
0
CIRCLE
5
194
100
AcDbEntity
8
0
100
AcDbCircle
10
5.1999998837709427
20
-10.699999760836363
30
0
40
0.099999997764825821
210
0
220
-0
230
1
0
LWPOLYLINE
5
195
100
AcDbEntity
8
0
100
AcDbPolyline
90
5
43
0.0
10
4.992470634291928
20
-11.525498004975908
10
4.922120875377083
20
-11.172800428279581
10
4.9002016315840295
20
-10.771382432113446
10
4.9312762298706305
20
-10.316653373533976
10
5.008792174921668
20
-9.815204971019547
0
LWPOLYLINE
5
196
100
AcDbEntity
8
0
100
AcDbPolyline
90
2
43
0.0
10
5.008792174921668
20
-9.815204971019545
10
5.311890391219875
20
-10.437855862686018
0
ARC
5
197
100
AcDbEntity
8
0
100
AcDbCircle
10
5.1999998837709427
20
-10.699999760836363
30
0
40
0.28502440070042745
210
0
220
-0
230
1
100
AcDbArc
50
66.885825441019222
51
340.19057162580174
0
LWPOLYLINE
5
198
100
AcDbEntity
8
0
100
AcDbPolyline
90
6
43
0.0
10
5.468157969548232
20
-10.79659246256325
10
5.7049998159867386
20
-11.436326583321238
10
5.79539740272649
20
-11.743024207616935
10
5.8663695171821235
20
-12.040592921948377
10
5.952479256818863
20
-12.609491193179542
10
5.970956925732463
20
-13.146606088687758
0
LINE
5
199
100
AcDbEntity
8
0
100
AcDbLine
10
5.9709569257324642
20
-13.146606088687758
30
0
11
5.7563115699571981
21
-12.15919940936506
31
0
0
LWPOLYLINE
5
200
100
AcDbEntity
8
0
100
AcDbPolyline
90
7
43
0.0
10
5.756311569957197
20
-12.15919940936506
10
5.612441573443312
20
-12.087382088525676
10
5.447545087601327
20
-11.976892997817249
10
5.35338888008516
20
-11.900115247114018
10
5.248107895541536
20
-11.802876885495074
10
5.128724063286776
20
-11.679700666505159
10
4.992470634291983
20
-11.52549800497598
0
LINE
5
201
100
AcDbEntity
8
0
100
AcDbLine
10
4.8860807575206877
20
-14.360890402583721
30
0
11
2.7509724736124106
21
-9.5784941629589326
31
0
0
LWPOLYLINE
5
202
100
AcDbEntity
8
0
100
AcDbPolyline
90
5
43
0.0
10
2.7509724736124106
20
-9.578494162958933
10
2.6566589761747816
20
-9.34780583449715
10
2.598865770769326
20
-9.091981959015788
10
2.581511996879283
20
-8.808325139816526
10
2.5999999418854713
20
-8.499999810010195
0
LWPOLYLINE
5
203
100
AcDbEntity
8
0
100
AcDbPolyline
90
16
43
0.0
10
2.5999999418854713
20
-8.499999810010195
10
2.4887364769854403
20
-8.503179440832382
10
2.3685263028998884
20
-8.526802841346255
10
2.2397581442443775
20
-8.571300986156665
10
2.103710673105337
20
-8.637219712271062
10
1.9631141120546225
20
-8.725034329904933
10
1.8227340606509916
20
-8.83492615204965
10
1.6892880820638423
20
-8.966652631487776
10
1.5704426445169073
20
-9.119560006116433
10
1.473505417282141
20
-9.292602027575793
10
1.4041491782043118
20
-9.484310628919475
10
1.3649958050541657
20
-9.692715751650676
10
1.354811722509569
20
-9.915335751062994
10
1.3692580051756043
20
-10.149405167676102
10
1.4024507668111297
20
-10.392221571263697
10
1.5025872354175112
20
-10.895533706960117
0
LINE
5
204
100
AcDbEntity
8
0
100
AcDbLine
10
1.5025872354175114
20
-10.895533706960116
30
0
11
-0.5000000074505806
21
-9.0000001341104507
31
0
0
LINE
5
205
100
AcDbEntity
8
0
100
AcDbLine
10
-0.5000000074505806
20
-9.0000001341104507
30
0
11
-0.4999999888241291
21
-10.29999976977706
31
0
0
LWPOLYLINE
5
206
100
AcDbEntity
8
0
100
AcDbPolyline
90
5
43
0.0
10
-0.4999999888241291
20
-10.29999976977706
10
-0.0641354303507163
20
-10.877256976577886
10
0.3627206622981562
20
-11.42918152844704
10
0.7797890956014736
20
-11.95358225976649
10
1.1860256638190547
20
-12.447522765581246
0
LWPOLYLINE
5
207
100
AcDbEntity
8
0
100
AcDbPolyline
90
9
43
0.0
10
1.1860256638190552
20
-12.447522765581244
10
0.9101478489432583
20
-12.730558888146323
10
0.6803564350781556
20
-12.99202702936346
10
0.5013439441149087
20
-13.229731135247201
10
0.37942323729199845
20
-13.440716848971572
10
0.319721160677576
20
-13.622584857119435
10
0.3225775093615287
20
-13.775176138941658
10
0.38407460641679436
20
-13.900324128623224
10
0.5000000074505806
20
-14.000000208616257
0
LWPOLYLINE
5
208
100
AcDbEntity
8
0
100
AcDbPolyline
90
26
43
0.0
10
0.5000000074505793
20
-14.00000020861626
10
0.34938025657361843
20
-14.052661702869568
10
0.1657141689460386
20
-14.071300759754095
10
0.06217648259324967
20
-14.059246801541374
10
-0.04866371197137888
20
-14.028298652769285
10
-0.16634169413916397
20
-13.975274502590919
10
-0.29031560720503974
20
-13.897477456141134
10
-0.4199608564902841
20
-13.792916415131979
10
-0.5545668002257991
20
-13.66047974662852
10
-0.693336703663443
20
-13.500046205113202
10
-0.8353954916434215
20
-13.31246640219156
10
-0.9798045357275668
20
-13.099428188912844
10
-1.1255757187340358
20
-12.863331578021425
10
-1.417078970374764
20
-12.334525240424663
10
-1.701486799847345
20
-11.75563236987828
10
-1.970402027776525
20
-11.161038376458281
10
-2.215863915616522
20
-10.586713536774079
10
-2.430779423360877
20
-10.067020177170152
10
-2.524915256591921
20
-9.837166285135067
10
-2.609383068815124
20
-9.63148167106589
10
-2.6837480312168465
20
-9.452371226383596
10
-2.7477029709662215
20
-9.30161745073945
10
-2.8010490319930192
20
-9.180462870136715
10
-2.8436724081135742
20
-9.089713956021685
10
-2.875523621754236
20
-9.029833151677144
10
-2.8965975330500053
20
-9.001028066827844
0
LWPOLYLINE
5
209
100
AcDbEntity
8
0
100
AcDbPolyline
90
2
43
0.0
10
-2.896597533050007
20
-9.001028066827846
10
-2.906750277825607
20
-9.034518034252834
0
LWPOLYLINE
5
210
100
AcDbEntity
8
0
100
AcDbPolyline
90
5
43
0.0
10
-2.906750277825607
20
-9.034518034252834
10
-3.0230955454214867
20
-9.366057126162701
10
-3.1709920036233905
20
-9.708841034799978
10
-3.3442224000271445
20
-10.048834690112882
10
-3.5354844670548315
20
-10.371716616324493
0
LWPOLYLINE
5
211
100
AcDbEntity
8
0
100
AcDbPolyline
90
24
43
0.0
10
-3.5354844670548324
20
-10.371716616324495
10
-3.3456421444151316
20
-10.886960475292184
10
-3.1597040489987847
20
-11.373578287385442
10
-2.977689371840276
20
-11.831413206272424
10
-2.7996216119598554
20
-12.26025094115829
10
-2.625520901309597
20
-12.659863319071691
10
-2.455395599764616
20
-13.03005582060696
10
-2.2892335664313155
20
-13.370718265922221
10
-2.1269932407460646
20
-13.681878603366924
10
-1.9685930383385866
20
-13.963763230911242
10
-1.8139003975854229
20
-14.216861052149234
10
-1.6627227820985537
20
-14.441986539063825
10
-1.5147934187117535
20
-14.640357643520678
10
-1.3697563710793317
20
-14.813678676658077
10
-1.2271784981797413
20
-14.964168038983662
10
-0.9476116387290587
20
-15.207718397965161
10
-0.6736167237638654
20
-15.395748823040423
10
-0.406403603028571
20
-15.554496741185423
10
-0.15337614927514723
20
-15.708082468883179
10
0.07226391359609077
20
-15.876237733919995
10
0.255743759635655
20
-16.07368887058567
10
0.38557579438284545
20
-16.30981339172432
10
0.4560997980359387
20
-16.589013213971093
10
0.4658092949989468
20
-16.912488795466682
0
LWPOLYLINE
5
212
100
AcDbEntity
8
0
100
AcDbPolyline
90
9
43
0.0
10
0.46580929499894685
20
-16.912488795466682
10
0.4336544918572409
20
-17.48397535075747
10
0.4182749410028967
20
-18.007676942564213
10
0.42140689061230474
20
-18.478647799899477
10
0.4454241723509275
20
-18.89012597021765
10
0.49234247237253936
20
-19.236369692499665
10
0.5624705682359495
20
-19.516499401755944
10
0.6544663375575297
20
-19.73433818618545
10
0.7668012686740278
20
-19.89424007115849
0
LWPOLYLINE
5
213
100
AcDbEntity
8
0
100
AcDbPolyline
90
5
43
0.0
10
0.7668012686740985
20
-19.89424007115848
10
1.3272568132201368
20
-19.830879626174134
10
1.8553702440575697
20
-19.70576595995632
10
2.3543132515194305
20
-19.535394332648224
10
2.8276273620471457
20
-19.33501274140342
0
LWPOLYLINE
5
214
100
AcDbEntity
8
0
100
AcDbPolyline
90
25
43
0.0
10
2.8276273620471457
20
-19.335012741403425
10
2.9119686293075833
20
-19.93115771161739
10
2.980909108612809
20
-20.476675263737636
10
3.034422179276986
20
-20.971411322288837
10
3.072543178637761
20
-21.415308507656036
10
3.0954406878792966
20
-21.80858559680769
10
3.1034878643629638
20
-22.151918762778994
10
3.097338593621346
20
-22.446635716095447
10
3.078010899493871
20
-22.694928570782793
10
3.0469623341628065
20
-22.900050022522763
10
3.00617266234832
20
-23.066528514688205
10
2.9582575829823012
20
-23.20045779228414
10
2.906509815027068
20
-23.309619903428587
10
2.807138566414825
20
-23.49122440213744
10
2.738928443648699
20
-23.687618365493705
10
2.7238396663609277
20
-23.810879186144202
10
2.723130879705849
20
-23.956711709045674
10
2.7366028520300643
20
-24.126393123741483
10
2.763170727744771
20
-24.31928132063244
10
2.801135961632282
20
-24.533349824278144
10
2.848444616593594
20
-24.765696480403978
10
2.962696008712448
20
-25.27237103639549
10
3.0917530412543424
20
-25.817006735601932
10
3.226737476001514
20
-26.385283017589202
10
3.4990472171566105
20
-27.56701763773726
0
LWPOLYLINE
5
215
100
AcDbEntity
8
0
100
AcDbPolyline
90
5
43
0.0
10
3.49904721715661
20
-27.567017637737266
10
3.704664401291642
20
-27.49448306750827
10
3.8596499254127363
20
-27.421754351206687
10
3.956724210124292
20
-27.348803575364066
10
4.000749692615672
20
-27.275649384845128
0
LWPOLYLINE
5
216
100
AcDbEntity
8
0
100
AcDbPolyline
90
9
43
0.0
10
4.000749692615671
20
-27.275649384845124
10
4.038190454071914
20
-26.37533165094743
10
4.065761269194783
20
-25.43025783462391
10
4.082640796394301
20
-24.436703494969823
10
4.087965677858646
20
-23.390753665072854
10
4.08155094437766
20
-22.291569586862217
10
4.0641734495744215
20
-21.142673966913982
10
4.036949177416581
20
-19.949127326209336
10
4.0007496926156705
20
-18.714881846533462
0
LWPOLYLINE
5
217
100
AcDbEntity
8
0
100
AcDbPolyline
90
9
43
0.0
10
4.000749692615671
20
-18.714881846533466
10
4.3700405243403955
20
-18.48002085951589
10
4.714488591441203
20
-18.2335272960418
10
5.031633806572489
20
-17.972013661321398
10
5.319422622861563
20
-17.692339227966905
10
5.576508169461194
20
-17.39230750139741
10
5.802182976639614
20
-17.07066055673707
10
5.996179991793636
20
-16.726818128746544
10
6.1584719101118575
20
-16.360608886422405
0
LWPOLYLINE
5
218
100
AcDbEntity
8
0
100
AcDbPolyline
90
13
43
0.0
10
6.158471910111857
20
-16.360608886422405
10
6.763422302375528
20
-16.436085422118367
10
7.417037467738295
20
-16.5401679380046
10
8.080699916474726
20
-16.684012231815128
10
8.710583970365954
20
-16.87960513133648
10
9.000230659992582
20
-17.000106436897006
10
9.267809197592717
20
-17.136982873468636
10
9.51082365796229
20
-17.29069673877802
10
9.72780350170699
20
-17.461388975509358
10
9.918047222659848
20
-17.648983585267423
10
10.081369161651835
20
-17.853287581303707
10
10.217878384690238
20
-18.074075617023393
10
10.327772657448854
20
-18.311165942480987
0
LINE
5
219
100
AcDbEntity
8
0
100
AcDbLine
10
10.327772657448854
20
-18.311165942480987
30
0
11
16.020537662535798
21
-19.678545772134228
31
0
0
LWPOLYLINE
5
220
100
AcDbEntity
8
0
100
AcDbPolyline
90
8
43
0.0
10
16.020537662535798
20
-19.67854577213423
10
16.29528339250302
20
-19.71320000320719
10
16.41273308364364
20
-19.70644404928132
10
16.51510424180594
20
-19.681461212433742
10
16.60159325254124
20
-19.63728008606494
10
16.672733439038304
20
-19.574545349558363
10
16.729820499504672
20
-19.494823238806053
10
16.77399185438554
20
-19.399488664041726
0
LWPOLYLINE
5
221
100
AcDbEntity
8
0
100
AcDbPolyline
90
9
43
0.0
10
16.77399185438554
20
-19.39948866404173
10
15.705480452572893
20
-18.78577897026985
10
14.587014194010028
20
-18.19310877044259
10
13.414862736438817
20
-17.623049173330713
10
12.18457403838713
20
-17.077475245864314
10
10.893679173524585
20
-16.55742682609395
10
9.54409131891898
20
-16.062098140972836
10
8.140690953467237
20
-15.589433678530163
10
6.688455227755209
20
-15.137337211566116
0
LWPOLYLINE
5
222
100
AcDbEntity
8
0
100
AcDbPolyline
90
5
43
0.0
10
6.688455227753952
20
-15.13733721156574
10
6.718683025535088
20
-14.94860751292285
10
6.729562288906893
20
-14.766013255911355
10
6.718744772281949
20
-14.590299071777945
10
6.688455227753952
20
-14.420759489163535
0
LWPOLYLINE
5
223
100
AcDbEntity
8
0
100
AcDbPolyline
90
9
43
0.0
10
6.688455227753952
20
-14.420759489163535
10
6.7227755536718155
20
-14.346698314191922
10
6.784857746699571
20
-14.271699438012268
10
6.876967686282292
20
-14.195686326939626
10
7.001415981830196
20
-14.118580936463294
10
7.158525769193052
20
-14.04037235215367
10
7.3459819915358215
20
-13.961138768735639
10
7.560618747573464
20
-13.880987119559009
10
7.799999825656412
20
-13.799999691545963
0
LWPOLYLINE
5
224
100
AcDbEntity
8
0
100
AcDbPolyline
90
9
43
0.0
10
7.799999825656414
20
-13.799999691545963
10
7.784372346978768
20
-13.55099390200474
10
7.719252985000147
20
-13.281588671701218
10
7.600744203851328
20
-12.990177524041137
10
7.425104551241609
20
-12.675218316569332
10
7.1923659772450295
20
-12.33672421838649
10
6.907030151503043
20
-11.976550716433405
10
6.574810807492667
20
-11.59705288309339
10
6.199999861419199
20
-11.199999749660488
0
LINE
5
225
100
AcDbEntity
8
0
100
AcDbLine
10
6.1999998614191991
20
-11.199999749660488
30
0
11
6.1999998614192009
21
-10.899999756366014
31
0
0
LINE
5
226
100
AcDbEntity
8
0
100
AcDbLine
10
6.1999998614192009
20
-10.899999756366014
30
0
11
4.8191399054955628
21
-8.648427661609567
31
0
0
LWPOLYLINE
5
227
100
AcDbEntity
8
0
100
AcDbPolyline
90
12
43
0.0
10
4.819139905495562
20
-8.648427661609567
10
4.748063319876503
20
-8.395589442216066
10
4.675673221751407
20
-8.169421000266059
10
4.5967797629402085
20
-7.974703961390768
10
4.498102691528261
20
-7.820491939331792
10
4.3593602742473845
20
-7.718604411299023
10
4.268870005257216
20
-7.6905379432514716
10
4.162242343113396
20
-7.678633199926164
10
4.038918727251305
20
-7.682936626440471
10
3.8988549682922207
20
-7.703200532567772
10
3.7422694795355604
20
-7.7390706211311056
10
3.5694222877968262
20
-7.790245380571672
0
LWPOLYLINE
5
228
100
AcDbEntity
8
0
100
AcDbPolyline
90
15
43
0.0
10
3.5694222877968262
20
-7.790245380571671
10
3.796183270525839
20
-7.849870942010147
10
3.9830630031411673
20
-7.970018023120225
10
4.130658682119257
20
-8.1511720233186
10
4.241648320964465
20
-8.392893277914013
10
4.321588648872167
20
-8.693035520095455
10
4.3780352400887095
20
-9.047831726278694
10
4.419074804669858
20
-9.452224950838847
10
4.451997137396409
20
-9.90012660771591
10
4.482701931842916
20
-10.384846099605166
10
4.515761122770243
20
-10.89969229798526
10
4.554548718533372
20
-11.438538512907526
10
4.601346073542953
20
-11.996333716041091
10
4.723571054313506
20
-13.155325555686785
10
4.886080757520688
20
-14.360890402583719
0
LWPOLYLINE
5
229
100
AcDbEntity
8
0
100
AcDbPolyline
90
14
43
0.0
10
11.561429361476856
20
-30.812612333947644
10
11.562072367396397
20
-30.95671489414323
10
11.534889528512943
20
-31.110437296269115
10
11.479926045118392
20
-31.273697153836217
10
11.397323527350288
20
-31.446271539372745
10
11.287375382317673
20
-31.627725768702923
10
11.1505844631078
20
-31.81733890709536
10
10.987722379949778
20
-32.01402689235925
10
10.799880597374148
20
-32.21627789307291
10
10.58849611061119
20
-32.4221253578047
10
10.35531044527285
20
-32.62921980531369
10
9.831586973972358
20
-33.03655158112195
10
9.246023129624811
20
-33.416257212862526
10
8.616316190659107
20
-33.74756412543806
0
LWPOLYLINE
5
230
100
AcDbEntity
8
0
100
AcDbPolyline
90
7
43
0.0
10
8.616316190659107
20
-33.74756412543807
10
9.019330236600513
20
-33.67860737448604
10
9.199271755570818
20
-33.66370757606484
10
9.362799720565969
20
-33.66370907701443
10
9.508884814339028
20
-33.67954635894931
10
9.637949919096114
20
-33.71083550170193
10
9.850307558158663
20
-33.81496912469802
0
LWPOLYLINE
5
231
100
AcDbEntity
8
0
100
AcDbPolyline
90
5
43
0.0
10
9.850307558158665
20
-33.81496912469803
10
9.50780036814088
20
-34.24645094838741
10
9.149267655936484
20
-34.69737078214571
10
8.77474619246192
20
-35.167664184023366
10
8.384265067292649
20
-35.65728786407281
0
LWPOLYLINE
5
232
100
AcDbEntity
8
0
100
AcDbPolyline
90
17
43
0.0
10
8.384265067292649
20
-35.65728786407281
10
8.328551411055045
20
-35.73054956813747
10
8.31390734486997
20
-35.7946802334779
10
8.341226905245508
20
-35.84948108815758
10
8.411685445908766
20
-35.89469081473094
10
8.526415110515005
20
-35.93005770268629
10
8.686010992641613
20
-35.955449444336395
10
8.89008557258204
20
-35.97095219728484
10
9.137137055138346
20
-35.976899857002444
10
9.424815726536862
20
-35.97381483745581
10
9.750391349032776
20
-35.96230415484647
10
10.111057749335217
20
-35.942991708193766
10
10.504152897782323
20
-35.91646934893484
10
10.927348657434656
20
-35.88325469383896
10
11.378772133896694
20
-35.84376414519306
10
11.857072580111671
20
-35.79829801579893
10
12.361450776458106
20
-35.74703399687009
0
LWPOLYLINE
5
233
100
AcDbEntity
8
0
100
AcDbPolyline
90
17
43
0.0
10
12.361450776458105
20
-35.74703399687009
10
12.52333608966279
20
-36.023848811739335
10
12.705172639949257
20
-36.28314702579834
10
12.907477122282955
20
-36.524474996026065
10
13.131033940981537
20
-36.747144038444404
10
13.376788415991403
20
-36.95032418987415
10
13.645719153204672
20
-37.13315626305225
10
13.938653517565095
20
-37.29491385583097
10
14.256012566877564
20
-37.43522729180991
10
14.59763681925483
20
-37.554236591405974
10
14.962784331425443
20
-37.65259315904258
10
15.350355313588095
20
-37.73126257789757
10
15.759129815350184
20
-37.79131592862259
10
16.187915685435144
20
-37.833799885061076
10
16.635671102425718
20
-37.8596291358506
10
17.101600179706242
20
-37.8695024460885
10
17.585207045146767
20
-37.863855176956015
0
LWPOLYLINE
5
234
100
AcDbEntity
8
0
100
AcDbPolyline
90
9
43
0.0
10
17.585207045146767
20
-37.863855176956015
10
18.10733034157626
20
-38.23882383799455
10
18.69235849840181
20
-38.606166477706566
10
19.34534479041057
20
-38.965270482355166
10
20.071309552733787
20
-39.31552723151106
10
20.870633588974005
20
-39.65689055995206
10
21.737849715343337
20
-39.99002326001782
10
22.665741521875688
20
-40.31580018454747
10
23.648817652335932
20
-40.63488705633295
0
LWPOLYLINE
5
235
100
AcDbEntity
8
0
100
AcDbPolyline
90
24
43
0.0
10
23.648817652335932
20
-40.63488705633295
10
23.87157891496246
20
-40.62684775742048
10
24.056717102505413
20
-40.636411420903876
10
24.152480735044666
20
-40.63217682469981
10
24.269228507490478
20
-40.60508627866586
10
24.42428488106345
20
-40.53973076931975
10
24.521302894383545
20
-40.48816194366947
10
24.633589192299084
20
-40.421993195534235
10
24.76242538953532
20
-40.34010424650744
10
24.908765225220506
20
-40.24167063925743
10
25.073285764474228
20
-40.12611693092289
10
25.256429676263885
20
-39.99307802711032
10
25.45844274412009
20
-39.842364880024064
10
25.679409821813525
20
-39.67393167915102
10
25.919289237467932
20
-39.48784450488594
10
26.17794328293998
20
-39.28425358044812
10
26.455165546733145
20
-39.06336842579186
10
26.750705913620287
20
-38.82543517283518
10
27.064293402210307
20
-38.570715884403384
10
27.395656764303418
20
-38.299469937967864
10
27.744542589592832
20
-38.01193770961641
10
28.110731630586592
20
-37.708325903618736
10
28.49405297627964
20
-37.38879487284494
10
28.894396725172555
20
-37.0534473282984
0
LINE
5
236
100
AcDbEntity
8
0
100
AcDbLine
10
28.894396725172555
20
-37.053447328298397
30
0
11
28.894396725172555
21
-33.838682586972311
31
0
0
LINE
5
237
100
AcDbEntity
8
0
100
AcDbLine
10
28.894396725172555
20
-33.838682586972311
30
0
11
26.530957399175648
21
-29.57860804847256
31
0
0
LWPOLYLINE
5
238
100
AcDbEntity
8
0
100
AcDbPolyline
90
9
43
0.0
10
26.530957399174987
20
-29.578608048471317
10
26.594736082380635
20
-29.172019824422122
10
26.63574571540548
20
-28.78144146476853
10
26.651834650842893
20
-28.408385882132407
10
26.64033016791688
20
-28.054732377456155
10
26.599566614069357
20
-27.7216521402122
10
26.530322792311498
20
-27.408597561683408
10
26.434896024748603
20
-27.113953299337236
10
26.315363499032006
20
-26.836258796312134
0
LWPOLYLINE
5
239
100
AcDbEntity
8
0
100
AcDbPolyline
90
3
43
0.0
10
26.31536349903201
20
-26.83625879631215
10
26.082888660043952
20
-27.34855694726248
10
25.84646755449889
20
-27.8200374172212
0
LWPOLYLINE
5
240
100
AcDbEntity
8
0
100
AcDbPolyline
90
41
43
0.0
10
25.846467554498886
20
-27.820037417221197
10
25.854077183812045
20
-27.972913949924756
10
25.839094683541102
20
-28.1279760415935
10
25.801797638944162
20
-28.284321078958396
10
25.742636826977687
20
-28.440575355920824
10
25.662225996519695
20
-28.595004073540462
10
25.56133139641693
20
-28.74561639170591
10
25.440861365667224
20
-28.890270681295238
10
25.301856628335493
20
-29.026787517097226
10
25.145481184901072
20
-29.153069189522345
10
24.9730126908443
20
-29.267212058180696
10
24.78583091507647
20
-29.367592800367877
10
24.585405076310465
20
-29.452939241133375
10
24.15104958452361
20
-29.575331141122643
10
23.682820661141324
20
-29.63118851661645
10
23.19379240884252
20
-29.62143957004053
10
22.69658691968706
20
-29.549984759554082
10
22.202747679506622
20
-29.422533486297382
10
21.722050602574416
20
-29.245340409077407
10
21.261948888072446
20
-29.02415909237896
10
20.82754036079106
20
-28.763885307717924
10
20.422079636425902
20
-28.468935818240553
10
20.047663893149554
20
-28.14387212461146
10
19.705848645255088
20
-27.793928620416896
10
19.39826962864423
20
-27.42554305348133
10
19.127330436455086
20
-27.04701184313143
10
18.89662711853781
20
-26.668655848400146
10
18.710741337458607
20
-26.301774818517547
10
18.574415962403915
20
-25.95639800205288
10
18.491680176853446
20
-25.639003412194356
10
18.464979470560703
20
-25.350152780622157
10
18.494311592561797
20
-25.08222903169089
10
18.57688607505633
20
-24.819243794126432
10
18.707525876240496
20
-24.539632445718418
10
18.879437749084115
20
-24.220530014306075
10
19.08490498859581
20
-23.84173641676502
10
19.19773340245508
20
-23.62537270945815
10
19.315983285617772
20
-23.38962619159954
10
19.438696107367395
20
-23.13407192213728
10
19.564935438746307
20
-22.858741583540407
10
19.824372945333984
20
-22.250879694338963
0
LWPOLYLINE
5
241
100
AcDbEntity
8
0
100
AcDbPolyline
90
17
43
0.0
10
19.824372945333987
20
-22.250879694338956
10
19.543445713414844
20
-21.93760776410553
10
19.27188388237771
20
-21.646737546548586
10
19.00997280368795
20
-21.37889054356789
10
18.758193375074832
20
-21.135056900744
10
18.517210917000398
20
-20.916517226998767
10
18.28784784090122
20
-20.72472227650346
10
18.07103939648486
20
-20.561131625622714
10
17.867769876327994
20
-20.427004333207037
10
17.679013476651033
20
-20.32328352335948
10
17.505686699695993
20
-20.250624146257294
10
17.348583389019883
20
-20.209420031660738
10
17.20827700671656
20
-20.199760853200033
10
17.08499976418033
20
-20.221341473938068
10
16.978628993632814
20
-20.27349209611929
10
16.888860915924084
20
-20.355437177748737
10
16.81540219264236
20
-20.466563364483363
0
LWPOLYLINE
5
242
100
AcDbEntity
8
0
100
AcDbPolyline
90
28
43
0.0
10
16.815402192642356
20
-20.466563364483363
10
16.301657376422256
20
-21.03595161985161
10
15.81058928830993
20
-21.58203971502811
10
15.342350440888408
20
-22.104690151634156
10
14.897184324785133
20
-22.603702838575103
10
14.475413576449542
20
-23.078842824713337
10
14.07742622222421
20
-23.529870156538987
10
13.703658849742105
20
-23.956573422338344
10
13.354577404870502
20
-24.35880607890589
10
13.030655431118593
20
-24.736525429077243
10
12.732349818276019
20
-25.089834320433354
10
12.460072545867153
20
-25.419028231952485
10
12.214158312247024
20
-25.724647812268955
10
11.994830565014892
20
-26.007531909920065
10
11.802165739944224
20
-26.268870870622496
10
11.636050658852547
20
-26.51027041481757
10
11.496129790836763
20
-26.733831521119193
10
11.381776888514478
20
-26.942180957913248
10
11.292127868463746
20
-27.138380486630922
10
11.226136354420204
20
-27.3257904984279
10
11.18263405023896
20
-27.507922040925468
10
11.16039183445979
20
-27.68828321782524
10
11.158176588010585
20
-27.870221570967797
10
11.209185033282411
20
-28.25051186561325
10
11.327522763759083
20
-28.667209923459158
10
11.507227848147744
20
-29.13072874992886
10
11.744408695450476
20
-29.64566840373294
10
12.036979293938682
20
-30.213206126770448
0
LWPOLYLINE
5
243
100
AcDbEntity
8
0
100
AcDbPolyline
90
2
43
0.0
10
12.03697929393868
20
-30.21320612677045
10
11.561429361476856
20
-30.812612333947644
0
LWPOLYLINE
5
244
100
AcDbEntity
8
0
100
AcDbPolyline
90
16
43
0.0
10
25.0240699891149
20
-5.5652831050450935
10
25.000462476434233
20
-5.37412730084849
10
24.95588494286128
20
-5.160427762156106
10
24.890323379327647
20
-4.924181959872089
10
24.803781926359843
20
-4.665427570311799
10
24.69630491777708
20
-4.3842762093377745
10
24.56799715558276
20
-4.080944651146016
10
24.41904665910278
20
-3.7557894825130322
10
24.249752876361377
20
-3.409349355803826
10
24.060553461248276
20
-3.0423852192355594
10
23.85203580613983
20
-2.6558992058454143
10
23.624936609489765
20
-2.2511367796704524
10
23.380128252673813
20
-1.8295705115794425
10
23.118585409914658
20
-1.392856337332721
10
22.841348336112713
20
-0.9427851337654766
10
22.24409900130433
20
-0.010171996350205017
0
LWPOLYLINE
5
245
100
AcDbEntity
8
0
100
AcDbPolyline
90
9
43
0.0
10
22.244099001304328
20
-0.010171996350203183
10
21.6621584764897
20
0.8576528326426781
10
21.045233253227988
20
1.7388941250533552
10
20.397844389479726
20
2.6233142465136843
10
19.722786768114275
20
3.502414062875914
10
19.02051622142548
20
4.370228791642747
10
18.28901348336962
20
5.22364901619522
10
17.52432978653685
20
6.062061234188823
10
16.72156098124096
20
6.886564764281107
0
LINE
5
246
100
AcDbEntity
8
0
100
AcDbLine
10
16.721560981240959
20
6.8865647642811076
30
0
11
14.280468394352425
21
14.844003269389843
31
0
0
LWPOLYLINE
5
247
100
AcDbEntity
8
0
100
AcDbPolyline
90
5
43
0.0
10
14.280468394352424
20
14.844003269389837
10
14.18916946201644
20
14.874355574820255
10
14.11614302611163
20
14.861951326330788
10
14.061370190135566
20
14.806856774941041
10
14.024820514049551
20
14.709151908106703
0
LINE
5
248
100
AcDbEntity
8
0
100
AcDbLine
10
14.024820514049551
20
14.709151908106703
30
0
11
15.603710385344895
21
7.94956954389062
31
0
0
LWPOLYLINE
5
249
100
AcDbEntity
8
0
100
AcDbPolyline
90
25
43
0.0
10
15.603710385344897
20
7.949569543890616
10
14.716474696815443
20
8.732492304706392
10
13.782111008760923
20
9.508405756136282
10
12.802169855350183
20
10.277445769855177
10
11.78190345137609
20
11.037792444282841
10
10.731251841119837
20
11.784945818662518
10
9.665326494727665
20
12.51132748484251
10
8.603880617426876
20
13.20653341492306
10
7.569921882358478
20
13.858138388530149
10
7.070969656074097
20
14.163365719021161
10
6.5882597841346335
20
14.452545182516856
10
6.124948915527477
20
14.723925783308234
10
5.684129457061406
20
14.975786690101451
10
5.26878604640193
20
15.206462777564175
10
4.881753143080606
20
15.414369500731171
10
4.525670766998935
20
15.59802888690378
10
4.202935950417166
20
15.756098112328404
10
3.9156532042995633
20
15.88739868227476
10
3.6655905168265894
20
15.990942377897426
10
3.4541434247233496
20
16.06595248369299
10
3.2823094419933856
20
16.11187894000177
10
3.1507191713291824
20
16.128380227191286
10
3.0597205648400383
20
16.11527405543863
10
3.0094677167101263
20
16.07248540392519
10
3.0000000447034827
20
16.00000023841858
0
LWPOLYLINE
5
250
100
AcDbEntity
8
0
100
AcDbPolyline
90
22
43
0.0
10
3.0000000447034836
20
16.00000023841858
10
3.225730848573191
20
15.827744417318797
10
3.469927008093724
20
15.640781202984316
10
3.732660615855763
20
15.439040408437423
10
4.0139957534651804
20
15.222438017774792
10
4.313935144123653
20
14.990908045579708
10
4.632364431469053
20
14.744436111433991
10
4.968998079052925
20
14.483092427958443
10
5.323323907112572
20
14.207065931514236
10
5.694533315480516
20
13.916707486174827
10
6.081446606056313
20
13.612576420786464
10
6.8957402795419505
20
12.966329195961688
10
7.749736033164048
20
12.276806122194605
10
8.623444328550598
20
11.554513612856685
10
9.495583354108362
20
10.810757193779622
10
10.345683412624943
20
10.056529403293998
10
11.156259489748535
20
9.301406247597967
10
11.914799807605686
20
8.55256443566962
10
12.614168637609513
20
7.814533552852857
10
13.251193549485768
20
7.089782174461404
10
13.825169451598606
20
6.379364655047138
10
14.336508284606214
20
5.683524845834424
0
LWPOLYLINE
5
251
100
AcDbEntity
8
0
100
AcDbPolyline
90
26
43
0.0
10
14.336508284606214
20
5.683524845834424
10
14.043079822527568
20
5.626049776581961
10
13.728311775148073
20
5.562969297707335
10
13.392415737807454
20
5.494290356125095
10
13.035774429083917
20
5.420048342119969
10
12.658980374184356
20
5.340314899103388
10
12.26287391094214
20
5.255205654809871
10
11.417616597635494
20
5.069602140931327
10
10.513616383071922
20
4.865440530279224
10
9.570988486469707
20
4.6461555402485
10
7.676849628178
20
4.180989372933825
10
6.786419589745792
20
3.945923902663504
10
6.369217804030962
20
3.8302312558374423
10
5.975823109074699
20
3.7166780475316528
10
5.609877086466706
20
3.6059127032635327
10
5.274780726261353
20
3.4985417597152355
10
4.973632541913779
20
3.395119225342387
10
4.709161305061648
20
3.2961351281134155
10
4.483641853657021
20
3.202001448259522
10
4.2988116888903
20
3.113038251162358
10
4.155862009881958
20
3.0294719816719837
10
4.055514848126272
20
2.9514478219179594
10
3.998119449392611
20
2.879045224048661
10
3.9837625733125828
20
2.8122958036666645
10
4.012383414153109
20
2.7512020365362213
10
4.083878458408393
20
2.695754392625945
0
LWPOLYLINE
5
252
100
AcDbEntity
8
0
100
AcDbPolyline
90
9
43
0.0
10
4.083878458408394
20
2.695754392625945
10
5.960181432983547
20
1.551063760597332
10
7.856076305955334
20
0.4386730695166598
10
9.772966596087088
20
-0.6391037867682414
10
11.712709569399316
20
-1.6792048496065417
10
13.676847275799275
20
-2.6790878374928253
10
15.665575507624219
20
-3.6384299598107415
10
17.67756149530157
20
-4.559428470627784
10
19.710922779771465
20
-5.4451868627849365
0
LWPOLYLINE
5
253
100
AcDbEntity
8
0
100
AcDbPolyline
90
5
43
0.0
10
19.71092277977147
20
-5.445186862784942
10
19.86726574001997
20
-5.833479108226395
10
20.05676293449181
20
-6.274757744099877
10
20.282391871744363
20
-6.773781361091481
10
20.539560391892508
20
-7.323210867156272
0
LWPOLYLINE
5
254
100
AcDbEntity
8
0
100
AcDbPolyline
90
17
43
0.0
10
20.539560391892504
20
-7.3232108671562735
10
20.77847629306598
20
-7.6284473437204525
10
21.062858188935955
20
-7.869411081134161
10
21.391541377920905
20
-8.045354875905954
10
21.760177531108535
20
-8.156152401738547
10
22.15909862560761
20
-8.20336759080588
10
22.57268166054274
20
-8.190760675803915
10
22.98208265762194
20
-8.12343850970033
10
23.36903728319544
20
-8.006648933414935
10
23.719663301976404
20
-7.844679041378024
10
24.0269438497763
20
-7.64016681772359
10
24.289655330506285
20
-7.394342464395478
10
24.509972422310497
20
-7.107676844812678
10
24.69119098511316
20
-6.780590486559501
10
24.83612394196106
20
-6.413882038277919
10
24.94671590128541
20
-6.008519118172623
10
25.0240699891149
20
-5.565283105045094
0
LWPOLYLINE
5
255
100
AcDbEntity
8
0
100
AcDbPolyline
90
26
43
0.0
10
-21.461598935976365
20
-23.274152462014193
10
-21.447959899796544
20
-23.022888210973093
10
-21.39662604581943
20
-22.77925144360168
10
-21.30809356473688
20
-22.543317087009207
10
-21.183910830071934
20
-22.315228585384776
10
-21.027307585538228
20
-22.095213164532666
10
-20.843716563057495
20
-21.883602782829772
10
-20.425330826229196
20
-21.48790042863651
10
-19.98583136925524
20
-21.136349430928398
10
-19.54961223766127
20
-20.845008340839133
10
-19.327483581591498
20
-20.727998315638327
10
-19.09704213157689
20
-20.63203428468745
10
-18.854747981747035
20
-20.556537103114724
10
-18.598925373690285
20
-20.49887655971671
10
-18.049196434971886
20
-20.42165720812126
10
-17.465780758056614
20
-20.378212141508154
10
-16.878916118094153
20
-20.381840461338783
10
-16.59449557370222
20
-20.41301102902108
10
-16.3211291545466
20
-20.468330025480732
10
-16.061879803133714
20
-20.547098738510957
10
-15.819051187637822
20
-20.64435562094098
10
-15.388569490328647
20
-20.86187610377552
10
-15.20259497412141
20
-20.965256314166183
10
-15.036636646927107
20
-21.056844745863767
10
-14.890781883229089
20
-21.133769782214706
10
-14.765011878383797
20
-21.194970190100374
0
LWPOLYLINE
5
256
100
AcDbEntity
8
0
100
AcDbPolyline
90
33
43
0.0
10
-14.765011878383795
20
-21.194970190100378
10
-14.771825800305733
20
-21.06535371943412
10
-14.816136195972602
20
-20.933277398190747
10
-14.898099121911015
20
-20.798937367639926
10
-15.017866362995361
20
-20.662858064689768
10
-15.175488247715316
20
-20.526070546571624
10
-15.370810122509441
20
-20.390273436929014
10
-15.603356015426995
20
-20.257889594929974
10
-15.872196213432765
20
-20.131983627713822
10
-16.175806209382685
20
-20.016142859867852
10
-16.511918283562295
20
-19.914370046063976
10
-16.877365280439555
20
-19.830970679485393
10
-17.26791855624716
20
-19.77044162326537
10
-17.67813440498379
20
-19.73735261984224
10
-18.10141679184187
20
-19.736151391546805
10
-18.530327329014483
20
-19.770881563140758
10
-18.95694391952481
20
-19.8448767241463
10
-19.373214040070117
20
-19.96044889980399
10
-19.771309352179102
20
-20.118563844755972
10
-20.143980292525598
20
-20.318510403044233
10
-20.484916757758842
20
-20.557553832357165
10
-20.78912077182473
20
-20.830567442098367
10
-21.053185889472587
20
-21.12982385162214
10
-21.275247798275565
20
-21.44535305817703
10
-21.45467853011641
20
-21.76574374056477
10
-21.591789482082742
20
-22.078938797194017
10
-21.687536216414557
20
-22.373047777960256
10
-21.743236018364282
20
-22.63713324155057
10
-21.760285546237334
20
-22.862047679016452
10
-21.73990218260996
20
-23.041176686342258
10
-21.682982572662166
20
-23.170592055945296
10
-21.590108851703736
20
-23.248444815564426
10
-21.461598935976365
20
-23.274152462014193
0
LINE
5
257
100
AcDbEntity
8
0
100
AcDbLine
10
1.5025872354175114
20
-10.895533706960116
30
0
11
-0.5000000074505806
21
-9.0000001341104507
31
0
0
LWPOLYLINE
5
258
100
AcDbEntity
8
0
100
AcDbPolyline
90
9
43
0.0
10
1.4408169011811616
20
-2.697023036487659
10
1.5809086266789611
20
-2.701191315300764
10
1.7232991306270442
20
-2.7256301625037107
10
1.8588840831502766
20
-2.7704024353369254
10
1.9796731586992737
20
-2.8349527283361406
10
2.07985613062763
20
-2.9181695265489136
10
2.1559902697168125
20
-3.018170834811389
10
2.2069191818289227
20
-3.1319977229489453
10
2.2336880116827253
20
-3.2553164401596333
0
LWPOLYLINE
5
259
100
AcDbEntity
8
0
100
AcDbPolyline
90
9
43
0.0
10
17.585207045146767
20
-37.863855176956015
10
18.10733034157626
20
-38.23882383799455
10
18.69235849840181
20
-38.606166477706566
10
19.34534479041057
20
-38.965270482355166
10
20.071309552733787
20
-39.31552723151106
10
20.870633588974005
20
-39.65689055995206
10
21.737849715343337
20
-39.99002326001782
10
22.665741521875688
20
-40.31580018454747
10
23.648817652335932
20
-40.63488705633295
0
LWPOLYLINE
5
260
100
AcDbEntity
8
0
100
AcDbPolyline
90
17
43
0.0
10
8.384265067292649
20
-35.65728786407281
10
8.328551411055045
20
-35.73054956813747
10
8.31390734486997
20
-35.7946802334779
10
8.341226905245508
20
-35.84948108815758
10
8.411685445908766
20
-35.89469081473094
10
8.526415110515005
20
-35.93005770268629
10
8.686010992641613
20
-35.955449444336395
10
8.89008557258204
20
-35.97095219728484
10
9.137137055138346
20
-35.976899857002444
10
9.424815726536862
20
-35.97381483745581
10
9.750391349032776
20
-35.96230415484647
10
10.111057749335217
20
-35.942991708193766
10
10.504152897782323
20
-35.91646934893484
10
10.927348657434656
20
-35.88325469383896
10
11.378772133896694
20
-35.84376414519306
10
11.857072580111671
20
-35.79829801579893
10
12.361450776458106
20
-35.74703399687009
0
LWPOLYLINE
5
261
100
AcDbEntity
8
0
100
AcDbPolyline
90
3
43
0.0
10
-13.907233991323412
20
-32.9308253840299
10
-14.019211363394305
20
-33.19546890749719
10
-14.099999684837838
20
-33.434877871286
0
LWPOLYLINE
5
262
100
AcDbEntity
8
0
100
AcDbPolyline
90
17
43
0.0
10
-4.643912171597657
20
-41.65488692806773
10
-5.220438769215508
20
-41.35629348660036
10
-5.7776847080709635
20
-41.065654812397426
10
-6.315583689893974
20
-40.7829972846576
10
-6.834031010115612
20
-40.50836156205741
10
-7.332888954545714
20
-40.24179956722097
10
-7.811992971421355
20
-39.983371149478394
10
-8.271158149425679
20
-39.73314062002364
10
-8.710186239724758
20
-39.491173048576506
10
-9.128873811202318
20
-39.25753006279445
10
-9.527020801211691
20
-39.032265474859834
10
-9.904439490476427
20
-38.81542073450442
10
-10.260964279566535
20
-38.607020054631164
10
-10.596461776159689
20
-38.4070654064314
10
-10.910841969627265
20
-38.21553101639134
10
-11.204071323642705
20
-38.032356984133706
10
-11.476186381262838
20
-37.85744267014968
0
LINE
5
263
100
AcDbEntity
8
0
100
AcDbLine
10
28.894396725172555
20
-33.838682586972311
30
0
11
26.530957399175648
21
-29.57860804847256
31
0
0
LINE
5
264
100
AcDbEntity
8
0
100
AcDbLine
10
28.894396725172555
20
-37.053447328298397
30
0
11
28.894396725172555
21
-35.778328257173641
31
0
0
LINE
5
265
100
AcDbEntity
8
0
100
AcDbLine
10
28.894396725172555
20
-35.465407509154304
30
0
11
28.894396725172555
21
-33.838682586972311
31
0
0
LINE
5
266
100
AcDbEntity
8
0
100
AcDbLine
10
-0.5000000074505806
20
-9.0000001341104507
30
0
11
-0.4999999888241291
21
-10.29999976977706
31
0
0
LINE
5
267
100
AcDbEntity
8
0
100
AcDbLine
10
-7.7155306204472041
20
-41.654886928067754
30
0
11
-4.6439121715976572
21
-41.654886928067739
31
0
0
LWPOLYLINE
5
268
100
AcDbEntity
8
0
100
AcDbPolyline
90
24
43
0.0
10
23.648817652335932
20
-40.63488705633295
10
23.87157891496246
20
-40.62684775742048
10
24.056717102505413
20
-40.636411420903876
10
24.152480735044666
20
-40.63217682469981
10
24.269228507490478
20
-40.60508627866586
10
24.42428488106345
20
-40.53973076931975
10
24.521302894383545
20
-40.48816194366947
10
24.633589192299084
20
-40.421993195534235
10
24.76242538953532
20
-40.34010424650744
10
24.908765225220506
20
-40.24167063925743
10
25.073285764474228
20
-40.12611693092289
10
25.256429676263885
20
-39.99307802711032
10
25.45844274412009
20
-39.842364880024064
10
25.679409821813525
20
-39.67393167915102
10
25.919289237467932
20
-39.48784450488594
10
26.17794328293998
20
-39.28425358044812
10
26.455165546733145
20
-39.06336842579186
10
26.750705913620287
20
-38.82543517283518
10
27.064293402210307
20
-38.570715884403384
10
27.395656764303418
20
-38.299469937967864
10
27.744542589592832
20
-38.01193770961641
10
28.110731630586592
20
-37.708325903618736
10
28.49405297627964
20
-37.38879487284494
10
28.894396725172555
20
-37.0534473282984
0
LWPOLYLINE
5
269
100
AcDbEntity
8
0
100
AcDbPolyline
90
28
43
0.0
10
-14.140247078653385
20
-33.60108241306248
10
-14.118430279052543
20
-33.70166744990467
10
-14.071405151405415
20
-33.82035701837298
10
-13.995828126450668
20
-33.95670512342233
10
-13.887246804041819
20
-34.109936653147216
10
-13.740936346418119
20
-34.27888909267654
10
-13.552794903719878
20
-34.461953218573
10
-13.32022992754645
20
-34.65701013146149
10
-13.043070343177664
20
-34.861366118339554
10
-12.724262394375625
20
-35.071720604240156
10
-12.369670269120203
20
-35.28428341800076
10
-11.586620484936448
20
-35.699696044160966
10
-10.769979156907187
20
-36.07560541290084
10
-10.372719963852184
20
-36.24018868021125
10
-9.992932491764607
20
-36.38598653324859
10
-9.635204979750593
20
-36.511854470978164
10
-9.300991835606206
20
-36.61786317727958
10
-8.988647601213856
20
-36.7052494897021
10
-8.69410478421226
20
-36.776148428259155
10
-8.134371802529481
20
-36.87982602232198
10
-7.567778694868106
20
-36.95341473104023
10
-6.945885272807533
20
-37.018531425402436
10
-6.604088734255021
20
-37.05251813784237
10
-6.238545920942406
20
-37.08896605322534
10
-5.847921852252107
20
-37.12854708617021
10
-5.431490228190428
20
-37.17165759329134
10
-4.98894982524501
20
-37.21849228048556
10
-4.520244119406217
20
-37.26911728698388
0
LWPOLYLINE
5
270
100
AcDbEntity
8
0
100
AcDbPolyline
90
2
43
0.0
10
-14.09999968483784
20
-33.434877871286
10
-14.140247078653385
20
-33.60108241306248
0
LWPOLYLINE
5
271
100
AcDbEntity
8
0
100
AcDbPolyline
90
8
43
0.0
10
-1.1295039475385238
20
-3.5420008164595362
10
-1.2370375990876188
20
-3.5441426953794917
10
-1.3127358570581267
20
-3.557183083544184
10
-1.3556138690358681
20
-3.580972044891019
10
-1.3671402065309937
20
-3.6137368242282006
10
-1.3522306072066825
20
-3.6517974573046486
10
-1.3168223599394795
20
-3.691229868323959
10
-1.2005441964396717
20
-3.7659753425099063
0
LWPOLYLINE
5
272
100
AcDbEntity
8
0
100
AcDbPolyline
90
2
43
0.0
10
-0.198195957474714
20
-4.189227185825384
10
-0.09999999776480667
20
-4.1999999061226845
0
LWPOLYLINE
5
273
100
AcDbEntity
8
0
100
AcDbPolyline
90
21
43
0.0
10
-12.368631504241797
20
-13.567730421479197
10
-12.496290838851865
20
-12.734154496692156
10
-12.635927728317814
20
-11.95911794401337
10
-12.784134488639163
20
-11.2464889855042
10
-12.93614790275968
20
-10.601779460690475
10
-13.086589709100714
20
-10.031248038524717
10
-13.159549255470699
20
-9.775714347207446
10
-13.230186209870277
20
-9.5408919296767
10
-13.297977577398372
20
-9.32729799192622
10
-13.362498077542103
20
-9.135281052855827
10
-13.423444910421187
20
-8.964974214341158
10
-13.480666485945216
20
-8.816238293201652
10
-13.534188707812772
20
-8.688608853112395
10
-13.584232929314682
20
-8.581258981618852
10
-13.675718413431825
20
-8.422334764202912
10
-13.760052031298692
20
-8.327074042614008
10
-13.843123016596037
20
-8.281563865290929
10
-13.930287824036284
20
-8.273229696769048
10
-14.02515701178744
20
-8.293134191698387
10
-14.129470096736885
20
-8.336314043532461
10
-14.24378538856201
20
-8.400639718019056
0
LWPOLYLINE
5
274
100
AcDbEntity
8
0
100
AcDbPolyline
90
4
43
0.0
10
-1.200544196439607
20
-3.765975342509927
10
-0.9848148173520306
20
-3.8465632663959175
10
-0.7910928968817444
20
-3.932091156401121
10
-0.4580959418931605
20
-4.097570122717413
0
LWPOLYLINE
5
275
100
AcDbEntity
8
0
100
AcDbPolyline
90
8
43
0.0
10
-12.321491165139745
20
-16.3883745209491
10
-12.262403171781363
20
-15.56324865513208
10
-12.24900794644956
20
-15.178020287565031
10
-12.247912241198703
20
-14.813610967359017
10
-12.25990194668069
20
-14.471350949245133
10
-12.284675652866339
20
-14.15073004505394
10
-12.321227049752551
20
-13.8500449025026
10
-12.368631504241796
20
-13.567730421479196
0
LINE
5
276
100
AcDbEntity
8
0
100
AcDbLine
10
-8.2291094252832639
20
-5.0792319472545326
30
0
11
-8.42460528799168
21
-5.1313641773101111
31
0
0
LWPOLYLINE
5
277
100
AcDbEntity
8
0
100
AcDbPolyline
90
9
43
0.0
10
-14.243785388562014
20
-8.400639718019056
10
-14.753786051743706
20
-8.61887654323052
10
-15.237312696920918
20
-8.83208458127819
10
-15.6917885364084
20
-9.039774366724277
10
-16.113905874879592
20
-9.241317596914985
10
-16.501342412787164
20
-9.436273146890697
10
-16.85461108039533
20
-9.6247384486752
10
-17.176246595817997
20
-9.807194976517295
10
-17.46867203540081
20
-9.98410299811168
0
LWPOLYLINE
5
278
100
AcDbEntity
8
0
100
AcDbPolyline
90
2
43
0.0
10
0.2649456422783573
20
-4.0338439424309085
10
0.26767768392139907
20
-4.003842906197099
0
LWPOLYLINE
5
279
100
AcDbEntity
8
0
100
AcDbPolyline
90
5
43
0.0
10
2.639564920191879
20
-4.541172177795218
10
2.60445727596844
20
-4.441450649522475
10
2.539014744834378
20
-4.365477764301805
10
2.4398300786134186
20
-4.3159209960961435
10
2.310606833733446
20
-4.289880896502723
0
LWPOLYLINE
5
280
100
AcDbEntity
8
0
100
AcDbPolyline
90
15
43
0.0
10
-0.4580959418931605
20
-4.097570122717413
10
-0.6514823617156729
20
-4.124288767462992
10
-0.8057129782900025
20
-4.1822870226504465
10
-0.9201351200552099
20
-4.270552343373794
10
-0.9941549448198683
20
-4.385535694388837
10
-1.0277398765465433
20
-4.519474584973732
10
-1.0219010630277099
20
-4.659596261941302
10
-0.9789303828891962
20
-4.790400356589852
10
-0.902569097626349
20
-4.897454685920086
10
-0.7982535815986969
20
-4.971251660299976
10
-0.6731057628475624
20
-5.009666620310469
10
-0.5350681086179082
20
-5.016487226847211
10
-0.39170327518700016
20
-4.998405345458347
10
-0.11074768123919333
20
-4.91218068337066
10
0.146422447308278
20
-4.780282963540843
0
LINE
5
281
100
AcDbEntity
8
0
100
AcDbLine
10
-7.8415025624850232
20
-5.1052980622823219
30
0
11
-8.2291094252832639
21
-4.6491410492960199
31
0
0
LWPOLYLINE
5
282
100
AcDbEntity
8
0
100
AcDbPolyline
90
5
43
0.0
10
-17.46867203540081
20
-9.98410299811168
10
-17.532111253279155
20
-10.079142078077291
10
-17.55478882180172
20
-10.179023320077363
10
-17.532012853553795
20
-10.284304083249769
10
-17.46867203540081
20
-10.394403630178534
0
LINE
5
283
100
AcDbEntity
8
0
100
AcDbLine
10
-8.2291094252832639
20
-4.6491410492960199
30
0
11
-8.2291094252832639
21
-5.0792319472545326
31
0
0
LWPOLYLINE
5
284
100
AcDbEntity
8
0
100
AcDbPolyline
90
2
43
0.0
10
-22.940736922771954
20
-11.292634879839209
10
-22.938599581477195
20
-10.729933964713398
0
LINE
5
285
100
AcDbEntity
8
0
100
AcDbLine
10
-4.6999998949468136
20
-10.999999754130842
30
0
11
-5.0093576746834643
21
-10.660444675434837
31
0
0
LINE
5
286
100
AcDbEntity
8
0
100
AcDbLine
10
-1.840484487621632
20
-3.6486606034074818
30
0
11
-1.580819773180842
21
-3.65470973281783
31
0
0
LWPOLYLINE
5
287
100
AcDbEntity
8
0
100
AcDbPolyline
90
17
43
0.0
10
-16.46766475380334
20
-19.409455779020547
10
-16.003887972699246
20
-19.09693037563012
10
-15.561309951218197
20
-18.797219869131375
10
-15.140571848607358
20
-18.51071184775041
10
-14.742749370542384
20
-18.238056588086177
10
-14.369322009305856
20
-17.98014846044045
10
-14.022110360831245
20
-17.738088036241425
10
-13.703169696789148
20
-17.513117751131382
10
-13.414629310279906
20
-17.306524787568282
10
-13.158501961519546
20
-17.119525882525384
10
-12.93642525729152
20
-16.953110988360173
10
-12.749291113762215
20
-16.807819278774296
10
-12.597101767268283
20
-16.68365210565885
10
-12.479184896974953
20
-16.580203043244815
10
-12.394548281275705
20
-16.496872282023894
10
-12.342221519193233
20
-16.43307320331217
10
-12.321491165139763
20
-16.388374520949085
0
LWPOLYLINE
5
288
100
AcDbEntity
8
0
100
AcDbPolyline
90
2
43
0.0
10
-16.498168923261048
20
-18.83450284883214
10
-16.46766475380334
20
-19.409455779020547
0
LWPOLYLINE
5
289
100
AcDbEntity
8
0
100
AcDbPolyline
90
8
43
0.0
10
16.020537662535798
20
-19.67854577213423
10
16.29528339250302
20
-19.71320000320719
10
16.41273308364364
20
-19.70644404928132
10
16.51510424180594
20
-19.681461212433742
10
16.60159325254124
20
-19.63728008606494
10
16.672733439038304
20
-19.574545349558363
10
16.729820499504672
20
-19.494823238806053
10
16.77399185438554
20
-19.399488664041726
0
LINE
5
290
100
AcDbEntity
8
0
100
AcDbLine
10
10.327772657448854
20
-18.311165942480987
30
0
11
16.020537662535798
21
-19.678545772134228
31
0
0
LWPOLYLINE
5
291
100
AcDbEntity
8
0
100
AcDbPolyline
90
9
43
0.0
10
2.899999935179949
20
-14.299999680370092
10
3.0966407295631337
20
-14.434373212355004
10
3.287644992039127
20
-14.549313035672252
10
3.472480804520756
20
-14.642985196164357
10
3.650488463860788
20
-14.713115160667858
10
3.821259334554735
20
-14.758294030332214
10
3.9849898053985098
20
-14.779198917027731
10
4.14224976353723
20
-14.777794685133104
10
4.293553313619793
20
-14.75585387140396
0
LWPOLYLINE
5
292
100
AcDbEntity
8
0
100
AcDbPolyline
90
9
43
0.0
10
5.6117075306856545
20
-14.822952091324776
10
5.454160228404273
20
-14.999616967223734
10
5.26845342905204
20
-15.148263007543298
10
5.0522066513881185
20
-15.266521621950622
10
4.802858163240407
20
-15.351843874560918
10
4.519711515959155
20
-15.403536795602886
10
4.204866717256652
20
-15.423689902891342
10
3.86148206994694
20
-15.415445722978696
10
3.4920565171637152
20
-15.381290716351216
0
LWPOLYLINE
5
293
100
AcDbEntity
8
0
100
AcDbPolyline
90
9
43
0.0
10
4.293553313619793
20
-14.75585387140396
10
4.088797655519352
20
-14.546096506316445
10
3.9163256512445197
20
-14.332357217285331
10
3.77912281752547
20
-14.114267765308472
10
3.6808053352229173
20
-13.891382124136312
10
3.623405296264378
20
-13.663449651898686
10
3.6055078506460223
20
-13.430644858744492
10
3.6237571697693864
20
-13.19338165861427
10
3.6752193289217003
20
-12.95202192706364
0
LWPOLYLINE
5
294
100
AcDbEntity
8
0
100
AcDbPolyline
90
9
43
0.0
10
3.4920565171637152
20
-15.381290716351215
10
3.5906647949039647
20
-15.571134348482035
10
3.708758528762819
20
-15.739925922119646
10
3.848065925738072
20
-15.885798284935367
10
4.010574116860175
20
-16.006604543452852
10
4.197146515256838
20
-16.101411867387007
10
4.40661762870721
20
-16.171479452845865
10
4.636872955097537
20
-16.21909180484827
10
4.886159049645161
20
-16.246143342596515
0
LWPOLYLINE
5
295
100
AcDbEntity
8
0
100
AcDbPolyline
90
30
43
0.0
10
-3.9193977642080102
20
-5.122207195531232
10
-4.013814328531579
20
-5.054417534550211
10
-4.110715167548307
20
-5.012163853642115
10
-4.20991960779484
20
-4.9950393724846505
10
-4.310940744737031
20
-5.00181383728343
10
-4.514139792778226
20
-5.075791343888932
10
-4.7081665279209775
20
-5.206725140129794
10
-4.8811049585839035
20
-5.389598921181264
10
-4.957288092261474
20
-5.511161031524452
10
-5.025330043520773
20
-5.660349292619192
10
-5.08357849402507
20
-5.840147804234511
10
-5.129436057182737
20
-6.04902823350125
10
-5.159510144807286
20
-6.280834311511586
10
-5.1701600724257455
20
-6.526209771703308
10
-5.158080599829711
20
-6.774149467575368
10
-5.120895055348207
20
-7.0135610802257515
10
-5.057749997772909
20
-7.23481096239869
10
-4.969817441769733
20
-7.431084748428247
10
-4.8602183720936445
20
-7.598638762804357
10
-4.73349314971471
20
-7.7361848780172755
10
-4.595028818491988
20
-7.844190742961201
10
-4.450493093757259
20
-7.924193275191921
10
-4.305289509540799
20
-7.978142384982663
10
-4.164194321534223
20
-8.007964807256164
10
-4.031238500194837
20
-8.015423696097985
10
-3.90963412492471
20
-8.002036586595992
10
-3.8016972190096707
20
-7.968996664524457
10
-3.7088354701385837
20
-7.917125058636151
10
-3.6317271411031973
20
-7.846909183377659
10
-3.5705911633443153
20
-7.7585834035950025
0
LWPOLYLINE
5
296
100
AcDbEntity
8
0
100
AcDbPolyline
90
17
43
0.0
10
-8.42460528799168
20
-5.131364177310111
10
-8.476931986009806
20
-5.6189575544770465
10
-8.522452540534138
20
-6.084190383716428
10
-8.560963285383242
20
-6.526393550805478
10
-8.59212455428317
20
-6.94445113392896
10
-8.615472176815931
20
-7.336838171867164
10
-8.630440010467876
20
-7.701694689609509
10
-8.636396029365129
20
-8.036944262398757
10
-8.63269476880303
20
-8.340466314245754
10
-8.618742678353586
20
-8.610310825611144
10
-8.594084302548964
20
-8.844981466916567
10
-8.558513054554103
20
-9.043799528576022
10
-8.512098081115528
20
-9.206992181693993
10
-8.455094496316221
20
-9.335397564737653
10
-8.387834199482143
20
-9.430106082396378
10
-8.310630579014475
20
-9.492147324535347
10
-8.22370887713451
20
-9.522261290169817
0
LWPOLYLINE
5
297
100
AcDbEntity
8
0
100
AcDbPolyline
90
2
43
0.0
10
-22.42484487538805
20
-21.298602204261446
10
-22.507904348857657
20
-20.398644989077138
0
LWPOLYLINE
5
298
100
AcDbEntity
8
0
100
AcDbPolyline
90
5
43
0.0
10
-4.818743362159665
20
-11.443444890928193
10
-4.787791694659142
20
-11.301446081842998
10
-4.75764321899857
20
-11.18009823886536
10
-4.728370452258204
20
-11.079601121511946
10
-4.699999894946814
20
-10.999999754130842
0
LWPOLYLINE
5
299
100
AcDbEntity
8
0
100
AcDbPolyline
90
5
43
0.0
10
-4.818743362159665
20
-11.443444890928193
10
-4.787791694659142
20
-11.301446081842998
10
-4.75764321899857
20
-11.18009823886536
10
-4.728370452258204
20
-11.079601121511946
10
-4.699999894946814
20
-10.999999754130842
0
LWPOLYLINE
5
300
100
AcDbEntity
8
0
100
AcDbPolyline
90
14
43
0.0
10
-8.223708877134511
20
-9.522261290169817
10
-8.231638401137342
20
-9.506011937993938
10
-8.229038771931295
20
-9.509746653469602
10
-8.215908293071577
20
-9.53346666835287
10
-8.192258389373512
20
-9.577145153638991
10
-8.15812621408804
20
-9.640701703213974
10
-8.113588017547915
20
-9.723975336284663
10
-8.058772457378577
20
-9.826697612445168
10
-7.993872924080014
20
-9.94846765717801
10
-7.919159229014072
20
-10.088728424062367
10
-7.834990603632483
20
-10.246740403549111
10
-7.640270238192795
20
-10.611951627138556
10
-7.414916882144437
20
-11.033441503616213
10
-7.166020038021031
20
-11.496682231074292
0
LWPOLYLINE
5
301
100
AcDbEntity
8
0
100
AcDbPolyline
90
14
43
0.0
10
-8.223708877134511
20
-9.522261290169817
10
-8.231638401137342
20
-9.506011937993938
10
-8.229038771931295
20
-9.509746653469602
10
-8.215908293071577
20
-9.53346666835287
10
-8.192258389373512
20
-9.577145153638991
10
-8.15812621408804
20
-9.640701703213974
10
-8.113588017547915
20
-9.723975336284663
10
-8.058772457378577
20
-9.826697612445168
10
-7.993872924080014
20
-9.94846765717801
10
-7.919159229014072
20
-10.088728424062367
10
-7.834990603632483
20
-10.246740403549111
10
-7.640270238192795
20
-10.611951627138556
10
-7.414916882144437
20
-11.033441503616213
10
-7.166020038021031
20
-11.496682231074292
0
LWPOLYLINE
5
302
100
AcDbEntity
8
0
100
AcDbPolyline
90
5
43
0.0
10
-0.4999999888241291
20
-10.29999976977706
10
-0.06413543035071592
20
-10.877256976577886
10
0.36272066229815747
20
-11.42918152844704
10
0.7797890956014755
20
-11.953582259766492
10
1.186025663819057
20
-12.447522765581244
0
LWPOLYLINE
5
303
100
AcDbEntity
8
0
100
AcDbPolyline
90
13
43
0.0
10
6.1584719101180125
20
-16.360608886423098
10
6.763422302381518
20
-16.436085422119195
10
7.417037467743679
20
-16.540167938005588
10
8.080699916479132
20
-16.684012231816254
10
8.710583970369182
20
-16.879605131337694
10
9.000230659995214
20
-17.000106436898214
10
9.267809197594783
20
-17.136982873469808
10
9.510823657963842
20
-17.290696738779115
10
9.727803501708088
20
-17.46138897551032
10
9.918047222660563
20
-17.648983585268216
10
10.081369161652237
20
-17.85328758130428
10
10.217878384690406
20
-18.074075617023706
10
10.327772657448854
20
-18.311165942480987
0
LWPOLYLINE
5
304
100
AcDbEntity
8
0
100
AcDbPolyline
90
9
43
0.0
10
16.77399185438554
20
-19.39948866404173
10
15.705480427085147
20
-18.78577895619971
10
14.587014140630993
20
-18.193108743314614
10
13.414862652454632
20
-17.62304913428791
10
12.184573920813756
20
-17.07747519616346
10
10.89367901951427
20
-16.557426766934434
10
9.544091126205865
20
-16.062098073308977
10
8.140690720284956
20
-15.58943360310589
10
6.688454952526934
20
-15.137337129045555
0
LWPOLYLINE
5
305
100
AcDbEntity
8
0
100
AcDbPolyline
90
2
43
0.0
10
-1.580819773180842
20
-3.65470973281783
10
-1.5807909527669928
20
-3.654711562467144
0
LWPOLYLINE
5
306
100
AcDbEntity
8
0
100
AcDbPolyline
90
3
43
0.0
10
-1.72873654463833
20
-2.6271213648646383
10
-1.833367368159691
20
-2.651414801782606
10
-1.9501014176929434
20
-2.7374761703679362
0
LWPOLYLINE
5
307
100
AcDbEntity
8
0
100
AcDbPolyline
90
17
43
0.0
10
1.8262549096556184
20
-5.1694832779850985
10
1.9771621624465832
20
-5.3960460200208065
10
2.1438341746046663
20
-5.577326495043759
10
2.324876561404333
20
-5.713574339584966
10
2.516386001544387
20
-5.806190801164434
10
2.710630132375192
20
-5.858571379761067
10
2.8962773128599095
20
-5.875958700104251
10
3.0620189801870703
20
-5.86310685453909
10
3.201333469846702
20
-5.8212255629914305
10
3.315903803623009
20
-5.745891121295261
10
3.4120895196294407
20
-5.6298293884533
10
3.492292685060635
20
-5.469296446674457
10
3.547400074373395
20
-5.269958587640123
10
3.5588400010423564
20
-5.047383383617817
10
3.509144514065766
20
-4.822791342213789
10
3.393480540911034
20
-4.618319409774121
10
3.227181362514898
20
-4.4531528492805705
0
LWPOLYLINE
5
308
100
AcDbEntity
8
0
100
AcDbPolyline
90
12
43
0.0
10
2.2336880116827253
20
-3.2553164401596333
10
2.3580543175436075
20
-3.157235125225524
10
2.459884769565522
20
-2.998655135365527
10
2.5327236203026153
20
-2.7853959698010247
10
2.561622416552812
20
-2.5346846918787036
10
2.5270179809174618
20
-2.2772302128014963
10
2.481260537707176
20
-2.1587312571387773
10
2.4159593943216677
20
-2.0550191421303534
10
2.332308934770856
20
-1.9723526837449035
10
2.2326965571456134
20
-1.9164289651859239
10
2.1205172191064956
20
-1.8915863480975297
10
1.9999999552965153
20
-1.8999999575316895
0
LWPOLYLINE
5
309
100
AcDbEntity
8
0
100
AcDbPolyline
90
8
43
0.0
10
1.5834403990136963
20
-2.154467699615939
10
1.4363830110798665
20
-2.3380009716687398
10
1.3871987740541576
20
-2.4254077089891437
10
1.3569116131522423
20
-2.5043183266086544
10
1.3466831410414317
20
-2.5721059317317465
10
1.357129890679758
20
-2.6272354140220466
10
1.3884965435015006
20
-2.6689568852990435
10
1.4408169011811611
20
-2.697023036487659
0
LWPOLYLINE
5
310
100
AcDbEntity
8
0
100
AcDbPolyline
90
2
43
0.0
10
-4.395826517541726
20
-36.800228588606444
10
-5.21303342332122
20
-36.69955837692053
0
LWPOLYLINE
5
311
100
AcDbEntity
8
0
100
AcDbPolyline
90
5
43
0.0
10
9.850307558129137
20
-33.81496912473527
10
9.50780036811767
20
-34.24645094841664
10
9.149267655920305
20
-34.69737078216605
10
8.77474619245348
20
-35.16766418403396
10
8.384265067292649
20
-35.65728786407281
0
LWPOLYLINE
5
312
100
AcDbEntity
8
0
100
AcDbPolyline
90
2
43
0.0
10
28.894395570892634
20
-35.465400919362374
10
28.894396725172555
20
-35.46540750915428
0
LWPOLYLINE
5
313
100
AcDbEntity
8
0
100
AcDbPolyline
90
55
43
0.0
10
-22.938599581477195
20
-10.729933964713398
10
-23.36060637261543
20
-10.794726784934939
10
-23.760421969451734
20
-10.85485640603467
10
-24.138027993639714
20
-10.910345807302718
10
-24.49340926010627
20
-10.961261546662536
10
-24.82656720533486
20
-11.00773826182993
10
-25.13753342344322
20
-11.0500031544245
10
-25.426383307359863
20
-11.08840024583609
10
-25.693249909342583
20
-11.12341508410823
10
-25.938338160357002
20
-11.15570041546202
10
-26.161939100460508
20
-11.186101167889115
10
-26.364444001115725
20
-11.215677942885854
10
-26.546359231777004
20
-11.24573331144663
10
-26.85110583006176
20
-11.313837519605796
10
-27.08288818315693
20
-11.40582728875485
10
-27.250353739500863
20
-11.539264821163794
10
-27.313118575055903
20
-11.627007382931987
10
-27.36375341944087
20
-11.731447715220202
10
-27.403708769611097
20
-11.85434273520079
10
-27.434443528171805
20
-11.997192055044412
10
-27.45738236849636
20
-12.161201726162144
10
-27.47387454059652
20
-12.347246776103955
10
-27.485154475263197
20
-12.555831428037193
10
-27.49230048626515
20
-12.787047972661295
10
-27.49619745965529
20
-13.040541778993594
10
-27.497530844758355
20
-13.315514128875265
10
-27.494370136909676
20
-13.924682050903026
10
-27.48511654435111
20
-14.600625692657998
10
-27.470305064356683
20
-15.324664106308067
10
-27.449449245235176
20
-16.074540275915144
10
-27.421769746301983
20
-16.825589762697852
10
-27.386937632372277
20
-17.551886196286226
10
-27.345446062773917
20
-18.22762031039683
10
-27.322398242976295
20
-18.53901095045457
10
-27.297781455123545
20
-18.82925719612912
10
-27.271398341613036
20
-19.096204475591733
10
-27.24285102704036
20
-19.338176283286458
10
-27.21148942534777
20
-19.554060097118146
10
-27.176366981067456
20
-19.743382409155494
10
-27.136188858197524
20
-19.906396733996885
10
-27.08924527033427
20
-20.044196232261882
10
-27.033394052530227
20
-20.15874434961765
10
-26.966136977302128
20
-20.25274940298691
10
-26.884735959879812
20
-20.329472256328696
10
-26.78635473409208
20
-20.39249094695981
10
-26.66821050045432
20
-20.44545024262469
10
-26.527726947815935
20
-20.491810774152402
10
-26.362642644236985
20
-20.534667335654646
10
-26.171055781532203
20
-20.576665375524172
10
-25.951420444016744
20
-20.619992798993103
10
-25.702500384881176
20
-20.666437981795948
10
-25.423327463618264
20
-20.717440849598145
10
-25.113172632221197
20
-20.774124799833967
10
-24.771514189691814
20
-20.837333162348028
10
-24.398001704682873
20
-20.907672674191357
0
LWPOLYLINE
5
314
100
AcDbEntity
8
0
100
AcDbPolyline
90
5
43
0.0
10
-23.933864116490756
20
-20.996921973296985
10
-23.58682379606759
20
-21.06488387262824
10
-23.219638821735273
20
-21.13780094577069
10
-22.83231005458399
20
-21.215703702463202
10
-22.42484487538805
20
-21.298602204261446
0
LWPOLYLINE
5
315
100
AcDbEntity
8
0
100
AcDbPolyline
90
26
43
0.0
10
14.336508283092403
20
5.683524845541671
10
14.04307982095007
20
5.6260497762693
10
13.728311773514747
20
5.562969297376618
10
13.392415736126818
20
5.494290355778295
10
13.035774427365249
20
5.4200483417592
10
12.65898037243772
20
5.340314898730921
10
12.26287390917841
20
5.255205654428137
10
11.417616595873673
20
5.069602140539079
10
10.513616381365347
20
4.86544052988829
10
9.570988484873883
20
4.646155539871324
10
7.676849626946646
20
4.180989372617763
10
6.786419588743542
20
3.945923902390507
10
6.369217803147987
20
3.830231255587868
10
5.975823108311175
20
3.7166780473062366
10
5.609877085820541
20
3.605912703062606
10
5.274780725728235
20
3.498541759538734
10
4.973632541487256
20
3.395119225189868
10
4.709161304733245
20
3.296135127984079
10
4.483641853416421
20
3.2020014481522407
10
4.298811688725605
20
3.113038251075722
10
4.155862009780111
20
3.0294719816043725
10
4.055514848073462
20
2.951447821867613
10
3.9981194493746033
20
2.879045224013735
10
3.9837625733149755
20
2.812295803645273
10
4.012383414161487
20
2.751202036526472
10
4.083878458408393
20
2.695754392625945
0
LWPOLYLINE
5
316
100
AcDbEntity
8
0
100
AcDbPolyline
90
9
43
0.0
10
4.083878458408394
20
2.695754392625945
10
5.960181433029952
20
1.551063760569556
10
7.856076306049136
20
0.4386730694627448
10
9.772966596229411
20
-0.6391037868464496
10
11.71270956959142
20
-1.679204849706964
10
13.676847276042453
20
-2.679087837613324
10
15.665575507919588
20
-3.6384299599494705
10
17.677561495650018
20
-4.559428470783296
10
19.71092278017372
20
-5.445186862956018
0
ENDSEC
0
SECTION
2
OBJECTS
0
DICTIONARY
5
C
100
AcDbDictionary
3
ACAD_GROUP
350
D
3
ACAD_MLINESTYLE
350
17
0
DICTIONARY
5
D
100
AcDbDictionary
0
DICTIONARY
5
1A
330
C
100
AcDbDictionary
0
DICTIONARY
5
17
100
AcDbDictionary
0
ENDSEC
0
EOF
