0
SECTION
2
HEADER
9
$INSUNITS
70
4
9
$ACADVER
1
AC1014
9
$HANDSEED
5
FFFF
0
ENDSEC
0
SECTION
2
TABLES
0
TABLE
2
VPORT
5
8
100
AcDbSymbolTable
0
ENDTAB
0
TABLE
2
LTYPE
5
5
100
AcDbSymbolTable
0
LTYPE
5
14
100
AcDbSymbolTableRecord
100
AcDbLinetypeTableRecord
2
BYBLOCK
70
0
0
LTYPE
5
15
100
AcDbSymbolTableRecord
100
AcDbLinetypeTableRecord
2
BYLAYER
70
0
0
LTYPE
5
16
100
AcDbSymbolTableRecord
100
AcDbLinetypeTableRecord
2
DASHED
70
0
3
Dashed __ __ __ __ __ __ __ __ __ __ __ __ __ _
72
65
73
2
40
0.75
49
0.5
74
0
49
-0.25
74
0
0
ENDTAB
0
TABLE
2
LAYER
5
2
100
AcDbSymbolTable
70
2
0
LAYER
5
50
100
AcDbSymbolTableRecord
100
AcDbLayerTableRecord
2
0
70
0
62
7
6
CONTINUOUS
0
ENDTAB
0
TABLE
2
STYLE
5
3
100
AcDbSymbolTable
70
1
0
STYLE
5
11
100
AcDbSymbolTableRecord
100
AcDbTextStyleTableRecord
2
STANDARD
70
0
0
ENDTAB
0
TABLE
2
VIEW
5
6
100
AcDbSymbolTable
70
0
0
ENDTAB
0
TABLE
2
UCS
5
7
100
AcDbSymbolTable
70
0
0
ENDTAB
0
TABLE
2
APPID
5
9
100
AcDbSymbolTable
70
2
0
APPID
5
12
100
AcDbSymbolTableRecord
100
AcDbRegAppTableRecord
2
ACAD
70
0
0
ENDTAB
0
TABLE
2
DIMSTYLE
5
A
100
AcDbSymbolTable
70
1
0
ENDTAB
0
TABLE
2
BLOCK_RECORD
5
1
100
AcDbSymbolTable
70
1
0
BLOCK_RECORD
5
1F
100
AcDbSymbolTableRecord
100
AcDbBlockTableRecord
2
*MODEL_SPACE
0
BLOCK_RECORD
5
1B
100
AcDbSymbolTableRecord
100
AcDbBlockTableRecord
2
*PAPER_SPACE
0
ENDTAB
0
ENDSEC
0
SECTION
2
BLOCKS
0
BLOCK
5
20
100
AcDbEntity
100
AcDbBlockBegin
2
*MODEL_SPACE
0
ENDBLK
5
21
100
AcDbEntity
100
AcDbBlockEnd
0
BLOCK
5
1C
100
AcDbEntity
100
AcDbBlockBegin
2
*PAPER_SPACE
0
ENDBLK
5
1D
100
AcDbEntity
100
AcDbBlockEnd
0
ENDSEC
0
SECTION
2
ENTITIES
0
LWPOLYLINE
5
100
100
AcDbEntity
8
0
100
AcDbPolyline
90
3
43
0.0
10
22.302857706170663
20
-6.515707130029977
10
22.046610084849753
20
-5.761662160895901
10
21.798949259854126
20
-5.029590102076798
0
LWPOLYLINE
5
101
100
AcDbEntity
8
0
100
AcDbPolyline
90
17
43
0.0
10
21.798949259854126
20
-5.029590102076799
10
20.562978187606678
20
-4.5290753189471245
10
19.356324022160923
20
-4.032400486813329
10
18.179821854494573
20
-3.5396749865338992
10
17.03482495149546
20
-3.0510760700465234
10
15.923125650662323
20
-2.5668384990951667
10
14.846808572732172
20
-2.087235318907121
10
13.808059140627888
20
-1.6125527778575102
10
12.808929734326698
20
-1.1430596982541403
10
11.850961293542236
20
-0.6789579135658053
10
10.934787112787356
20
-0.22033037319494422
10
10.060010545865842
20
0.23287487588208297
10
9.225424366071005
20
0.6808159571475032
10
8.429476220226158
20
1.1236961990139904
10
7.67061106332843
20
1.5617192824717023
10
6.947506839519115
20
1.9950583714135541
10
6.259278965603889
20
2.423829329226508
0
LWPOLYLINE
5
102
100
AcDbEntity
8
0
100
AcDbPolyline
90
19
43
0.0
10
6.259278965603889
20
2.423829329226508
10
6.220704530340426
20
2.464859209109078
10
6.216677584678132
20
2.5103249583631135
10
6.247312641934212
20
2.5602402085840907
10
6.312681063223612
20
2.6146113885377096
10
6.412690243366274
20
2.6734212850734163
10
6.5469586142784735
20
2.736612056135624
10
6.714716154002388
20
2.8040717553976013
10
6.914737605887435
20
2.8756253454541163
10
7.145367070973199
20
2.9510382114527802
10
7.404615118136025
20
3.030029599449716
10
7.690245707464751
20
3.1122846975612966
10
7.999843606192832
20
3.197464090729807
10
8.680787599821798
20
3.375171942850264
10
9.427101621182283
20
3.560307629775297
10
10.219763385657364
20
3.7502274092608054
10
11.042904922539362
20
3.942754168173803
10
12.73648439247049
20
4.329736830619781
10
16.164504767277066
20
5.092749598091359
0
LWPOLYLINE
5
103
100
AcDbEntity
8
0
100
AcDbPolyline
90
2
43
0.0
10
16.164504767277066
20
5.092749598091358
10
15.50473112118474
20
5.890873887569327
0
LWPOLYLINE
5
104
100
AcDbEntity
8
0
100
AcDbPolyline
90
30
43
0.0
10
15.50473112118474
20
5.890873887569327
10
15.289063083643022
20
5.856580424935368
10
15.044887812761626
20
5.814909170999895
10
14.772080420648997
20
5.765822192129898
10
14.470510101078741
20
5.709270946070926
10
14.140108357601985
20
5.645209434216805
10
13.78093992746055
20
5.573608021045732
10
13.3932825939496
20
5.494469228101662
10
12.977712121503792
20
5.407844702813055
10
12.535183994149374
20
5.313851702364683
10
12.067115235103804
20
5.212689745342206
10
11.575489902074695
20
5.104662253020958
10
11.06298420941657
20
4.9902023668887345
10
9.98981295483436
20
4.744434269831676
10
8.88346176646673
20
4.481594671483853
10
7.78822171108371
20
4.209488362162673
10
7.259911880858385
20
4.072644103492896
10
6.752768522749705
20
3.9367454792500336
10
6.272931830389565
20
3.8028841037307717
10
5.826323802816796
20
3.6721135811183174
10
5.418516554927706
20
3.545426528628553
10
5.054601756129897
20
3.423732005491648
10
4.739056564398057
20
3.30783255825178
10
4.475580205327214
20
3.1983967457560514
10
4.266919955375048
20
3.095930178117551
10
4.11484665307788
20
3.0007710096777584
10
4.020315585555722
20
2.9131157180600824
10
3.983677446876624
20
2.8330531738532225
10
4.004916053311955
20
2.760603259283206
10
4.083878458408393
20
2.695754392625945
0
LWPOLYLINE
5
105
100
AcDbEntity
8
0
100
AcDbPolyline
90
9
43
0.0
10
4.083878458408394
20
2.695754392625945
10
6.25766747355359
20
1.3735502262894166
10
8.457971316634149
20
0.095059403051007
10
10.687178958114382
20
-1.1357795304844724
10
12.948093201124125
20
-2.3143457676066466
10
15.242070463042454
20
-3.4384030675804143
10
17.567674465602664
20
-4.510319332800588
10
19.922068758665336
20
-5.534770841699417
10
22.302857706170663
20
-6.515707130029977
0
LWPOLYLINE
5
106
100
AcDbEntity
8
0
100
AcDbPolyline
90
25
43
0.0
10
1.8262549096556184
20
-5.1694832779850985
10
1.9221859387383924
20
-5.321404840476854
10
2.024807690515683
20
-5.454336880520921
10
2.2492848129722884
20
-5.663247691710884
10
2.4943506264654274
20
-5.797795952278457
10
2.745445985843534
20
-5.86418109450052
10
2.9785026543910713
20
-5.8733984029603254
10
3.1720995641003755
20
-5.833411480880007
10
3.323036662789252
20
-5.739291758359837
10
3.4433449027156673
20
-5.576443185831314
10
3.532533747841362
20
-5.341318638611847
10
3.5565068931453627
20
-5.203050460419344
10
3.5595317612496418
20
-5.0575267155131876
10
3.536909055233055
20
-4.910713511745042
10
3.4860752897991256
20
-4.768774202156562
10
3.407916612027492
20
-4.637534418236767
10
3.3071594936407123
20
-4.522138530834656
10
3.1914507390397318
20
-4.426975333957394
10
3.0700100816459583
20
-4.355687780578988
10
2.952346774653723
20
-4.3111690478503375
10
2.8469317457838503
20
-4.295555094893549
10
2.7600444629503826
20
-4.310227858259208
10
2.695469467684116
20
-4.355914779207618
10
2.6550906500150693
20
-4.432888577003295
10
2.639564920191879
20
-4.541172177795218
0
LWPOLYLINE
5
107
100
AcDbEntity
8
0
100
AcDbPolyline
90
5
43
0.0
10
2.639564920191879
20
-4.541172177795218
10
2.60445727596844
20
-4.441450649522475
10
2.539014744834378
20
-4.365477764301805
10
2.4398300786134186
20
-4.3159209960961435
10
2.310606833733446
20
-4.289880896502723
0
LWPOLYLINE
5
108
100
AcDbEntity
8
0
100
AcDbPolyline
90
9
43
0.0
10
2.3106068337334644
20
-4.289880896502785
10
2.3415541161856623
20
-4.432858471763071
10
2.350778451668941
20
-4.5817307114051316
10
2.330760675891659
20
-4.726674660760859
10
2.278287290598312
20
-4.859030827536398
10
2.195026924878917
20
-4.972411075129527
10
2.0864703702484935
20
-5.062784311405549
10
1.9605492686161186
20
-5.1283619662580335
10
1.8262549096556184
20
-5.1694832779850985
0
LWPOLYLINE
5
109
100
AcDbEntity
8
0
100
AcDbPolyline
90
21
43
0.0
10
2.2336880116827253
20
-3.2553164401596333
10
2.3378856768100014
20
-3.178766794342052
10
2.427136430826876
20
-3.0607200421510514
10
2.4988952372712063
20
-2.9031804637889427
10
2.5469631983715195
20
-2.712555918686809
10
2.5611327693636414
20
-2.5015681456355887
10
2.5303436873277274
20
-2.2890351925514403
10
2.4473323432783767
20
-2.098858483249463
10
2.3129369712177827
20
-1.9584372706897897
10
2.2292771093847388
20
-1.9151330824370953
10
2.1371244027984067
20
-1.8931175133398908
10
2.0388373864471174
20
-1.8937113646903962
10
1.937095658674516
20
-1.916901063254249
10
1.7351453471926692
20
-2.0231448136712618
10
1.555941895357344
20
-2.1836287458851578
10
1.4228329672540865
20
-2.3597455258516296
10
1.3538823378654787
20
-2.5160602111705663
10
1.3468400295856688
20
-2.5794717964194134
10
1.3588832892573126
20
-2.631104317457508
10
1.3902016378687012
20
-2.6703538876089565
10
1.4408169011811611
20
-2.697023036487659
0
LWPOLYLINE
5
110
100
AcDbEntity
8
0
100
AcDbPolyline
90
9
43
0.0
10
1.4408169011811616
20
-2.697023036487659
10
1.5809086266789611
20
-2.701191315300764
10
1.7232991306270442
20
-2.7256301625037107
10
1.8588840831502766
20
-2.7704024353369254
10
1.9796731586992737
20
-2.8349527283361406
10
2.07985613062763
20
-2.9181695265489136
10
2.1559902697168125
20
-3.018170834811389
10
2.2069191818289227
20
-3.1319977229489453
10
2.2336880116827253
20
-3.2553164401596333
0
LWPOLYLINE
5
111
100
AcDbEntity
8
0
100
AcDbPolyline
90
14
43
0.0
10
0.6984800884221944
20
-3.1554619262114367
10
0.7723269431902977
20
-3.311227122999357
10
0.8195475835520311
20
-3.4571519380669162
10
0.8404174043886327
20
-3.592857861328186
10
0.8364163931209319
20
-3.7176336441108284
10
0.8109726864773217
20
-3.830427186706116
10
0.7687752171811061
20
-3.9301890554337513
10
0.646272231322253
20
-4.090666511667303
10
0.4667604273513362
20
-4.210162211959199
10
0.23842658699213365
20
-4.289464069049524
10
0.12691900001550216
20
-4.303979148801139
10
0.030343461146226616
20
-4.295258941918257
10
-0.04590918092509649
20
-4.260823318891185
10
-0.09999999776482582
20
-4.1999999061226845
0
LWPOLYLINE
5
112
100
AcDbEntity
8
0
100
AcDbPolyline
90
17
43
0.0
10
-0.09999999776482582
20
-4.1999999061226845
10
-0.03831842134498831
20
-4.30639091873829
10
0.04904924252238444
20
-4.384151233139117
10
0.16150596862152924
20
-4.432414559555739
10
0.2967616888850412
20
-4.449733675142751
10
0.4498379759786263
20
-4.434305449205755
10
0.6124535960913875
20
-4.384675646136784
10
0.772506026904336
20
-4.300670968925345
10
0.9142505480822007
20
-4.1843086005443375
10
1.0213866128284317
20
-4.040365656109619
10
1.081909839155793
20
-3.8768001712059452
10
1.0927727543325965
20
-3.705113653290354
10
1.0604407647512322
20
-3.5393586023508337
10
0.9962205849271745
20
-3.3933690096037004
10
0.9108175662148715
20
-3.277695107795822
10
0.8106987724462555
20
-3.197826257650249
10
0.6984800884221943
20
-3.1554619262114367
0
LWPOLYLINE
5
113
100
AcDbEntity
8
0
100
AcDbPolyline
90
2
43
0.0
10
-0.198195957474714
20
-4.189227185825384
10
-0.09999999776480667
20
-4.1999999061226845
0
LWPOLYLINE
5
114
100
AcDbEntity
8
0
100
AcDbPolyline
90
5
43
0.0
10
-0.09999999776480667
20
-4.1999999061226845
10
0.02769989211841923
20
-4.189188111806479
10
0.13968523357273527
20
-4.152673758318418
10
0.2230373316614069
20
-4.098090881503034
10
0.2649456422783573
20
-4.0338439424309085
0
LWPOLYLINE
5
115
100
AcDbEntity
8
0
100
AcDbPolyline
90
2
43
0.0
10
0.2649456422783573
20
-4.0338439424309085
10
0.26767768392139907
20
-4.003842906197099
0
LWPOLYLINE
5
116
100
AcDbEntity
8
0
100
AcDbPolyline
90
9
43
0.0
10
0.26767768392140057
20
-4.0038429061970975
10
0.24180899010064644
20
-3.944266569005954
10
0.1730669237777118
20
-3.88487490050203
10
0.061012453643178644
20
-3.8261068458199876
10
-0.09398880851530345
20
-3.7680038565879337
10
-0.2912791638848366
20
-3.710553891391602
10
-0.5301002227430617
20
-3.6537444108917962
10
-0.8097131906967304
20
-3.5975633124309825
10
-1.129503947538524
20
-3.5420008164595354
0
LWPOLYLINE
5
117
100
AcDbEntity
8
0
100
AcDbPolyline
90
8
43
0.0
10
-1.1295039475385238
20
-3.5420008164595362
10
-1.2370375990876188
20
-3.5441426953794917
10
-1.3127358570581267
20
-3.557183083544184
10
-1.3556138690358681
20
-3.580972044891019
10
-1.3671402065309937
20
-3.6137368242282006
10
-1.3522306072066825
20
-3.6517974573046486
10
-1.3168223599394795
20
-3.691229868323959
10
-1.2005441964396717
20
-3.7659753425099063
0
LWPOLYLINE
5
118
100
AcDbEntity
8
0
100
AcDbPolyline
90
4
43
0.0
10
-1.200544196439607
20
-3.765975342509927
10
-0.9848148173520306
20
-3.8465632663959175
10
-0.7910928968817444
20
-3.932091156401121
10
-0.4580959418931605
20
-4.097570122717413
0
LWPOLYLINE
5
119
100
AcDbEntity
8
0
100
AcDbPolyline
90
15
43
0.0
10
-0.4580959418931605
20
-4.097570122717413
10
-0.6514823617156729
20
-4.124288767462992
10
-0.8057129782900025
20
-4.1822870226504465
10
-0.9201351200552099
20
-4.270552343373794
10
-0.9941549448198683
20
-4.385535694388837
10
-1.0277398765465433
20
-4.519474584973732
10
-1.0219010630277099
20
-4.659596261941302
10
-0.9789303828891962
20
-4.790400356589852
10
-0.902569097626349
20
-4.897454685920086
10
-0.7982535815986969
20
-4.971251660299976
10
-0.6731057628475624
20
-5.009666620310469
10
-0.5350681086179082
20
-5.016487226847211
10
-0.39170327518700016
20
-4.998405345458347
10
-0.11074768123919333
20
-4.91218068337066
10
0.146422447308278
20
-4.780282963540843
0
LWPOLYLINE
5
120
100
AcDbEntity
8
0
100
AcDbPolyline
90
7
43
0.0
10
0.14642244730826084
20
-4.780282963540834
10
-0.05203330511931007
20
-4.663892619923962
10
-0.18412523461136948
20
-4.526614218116739
10
-0.2201341362266378
20
-4.450119590202941
10
-0.23473471754882694
20
-4.368387924556642
10
-0.2274765942410165
20
-4.281422608814418
10
-0.19819595747477695
20
-4.189227185825377
0
LINE
5
121
100
AcDbEntity
8
0
100
AcDbLine
10
-1.840484487621632
20
-3.6486606034074818
30
0
11
-1.580819773180842
21
-3.65470973281783
31
0
0
LWPOLYLINE
5
122
100
AcDbEntity
8
0
100
AcDbPolyline
90
15
43
0.0
10
-1.580819773180842
20
-3.65470973281783
10
-1.527369828319846
20
-3.647025674853561
10
-1.4846507661814263
20
-3.6164000866267303
10
-1.4528751781439575
20
-3.562820720478675
10
-1.4322938239956642
20
-3.4869125369149314
10
-1.4230868684384026
20
-3.390541586757049
10
-1.4252310768134973
20
-3.2774922172177705
10
-1.4620930418795688
20
-3.0272194898717686
10
-1.5381736968763655
20
-2.7995363072945767
10
-1.589134393998768
20
-2.714392417930124
10
-1.6478118065900234
20
-2.6564442046807892
10
-1.7136368520968825
20
-2.6289138717475793
10
-1.7861547276764063
20
-2.63316724859717
10
-1.8650400264802862
20
-2.669440112951537
10
-1.9501014176929434
20
-2.7374761703679367
0
LWPOLYLINE
5
123
100
AcDbEntity
8
0
100
AcDbPolyline
90
9
43
0.0
10
-1.9501014176929412
20
-2.7374761703679327
10
-1.8521125664368772
20
-2.8202131215994166
10
-1.7759725433396802
20
-2.911027661582356
10
-1.7236793231133196
20
-3.010658448607025
10
-1.6973085780747255
20
-3.119872866041995
10
-1.6975393731692126
20
-3.23892196658989
10
-1.7229351931036134
20
-3.3672746654853456
10
-1.771201649512784
20
-3.504082719265745
10
-1.8404844876216315
20
-3.6486606034074813
0
ARC
5
124
100
AcDbEntity
8
0
100
AcDbCircle
10
-3.38028880432927
20
-6.3921428001670417
30
0
40
1.3796285407830826
210
0
220
0
230
1
100
AcDbArc
50
113.00203671567866
51
262.07149062004828
0
LWPOLYLINE
5
125
100
AcDbEntity
8
0
100
AcDbPolyline
90
30
43
0.0
10
-3.9193977642080102
20
-5.122207195531232
10
-4.013814328531579
20
-5.054417534550211
10
-4.110715167548307
20
-5.012163853642115
10
-4.20991960779484
20
-4.9950393724846505
10
-4.310940744737031
20
-5.00181383728343
10
-4.514139792778226
20
-5.075791343888932
10
-4.7081665279209775
20
-5.206725140129794
10
-4.8811049585839035
20
-5.389598921181264
10
-4.957288092261474
20
-5.511161031524452
10
-5.025330043520773
20
-5.660349292619192
10
-5.08357849402507
20
-5.840147804234511
10
-5.129436057182737
20
-6.04902823350125
10
-5.159510144807286
20
-6.280834311511586
10
-5.1701600724257455
20
-6.526209771703308
10
-5.158080599829711
20
-6.774149467575368
10
-5.120895055348207
20
-7.0135610802257515
10
-5.057749997772909
20
-7.23481096239869
10
-4.969817441769733
20
-7.431084748428247
10
-4.8602183720936445
20
-7.598638762804357
10
-4.73349314971471
20
-7.7361848780172755
10
-4.595028818491988
20
-7.844190742961201
10
-4.450493093757259
20
-7.924193275191921
10
-4.305289509540799
20
-7.978142384982663
10
-4.164194321534223
20
-8.007964807256164
10
-4.031238500194837
20
-8.015423696097985
10
-3.90963412492471
20
-8.002036586595992
10
-3.8016972190096707
20
-7.968996664524457
10
-3.7088354701385837
20
-7.917125058636151
10
-3.6317271411031973
20
-7.846909183377659
10
-3.5705911633443153
20
-7.7585834035950025
0
LINE
5
126
100
AcDbEntity
8
0
100
AcDbLine
10
-5.4849850604211277
20
-13.70878382948078
30
0
11
-7.9997200964464774
21
-8.5904757301841759
31
0
0
ARC
5
127
100
AcDbEntity
8
0
100
AcDbCircle
10
-7.1021989725129107
20
-8.14950426614927
30
0
40
1.0000000000000302
210
0
220
0
230
1
100
AcDbArc
50
175.03494248807243
51
206.16588080085472
0
LINE
5
128
100
AcDbEntity
8
0
100
AcDbLine
10
-8.0984466382725646
20
-8.0629560803306131
30
0
11
-7.8415025624850232
21
-5.1052980622823219
31
0
0
LINE
5
129
100
AcDbEntity
8
0
100
AcDbLine
10
-7.8415025624850232
20
-5.1052980622823219
30
0
11
-8.2291094252832639
21
-4.6491410492960199
31
0
0
LINE
5
130
100
AcDbEntity
8
0
100
AcDbLine
10
-8.2291094252832639
20
-4.6491410492960199
30
0
11
-8.2291094252832639
21
-5.0792319472545326
31
0
0
LINE
5
131
100
AcDbEntity
8
0
100
AcDbLine
10
-8.2291094252832639
20
-5.0792319472545326
30
0
11
-8.42460528799168
21
-5.1313641773101111
31
0
0
LWPOLYLINE
5
132
100
AcDbEntity
8
0
100
AcDbPolyline
90
17
43
0.0
10
-8.42460528799168
20
-5.131364177310111
10
-8.476931986009806
20
-5.6189575544770465
10
-8.522452540534138
20
-6.084190383716428
10
-8.560963285383242
20
-6.526393550805478
10
-8.59212455428317
20
-6.94445113392896
10
-8.615472176815931
20
-7.336838171867164
10
-8.630440010467876
20
-7.701694689609509
10
-8.636396029365129
20
-8.036944262398757
10
-8.63269476880303
20
-8.340466314245754
10
-8.618742678353586
20
-8.610310825611144
10
-8.594084302548964
20
-8.844981466916567
10
-8.558513054554103
20
-9.043799528576022
10
-8.512098081115528
20
-9.206992181693993
10
-8.455094496316221
20
-9.335397564737653
10
-8.387834199482143
20
-9.430106082396378
10
-8.310630579014475
20
-9.492147324535347
10
-8.22370887713451
20
-9.522261290169817
0
LWPOLYLINE
5
133
100
AcDbEntity
8
0
100
AcDbPolyline
90
41
43
0.0
10
-8.223708877134511
20
-9.522261290169817
10
-8.23173024647644
20
-9.50579302678868
10
-8.228424691435
20
-9.510822931009704
10
-8.213790907110354
20
-9.537351094331878
10
-8.187843833283974
20
-9.585342987390318
10
-8.150629891068846
20
-9.654698629905734
10
-8.102243065913758
20
-9.745220114259196
10
-8.04284073076712
20
-9.856579632546929
10
-7.972658195126751
20
-9.988289975749831
10
-7.89202285981373
20
-10.139675796302976
10
-7.801370906121938
20
-10.309839935956377
10
-7.592423472259056
20
-10.701569235114885
10
-7.352072176849231
20
-11.15066782028555
10
-7.088669313686943
20
-11.640005481041587
10
-6.5328760753151665
20
-12.656264711360734
10
-6.261804429819147
20
-13.138354957338702
10
-6.008932285893785
20
-13.573629968247857
10
-5.892130653439875
20
-13.767408759007902
10
-5.783024001608848
20
-13.942299074063621
10
-5.68238493944104
20
-14.096375364585505
10
-5.590813909866872
20
-14.228012182801324
10
-5.508717389241202
20
-14.335925784915219
10
-5.436285299229529
20
-14.419216917454044
10
-5.373465282620464
20
-14.477418179397015
10
-5.319937640580908
20
-14.510540447190108
10
-5.275118147501175
20
-14.519078961001998
10
-5.2382027854951705
20
-14.50395874843089
10
-5.208221873981875
20
-14.466466227451322
10
-5.1840939755364275
20
-14.408180134568322
10
-5.1488386361132426
20
-14.236584364170932
10
-5.123677060582286
20
-14.00494426540218
10
-5.101567199854161
20
-13.729259543283272
10
-5.077886465537231
20
-13.424533408053316
10
-5.017745567386391
20
-12.78117171380535
10
-4.941037007574217
20
-12.166356866159779
10
-4.899453261089075
20
-11.89104015161827
10
-4.857533807242386
20
-11.644821324341969
10
-4.816200562213626
20
-11.431141398222008
10
-4.7760079754852125
20
-11.251955117501936
10
-4.73723971109963
20
-11.10815788245385
10
-4.699999894946814
20
-10.999999754130842
0
LINE
5
134
100
AcDbEntity
8
0
100
AcDbLine
10
-4.6999998949468136
20
-10.999999754130842
30
0
11
-5.0093576746834643
21
-10.660444675434837
31
0
0
LINE
5
135
100
AcDbEntity
8
0
100
AcDbLine
10
-5.0093576746834643
20
-10.660444675434837
30
0
11
-5.4849850604211277
21
-13.70878382948078
31
0
0
LINE
5
136
100
AcDbEntity
8
0
100
AcDbLine
10
3.6752193289216999
20
-12.952021927063644
30
0
11
-0.5000000074505806
21
-9.0000001341104507
31
0
0
LINE
5
137
100
AcDbEntity
8
0
100
AcDbLine
10
-0.5000000074505806
20
-9.0000001341104507
30
0
11
-0.4999999888241291
21
-10.29999976977706
31
0
0
LWPOLYLINE
5
138
100
AcDbEntity
8
0
100
AcDbPolyline
90
9
43
0.0
10
-0.4999999888241291
20
-10.29999976977706
10
-0.03308230639462982
20
-10.917876258970022
10
0.4234279684553125
20
-11.506486137168302
10
0.868523272997412
20
-12.062996043019835
10
1.300917768826736
20
-12.583790077743137
10
1.7197265713836773
20
-13.066379862559119
10
2.1251809166626234
20
-13.511415654879048
10
2.5182879775689986
20
-13.921729719838805
10
2.899999935179949
20
-14.299999680370089
0
LWPOLYLINE
5
139
100
AcDbEntity
8
0
100
AcDbPolyline
90
9
43
0.0
10
2.899999935179949
20
-14.299999680370092
10
3.0966407295631337
20
-14.434373212355004
10
3.287644992039127
20
-14.549313035672252
10
3.472480804520756
20
-14.642985196164357
10
3.650488463860788
20
-14.713115160667858
10
3.821259334554735
20
-14.758294030332214
10
3.9849898053985098
20
-14.779198917027731
10
4.14224976353723
20
-14.777794685133104
10
4.293553313619793
20
-14.75585387140396
0
LWPOLYLINE
5
140
100
AcDbEntity
8
0
100
AcDbPolyline
90
9
43
0.0
10
4.293553313619793
20
-14.75585387140396
10
4.088797655519352
20
-14.546096506316445
10
3.9163256512445197
20
-14.332357217285331
10
3.77912281752547
20
-14.114267765308472
10
3.6808053352229173
20
-13.891382124136312
10
3.623405296264378
20
-13.663449651898686
10
3.6055078506460223
20
-13.430644858744492
10
3.6237571697693864
20
-13.19338165861427
10
3.6752193289217003
20
-12.95202192706364
0
LINE
5
141
100
AcDbEntity
8
0
100
AcDbLine
10
10.327772657448854
20
-18.311165942480987
30
0
11
16.020537662535798
21
-19.678545772134228
31
0
0
LWPOLYLINE
5
142
100
AcDbEntity
8
0
100
AcDbPolyline
90
8
43
0.0
10
16.020537662535798
20
-19.67854577213423
10
16.29528339250302
20
-19.71320000320719
10
16.41273308364364
20
-19.70644404928132
10
16.51510424180594
20
-19.681461212433742
10
16.60159325254124
20
-19.63728008606494
10
16.672733439038304
20
-19.574545349558363
10
16.729820499504672
20
-19.494823238806053
10
16.77399185438554
20
-19.399488664041726
0
LWPOLYLINE
5
143
100
AcDbEntity
8
0
100
AcDbPolyline
90
9
43
0.0
10
16.77399185438554
20
-19.39948866404173
10
15.606649993349173
20
-18.73141852133356
10
14.37958070198052
20
-18.088503788741157
10
13.087727087727554
20
-17.47287427840817
10
11.725634949189354
20
-16.886827137102667
10
10.291791317533818
20
-16.330999582124228
10
8.790625145689285
20
-15.803526270758518
10
7.2288295874734265
20
-15.301588246487553
10
5.6117075306856545
20
-14.822952091324776
0
LWPOLYLINE
5
144
100
AcDbEntity
8
0
100
AcDbPolyline
90
9
43
0.0
10
5.6117075306856545
20
-14.822952091324776
10
5.454160228404273
20
-14.999616967223734
10
5.26845342905204
20
-15.148263007543298
10
5.0522066513881185
20
-15.266521621950622
10
4.802858163240407
20
-15.351843874560918
10
4.519711515959155
20
-15.403536795602886
10
4.204866717256652
20
-15.423689902891342
10
3.86148206994694
20
-15.415445722978696
10
3.4920565171637152
20
-15.381290716351216
0
LWPOLYLINE
5
145
100
AcDbEntity
8
0
100
AcDbPolyline
90
9
43
0.0
10
3.4920565171637152
20
-15.381290716351215
10
3.5906647949039647
20
-15.571134348482035
10
3.708758528762819
20
-15.739925922119646
10
3.848065925738072
20
-15.885798284935367
10
4.010574116860175
20
-16.006604543452852
10
4.197146515256838
20
-16.101411867387007
10
4.40661762870721
20
-16.171479452845865
10
4.636872955097537
20
-16.21909180484827
10
4.886159049645161
20
-16.246143342596515
0
LWPOLYLINE
5
146
100
AcDbEntity
8
0
100
AcDbPolyline
90
16
43
0.0
10
4.88615904964516
20
-16.24614334259651
10
5.135871894450401
20
-16.263459857659264
10
5.423570809980934
20
-16.287113429282787
10
5.749290764273282
20
-16.317491097126236
10
6.112034697897615
20
-16.35542759829228
10
6.508787885878336
20
-16.402360390665205
10
6.9334171359331815
20
-16.460482565436827
10
7.8249121693097905
20
-16.622727770628053
10
8.265948949472946
20
-16.734101186325233
10
8.686033032473416
20
-16.87045441581477
10
9.073467232794727
20
-17.034785606291617
10
9.419603648550842
20
-17.2290673088994
10
9.719455431493792
20
-17.454079257849216
10
9.970895010443025
20
-17.70975338660542
10
10.17354018386894
20
-17.99561683283689
10
10.327772657448854
20
-18.311165942480987
0
LINE
5
147
100
AcDbEntity
8
0
100
AcDbLine
10
18.789522803240388
20
-29.065482492054969
30
0
11
19.618852608758427
21
-28.203449554823518
31
0
0
LWPOLYLINE
5
148
100
AcDbEntity
8
0
100
AcDbPolyline
90
30
43
0.0
10
19.618852608758427
20
-28.203449554823518
10
19.022096115914138
20
-28.25606760355692
10
18.475708062556475
20
-28.31361851224886
10
17.97706753235312
20
-28.37515145721537
10
17.52228231926083
20
-28.439290875476118
10
17.106583354410247
20
-28.50441288885478
10
16.724711144896844
20
-28.568820371243575
10
16.371293899653885
20
-28.630917537870726
10
16.0412205769925
20
-28.6893846883076
10
15.434205043317558
20
-28.792595596849385
10
14.882119094809742
20
-28.88019808817658
10
14.38688220671596
20
-28.968913699744395
10
14.164485290274946
20
-29.023103052171017
10
13.959618000853956
20
-29.090466399600405
10
13.77027310627874
20
-29.17678865003138
10
13.591085076748794
20
-29.28837289439178
10
13.413038332999658
20
-29.43176627627241
10
13.225735810084897
20
-29.613048818005957
10
13.020218011636235
20
-29.837105360078134
10
12.789576658986924
20
-30.107565359659834
10
12.528348505472676
20
-30.427103616170488
10
12.232218232982715
20
-30.797625348177164
10
11.897994923759715
20
-31.22035237058766
10
11.52349016533922
20
-31.69593741846448
10
11.107283839830073
20
-32.224611600330086
10
10.64853218635939
20
-32.806312096041104
10
10.146844050524116
20
-33.44078065882153
10
9.602154687066644
20
-34.127658782390206
10
9.014577876386808
20
-34.866585254267754
10
8.384265067292649
20
-35.657287864072806
0
LWPOLYLINE
5
149
100
AcDbEntity
8
0
100
AcDbPolyline
90
17
43
0.0
10
8.384265067292649
20
-35.65728786407281
10
8.328551411055045
20
-35.73054956813747
10
8.31390734486997
20
-35.7946802334779
10
8.341226905245508
20
-35.84948108815758
10
8.411685445908766
20
-35.89469081473094
10
8.526415110515005
20
-35.93005770268629
10
8.686010992641613
20
-35.955449444336395
10
8.89008557258204
20
-35.97095219728484
10
9.137137055138346
20
-35.976899857002444
10
9.424815726536862
20
-35.97381483745581
10
9.750391349032776
20
-35.96230415484647
10
10.111057749335217
20
-35.942991708193766
10
10.504152897782323
20
-35.91646934893484
10
10.927348657434656
20
-35.88325469383896
10
11.378772133896694
20
-35.84376414519306
10
11.857072580111671
20
-35.79829801579893
10
12.361450776458106
20
-35.74703399687009
0
LINE
5
150
100
AcDbEntity
8
0
100
AcDbLine
10
12.361450776458106
20
-35.747033996870087
30
0
11
12.532824118734837
21
-35.568902854557976
31
0
0
LWPOLYLINE
5
151
100
AcDbEntity
8
0
100
AcDbPolyline
90
9
43
0.0
10
12.532824118734958
20
-35.56890285455784
10
11.98040050058354
20
-35.63258152618641
10
11.45278144460753
20
-35.68384973979422
10
10.95237471626113
20
-35.72150281890906
10
10.482261979231748
20
-35.74399891578645
10
10.044585257259312
20
-35.750266312414425
10
9.638828134956391
20
-35.74056338671669
10
9.262602678728168
20
-35.71608489267954
10
8.91363903347433
20
-35.677966506119056
0
LWPOLYLINE
5
152
100
AcDbEntity
8
0
100
AcDbPolyline
90
25
43
0.0
10
8.913639033474329
20
-35.67796650611905
10
9.372680012143368
20
-35.07274222084285
10
9.8149372450627
20
-34.49941102022908
10
10.240321004507965
20
-33.958164507827895
10
10.648711025071469
20
-33.449286013903595
10
11.039984410422571
20
-32.97311487780005
10
11.414045249172387
20
-32.5300077028522
10
11.770855729498424
20
-32.120296584853776
10
12.110469000775725
20
-31.744244169636858
10
12.433066814619238
20
-31.401991190917695
10
12.739000858946437
20
-31.093498057850052
10
13.028832810342351
20
-30.818487168334986
10
13.303373664310014
20
-30.576385120648485
10
13.563734395060951
20
-30.366248336761004
10
13.811390815537314
20
-30.18666791467065
10
14.048228681024822
20
-30.035700202921955
10
14.276547281196574
20
-29.91085225017477
10
14.718558406559561
20
-29.727176523598366
10
15.16097689611833
20
-29.608426989779783
10
15.627340925813337
20
-29.526640126618766
10
16.137283714785507
20
-29.457687953847405
10
16.70373754915192
20
-29.384620606133524
10
17.333331612848028
20
-29.297563513551903
10
18.028521426427933
20
-29.19171862024303
10
18.789522803234544
20
-29.06548249204933
0
LWPOLYLINE
5
153
100
AcDbEntity
8
0
100
AcDbPolyline
90
5
43
0.0
10
26.268015620385075
20
-29.104658256481013
10
26.205438711782055
20
-29.311763347114724
10
26.098306882427842
20
-29.55077390097407
10
25.94643676196983
20
-29.821780350154516
10
25.74965812409553
20
-30.12479606444308
0
LWPOLYLINE
5
154
100
AcDbEntity
8
0
100
AcDbPolyline
90
17
43
0.0
10
25.749658124095507
20
-30.12479606444311
10
26.09410489880749
20
-30.66165529626342
10
26.423118699372242
20
-31.17732469186484
10
26.736235617910737
20
-31.671167294826425
10
27.032680002317797
20
-32.14211811657787
10
27.31138900363358
20
-32.588717840517454
10
27.57106130118713
20
-33.00917972277941
10
27.810237113865586
20
-33.40149944958695
10
28.027416462005174
20
-33.76361751360807
10
28.221203095295493
20
-34.093616830350854
10
28.390496864299315
20
-34.38998686878139
10
28.53475415022709
20
-34.65198122752494
10
28.65406739449825
20
-34.87972683082277
10
28.748979522015087
20
-35.07396912732574
10
28.820231389896982
20
-35.2357253312706
10
28.868532296812724
20
-35.36596932639985
10
28.894396725172555
20
-35.46540750915429
0
LINE
5
155
100
AcDbEntity
8
0
100
AcDbLine
10
28.894396725172555
20
-35.465407509154304
30
0
11
28.894396725172555
21
-33.838682586972311
31
0
0
LINE
5
156
100
AcDbEntity
8
0
100
AcDbLine
10
28.894396725172555
20
-33.838682586972311
30
0
11
26.268015620385079
21
-29.104658256481013
31
0
0
LWPOLYLINE
5
157
100
AcDbEntity
8
0
100
AcDbPolyline
90
2
43
0.0
10
18.34647328739611
20
-37.29415965702389
10
17.58520704514677
20
-37.86385517695603
0
LWPOLYLINE
5
158
100
AcDbEntity
8
0
100
AcDbPolyline
90
9
43
0.0
10
17.585207045146767
20
-37.863855176956015
10
18.10733034157626
20
-38.23882383799455
10
18.69235849840181
20
-38.606166477706566
10
19.34534479041057
20
-38.965270482355166
10
20.071309552733787
20
-39.31552723151106
10
20.870633588974005
20
-39.65689055995206
10
21.737849715343337
20
-39.99002326001782
10
22.665741521875688
20
-40.31580018454747
10
23.648817652335932
20
-40.63488705633295
0
LWPOLYLINE
5
159
100
AcDbEntity
8
0
100
AcDbPolyline
90
24
43
0.0
10
23.648817652335932
20
-40.63488705633295
10
23.87157891496246
20
-40.62684775742048
10
24.056717102505413
20
-40.636411420903876
10
24.152480735044666
20
-40.63217682469981
10
24.269228507490478
20
-40.60508627866586
10
24.42428488106345
20
-40.53973076931975
10
24.521302894383545
20
-40.48816194366947
10
24.633589192299084
20
-40.421993195534235
10
24.76242538953532
20
-40.34010424650744
10
24.908765225220506
20
-40.24167063925743
10
25.073285764474228
20
-40.12611693092289
10
25.256429676263885
20
-39.99307802711032
10
25.45844274412009
20
-39.842364880024064
10
25.679409821813525
20
-39.67393167915102
10
25.919289237467932
20
-39.48784450488594
10
26.17794328293998
20
-39.28425358044812
10
26.455165546733145
20
-39.06336842579186
10
26.750705913620287
20
-38.82543517283518
10
27.064293402210307
20
-38.570715884403384
10
27.395656764303418
20
-38.299469937967864
10
27.744542589592832
20
-38.01193770961641
10
28.110731630586592
20
-37.708325903618736
10
28.49405297627964
20
-37.38879487284494
10
28.894396725172555
20
-37.0534473282984
0
LINE
5
160
100
AcDbEntity
8
0
100
AcDbLine
10
28.894396725172555
20
-37.053447328298397
30
0
11
28.894396725172555
21
-35.778328257173641
31
0
0
LWPOLYLINE
5
161
100
AcDbEntity
8
0
100
AcDbPolyline
90
9
43
0.0
10
28.894396725172555
20
-35.77832825717364
10
28.439598011003735
20
-36.257188404509925
10
27.93585133634798
20
-36.74956982504252
10
27.37915750408862
20
-37.256577247888515
10
26.765431585300487
20
-37.77933908452752
10
26.094085656979455
20
-38.318017741483175
10
25.36918976941923
20
-38.871488917335725
10
24.596323497922523
20
-39.43821132291186
10
23.779783669691852
20
-40.01699801245298
0
LWPOLYLINE
5
162
100
AcDbEntity
8
0
100
AcDbPolyline
90
9
43
0.0
10
23.779783669691863
20
-40.01699801245298
10
22.96180364532765
20
-39.79440313615869
10
22.178746181133608
20
-39.5421829204447
10
21.433892765080262
20
-39.2575536291215
10
20.731293131365128
20
-38.937079811033215
10
20.07340725171922
20
-38.57867463472437
10
19.458949175261175
20
-38.18342899191225
10
18.884365541769004
20
-37.75435725217178
10
18.346473287396112
20
-37.29415965702389
0
LWPOLYLINE
5
163
100
AcDbEntity
8
0
100
AcDbPolyline
90
17
43
0.0
10
-11.476186381262838
20
-37.85744267014968
10
-11.47447840130334
20
-38.30050125814234
10
-11.450600735726265
20
-38.7010868003445
10
-11.403802938047551
20
-39.05873063081189
10
-11.33274992033878
20
-39.37341644059858
10
-11.235485113651936
20
-39.64632996008426
10
-11.109427761839243
20
-39.88071527520809
10
-10.951442064614492
20
-40.08254034846726
10
-10.75808436557876
20
-40.26000286405699
10
-10.526003526985338
20
-40.42225827843405
10
-10.252404790116936
20
-40.57816863948686
10
-9.935599104088597
20
-40.735068322745285
10
-9.575239978954881
20
-40.89807735721256
10
-9.17196007886591
20
-41.07033394257634
10
-8.72685881502603
20
-41.25351970843921
10
-8.241091222505279
20
-41.448325401494785
10
-7.715530620447204
20
-41.65488692806774
0
LINE
5
164
100
AcDbEntity
8
0
100
AcDbLine
10
-7.7155306204472041
20
-41.654886928067754
30
0
11
-4.6439121715976572
21
-41.654886928067739
31
0
0
LWPOLYLINE
5
165
100
AcDbEntity
8
0
100
AcDbPolyline
90
17
43
0.0
10
-4.643912171597657
20
-41.65488692806773
10
-5.220438769215508
20
-41.35629348660036
10
-5.7776847080709635
20
-41.065654812397426
10
-6.315583689893974
20
-40.7829972846576
10
-6.834031010115612
20
-40.50836156205741
10
-7.332888954545714
20
-40.24179956722097
10
-7.811992971421355
20
-39.983371149478394
10
-8.271158149425679
20
-39.73314062002364
10
-8.710186239724758
20
-39.491173048576506
10
-9.128873811202318
20
-39.25753006279445
10
-9.527020801211691
20
-39.032265474859834
10
-9.904439490476427
20
-38.81542073450442
10
-10.260964279566535
20
-38.607020054631164
10
-10.596461776159689
20
-38.4070654064314
10
-10.910841969627265
20
-38.21553101639134
10
-11.204071323642705
20
-38.032356984133706
10
-11.476186381262838
20
-37.85744267014968
0
LWPOLYLINE
5
166
100
AcDbEntity
8
0
100
AcDbPolyline
90
2
43
0.0
10
-4.520244119405842
20
-37.269117286982244
10
-4.39582651754213
20
-36.800228588607794
0
LWPOLYLINE
5
167
100
AcDbEntity
8
0
100
AcDbPolyline
90
24
43
0.0
10
-4.395826517541726
20
-36.800228588606444
10
-5.133884116542205
20
-36.70888900549907
10
-5.853379354828305
20
-36.627046473546336
10
-7.262731717169442
20
-36.46714194396882
10
-7.9888050983191325
20
-36.35515048506184
10
-8.369794743765993
20
-36.27903307459777
10
-8.767437466024944
20
-36.18447585854916
10
-9.184012204044944
20
-36.06836123368706
10
-9.620145135787634
20
-35.928569940611936
10
-10.074244338416234
20
-35.764386102966434
10
-10.541920733386632
20
-35.57691261615382
10
-11.485069550980466
20
-35.14681012193549
10
-11.938416977940173
20
-34.915598746759805
10
-12.363272621536057
20
-34.68269843410651
10
-12.747839539563461
20
-34.455096589086
10
-13.082040856862656
20
-34.23916414092188
10
-13.358610452057295
20
-34.04004747875275
10
-13.574268847568442
20
-33.86102079563405
10
-13.730834405621614
20
-33.702871784180125
10
-13.83522057593081
20
-33.563831968624406
10
-13.897741846881164
20
-33.44033200052492
10
-13.929723392748842
20
-33.32809757883959
10
-13.939267073544151
20
-33.12281353575577
10
-13.90723399132341
20
-32.930825384029895
0
LWPOLYLINE
5
168
100
AcDbEntity
8
0
100
AcDbPolyline
90
3
43
0.0
10
-13.907233991323412
20
-32.9308253840299
10
-14.019211363394305
20
-33.19546890749719
10
-14.099999684837838
20
-33.434877871286
0
LWPOLYLINE
5
169
100
AcDbEntity
8
0
100
AcDbPolyline
90
2
43
0.0
10
-14.09999968483784
20
-33.434877871286
10
-14.140247078653385
20
-33.60108241306248
0
LWPOLYLINE
5
170
100
AcDbEntity
8
0
100
AcDbPolyline
90
28
43
0.0
10
-14.140247078653385
20
-33.60108241306248
10
-14.118430279052543
20
-33.70166744990467
10
-14.071405151405415
20
-33.82035701837298
10
-13.995828126450668
20
-33.95670512342233
10
-13.887246804041819
20
-34.109936653147216
10
-13.740936346418119
20
-34.27888909267654
10
-13.552794903719878
20
-34.461953218573
10
-13.32022992754645
20
-34.65701013146149
10
-13.043070343177664
20
-34.861366118339554
10
-12.724262394375625
20
-35.071720604240156
10
-12.369670269120203
20
-35.28428341800076
10
-11.586620484936448
20
-35.699696044160966
10
-10.769979156907187
20
-36.07560541290084
10
-10.372719963852184
20
-36.24018868021125
10
-9.992932491764607
20
-36.38598653324859
10
-9.635204979750593
20
-36.511854470978164
10
-9.300991835606206
20
-36.61786317727958
10
-8.988647601213856
20
-36.7052494897021
10
-8.69410478421226
20
-36.776148428259155
10
-8.134371802529481
20
-36.87982602232198
10
-7.567778694868106
20
-36.95341473104023
10
-6.945885272807533
20
-37.018531425402436
10
-6.604088734255021
20
-37.05251813784237
10
-6.238545920942406
20
-37.08896605322534
10
-5.847921852252107
20
-37.12854708617021
10
-5.431490228190428
20
-37.17165759329134
10
-4.98894982524501
20
-37.21849228048556
10
-4.520244119406217
20
-37.26911728698388
0
LWPOLYLINE
5
171
100
AcDbEntity
8
0
100
AcDbPolyline
90
51
43
0.0
10
-22.507904348860535
20
-20.398644989044932
10
-22.947485377095646
20
-20.3124323503595
10
-23.360393540515602
20
-20.236821026593347
10
-23.746607555306607
20
-20.171741131803604
10
-24.106116761508776
20
-20.116992959587698
10
-24.438942611973367
20
-20.072174465585192
10
-24.745160407909477
20
-20.036611584971915
10
-25.024921289118875
20
-20.009285501381626
10
-25.278474509166262
20
-19.988754177133085
10
-25.50619004359857
20
-19.973087924307897
10
-25.708581527722725
20
-19.959799547463838
10
-25.886329517773998
20
-19.94573967285737
10
-26.040305133227726
20
-19.92709489454057
10
-26.17159386462154
20
-19.899586057966292
10
-26.281518868887254
20
-19.85889737279093
10
-26.371665097350256
20
-19.801200641049046
10
-26.44390482310561
20
-19.723644624597043
10
-26.50041832563278
20
-19.6248187931253
10
-26.54367225137482
20
-19.504998776387648
10
-26.60094861759337
20
-19.209986186728425
10
-26.636099134812618
20
-18.860399630170168
10
-26.665029260685195
20
-18.47846511670591
10
-26.732563969692055
20
-17.658562439788604
10
-26.772087786031875
20
-17.218261500444296
10
-26.811732501871237
20
-16.745836188118027
10
-26.848037732313784
20
-16.22966799669136
10
-26.877932741584537
20
-15.661965822490004
10
-26.899229592231716
20
-15.044262242646296
10
-26.911110527070853
20
-14.39290747222925
10
-26.914092955667446
20
-13.741898812637364
10
-26.908148248605126
20
-13.136222338485117
10
-26.900961489024553
20
-12.864553699807232
10
-26.88981557040026
20
-12.62006422670097
10
-26.873256569128582
20
-12.406167416651996
10
-26.849241760632918
20
-12.224701857073523
10
-26.81505655960283
20
-12.075578798794227
10
-26.767321246988555
20
-11.956671732537329
10
-26.702199445220273
20
-11.86424809491354
10
-26.615669442318072
20
-11.79357376343464
10
-26.503786096490938
20
-11.739492427669811
10
-26.362962831783378
20
-11.697045905187808
10
-26.190174369479728
20
-11.661935973996785
10
-25.98298633418798
20
-11.630637676162273
10
-25.739504012874058
20
-11.60035009855623
10
-25.458295933269692
20
-11.56889619579515
10
-25.13832884173721
20
-11.534644263921741
10
-24.778904763124252
20
-11.496432716795427
10
-24.37959438554282
20
-11.453486800696004
10
-23.94017263889647
20
-11.4053389198745
10
-23.460555598802117
20
-11.351750930133237
10
-22.940736922771958
20
-11.292634879839213
0
LWPOLYLINE
5
172
100
AcDbEntity
8
0
100
AcDbPolyline
90
2
43
0.0
10
-22.940736922771954
20
-11.292634879839209
10
-22.938599581477195
20
-10.729933964713398
0
LWPOLYLINE
5
173
100
AcDbEntity
8
0
100
AcDbPolyline
90
59
43
0.0
10
-22.938599581477195
20
-10.729933964713398
10
-23.38817372619932
20
-10.798914165963577
10
-23.812472163815627
20
-10.86258431565529
10
-24.211472493383134
20
-10.920976856388108
10
-24.585158791081987
20
-10.974185022877014
10
-24.933540227407722
20
-11.02239678238398
10
-25.256669839196874
20
-11.065928642618973
10
-25.55466347878316
20
-11.105259302918617
10
-25.82771920045508
20
-11.141064410881418
10
-26.076137004387157
20
-11.174251982749693
10
-26.30033842522862
20
-11.20599574499844
10
-26.50088650456895
20
-11.237769097348561
10
-26.678507241995
20
-11.271385130725488
10
-26.834104193975794
20
-11.309008622811287
10
-26.968754263481312
20
-11.353091295499045
10
-27.083694485280354
20
-11.40627467398789
10
-27.18030542692043
20
-11.471285185791983
10
-27.260097259369303
20
-11.550826100074767
10
-27.32469803115542
20
-11.647470407578748
10
-27.37582755326746
20
-11.763571266881831
10
-27.41525508239663
20
-11.90119155703563
10
-27.44474564551389
20
-12.062047113084528
10
-27.466001108434636
20
-12.247456602702606
10
-27.480604492049647
20
-12.458288249930087
10
-27.489964590709715
20
-12.694903902538407
10
-27.49525916019204
20
-12.95710368199007
10
-27.49740540410872
20
-13.244104374424959
10
-27.497077704639008
20
-13.554574685969918
10
-27.494738821972618
20
-13.88668655847174
10
-27.485018488612642
20
-14.606359132519554
10
-27.46895373639755
20
-15.380569686695221
10
-27.41505048367845
20
-16.980878082095014
10
-27.3760779548788
20
-17.745186132647678
10
-27.353781268861848
20
-18.10465501679838
10
-27.329743516025804
20
-18.444135658655334
10
-27.30395024584603
20
-18.760398640299748
10
-27.276216390080975
20
-19.0506850052152
10
-27.246114094155793
20
-19.31282726019803
10
-27.21289972611534
20
-19.545370488394294
10
-27.175451189297814
20
-19.74767828202759
10
-27.13219733983337
20
-19.920052659265387
10
-27.08102840719493
20
-20.063885462551838
10
-27.019281797017047
20
-20.181684249064737
10
-26.943855265710834
20
-20.27688608870742
10
-26.851375581358717
20
-20.35357810794972
10
-26.738399069574417
20
-20.416164582333003
10
-26.601624273556006
20
-20.469016903349058
10
-26.438087168515285
20
-20.516152233474926
10
-26.24526690432614
20
-20.56105029792265
10
-26.021113882756993
20
-20.60659032096803
10
-25.76400431485636
20
-20.655102414492728
10
-25.47267663653495
20
-20.70844751609624
10
-25.146188016054786
20
-20.768066639326506
10
-24.783871966213884
20
-20.835028834625124
10
-24.38528898479048
20
-20.91009041999647
10
-23.950179028564115
20
-20.993751761855226
10
-23.478417258695202
20
-21.08630936316744
10
-22.96996911746103
20
-21.187909365484188
10
-22.424844875388054
20
-21.298602204261442
0
LWPOLYLINE
5
174
100
AcDbEntity
8
0
100
AcDbPolyline
90
2
43
0.0
10
-22.42484487538805
20
-21.298602204261446
10
-22.507904348857657
20
-20.398644989077138
0
LWPOLYLINE
5
175
100
AcDbEntity
8
0
100
AcDbPolyline
90
9
43
0.0
10
-13.614189050964836
20
-11.040289968111036
10
-13.390107160916834
20
-11.871761829015846
10
-13.19950967903047
20
-12.656748749055355
10
-13.045800293022895
20
-13.390525537259537
10
-12.933550320552142
20
-14.066746033021081
10
-12.86645457076951
20
-14.680280894200118
10
-12.844723528198495
20
-15.230837914314423
10
-12.865494903161334
20
-15.722390685063221
10
-12.925707416754053
20
-16.159189046198843
0
LWPOLYLINE
5
176
100
AcDbEntity
8
0
100
AcDbPolyline
90
9
43
0.0
10
-12.925707416754053
20
-16.159189046198843
10
-13.174451036174673
20
-16.41590880594837
10
-13.476568671919091
20
-16.693592017364264
10
-13.836194060455133
20
-16.993862267931696
10
-14.257176700178801
20
-17.318231506337888
10
-14.739195148100187
20
-17.666573480995154
10
-15.277228543641543
20
-18.036916173023872
10
-15.86508737189483
20
-18.426828556890797
10
-16.49816892326105
20
-18.834502848832102
0
LWPOLYLINE
5
177
100
AcDbEntity
8
0
100
AcDbPolyline
90
2
43
0.0
10
-16.498168923261048
20
-18.83450284883214
10
-16.46766475380334
20
-19.409455779020547
0
LWPOLYLINE
5
178
100
AcDbEntity
8
0
100
AcDbPolyline
90
17
43
0.0
10
-16.46766475380334
20
-19.409455779020547
10
-16.003887972699246
20
-19.09693037563012
10
-15.561309951218197
20
-18.797219869131375
10
-15.140571848607358
20
-18.51071184775041
10
-14.742749370542384
20
-18.238056588086177
10
-14.369322009305856
20
-17.98014846044045
10
-14.022110360831245
20
-17.738088036241425
10
-13.703169696789148
20
-17.513117751131382
10
-13.414629310279906
20
-17.306524787568282
10
-13.158501961519546
20
-17.119525882525384
10
-12.93642525729152
20
-16.953110988360173
10
-12.749291113762215
20
-16.807819278774296
10
-12.597101767268283
20
-16.68365210565885
10
-12.479184896974953
20
-16.580203043244815
10
-12.394548281275705
20
-16.496872282023894
10
-12.342221519193233
20
-16.43307320331217
10
-12.321491165139763
20
-16.388374520949085
0
LWPOLYLINE
5
179
100
AcDbEntity
8
0
100
AcDbPolyline
90
8
43
0.0
10
-12.321491165139745
20
-16.3883745209491
10
-12.262403171781363
20
-15.56324865513208
10
-12.24900794644956
20
-15.178020287565031
10
-12.247912241198703
20
-14.813610967359017
10
-12.25990194668069
20
-14.471350949245133
10
-12.284675652866339
20
-14.15073004505394
10
-12.321227049752551
20
-13.8500449025026
10
-12.368631504241796
20
-13.567730421479196
0
LWPOLYLINE
5
180
100
AcDbEntity
8
0
100
AcDbPolyline
90
21
43
0.0
10
-12.368631504241797
20
-13.567730421479197
10
-12.496290838851865
20
-12.734154496692156
10
-12.635927728317814
20
-11.95911794401337
10
-12.784134488639163
20
-11.2464889855042
10
-12.93614790275968
20
-10.601779460690475
10
-13.086589709100714
20
-10.031248038524717
10
-13.159549255470699
20
-9.775714347207446
10
-13.230186209870277
20
-9.5408919296767
10
-13.297977577398372
20
-9.32729799192622
10
-13.362498077542103
20
-9.135281052855827
10
-13.423444910421187
20
-8.964974214341158
10
-13.480666485945216
20
-8.816238293201652
10
-13.534188707812772
20
-8.688608853112395
10
-13.584232929314682
20
-8.581258981618852
10
-13.675718413431825
20
-8.422334764202912
10
-13.760052031298692
20
-8.327074042614008
10
-13.843123016596037
20
-8.281563865290929
10
-13.930287824036284
20
-8.273229696769048
10
-14.02515701178744
20
-8.293134191698387
10
-14.129470096736885
20
-8.336314043532461
10
-14.24378538856201
20
-8.400639718019056
0
LWPOLYLINE
5
181
100
AcDbEntity
8
0
100
AcDbPolyline
90
9
43
0.0
10
-14.243785388562014
20
-8.400639718019056
10
-14.753786051743706
20
-8.61887654323052
10
-15.237312696920918
20
-8.83208458127819
10
-15.6917885364084
20
-9.039774366724277
10
-16.113905874879592
20
-9.241317596914985
10
-16.501342412787164
20
-9.436273146890697
10
-16.85461108039533
20
-9.6247384486752
10
-17.176246595817997
20
-9.807194976517295
10
-17.46867203540081
20
-9.98410299811168
0
LWPOLYLINE
5
182
100
AcDbEntity
8
0
100
AcDbPolyline
90
5
43
0.0
10
-17.46867203540081
20
-9.98410299811168
10
-17.532111253279155
20
-10.079142078077291
10
-17.55478882180172
20
-10.179023320077363
10
-17.532012853553795
20
-10.284304083249769
10
-17.46867203540081
20
-10.394403630178534
0
LINE
5
183
100
AcDbEntity
8
0
100
AcDbLine
10
-17.468672035400811
20
-10.394403630178534
30
0
11
-14.376571300962917
21
-8.96287551238321
31
0
0
ARC
5
184
100
AcDbEntity
8
0
100
AcDbCircle
10
-14.271540408935152
20
-9.1897422391631665
30
0
40
0.2499999999999952
210
0
220
-0
230
1
100
AcDbArc
50
12.242331198873798
51
114.84238910545668
0
LINE
5
185
100
AcDbEntity
8
0
100
AcDbLine
10
-14.027225534733736
20
-9.1367305211760694
30
0
11
-13.614189050964836
21
-11.040289968111036
31
0
0
ENDSEC
0
SECTION
2
OBJECTS
0
DICTIONARY
5
C
100
AcDbDictionary
3
ACAD_GROUP
350
D
3
ACAD_MLINESTYLE
350
17
0
DICTIONARY
5
D
100
AcDbDictionary
0
DICTIONARY
5
1A
330
C
100
AcDbDictionary
0
DICTIONARY
5
17
100
AcDbDictionary
0
ENDSEC
0
EOF
