0
SECTION
2
HEADER
9
$INSUNITS
70
4
9
$ACADVER
1
AC1014
9
$HANDSEED
5
FFFF
0
ENDSEC
0
SECTION
2
TABLES
0
TABLE
2
VPORT
5
8
100
AcDbSymbolTable
0
ENDTAB
0
TABLE
2
LTYPE
5
5
100
AcDbSymbolTable
0
LTYPE
5
14
100
AcDbSymbolTableRecord
100
AcDbLinetypeTableRecord
2
BYBLOCK
70
0
0
LTYPE
5
15
100
AcDbSymbolTableRecord
100
AcDbLinetypeTableRecord
2
BYLAYER
70
0
0
LTYPE
5
16
100
AcDbSymbolTableRecord
100
AcDbLinetypeTableRecord
2
DASHED
70
0
3
Dashed __ __ __ __ __ __ __ __ __ __ __ __ __ _
72
65
73
2
40
0.75
49
0.5
74
0
49
-0.25
74
0
0
ENDTAB
0
TABLE
2
LAYER
5
2
100
AcDbSymbolTable
70
2
0
LAYER
5
50
100
AcDbSymbolTableRecord
100
AcDbLayerTableRecord
2
0
70
0
62
7
6
CONTINUOUS
0
ENDTAB
0
TABLE
2
STYLE
5
3
100
AcDbSymbolTable
70
1
0
STYLE
5
11
100
AcDbSymbolTableRecord
100
AcDbTextStyleTableRecord
2
STANDARD
70
0
0
ENDTAB
0
TABLE
2
VIEW
5
6
100
AcDbSymbolTable
70
0
0
ENDTAB
0
TABLE
2
UCS
5
7
100
AcDbSymbolTable
70
0
0
ENDTAB
0
TABLE
2
APPID
5
9
100
AcDbSymbolTable
70
2
0
APPID
5
12
100
AcDbSymbolTableRecord
100
AcDbRegAppTableRecord
2
ACAD
70
0
0
ENDTAB
0
TABLE
2
DIMSTYLE
5
A
100
AcDbSymbolTable
70
1
0
ENDTAB
0
TABLE
2
BLOCK_RECORD
5
1
100
AcDbSymbolTable
70
1
0
BLOCK_RECORD
5
1F
100
AcDbSymbolTableRecord
100
AcDbBlockTableRecord
2
*MODEL_SPACE
0
BLOCK_RECORD
5
1B
100
AcDbSymbolTableRecord
100
AcDbBlockTableRecord
2
*PAPER_SPACE
0
ENDTAB
0
ENDSEC
0
SECTION
2
BLOCKS
0
BLOCK
5
20
100
AcDbEntity
100
AcDbBlockBegin
2
*MODEL_SPACE
0
ENDBLK
5
21
100
AcDbEntity
100
AcDbBlockEnd
0
BLOCK
5
1C
100
AcDbEntity
100
AcDbBlockBegin
2
*PAPER_SPACE
0
ENDBLK
5
1D
100
AcDbEntity
100
AcDbBlockEnd
0
ENDSEC
0
SECTION
2
ENTITIES
0
POINT
5
100
100
AcDbEntity
8
0
100
AcDbPoint
10
-8.5176834675422448
20
17.10674899530359
30
0
0
POINT
5
101
100
AcDbEntity
8
0
100
AcDbPoint
10
-8.5242887803525953
20
17.062810289382643
30
0
0
POINT
5
102
100
AcDbEntity
8
0
100
AcDbPoint
10
-8.5202401112098176
20
17.084171372409759
30
0
0
POINT
5
103
100
AcDbEntity
8
0
100
AcDbPoint
10
-8.5183935815915053
20
17.099107257748464
30
0
0
POINT
5
104
100
AcDbEntity
8
0
100
AcDbPoint
10
-8.5234632155570829
20
17.120613054244103
30
0
0
LWPOLYLINE
5
105
100
AcDbEntity
8
0
100
AcDbPolyline
90
6
70
1
43
0.0
10
-12.40847488054516
20
19.063695491401653
10
-11.285285556937811
20
21.0508766023992
10
-11.561762928902745
20
19.715333748057155
10
-10.49041311253886
20
20.048646129026508
10
-11.682721779137374
20
18.389781897237278
10
-11.35278325430818
20
19.357452699114329
0
LINE
5
106
100
AcDbEntity
8
0
100
AcDbLine
10
-10.790413112538861
20
15.548646129026501
30
0
11
-11.982721779137375
21
13.889781897237274
31
0
0
LINE
5
107
100
AcDbEntity
8
0
100
AcDbLine
10
-11.861762928902746
20
15.215333748057152
30
0
11
-10.790413112538861
21
15.548646129026501
31
0
0
CIRCLE
5
108
100
AcDbEntity
8
0
100
AcDbCircle
10
-11.861762928902746
20
15.215333748057152
30
0
40
1.6667520415812298
210
0
220
0
230
1
0
CIRCLE
5
109
100
AcDbEntity
8
0
100
AcDbCircle
10
-11.561762928902745
20
19.715333748057155
30
0
40
1.6667520415812276
210
0
220
0
230
1
0
LINE
5
110
100
AcDbEntity
8
0
100
AcDbLine
10
-11.982721779137375
20
13.889781897237274
30
0
11
-11.652783254308176
21
14.857452699114326
31
0
0
LWPOLYLINE
5
111
100
AcDbEntity
8
0
100
AcDbPolyline
90
33
43
0.0
10
-13.587275586414524
20
11.25521999212721
10
-13.407099220592972
20
11.47856758065022
10
-13.21151758136048
20
11.65556716359867
10
-13.000793777942292
20
11.786101578487017
10
-12.775717886513291
20
11.87018024772594
10
-12.537913038970618
20
11.908121206174034
10
-12.290145912086636
20
11.900739864469974
10
-12.036568375130411
20
11.849525130483366
10
-11.782574688991202
20
11.756719355187627
10
-11.534372460117478
20
11.625327540653096
10
-11.298524894397941
20
11.459128595988359
10
-11.081500190899584
20
11.262691902323642
10
-10.889212689123477
20
11.041404993210678
10
-10.726695248839238
20
10.801434963767308
10
-10.598068694623137
20
10.549531147097936
10
-10.506649932063958
20
10.292753445851591
10
-10.45504859350075
20
10.03820515583451
10
-10.445260744600743
20
9.792764332946243
10
-10.478735739457328
20
9.562819954474632
10
-10.556227608474366
20
9.354067666922576
10
-10.677336538758354
20
9.171393258885487
10
-10.839960547776162
20
9.018770634085849
10
-11.039752241042006
20
8.899154973693946
10
-11.269593434004712
20
8.814376677461354
10
-11.519776457939535
20
8.765191721287954
10
-11.77900526869001
20
8.75151592860552
10
-12.035610960099199
20
8.77270158281
10
-12.278721900593121
20
8.827799192052865
10
-12.499469589128823
20
8.915819145850232
10
-12.691744491791473
20
9.035926048958519
10
-12.8519631934607
20
9.18749386034565
10
-12.978378711065963
20
9.370094056218367
10
-13.070411283706218
20
9.583482090450671
0
LINE
5
112
100
AcDbEntity
8
0
100
AcDbLine
10
-12.708474880545159
20
14.563695491401649
30
0
11
-11.585285556937809
21
16.550876602399196
31
0
0
LINE
5
113
100
AcDbEntity
8
0
100
AcDbLine
10
-11.585285556937809
20
16.550876602399196
30
0
11
-11.861762928902746
21
15.215333748057152
31
0
0
LINE
5
114
100
AcDbEntity
8
0
100
AcDbLine
10
-11.652783254308176
20
14.857452699114326
30
0
11
-12.708474880545159
21
14.563695491401649
31
0
0
CIRCLE
5
115
100
AcDbEntity
8
0
100
AcDbCircle
10
-12.04213151878051
20
10.311820931961595
30
0
40
2.2694327813362891
210
0
220
0
230
1
0
LWPOLYLINE
5
116
100
AcDbEntity
8
0
100
AcDbPolyline
90
5
43
0.0
10
-12.019497015551014
20
10.831907750431906
10
-11.972247922819783
20
10.490787856896958
10
-11.894433107060742
20
10.167271297020365
10
-11.782325005628316
20
9.86350483919065
10
-11.639423743452072
20
9.57747270028339
0
LINE
5
117
100
AcDbEntity
8
0
100
AcDbLine
10
-11.639423743452074
20
9.5774727002833906
30
0
11
-13.587275586414524
21
11.255219992127209
31
0
0
LWPOLYLINE
5
118
100
AcDbEntity
8
0
100
AcDbPolyline
90
17
43
0.0
10
-13.070411283706218
20
9.58348209045067
10
-12.931036792591497
20
9.434941899152015
10
-12.767056309491863
20
9.30599446215596
10
-12.57933441368704
20
9.198340643328432
10
-12.370837721066936
20
9.115877746027522
10
-12.147978668563425
20
9.065536413855783
10
-11.92111304090568
20
9.056822356851502
10
-11.70337207834398
20
9.09891696711689
10
-11.509051800978275
20
9.197012510282669
10
-11.35202699438734
20
9.348674942780441
10
-11.244590265000722
20
9.542975673973594
10
-11.19691761055454
20
9.763994438923437
10
-11.216573840020327
20
9.995211866014744
10
-11.307961882588783
20
10.223604377271473
10
-11.472548875667124
20
10.441307859011106
10
-11.710027614554418
20
10.644503448756971
10
-12.019497015551014
20
10.831907750431903
0
LWPOLYLINE
5
119
100
AcDbEntity
8
0
100
AcDbPolyline
90
3
43
0.0
10
-7.53030074821536
20
15.594522973513351
10
-7.559521627293272
20
15.463300023218737
10
-7.569261920319242
20
15.325042439615475
0
LWPOLYLINE
5
120
100
AcDbEntity
8
0
100
AcDbPolyline
90
3
43
0.0
10
-6.664499920473741
20
15.591276215380178
10
-6.734305117891475
20
15.530670152036594
10
-6.813850533829374
20
15.448419062411533
0
LINE
5
121
100
AcDbEntity
8
0
100
AcDbLine
10
-6.9498677905776614
20
19.25770944738748
30
0
11
-5.7771250113346877
21
20.123351888362599
31
0
0
LWPOLYLINE
5
122
100
AcDbEntity
8
0
100
AcDbPolyline
90
11
70
1
43
0.0
10
-7.5497813342673057
20
9.699501229440914
10
-7.5497813342673057
20
9.2633537780401571
10
-6.7229414551121476
20
9.8142199050543173
10
-6.0497812746626618
20
9.1648690234777792
10
-6.0497812746626618
20
9.6150855552313192
10
-6.6872271715265974
20
10.228721929704891
10
-6.04978127466266
20
10.133483840143429
10
-6.04978127466266
20
10.517682863390194
10
-7.5497813342673012
20
10.74170930496429
10
-7.5497813342673012
20
10.35967452636932
10
-6.7499977915150389
20
10.238462520754085
0
LWPOLYLINE
5
123
100
AcDbEntity
8
0
100
AcDbPolyline
90
3
43
0.0
10
-7.32575533972804
20
14.856427742159115
10
-7.222941499815626
20
14.820713458573566
10
-7.120127659903211
20
14.808808697378383
0
LWPOLYLINE
5
124
100
AcDbEntity
8
0
100
AcDbPolyline
90
2
43
0.0
10
-7.120127659903211
20
15.209241567170368
10
-7.230517250166578
20
15.248202627515541
0
LWPOLYLINE
5
125
100
AcDbEntity
8
0
100
AcDbPolyline
90
3
43
0.0
10
-7.005408984289808
20
15.251449367022262
10
-7.058439311252279
20
15.219793517133342
10
-7.120127659903211
20
15.209241567170368
0
LINE
5
126
100
AcDbEntity
8
0
100
AcDbLine
10
-5.6609606550977869
20
21.543975936126245
30
0
11
-5.6609606550977869
21
21.362368449867056
31
0
0
LINE
5
127
100
AcDbEntity
8
0
100
AcDbLine
10
-6.9498677905776605
20
22.170016544787892
30
0
11
-5.6609606550977869
21
21.543975936126245
31
0
0
LINE
5
128
100
AcDbEntity
8
0
100
AcDbLine
10
-6.9498677905776605
20
23.348232400138773
30
0
11
-6.9498677905776605
21
22.170016544787892
31
0
0
LWPOLYLINE
5
129
100
AcDbEntity
8
0
100
AcDbPolyline
90
14
70
1
43
0.0
10
-5.5962223305061487
20
18.973741522659015
10
-5.5962223305061487
20
18.122822005904705
10
-4.4431979170681206
20
16.768507760940317
10
-4.9793724003095301
20
16.622822039432318
10
-4.9793724003095301
20
17.200231893815776
10
-5.2962223372116712
20
17.477641754904759
10
-5.2962223372116712
20
16.922822032726796
10
-5.4550110547978781
20
16.82282203496197
10
-5.4550110547978781
20
16.522822041667492
10
-5.5962223305061487
20
16.522822041667492
10
-5.5962223305061487
20
15.696158794457498
10
-4.4604938681404231
20
15.696158794457498
10
-3.9502633115074719
20
14.995672776029203
10
-3.9502633115074719
20
17.192258562211748
0
LWPOLYLINE
5
130
100
AcDbEntity
8
0
100
AcDbPolyline
90
3
43
0.0
10
-7.120127659903211
20
14.808808697378383
10
-7.001350615785761
20
14.824501333749042
10
-6.89610166536395
20
14.871579242861019
0
LWPOLYLINE
5
131
100
AcDbEntity
8
0
100
AcDbPolyline
90
3
43
0.0
10
-7.498915475474043
20
15.019847659384952
10
-7.420452293620748
20
14.92109224385594
10
-7.32575533972804
20
14.856427742159115
0
LINE
5
132
100
AcDbEntity
8
0
100
AcDbLine
10
-5.5962223305061487
20
12.322822135544808
30
0
11
-5.6374675123717255
21
11.368904291678824
31
0
0
LINE
5
133
100
AcDbEntity
8
0
100
AcDbLine
10
-3.8962223685041102
20
11.522822153426201
30
0
11
-5.5962223305061487
21
12.322822135544808
31
0
0
LWPOLYLINE
5
134
100
AcDbEntity
8
0
100
AcDbPolyline
90
3
43
0.0
10
-6.813850533829374
20
15.448419062411533
10
-6.932627652452631
20
15.321254555126773
10
-7.005408984289808
20
15.251449367022262
0
LINE
5
135
100
AcDbEntity
8
0
100
AcDbLine
10
-4.5008573522688771
20
22.158713044388794
30
0
11
-6.9498677905776605
21
23.348232400138773
31
0
0
LWPOLYLINE
5
136
100
AcDbEntity
8
0
100
AcDbPolyline
90
3
43
0.0
10
-7.230517250166578
20
15.248202627515541
10
-7.268666644261522
20
15.299609547471748
10
-7.281383108959837
20
15.378072729325043
0
LWPOLYLINE
5
137
100
AcDbEntity
8
0
100
AcDbPolyline
90
3
43
0.0
10
-7.569261920319242
20
15.325042439615475
10
-7.551675309107942
20
15.153505654996382
10
-7.498915475474043
20
15.019847659384952
0
LWPOLYLINE
5
138
100
AcDbEntity
8
0
100
AcDbPolyline
90
21
43
0.0
10
-5.5759611577804575
20
9.31906744309033
10
-5.544533554933866
20
9.021662592486761
10
-5.506777989056172
20
8.745283578427575
10
-5.462679469928663
20
8.490055068293383
10
-5.412241945702597
20
8.256159084813346
10
-5.3555141994067155
20
8.04381044221178
10
-5.29261602232885
20
7.853230139882035
10
-5.223766055145633
20
7.684615929545646
10
-5.149312034311155
20
7.538109490541749
10
-5.069759064375868
20
7.413762538373386
10
-4.985800362492603
20
7.311499324667203
10
-4.898357282349635
20
7.231071521451879
10
-4.808597948039931
20
7.172022322674419
10
-4.627817664909541
20
7.115135106483948
10
-4.45554270146883
20
7.133046662069932
10
-4.302712420348782
20
7.215251595354173
10
-4.176035401765874
20
7.348982193420593
10
-4.076828866686987
20
7.520130641228283
10
-4.002765721309277
20
7.714993468555438
10
-3.9159510449240265
20
8.13397307507845
10
-3.8962223685041097
20
8.558219460495998
0
LWPOLYLINE
5
139
100
AcDbEntity
8
0
100
AcDbPolyline
90
12
70
1
43
0.0
10
-6.9112531660658592
20
8.6529640685675009
10
-6.9112531660658592
20
8.1215785276052816
10
-6.6428549407583954
20
8.0836997758505209
10
-6.6428549407583954
20
8.6107562314627035
10
-6.3170973031384232
20
8.5642193090078695
10
-6.3170973031384232
20
7.9570762645361288
10
-6.0497812746626618
20
7.9191975127813681
10
-6.0497812746626618
20
8.9105395804998739
10
-7.5497813342673057
20
9.1280720960256918
10
-7.5497813342673057
20
8.0036131869909628
10
-7.2813831089598411
20
7.9657344352362021
10
-7.2813831089598411
20
8.7038294803259237
0
LINE
5
140
100
AcDbEntity
8
0
100
AcDbLine
10
-7.1352791606051156
20
15.75686063802813
30
0
11
-7.439391744003931
21
15.803397434754418
31
0
0
LWPOLYLINE
5
141
100
AcDbEntity
8
0
100
AcDbPolyline
90
3
43
0.0
10
-7.4393917440039345
20
15.803397434754418
10
-7.487551849947614
20
15.71059440098715
10
-7.53030074821536
20
15.594522973513351
0
LWPOLYLINE
5
142
100
AcDbEntity
8
0
100
AcDbPolyline
90
3
43
0.0
10
-6.4502142189604506
20
15.267683139061676
10
-6.4004306501311525
20
15.257672315454231
10
-6.3571405975682005
20
15.227639844631897
0
LWPOLYLINE
5
143
100
AcDbEntity
8
0
100
AcDbPolyline
90
2
43
0.0
10
-6.293287855253862
20
15.639977512871967
10
-6.437227186427759
20
15.668116046106563
0
LWPOLYLINE
5
144
100
AcDbEntity
8
0
100
AcDbPolyline
90
2
43
0.0
10
-6.161253136263536
20
15.552315173661457
10
-6.293287855253862
20
15.639977512871967
0
LWPOLYLINE
5
145
100
AcDbEntity
8
0
100
AcDbPolyline
90
2
43
0.0
10
-6.534629818664239
20
15.240626839911686
10
-6.4502142189604506
20
15.267683139061676
0
LWPOLYLINE
5
146
100
AcDbEntity
8
0
100
AcDbPolyline
90
3
43
0.0
10
-6.064932775364564
20
15.398635512208687
10
-6.106870044634984
20
15.483592219641553
10
-6.161253136263536
20
15.552315173661457
0
LINE
5
147
100
AcDbEntity
8
0
100
AcDbLine
10
-5.5529100137852261
20
10.849152910558042
30
0
11
-5.5759611577804584
21
9.3190674430903293
31
0
0
LINE
5
148
100
AcDbEntity
8
0
100
AcDbLine
10
-3.8962223685041102
20
8.558219460495998
30
0
11
-3.8962223685041102
21
9.822822191424164
31
0
0
LINE
5
149
100
AcDbEntity
8
0
100
AcDbLine
10
-5.5962223305061487
20
15.466849462617844
30
0
11
-5.6219895237806972
21
14.156437730402491
31
0
0
LINE
5
150
100
AcDbEntity
8
0
100
AcDbLine
10
-5.3962223349764944
20
21.422821932143961
30
0
11
-4.6145556152234217
21
21.076985257174048
31
0
0
LWPOLYLINE
5
151
100
AcDbEntity
8
0
100
AcDbPolyline
90
2
43
0.0
10
-6.437227186427759
20
15.668116046106563
10
-6.549781319366144
20
15.655129032200323
0
LWPOLYLINE
5
152
100
AcDbEntity
8
0
100
AcDbPolyline
90
8
43
0.0
10
-4.746222349505129
20
10.949494803271016
10
-4.661274579574
20
10.896649814686818
10
-4.548710278361305
20
10.82406074225212
10
-4.2635508938246565
20
10.625191618227207
10
-4.123871618940272
20
10.509948926586837
10
-4.0133366304916445
20
10.393998426458673
10
-3.943407169907034
20
10.281991683005845
10
-3.9165203806775226
20
10.175483667689877
0
LINE
5
153
100
AcDbEntity
8
0
100
AcDbLine
10
-3.8962223685041124
20
12.722822126604111
30
0
11
-3.896222368504108
21
14.622822084135802
31
0
0
LINE
5
154
100
AcDbEntity
8
0
100
AcDbLine
10
-3.9165203806775266
20
10.175483667689878
30
0
11
-3.8962223685041102
21
11.522822153426201
31
0
0
LINE
5
155
100
AcDbEntity
8
0
100
AcDbLine
10
-3.896222368504108
20
19.522821974612267
30
0
11
-3.896222368504108
21
21.022821941084658
31
0
0
LINE
5
156
100
AcDbEntity
8
0
100
AcDbLine
10
-3.896222368504108
20
14.622822084135802
30
0
11
-5.5962223305061487
21
15.466849462617844
31
0
0
LINE
5
157
100
AcDbEntity
8
0
100
AcDbLine
10
-5.2066373467229727
20
9.1378890617501547
30
0
11
-5.198957830055539
21
9.6476388968315039
31
0
0
LINE
5
158
100
AcDbEntity
8
0
100
AcDbLine
10
-3.8962223685041102
20
9.822822191424164
30
0
11
-5.5529100137852261
21
10.849152910558042
31
0
0
LWPOLYLINE
5
159
100
AcDbEntity
8
0
100
AcDbPolyline
90
17
43
0.0
10
-5.777125011334687
20
20.123351888362595
10
-5.720097731860624
20
19.985529492140767
10
-5.653390500161138
20
19.816855134451405
10
-5.576128810352572
20
19.61939480453239
10
-5.486297232499037
20
19.399441960894546
10
-5.3802994585772765
20
19.1699945101278
10
-5.253314840767021
20
18.951187362674773
10
-5.101329208666057
20
18.766276346623243
10
-4.923761914384673
20
18.636174155730593
10
-4.726181465147354
20
18.573887121387738
10
-4.521809431856469
20
18.580608730475184
10
-4.328561464789245
20
18.647902630352707
10
-4.163769074266275
20
18.762927898289323
10
-4.038818812536843
20
18.913596478036183
10
-3.9558600345147723
20
19.092261060345646
10
-3.910389204843019
20
19.295585617243134
10
-3.896222368504108
20
19.522821974612267
0
LWPOLYLINE
5
160
100
AcDbEntity
8
0
100
AcDbPolyline
90
8
70
1
43
0.0
10
-6.3549761293989881
20
13.662704659616695
10
-6.3549761293989881
20
13.177856339132534
10
-6.04978127466266
20
13.133483959352718
10
-6.04978127466266
20
14.483050985252605
10
-6.3549761293989881
20
14.529587907707439
10
-6.3549761293989881
20
14.046903831875072
10
-7.5497813342673012
20
14.223310781633602
10
-7.5497813342673012
20
13.842358423387752
0
LINE
5
161
100
AcDbEntity
8
0
100
AcDbLine
10
-5.6374675123717255
20
11.368904291678824
30
0
11
-4.7462223495051301
21
10.949494803271016
31
0
0
LWPOLYLINE
5
162
100
AcDbEntity
8
0
100
AcDbPolyline
90
3
43
0.0
10
-6.13744361387317
20
14.728722108518825
10
-6.056274828181909
20
14.95220694876288
10
-6.029218566284822
20
15.17893856576656
0
LINE
5
163
100
AcDbEntity
8
0
100
AcDbLine
10
-7.5497813342673012
20
12.093440724527584
30
0
11
-7.5497813342673012
21
11.674609614526974
31
0
0
LWPOLYLINE
5
164
100
AcDbEntity
8
0
100
AcDbPolyline
90
2
43
0.0
10
-6.3906904129845366
20
14.852098731314884
10
-6.435062718258546
20
14.77742335013126
0
LWPOLYLINE
5
165
100
AcDbEntity
8
0
100
AcDbPolyline
90
15
43
0.0
10
-5.0384625201409605
20
13.322822113193066
10
-5.019470976066845
20
12.935054016137185
10
-4.986172316703838
20
12.745105249328354
10
-4.927401607510983
20
12.5625418803241
10
-4.840066750481114
20
12.39376442811285
10
-4.72867468076023
20
12.247746678618222
10
-4.604488810307881
20
12.134796724166108
10
-4.4809252109791835
20
12.064007839126342
10
-4.368602457261285
20
12.040492923433847
10
-4.270971433361482
20
12.06288308953841
10
-4.184560017178427
20
12.12372510570916
10
-4.1039721514592875
20
12.212881366119516
10
-3.9604430366695698
20
12.443286842186613
10
-3.9133645763989797
20
12.577163815480104
10
-3.896222368504108
20
12.722822126604111
0
LINE
5
166
100
AcDbEntity
8
0
100
AcDbLine
10
-4.2962223595634113
20
13.722822104252369
30
0
11
-4.2962223595634113
21
13.122822117663414
31
0
0
LINE
5
167
100
AcDbEntity
8
0
100
AcDbLine
10
-7.5497813342673012
20
11.674609614526974
30
0
11
-7.2067077277762124
21
11.836947334921108
31
0
0
LWPOLYLINE
5
168
100
AcDbEntity
8
0
100
AcDbPolyline
90
3
43
0.0
10
-6.49458652423446
20
11.723310781633602
10
-6.336848401145385
20
11.751990450536953
10
-6.190473866329835
20
11.838029457247005
0
LWPOLYLINE
5
169
100
AcDbEntity
8
0
100
AcDbPolyline
90
9
43
0.0
10
-4.296222359563411
20
13.122822117663414
10
-4.343880586102427
20
13.017808860551353
10
-4.406657944134249
20
12.978132286644547
10
-4.4814101105603354
20
13.005206354084686
10
-4.558634494725129
20
13.09518102875976
10
-4.624182950499923
20
13.23888120647549
10
-4.665878848612534
20
13.426225646051481
10
-4.678306968117374
20
13.64939635377203
10
-4.660912404036536
20
13.9038858625319
0
LINE
5
170
100
AcDbEntity
8
0
100
AcDbLine
10
-6.4350627182585463
20
14.77742335013126
30
0
11
-6.1374436138731703
21
14.728722108518825
31
0
0
LINE
5
171
100
AcDbEntity
8
0
100
AcDbLine
10
-5.198957830055539
20
9.6476388968315039
30
0
11
-4.2962223595634139
21
9.2228222048352091
31
0
0
LWPOLYLINE
5
172
100
AcDbEntity
8
0
100
AcDbPolyline
90
16
43
0.0
10
-4.301932763908556
20
8.843777819720088
10
-4.309125647079345
20
8.767776327430635
10
-4.327519462026554
20
8.674750724121427
10
-4.390309300258756
20
8.45045597788641
10
-4.436070268715953
20
8.33814706346275
10
-4.498112611082615
20
8.248614490528732
10
-4.5825164222174015
20
8.20141021703363
10
-4.691150173667391
20
8.210534991171702
10
-4.817558213993478
20
8.27827973208659
10
-4.946927111073167
20
8.393952142430221
10
-5.061213018527442
20
8.538763705228556
10
-5.1451978708268316
20
8.691682071141255
10
-5.192554785717941
20
8.835154168871965
10
-5.2092939805568514
20
8.9591053249286
10
-5.209335707981113
20
9.060016259128686
10
-5.206637346722963
20
9.137889061750155
0
LWPOLYLINE
5
173
100
AcDbEntity
8
0
100
AcDbPolyline
90
2
43
0.0
10
-6.549781319366144
20
15.655129032200323
10
-6.664499920473741
20
15.591276215380178
0
LWPOLYLINE
5
174
100
AcDbEntity
8
0
100
AcDbPolyline
90
3
43
0.0
10
-6.880950164662046
20
12.082618309175716
10
-6.840095203982038
20
11.93164421430801
10
-6.762984824047727
20
11.818548871195064
0
LWPOLYLINE
5
175
100
AcDbEntity
8
0
100
AcDbPolyline
90
3
43
0.0
10
-6.663417649136232
20
15.101016445076214
10
-6.585225016490863
20
15.192196110254274
10
-6.534629818664239
20
15.240626839911686
0
LINE
5
176
100
AcDbEntity
8
0
100
AcDbLine
10
-5.0384625201409605
20
14.091334475392998
30
0
11
-5.0384625201409605
21
13.322822113193066
31
0
0
LINE
5
177
100
AcDbEntity
8
0
100
AcDbLine
10
-6.7012964753967985
20
12.56638450733398
30
0
11
-6.2683960615259871
21
12.503613961851345
31
0
0
LINE
5
178
100
AcDbEntity
8
0
100
AcDbLine
10
-4.2962223595634139
20
9.2228222048352091
30
0
11
-4.3019327639085567
21
8.8437778197200885
31
0
0
LINE
5
179
100
AcDbEntity
8
0
100
AcDbLine
10
-5.6219895237806972
20
14.156437730402491
30
0
11
-5.1377028937561997
21
14.221540985411984
31
0
0
LINE
5
180
100
AcDbEntity
8
0
100
AcDbLine
10
-7.5497813342673012
20
13.073960078870998
30
0
11
-7.5497813342673012
21
12.69409014097427
31
0
0
LINE
5
181
100
AcDbEntity
8
0
100
AcDbLine
10
-6.04978127466266
20
12.85642756334518
30
0
11
-7.5497813342673012
21
13.073960078870998
31
0
0
LWPOLYLINE
5
182
100
AcDbEntity
8
0
100
AcDbPolyline
90
3
43
0.0
10
-6.268396061525987
20
12.444090081369625
10
-6.284629814938949
20
12.283916903650509
10
-6.333331075177835
20
12.188678814089046
0
LWPOLYLINE
5
183
100
AcDbEntity
8
0
100
AcDbPolyline
90
3
43
0.0
10
-6.3571405975682005
20
15.227639844631897
10
-6.327108126745866
20
15.179209124287711
10
-6.317097303138421
20
15.114003477608906
0
LINE
5
184
100
AcDbEntity
8
0
100
AcDbLine
10
-6.919911187754316
20
12.598852051412807
30
0
11
-6.919911187754316
21
12.541492713606106
31
0
0
LWPOLYLINE
5
185
100
AcDbEntity
8
0
100
AcDbPolyline
90
3
43
0.0
10
-6.89610166536395
20
14.871579242861019
10
-6.788147073851271
20
14.960323816156135
10
-6.663417649136232
20
15.101016445076214
0
LINE
5
186
100
AcDbEntity
8
0
100
AcDbLine
10
-7.5497813342673012
20
12.69409014097427
30
0
11
-6.919911187754316
21
12.598852051412807
31
0
0
LWPOLYLINE
5
187
100
AcDbEntity
8
0
100
AcDbPolyline
90
3
43
0.0
10
-6.762984824047727
20
11.818548871195064
10
-6.647725068644926
20
11.747120304023968
10
-6.49458652423446
20
11.723310781633602
0
LWPOLYLINE
5
188
100
AcDbEntity
8
0
100
AcDbPolyline
90
4
70
1
43
0.0
10
-7.5497813342673012
20
11.131319535886989
10
-6.04978127466266
20
10.907293392336117
10
-6.04978127466266
20
11.293657256281124
10
-7.5497813342673012
20
11.515518559133755
0
LINE
5
189
100
AcDbEntity
8
0
100
AcDbLine
10
-6.2683960615259871
20
12.503613961851345
30
0
11
-6.2683960615259871
21
12.444090081369625
31
0
0
LWPOLYLINE
5
190
100
AcDbEntity
8
0
100
AcDbPolyline
90
3
43
0.0
10
-6.029218566284822
20
15.17893856576656
10
-6.0381471185547575
20
15.296633347859727
10
-6.064932775364564
20
15.398635512208687
0
LWPOLYLINE
5
191
100
AcDbEntity
8
0
100
AcDbPolyline
90
2
43
0.0
10
-6.317097303138421
20
15.114003477608906
10
-6.339824628697084
20
14.975475354110943
0
LWPOLYLINE
5
192
100
AcDbEntity
8
0
100
AcDbPolyline
90
2
43
0.0
10
-6.339824628697084
20
14.975475354110943
10
-6.3906904129845366
20
14.852098731314884
0
LINE
5
193
100
AcDbEntity
8
0
100
AcDbLine
10
-6.7012964753967985
20
12.414869202291714
30
0
11
-6.7012964753967985
21
12.56638450733398
31
0
0
LINE
5
194
100
AcDbEntity
8
0
100
AcDbLine
10
-5.1377028937561997
20
14.221540985411984
30
0
11
-5.0384625201409605
21
14.091334475392998
31
0
0
LWPOLYLINE
5
195
100
AcDbEntity
8
0
100
AcDbPolyline
90
3
43
0.0
10
-6.937227231131239
20
12.443007661020504
10
-6.967259701953573
20
12.403235046183811
10
-7.024889570341749
20
12.357509864485012
0
LINE
5
196
100
AcDbEntity
8
0
100
AcDbLine
10
-6.04978127466266
20
12.270929945623623
30
0
11
-6.04978127466266
21
12.85642756334518
31
0
0
LWPOLYLINE
5
197
100
AcDbEntity
8
0
100
AcDbPolyline
90
2
43
0.0
10
-6.919911187754316
20
12.541492713606106
10
-6.937227231131239
20
12.443007661020504
0
LWPOLYLINE
5
198
100
AcDbEntity
8
0
100
AcDbPolyline
90
3
43
0.0
10
-6.483763959870981
20
12.12482584825729
10
-6.562497765438007
20
12.141059620296703
10
-6.634196919069932
20
12.189760936414944
0
LWPOLYLINE
5
199
100
AcDbEntity
8
0
100
AcDbPolyline
90
3
43
0.0
10
-6.997833233938856
20
11.94950116983627
10
-6.935062725709123
20
12.006048915898548
10
-6.880950164662046
20
12.082618309175716
0
LINE
5
200
100
AcDbEntity
8
0
100
AcDbLine
10
-7.237010729180021
20
12.242791188871609
30
0
11
-7.5497813342673012
21
12.093440724527584
31
0
0
LWPOLYLINE
5
201
100
AcDbEntity
8
0
100
AcDbPolyline
90
5
43
0.0
10
-6.190473866329835
20
11.838029457247005
10
-6.128920857475446
20
11.90769933349465
10
-6.084954422579454
20
12.0030727069733
10
-6.0585745616418585
20
12.124149577682958
10
-6.04978127466266
20
12.270929945623623
0
LWPOLYLINE
5
202
100
AcDbEntity
8
0
100
AcDbPolyline
90
3
43
0.0
10
-6.634196919069932
20
12.189760936414944
10
-6.684521586315082
20
12.278505546962963
10
-6.7012964753967985
20
12.414869202291714
0
LWPOLYLINE
5
203
100
AcDbEntity
8
0
100
AcDbPolyline
90
3
43
0.0
10
-7.206707727776212
20
11.836947334921108
10
-7.083601672814531
20
11.897553188717113
10
-6.997833233938856
20
11.94950116983627
0
LINE
5
204
100
AcDbEntity
8
0
100
AcDbLine
10
-4.6609124040365373
20
13.903885862531901
30
0
11
-4.2962223595634113
21
13.722822104252369
31
0
0
LWPOLYLINE
5
205
100
AcDbEntity
8
0
100
AcDbPolyline
90
3
43
0.0
10
-6.333331075177835
20
12.188678814089046
10
-6.402865704761194
20
12.140789089715229
10
-6.483763959870981
20
12.12482584825729
0
LWPOLYLINE
5
206
100
AcDbEntity
8
0
100
AcDbPolyline
90
3
43
0.0
10
-7.024889570341749
20
12.357509864485012
10
-7.113093007968111
20
12.304479612028347
10
-7.237010729180021
20
12.242791188871609
0
LWPOLYLINE
5
207
100
AcDbEntity
8
0
100
AcDbPolyline
90
5
43
0.0
10
-7.281383108959837
20
15.378072729325043
10
-7.272251612187667
20
15.456535940282167
10
-7.244857121871156
20
15.545821662051724
10
-7.199199638010306
20
15.645929894633712
10
-7.135279160605116
20
15.756860638028131
0
LWPOLYLINE
5
208
100
AcDbEntity
8
0
100
AcDbPolyline
90
9
43
0.0
10
-3.896222368504108
20
21.022821941084658
10
-3.9036695633022713
20
21.234113325944758
10
-3.928338879767555
20
21.427886129668412
10
-3.9718305427897906
20
21.602512581306293
10
-4.036093730124927
20
21.75600995021519
10
-4.122250449746397
20
21.88723691433175
10
-4.229580796367712
20
21.996925771315397
10
-4.356305294324396
20
22.086886628513327
10
-4.5008573522688815
20
22.158713044388794
0
LINE
5
209
100
AcDbEntity
8
0
100
AcDbLine
10
-4.6145556152234217
20
21.076985257174048
30
0
11
-4.6145556152234217
21
20.522821952260529
31
0
0
LWPOLYLINE
5
210
100
AcDbEntity
8
0
100
AcDbPolyline
90
16
43
0.0
10
-4.614555615223422
20
20.52282195226053
10
-4.60665277332004
20
20.39918399481204
10
-4.6189756000197795
20
20.29510536542301
10
-4.651447295353193
20
20.21175544414822
10
-4.703290723487575
20
20.151639313582024
10
-4.772447279837247
20
20.118993912941907
10
-4.85535473630346
20
20.119271910741272
10
-4.947319701343473
20
20.1571871383179
10
-5.042997766387516
20
20.23436196353547
10
-5.136838527371232
20
20.34735047620469
10
-5.223469885009992
20
20.488115657036968
10
-5.356663712815248
20
20.811476584429148
10
-5.396662174494
20
20.97552259158281
10
-5.416758483989494
20
21.13344564661441
10
-5.416585264875264
20
21.282819630779617
10
-5.3962223349764935
20
21.42282193214396
0
LINE
5
211
100
AcDbEntity
8
0
100
AcDbLine
10
-5.6609606550977869
20
21.362368449867056
30
0
11
-6.9498677905776605
21
20.222821958966051
31
0
0
LINE
5
212
100
AcDbEntity
8
0
100
AcDbLine
10
-6.9498677905776605
20
20.222821958966051
30
0
11
-6.9498677905776614
21
19.25770944738748
31
0
0
ENDSEC
0
SECTION
2
OBJECTS
0
DICTIONARY
5
C
100
AcDbDictionary
3
ACAD_GROUP
350
D
3
ACAD_MLINESTYLE
350
17
0
DICTIONARY
5
D
100
AcDbDictionary
0
DICTIONARY
5
1A
330
C
100
AcDbDictionary
0
DICTIONARY
5
17
100
AcDbDictionary
0
ENDSEC
0
EOF
