0
SECTION
2
HEADER
9
$INSUNITS
70
4
9
$ACADVER
1
AC1014
9
$HANDSEED
5
FFFF
0
ENDSEC
0
SECTION
2
TABLES
0
TABLE
2
VPORT
5
8
100
AcDbSymbolTable
0
ENDTAB
0
TABLE
2
LTYPE
5
5
100
AcDbSymbolTable
0
LTYPE
5
14
100
AcDbSymbolTableRecord
100
AcDbLinetypeTableRecord
2
BYBLOCK
70
0
0
LTYPE
5
15
100
AcDbSymbolTableRecord
100
AcDbLinetypeTableRecord
2
BYLAYER
70
0
0
LTYPE
5
16
100
AcDbSymbolTableRecord
100
AcDbLinetypeTableRecord
2
DASHED
70
0
3
Dashed __ __ __ __ __ __ __ __ __ __ __ __ __ _
72
65
73
2
40
0.75
49
0.5
74
0
49
-0.25
74
0
0
ENDTAB
0
TABLE
2
LAYER
5
2
100
AcDbSymbolTable
70
2
0
LAYER
5
50
100
AcDbSymbolTableRecord
100
AcDbLayerTableRecord
2
0
70
0
62
7
6
CONTINUOUS
0
ENDTAB
0
TABLE
2
STYLE
5
3
100
AcDbSymbolTable
70
1
0
STYLE
5
11
100
AcDbSymbolTableRecord
100
AcDbTextStyleTableRecord
2
STANDARD
70
0
0
ENDTAB
0
TABLE
2
VIEW
5
6
100
AcDbSymbolTable
70
0
0
ENDTAB
0
TABLE
2
UCS
5
7
100
AcDbSymbolTable
70
0
0
ENDTAB
0
TABLE
2
APPID
5
9
100
AcDbSymbolTable
70
2
0
APPID
5
12
100
AcDbSymbolTableRecord
100
AcDbRegAppTableRecord
2
ACAD
70
0
0
ENDTAB
0
TABLE
2
DIMSTYLE
5
A
100
AcDbSymbolTable
70
1
0
ENDTAB
0
TABLE
2
BLOCK_RECORD
5
1
100
AcDbSymbolTable
70
1
0
BLOCK_RECORD
5
1F
100
AcDbSymbolTableRecord
100
AcDbBlockTableRecord
2
*MODEL_SPACE
0
BLOCK_RECORD
5
1B
100
AcDbSymbolTableRecord
100
AcDbBlockTableRecord
2
*PAPER_SPACE
0
ENDTAB
0
ENDSEC
0
SECTION
2
BLOCKS
0
BLOCK
5
20
100
AcDbEntity
100
AcDbBlockBegin
2
*MODEL_SPACE
0
ENDBLK
5
21
100
AcDbEntity
100
AcDbBlockEnd
0
BLOCK
5
1C
100
AcDbEntity
100
AcDbBlockBegin
2
*PAPER_SPACE
0
ENDBLK
5
1D
100
AcDbEntity
100
AcDbBlockEnd
0
ENDSEC
0
SECTION
2
ENTITIES
0
CIRCLE
5
100
100
AcDbEntity
8
0
100
AcDbCircle
10
21.438237071097262
20
19.715333748057155
30
0
40
1.6667520415812276
210
0
220
-0
230
1
0
CIRCLE
5
101
100
AcDbEntity
8
0
100
AcDbCircle
10
25.138237071097262
20
11.215333748057155
30
0
40
1.6667520415812298
210
0
220
-0
230
1
0
CIRCLE
5
102
100
AcDbEntity
8
0
100
AcDbCircle
10
25.302688022404016
20
19.690946761439015
30
0
40
1.6391540323589113
210
0
220
-0
230
1
0
ARC
5
103
100
AcDbEntity
8
0
100
AcDbCircle
10
27.032357593314718
20
9.6678606172416135
30
0
40
2.5000000000000187
210
-0
220
0
230
1
100
AcDbArc
50
270.00000000000034
51
359.92651642385954
0
LINE
5
104
100
AcDbEntity
8
0
100
AcDbLine
10
29.532355537209895
20
9.6646542922460945
30
0
11
29.532357592809944
21
32.26885623135901
31
0
0
LWPOLYLINE
5
105
100
AcDbEntity
8
0
100
AcDbPolyline
90
5
43
0.0
10
29.532357592809948
20
32.26885623135901
10
29.202449645745812
20
32.02950249759994
10
28.82971857725814
20
31.829785828386797
10
28.42711149597357
20
31.663859242062568
10
28.000000417232517
20
31.528927066975736
0
LINE
5
106
100
AcDbEntity
8
0
100
AcDbLine
10
28.000000417232517
20
31.52892706697574
30
0
11
-27.00099034578642
21
31.52892709779648
31
0
0
LINE
5
107
100
AcDbEntity
8
0
100
AcDbLine
10
-27.00099034578642
20
31.52892709779648
30
0
11
-27.720656237727578
21
31.52892709779648
31
0
0
LWPOLYLINE
5
108
100
AcDbEntity
8
0
100
AcDbPolyline
90
17
43
0.0
10
-27.72065623772751
20
31.528927097796682
10
-27.860727090128965
20
31.040174853670845
10
-27.966655445844072
20
30.566045744664073
10
-28.04073648847436
20
30.107619166410306
10
-28.085585251144877
20
29.666005112926925
10
-28.104145795574563
20
29.24233468749137
10
-28.09962255750855
20
28.83773929949989
10
-28.075363657766044
20
28.453322159256697
10
-28.03471201294758
20
28.09012349293305
10
-27.980855786809553
20
27.749084582795113
10
-27.916691638290665
20
27.431012349306584
10
-27.844680058005615
20
27.136539157107162
10
-27.766706997072514
20
26.866084305969395
10
-27.684066143038255
20
26.619862549288335
10
-27.59755421178613
20
26.397936554020433
10
-27.507590834820718
20
26.200277888650664
10
-27.414344011224493
20
26.02682897199087
0
LWPOLYLINE
5
109
100
AcDbEntity
8
0
100
AcDbPolyline
90
9
43
0.0
10
-27.414344011224497
20
26.026828971990867
10
-27.59274273247137
20
25.986155705287224
10
-27.801797839367495
20
26.006619197819766
10
-28.041454218695314
20
26.088691782212052
10
-28.310867214714648
20
26.232214896328298
10
-28.60771103510804
20
26.435505431200554
10
-28.92744711952668
20
26.694387481151576
10
-29.26305792564375
20
27.00179745989593
10
-29.605637735975616
20
27.348463363596533
0
LINE
5
110
100
AcDbEntity
8
0
100
AcDbLine
10
-29.605637735975616
20
27.348463363596537
30
0
11
-29.605637735975851
21
9.6678606172416082
31
0
0
ARC
5
111
100
AcDbEntity
8
0
100
AcDbCircle
10
-27.105637735975854
20
9.6678606172417432
30
0
40
2.4999999999999956
210
0
220
0
230
1
100
AcDbArc
50
180
51
270
0
LINE
5
112
100
AcDbEntity
8
0
100
AcDbLine
10
-27.105637735975854
20
7.1678606172417485
30
0
11
27.032357593314732
21
7.1678606172415948
31
0
0
LINE
5
113
100
AcDbEntity
8
0
100
AcDbLine
10
-23.857982072374195
20
35.71913126883998
30
0
11
-25.297487156155295
21
35.719131269240314
31
0
0
LWPOLYLINE
5
114
100
AcDbEntity
8
0
100
AcDbPolyline
90
3
43
0.0
10
-25.297487156120123
20
35.71913126928295
10
-25.84968812901629
20
35.016380751723425
10
-26.337152007686814
20
34.325877184434226
0
LINE
5
115
100
AcDbEntity
8
0
100
AcDbLine
10
-26.337152007686818
20
34.325877184434226
30
0
11
28.26294657509175
21
34.325877184434226
31
0
0
LWPOLYLINE
5
116
100
AcDbEntity
8
0
100
AcDbPolyline
90
5
43
0.0
10
28.262946575091743
20
34.32587718443422
10
28.65870295412397
20
34.31821452588043
10
29.000764220298485
20
34.29197283125264
10
29.29117960337407
20
34.23927010060021
10
29.532357592809937
20
34.15094467952499
0
LINE
5
117
100
AcDbEntity
8
0
100
AcDbLine
10
29.532357592809937
20
34.15094467952499
30
0
11
29.53235759280993
21
41.845113071932261
31
0
0
LINE
5
118
100
AcDbEntity
8
0
100
AcDbLine
10
29.53235759280993
20
41.845113071932261
30
0
11
-18.3786833262388
21
41.845113071932261
31
0
0
LWPOLYLINE
5
119
100
AcDbEntity
8
0
100
AcDbPolyline
90
3
43
0.0
10
-18.37868332623925
20
41.84511307193194
10
-19.169210352561535
20
41.27153653219222
10
-19.927968303642594
20
40.70169427339686
0
LINE
5
120
100
AcDbEntity
8
0
100
AcDbLine
10
-19.927968303642597
20
40.701694273396861
30
0
11
7.6363196524406245
21
40.701694273396868
31
0
0
LWPOLYLINE
5
121
100
AcDbEntity
8
0
100
AcDbPolyline
90
24
43
0.0
10
7.636319652440628
20
40.70169427339687
10
7.836249980513222
20
40.696394044288105
10
8.002007997595374
20
40.67982323561646
10
8.136869442305917
20
40.6502335372854
10
8.245442169818187
20
40.60527372034477
10
8.332935345925774
20
40.542478917467534
10
8.4044741311843
20
40.459732106667325
10
8.464380477069543
20
40.35575588406792
10
8.51540239061478
20
40.23064733050896
10
8.591642145466206
20
39.92579610283505
10
8.618082890147093
20
39.57653627553551
10
8.60366383671029
20
39.39869848867748
10
8.565958192560052
20
39.226130182768
10
8.50230562140165
20
39.063747853122855
10
8.411587145802823
20
38.915389906608226
10
8.294699533226687
20
38.783446553862944
10
8.154663454452828
20
38.668730179418276
10
7.824785853022765
20
38.4879970511884
10
7.46798257503175
20
38.35941745842007
10
7.128320887559687
20
38.263654039422526
10
6.829585114150596
20
38.185667830310095
10
6.563225763502016
20
38.12179672126498
10
6.297896996884978
20
38.07770201926324
10
6.000000089406967
20
38.061655624094016
0
LINE
5
122
100
AcDbEntity
8
0
100
AcDbLine
10
6.0000000894069672
20
38.061655624094016
30
0
11
-1.3314306801119358
21
38.061655624094016
31
0
0
LWPOLYLINE
5
123
100
AcDbEntity
8
0
100
AcDbPolyline
90
16
43
0.0
10
-1.3314306801119336
20
38.06165562409401
10
-1.7802595541543131
20
38.06133531601501
10
-2.0092188240679683
20
38.03179793051039
10
-2.2589615453657585
20
37.952879636694256
10
-2.5361168891851906
20
37.81258099044205
10
-2.838629931460085
20
37.61273666205286
10
-3.158154362745312
20
37.365446554446905
10
-3.482866833710539
20
37.08887849952015
10
-3.8001844390921837
20
36.80330976359361
10
-4.099281796923733
20
36.52810704886182
10
-4.373364402062875
20
36.28012195928377
10
-4.621986186018329
20
36.07238433539648
10
-4.853496341487516
20
35.91269821570713
10
-5.086291476845184
20
35.80270420358054
10
-5.344159083117115
20
35.73953450578419
10
-5.647684344845174
20
35.71913126883997
0
LINE
5
124
100
AcDbEntity
8
0
100
AcDbLine
10
-5.6476843448451746
20
35.71913126883998
30
0
11
-23.857982072374195
21
35.71913126883998
31
0
0
LINE
5
125
100
AcDbEntity
8
0
100
AcDbLine
10
18.837364668921587
20
-38.557821452906431
30
0
11
18.837364668921587
21
-37.173052966883482
31
0
0
LINE
5
126
100
AcDbEntity
8
0
100
AcDbLine
10
18.837364668921587
20
-37.173052966883482
30
0
11
19.292880649642107
21
-37.173052966883482
31
0
0
LINE
5
127
100
AcDbEntity
8
0
100
AcDbLine
10
19.292880649642107
20
-37.173052966883482
30
0
11
19.292880649642107
21
-40.354832351496519
31
0
0
LINE
5
128
100
AcDbEntity
8
0
100
AcDbLine
10
19.292880649642107
20
-40.354832351496519
30
0
11
18.495727608875391
21
-40.354832351496519
31
0
0
LWPOLYLINE
5
129
100
AcDbEntity
8
0
100
AcDbPolyline
90
5
43
0.0
10
18.49572760887539
20
-40.35483235149652
10
18.26683079261428
20
-40.33988572313458
10
18.062987363860962
20
-40.29504583804876
10
17.884197322615442
20
-40.220312696239056
10
17.73046066887772
20
-40.11568629770547
0
LWPOLYLINE
5
130
100
AcDbEntity
8
0
100
AcDbPolyline
90
5
43
0.0
10
17.73046066887772
20
-40.11568629770547
10
17.60590555049574
20
-39.985579602709116
10
17.51693760879433
20
-39.83440527348787
10
17.463556843773482
20
-39.66216331004173
10
17.4457632554332
20
-39.468853712370695
0
LWPOLYLINE
5
131
100
AcDbEntity
8
0
100
AcDbPolyline
90
3
43
0.0
10
17.4457632554332
20
-39.468853712370695
10
17.480496334807036
20
-39.209778957357706
10
17.584695572928545
20
-38.98828426032335
0
LWPOLYLINE
5
132
100
AcDbEntity
8
0
100
AcDbPolyline
90
3
43
0.0
10
17.584695572928545
20
-38.98828426032335
10
17.75380594559109
20
-38.81120247422725
10
17.983272130564806
20
-38.68536615400583
0
LWPOLYLINE
5
133
100
AcDbEntity
8
0
100
AcDbPolyline
90
3
43
0.0
10
17.983272130564806
20
-38.68536615400583
10
17.832382450775263
20
-38.566931948354544
10
17.684909160212634
20
-38.41205650596887
0
LWPOLYLINE
5
134
100
AcDbEntity
8
0
100
AcDbPolyline
90
5
43
0.0
10
17.684909160212634
20
-38.41205650596887
10
17.60462446972823
20
-38.30942306323916
10
17.50953549422419
20
-38.17461879580289
10
17.39964223370051
20
-38.00764370366007
10
17.2749446881572
20
-37.8084977868107
0
LWPOLYLINE
5
135
100
AcDbEntity
8
0
100
AcDbPolyline
90
3
43
0.0
10
17.2749446881572
20
-37.8084977868107
10
17.125193829611895
20
-37.571060002138914
10
17.00846781857407
20
-37.40081095724374
0
LINE
5
136
100
AcDbEntity
8
0
100
AcDbLine
10
17.008467818574069
20
-37.400810957243742
30
0
11
16.839927042798159
21
-37.173052966883482
31
0
0
LINE
5
137
100
AcDbEntity
8
0
100
AcDbLine
10
16.839927042798159
20
-37.173052966883482
30
0
11
17.381991053895113
21
-37.173052966883482
31
0
0
LINE
5
138
100
AcDbEntity
8
0
100
AcDbLine
10
17.381991053895113
20
-37.173052966883482
30
0
11
17.52092337139046
21
-37.382590413382353
31
0
0
LWPOLYLINE
5
139
100
AcDbEntity
8
0
100
AcDbPolyline
90
2
43
0.0
10
17.52092337139046
20
-37.38259041338235
10
17.548254336194155
20
-37.42130929260522
0
LINE
5
140
100
AcDbEntity
8
0
100
AcDbLine
10
17.548254336194155
20
-37.421309292605223
30
0
11
17.637080009059069
21
-37.546576202204527
31
0
0
LINE
5
141
100
AcDbEntity
8
0
100
AcDbLine
10
17.637080009059069
20
-37.546576202204527
30
0
11
17.778289969042895
21
-37.778889179518522
31
0
0
LINE
5
142
100
AcDbEntity
8
0
100
AcDbLine
10
17.778289969042895
20
-37.778889179518522
30
0
11
17.930887843445895
21
-38.027145505240263
31
0
0
LWPOLYLINE
5
143
100
AcDbEntity
8
0
100
AcDbPolyline
90
3
43
0.0
10
17.930887843445895
20
-38.02714550524026
10
18.066403846220133
20
-38.20308858185083
10
18.190531934575198
20
-38.33917403250009
0
LWPOLYLINE
5
144
100
AcDbEntity
8
0
100
AcDbPolyline
90
3
43
0.0
10
18.190531934575198
20
-38.33917403250009
10
18.30156391389763
20
-38.438818171909155
10
18.402346874550936
20
-38.50543731479913
0
LWPOLYLINE
5
145
100
AcDbEntity
8
0
100
AcDbPolyline
90
3
43
0.0
10
18.402346874550936
20
-38.50543731479913
10
18.528183138893006
20
-38.544725418379606
10
18.718930463270304
20
-38.55782145290643
0
LINE
5
146
100
AcDbEntity
8
0
100
AcDbLine
10
18.718930463270308
20
-38.557821452906431
30
0
11
18.837364668921587
21
-38.557821452906431
31
0
0
LINE
5
147
100
AcDbEntity
8
0
100
AcDbLine
10
8.9939127740166711
20
-39.37246327328598
30
0
11
8.9939127740166711
21
-37.277089553355331
31
0
0
LINE
5
148
100
AcDbEntity
8
0
100
AcDbLine
10
8.9939127740166711
20
-37.277089553355331
30
0
11
9.4084323820374536
21
-37.277089553355331
31
0
0
LINE
5
149
100
AcDbEntity
8
0
100
AcDbLine
10
9.4084323820374536
20
-37.277089553355331
30
0
11
9.4084323820374536
21
-37.543566422938461
31
0
0
LWPOLYLINE
5
150
100
AcDbEntity
8
0
100
AcDbPolyline
90
3
43
0.0
10
9.408432382037452
20
-37.54356642293846
10
9.550211752643397
20
-37.41602201986229
10
9.711350488354972
20
-37.32036371755516
0
LWPOLYLINE
5
151
100
AcDbEntity
8
0
100
AcDbPolyline
90
3
43
0.0
10
9.711350488354972
20
-37.32036371755516
10
9.879891469021848
20
-37.26057705509579
10
10.04843241243582
20
-37.24064816760933
0
LWPOLYLINE
5
152
100
AcDbEntity
8
0
100
AcDbPolyline
90
3
43
0.0
10
10.04843241243582
20
-37.24064816760933
10
10.239179736813119
20
-37.265132191061134
10
10.415122794797233
20
-37.33858426141655
0
LWPOLYLINE
5
153
100
AcDbEntity
8
0
100
AcDbPolyline
90
3
43
0.0
10
10.415122794797233
20
-37.33858426141655
10
10.561457329308203
20
-37.45587964582359
10
10.667934219231418
20
-37.60733862447655
0
LWPOLYLINE
5
154
100
AcDbEntity
8
0
100
AcDbPolyline
90
5
43
0.0
10
10.667934219231418
20
-37.60733862447655
10
10.704802546528688
20
-37.706698077201004
10
10.731137066026738
20
-37.83395786809837
10
10.746937777725568
20
-37.989117997168655
10
10.752204681625178
20
-38.17217846441185
0
LINE
5
155
100
AcDbEntity
8
0
100
AcDbLine
10
10.75220468162518
20
-38.17217846441185
30
0
11
10.75220468162518
21
-39.37246327328598
31
0
0
LINE
5
156
100
AcDbEntity
8
0
100
AcDbLine
10
10.75220468162518
20
-39.37246327328598
30
0
11
10.337685110857301
21
-39.37246327328598
31
0
0
LINE
5
157
100
AcDbEntity
8
0
100
AcDbLine
10
10.337685110857301
20
-39.37246327328598
30
0
11
10.337685110857301
21
-38.176733749388809
31
0
0
LWPOLYLINE
5
158
100
AcDbEntity
8
0
100
AcDbPolyline
90
5
43
0.0
10
10.337685110857299
20
-38.17673374938881
10
10.331848810305408
20
-38.02399355026996
10
10.314339908649734
20
-37.896022024034615
10
10.285158405890277
20
-37.79281917068278
10
10.244304302027038
20
-37.71438499021446
0
LWPOLYLINE
5
159
100
AcDbEntity
8
0
100
AcDbPolyline
90
5
43
0.0
10
10.244304302027038
20
-37.71438499021446
10
10.187649491121581
20
-37.65758778008735
10
10.113343435218146
20
-37.617018344282265
10
10.021386134316733
20
-37.592676682799215
10
9.911777588417342
20
-37.5845627956382
0
LWPOLYLINE
5
160
100
AcDbEntity
8
0
100
AcDbPolyline
90
5
43
0.0
10
9.911777588417342
20
-37.5845627956382
10
9.769286487130037
20
-37.60264108928954
10
9.63789858563762
20
-37.65687597024357
10
9.517613883940092
20
-37.74726743850028
10
9.408432382037452
20
-37.87381549405968
0
LINE
5
161
100
AcDbEntity
8
0
100
AcDbLine
10
9.4084323820374518
20
-37.873815494059677
30
0
11
9.4084323820374536
21
-39.37246327328598
31
0
0
LINE
5
162
100
AcDbEntity
8
0
100
AcDbLine
10
9.4084323820374536
20
-39.37246327328598
30
0
11
8.9939127740166711
21
-39.37246327328598
31
0
0
LWPOLYLINE
5
163
100
AcDbEntity
8
0
100
AcDbPolyline
90
3
43
0.0
10
15.49420412674291
20
-39.05673392790984
10
15.449791290310452
20
-38.96278363395165
10
15.425876640227864
20
-38.86769466776084
0
LWPOLYLINE
5
164
100
AcDbEntity
8
0
100
AcDbPolyline
90
5
43
0.0
10
15.425876640227864
20
-38.86769466776084
10
15.418901555684636
20
-38.810328102890956
10
15.413919352439473
20
-38.731609217111576
10
15.410930030492375
20
-38.631538010422695
10
15.409933589843343
20
-38.510114482824314
0
LINE
5
165
100
AcDbEntity
8
0
100
AcDbLine
10
15.409933589843343
20
-38.510114482824314
30
0
11
15.409933589843343
21
-37.619580856744754
31
0
0
LWPOLYLINE
5
166
100
AcDbEntity
8
0
100
AcDbPolyline
90
3
43
0.0
10
15.409933589843343
20
-37.619580856744754
10
15.391712971476148
20
-37.53929608244132
10
15.337051116374562
20
-37.51253449100684
0
LWPOLYLINE
5
167
100
AcDbEntity
8
0
100
AcDbPolyline
90
3
43
0.0
10
15.337051116374562
20
-37.51253449100684
10
15.240823291686604
20
-37.54043490368556
10
15.102460347560475
20
-37.62413614172171
0
LINE
5
168
100
AcDbEntity
8
0
100
AcDbLine
10
15.102460347560477
20
-37.624136141721713
30
0
11
15.102460347560475
21
-37.371324531023014
31
0
0
LWPOLYLINE
5
169
100
AcDbEntity
8
0
100
AcDbPolyline
90
3
43
0.0
10
15.102460347560475
20
-37.37132453102301
10
15.230004825142453
20
-37.295025742833126
10
15.330218337920735
20
-37.2483354129238
0
LWPOLYLINE
5
170
100
AcDbEntity
8
0
100
AcDbPolyline
90
2
43
0.0
10
15.330218337920735
20
-37.2483354129238
10
15.507869534638951
20
-37.214171520654666
0
LWPOLYLINE
5
171
100
AcDbEntity
8
0
100
AcDbPolyline
90
5
43
0.0
10
15.507869534638951
20
-37.214171520654666
10
15.627442491685281
20
-37.227267611060846
10
15.719684493241141
20
-37.266555882279384
10
15.784595539306531
20
-37.33203633431028
10
15.822175629881452
20
-37.42370896715354
0
LWPOLYLINE
5
172
100
AcDbEntity
8
0
100
AcDbPolyline
90
5
43
0.0
10
15.822175629881452
20
-37.42370896715354
10
15.956410509978662
20
-37.3340292714877
10
16.094915848669835
20
-37.2699723460121
10
16.237691645954975
20
-37.231538190726745
10
16.38473790183408
20
-37.218726805631626
0
LWPOLYLINE
5
173
100
AcDbEntity
8
0
100
AcDbPolyline
90
5
43
0.0
10
16.38473790183408
20
-37.218726805631626
10
16.489506582009845
20
-37.22769477147292
10
16.585164941360482
20
-37.2545986689968
10
16.67171297988599
20
-37.299438498203266
10
16.749150697586366
20
-37.36221425909232
0
LWPOLYLINE
5
174
100
AcDbEntity
8
0
100
AcDbPolyline
90
5
43
0.0
10
16.749150697586366
20
-37.36221425909232
10
16.812922939287738
20
-37.43965203616451
10
16.858474540503003
20
-37.5262001224203
10
16.885805501232163
20
-37.621858517859685
10
16.894915821475216
20
-37.72662722248267
0
LWPOLYLINE
5
175
100
AcDbEntity
8
0
100
AcDbPolyline
90
3
43
0.0
10
16.894915821475216
20
-37.72662722248267
10
16.859613329150953
20
-37.9139581390066
10
16.753705852178165
20
-38.07965212244223
0
LWPOLYLINE
5
176
100
AcDbEntity
8
0
100
AcDbPolyline
90
3
43
0.0
10
16.753705852178165
20
-38.07965212244223
10
16.580609772798844
20
-38.22029270905684
10
16.348296590593883
20
-38.327908448163974
0
LINE
5
177
100
AcDbEntity
8
0
100
AcDbLine
10
16.348296590593886
20
-38.327908448163974
30
0
11
15.817620419410298
21
-38.510114482824314
31
0
0
LINE
5
178
100
AcDbEntity
8
0
100
AcDbLine
10
15.817620419410298
20
-38.510114482824314
30
0
11
15.817620419410298
21
-38.621716133539188
31
0
0
LWPOLYLINE
5
179
100
AcDbEntity
8
0
100
AcDbPolyline
90
5
43
0.0
10
15.817620419410298
20
-38.62171613353919
10
15.841250312959085
20
-38.787125355784404
10
15.912139993605445
20
-38.90527480024527
10
16.030289461349376
20
-38.976164466921794
10
16.195698716190883
20
-38.99979435581397
0
LWPOLYLINE
5
180
100
AcDbEntity
8
0
100
AcDbPolyline
90
5
43
0.0
10
16.195698716190883
20
-38.99979435581397
10
16.364239651455783
20
-38.9778726429088
10
16.530503002439865
20
-38.912107504193294
10
16.694488769143128
20
-38.80249893966745
10
16.856196951565572
20
-38.64904694933127
0
LINE
5
181
100
AcDbEntity
8
0
100
AcDbLine
10
16.856196951565575
20
-38.649046949331272
30
0
11
16.856196951565575
21
-39.102285436574924
31
0
0
LWPOLYLINE
5
182
100
AcDbEntity
8
0
100
AcDbPolyline
90
5
43
0.0
10
16.856196951565572
20
-39.102285436574924
10
16.72224677328696
20
-39.22684062014948
10
16.56181972983969
20
-39.31580860841702
10
16.37491582122376
20
-39.36918940137755
10
16.161535047439166
20
-39.386982999031055
0
LWPOLYLINE
5
183
100
AcDbEntity
8
0
100
AcDbPolyline
90
5
43
0.0
10
16.161535047439166
20
-39.386982999031055
10
16.000253912505933
20
-39.375879799236166
10
15.855769925263951
20
-39.3425701998515
10
15.728083085713218
20
-39.28705420087706
10
15.617193393853734
20
-39.20933180231284
0
LWPOLYLINE
5
184
100
AcDbEntity
8
0
100
AcDbPolyline
90
3
43
0.0
10
15.617193393853734
20
-39.20933180231284
10
15.552282408324311
20
-39.14271254766415
10
15.49420412674291
20
-39.05673392790984
0
LWPOLYLINE
5
185
100
AcDbEntity
8
0
100
AcDbPolyline
90
8
70
1
43
0.0
10
5.3798739656254586
20
-38.950680940613047
10
6.4343935295388039
20
-38.950680940613047
10
6.4343935295388039
20
-39.337869583830134
10
4.6442155584141549
20
-39.337869583830134
10
5.7533971264406976
20
-37.62968435810496
10
4.6442155584141549
20
-37.62968435810496
10
4.6442155584141549
20
-37.242495863899485
10
6.4799451313361462
20
-37.242495863899485
0
LWPOLYLINE
5
186
100
AcDbEntity
8
0
100
AcDbPolyline
90
5
43
0.0
10
12.970960547023452
20
-38.356519950205104
10
12.953211434574797
20
-38.57431364583375
10
12.899964097228832
20
-38.76861975865962
10
12.811218534985557
20
-38.939438288682716
10
12.686974747844971
20
-39.08676923590304
0
LWPOLYLINE
5
187
100
AcDbEntity
8
0
100
AcDbPolyline
90
5
43
0.0
10
12.686974747844971
20
-39.08676923590304
10
12.532704280962236
20
-39.20540799724461
10
12.353878651552833
20
-39.29014996963145
10
12.150497859616763
20
-39.34099515306355
10
11.922561905154026
20
-39.35794354754092
0
LINE
5
188
100
AcDbEntity
8
0
100
AcDbLine
10
11.922561905154028
20
-39.357943547540927
30
0
11
11.188042319186964
21
-39.357943547540927
31
0
0
LINE
5
189
100
AcDbEntity
8
0
100
AcDbLine
10
11.188042319186964
20
-39.357943547540927
30
0
11
11.188042319186964
21
-36.392107022577548
31
0
0
LINE
5
190
100
AcDbEntity
8
0
100
AcDbLine
10
11.188042319186964
20
-36.392107022577548
30
0
11
11.576654321321287
21
-36.392107022577548
31
0
0
LINE
5
191
100
AcDbEntity
8
0
100
AcDbLine
10
11.576654321321287
20
-36.392107022577548
30
0
11
11.576654321321287
21
-37.427694214159274
31
0
0
LWPOLYLINE
5
192
100
AcDbEntity
8
0
100
AcDbPolyline
90
3
43
0.0
10
11.576654321321286
20
-37.42769421415927
10
11.81099605447892
20
-37.3764488227904
10
12.005835926898754
20
-37.359367025667446
0
LWPOLYLINE
5
193
100
AcDbEntity
8
0
100
AcDbPolyline
90
5
43
0.0
10
12.005835926898754
20
-37.359367025667446
10
12.206013877217657
20
-37.37698267551662
10
12.388042357557453
20
-37.42982962506415
10
12.55192136791814
20
-37.51790787431003
10
12.697650908299721
20
-37.64121742325427
0
LWPOLYLINE
5
194
100
AcDbEntity
8
0
100
AcDbPolyline
90
5
43
0.0
10
12.697650908299721
20
-37.64121742325427
10
12.817223875241353
20
-37.79161784204246
10
12.90263313734252
20
-37.960968402797
10
12.953878694603219
20
-38.14926910551788
10
12.970960547023452
20
-38.356519950205104
0
LWPOLYLINE
5
195
100
AcDbEntity
8
0
100
AcDbPolyline
90
8
70
1
43
0.0
10
14.579985216773226
20
-39.374949409513114
10
14.050447829580976
20
-38.26676435664141
10
13.544397913432791
20
-39.374949409513114
10
13.106675558305456
20
-39.374949409513114
10
14.496711195028498
20
-36.409112884549735
10
14.930163175380899
20
-36.409112884549735
10
14.261835702276899
20
-37.831177188901542
10
15.021978132940008
20
-39.374949409513114
0
LWPOLYLINE
5
196
100
AcDbEntity
8
0
100
AcDbPolyline
90
3
43
0.0
10
2.9650077447653778
20
-39.036938611742336
10
2.9219293143581964
20
-38.94236902567757
10
2.8993631353615195
20
-38.84695105281449
0
LWPOLYLINE
5
197
100
AcDbEntity
8
0
100
AcDbPolyline
90
5
43
0.0
10
2.8993631353615195
20
-38.84695105281449
10
2.8932008280547894
20
-38.789491497142585
10
2.8893334647848654
20
-38.71070997120622
10
2.8877610455517475
20
-38.610606475005405
10
2.8884835703554366
20
-38.48918100854013
0
LINE
5
198
100
AcDbEntity
8
0
100
AcDbLine
10
2.8884835703554366
20
-38.489181008540129
30
0
11
2.9010899214776686
21
-37.59873661438079
31
0
0
LWPOLYLINE
5
199
100
AcDbEntity
8
0
100
AcDbPolyline
90
3
43
0.0
10
2.9010899214776678
20
-37.59873661438079
10
2.8840076362241427
20
-37.518201954456295
10
2.829730094067609
20
-37.49066925395855
0
LWPOLYLINE
5
200
100
AcDbEntity
8
0
100
AcDbPolyline
90
3
43
0.0
10
2.829730094067609
20
-37.49066925395855
10
2.7331169545582243
20
-37.517204674549895
10
2.5935830037746053
20
-37.598938866506195
0
LINE
5
201
100
AcDbEntity
8
0
100
AcDbLine
10
2.5935830037746053
20
-37.598938866506202
30
0
11
2.5971617927601209
21
-37.346152587658892
31
0
0
LWPOLYLINE
5
202
100
AcDbEntity
8
0
100
AcDbPolyline
90
3
43
0.0
10
2.597161792760121
20
-37.34615258765889
10
2.725773572291895
20
-37.27166695812825
10
2.826637989687024
20
-37.22639992427418
0
LWPOLYLINE
5
203
100
AcDbEntity
8
0
100
AcDbPolyline
90
2
43
0.0
10
2.826637989687024
20
-37.22639992427418
10
3.0047550080789933
20
-37.194754277029325
0
LWPOLYLINE
5
204
100
AcDbEntity
8
0
100
AcDbPolyline
90
5
43
0.0
10
3.0047550080789933
20
-37.194754277029325
10
3.124130596229411
20
-37.20954172422187
10
3.2158071922147857
20
-37.25013183206734
10
3.2797847960351167
20
-37.31652460056574
10
3.316063407690405
20
-37.408720029717074
0
LWPOLYLINE
5
205
100
AcDbEntity
8
0
100
AcDbPolyline
90
5
43
0.0
10
3.316063407690405
20
-37.408720029717074
10
3.451554338837491
20
-37.32094954249998
10
3.590952585975621
20
-37.258859710464776
10
3.734258149104795
20
-37.22245053361145
10
3.8814710282250124
20
-37.21172201194001
0
LWPOLYLINE
5
206
100
AcDbEntity
8
0
100
AcDbPolyline
90
5
43
0.0
10
3.8814710282250124
20
-37.21172201194001
10
3.9861022604334315
20
-37.22217217957744
10
4.081370184490385
20
-37.25042751644518
10
4.167274800395875
20
-37.29648802254322
10
4.243816108149898
20
-37.36035369787158
0
LWPOLYLINE
5
207
100
AcDbEntity
8
0
100
AcDbPolyline
90
5
43
0.0
10
4.243816108149898
20
-37.36035369787158
10
4.3064857543975705
20
-37.43868647242152
10
4.350807620778494
20
-37.52587071278826
10
4.376781707292667
20
-37.6219064189718
10
4.3844080139400905
20
-37.72679359097214
0
LWPOLYLINE
5
208
100
AcDbEntity
8
0
100
AcDbPolyline
90
3
43
0.0
10
4.3844080139400905
20
-37.72679359097214
10
4.346457211511072
20
-37.91360599646223
10
4.23821479047149
20
-38.07778415613336
0
LWPOLYLINE
5
209
100
AcDbEntity
8
0
100
AcDbPolyline
90
3
43
0.0
10
4.23821479047149
20
-38.07778415613336
10
4.06314515403617
20
-38.215960310726686
10
3.829331846509716
20
-38.3202766524633
0
LINE
5
210
100
AcDbEntity
8
0
100
AcDbLine
10
3.8293318465097159
20
-38.320276652463299
30
0
11
3.2961295494956544
21
-38.494952203665072
31
0
0
LINE
5
211
100
AcDbEntity
8
0
100
AcDbLine
10
3.2961295494956544
20
-38.494952203665072
30
0
11
3.2945497219029263
21
-38.606542671838042
31
0
0
LWPOLYLINE
5
212
100
AcDbEntity
8
0
100
AcDbPolyline
90
5
43
0.0
10
3.2945497219029254
20
-38.60654267183804
10
3.3158357227405033
20
-38.77226982363049
10
3.3850457823593194
20
-38.89141094036235
10
3.5021799007593732
20
-38.963966022033624
10
3.6672380779406657
20
-38.98993506864431
0
LWPOLYLINE
5
213
100
AcDbEntity
8
0
100
AcDbPolyline
90
5
43
0.0
10
3.6672380779406657
20
-38.98993506864431
10
3.8360724480306434
20
-38.97040140966846
10
4.0032501074791496
20
-38.906996476642355
10
4.168771056286184
20
-38.79972026956599
10
4.332635294451748
20
-38.64857278843936
0
LINE
5
214
100
AcDbEntity
8
0
100
AcDbLine
10
4.332635294451749
20
-38.64857278843936
30
0
11
4.326219272254523
21
-39.101765860957116
31
0
0
LWPOLYLINE
5
215
100
AcDbEntity
8
0
100
AcDbPolyline
90
5
43
0.0
10
4.326219272254523
20
-39.10176586095711
10
4.190519318671556
20
-39.22441237176661
10
4.028848923538093
20
-39.31110044789589
10
3.841208086854133
20
-39.36183008934495
10
3.627596808619676
20
-39.37660129611379
0
LWPOLYLINE
5
216
100
AcDbEntity
8
0
100
AcDbPolyline
90
5
43
0.0
10
3.627596808619676
20
-39.37660129611379
10
3.466489010499383
20
-39.36321612088641
10
3.322491029710757
20
-39.327864550775494
10
3.1956028662537994
20
-39.27054658578104
10
3.0858245201285093
20
-39.19126222590305
0
LWPOLYLINE
5
217
100
AcDbEntity
8
0
100
AcDbPolyline
90
3
43
0.0
10
3.0858245201285093
20
-39.19126222590305
10
3.021863097673092
20
-39.123730769752406
10
2.9650077447653778
20
-39.036938611742336
0
LWPOLYLINE
5
218
100
AcDbEntity
8
0
100
AcDbPolyline
90
3
43
0.0
10
7.02821585068728
20
-39.05673392790984
10
6.983803014254823
20
-38.96278363395165
10
6.959888364172235
20
-38.86769466776084
0
LWPOLYLINE
5
219
100
AcDbEntity
8
0
100
AcDbPolyline
90
5
43
0.0
10
6.959888364172235
20
-38.86769466776084
10
6.952913279629007
20
-38.810328102890956
10
6.947931076383844
20
-38.731609217111576
10
6.944941754436746
20
-38.631538010422695
10
6.943945313787713
20
-38.510114482824314
0
LINE
5
220
100
AcDbEntity
8
0
100
AcDbLine
10
6.9439453137877134
20
-38.510114482824314
30
0
11
6.9439453137877134
21
-37.619580856744754
31
0
0
LWPOLYLINE
5
221
100
AcDbEntity
8
0
100
AcDbPolyline
90
3
43
0.0
10
6.943945313787713
20
-37.619580856744754
10
6.925724695420518
20
-37.53929608244132
10
6.871062840318933
20
-37.51253449100684
0
LWPOLYLINE
5
222
100
AcDbEntity
8
0
100
AcDbPolyline
90
3
43
0.0
10
6.871062840318933
20
-37.51253449100684
10
6.774835015630975
20
-37.54043490368556
10
6.636472071504846
20
-37.62413614172171
0
LINE
5
223
100
AcDbEntity
8
0
100
AcDbLine
10
6.6364720715048451
20
-37.624136141721713
30
0
11
6.636472071504846
21
-37.371324531023014
31
0
0
LWPOLYLINE
5
224
100
AcDbEntity
8
0
100
AcDbPolyline
90
3
43
0.0
10
6.636472071504846
20
-37.37132453102301
10
6.764016549086824
20
-37.295025742833126
10
6.864230061865106
20
-37.2483354129238
0
LWPOLYLINE
5
225
100
AcDbEntity
8
0
100
AcDbPolyline
90
2
43
0.0
10
6.864230061865106
20
-37.2483354129238
10
7.041881258583322
20
-37.214171520654666
0
LWPOLYLINE
5
226
100
AcDbEntity
8
0
100
AcDbPolyline
90
5
43
0.0
10
7.041881258583322
20
-37.214171520654666
10
7.161454215629652
20
-37.227267611060846
10
7.253696217185512
20
-37.266555882279384
10
7.318607263250902
20
-37.33203633431028
10
7.356187353825822
20
-37.42370896715354
0
LWPOLYLINE
5
227
100
AcDbEntity
8
0
100
AcDbPolyline
90
5
43
0.0
10
7.356187353825822
20
-37.42370896715354
10
7.490422233923033
20
-37.3340292714877
10
7.628927572614208
20
-37.2699723460121
10
7.771703369899347
20
-37.231538190726745
10
7.918749625778451
20
-37.218726805631626
0
LWPOLYLINE
5
228
100
AcDbEntity
8
0
100
AcDbPolyline
90
5
43
0.0
10
7.918749625778451
20
-37.218726805631626
10
8.023518305954218
20
-37.22769477147292
10
8.119176665304854
20
-37.2545986689968
10
8.205724703830361
20
-37.299438498203266
10
8.283162421530738
20
-37.36221425909232
0
LWPOLYLINE
5
229
100
AcDbEntity
8
0
100
AcDbPolyline
90
5
43
0.0
10
8.283162421530738
20
-37.36221425909232
10
8.34693466323211
20
-37.43965203616451
10
8.392486264447376
20
-37.5262001224203
10
8.419817225176535
20
-37.621858517859685
10
8.428927545419588
20
-37.72662722248267
0
LWPOLYLINE
5
230
100
AcDbEntity
8
0
100
AcDbPolyline
90
3
43
0.0
10
8.428927545419588
20
-37.72662722248267
10
8.393625053095326
20
-37.9139581390066
10
8.287717576122537
20
-38.07965212244223
0
LWPOLYLINE
5
231
100
AcDbEntity
8
0
100
AcDbPolyline
90
3
43
0.0
10
8.287717576122537
20
-38.07965212244223
10
8.114621496743217
20
-38.22029270905684
10
7.882308314538255
20
-38.327908448163974
0
LINE
5
232
100
AcDbEntity
8
0
100
AcDbLine
10
7.8823083145382551
20
-38.327908448163974
30
0
11
7.351632143354669
21
-38.510114482824314
31
0
0
LINE
5
233
100
AcDbEntity
8
0
100
AcDbLine
10
7.351632143354669
20
-38.510114482824314
30
0
11
7.351632143354669
21
-38.621716133539188
31
0
0
LWPOLYLINE
5
234
100
AcDbEntity
8
0
100
AcDbPolyline
90
5
43
0.0
10
7.351632143354669
20
-38.62171613353919
10
7.375262036903456
20
-38.787125355784404
10
7.4461517175498155
20
-38.90527480024527
10
7.564301185293749
20
-38.976164466921794
10
7.729710440135255
20
-38.99979435581397
0
LWPOLYLINE
5
235
100
AcDbEntity
8
0
100
AcDbPolyline
90
5
43
0.0
10
7.729710440135255
20
-38.99979435581397
10
7.8982513754001555
20
-38.9778726429088
10
8.064514726384237
20
-38.912107504193294
10
8.2285004930875
20
-38.80249893966745
10
8.390208675509944
20
-38.64904694933127
0
LINE
5
236
100
AcDbEntity
8
0
100
AcDbLine
10
8.3902086755099443
20
-38.649046949331272
30
0
11
8.3902086755099443
21
-39.102285436574924
31
0
0
LWPOLYLINE
5
237
100
AcDbEntity
8
0
100
AcDbPolyline
90
5
43
0.0
10
8.390208675509944
20
-39.102285436574924
10
8.256258497231334
20
-39.22684062014948
10
8.095831453784063
20
-39.31580860841702
10
7.908927545168131
20
-39.36918940137755
10
7.695546771383539
20
-39.386982999031055
0
LWPOLYLINE
5
238
100
AcDbEntity
8
0
100
AcDbPolyline
90
5
43
0.0
10
7.695546771383539
20
-39.386982999031055
10
7.534265636450305
20
-39.375879799236166
10
7.389781649208322
20
-39.3425701998515
10
7.262094809657588
20
-39.28705420087706
10
7.151205117798105
20
-39.20933180231284
0
LWPOLYLINE
5
239
100
AcDbEntity
8
0
100
AcDbPolyline
90
3
43
0.0
10
7.151205117798105
20
-39.20933180231284
10
7.086294132268682
20
-39.14271254766415
10
7.02821585068728
20
-39.05673392790984
0
LINE
5
240
100
AcDbEntity
8
0
100
AcDbLine
10
2.4582008807309874
20
-40.645979526427851
30
0
11
0.92827229189914817
21
-40.645338949198063
31
0
0
LINE
5
241
100
AcDbEntity
8
0
100
AcDbLine
10
0.92827229189914817
20
-40.645338949198063
30
0
11
0.79831052549951043
21
-39.161598501948632
31
0
0
LINE
5
242
100
AcDbEntity
8
0
100
AcDbLine
10
0.79831052549951043
20
-39.161598501948632
30
0
11
0.14262467297541992
21
-40.669685832422488
31
0
0
LINE
5
243
100
AcDbEntity
8
0
100
AcDbLine
10
0.14262467297541992
20
-40.669685832422488
30
0
11
-3.079207282910883
21
-40.669685832422488
31
0
0
LWPOLYLINE
5
244
100
AcDbEntity
8
0
100
AcDbPolyline
90
9
43
0.0
10
-3.0792072829108843
20
-40.66968583242248
10
-2.6927285467164928
20
-40.48232017693447
10
-2.329288682380271
20
-40.28973925266475
10
-1.990750065563287
20
-40.09083892258295
10
-1.6789729582181347
20
-39.883365718281404
10
-1.3939773903119468
20
-39.663685015357984
10
-1.1324624670210228
20
-39.42683297974391
10
-0.8892686832917713
20
-39.167213106635415
10
-0.659871685826275
20
-38.87994657992958
0
LINE
5
245
100
AcDbEntity
8
0
100
AcDbLine
10
-0.65987168582627498
20
-38.87994657992958
30
0
11
1.1000002857617619
21
-36.499998956301681
31
0
0
LINE
5
246
100
AcDbEntity
8
0
100
AcDbLine
10
1.1000002857617619
20
-36.499998956301681
30
0
11
2.4582008807309874
21
-40.645979526427851
31
0
0
LINE
5
247
100
AcDbEntity
8
0
100
AcDbLine
10
-11.277402212139569
20
-41.216524021666231
30
0
11
18.431847337616464
21
-41.228963217633456
31
0
0
LWPOLYLINE
5
248
100
AcDbEntity
8
0
100
AcDbPolyline
90
9
43
0.0
10
18.43184733761681
20
-41.228963217633336
10
18.83318085926897
20
-41.04720206017651
10
19.195717494348255
20
-40.85589493575867
10
19.521832369773044
20
-40.65007516659539
10
19.81590101411634
20
-40.42547804698254
10
20.084829582656475
20
-40.17925588265197
10
20.337882835402194
20
-39.91011164993484
10
20.585554010280127
20
-39.61765601131861
10
20.83825844984557
20
-39.301630974419474
0
LWPOLYLINE
5
249
100
AcDbEntity
8
0
100
AcDbPolyline
90
9
43
0.0
10
20.838258449845608
20
-39.30163097441941
10
20.86183269709616
20
-39.01003222184903
10
20.920876864304397
20
-38.72490259560777
10
21.017314040902274
20
-38.46141680095658
10
21.15243049393887
20
-38.23076163464308
10
21.326874798131257
20
-38.038962782477796
10
21.54079765007212
20
-37.88765024122744
10
21.794019554349095
20
-37.77534909180757
10
22.086181508607478
20
-37.69873528422879
0
LWPOLYLINE
5
250
100
AcDbEntity
8
0
100
AcDbPolyline
90
5
43
0.0
10
22.086181508607478
20
-37.698735284228796
10
22.33487260900708
20
-37.36494525358939
10
22.5919708202371
20
-37.00734731361448
10
22.855906148006493
20
-36.62361095423859
10
23.125108938753584
20
-36.2115795644752
0
LINE
5
251
100
AcDbEntity
8
0
100
AcDbLine
10
23.125108938753588
20
-36.211579564475201
30
0
11
-8.3176634319163831
21
-36.057210289909648
31
0
0
LWPOLYLINE
5
252
100
AcDbEntity
8
0
100
AcDbPolyline
90
33
43
0.0
10
-8.317663431916385
20
-36.05721028990965
10
-8.80825778624683
20
-36.1724742736174
10
-9.27395383280818
20
-36.29758979724925
10
-9.714586252878771
20
-36.43260134885663
10
-10.129892960378353
20
-36.57755830141981
10
-10.519530094404383
20
-36.73249180114125
10
-10.883089216856593
20
-36.897390561415264
10
-11.220116927518916
20
-37.07217592275061
10
-11.530136820188796
20
-37.2566758523892
10
-11.812676302951486
20
-37.45059537766553
10
-12.067297358308107
20
-37.65348434954466
10
-12.293627680933211
20
-37.86470694637706
10
-12.491392712914253
20
-38.08341244602319
10
-12.660457799802982
20
-38.30849656179327
10
-12.800882573207373
20
-38.538551439929364
10
-12.912955596089521
20
-38.77184132625833
10
-12.997189412199772
20
-39.00632816761657
10
-13.054295016072258
20
-39.23972471396878
10
-13.085133543590185
20
-39.469579895106556
10
-13.090664560191687
20
-39.69337098248604
10
-13.071906991187234
20
-39.90858359977368
10
-13.029905619607993
20
-40.11278936463875
10
-12.965697111885891
20
-40.30373545746774
10
-12.880276799544458
20
-40.47943798519523
10
-12.774571325576911
20
-40.63825976348252
10
-12.649417092859467
20
-40.77896596117262
10
-12.50554878780297
20
-40.90071043620015
10
-12.34359706026401
20
-41.00295923085373
10
-12.164087982822632
20
-41.085417390296335
10
-11.967443338524712
20
-41.14796974514812
10
-11.753982442275856
20
-41.19062333964816
10
-11.523926168299502
20
-41.213448772907746
10
-11.277402212139567
20
-41.216524021666224
0
LWPOLYLINE
5
253
100
AcDbEntity
8
0
100
AcDbPolyline
90
4
70
1
43
0.0
10
21.60874114509226
20
-17.574924852186726
42
0.89405111660951508
10
-21.60874114509226
20
-17.574924852186761
10
-8.1407114949842523
20
-17.574924852186737
42
-0.745532916154793
10
8.1407114949842541
20
-17.574924852186737
0
ENDSEC
0
SECTION
2
OBJECTS
0
DICTIONARY
5
C
100
AcDbDictionary
3
ACAD_GROUP
350
D
3
ACAD_MLINESTYLE
350
17
0
DICTIONARY
5
D
100
AcDbDictionary
0
DICTIONARY
5
1A
330
C
100
AcDbDictionary
0
DICTIONARY
5
17
100
AcDbDictionary
0
ENDSEC
0
EOF
